<svg width="259" height="83" viewBox="0 0 259 83" fill="none" xmlns="http://www.w3.org/2000/svg">
<g filter="url(#filter0_d_6852_17170)">
<rect x="9.82031" y="10.1973" width="223.008" height="51.1982" rx="7.77934" fill="white" shape-rendering="crispEdges"/>
<rect x="9.20765" y="9.58461" width="224.233" height="52.4235" rx="8.392" stroke="#E2E8F0" stroke-width="1.22532" shape-rendering="crispEdges"/>
<path d="M20.1929 35.7964C20.1929 33.6482 21.9343 31.9067 24.0825 31.9067C26.2307 31.9067 27.9722 33.6482 27.9722 35.7964C27.9722 37.9446 26.2307 39.6861 24.0825 39.6861C21.9343 39.6861 20.1929 37.9446 20.1929 35.7964Z" fill="#E8B931"/>
<path d="M42.1618 31.1657C40.1703 31.1657 38.8011 29.7239 38.8011 27.3279C38.8011 24.9526 40.1495 23.4694 42.1722 23.4694C43.9977 23.4694 44.9727 24.4444 45.2839 26.0521L44.1118 26.1143C43.9147 25.1082 43.2924 24.4962 42.1722 24.4962C40.8341 24.4962 39.9628 25.575 39.9628 27.3279C39.9628 29.0912 40.8445 30.1388 42.1618 30.1388C43.3546 30.1388 43.9873 29.4646 44.1637 28.3652L45.3358 28.4274C45.0557 30.0974 43.977 31.1657 42.1618 31.1657ZM48.0018 31.1242C46.8505 31.1242 46.114 30.5745 46.114 29.6202C46.114 28.6763 46.6638 28.1681 47.8773 27.9295L49.7755 27.5665C49.7755 26.7159 49.371 26.2907 48.5827 26.2907C47.8773 26.2907 47.4832 26.6122 47.338 27.2138L46.2074 27.1412C46.4148 26.0417 47.2757 25.3571 48.5827 25.3571C50.0763 25.3571 50.875 26.1973 50.875 27.6287V29.7758C50.875 30.0455 50.958 30.1285 51.1654 30.1285H51.3625V30.9998C51.2899 31.0205 51.1239 31.0309 50.958 31.0309C50.3252 31.0309 49.9518 30.7923 49.8688 30.1492C49.5888 30.7301 48.8627 31.1242 48.0018 31.1242ZM48.1781 30.2529C49.1739 30.2529 49.7755 29.6306 49.7755 28.7489V28.3963L48.1574 28.7074C47.4936 28.8319 47.255 29.0912 47.255 29.5165C47.255 29.9936 47.5869 30.2529 48.1781 30.2529ZM52.2908 32.5556V25.4816H53.3281L53.3488 26.3218C53.6703 25.6891 54.2823 25.3571 55.0188 25.3571C56.6369 25.3571 57.3837 26.6848 57.3837 28.2407C57.3837 29.7966 56.6265 31.1242 55.0188 31.1242C54.3134 31.1242 53.6911 30.7923 53.3903 30.2529V32.5556H52.2908ZM54.8217 30.17C55.7033 30.17 56.2427 29.4543 56.2427 28.2407C56.2427 27.0271 55.7033 26.3114 54.8217 26.3114C53.94 26.3114 53.3903 26.9649 53.3903 28.2407C53.3903 29.5165 53.9297 30.17 54.8217 30.17ZM60.7717 31.1242C59.1847 31.1242 58.1578 29.9833 58.1578 28.2407C58.1578 26.4981 59.1847 25.3571 60.7717 25.3571C62.1097 25.3571 63.0536 26.0832 63.2403 27.359L62.089 27.4213C61.9749 26.7056 61.4666 26.3114 60.7717 26.3114C59.8381 26.3114 59.2988 27.0271 59.2988 28.2407C59.2988 29.4543 59.8381 30.17 60.7717 30.17C61.477 30.17 61.9852 29.7758 62.089 28.9771L63.2403 29.0394C63.064 30.3048 62.1201 31.1242 60.7717 31.1242ZM65.9004 31.1242C64.749 31.1242 64.0126 30.5745 64.0126 29.6202C64.0126 28.6763 64.5623 28.1681 65.7759 27.9295L67.674 27.5665C67.674 26.7159 67.2695 26.2907 66.4812 26.2907C65.7759 26.2907 65.3817 26.6122 65.2365 27.2138L64.1059 27.1412C64.3134 26.0417 65.1743 25.3571 66.4812 25.3571C67.9748 25.3571 68.7735 26.1973 68.7735 27.6287V29.7758C68.7735 30.0455 68.8565 30.1285 69.064 30.1285H69.261V30.9998C69.1884 31.0205 69.0225 31.0309 68.8565 31.0309C68.2238 31.0309 67.8504 30.7923 67.7674 30.1492C67.4873 30.7301 66.7613 31.1242 65.9004 31.1242ZM66.0767 30.2529C67.0724 30.2529 67.674 29.6306 67.674 28.7489V28.3963L66.0559 28.7074C65.3921 28.8319 65.1535 29.0912 65.1535 29.5165C65.1535 29.9936 65.4855 30.2529 66.0767 30.2529ZM70.1894 30.9998V25.4816H71.1955L71.2162 26.4462C71.5067 25.6891 72.1394 25.3571 72.8966 25.3571C74.1309 25.3571 74.7636 26.2492 74.7636 27.4524V30.9998H73.6641V27.7843C73.6641 26.8093 73.3633 26.2803 72.5958 26.2803C71.8178 26.2803 71.2888 26.8093 71.2888 27.7843V30.9998H70.1894ZM77.7517 31.1242C76.6004 31.1242 75.8639 30.5745 75.8639 29.6202C75.8639 28.6763 76.4136 28.1681 77.6272 27.9295L79.5254 27.5665C79.5254 26.7159 79.1209 26.2907 78.3326 26.2907C77.6272 26.2907 77.2331 26.6122 77.0879 27.2138L75.9573 27.1412C76.1647 26.0417 77.0256 25.3571 78.3326 25.3571C79.8262 25.3571 80.6249 26.1973 80.6249 27.6287V29.7758C80.6249 30.0455 80.7078 30.1285 80.9153 30.1285H81.1124V30.9998C81.0398 31.0205 80.8738 31.0309 80.7078 31.0309C80.0751 31.0309 79.7017 30.7923 79.6187 30.1492C79.3387 30.7301 78.6126 31.1242 77.7517 31.1242ZM77.928 30.2529C78.9238 30.2529 79.5254 29.6306 79.5254 28.7489V28.3963L77.9073 28.7074C77.2434 28.8319 77.0049 29.0912 77.0049 29.5165C77.0049 29.9936 77.3368 30.2529 77.928 30.2529ZM84.5933 30.9998V25.4816H85.5994L85.6202 26.4462C85.9106 25.6891 86.5433 25.3571 87.3005 25.3571C88.5348 25.3571 89.1675 26.2492 89.1675 27.4524V30.9998H88.0681V27.7843C88.0681 26.8093 87.7673 26.2803 86.9997 26.2803C86.2218 26.2803 85.6928 26.8093 85.6928 27.7843V30.9998H84.5933ZM90.5291 30.9998V25.4816H91.5352L91.5663 26.5292C91.7738 25.8032 92.2094 25.4816 92.8836 25.4816H93.4126V26.467H92.8836C92.0435 26.467 91.6286 26.8715 91.6286 27.7428V30.9998H90.5291ZM93.6713 30.9998V29.6928H95.0093V30.9998H93.6713ZM101.171 31.1657C99.4701 31.1657 98.5262 30.3048 98.4639 29.0186L99.6153 28.9564C99.6983 29.7966 100.3 30.1388 101.171 30.1388C102.053 30.1388 102.789 29.7966 102.789 28.9045C102.789 28.0229 102.136 27.608 101.161 27.608H100.549V26.633H101.161C101.949 26.633 102.54 26.3425 102.54 25.5646C102.54 24.88 102.094 24.4962 101.192 24.4962C100.3 24.4962 99.8642 24.8696 99.7812 25.4609L98.6299 25.3986C98.7647 24.2473 99.6671 23.4694 101.192 23.4694C102.769 23.4694 103.702 24.2473 103.702 25.4816C103.702 26.2595 103.256 26.7989 102.426 27.0582C103.38 27.3175 103.951 28.0021 103.951 28.946C103.951 30.3463 102.831 31.1657 101.171 31.1657Z" fill="#020617"/>
<path d="M39.1797 48.5929V42.149H39.9602V44.9716H43.2003V42.149H43.9809V48.5929H43.2003V45.734H39.9602V48.5929H39.1797ZM46.7501 48.7018C45.7518 48.7018 45.1256 48.2208 45.1256 47.3949C45.1256 46.578 45.5884 46.1243 46.6412 45.9246L48.3475 45.6069C48.3475 44.7992 47.9663 44.3998 47.2039 44.3998C46.5323 44.3998 46.1602 44.7084 46.015 45.262L45.2072 45.1985C45.3888 44.2909 46.1148 43.6738 47.2039 43.6738C48.4383 43.6738 49.1099 44.418 49.1099 45.6342V47.6218C49.1099 47.8396 49.1825 47.9213 49.364 47.9213H49.5546V48.5929C49.5001 48.602 49.3821 48.611 49.2642 48.611C48.6833 48.611 48.4201 48.3841 48.3566 47.8487C48.1206 48.3478 47.4581 48.7018 46.7501 48.7018ZM46.8227 48.0302C47.7848 48.0302 48.3475 47.413 48.3475 46.6144V46.2695L46.7864 46.5599C46.133 46.6779 45.9242 46.9229 45.9242 47.3223C45.9242 47.7761 46.26 48.0302 46.8227 48.0302ZM51.3064 48.5929C50.7437 48.5929 50.3625 48.3206 50.3625 47.6853V42.149H51.1249V47.6218C51.1249 47.8214 51.2247 47.9213 51.4244 47.9213H51.8419V48.5929H51.3064ZM54.08 48.7018C53.0816 48.7018 52.4554 48.2208 52.4554 47.3949C52.4554 46.578 52.9183 46.1243 53.9711 45.9246L55.6773 45.6069C55.6773 44.7992 55.2962 44.3998 54.5338 44.3998C53.8622 44.3998 53.4901 44.7084 53.3448 45.262L52.5371 45.1985C52.7186 44.2909 53.4447 43.6738 54.5338 43.6738C55.7681 43.6738 56.4397 44.418 56.4397 45.6342V47.6218C56.4397 47.8396 56.5123 47.9213 56.6938 47.9213H56.8844V48.5929C56.83 48.602 56.712 48.611 56.594 48.611C56.0132 48.611 55.75 48.3841 55.6864 47.8487C55.4504 48.3478 54.7879 48.7018 54.08 48.7018ZM54.1526 48.0302C55.1146 48.0302 55.6773 47.413 55.6773 46.6144V46.2695L54.1163 46.5599C53.4628 46.6779 53.2541 46.9229 53.2541 47.3223C53.2541 47.7761 53.5899 48.0302 54.1526 48.0302ZM61.0301 48.5929V43.819H59.6869V43.1474H60.2315C60.9394 43.1474 61.1935 42.9114 61.1935 42.149H61.8107V48.5929H61.0301Z" fill="#64748B"/>
<path d="M178.351 39.4416C176.917 39.4416 176.082 38.6974 175.991 37.5992L176.998 37.5357C177.089 38.2073 177.597 38.5431 178.351 38.5431C179.195 38.5431 179.721 38.0439 179.721 37.1999C179.721 36.3739 179.204 35.8385 178.342 35.8385C177.761 35.8385 177.289 36.1017 177.098 36.5192H176.082L176.517 32.8525H180.293V33.751H177.389L177.162 35.539C177.489 35.1941 177.997 35.0035 178.569 35.0035C179.866 35.0035 180.738 35.9292 180.738 37.1999C180.738 38.534 179.767 39.4416 178.351 39.4416ZM181.606 40.2947L184.292 32.4895H185.218L182.54 40.2947H181.606ZM187.47 39.2964V34.704H186.109V33.9144H186.662C187.397 33.9144 187.679 33.6603 187.679 32.8525H188.45V39.2964H187.47ZM189.889 39.2964C189.889 37.8352 190.451 36.9367 192.303 35.9565C193.183 35.4936 193.519 35.2213 193.519 34.6223C193.519 34.0233 193.129 33.6058 192.357 33.6058C191.531 33.6058 191.059 34.0596 190.932 34.8855L189.916 34.822C190.052 33.5241 190.923 32.7073 192.357 32.7073C193.728 32.7073 194.535 33.4787 194.535 34.6041C194.535 35.5934 194.091 36.0654 192.793 36.7551C191.676 37.3541 191.114 37.9622 191.077 38.3979H194.535V39.2964H189.889ZM195.406 40.2947L198.092 32.4895H199.018L196.34 40.2947H195.406ZM200.09 39.2964C200.09 37.8352 200.653 36.9367 202.504 35.9565C203.385 35.4936 203.72 35.2213 203.72 34.6223C203.72 34.0233 203.33 33.6058 202.559 33.6058C201.733 33.6058 201.261 34.0596 201.134 34.8855L200.117 34.822C200.253 33.5241 201.125 32.7073 202.559 32.7073C203.929 32.7073 204.737 33.4787 204.737 34.6041C204.737 35.5934 204.292 36.0654 202.994 36.7551C201.878 37.3541 201.315 37.9622 201.279 38.3979H204.737V39.2964H200.09ZM208.232 39.4416C206.626 39.4416 205.619 38.1528 205.619 36.0835C205.619 34.0142 206.626 32.7073 208.232 32.7073C209.848 32.7073 210.855 34.0051 210.855 36.0835C210.855 38.1437 209.848 39.4416 208.232 39.4416ZM208.232 38.5431C209.267 38.5431 209.839 37.6718 209.839 36.0835C209.839 34.4862 209.267 33.6058 208.232 33.6058C207.207 33.6058 206.635 34.4862 206.635 36.0835C206.635 37.6718 207.207 38.5431 208.232 38.5431ZM211.736 39.2964C211.736 37.8352 212.299 36.9367 214.15 35.9565C215.031 35.4936 215.367 35.2213 215.367 34.6223C215.367 34.0233 214.976 33.6058 214.205 33.6058C213.379 33.6058 212.907 34.0596 212.78 34.8855L211.763 34.822C211.9 33.5241 212.771 32.7073 214.205 32.7073C215.575 32.7073 216.383 33.4787 216.383 34.6041C216.383 35.5934 215.938 36.0654 214.641 36.7551C213.524 37.3541 212.961 37.9622 212.925 38.3979H216.383V39.2964H211.736ZM220.199 39.2964V37.9532H216.95V37.1182L220.081 32.8525H221.179V37.0637H221.969V37.9532H221.179V39.2964H220.199ZM218.066 37.0637H220.199V34.2139L218.066 37.0637Z" fill="#020617"/>
</g>
<defs>
<filter id="filter0_d_6852_17170" x="0.595215" y="0.971924" width="257.458" height="85.6488" filterUnits="userSpaceOnUse" color-interpolation-filters="sRGB">
<feFlood flood-opacity="0" result="BackgroundImageFix"/>
<feColorMatrix in="SourceAlpha" type="matrix" values="0 0 0 0 0 0 0 0 0 0 0 0 0 0 0 0 0 0 127 0" result="hardAlpha"/>
<feOffset dx="8" dy="8"/>
<feGaussianBlur stdDeviation="8"/>
<feComposite in2="hardAlpha" operator="out"/>
<feColorMatrix type="matrix" values="0 0 0 0 0.0970139 0 0 0 0 0.127226 0 0 0 0 0.183333 0 0 0 0.25 0"/>
<feBlend mode="normal" in2="BackgroundImageFix" result="effect1_dropShadow_6852_17170"/>
<feBlend mode="normal" in="SourceGraphic" in2="effect1_dropShadow_6852_17170" result="shape"/>
</filter>
</defs>
</svg>
