<svg width="295" height="77" viewBox="0 0 295 77" fill="none" xmlns="http://www.w3.org/2000/svg">
<g filter="url(#filter0_d_6852_17191)">
<mask id="path-1-outside-1_6852_17191" maskUnits="userSpaceOnUse" x="8" y="8.25" width="263" height="45" fill="black">
<rect fill="white" x="8" y="8.25" width="263" height="45"/>
<path d="M8 14.4291C8 11.0165 10.7665 8.25 14.1791 8.25H264.805C268.218 8.25 270.984 11.0165 270.984 14.4291V45.5782C270.984 48.9908 268.218 51.7573 264.805 51.7573H14.179C10.7664 51.7573 8 48.9908 8 45.5782V14.4291Z"/>
</mask>
<path d="M8 14.4291C8 11.0165 10.7665 8.25 14.1791 8.25H264.805C268.218 8.25 270.984 11.0165 270.984 14.4291V45.5782C270.984 48.9908 268.218 51.7573 264.805 51.7573H14.179C10.7664 51.7573 8 48.9908 8 45.5782V14.4291Z" fill="white" shape-rendering="crispEdges"/>
<path d="M8 8.25H270.984H8ZM270.984 45.5782C270.984 49.5431 267.77 52.7573 263.805 52.7573H15.1791C11.2142 52.7573 8 49.5431 8 45.5782C8 48.4385 10.7665 50.7573 14.1791 50.7573H264.805C268.218 50.7573 270.984 48.4385 270.984 45.5782ZM8 51.7573V8.25V51.7573ZM270.984 8.25V51.7573V8.25Z" fill="#E2E8F0" mask="url(#path-1-outside-1_6852_17191)"/>
<path d="M19.3579 22.7948C19.3579 20.5197 21.2022 18.6754 23.4773 18.6754H254.507C256.782 18.6754 258.626 20.5197 258.626 22.7948V37.2126C258.626 39.4876 256.782 41.3319 254.507 41.3319H23.4773C21.2022 41.3319 19.3579 39.4876 19.3579 37.2126V22.7948Z" fill="#F1F5F9"/>
<g filter="url(#filter1_d_6852_17191)">
<path d="M21.4175 24.04C21.4175 22.2148 22.8971 20.7351 24.7224 20.7351H81.4707C83.2959 20.7351 84.7756 22.2148 84.7756 24.04V35.9674C84.7756 37.7926 83.2959 39.2723 81.4707 39.2723H24.7224C22.8971 39.2723 21.4175 37.7926 21.4175 35.9674V24.04Z" fill="white" shape-rendering="crispEdges"/>
<path d="M29.631 32.5037V27.792H27.9499V27.0285H32.145V27.792H30.4639V32.5037H29.631ZM33.89 32.5962C32.7178 32.5962 31.9467 31.7556 31.9467 30.4524C31.9467 29.1492 32.7178 28.3086 33.89 28.3086C35.0621 28.3086 35.8332 29.1492 35.8332 30.4524C35.8332 31.7556 35.0621 32.5962 33.89 32.5962ZM33.89 31.8867C34.584 31.8867 34.985 31.3547 34.985 30.4524C34.985 29.5502 34.584 29.0181 33.89 29.0181C33.1959 29.0181 32.7949 29.5502 32.7949 30.4524C32.7949 31.3547 33.1959 31.8867 33.89 31.8867ZM37.8912 32.5962C37.0352 32.5962 36.4877 32.1875 36.4877 31.478C36.4877 30.7763 36.8964 30.3984 37.7986 30.2211L39.2098 29.9512C39.2098 29.3188 38.9091 29.0027 38.323 29.0027C37.7986 29.0027 37.5056 29.2417 37.3976 29.689L36.5571 29.635C36.7113 28.8176 37.3514 28.3086 38.323 28.3086C39.4335 28.3086 40.0273 28.9332 40.0273 29.9974V31.5937C40.0273 31.7942 40.089 31.8559 40.2432 31.8559H40.3897V32.5037C40.3357 32.5191 40.2123 32.5268 40.089 32.5268C39.6186 32.5268 39.3409 32.3494 39.2792 31.8713C39.071 32.3032 38.5312 32.5962 37.8912 32.5962ZM38.0223 31.9484C38.7626 31.9484 39.2098 31.4857 39.2098 30.8303V30.5681L38.0069 30.7994C37.5133 30.892 37.336 31.0848 37.336 31.4009C37.336 31.7556 37.5827 31.9484 38.0223 31.9484ZM42.4422 32.5037C41.6633 32.5037 41.3009 32.1644 41.3009 31.3932V29.0721H40.6762V28.4012H41.3009V27.4372H42.1183V28.4012H43.2056V29.0721H42.1183V31.3315C42.1183 31.7171 42.2802 31.8328 42.6195 31.8328H43.2056V32.5037H42.4422ZM45.6078 32.5962C44.4125 32.5962 43.6645 31.7479 43.6645 30.4524C43.6645 29.1569 44.4125 28.3086 45.5846 28.3086C46.7028 28.3086 47.4585 29.1029 47.4585 30.4833V30.6915H44.5128C44.5513 31.4935 44.96 31.8945 45.6155 31.8945C46.0936 31.8945 46.4175 31.6554 46.5486 31.2698L47.3968 31.3238C47.1809 32.0872 46.51 32.5962 45.6078 32.5962ZM44.5128 30.0745H46.5948C46.5409 29.3497 46.1399 29.0027 45.5846 29.0027C44.9986 29.0027 44.6053 29.3805 44.5128 30.0745ZM51.9261 32.5962C50.7462 32.5962 49.9828 31.7479 49.9828 30.4524C49.9828 29.1569 50.7462 28.3086 51.9261 28.3086C52.9209 28.3086 53.6226 28.8484 53.7614 29.7969L52.9054 29.8432C52.8206 29.3111 52.4427 29.0181 51.9261 29.0181C51.232 29.0181 50.831 29.5502 50.831 30.4524C50.831 31.3547 51.232 31.8867 51.9261 31.8867C52.4505 31.8867 52.8283 31.5937 52.9054 30.9999L53.7614 31.0462C53.6303 31.987 52.9286 32.5962 51.9261 32.5962ZM55.4394 32.5037C54.8996 32.5037 54.5448 32.2415 54.5448 31.6323V27.0285H55.3623V31.5552C55.3623 31.7479 55.4625 31.8328 55.6476 31.8328H55.9715V32.5037H55.4394ZM58.3254 27.8845C57.6699 27.8845 57.2381 27.4912 57.2072 26.8434H57.7239C57.7702 27.1982 57.9861 27.3524 58.3254 27.3524C58.6647 27.3524 58.8806 27.1982 58.9192 26.8434H59.4436C59.4127 27.4912 58.9886 27.8845 58.3254 27.8845ZM57.8627 32.5962C57.0067 32.5962 56.4592 32.1875 56.4592 31.478C56.4592 30.7763 56.8679 30.3984 57.7702 30.2211L59.1814 29.9512C59.1814 29.3188 58.8806 29.0027 58.2945 29.0027C57.7702 29.0027 57.4771 29.2417 57.3692 29.689L56.5286 29.635C56.6828 28.8176 57.3229 28.3086 58.2945 28.3086C59.405 28.3086 59.9988 28.9332 59.9988 29.9974V31.5937C59.9988 31.7942 60.0605 31.8559 60.2147 31.8559H60.3612V32.5037C60.3072 32.5191 60.1839 32.5268 60.0605 32.5268C59.5901 32.5268 59.3125 32.3494 59.2508 31.8713C59.0426 32.3032 58.5028 32.5962 57.8627 32.5962ZM57.9938 31.9484C58.7341 31.9484 59.1814 31.4857 59.1814 30.8303V30.5681L57.9784 30.7994C57.4848 30.892 57.3075 31.0848 57.3075 31.4009C57.3075 31.7556 57.5542 31.9484 57.9938 31.9484ZM62.4787 32.5962C61.4223 32.5962 60.7668 31.7711 60.7668 30.4524C60.7668 29.1415 61.43 28.3086 62.4787 28.3086C63.0417 28.3086 63.5121 28.5554 63.7357 28.9795V27.0285H64.5531V32.5037H63.7897L63.7666 31.8867C63.5352 32.334 63.0494 32.5962 62.4787 32.5962ZM62.6947 31.8867C63.3656 31.8867 63.7357 31.3547 63.7357 30.4524C63.7357 29.5425 63.3656 29.0181 62.6947 29.0181C62.0392 29.0181 61.6151 29.5579 61.6151 30.4524C61.6151 31.3315 62.0392 31.8867 62.6947 31.8867ZM65.5619 27.8074V26.99H66.4102V27.8074H65.5619ZM65.5774 32.5037V28.4012H66.3948V32.5037H65.5774ZM67.6182 32.5037V28.4012H68.3662L68.3893 29.18C68.5436 28.6402 68.8675 28.4012 69.3687 28.4012H69.762V29.1337H69.3687C68.7441 29.1337 68.4356 29.4345 68.4356 30.0823V32.5037H67.6182ZM70.4193 27.8074V26.99H71.2675V27.8074H70.4193ZM70.4347 32.5037V28.4012H71.2521V32.5037H70.4347ZM73.242 32.5037C72.7022 32.5037 72.3475 32.2415 72.3475 31.6323V27.0285H73.1649V31.5552C73.1649 31.7479 73.2652 31.8328 73.4502 31.8328H73.7741V32.5037H73.242ZM76.16 32.5962C74.9647 32.5962 74.2167 31.7479 74.2167 30.4524C74.2167 29.1569 74.9647 28.3086 76.1369 28.3086C77.255 28.3086 78.0107 29.1029 78.0107 30.4833V30.6915H75.065C75.1035 31.4935 75.5122 31.8945 76.1677 31.8945C76.6458 31.8945 76.9697 31.6554 77.1008 31.2698L77.9491 31.3238C77.7331 32.0872 77.0622 32.5962 76.16 32.5962ZM75.065 30.0745H77.1471C77.0931 29.3497 76.6921 29.0027 76.1369 29.0027C75.5508 29.0027 75.1575 29.3805 75.065 30.0745Z" fill="#020617"/>
</g>
<path d="M84.7759 24.04C84.7759 22.2148 86.2555 20.7351 88.0808 20.7351H115.829C117.654 20.7351 119.134 22.2148 119.134 24.04V35.9674C119.134 37.7926 117.654 39.2723 115.829 39.2723H88.0808C86.2555 39.2723 84.7759 37.7926 84.7759 35.9674V24.04Z" fill="#F1F5F9"/>
<path d="M91.9849 32.5037V27.0285H92.8177V29.3728H95.3471V27.0285H96.1799V32.5037H95.3471V30.1285H92.8177V32.5037H91.9849ZM98.4938 32.5962C97.6378 32.5962 97.0903 32.1875 97.0903 31.478C97.0903 30.7763 97.499 30.3984 98.4012 30.2211L99.8124 29.9512C99.8124 29.3188 99.5117 29.0027 98.9256 29.0027C98.4012 29.0027 98.1082 29.2417 98.0002 29.689L97.1597 29.635C97.3139 28.8176 97.954 28.3086 98.9256 28.3086C100.036 28.3086 100.63 28.9332 100.63 29.9974V31.5937C100.63 31.7942 100.692 31.8559 100.846 31.8559H100.992V32.5037C100.938 32.5191 100.815 32.5268 100.692 32.5268C100.221 32.5268 99.9435 32.3494 99.8818 31.8713C99.6736 32.3032 99.1338 32.5962 98.4938 32.5962ZM98.6249 31.9484C99.3652 31.9484 99.8124 31.4857 99.8124 30.8303V30.5681L98.6094 30.7994C98.1159 30.892 97.9385 31.0848 97.9385 31.4009C97.9385 31.7556 98.1853 31.9484 98.6249 31.9484ZM102.524 32.5037C101.984 32.5037 101.63 32.2415 101.63 31.6323V27.0285H102.447V31.5552C102.447 31.7479 102.547 31.8328 102.732 31.8328H103.056V32.5037H102.524ZM104.948 32.5962C104.092 32.5962 103.544 32.1875 103.544 31.478C103.544 30.7763 103.953 30.3984 104.855 30.2211L106.266 29.9512C106.266 29.3188 105.966 29.0027 105.379 29.0027C104.855 29.0027 104.562 29.2417 104.454 29.689L103.614 29.635C103.768 28.8176 104.408 28.3086 105.379 28.3086C106.49 28.3086 107.084 28.9332 107.084 29.9974V31.5937C107.084 31.7942 107.145 31.8559 107.3 31.8559H107.446V32.5037C107.392 32.5191 107.269 32.5268 107.145 32.5268C106.675 32.5268 106.397 32.3494 106.336 31.8713C106.127 32.3032 105.588 32.5962 104.948 32.5962ZM105.079 31.9484C105.819 31.9484 106.266 31.4857 106.266 30.8303V30.5681L105.063 30.7994C104.57 30.892 104.392 31.0848 104.392 31.4009C104.392 31.7556 104.639 31.9484 105.079 31.9484ZM110.913 32.5037V28.6017H109.756V27.9308H110.227C110.851 27.9308 111.091 27.7148 111.091 27.0285H111.746V32.5037H110.913Z" fill="#64748B"/>
<path d="M119.134 24.04C119.134 22.2148 120.613 20.7351 122.439 20.7351H151.187C153.012 20.7351 154.492 22.2148 154.492 24.04V35.9674C154.492 37.7926 153.012 39.2723 151.187 39.2723H122.439C120.613 39.2723 119.134 37.7926 119.134 35.9674V24.04Z" fill="#F1F5F9"/>
<path d="M125.981 32.5037V27.0285H126.813V29.3728H129.343V27.0285H130.176V32.5037H129.343V30.1285H126.813V32.5037H125.981ZM132.489 32.5962C131.633 32.5962 131.086 32.1875 131.086 31.478C131.086 30.7763 131.495 30.3984 132.397 30.2211L133.808 29.9512C133.808 29.3188 133.507 29.0027 132.921 29.0027C132.397 29.0027 132.104 29.2417 131.996 29.689L131.155 29.635C131.31 28.8176 131.95 28.3086 132.921 28.3086C134.032 28.3086 134.625 28.9332 134.625 29.9974V31.5937C134.625 31.7942 134.687 31.8559 134.841 31.8559H134.988V32.5037C134.934 32.5191 134.811 32.5268 134.687 32.5268C134.217 32.5268 133.939 32.3494 133.877 31.8713C133.669 32.3032 133.129 32.5962 132.489 32.5962ZM132.621 31.9484C133.361 31.9484 133.808 31.4857 133.808 30.8303V30.5681L132.605 30.7994C132.112 30.892 131.934 31.0848 131.934 31.4009C131.934 31.7556 132.181 31.9484 132.621 31.9484ZM136.52 32.5037C135.98 32.5037 135.625 32.2415 135.625 31.6323V27.0285H136.443V31.5552C136.443 31.7479 136.543 31.8328 136.728 31.8328H137.052V32.5037H136.52ZM138.943 32.5962C138.087 32.5962 137.54 32.1875 137.54 31.478C137.54 30.7763 137.948 30.3984 138.851 30.2211L140.262 29.9512C140.262 29.3188 139.961 29.0027 139.375 29.0027C138.851 29.0027 138.558 29.2417 138.45 29.689L137.609 29.635C137.763 28.8176 138.403 28.3086 139.375 28.3086C140.486 28.3086 141.079 28.9332 141.079 29.9974V31.5937C141.079 31.7942 141.141 31.8559 141.295 31.8559H141.442V32.5037C141.388 32.5191 141.264 32.5268 141.141 32.5268C140.671 32.5268 140.393 32.3494 140.331 31.8713C140.123 32.3032 139.583 32.5962 138.943 32.5962ZM139.074 31.9484C139.815 31.9484 140.262 31.4857 140.262 30.8303V30.5681L139.059 30.7994C138.565 30.892 138.388 31.0848 138.388 31.4009C138.388 31.7556 138.635 31.9484 139.074 31.9484ZM143.906 32.5037C143.906 31.2621 144.384 30.4987 145.958 29.6658C146.706 29.2726 146.991 29.0412 146.991 28.5323C146.991 28.0233 146.659 27.6686 146.004 27.6686C145.302 27.6686 144.901 28.0541 144.793 28.7559L143.929 28.7019C144.045 27.5992 144.785 26.9051 146.004 26.9051C147.168 26.9051 147.855 27.5606 147.855 28.5168C147.855 29.3574 147.477 29.7584 146.374 30.3444C145.425 30.8534 144.947 31.3701 144.917 31.7402H147.855V32.5037H143.906Z" fill="#64748B"/>
<path d="M154.492 24.04C154.492 22.2148 155.971 20.7351 157.797 20.7351H186.545C188.37 20.7351 189.85 22.2148 189.85 24.04V35.9674C189.85 37.7926 188.37 39.2723 186.545 39.2723H157.797C155.971 39.2723 154.492 37.7926 154.492 35.9674V24.04Z" fill="#F1F5F9"/>
<path d="M161.357 32.5037V27.0285H162.19V29.3728H164.719V27.0285H165.552V32.5037H164.719V30.1285H162.19V32.5037H161.357ZM167.866 32.5962C167.01 32.5962 166.463 32.1875 166.463 31.478C166.463 30.7763 166.871 30.3984 167.774 30.2211L169.185 29.9512C169.185 29.3188 168.884 29.0027 168.298 29.0027C167.774 29.0027 167.481 29.2417 167.373 29.689L166.532 29.635C166.686 28.8176 167.326 28.3086 168.298 28.3086C169.408 28.3086 170.002 28.9332 170.002 29.9974V31.5937C170.002 31.7942 170.064 31.8559 170.218 31.8559H170.365V32.5037C170.311 32.5191 170.187 32.5268 170.064 32.5268C169.594 32.5268 169.316 32.3494 169.254 31.8713C169.046 32.3032 168.506 32.5962 167.866 32.5962ZM167.997 31.9484C168.738 31.9484 169.185 31.4857 169.185 30.8303V30.5681L167.982 30.7994C167.488 30.892 167.311 31.0848 167.311 31.4009C167.311 31.7556 167.558 31.9484 167.997 31.9484ZM171.897 32.5037C171.357 32.5037 171.002 32.2415 171.002 31.6323V27.0285H171.82V31.5552C171.82 31.7479 171.92 31.8328 172.105 31.8328H172.429V32.5037H171.897ZM174.32 32.5962C173.464 32.5962 172.917 32.1875 172.917 31.478C172.917 30.7763 173.325 30.3984 174.227 30.2211L175.639 29.9512C175.639 29.3188 175.338 29.0027 174.752 29.0027C174.227 29.0027 173.934 29.2417 173.826 29.689L172.986 29.635C173.14 28.8176 173.78 28.3086 174.752 28.3086C175.862 28.3086 176.456 28.9332 176.456 29.9974V31.5937C176.456 31.7942 176.518 31.8559 176.672 31.8559H176.819V32.5037C176.765 32.5191 176.641 32.5268 176.518 32.5268C176.047 32.5268 175.77 32.3494 175.708 31.8713C175.5 32.3032 174.96 32.5962 174.32 32.5962ZM174.451 31.9484C175.191 31.9484 175.639 31.4857 175.639 30.8303V30.5681L174.436 30.7994C173.942 30.892 173.765 31.0848 173.765 31.4009C173.765 31.7556 174.012 31.9484 174.451 31.9484ZM181.211 32.627C179.946 32.627 179.244 31.987 179.198 31.0308L180.054 30.9845C180.116 31.6091 180.563 31.8636 181.211 31.8636C181.866 31.8636 182.414 31.6091 182.414 30.9459C182.414 30.2905 181.928 29.982 181.203 29.982H180.748V29.2571H181.203C181.789 29.2571 182.229 29.0412 182.229 28.4628C182.229 27.9539 181.897 27.6686 181.226 27.6686C180.563 27.6686 180.239 27.9462 180.178 28.3857L179.322 28.3395C179.422 27.4835 180.093 26.9051 181.226 26.9051C182.398 26.9051 183.093 27.4835 183.093 28.4012C183.093 28.9795 182.761 29.3805 182.144 29.5733C182.853 29.7661 183.278 30.275 183.278 30.9768C183.278 32.0178 182.445 32.627 181.211 32.627Z" fill="#64748B"/>
<path d="M189.85 24.04C189.85 22.2148 191.33 20.7351 193.155 20.7351H218.903C220.729 20.7351 222.208 22.2148 222.208 24.04V35.9674C222.208 37.7926 220.729 39.2723 218.903 39.2723H193.155C191.33 39.2723 189.85 37.7926 189.85 35.9674V24.04Z" fill="#F1F5F9"/>
<path d="M199.265 32.627C197.707 32.627 196.79 31.4395 196.79 29.7738C196.79 28.1313 197.723 26.9051 199.296 26.9051C200.645 26.9051 201.339 27.684 201.555 28.7482L200.684 28.7944C200.553 28.1235 200.159 27.6686 199.296 27.6686C198.154 27.6686 197.653 28.6248 197.653 29.7738C197.653 30.9691 198.162 31.8636 199.303 31.8636C200.198 31.8636 200.745 31.2158 200.776 30.4139H199.311V29.7121H201.571V32.5037H201L200.961 31.6323C200.692 32.226 200.021 32.627 199.265 32.627ZM203.69 32.5962C202.834 32.5962 202.287 32.1875 202.287 31.478C202.287 30.7763 202.695 30.3984 203.598 30.2211L205.009 29.9512C205.009 29.3188 204.708 29.0027 204.122 29.0027C203.598 29.0027 203.304 29.2417 203.197 29.689L202.356 29.635C202.51 28.8176 203.15 28.3086 204.122 28.3086C205.232 28.3086 205.826 28.9332 205.826 29.9974V31.5937C205.826 31.7942 205.888 31.8559 206.042 31.8559H206.189V32.5037C206.135 32.5191 206.011 32.5268 205.888 32.5268C205.417 32.5268 205.14 32.3494 205.078 31.8713C204.87 32.3032 204.33 32.5962 203.69 32.5962ZM203.821 31.9484C204.561 31.9484 205.009 31.4857 205.009 30.8303V30.5681L203.806 30.7994C203.312 30.892 203.135 31.0848 203.135 31.4009C203.135 31.7556 203.382 31.9484 203.821 31.9484ZM206.879 32.5037V28.4012H207.627L207.65 29.18C207.804 28.6402 208.128 28.4012 208.629 28.4012H209.023V29.1337H208.629C208.005 29.1337 207.696 29.4345 207.696 30.0823V32.5037H206.879ZM210.769 32.5962C209.913 32.5962 209.365 32.1875 209.365 31.478C209.365 30.7763 209.774 30.3984 210.676 30.2211L212.088 29.9512C212.088 29.3188 211.787 29.0027 211.201 29.0027C210.676 29.0027 210.383 29.2417 210.275 29.689L209.435 29.635C209.589 28.8176 210.229 28.3086 211.201 28.3086C212.311 28.3086 212.905 28.9332 212.905 29.9974V31.5937C212.905 31.7942 212.967 31.8559 213.121 31.8559H213.267V32.5037C213.214 32.5191 213.09 32.5268 212.967 32.5268C212.496 32.5268 212.219 32.3494 212.157 31.8713C211.949 32.3032 211.409 32.5962 210.769 32.5962ZM210.9 31.9484C211.64 31.9484 212.088 31.4857 212.088 30.8303V30.5681L210.885 30.7994C210.391 30.892 210.214 31.0848 210.214 31.4009C210.214 31.7556 210.461 31.9484 210.9 31.9484ZM214.188 27.8074V26.99H215.044V27.8074H214.188ZM213.386 33.6604V32.9895H213.756C214.034 32.9895 214.204 32.8892 214.204 32.5422V28.4012H215.029V32.5731C215.029 33.3596 214.705 33.6604 213.88 33.6604H213.386Z" fill="#64748B"/>
<path d="M222.208 24.04C222.208 22.2148 223.688 20.7351 225.513 20.7351H253.261C255.086 20.7351 256.566 22.2148 256.566 24.04V35.9674C256.566 37.7926 255.086 39.2723 253.261 39.2723H225.513C223.688 39.2723 222.208 37.7926 222.208 35.9674V24.04Z" fill="#F1F5F9"/>
<path d="M228.591 32.5037L230.437 27.3853H231.424L233.27 32.5037H232.441L231.972 31.17H229.882L229.42 32.5037H228.591ZM230.127 30.4635H231.734L230.927 28.1279L230.127 30.4635ZM233.817 32.5037V28.6685H234.516L234.531 29.339C234.733 28.8127 235.172 28.582 235.699 28.582C236.556 28.582 236.996 29.202 236.996 30.0382V32.5037H236.232V30.2689C236.232 29.5913 236.023 29.2236 235.49 29.2236C234.949 29.2236 234.581 29.5913 234.581 30.2689V32.5037H233.817ZM239.57 32.5902C238.453 32.5902 237.754 31.7972 237.754 30.5861C237.754 29.375 238.453 28.582 239.549 28.582C240.594 28.582 241.301 29.3245 241.301 30.6149V30.8096H238.547C238.583 31.5593 238.965 31.9342 239.578 31.9342C240.025 31.9342 240.327 31.7107 240.45 31.3502L241.243 31.4007C241.041 32.1144 240.414 32.5902 239.57 32.5902ZM238.547 30.2329H240.493C240.443 29.5552 240.068 29.2308 239.549 29.2308C239.001 29.2308 238.633 29.5841 238.547 30.2329ZM241.556 32.5037L242.948 30.5428L241.614 28.6685H242.465L243.409 30.0454L244.324 28.6685H245.197L243.878 30.5573L245.254 32.5037H244.404L243.416 31.0403L242.421 32.5037H241.556ZM247.299 28.1855C246.686 28.1855 246.282 27.8179 246.253 27.2123H246.736C246.78 27.5439 246.981 27.6881 247.299 27.6881C247.616 27.6881 247.818 27.5439 247.854 27.2123H248.344C248.315 27.8179 247.919 28.1855 247.299 28.1855ZM246.866 32.5902C246.066 32.5902 245.554 32.2081 245.554 31.5449C245.554 30.8889 245.936 30.5356 246.78 30.3698L248.099 30.1175C248.099 29.5264 247.818 29.2308 247.27 29.2308C246.78 29.2308 246.506 29.4543 246.405 29.8724L245.619 29.822C245.763 29.0578 246.361 28.582 247.27 28.582C248.308 28.582 248.863 29.1659 248.863 30.1608V31.653C248.863 31.8404 248.921 31.8981 249.065 31.8981H249.202V32.5037C249.151 32.5181 249.036 32.5253 248.921 32.5253C248.481 32.5253 248.221 32.3595 248.164 31.9125C247.969 32.3162 247.464 32.5902 246.866 32.5902ZM246.989 31.9846C247.681 31.9846 248.099 31.5521 248.099 30.9393V30.6942L246.974 30.9105C246.513 30.997 246.347 31.1772 246.347 31.4728C246.347 31.8044 246.578 31.9846 246.989 31.9846Z" fill="#64748B"/>
</g>
<defs>
<filter id="filter0_d_6852_17191" x="0" y="0.25" width="294.984" height="76.5072" filterUnits="userSpaceOnUse" color-interpolation-filters="sRGB">
<feFlood flood-opacity="0" result="BackgroundImageFix"/>
<feColorMatrix in="SourceAlpha" type="matrix" values="0 0 0 0 0 0 0 0 0 0 0 0 0 0 0 0 0 0 127 0" result="hardAlpha"/>
<feOffset dx="8" dy="8"/>
<feGaussianBlur stdDeviation="8"/>
<feComposite in2="hardAlpha" operator="out"/>
<feColorMatrix type="matrix" values="0 0 0 0 0.0970139 0 0 0 0 0.127226 0 0 0 0 0.183333 0 0 0 0.25 0"/>
<feBlend mode="normal" in2="BackgroundImageFix" result="effect1_dropShadow_6852_17191"/>
<feBlend mode="normal" in="SourceGraphic" in2="effect1_dropShadow_6852_17191" result="shape"/>
</filter>
<filter id="filter1_d_6852_17191" x="19.4175" y="19.7351" width="67.3579" height="22.5371" filterUnits="userSpaceOnUse" color-interpolation-filters="sRGB">
<feFlood flood-opacity="0" result="BackgroundImageFix"/>
<feColorMatrix in="SourceAlpha" type="matrix" values="0 0 0 0 0 0 0 0 0 0 0 0 0 0 0 0 0 0 127 0" result="hardAlpha"/>
<feOffset dy="1"/>
<feGaussianBlur stdDeviation="1"/>
<feComposite in2="hardAlpha" operator="out"/>
<feColorMatrix type="matrix" values="0 0 0 0 0 0 0 0 0 0 0 0 0 0 0 0 0 0 0.05 0"/>
<feBlend mode="normal" in2="BackgroundImageFix" result="effect1_dropShadow_6852_17191"/>
<feBlend mode="normal" in="SourceGraphic" in2="effect1_dropShadow_6852_17191" result="shape"/>
</filter>
</defs>
</svg>
