<svg width="32" height="32" viewBox="0 0 32 32" fill="none" xmlns="http://www.w3.org/2000/svg">
<path d="M4.83301 0.61145H27.6084C29.8164 0.61145 31.6063 2.40152 31.6064 4.6095V27.3849C31.6064 29.593 29.8165 31.3829 27.6084 31.3829H4.83301C2.62503 31.3828 0.834961 29.5929 0.834961 27.3849V4.6095C0.835134 2.40163 2.62514 0.611621 4.83301 0.61145Z" fill="white"/>
<path d="M4.83301 0.61145H27.6084C29.8164 0.61145 31.6063 2.40152 31.6064 4.6095V27.3849C31.6064 29.593 29.8165 31.3829 27.6084 31.3829H4.83301C2.62503 31.3828 0.834961 29.5929 0.834961 27.3849V4.6095C0.835134 2.40163 2.62514 0.611621 4.83301 0.61145Z" stroke="#E2E8F0" stroke-width="0.654712"/>
<path d="M19.7131 13.8149H15.7848M17.0942 18.1797H13.166M17.0942 18.1797C17.0942 18.9028 17.6805 19.4891 18.4037 19.4891C19.1268 19.4891 19.7131 18.9028 19.7131 18.1797C19.7131 17.4565 19.1268 16.8702 18.4037 16.8702C17.6805 16.8702 17.0942 17.4565 17.0942 18.1797ZM15.3483 13.8149C15.3483 14.5381 14.7621 15.1243 14.0389 15.1243C13.3157 15.1243 12.7295 14.5381 12.7295 13.8149C12.7295 13.0917 13.3157 12.5055 14.0389 12.5055C14.7621 12.5055 15.3483 13.0917 15.3483 13.8149Z" stroke="#3B82F6" stroke-width="0.654712" stroke-linecap="round" stroke-linejoin="round"/>
</svg>
