<svg width="219" height="249" viewBox="0 0 219 249" fill="none" xmlns="http://www.w3.org/2000/svg">
<g filter="url(#filter0_d_6852_17199)">
<rect x="8.19141" y="8.98047" width="183.617" height="215.569" rx="5.67888" fill="white" shape-rendering="crispEdges"/>
<rect x="8.42803" y="9.21709" width="183.144" height="215.095" rx="5.44226" stroke="#E2E8F0" stroke-width="0.47324" shape-rendering="crispEdges"/>
<path d="M20.2308 30.3383V24.2902H21.3382V27.178L20.8271 26.8117H24.3877L23.8851 27.178V24.2902H24.9925V30.3383H23.8851V27.4165L24.3877 27.7742H20.8271L21.3382 27.4165V30.3383H20.2308ZM27.5053 30.4405C27.0283 30.4405 26.6449 30.3326 26.3553 30.1168C26.0657 29.8953 25.9209 29.5886 25.9209 29.1968C25.9209 28.805 26.043 28.4983 26.2872 28.2768C26.5314 28.0553 26.9033 27.8963 27.4031 27.7998L28.9108 27.5017C28.9108 27.178 28.837 26.9366 28.6893 26.7776C28.5417 26.6129 28.3231 26.5306 28.0334 26.5306C27.7722 26.5306 27.5649 26.593 27.4116 26.718C27.2639 26.8372 27.1617 27.0104 27.1049 27.2376L25.9976 27.1865C26.0884 26.7038 26.3099 26.3346 26.662 26.0791C27.0141 25.8179 27.4712 25.6873 28.0334 25.6873C28.6808 25.6873 29.1692 25.8519 29.4986 26.1813C29.8336 26.505 30.0012 26.9707 30.0012 27.5783V29.2309C30.0012 29.3501 30.021 29.4325 30.0608 29.4779C30.1062 29.5233 30.1715 29.5461 30.2567 29.5461H30.4015V30.3383C30.3675 30.3496 30.3107 30.3581 30.2312 30.3638C30.1573 30.3695 30.0807 30.3723 30.0012 30.3723C29.8138 30.3723 29.6462 30.3439 29.4986 30.2871C29.3509 30.2247 29.2374 30.1196 29.1579 29.972C29.0783 29.8186 29.0386 29.6114 29.0386 29.3501L29.1323 29.4183C29.0869 29.617 28.9875 29.7959 28.8342 29.9549C28.6865 30.1083 28.4991 30.2275 28.2719 30.3127C28.0448 30.3979 27.7892 30.4405 27.5053 30.4405ZM27.7268 29.6483C27.971 29.6483 28.1811 29.6 28.3571 29.5035C28.5332 29.4069 28.6695 29.2735 28.766 29.1031C28.8626 28.9327 28.9108 28.7311 28.9108 28.4983V28.2427L27.7353 28.4813C27.4911 28.5324 27.3151 28.609 27.2072 28.7113C27.1049 28.8078 27.0538 28.9356 27.0538 29.0946C27.0538 29.2706 27.1106 29.4069 27.2242 29.5035C27.3435 29.6 27.511 29.6483 27.7268 29.6483ZM32.1334 30.3383C31.804 30.3383 31.54 30.2531 31.3412 30.0827C31.1424 29.9123 31.0431 29.6398 31.0431 29.2649V24.2902H32.1334V29.1542C32.1334 29.2678 32.1618 29.353 32.2186 29.4098C32.2811 29.4665 32.3662 29.4949 32.4741 29.4949H32.8064V30.3383H32.1334ZM34.8756 30.4405C34.3986 30.4405 34.0153 30.3326 33.7257 30.1168C33.436 29.8953 33.2912 29.5886 33.2912 29.1968C33.2912 28.805 33.4133 28.4983 33.6575 28.2768C33.9017 28.0553 34.2737 27.8963 34.7734 27.7998L36.2812 27.5017C36.2812 27.178 36.2073 26.9366 36.0597 26.7776C35.912 26.6129 35.6934 26.5306 35.4038 26.5306C35.1426 26.5306 34.9353 26.593 34.7819 26.718C34.6343 26.8372 34.5321 27.0104 34.4753 27.2376L33.3679 27.1865C33.4588 26.7038 33.6802 26.3346 34.0323 26.0791C34.3844 25.8179 34.8416 25.6873 35.4038 25.6873C36.0512 25.6873 36.5396 25.8519 36.8689 26.1813C37.204 26.505 37.3715 26.9707 37.3715 27.5783V29.2309C37.3715 29.3501 37.3914 29.4325 37.4311 29.4779C37.4766 29.5233 37.5419 29.5461 37.6271 29.5461H37.7719V30.3383C37.7378 30.3496 37.681 30.3581 37.6015 30.3638C37.5277 30.3695 37.451 30.3723 37.3715 30.3723C37.1841 30.3723 37.0166 30.3439 36.8689 30.2871C36.7213 30.2247 36.6077 30.1196 36.5282 29.972C36.4487 29.8186 36.4089 29.6114 36.4089 29.3501L36.5026 29.4183C36.4572 29.617 36.3578 29.7959 36.2045 29.9549C36.0569 30.1083 35.8695 30.2275 35.6423 30.3127C35.4151 30.3979 35.1596 30.4405 34.8756 30.4405ZM35.0971 29.6483C35.3413 29.6483 35.5514 29.6 35.7275 29.5035C35.9035 29.4069 36.0398 29.2735 36.1364 29.1031C36.2329 28.9327 36.2812 28.7311 36.2812 28.4983V28.2427L35.1056 28.4813C34.8614 28.5324 34.6854 28.609 34.5775 28.7113C34.4753 28.8078 34.4242 28.9356 34.4242 29.0946C34.4242 29.2706 34.481 29.4069 34.5945 29.5035C34.7138 29.6 34.8813 29.6483 35.0971 29.6483ZM41.5319 30.3383V26.1898H40.2371V25.3465H40.7568C41.0009 25.3465 41.1969 25.3153 41.3445 25.2528C41.4922 25.1903 41.5972 25.0825 41.6597 24.9291C41.7278 24.7701 41.7619 24.5572 41.7619 24.2902H42.6393V30.3383H41.5319Z" fill="#020617"/>
<g opacity="0.5">
<path d="M176.665 25.4453L172.879 29.2312M172.879 25.4453L176.665 29.2312" stroke="#020617" stroke-width="0.47324" stroke-linecap="round" stroke-linejoin="round"/>
</g>
<path opacity="0.9" d="M21.9609 45.2302C20.7021 45.2302 19.8475 44.3026 19.8475 42.7788C19.8475 41.2549 20.7021 40.3141 21.9609 40.3141C23.1005 40.3141 23.7034 40.9303 23.9022 41.9175L23.2993 41.9572C23.1668 41.2881 22.7427 40.8707 21.9609 40.8707C21.0599 40.8707 20.4437 41.5862 20.4437 42.7788C20.4437 43.9713 21.0599 44.6736 21.9609 44.6736C22.7825 44.6736 23.2198 44.2165 23.339 43.4811L23.9419 43.5208C23.7697 44.5411 23.0873 45.2302 21.9609 45.2302ZM25.6594 45.2036C24.9306 45.2036 24.4734 44.8525 24.4734 44.2496C24.4734 43.6533 24.8113 43.322 25.5798 43.1763L26.8254 42.9444C26.8254 42.3547 26.5472 42.0632 25.9906 42.0632C25.5003 42.0632 25.2287 42.2885 25.1227 42.6926L24.533 42.6463C24.6655 41.9837 25.1956 41.5332 25.9906 41.5332C26.8917 41.5332 27.3819 42.0765 27.3819 42.9643V44.4152C27.3819 44.5742 27.4349 44.6339 27.5675 44.6339H27.7066V45.1241C27.6668 45.1308 27.5807 45.1374 27.4946 45.1374C27.0706 45.1374 26.8784 44.9718 26.832 44.5809C26.6598 44.9453 26.1761 45.2036 25.6594 45.2036ZM25.7124 44.7134C26.4146 44.7134 26.8254 44.2628 26.8254 43.6798V43.4281L25.6859 43.6401C25.2088 43.7262 25.0564 43.9051 25.0564 44.1966C25.0564 44.5279 25.3016 44.7134 25.7124 44.7134ZM28.3352 46.118V41.6127H28.8519L28.8586 42.1494C29.0706 41.7452 29.4615 41.5332 29.9385 41.5332C30.9853 41.5332 31.4557 42.4011 31.4557 43.3684C31.4557 44.3357 30.9853 45.2036 29.9385 45.2036C29.4814 45.2036 29.0772 44.9983 28.8917 44.6604V46.118H28.3352ZM29.8855 44.6736C30.495 44.6736 30.8727 44.19 30.8727 43.3684C30.8727 42.5469 30.495 42.0632 29.8855 42.0632C29.276 42.0632 28.8917 42.5071 28.8917 43.3684C28.8917 44.2297 29.2693 44.6736 29.8855 44.6736ZM33.5822 45.2036C32.6016 45.2036 31.9722 44.4815 31.9722 43.3684C31.9722 42.2554 32.6016 41.5332 33.5822 41.5332C34.3905 41.5332 34.9537 41.9705 35.0729 42.7523L34.4899 42.792C34.4104 42.3282 34.0592 42.0632 33.5822 42.0632C32.9329 42.0632 32.5553 42.5535 32.5553 43.3684C32.5553 44.1833 32.9329 44.6736 33.5822 44.6736C34.0592 44.6736 34.4104 44.4086 34.4899 43.8786L35.0729 43.9183C34.9537 44.7001 34.3905 45.2036 33.5822 45.2036ZM36.8008 45.2036C36.072 45.2036 35.6149 44.8525 35.6149 44.2496C35.6149 43.6533 35.9528 43.322 36.7213 43.1763L37.9669 42.9444C37.9669 42.3547 37.6886 42.0632 37.1321 42.0632C36.6418 42.0632 36.3702 42.2885 36.2642 42.6926L35.6745 42.6463C35.807 41.9837 36.3371 41.5332 37.1321 41.5332C38.0332 41.5332 38.5234 42.0765 38.5234 42.9643V44.4152C38.5234 44.5742 38.5764 44.6339 38.7089 44.6339H38.8481V45.1241C38.8083 45.1308 38.7222 45.1374 38.6361 45.1374C38.212 45.1374 38.0199 44.9718 37.9735 44.5809C37.8013 44.9453 37.3176 45.2036 36.8008 45.2036ZM36.8538 44.7134C37.5561 44.7134 37.9669 44.2628 37.9669 43.6798V43.4281L36.8273 43.6401C36.3503 43.7262 36.1979 43.9051 36.1979 44.1966C36.1979 44.5279 36.4431 44.7134 36.8538 44.7134ZM39.4767 45.1241V41.6127H39.9868L40.0001 42.2421C40.1856 41.7585 40.5963 41.5332 41.08 41.5332C41.8817 41.5332 42.2659 42.1229 42.2659 42.8649V45.1241H41.7094V43.0239C41.7094 42.3746 41.4908 42.0235 40.9607 42.0235C40.4175 42.0235 40.0332 42.3746 40.0332 43.0239V45.1241H39.4767ZM44.6202 45.2036C43.6264 45.2036 43.0102 44.4815 43.0102 43.3684C43.0102 42.2554 43.6264 41.5332 44.5937 41.5332C45.508 41.5332 46.144 42.1957 46.144 43.375V43.5407H43.5932C43.633 44.296 44.0106 44.6736 44.6202 44.6736C45.0773 44.6736 45.3755 44.4417 45.4947 44.084L46.091 44.1303C45.9055 44.7598 45.3622 45.2036 44.6202 45.2036ZM43.5932 43.0504H45.5345C45.4815 42.3746 45.1104 42.0632 44.5937 42.0632C44.0504 42.0632 43.686 42.4011 43.5932 43.0504ZM47.6192 45.1241C47.2085 45.1241 46.9302 44.9254 46.9302 44.4616V40.4201H47.4867V44.4152C47.4867 44.561 47.5596 44.6339 47.7054 44.6339H48.0101V45.1241H47.6192ZM50.0291 45.2036C49.0353 45.2036 48.4192 44.4815 48.4192 43.3684C48.4192 42.2554 49.0353 41.5332 50.0026 41.5332C50.9169 41.5332 51.553 42.1957 51.553 43.375V43.5407H49.0022C49.042 44.296 49.4196 44.6736 50.0291 44.6736C50.4863 44.6736 50.7844 44.4417 50.9037 44.084L51.5 44.1303C51.3145 44.7598 50.7712 45.2036 50.0291 45.2036ZM49.0022 43.0504H50.9434C50.8904 42.3746 50.5194 42.0632 50.0026 42.0632C49.4594 42.0632 49.095 42.4011 49.0022 43.0504ZM55.2734 45.2036C54.3591 45.2036 53.7894 44.4947 53.7894 43.3684C53.7894 42.2421 54.3591 41.5332 55.2734 41.5332C55.7438 41.5332 56.1612 41.7452 56.3534 42.103V40.4201H56.9099V45.1241H56.4064L56.3865 44.5941C56.1877 44.9784 55.7637 45.2036 55.2734 45.2036ZM55.3861 44.6736C56.0089 44.6736 56.3534 44.1701 56.3534 43.3684C56.3534 42.5535 56.0089 42.0632 55.3861 42.0632C54.7699 42.0632 54.3724 42.5535 54.3724 43.3684C54.3724 44.1701 54.7699 44.6736 55.3861 44.6736ZM59.2749 45.2036C58.2811 45.2036 57.6649 44.4815 57.6649 43.3684C57.6649 42.2554 58.2811 41.5332 59.2484 41.5332C60.1627 41.5332 60.7987 42.1957 60.7987 43.375V43.5407H58.248C58.2877 44.296 58.6654 44.6736 59.2749 44.6736C59.732 44.6736 60.0302 44.4417 60.1494 44.084L60.7457 44.1303C60.5602 44.7598 60.0169 45.2036 59.2749 45.2036ZM58.248 43.0504H60.1892C60.1362 42.3746 59.7652 42.0632 59.2484 42.0632C58.7051 42.0632 58.3407 42.4011 58.248 43.0504ZM63.9627 45.1241C63.5519 45.1241 63.2736 44.9254 63.2736 44.4616V40.4201H63.8301V44.4152C63.8301 44.561 63.903 44.6339 64.0488 44.6339H64.3535V45.1241H63.9627ZM65.9874 45.2036C65.2586 45.2036 64.8014 44.8525 64.8014 44.2496C64.8014 43.6533 65.1393 43.322 65.9079 43.1763L67.1534 42.9444C67.1534 42.3547 66.8752 42.0632 66.3186 42.0632C65.8284 42.0632 65.5567 42.2885 65.4507 42.6926L64.8611 42.6463C64.9936 41.9837 65.5236 41.5332 66.3186 41.5332C67.2197 41.5332 67.71 42.0765 67.71 42.9643V44.4152C67.71 44.5742 67.763 44.6339 67.8955 44.6339H68.0346V45.1241C67.9949 45.1308 67.9087 45.1374 67.8226 45.1374C67.3986 45.1374 67.2064 44.9718 67.1601 44.5809C66.9878 44.9453 66.5041 45.2036 65.9874 45.2036ZM66.0404 44.7134C66.7427 44.7134 67.1534 44.2628 67.1534 43.6798V43.4281L66.0139 43.6401C65.5368 43.7262 65.3845 43.9051 65.3845 44.1966C65.3845 44.5279 65.6296 44.7134 66.0404 44.7134ZM71.061 45.1241V41.6392H70.0804V41.1489H70.4779C70.9947 41.1489 71.1802 40.9767 71.1802 40.4201H71.6307V45.1241H71.061ZM74.5445 46.118V41.6127H75.0613L75.0679 42.1494C75.2799 41.7452 75.6708 41.5332 76.1478 41.5332C77.1946 41.5332 77.665 42.4011 77.665 43.3684C77.665 44.3357 77.1946 45.2036 76.1478 45.2036C75.6907 45.2036 75.2865 44.9983 75.101 44.6604V46.118H74.5445ZM76.0948 44.6736C76.7044 44.6736 77.082 44.19 77.082 43.3684C77.082 42.5469 76.7044 42.0632 76.0948 42.0632C75.4853 42.0632 75.101 42.5071 75.101 43.3684C75.101 44.2297 75.4787 44.6736 76.0948 44.6736ZM79.4581 45.2036C78.7293 45.2036 78.2721 44.8525 78.2721 44.2496C78.2721 43.6533 78.61 43.322 79.3786 43.1763L80.6241 42.9444C80.6241 42.3547 80.3459 42.0632 79.7893 42.0632C79.2991 42.0632 79.0274 42.2885 78.9214 42.6926L78.3318 42.6463C78.4643 41.9837 78.9943 41.5332 79.7893 41.5332C80.6904 41.5332 81.1807 42.0765 81.1807 42.9643V44.4152C81.1807 44.5742 81.2337 44.6339 81.3662 44.6339H81.5053V45.1241C81.4656 45.1308 81.3794 45.1374 81.2933 45.1374C80.8693 45.1374 80.6771 44.9718 80.6308 44.5809C80.4585 44.9453 79.9749 45.2036 79.4581 45.2036ZM79.5111 44.7134C80.2134 44.7134 80.6241 44.2628 80.6241 43.6798V43.4281L79.4846 43.6401C79.0076 43.7262 78.8552 43.9051 78.8552 44.1966C78.8552 44.5279 79.1003 44.7134 79.5111 44.7134ZM82.1339 45.1241V41.6127H82.6441L82.6573 42.2421C82.8428 41.7585 83.2536 41.5332 83.7372 41.5332C84.5389 41.5332 84.9232 42.1229 84.9232 42.8649V45.1241H84.3667V43.0239C84.3667 42.3746 84.148 42.0235 83.618 42.0235C83.0747 42.0235 82.6904 42.3746 82.6904 43.0239V45.1241H82.1339ZM86.8663 45.2036C86.1375 45.2036 85.6804 44.8525 85.6804 44.2496C85.6804 43.6533 86.0183 43.322 86.7868 43.1763L88.0324 42.9444C88.0324 42.3547 87.7541 42.0632 87.1976 42.0632C86.7073 42.0632 86.4357 42.2885 86.3297 42.6926L85.74 42.6463C85.8725 41.9837 86.4026 41.5332 87.1976 41.5332C88.0986 41.5332 88.5889 42.0765 88.5889 42.9643V44.4152C88.5889 44.5742 88.6419 44.6339 88.7744 44.6339H88.9136V45.1241C88.8738 45.1308 88.7877 45.1374 88.7016 45.1374C88.2775 45.1374 88.0854 44.9718 88.039 44.5809C87.8668 44.9453 87.3831 45.2036 86.8663 45.2036ZM86.9193 44.7134C87.6216 44.7134 88.0324 44.2628 88.0324 43.6798V43.4281L86.8928 43.6401C86.4158 43.7262 86.2634 43.9051 86.2634 44.1966C86.2634 44.5279 86.5086 44.7134 86.9193 44.7134ZM91.9134 45.1241C91.5026 45.1241 91.2244 44.9254 91.2244 44.4616V40.4201H91.7809V44.4152C91.7809 44.561 91.8538 44.6339 91.9995 44.6339H92.3043V45.1241H91.9134ZM93.9381 45.2036C93.2093 45.2036 92.7522 44.8525 92.7522 44.2496C92.7522 43.6533 93.0901 43.322 93.8586 43.1763L95.1042 42.9444C95.1042 42.3547 94.8259 42.0632 94.2694 42.0632C93.7791 42.0632 93.5075 42.2885 93.4015 42.6926L92.8118 42.6463C92.9443 41.9837 93.4744 41.5332 94.2694 41.5332C95.1704 41.5332 95.6607 42.0765 95.6607 42.9643V44.4152C95.6607 44.5742 95.7137 44.6339 95.8462 44.6339H95.9854V45.1241C95.9456 45.1308 95.8595 45.1374 95.7734 45.1374C95.3493 45.1374 95.1572 44.9718 95.1108 44.5809C94.9386 44.9453 94.4549 45.2036 93.9381 45.2036ZM93.9911 44.7134C94.6934 44.7134 95.1042 44.2628 95.1042 43.6798V43.4281L93.9646 43.6401C93.4876 43.7262 93.3352 43.9051 93.3352 44.1966C93.3352 44.5279 93.5804 44.7134 93.9911 44.7134ZM99.0117 45.1241V41.6392H98.0312V41.1489H98.4287C98.9455 41.1489 99.131 40.9767 99.131 40.4201H99.5815V45.1241H99.0117ZM102.376 45.2302C101.382 45.2302 100.773 44.6935 100.706 43.9117L101.303 43.872C101.369 44.402 101.78 44.6736 102.376 44.6736C103.039 44.6736 103.456 44.2761 103.456 43.6136C103.456 42.951 103.052 42.5336 102.363 42.5336C101.925 42.5336 101.548 42.7324 101.395 43.0637H100.786L101.097 40.4201H103.734V40.9767H101.621L101.448 42.3945C101.687 42.1295 102.065 41.9903 102.469 41.9903C103.41 41.9903 104.052 42.6728 104.052 43.6136C104.052 44.561 103.363 45.2302 102.376 45.2302Z" fill="#64748B"/>
<path d="M38.0659 81.5487L41.6685 83.5879V84.4035L37.7747 86.182L31.4875 82.4963V81.6096L32.7044 82.3025" stroke="#3B82F6" stroke-width="0.315493" stroke-linecap="round" stroke-linejoin="round"/>
<path d="M38.0693 81.5445L35.8713 79.5891C35.7694 79.4982 35.6423 79.4403 35.5067 79.4229C35.3712 79.4056 35.2336 79.4297 35.1121 79.4921L32.6924 80.41C32.6227 80.4498 32.5641 80.5061 32.5216 80.5741C32.4791 80.642 32.4541 80.7194 32.4488 80.7994C32.4435 80.8794 32.4581 80.9594 32.4913 81.0324C32.5245 81.1053 32.5753 81.1689 32.6391 81.2174L34.6407 83.3901" stroke="#3B82F6" stroke-width="0.315493" stroke-linecap="round" stroke-linejoin="round"/>
<path d="M37.022 82.7254L34.0506 80.2444C34.0506 80.2444 34.2931 79.7496 33.8554 79.6858" stroke="#3B82F6" stroke-width="0.315493" stroke-linecap="round" stroke-linejoin="round"/>
<path d="M31.4975 81.6017L37.7812 85.2007L41.647 83.5889" stroke="#3B82F6" stroke-width="0.315493" stroke-linecap="round" stroke-linejoin="round"/>
<path d="M37.4976 82.4945C37.4976 82.4945 37.2478 81.9153 36.782 82.2308" stroke="#3B82F6" stroke-width="0.315493" stroke-linecap="round" stroke-linejoin="round"/>
<path d="M38.103 82.2209C38.103 82.2209 37.8533 81.6417 37.3875 81.9572" stroke="#3B82F6" stroke-width="0.315493" stroke-linecap="round" stroke-linejoin="round"/>
<path d="M35.7939 83.2724C35.7939 83.2724 35.5442 82.6932 35.0784 83.0088" stroke="#3B82F6" stroke-width="0.315493" stroke-linecap="round" stroke-linejoin="round"/>
<path d="M36.3994 82.9988C36.3994 82.9988 36.1496 82.4196 35.6839 82.7351" stroke="#3B82F6" stroke-width="0.315493" stroke-linecap="round" stroke-linejoin="round"/>
<path d="M56.3636 63.8172C54.8492 63.8172 53.9633 62.636 53.9633 61.0156C53.9633 59.4028 54.8643 58.1989 56.3787 58.1989C57.6659 58.1989 58.3322 58.9712 58.5291 59.9707L57.8476 60.0161C57.7114 59.3195 57.2949 58.8349 56.3787 58.8349C55.1521 58.8349 54.6448 59.8495 54.6448 61.0156C54.6448 62.2423 55.1748 63.1812 56.3787 63.1812C57.3328 63.1812 57.9234 62.4543 57.9385 61.5986H56.3939V60.9778H58.5443V63.696H58.0597L58.0294 62.795C57.7644 63.4007 57.098 63.8172 56.3636 63.8172ZM59.5301 63.696V59.683H60.0904L60.1131 60.425C60.257 59.9177 60.575 59.683 61.0672 59.683H61.4609V60.2887H61.0747C60.469 60.2887 60.1661 60.6143 60.1661 61.2731V63.696H59.5301ZM63.1787 63.7869C62.3458 63.7869 61.8233 63.3856 61.8233 62.6966C61.8233 62.0151 62.2095 61.6365 63.0878 61.4699L64.5113 61.2049C64.5113 60.531 64.1933 60.1979 63.5573 60.1979C62.997 60.1979 62.6865 60.4553 62.5654 60.9172L61.8915 60.8642C62.0429 60.107 62.6487 59.5921 63.5573 59.5921C64.5871 59.5921 65.1474 60.213 65.1474 61.2276V62.8859C65.1474 63.0676 65.208 63.1357 65.3594 63.1357H65.5184V63.696C65.473 63.7036 65.3745 63.7112 65.2761 63.7112C64.7915 63.7112 64.5719 63.5219 64.5189 63.0752C64.322 63.4916 63.7693 63.7869 63.1787 63.7869ZM63.2393 63.2266C64.0419 63.2266 64.5113 62.7117 64.5113 62.0454V61.7577L63.209 62C62.6638 62.0984 62.4897 62.3028 62.4897 62.636C62.4897 63.0146 62.7698 63.2266 63.2393 63.2266ZM67.6455 63.7869C66.6006 63.7869 65.9494 62.9767 65.9494 61.6895C65.9494 60.4023 66.6006 59.5921 67.6455 59.5921C68.1831 59.5921 68.6601 59.8344 68.8797 60.2433V58.32H69.5157V63.696H68.9403L68.9176 63.0903C68.6904 63.5295 68.2058 63.7869 67.6455 63.7869ZM67.7742 63.1812C68.486 63.1812 68.8797 62.6057 68.8797 61.6895C68.8797 60.7582 68.486 60.1979 67.7742 60.1979C67.07 60.1979 66.6157 60.7582 66.6157 61.6895C66.6157 62.6057 67.07 63.1812 67.7742 63.1812ZM74.0416 63.7869C72.9967 63.7869 72.3455 62.9767 72.3455 61.6895C72.3455 60.4023 72.9967 59.5921 74.0416 59.5921C74.5792 59.5921 75.0563 59.8344 75.2758 60.2433V58.32H75.9119V63.696H75.3364L75.3137 63.0903C75.0865 63.5295 74.602 63.7869 74.0416 63.7869ZM74.1704 63.1812C74.8821 63.1812 75.2758 62.6057 75.2758 61.6895C75.2758 60.7582 74.8821 60.1979 74.1704 60.1979C73.4662 60.1979 73.0119 60.7582 73.0119 61.6895C73.0119 62.6057 73.4662 63.1812 74.1704 63.1812ZM78.6147 63.7869C77.479 63.7869 76.7748 62.9616 76.7748 61.6895C76.7748 60.4174 77.479 59.5921 78.5844 59.5921C79.6294 59.5921 80.3563 60.3493 80.3563 61.6971V61.8864H77.4411C77.4865 62.7496 77.9181 63.1812 78.6147 63.1812C79.1372 63.1812 79.4779 62.9161 79.6142 62.5073L80.2957 62.5603C80.0837 63.2796 79.4628 63.7869 78.6147 63.7869ZM77.4411 61.3261H79.6596C79.5991 60.5537 79.1751 60.1979 78.5844 60.1979C77.9636 60.1979 77.5471 60.584 77.4411 61.3261ZM83.1696 59.0545V58.3125H83.8359V59.0545H83.1696ZM83.1847 63.696V59.683H83.8207V63.696H83.1847ZM85.1072 63.696V59.683H85.6903L85.7054 60.4023C85.9174 59.8495 86.3869 59.5921 86.9396 59.5921C87.8558 59.5921 88.295 60.266 88.295 61.114V63.696H87.6589V61.2958C87.6589 60.5537 87.4091 60.1524 86.8033 60.1524C86.1824 60.1524 85.7433 60.5537 85.7433 61.2958V63.696H85.1072ZM89.6418 63.696V60.2433H89.0967V59.683H89.6418V59.3195C89.6418 58.7289 89.975 58.32 90.7019 58.32H91.3379V58.8804H90.7473C90.4293 58.8804 90.2779 59.0621 90.2779 59.3649V59.683H91.2849V60.2433H90.2779V63.696H89.6418ZM93.47 63.7869C92.3343 63.7869 91.6301 62.9616 91.6301 61.6895C91.6301 60.4174 92.3343 59.5921 93.4398 59.5921C94.4847 59.5921 95.2116 60.3493 95.2116 61.6971V61.8864H92.2964C92.3418 62.7496 92.7734 63.1812 93.47 63.1812C93.9925 63.1812 94.3332 62.9161 94.4695 62.5073L95.151 62.5603C94.939 63.2796 94.3181 63.7869 93.47 63.7869ZM92.2964 61.3261H94.515C94.4544 60.5537 94.0304 60.1979 93.4398 60.1979C92.8189 60.1979 92.4024 60.584 92.2964 61.3261ZM97.5345 63.7869C96.4593 63.7869 95.8611 63.219 95.8005 62.4315L96.4668 62.3861C96.5426 62.8707 96.853 63.1812 97.5345 63.1812C98.0796 63.1812 98.4355 63.0146 98.4355 62.6208C98.4355 62.3028 98.2765 62.1665 97.4133 62.0151C96.2624 61.8107 95.8989 61.4548 95.8989 60.8187C95.8989 60.107 96.4441 59.5921 97.4133 59.5921C98.3901 59.5921 98.905 60.1827 99.0261 60.8793L98.3598 60.9247C98.2689 60.5007 97.9509 60.1979 97.4057 60.1979C96.8303 60.1979 96.5653 60.4477 96.5653 60.7885C96.5653 61.1822 96.8227 61.3336 97.5345 61.4548C98.7611 61.6668 99.1018 61.9848 99.1018 62.6208C99.1018 63.3629 98.4204 63.7869 97.5345 63.7869ZM101.284 63.696C100.557 63.696 100.216 63.378 100.216 62.6663V60.2433H99.6254V59.683H100.216V58.7441H100.852V59.683H101.92V60.2433H100.852V62.6511C100.852 63.0146 101.011 63.1357 101.344 63.1357H101.92V63.696H101.284ZM103.789 63.7869C102.956 63.7869 102.433 63.3856 102.433 62.6966C102.433 62.0151 102.819 61.6365 103.698 61.4699L105.121 61.2049C105.121 60.531 104.803 60.1979 104.167 60.1979C103.607 60.1979 103.296 60.4553 103.175 60.9172L102.501 60.8642C102.653 60.107 103.259 59.5921 104.167 59.5921C105.197 59.5921 105.757 60.213 105.757 61.2276V62.8859C105.757 63.0676 105.818 63.1357 105.969 63.1357H106.128V63.696C106.083 63.7036 105.984 63.7112 105.886 63.7112C105.401 63.7112 105.182 63.5219 105.129 63.0752C104.932 63.4916 104.379 63.7869 103.789 63.7869ZM103.849 63.2266C104.652 63.2266 105.121 62.7117 105.121 62.0454V61.7577L103.819 62C103.274 62.0984 103.1 62.3028 103.1 62.636C103.1 63.0146 103.38 63.2266 103.849 63.2266ZM106.847 63.696V59.683H107.407L107.43 60.425C107.574 59.9177 107.892 59.683 108.384 59.683H108.778V60.2887H108.391C107.786 60.2887 107.483 60.6143 107.483 61.2731V63.696H106.847ZM110.98 63.7869C109.844 63.7869 109.14 62.9616 109.14 61.6895C109.14 60.4174 109.844 59.5921 110.95 59.5921C111.995 59.5921 112.721 60.3493 112.721 61.6971V61.8864H109.806C109.852 62.7496 110.283 63.1812 110.98 63.1812C111.502 63.1812 111.843 62.9161 111.979 62.5073L112.661 62.5603C112.449 63.2796 111.828 63.7869 110.98 63.7869ZM109.806 61.3261H112.025C111.964 60.5537 111.54 60.1979 110.95 60.1979C110.329 60.1979 109.912 60.584 109.806 61.3261Z" fill="#64748B"/>
<path d="M54.2417 78.4819V73.704H55.0492L56.5768 77.8494L58.0976 73.704H58.9052V78.4819H58.3264V74.7807L56.9604 78.4819H56.1865L54.8204 74.7807V78.4819H54.2417ZM59.9174 74.3568V73.6973H60.5096V74.3568H59.9174ZM59.9309 78.4819V74.9153H60.4961V78.4819H59.9309ZM62.9011 78.5627C61.9051 78.5627 61.2658 77.8292 61.2658 76.6986C61.2658 75.5681 61.9051 74.8346 62.9011 74.8346C63.7221 74.8346 64.2941 75.2787 64.4152 76.0728L63.823 76.1132C63.7423 75.6421 63.3856 75.3729 62.9011 75.3729C62.2416 75.3729 61.858 75.8709 61.858 76.6986C61.858 77.5264 62.2416 78.0243 62.9011 78.0243C63.3856 78.0243 63.7423 77.7552 63.823 77.2168L64.4152 77.2572C64.2941 78.0513 63.7221 78.5627 62.9011 78.5627Z" fill="#64748B"/>
<path d="M72.248 78.3749L74.141 76.482L72.248 74.589" stroke="#64748B" stroke-width="0.47324" stroke-linecap="round" stroke-linejoin="round"/>
<path d="M82.7917 78.5896C81.7284 78.5896 81.143 78.0378 81.1026 77.2504L81.7015 77.2101C81.7553 77.7955 82.1928 78.0243 82.7917 78.0243C83.4108 78.0243 83.9491 77.7955 83.9491 77.1495C83.9491 76.5169 83.4848 76.2276 82.7984 76.2276H82.4216V75.6623H82.7984C83.3637 75.6623 83.7809 75.4604 83.7809 74.9153C83.7809 74.4241 83.4579 74.1616 82.8253 74.1616C82.1928 74.1616 81.8899 74.4174 81.8294 74.8413L81.2237 74.8009C81.3112 74.0876 81.8697 73.5964 82.8253 73.5964C83.7944 73.5964 84.3865 74.0943 84.3865 74.8884C84.3865 75.3999 84.1039 75.7431 83.5588 75.9113C84.1779 76.0795 84.5548 76.5371 84.5548 77.1495C84.5548 78.0647 83.828 78.5896 82.7917 78.5896ZM88.5068 78.5627C87.5109 78.5627 86.8716 77.8292 86.8716 76.6986C86.8716 75.5681 87.5109 74.8346 88.5068 74.8346C89.3278 74.8346 89.8998 75.2787 90.021 76.0728L89.4288 76.1132C89.348 75.6421 88.9914 75.3729 88.5068 75.3729C87.8474 75.3729 87.4638 75.8709 87.4638 76.6986C87.4638 77.5264 87.8474 78.0243 88.5068 78.0243C88.9914 78.0243 89.348 77.7552 89.4288 77.2168L90.021 77.2572C89.8998 78.0513 89.3278 78.5627 88.5068 78.5627ZM91.776 78.5627C91.0358 78.5627 90.5715 78.206 90.5715 77.5936C90.5715 76.988 90.9147 76.6515 91.6953 76.5035L92.9604 76.268C92.9604 75.669 92.6778 75.3729 92.1125 75.3729C91.6145 75.3729 91.3386 75.6017 91.231 76.0122L90.632 75.9651C90.7666 75.2922 91.305 74.8346 92.1125 74.8346C93.0277 74.8346 93.5257 75.3864 93.5257 76.2881V77.7619C93.5257 77.9234 93.5795 77.984 93.7141 77.984H93.8554V78.4819C93.8151 78.4887 93.7276 78.4954 93.6401 78.4954C93.2094 78.4954 93.0142 78.3272 92.9671 77.9301C92.7922 78.3002 92.3009 78.5627 91.776 78.5627ZM91.8299 78.0647C92.5432 78.0647 92.9604 77.6071 92.9604 77.0149V76.7592L91.803 76.9745C91.3184 77.062 91.1637 77.2437 91.1637 77.5398C91.1637 77.8763 91.4126 78.0647 91.8299 78.0647ZM94.4939 79.4913V74.9153H95.0188L95.0255 75.4604C95.2408 75.0499 95.6379 74.8346 96.1224 74.8346C97.1857 74.8346 97.6634 75.7161 97.6634 76.6986C97.6634 77.6811 97.1857 78.5627 96.1224 78.5627C95.6581 78.5627 95.2476 78.3541 95.0592 78.0109V79.4913H94.4939ZM96.0686 78.0243C96.6877 78.0243 97.0713 77.5331 97.0713 76.6986C97.0713 75.8642 96.6877 75.3729 96.0686 75.3729C95.4495 75.3729 95.0592 75.8238 95.0592 76.6986C95.0592 77.5735 95.4427 78.0243 96.0686 78.0243ZM99.8233 78.5627C98.8274 78.5627 98.1881 77.8292 98.1881 76.6986C98.1881 75.5681 98.8274 74.8346 99.8233 74.8346C100.644 74.8346 101.216 75.2787 101.337 76.0728L100.745 76.1132C100.665 75.6421 100.308 75.3729 99.8233 75.3729C99.1638 75.3729 98.7803 75.8709 98.7803 76.6986C98.7803 77.5264 99.1638 78.0243 99.8233 78.0243C100.308 78.0243 100.665 77.7552 100.745 77.2168L101.337 77.2572C101.216 78.0513 100.644 78.5627 99.8233 78.5627ZM103.093 78.5627C102.352 78.5627 101.888 78.206 101.888 77.5936C101.888 76.988 102.231 76.6515 103.012 76.5035L104.277 76.268C104.277 75.669 103.994 75.3729 103.429 75.3729C102.931 75.3729 102.655 75.6017 102.547 76.0122L101.949 75.9651C102.083 75.2922 102.621 74.8346 103.429 74.8346C104.344 74.8346 104.842 75.3864 104.842 76.2881V77.7619C104.842 77.9234 104.896 77.984 105.031 77.984H105.172V78.4819C105.132 78.4887 105.044 78.4954 104.957 78.4954C104.526 78.4954 104.331 78.3272 104.284 77.9301C104.109 78.3002 103.617 78.5627 103.093 78.5627ZM103.146 78.0647C103.86 78.0647 104.277 77.6071 104.277 77.0149V76.7592L103.119 76.9745C102.635 77.062 102.48 77.2437 102.48 77.5398C102.48 77.8763 102.729 78.0647 103.146 78.0647ZM105.81 78.4819V74.9153H106.329L106.342 75.5546C106.53 75.0634 106.948 74.8346 107.439 74.8346C108.253 74.8346 108.643 75.4335 108.643 76.1872V78.4819H108.078V76.3487C108.078 75.6892 107.856 75.3326 107.318 75.3326C106.766 75.3326 106.376 75.6892 106.376 76.3487V78.4819H105.81ZM111.035 78.5627C110.025 78.5627 109.399 77.8292 109.399 76.6986C109.399 75.5681 110.025 74.8346 111.008 74.8346C111.936 74.8346 112.582 75.5075 112.582 76.7054V76.8736H109.992C110.032 77.6408 110.416 78.0243 111.035 78.0243C111.499 78.0243 111.802 77.7888 111.923 77.4254L112.529 77.4725C112.34 78.1118 111.788 78.5627 111.035 78.5627ZM109.992 76.3756H111.963C111.909 75.6892 111.533 75.3729 111.008 75.3729C110.456 75.3729 110.086 75.7161 109.992 76.3756Z" fill="#020617"/>
<path d="M54.2417 92.2679V87.4901H55.0492L56.5768 91.6354L58.0976 87.4901H58.9052V92.2679H58.3264V88.5668L56.9604 92.2679H56.1865L54.8204 88.5668V92.2679H54.2417ZM61.3896 92.3487C60.3802 92.3487 59.7543 91.6152 59.7543 90.4846C59.7543 89.3541 60.3802 88.6206 61.3627 88.6206C62.2913 88.6206 62.9373 89.2935 62.9373 90.4914V90.6596H60.3465C60.3869 91.4268 60.7705 91.8103 61.3896 91.8103C61.8539 91.8103 62.1567 91.5748 62.2779 91.2114L62.8835 91.2585C62.6951 91.8978 62.1433 92.3487 61.3896 92.3487ZM60.3465 90.1616H62.3182C62.2644 89.4752 61.8876 89.1589 61.3627 89.1589C60.8108 89.1589 60.4407 89.5021 60.3465 90.1616ZM64.9682 92.3487C64.0395 92.3487 63.4608 91.6286 63.4608 90.4846C63.4608 89.3406 64.0395 88.6206 64.9682 88.6206C65.446 88.6206 65.8699 88.8359 66.0651 89.1993V87.4901H66.6303V92.2679H66.1189L66.0987 91.7296C65.8968 92.1199 65.4661 92.3487 64.9682 92.3487ZM65.0826 91.8103C65.7151 91.8103 66.0651 91.2989 66.0651 90.4846C66.0651 89.6569 65.7151 89.1589 65.0826 89.1589C64.4567 89.1589 64.053 89.6569 64.053 90.4846C64.053 91.2989 64.4567 91.8103 65.0826 91.8103ZM67.5603 88.1428V87.4833H68.1525V88.1428H67.5603ZM67.5738 92.2679V88.7013H68.139V92.2679H67.5738ZM70.2562 92.3487C69.5429 92.3487 69.0853 91.844 69.0853 90.9961V88.7013H69.6505V90.8413C69.6505 91.5344 69.8928 91.8507 70.4042 91.8507C70.9695 91.8507 71.3127 91.4671 71.3127 90.8278V88.7013H71.878V92.2679H71.3396V91.6892C71.1445 92.1132 70.7676 92.3487 70.2562 92.3487Z" fill="#64748B"/>
<path d="M79.248 92.1609L81.141 90.268L79.248 88.375" stroke="#64748B" stroke-width="0.47324" stroke-linecap="round" stroke-linejoin="round"/>
<path d="M89.7984 92.3756C88.7688 92.3756 88.0353 91.8844 88.0353 90.9557C88.0353 90.3366 88.3919 89.8992 88.9572 89.6973C88.5333 89.5223 88.2641 89.2061 88.2641 88.6946C88.2641 87.9409 88.8697 87.3824 89.7984 87.3824C90.7271 87.3824 91.3327 87.9409 91.3327 88.6946C91.3327 89.2061 91.0635 89.5223 90.6396 89.6973C91.2049 89.8992 91.5615 90.3366 91.5615 90.9557C91.5615 91.8844 90.828 92.3756 89.7984 92.3756ZM89.7984 89.4618C90.3906 89.4618 90.7271 89.2061 90.7271 88.6946C90.7271 88.237 90.404 87.9477 89.7984 87.9477C89.1928 87.9477 88.8697 88.237 88.8697 88.6946C88.8697 89.2061 89.2062 89.4618 89.7984 89.4618ZM89.7984 91.8103C90.505 91.8103 90.9559 91.5277 90.9559 90.9221C90.9559 90.3635 90.5925 90.0001 89.7984 90.0001C89.0043 90.0001 88.6409 90.3635 88.6409 90.9221C88.6409 91.5277 89.0918 91.8103 89.7984 91.8103ZM95.4411 92.3487C94.4452 92.3487 93.8059 91.6152 93.8059 90.4846C93.8059 89.3541 94.4452 88.6206 95.4411 88.6206C96.2621 88.6206 96.8341 89.0647 96.9553 89.8588L96.3631 89.8992C96.2823 89.4281 95.9256 89.1589 95.4411 89.1589C94.7816 89.1589 94.3981 89.6569 94.3981 90.4846C94.3981 91.3124 94.7816 91.8103 95.4411 91.8103C95.9256 91.8103 96.2823 91.5412 96.3631 91.0028L96.9553 91.0432C96.8341 91.8373 96.2621 92.3487 95.4411 92.3487ZM98.7103 92.3487C97.9701 92.3487 97.5057 91.992 97.5057 91.3797C97.5057 90.774 97.849 90.4375 98.6296 90.2895L99.8947 90.054C99.8947 89.455 99.6121 89.1589 99.0468 89.1589C98.5488 89.1589 98.2729 89.3877 98.1652 89.7982L97.5663 89.7511C97.7009 89.0782 98.2393 88.6206 99.0468 88.6206C99.962 88.6206 100.46 89.1724 100.46 90.0742V91.5479C100.46 91.7094 100.514 91.77 100.648 91.77H100.79V92.2679C100.749 92.2747 100.662 92.2814 100.574 92.2814C100.144 92.2814 99.9485 92.1132 99.9014 91.7161C99.7265 92.0862 99.2352 92.3487 98.7103 92.3487ZM98.7642 91.8507C99.4775 91.8507 99.8947 91.3931 99.8947 90.8009V90.5452L98.7372 90.7606C98.2527 90.848 98.0979 91.0297 98.0979 91.3258C98.0979 91.6623 98.3469 91.8507 98.7642 91.8507ZM101.428 93.2774V88.7013H101.953L101.96 89.2464C102.175 88.8359 102.572 88.6206 103.057 88.6206C104.12 88.6206 104.598 89.5021 104.598 90.4846C104.598 91.4671 104.12 92.3487 103.057 92.3487C102.592 92.3487 102.182 92.1401 101.993 91.7969V93.2774H101.428ZM103.003 91.8103C103.622 91.8103 104.006 91.3191 104.006 90.4846C104.006 89.6502 103.622 89.1589 103.003 89.1589C102.384 89.1589 101.993 89.6098 101.993 90.4846C101.993 91.3595 102.377 91.8103 103.003 91.8103ZM106.758 92.3487C105.762 92.3487 105.122 91.6152 105.122 90.4846C105.122 89.3541 105.762 88.6206 106.758 88.6206C107.579 88.6206 108.151 89.0647 108.272 89.8588L107.68 89.8992C107.599 89.4281 107.242 89.1589 106.758 89.1589C106.098 89.1589 105.715 89.6569 105.715 90.4846C105.715 91.3124 106.098 91.8103 106.758 91.8103C107.242 91.8103 107.599 91.5412 107.68 91.0028L108.272 91.0432C108.151 91.8373 107.579 92.3487 106.758 92.3487ZM110.027 92.3487C109.287 92.3487 108.822 91.992 108.822 91.3797C108.822 90.774 109.165 90.4375 109.946 90.2895L111.211 90.054C111.211 89.455 110.929 89.1589 110.363 89.1589C109.865 89.1589 109.589 89.3877 109.482 89.7982L108.883 89.7511C109.017 89.0782 109.556 88.6206 110.363 88.6206C111.278 88.6206 111.776 89.1724 111.776 90.0742V91.5479C111.776 91.7094 111.83 91.77 111.965 91.77H112.106V92.2679C112.066 92.2747 111.978 92.2814 111.891 92.2814C111.46 92.2814 111.265 92.1132 111.218 91.7161C111.043 92.0862 110.552 92.3487 110.027 92.3487ZM110.081 91.8507C110.794 91.8507 111.211 91.3931 111.211 90.8009V90.5452L110.054 90.7606C109.569 90.848 109.414 91.0297 109.414 91.3258C109.414 91.6623 109.663 91.8507 110.081 91.8507ZM112.745 92.2679V88.7013H113.263L113.276 89.3406C113.465 88.8494 113.882 88.6206 114.373 88.6206C115.187 88.6206 115.578 89.2195 115.578 89.9732V92.2679H115.012V90.1347C115.012 89.4752 114.79 89.1186 114.252 89.1186C113.7 89.1186 113.31 89.4752 113.31 90.1347V92.2679H112.745ZM117.969 92.3487C116.96 92.3487 116.334 91.6152 116.334 90.4846C116.334 89.3541 116.96 88.6206 117.942 88.6206C118.871 88.6206 119.517 89.2935 119.517 90.4914V90.6596H116.926C116.966 91.4268 117.35 91.8103 117.969 91.8103C118.433 91.8103 118.736 91.5748 118.857 91.2114L119.463 91.2585C119.274 91.8978 118.723 92.3487 117.969 92.3487ZM116.926 90.1616H118.898C118.844 89.4752 118.467 89.1589 117.942 89.1589C117.39 89.1589 117.02 89.5021 116.926 90.1616Z" fill="#020617"/>
<path d="M54.2417 106.054V101.276H55.0492L56.5768 105.421L58.0976 101.276H58.9052V106.054H58.3264V102.353L56.9604 106.054H56.1865L54.8204 102.353V106.054H54.2417ZM60.9589 106.135C60.2187 106.135 59.7543 105.778 59.7543 105.166C59.7543 104.56 60.0975 104.223 60.8781 104.075L62.1433 103.84C62.1433 103.241 61.8606 102.945 61.2954 102.945C60.7974 102.945 60.5215 103.174 60.4138 103.584L59.8149 103.537C59.9495 102.864 60.4878 102.406 61.2954 102.406C62.2106 102.406 62.7085 102.958 62.7085 103.86V105.334C62.7085 105.495 62.7624 105.556 62.897 105.556H63.0383V106.054C62.9979 106.061 62.9104 106.067 62.8229 106.067C62.3923 106.067 62.1971 105.899 62.15 105.502C61.975 105.872 61.4838 106.135 60.9589 106.135ZM61.0127 105.637C61.7261 105.637 62.1433 105.179 62.1433 104.587V104.331L60.9858 104.546C60.5013 104.634 60.3465 104.816 60.3465 105.112C60.3465 105.448 60.5955 105.637 61.0127 105.637ZM63.6767 106.054V102.487H64.1747L64.1949 103.147C64.3228 102.696 64.6054 102.487 65.0428 102.487H65.3927V103.026H65.0495C64.5112 103.026 64.242 103.315 64.242 103.9V106.054H63.6767ZM67.3501 106.135C66.3407 106.135 65.7149 105.401 65.7149 104.271C65.7149 103.14 66.3407 102.406 67.3232 102.406C68.2519 102.406 68.8979 103.079 68.8979 104.277V104.445H66.3071C66.3474 105.213 66.731 105.596 67.3501 105.596C67.8144 105.596 68.1173 105.361 68.2384 104.997L68.844 105.044C68.6556 105.684 68.1038 106.135 67.3501 106.135ZM66.3071 103.948H68.2788C68.2249 103.261 67.8481 102.945 67.3232 102.945C66.7714 102.945 66.4013 103.288 66.3071 103.948Z" fill="#64748B"/>
<path d="M76.248 105.947L78.141 104.054L76.248 102.161" stroke="#64748B" stroke-width="0.47324" stroke-linecap="round" stroke-linejoin="round"/>
<path d="M87.3973 106.054V105.018H84.968V104.493L87.3569 101.276H87.9761V104.452H88.5682V105.018H87.9761V106.054H87.3973ZM85.6679 104.452H87.3973V102.164L85.6679 104.452ZM92.52 106.135C91.524 106.135 90.8847 105.401 90.8847 104.271C90.8847 103.14 91.524 102.406 92.52 102.406C93.341 102.406 93.913 102.851 94.0341 103.645L93.4419 103.685C93.3612 103.214 93.0045 102.945 92.52 102.945C91.8605 102.945 91.4769 103.443 91.4769 104.271C91.4769 105.098 91.8605 105.596 92.52 105.596C93.0045 105.596 93.3612 105.327 93.4419 104.789L94.0341 104.829C93.913 105.623 93.341 106.135 92.52 106.135ZM95.7892 106.135C95.0489 106.135 94.5846 105.778 94.5846 105.166C94.5846 104.56 94.9278 104.223 95.7084 104.075L96.9736 103.84C96.9736 103.241 96.6909 102.945 96.1256 102.945C95.6277 102.945 95.3518 103.174 95.2441 103.584L94.6452 103.537C94.7798 102.864 95.3181 102.406 96.1256 102.406C97.0409 102.406 97.5388 102.958 97.5388 103.86V105.334C97.5388 105.495 97.5927 105.556 97.7273 105.556H97.8686V106.054C97.8282 106.061 97.7407 106.067 97.6532 106.067C97.2225 106.067 97.0274 105.899 96.9803 105.502C96.8053 105.872 96.3141 106.135 95.7892 106.135ZM95.843 105.637C96.5563 105.637 96.9736 105.179 96.9736 104.587V104.331L95.8161 104.546C95.3316 104.634 95.1768 104.816 95.1768 105.112C95.1768 105.448 95.4258 105.637 95.843 105.637ZM98.507 107.063V102.487H99.0319L99.0386 103.032C99.254 102.622 99.651 102.406 100.136 102.406C101.199 102.406 101.677 103.288 101.677 104.271C101.677 105.253 101.199 106.135 100.136 106.135C99.6712 106.135 99.2607 105.926 99.0723 105.583V107.063H98.507ZM100.082 105.596C100.701 105.596 101.084 105.105 101.084 104.271C101.084 103.436 100.701 102.945 100.082 102.945C99.4626 102.945 99.0723 103.396 99.0723 104.271C99.0723 105.145 99.4559 105.596 100.082 105.596ZM103.836 106.135C102.841 106.135 102.201 105.401 102.201 104.271C102.201 103.14 102.841 102.406 103.836 102.406C104.657 102.406 105.229 102.851 105.351 103.645L104.758 103.685C104.678 103.214 104.321 102.945 103.836 102.945C103.177 102.945 102.793 103.443 102.793 104.271C102.793 105.098 103.177 105.596 103.836 105.596C104.321 105.596 104.678 105.327 104.758 104.789L105.351 104.829C105.229 105.623 104.657 106.135 103.836 106.135ZM107.106 106.135C106.365 106.135 105.901 105.778 105.901 105.166C105.901 104.56 106.244 104.223 107.025 104.075L108.29 103.84C108.29 103.241 108.007 102.945 107.442 102.945C106.944 102.945 106.668 103.174 106.561 103.584L105.962 103.537C106.096 102.864 106.635 102.406 107.442 102.406C108.357 102.406 108.855 102.958 108.855 103.86V105.334C108.855 105.495 108.909 105.556 109.044 105.556H109.185V106.054C109.145 106.061 109.057 106.067 108.97 106.067C108.539 106.067 108.344 105.899 108.297 105.502C108.122 105.872 107.631 106.135 107.106 106.135ZM107.159 105.637C107.873 105.637 108.29 105.179 108.29 104.587V104.331L107.133 104.546C106.648 104.634 106.493 104.816 106.493 105.112C106.493 105.448 106.742 105.637 107.159 105.637ZM109.824 106.054V102.487H110.342L110.355 103.127C110.544 102.635 110.961 102.406 111.452 102.406C112.266 102.406 112.657 103.005 112.657 103.759V106.054H112.091V103.921C112.091 103.261 111.869 102.904 111.331 102.904C110.779 102.904 110.389 103.261 110.389 103.921V106.054H109.824ZM115.048 106.135C114.038 106.135 113.413 105.401 113.413 104.271C113.413 103.14 114.038 102.406 115.021 102.406C115.95 102.406 116.596 103.079 116.596 104.277V104.445H114.005C114.045 105.213 114.429 105.596 115.048 105.596C115.512 105.596 115.815 105.361 115.936 104.997L116.542 105.044C116.353 105.684 115.801 106.135 115.048 106.135ZM114.005 103.948H115.976C115.923 103.261 115.546 102.945 115.021 102.945C114.469 102.945 114.099 103.288 114.005 103.948Z" fill="#020617"/>
<path d="M32.8003 134.068V126.969C32.8003 126.656 32.9249 126.355 33.1468 126.133C33.3687 125.911 33.6696 125.786 33.9834 125.786H39.8989C40.0244 125.786 40.1448 125.836 40.2335 125.925C40.3223 126.014 40.3721 126.134 40.3721 126.259V134.778C40.3721 134.903 40.3223 135.024 40.2335 135.112C40.1448 135.201 40.0244 135.251 39.8989 135.251H33.9834C33.6696 135.251 33.3687 135.126 33.1468 134.905C32.9249 134.683 32.8003 134.382 32.8003 134.068ZM32.8003 134.068C32.8003 133.754 32.9249 133.453 33.1468 133.231C33.3687 133.01 33.6696 132.885 33.9834 132.885H40.3721M35.1665 129.336L36.113 130.282L38.0059 128.389" stroke="#3B82F6" stroke-width="0.47324" stroke-linecap="round" stroke-linejoin="round"/>
<path d="M56.2348 124.747C54.9855 124.747 54.2056 123.974 54.2056 122.748V119.242H54.8568V122.748C54.8568 123.619 55.3565 124.111 56.2348 124.111C57.1056 124.111 57.6053 123.619 57.6053 122.748V119.242H58.2565V122.748C58.2565 123.974 57.4766 124.747 56.2348 124.747ZM60.2362 124.626C59.7668 124.626 59.4487 124.398 59.4487 123.868V119.25H60.0848V123.815C60.0848 123.982 60.1681 124.065 60.3346 124.065H60.6829V124.626H60.2362ZM62.7071 124.626C61.9802 124.626 61.6395 124.308 61.6395 123.596V121.173H61.0489V120.613H61.6395V119.674H62.2755V120.613H63.3432V121.173H62.2755V123.581C62.2755 123.944 62.4345 124.065 62.7677 124.065H63.3432V124.626H62.7071ZM64.1438 119.984V119.242H64.8101V119.984H64.1438ZM64.159 124.626V120.613H64.795V124.626H64.159ZM66.0815 124.626V120.613H66.6645L66.6797 121.317C66.8765 120.825 67.293 120.522 67.8079 120.522C68.4136 120.522 68.8376 120.825 69.0118 121.362C69.186 120.825 69.5948 120.522 70.1854 120.522C71.0411 120.522 71.5105 121.074 71.5105 122.044V124.626H70.8745V122.18C70.8745 121.453 70.5867 121.082 70.034 121.082C69.4737 121.082 69.1102 121.506 69.1102 122.225V124.626H68.4742V122.225C68.4742 121.514 68.2395 121.082 67.6489 121.082C67.0886 121.082 66.7175 121.514 66.7175 122.225V124.626H66.0815ZM73.7305 124.716C72.8976 124.716 72.3751 124.315 72.3751 123.626C72.3751 122.945 72.7613 122.566 73.6396 122.399L75.0631 122.134C75.0631 121.461 74.7451 121.127 74.1091 121.127C73.5488 121.127 73.2383 121.385 73.1172 121.847L72.4433 121.794C72.5947 121.037 73.2005 120.522 74.1091 120.522C75.1388 120.522 75.6992 121.143 75.6992 122.157V123.815C75.6992 123.997 75.7597 124.065 75.9112 124.065H76.0702V124.626C76.0247 124.633 75.9263 124.641 75.8279 124.641C75.3433 124.641 75.1237 124.451 75.0707 124.005C74.8738 124.421 74.3211 124.716 73.7305 124.716ZM73.7911 124.156C74.5937 124.156 75.0631 123.641 75.0631 122.975V122.687L73.7608 122.93C73.2156 123.028 73.0414 123.232 73.0414 123.566C73.0414 123.944 73.3216 124.156 73.7911 124.156ZM79.7333 124.626L78.2719 120.613H78.9685L80.1346 123.974L81.3007 120.613H81.9973L80.5359 124.626H79.7333ZM84.1383 124.716C83.0026 124.716 82.2984 123.891 82.2984 122.619C82.2984 121.347 83.0026 120.522 84.108 120.522C85.153 120.522 85.8799 121.279 85.8799 122.627V122.816H82.9647C83.0101 123.679 83.4417 124.111 84.1383 124.111C84.6608 124.111 85.0015 123.846 85.1378 123.437L85.8193 123.49C85.6073 124.209 84.9864 124.716 84.1383 124.716ZM82.9647 122.256H85.1832C85.1227 121.483 84.6987 121.127 84.108 121.127C83.4872 121.127 83.0707 121.514 82.9647 122.256ZM86.7414 124.626V120.613H87.3017L87.3244 121.355C87.4683 120.847 87.7863 120.613 88.2785 120.613H88.6722V121.218H88.2861C87.6803 121.218 87.3774 121.544 87.3774 122.203V124.626H86.7414ZM89.366 119.984V119.242H90.0324V119.984H89.366ZM89.3812 124.626V120.613H90.0172V124.626H89.3812ZM93.8256 119.984V119.242H94.4919V119.984H93.8256ZM91.3647 124.626V121.173H90.8195V120.613H91.3647V120.249C91.3647 119.658 91.6979 119.25 92.4248 119.25H93.0608V119.81H92.4702C92.1522 119.81 92.0007 119.992 92.0007 120.295V120.613H93.0078V121.173H92.0007V124.626H91.3647ZM93.8407 124.626V120.613H94.4767V124.626H93.8407ZM97.182 124.716C96.0614 124.716 95.3421 123.891 95.3421 122.619C95.3421 121.347 96.0614 120.522 97.182 120.522C98.1058 120.522 98.7494 121.021 98.8857 121.915L98.2194 121.96C98.1285 121.43 97.7272 121.127 97.182 121.127C96.44 121.127 96.0084 121.688 96.0084 122.619C96.0084 123.55 96.44 124.111 97.182 124.111C97.7272 124.111 98.1285 123.808 98.2194 123.202L98.8857 123.248C98.7494 124.141 98.1058 124.716 97.182 124.716ZM100.86 124.716C100.028 124.716 99.5051 124.315 99.5051 123.626C99.5051 122.945 99.8913 122.566 100.77 122.399L102.193 122.134C102.193 121.461 101.875 121.127 101.239 121.127C100.679 121.127 100.368 121.385 100.247 121.847L99.5732 121.794C99.7247 121.037 100.33 120.522 101.239 120.522C102.269 120.522 102.829 121.143 102.829 122.157V123.815C102.829 123.997 102.89 124.065 103.041 124.065H103.2V124.626C103.155 124.633 103.056 124.641 102.958 124.641C102.473 124.641 102.254 124.451 102.201 124.005C102.004 124.421 101.451 124.716 100.86 124.716ZM100.921 124.156C101.724 124.156 102.193 123.641 102.193 122.975V122.687L100.891 122.93C100.346 123.028 100.171 123.232 100.171 123.566C100.171 123.944 100.452 124.156 100.921 124.156ZM103.919 124.626V120.613H104.479L104.502 121.355C104.645 120.847 104.963 120.613 105.456 120.613H105.849V121.218H105.463C104.857 121.218 104.555 121.544 104.555 122.203V124.626H103.919ZM108.052 124.716C106.916 124.716 106.212 123.891 106.212 122.619C106.212 121.347 106.916 120.522 108.021 120.522C109.066 120.522 109.793 121.279 109.793 122.627V122.816H106.878C106.924 123.679 107.355 124.111 108.052 124.111C108.574 124.111 108.915 123.846 109.051 123.437L109.733 123.49C109.521 124.209 108.9 124.716 108.052 124.716ZM106.878 122.256H109.097C109.036 121.483 108.612 121.127 108.021 121.127C107.401 121.127 106.984 121.514 106.878 122.256Z" fill="#64748B"/>
<path d="M54.0769 140.411C54.0769 139.276 54.5236 138.526 56.1364 137.67C56.8785 137.277 57.1738 137.034 57.1738 136.489C57.1738 135.937 56.8103 135.55 56.0986 135.55C55.3414 135.55 54.9022 135.959 54.7886 136.686L54.1072 136.641C54.2283 135.588 54.9325 134.914 56.0986 134.914C57.204 134.914 57.8552 135.55 57.8552 136.474C57.8552 137.292 57.4918 137.701 56.3787 138.291C55.4095 138.806 54.9098 139.367 54.8795 139.775H57.8552V140.411H54.0769ZM60.7429 140.533C59.4406 140.533 58.6152 139.45 58.6152 137.731C58.6152 136.005 59.4406 134.914 60.7429 134.914C62.0529 134.914 62.8782 135.997 62.8782 137.731C62.8782 139.45 62.0529 140.533 60.7429 140.533ZM60.7429 139.897C61.6743 139.897 62.1967 139.117 62.1967 137.731C62.1967 136.338 61.6743 135.55 60.7429 135.55C59.8192 135.55 59.2967 136.338 59.2967 137.731C59.2967 139.117 59.8192 139.897 60.7429 139.897ZM63.3311 141.244L65.5648 134.733H66.1705L63.9368 141.244H63.3311ZM68.0898 140.411V136.429H66.9691V135.868H67.4234C68.014 135.868 68.226 135.672 68.226 135.035H68.7409V140.411H68.0898ZM70.6926 140.411V136.429H69.5719V135.868H70.0263C70.6169 135.868 70.8289 135.672 70.8289 135.035H71.3438V140.411H70.6926ZM72.404 141.244L74.6377 134.733H75.2434L73.0097 141.244H72.404ZM76.1935 140.411C76.1935 139.276 76.6402 138.526 78.253 137.67C78.995 137.277 79.2903 137.034 79.2903 136.489C79.2903 135.937 78.9269 135.55 78.2151 135.55C77.458 135.55 77.0188 135.959 76.9052 136.686L76.2237 136.641C76.3449 135.588 77.0491 134.914 78.2151 134.914C79.3206 134.914 79.9718 135.55 79.9718 136.474C79.9718 137.292 79.6084 137.701 78.4953 138.291C77.5261 138.806 77.0264 139.367 76.9961 139.775H79.9718V140.411H76.1935ZM82.8595 140.533C81.5572 140.533 80.7318 139.45 80.7318 137.731C80.7318 136.005 81.5572 134.914 82.8595 134.914C84.1695 134.914 84.9948 135.997 84.9948 137.731C84.9948 139.45 84.1695 140.533 82.8595 140.533ZM82.8595 139.897C83.7909 139.897 84.3133 139.117 84.3133 137.731C84.3133 136.338 83.7909 135.55 82.8595 135.55C81.9358 135.55 81.4133 136.338 81.4133 137.731C81.4133 139.117 81.9358 139.897 82.8595 139.897ZM85.7544 140.411C85.7544 139.276 86.2011 138.526 87.8139 137.67C88.556 137.277 88.8513 137.034 88.8513 136.489C88.8513 135.937 88.4878 135.55 87.7761 135.55C87.0189 135.55 86.5797 135.959 86.4661 136.686L85.7847 136.641C85.9058 135.588 86.61 134.914 87.7761 134.914C88.8816 134.914 89.5327 135.55 89.5327 136.474C89.5327 137.292 89.1693 137.701 88.0562 138.291C87.087 138.806 86.5873 139.367 86.557 139.775H89.5327V140.411H85.7544ZM92.7565 140.411V139.245H90.023V138.655L92.711 135.035H93.4076V138.609H94.074V139.245H93.4076V140.411H92.7565ZM90.8105 138.609H92.7565V136.035L90.8105 138.609ZM97.7708 140.411V136.429H96.6502V135.868H97.1045C97.6951 135.868 97.9071 135.672 97.9071 135.035H98.422V140.411H97.7708ZM100.374 140.411V136.429H99.253V135.868H99.7073C100.298 135.868 100.51 135.672 100.51 135.035H101.025V140.411H100.374ZM102.553 137.436V136.58H103.408V137.436H102.553ZM102.553 140.411V139.556H103.408V140.411H102.553ZM106.536 140.533C105.234 140.533 104.409 139.45 104.409 137.731C104.409 136.005 105.234 134.914 106.536 134.914C107.846 134.914 108.672 135.997 108.672 137.731C108.672 139.45 107.846 140.533 106.536 140.533ZM106.536 139.897C107.468 139.897 107.99 139.117 107.99 137.731C107.99 136.338 107.468 135.55 106.536 135.55C105.613 135.55 105.09 136.338 105.09 137.731C105.09 139.117 105.613 139.897 106.536 139.897ZM112.011 140.411V139.245H109.278V138.655L111.966 135.035H112.663V138.609H113.329V139.245H112.663V140.411H112.011ZM110.065 138.609H112.011V136.035L110.065 138.609ZM115.754 140.411L117.692 135.035H118.57L120.509 140.411H119.797L119.259 138.882H117.003L116.465 140.411H115.754ZM117.223 138.246H119.04L118.131 135.603L117.223 138.246ZM121.209 140.411V135.035H122.117L123.836 139.7L125.547 135.035H126.456V140.411H125.805V136.247L124.268 140.411H123.397L121.86 136.247V140.411H121.209Z" fill="#020617"/>
<g clip-path="url(#clip0_6852_17199)">
<path d="M34.6933 161.144V163.037M38.4793 161.144V163.037M32.3271 164.93H40.8455M34.6933 166.823H34.6981M36.5863 166.823H36.591M38.4793 166.823H38.484M34.6933 168.716H34.6981M36.5863 168.716H36.591M38.4793 168.716H38.484M33.2736 162.091H39.899C40.4217 162.091 40.8455 162.514 40.8455 163.037V169.662C40.8455 170.185 40.4217 170.609 39.899 170.609H33.2736C32.7509 170.609 32.3271 170.185 32.3271 169.662V163.037C32.3271 162.514 32.7509 162.091 33.2736 162.091Z" stroke="#3B82F6" stroke-width="0.47324" stroke-linecap="round" stroke-linejoin="round"/>
</g>
<path d="M56.2348 160.105C54.9855 160.105 54.2056 159.332 54.2056 158.106V154.6H54.8568V158.106C54.8568 158.976 55.3565 159.469 56.2348 159.469C57.1056 159.469 57.6053 158.976 57.6053 158.106V154.6H58.2565V158.106C58.2565 159.332 57.4766 160.105 56.2348 160.105ZM59.4487 159.983V155.97H60.0091L60.0318 156.712C60.1756 156.205 60.4937 155.97 60.9858 155.97H61.3796V156.576H60.9934C60.3876 156.576 60.0848 156.902 60.0848 157.56V159.983H59.4487ZM62.0146 159.983V155.97H62.5976L62.6128 156.675C62.8096 156.182 63.2261 155.879 63.741 155.879C64.3467 155.879 64.7707 156.182 64.9449 156.72C65.119 156.182 65.5279 155.879 66.1185 155.879C66.9741 155.879 67.4436 156.432 67.4436 157.401V159.983H66.8076V157.538C66.8076 156.811 66.5198 156.44 65.9671 156.44C65.4068 156.44 65.0433 156.864 65.0433 157.583V159.983H64.4073V157.583C64.4073 156.871 64.1726 156.44 63.582 156.44C63.0216 156.44 62.6506 156.871 62.6506 157.583V159.983H62.0146ZM70.08 155.418C69.4591 155.418 69.0503 155.039 69.02 154.448H69.4591C69.5046 154.797 69.7317 154.948 70.08 154.948C70.4283 154.948 70.6479 154.797 70.6933 154.448H71.1325C71.1022 155.039 70.7009 155.418 70.08 155.418ZM69.6636 160.074C68.8307 160.074 68.3082 159.673 68.3082 158.984C68.3082 158.302 68.6944 157.924 69.5727 157.757L70.9962 157.492C70.9962 156.818 70.6782 156.485 70.0422 156.485C69.4818 156.485 69.1714 156.743 69.0503 157.205L68.3764 157.152C68.5278 156.394 69.1335 155.879 70.0422 155.879C71.0719 155.879 71.6323 156.5 71.6323 157.515V159.173C71.6323 159.355 71.6928 159.423 71.8443 159.423H72.0033V159.983C71.9578 159.991 71.8594 159.999 71.761 159.999C71.2764 159.999 71.0568 159.809 71.0038 159.363C70.8069 159.779 70.2542 160.074 69.6636 160.074ZM69.7241 159.514C70.5268 159.514 70.9962 158.999 70.9962 158.333V158.045L69.6939 158.287C69.1487 158.386 68.9745 158.59 68.9745 158.923C68.9745 159.302 69.2547 159.514 69.7241 159.514ZM73.9909 159.983C73.264 159.983 72.9233 159.665 72.9233 158.954V156.531H72.3327V155.97H72.9233V155.031H73.5593V155.97H74.627V156.531H73.5593V158.938C73.5593 159.302 73.7184 159.423 74.0515 159.423H74.627V159.983H73.9909ZM76.9362 160.074C75.8231 160.074 75.0963 159.257 75.0963 157.977C75.0963 156.697 75.8231 155.879 76.9362 155.879C78.0417 155.879 78.7686 156.697 78.7686 157.977C78.7686 159.257 78.0417 160.074 76.9362 160.074ZM76.9362 159.469C77.6707 159.469 78.1023 158.908 78.1023 157.977C78.1023 157.046 77.6707 156.485 76.9362 156.485C76.1942 156.485 75.7626 157.046 75.7626 157.977C75.7626 158.908 76.1942 159.469 76.9362 159.469ZM80.8217 160.074C79.9888 160.074 79.4663 159.673 79.4663 158.984C79.4663 158.302 79.8525 157.924 80.7308 157.757L82.1543 157.492C82.1543 156.818 81.8363 156.485 81.2003 156.485C80.64 156.485 80.3295 156.743 80.2084 157.205L79.5345 157.152C79.6859 156.394 80.2917 155.879 81.2003 155.879C82.2301 155.879 82.7904 156.5 82.7904 157.515V159.173C82.7904 159.355 82.8509 159.423 83.0024 159.423H83.1614V159.983C83.116 159.991 83.0175 159.999 82.9191 159.999C82.4345 159.999 82.2149 159.809 82.1619 159.363C81.965 159.779 81.4123 160.074 80.8217 160.074ZM80.8823 159.514C81.6849 159.514 82.1543 158.999 82.1543 158.333V158.045L80.852 158.287C80.3068 158.386 80.1327 158.59 80.1327 158.923C80.1327 159.302 80.4128 159.514 80.8823 159.514ZM83.8798 159.983V155.97H84.4401L84.4628 156.712C84.6067 156.205 84.9247 155.97 85.4169 155.97H85.8106V156.576H85.4244C84.8187 156.576 84.5158 156.902 84.5158 157.56V159.983H83.8798ZM88.013 160.074C86.8772 160.074 86.173 159.249 86.173 157.977C86.173 156.705 86.8772 155.879 87.9827 155.879C89.0276 155.879 89.7545 156.637 89.7545 157.984V158.174H86.8394C86.8848 159.037 87.3164 159.469 88.013 159.469C88.5354 159.469 88.8762 159.203 89.0125 158.795L89.6939 158.848C89.4819 159.567 88.861 160.074 88.013 160.074ZM86.8394 157.613H89.0579C88.9973 156.841 88.5733 156.485 87.9827 156.485C87.3618 156.485 86.9454 156.871 86.8394 157.613ZM91.8023 160.074C90.9694 160.074 90.447 159.673 90.447 158.984C90.447 158.302 90.8331 157.924 91.7115 157.757L93.135 157.492C93.135 156.818 92.817 156.485 92.1809 156.485C91.6206 156.485 91.3102 156.743 91.189 157.205L90.5151 157.152C90.6666 156.394 91.2723 155.879 92.1809 155.879C93.2107 155.879 93.771 156.5 93.771 157.515V159.173C93.771 159.355 93.8316 159.423 93.983 159.423H94.142V159.983C94.0966 159.991 93.9982 159.999 93.8997 159.999C93.4151 159.999 93.1956 159.809 93.1426 159.363C92.9457 159.779 92.3929 160.074 91.8023 160.074ZM91.8629 159.514C92.6655 159.514 93.135 158.999 93.135 158.333V158.045L91.8326 158.287C91.2875 158.386 91.1133 158.59 91.1133 158.923C91.1133 159.302 91.3935 159.514 91.8629 159.514ZM97.8052 159.983L96.3438 155.97H97.0404L98.2065 159.332L99.3725 155.97H100.069L98.6078 159.983H97.8052ZM102.21 160.074C101.074 160.074 100.37 159.249 100.37 157.977C100.37 156.705 101.074 155.879 102.18 155.879C103.225 155.879 103.952 156.637 103.952 157.984V158.174H101.037C101.082 159.037 101.514 159.469 102.21 159.469C102.733 159.469 103.073 159.203 103.21 158.795L103.891 158.848C103.679 159.567 103.058 160.074 102.21 160.074ZM101.037 157.613H103.255C103.195 156.841 102.771 156.485 102.18 156.485C101.559 156.485 101.143 156.871 101.037 157.613ZM104.813 159.983V155.97H105.374L105.396 156.712C105.54 156.205 105.858 155.97 106.35 155.97H106.744V156.576H106.358C105.752 156.576 105.449 156.902 105.449 157.56V159.983H104.813ZM107.438 155.342V154.6H108.104V155.342H107.438ZM107.453 159.983V155.97H108.089V159.983H107.453ZM111.897 155.342V154.6H112.564V155.342H111.897ZM109.437 159.983V156.531H108.891V155.97H109.437V155.607C109.437 155.016 109.77 154.607 110.497 154.607H111.133V155.168H110.542C110.224 155.168 110.073 155.349 110.073 155.652V155.97H111.08V156.531H110.073V159.983H109.437ZM111.913 159.983V155.97H112.549V159.983H111.913ZM115.254 160.074C114.133 160.074 113.414 159.249 113.414 157.977C113.414 156.705 114.133 155.879 115.254 155.879C116.178 155.879 116.821 156.379 116.958 157.273L116.291 157.318C116.2 156.788 115.799 156.485 115.254 156.485C114.512 156.485 114.08 157.046 114.08 157.977C114.08 158.908 114.512 159.469 115.254 159.469C115.799 159.469 116.2 159.166 116.291 158.56L116.958 158.605C116.821 159.499 116.178 160.074 115.254 160.074ZM118.932 160.074C118.099 160.074 117.577 159.673 117.577 158.984C117.577 158.302 117.963 157.924 118.841 157.757L120.265 157.492C120.265 156.818 119.947 156.485 119.311 156.485C118.751 156.485 118.44 156.743 118.319 157.205L117.645 157.152C117.797 156.394 118.402 155.879 119.311 155.879C120.341 155.879 120.901 156.5 120.901 157.515V159.173C120.901 159.355 120.962 159.423 121.113 159.423H121.272V159.983C121.227 159.991 121.128 159.999 121.03 159.999C120.545 159.999 120.326 159.809 120.273 159.363C120.076 159.779 119.523 160.074 118.932 160.074ZM118.993 159.514C119.796 159.514 120.265 158.999 120.265 158.333V158.045L118.963 158.287C118.417 158.386 118.243 158.59 118.243 158.923C118.243 159.302 118.523 159.514 118.993 159.514ZM121.99 159.983V155.97H122.551L122.573 156.712C122.717 156.205 123.035 155.97 123.527 155.97H123.921V156.576H123.535C122.929 156.576 122.626 156.902 122.626 157.56V159.983H121.99ZM126.124 160.074C124.988 160.074 124.284 159.249 124.284 157.977C124.284 156.705 124.988 155.879 126.093 155.879C127.138 155.879 127.865 156.637 127.865 157.984V158.174H124.95C124.995 159.037 125.427 159.469 126.124 159.469C126.646 159.469 126.987 159.203 127.123 158.795L127.805 158.848C127.593 159.567 126.972 160.074 126.124 160.074ZM124.95 157.613H127.169C127.108 156.841 126.684 156.485 126.093 156.485C125.472 156.485 125.056 156.871 124.95 157.613Z" fill="#64748B"/>
<path d="M54.0769 175.769C54.0769 174.634 54.5236 173.884 56.1364 173.028C56.8785 172.635 57.1738 172.392 57.1738 171.847C57.1738 171.294 56.8103 170.908 56.0986 170.908C55.3414 170.908 54.9022 171.317 54.7886 172.044L54.1072 171.999C54.2283 170.946 54.9325 170.272 56.0986 170.272C57.204 170.272 57.8552 170.908 57.8552 171.832C57.8552 172.65 57.4918 173.059 56.3787 173.649C55.4095 174.164 54.9098 174.724 54.8795 175.133H57.8552V175.769H54.0769ZM60.4913 175.89C59.5978 175.89 59.0299 175.398 58.8331 174.732L59.5221 174.679C59.6432 175.042 59.9613 175.254 60.4913 175.254C61.309 175.254 61.7936 174.679 61.8769 173.346C61.5892 173.801 61.1197 174.058 60.5519 174.058C59.5069 174.058 58.7649 173.301 58.7649 172.18C58.7649 171.007 59.5524 170.272 60.6352 170.272C61.9829 170.272 62.5735 171.256 62.5735 172.763C62.5735 174.565 62.0587 175.89 60.4913 175.89ZM60.5973 173.414C61.3318 173.414 61.8542 172.968 61.8542 172.195C61.8542 171.453 61.3923 170.908 60.6352 170.908C59.8931 170.908 59.4464 171.438 59.4464 172.18C59.4464 172.937 59.9158 173.414 60.5973 173.414ZM63.1093 176.602L65.3429 170.09H65.9487L63.715 176.602H63.1093ZM67.8679 175.769V171.786H66.7473V171.226H67.2016C67.7922 171.226 68.0042 171.029 68.0042 170.393H68.5191V175.769H67.8679ZM70.4707 175.769V171.786H69.3501V171.226H69.8044C70.395 171.226 70.607 171.029 70.607 170.393H71.1219V175.769H70.4707ZM72.1822 176.602L74.4158 170.09H75.0216L72.7879 176.602H72.1822ZM75.9716 175.769C75.9716 174.634 76.4184 173.884 78.0312 173.028C78.7732 172.635 79.0685 172.392 79.0685 171.847C79.0685 171.294 78.7051 170.908 77.9933 170.908C77.2361 170.908 76.797 171.317 76.6834 172.044L76.0019 171.999C76.1231 170.946 76.8272 170.272 77.9933 170.272C79.0988 170.272 79.75 170.908 79.75 171.832C79.75 172.65 79.3865 173.059 78.2735 173.649C77.3043 174.164 76.8045 174.724 76.7742 175.133H79.75V175.769H75.9716ZM82.6377 175.89C81.3353 175.89 80.51 174.808 80.51 173.089C80.51 171.362 81.3353 170.272 82.6377 170.272C83.9476 170.272 84.7729 171.355 84.7729 173.089C84.7729 174.808 83.9476 175.89 82.6377 175.89ZM82.6377 175.254C83.569 175.254 84.0915 174.475 84.0915 173.089C84.0915 171.696 83.569 170.908 82.6377 170.908C81.7139 170.908 81.1915 171.696 81.1915 173.089C81.1915 174.475 81.7139 175.254 82.6377 175.254ZM85.5326 175.769C85.5326 174.634 85.9793 173.884 87.5921 173.028C88.3341 172.635 88.6294 172.392 88.6294 171.847C88.6294 171.294 88.266 170.908 87.5542 170.908C86.7971 170.908 86.3579 171.317 86.2443 172.044L85.5628 171.999C85.684 170.946 86.3882 170.272 87.5542 170.272C88.6597 170.272 89.3109 170.908 89.3109 171.832C89.3109 172.65 88.9475 173.059 87.8344 173.649C86.8652 174.164 86.3655 174.724 86.3352 175.133H89.3109V175.769H85.5326ZM92.5346 175.769V174.603H89.8012V174.013L92.4892 170.393H93.1858V173.967H93.8521V174.603H93.1858V175.769H92.5346ZM90.5887 173.967H92.5346V171.393L90.5887 173.967Z" fill="#020617"/>
<path d="M82.2617 187.578H116.638C118.1 187.578 119.285 188.763 119.285 190.225V211.601C119.285 213.063 118.1 214.248 116.638 214.248H82.2617C80.7997 214.248 79.6143 213.063 79.6143 211.601V190.225C79.6144 188.763 80.7998 187.578 82.2617 187.578Z" fill="white"/>
<path d="M82.2617 187.578H116.638C118.1 187.578 119.285 188.763 119.285 190.225V211.601C119.285 213.063 118.1 214.248 116.638 214.248H82.2617C80.7997 214.248 79.6143 213.063 79.6143 211.601V190.225C79.6144 188.763 80.7998 187.578 82.2617 187.578Z" stroke="#E2E8F0" stroke-width="0.47324"/>
<path d="M89.7361 203.034C88.2824 203.034 87.2829 201.982 87.2829 200.233C87.2829 198.499 88.2672 197.416 89.7437 197.416C91.0764 197.416 91.7881 198.128 92.0153 199.301L91.1597 199.347C91.0158 198.612 90.5615 198.166 89.7437 198.166C88.7669 198.166 88.1309 198.953 88.1309 200.233C88.1309 201.52 88.7745 202.285 89.7361 202.285C90.6069 202.285 91.0688 201.792 91.1975 200.99L92.0531 201.035C91.8487 202.254 91.0612 203.034 89.7361 203.034ZM93.9993 203.004C93.1589 203.004 92.6213 202.603 92.6213 201.906C92.6213 201.217 93.0226 200.846 93.9085 200.672L95.2941 200.407C95.2941 199.786 94.9988 199.475 94.4234 199.475C93.9085 199.475 93.6207 199.71 93.5147 200.149L92.6894 200.096C92.8408 199.294 93.4693 198.794 94.4234 198.794C95.5137 198.794 96.0967 199.407 96.0967 200.452V202.02C96.0967 202.216 96.1573 202.277 96.3087 202.277H96.4526V202.913C96.3996 202.928 96.2785 202.936 96.1573 202.936C95.6954 202.936 95.4228 202.762 95.3623 202.292C95.1578 202.716 94.6278 203.004 93.9993 203.004ZM94.1281 202.368C94.8549 202.368 95.2941 201.914 95.2941 201.27V201.013L94.1129 201.24C93.6283 201.331 93.4542 201.52 93.4542 201.83C93.4542 202.179 93.6965 202.368 94.1281 202.368ZM97.1303 202.913V198.885H97.8648L97.8799 199.589C98.0919 199.036 98.5538 198.794 99.1065 198.794C100.008 198.794 100.469 199.445 100.469 200.324V202.913H99.6669V200.566C99.6669 199.854 99.4473 199.468 98.887 199.468C98.3191 199.468 97.9329 199.854 97.9329 200.566V202.913H97.1303ZM103.173 203.004C102.015 203.004 101.265 202.171 101.265 200.899C101.265 199.627 102.015 198.794 103.173 198.794C104.15 198.794 104.839 199.324 104.975 200.255L104.135 200.301C104.052 199.778 103.681 199.491 103.173 199.491C102.492 199.491 102.098 200.013 102.098 200.899C102.098 201.785 102.492 202.307 103.173 202.307C103.688 202.307 104.059 202.02 104.135 201.437L104.975 201.482C104.847 202.406 104.158 203.004 103.173 203.004ZM107.366 203.004C106.192 203.004 105.458 202.171 105.458 200.899C105.458 199.627 106.192 198.794 107.343 198.794C108.441 198.794 109.183 199.574 109.183 200.929V201.134H106.291C106.329 201.921 106.73 202.315 107.374 202.315C107.843 202.315 108.161 202.08 108.29 201.702L109.123 201.755C108.911 202.504 108.252 203.004 107.366 203.004ZM106.291 200.528H108.335C108.282 199.816 107.888 199.475 107.343 199.475C106.768 199.475 106.382 199.846 106.291 200.528ZM110.912 202.913C110.382 202.913 110.033 202.656 110.033 202.057V197.537H110.836V201.982C110.836 202.171 110.935 202.254 111.116 202.254H111.434V202.913H110.912Z" fill="#3B82F6"/>
<path d="M123.307 190.225C123.307 188.632 124.598 187.341 126.191 187.341H177.567C179.16 187.341 180.451 188.632 180.451 190.225V211.601C180.451 213.194 179.16 214.485 177.567 214.485H126.191C124.598 214.485 123.307 213.194 123.307 211.601V190.225Z" fill="#3B82F6"/>
<path d="M132.969 202.913L131.03 197.537H131.901L133.484 202.004L135.066 197.537H135.937L133.991 202.913H132.969ZM137.985 203.004C136.812 203.004 136.077 202.171 136.077 200.899C136.077 199.627 136.812 198.794 137.963 198.794C139.061 198.794 139.803 199.574 139.803 200.929V201.134H136.91C136.948 201.921 137.349 202.315 137.993 202.315C138.462 202.315 138.78 202.08 138.909 201.702L139.742 201.755C139.53 202.504 138.871 203.004 137.985 203.004ZM136.91 200.528H138.955C138.902 199.816 138.508 199.475 137.963 199.475C137.387 199.475 137.001 199.846 136.91 200.528ZM140.369 202.913V202.194L142.799 199.544H140.444V198.885H143.723V199.604L141.27 202.254H143.784V202.913H140.369ZM144.675 198.302V197.499H145.508V198.302H144.675ZM144.69 202.913V198.885H145.493V202.913H144.69ZM150.127 203.004C148.968 203.004 148.219 202.171 148.219 200.899C148.219 199.627 148.968 198.794 150.127 198.794C151.104 198.794 151.793 199.324 151.929 200.255L151.089 200.301C151.005 199.778 150.634 199.491 150.127 199.491C149.445 199.491 149.052 200.013 149.052 200.899C149.052 201.785 149.445 202.307 150.127 202.307C150.642 202.307 151.013 202.02 151.089 201.437L151.929 201.482C151.8 202.406 151.111 203.004 150.127 203.004ZM153.577 202.913C153.047 202.913 152.698 202.656 152.698 202.057V197.537H153.501V201.982C153.501 202.171 153.599 202.254 153.781 202.254H154.099V202.913H153.577ZM156.41 198.378C155.767 198.378 155.343 197.991 155.312 197.355H155.82C155.865 197.704 156.077 197.855 156.41 197.855C156.743 197.855 156.956 197.704 156.993 197.355H157.508C157.478 197.991 157.062 198.378 156.41 198.378ZM155.956 203.004C155.116 203.004 154.578 202.603 154.578 201.906C154.578 201.217 154.979 200.846 155.865 200.672L157.251 200.407C157.251 199.786 156.956 199.475 156.38 199.475C155.865 199.475 155.577 199.71 155.471 200.149L154.646 200.096C154.798 199.294 155.426 198.794 156.38 198.794C157.47 198.794 158.053 199.407 158.053 200.452V202.02C158.053 202.216 158.114 202.277 158.265 202.277H158.409V202.913C158.356 202.928 158.235 202.936 158.114 202.936C157.652 202.936 157.38 202.762 157.319 202.292C157.115 202.716 156.584 203.004 155.956 203.004ZM156.085 202.368C156.812 202.368 157.251 201.914 157.251 201.27V201.013L156.07 201.24C155.585 201.331 155.411 201.52 155.411 201.83C155.411 202.179 155.653 202.368 156.085 202.368ZM160.488 203.004C159.451 203.004 158.808 202.194 158.808 200.899C158.808 199.612 159.459 198.794 160.488 198.794C161.041 198.794 161.503 199.036 161.723 199.453V197.537H162.525V202.913H161.776L161.753 202.307C161.526 202.747 161.049 203.004 160.488 203.004ZM160.7 202.307C161.359 202.307 161.723 201.785 161.723 200.899C161.723 200.005 161.359 199.491 160.7 199.491C160.057 199.491 159.64 200.021 159.64 200.899C159.64 201.762 160.057 202.307 160.7 202.307ZM163.516 198.302V197.499H164.349V198.302H163.516ZM163.531 202.913V198.885H164.334V202.913H163.531ZM165.535 202.913V198.885H166.269L166.292 199.65C166.444 199.12 166.762 198.885 167.254 198.885H167.64V199.604H167.254C166.64 199.604 166.337 199.899 166.337 200.536V202.913H165.535ZM169.87 203.004C168.696 203.004 167.962 202.171 167.962 200.899C167.962 199.627 168.696 198.794 169.847 198.794C170.945 198.794 171.687 199.574 171.687 200.929V201.134H168.795C168.833 201.921 169.234 202.315 169.877 202.315C170.347 202.315 170.665 202.08 170.794 201.702L171.627 201.755C171.415 202.504 170.756 203.004 169.87 203.004ZM168.795 200.528H170.839C170.786 199.816 170.392 199.475 169.847 199.475C169.272 199.475 168.886 199.846 168.795 200.528Z" fill="#F8FAFC"/>
<path fill-rule="evenodd" clip-rule="evenodd" d="M191.837 35.4173L194.514 32.7402L191.837 30.0632L191.503 30.3978L193.845 32.7402L191.503 35.0827L191.837 35.4173Z" fill="#D9D9D9"/>
<path d="M189.16 167.74L191.837 165.063L194.514 167.74L191.837 170.417L189.16 167.74Z" fill="white"/>
</g>
<defs>
<filter id="filter0_d_6852_17199" x="0.191406" y="0.980469" width="218.323" height="247.569" filterUnits="userSpaceOnUse" color-interpolation-filters="sRGB">
<feFlood flood-opacity="0" result="BackgroundImageFix"/>
<feColorMatrix in="SourceAlpha" type="matrix" values="0 0 0 0 0 0 0 0 0 0 0 0 0 0 0 0 0 0 127 0" result="hardAlpha"/>
<feOffset dx="8" dy="8"/>
<feGaussianBlur stdDeviation="8"/>
<feComposite in2="hardAlpha" operator="out"/>
<feColorMatrix type="matrix" values="0 0 0 0 0.0970139 0 0 0 0 0.127226 0 0 0 0 0.183333 0 0 0 0.25 0"/>
<feBlend mode="normal" in2="BackgroundImageFix" result="effect1_dropShadow_6852_17199"/>
<feBlend mode="normal" in="SourceGraphic" in2="effect1_dropShadow_6852_17199" result="shape"/>
</filter>
<clipPath id="clip0_6852_17199">
<rect width="11.3578" height="11.3578" fill="white" transform="translate(30.9072 160.198)"/>
</clipPath>
</defs>
</svg>
