<svg width="185" height="32" viewBox="0 0 185 32" fill="none" xmlns="http://www.w3.org/2000/svg">
<path d="M5.03809 0.468018H179.707C181.915 0.46819 183.705 2.2582 183.705 4.46606V27.5286C183.705 29.7365 181.915 31.5264 179.707 31.5266H5.03809C2.83015 31.5264 1.04011 29.7365 1.04004 27.5286V4.46606C1.04021 2.2582 2.83022 0.468189 5.03809 0.468018Z" fill="white"/>
<path d="M5.03809 0.468018H179.707C181.915 0.46819 183.705 2.2582 183.705 4.46606V27.5286C183.705 29.7365 181.915 31.5264 179.707 31.5266H5.03809C2.83015 31.5264 1.04011 29.7365 1.04004 27.5286V4.46606C1.04021 2.2582 2.83022 0.468189 5.03809 0.468018Z" stroke="#E2E8F0" stroke-width="0.654712"/>
<path d="M12.4243 20.165C11.7539 20.165 11.1637 20.0114 10.6539 19.7041C10.1441 19.3899 9.74607 18.9429 9.45974 18.3633C9.17342 17.7836 9.03025 17.0923 9.03025 16.2891C9.03025 15.493 9.16993 14.8051 9.44927 14.2255C9.7356 13.6389 10.1337 13.1884 10.6435 12.8742C11.1533 12.5529 11.7504 12.3923 12.4348 12.3923C13.3566 12.3923 14.0724 12.6228 14.5822 13.0837C15.092 13.5446 15.4237 14.1836 15.5774 15.0007L14.3937 15.0635C14.2959 14.5537 14.0864 14.1557 13.7651 13.8693C13.4439 13.576 13.0004 13.4294 12.4348 13.4294C11.9808 13.4294 11.5862 13.5446 11.251 13.7751C10.9228 14.0055 10.6644 14.3337 10.4759 14.7597C10.2943 15.1857 10.2035 15.6955 10.2035 16.2891C10.2035 16.8828 10.2943 17.3926 10.4759 17.8186C10.6644 18.2446 10.9263 18.5693 11.2615 18.7928C11.5967 19.0162 11.9843 19.128 12.4243 19.128C13.0249 19.128 13.4893 18.9708 13.8175 18.6566C14.1527 18.3353 14.3622 17.8954 14.446 17.3367L15.6297 17.3995C15.539 17.9652 15.3574 18.4541 15.085 18.8661C14.8127 19.2781 14.453 19.5994 14.0061 19.8298C13.5591 20.0533 13.0319 20.165 12.4243 20.165ZM18.3223 20.1231C17.7426 20.1231 17.2782 19.9905 16.929 19.7251C16.5868 19.4597 16.4157 19.0861 16.4157 18.6042C16.4157 18.1223 16.5589 17.7487 16.8452 17.4833C17.1385 17.211 17.589 17.0154 18.1965 16.8967L20.1135 16.5301C20.1135 16.0971 20.0123 15.7759 19.8098 15.5663C19.6072 15.3499 19.3069 15.2416 18.9089 15.2416C18.5527 15.2416 18.2734 15.3219 18.0708 15.4825C17.8683 15.6362 17.7286 15.8666 17.6518 16.1739L16.51 16.1006C16.6148 15.5419 16.8732 15.1019 17.2852 14.7807C17.7042 14.4594 18.2454 14.2988 18.9089 14.2988C19.6631 14.2988 20.2358 14.5013 20.6268 14.9064C21.0249 15.3045 21.2239 15.8666 21.2239 16.5929V18.7613C21.2239 18.894 21.2449 18.9883 21.2868 19.0442C21.3357 19.0931 21.4125 19.1175 21.5172 19.1175H21.7163V19.9974C21.6814 20.0044 21.6255 20.0114 21.5487 20.0184C21.4719 20.0254 21.3915 20.0289 21.3077 20.0289C21.0703 20.0289 20.8643 19.9905 20.6897 19.9136C20.5221 19.8368 20.3964 19.7111 20.3126 19.5365C20.2288 19.3549 20.1869 19.114 20.1869 18.8137L20.3021 18.8661C20.2462 19.1105 20.124 19.327 19.9355 19.5156C19.7539 19.7041 19.5199 19.8543 19.2336 19.966C18.9543 20.0708 18.6505 20.1231 18.3223 20.1231ZM18.5003 19.2432C18.8355 19.2432 19.1219 19.1804 19.3593 19.0547C19.5968 18.922 19.7818 18.7404 19.9145 18.5099C20.0472 18.2795 20.1135 18.0176 20.1135 17.7243V17.3681L18.4794 17.6824C18.1442 17.7452 17.9067 17.8465 17.7671 17.9862C17.6344 18.1188 17.568 18.2899 17.568 18.4995C17.568 18.7369 17.6483 18.922 17.809 19.0547C17.9766 19.1804 18.207 19.2432 18.5003 19.2432ZM24.4256 20.1231C23.867 20.1231 23.42 19.9381 23.0848 19.5679C22.7566 19.1908 22.5924 18.6706 22.5924 18.0071V14.4245H23.7028V17.7243C23.7028 18.2271 23.7901 18.5972 23.9647 18.8347C24.1393 19.0721 24.4047 19.1908 24.7609 19.1908C25.1659 19.1908 25.4802 19.0616 25.7036 18.8032C25.9341 18.5379 26.0493 18.1677 26.0493 17.6929V14.4245H27.1597V19.9974H26.1227L26.1017 18.5414L26.2588 18.6042C26.1611 19.0931 25.955 19.4702 25.6408 19.7356C25.3265 19.9939 24.9215 20.1231 24.4256 20.1231ZM30.5911 19.9974C30.0604 19.9974 29.6693 19.8752 29.4179 19.6308C29.1665 19.3864 29.0408 19.0058 29.0408 18.489V13.1151H30.1512V18.4052C30.1512 18.6636 30.207 18.8417 30.3188 18.9394C30.4305 19.0372 30.6016 19.0861 30.8321 19.0861H31.6282V19.9974H30.5911ZM28.1923 15.3359V14.4245H31.6282V15.3359H28.1923ZM34.2195 20.1231C33.6398 20.1231 33.1754 19.9905 32.8262 19.7251C32.4841 19.4597 32.313 19.0861 32.313 18.6042C32.313 18.1223 32.4561 17.7487 32.7424 17.4833C33.0358 17.211 33.4862 17.0154 34.0938 16.8967L36.0108 16.5301C36.0108 16.0971 35.9095 15.7759 35.707 15.5663C35.5045 15.3499 35.2042 15.2416 34.8061 15.2416C34.4499 15.2416 34.1706 15.3219 33.9681 15.4825C33.7655 15.6362 33.6259 15.8666 33.5491 16.1739L32.4072 16.1006C32.512 15.5419 32.7704 15.1019 33.1824 14.7807C33.6014 14.4594 34.1427 14.2988 34.8061 14.2988C35.5603 14.2988 36.133 14.5013 36.5241 14.9064C36.9221 15.3045 37.1212 15.8666 37.1212 16.5929V18.7613C37.1212 18.894 37.1421 18.9883 37.184 19.0442C37.2329 19.0931 37.3097 19.1175 37.4145 19.1175H37.6135V19.9974C37.5786 20.0044 37.5227 20.0114 37.4459 20.0184C37.3691 20.0254 37.2888 20.0289 37.205 20.0289C36.9675 20.0289 36.7615 19.9905 36.5869 19.9136C36.4193 19.8368 36.2936 19.7111 36.2098 19.5365C36.126 19.3549 36.0841 19.114 36.0841 18.8137L36.1993 18.8661C36.1435 19.1105 36.0212 19.327 35.8327 19.5156C35.6511 19.7041 35.4172 19.8543 35.1308 19.966C34.8515 20.0708 34.5477 20.1231 34.2195 20.1231ZM34.3976 19.2432C34.7328 19.2432 35.0191 19.1804 35.2565 19.0547C35.494 18.922 35.679 18.7404 35.8117 18.5099C35.9444 18.2795 36.0108 18.0176 36.0108 17.7243V17.3681L34.3766 17.6824C34.0414 17.7452 33.804 17.8465 33.6643 17.9862C33.5316 18.1188 33.4652 18.2899 33.4652 18.4995C33.4652 18.7369 33.5456 18.922 33.7062 19.0547C33.8738 19.1804 34.1042 19.2432 34.3976 19.2432ZM34.848 13.7227C34.401 13.7227 34.0414 13.597 33.769 13.3456C33.4967 13.0872 33.35 12.7415 33.3291 12.3085H34.0309C34.0658 12.5459 34.1531 12.7205 34.2928 12.8323C34.4395 12.944 34.6245 12.9999 34.848 12.9999C35.0854 12.9999 35.274 12.944 35.4137 12.8323C35.5533 12.7205 35.6337 12.5459 35.6546 12.3085H36.3669C36.346 12.7415 36.1993 13.0872 35.927 13.3456C35.6616 13.597 35.3019 13.7227 34.848 13.7227ZM38.4406 19.9974V18.6775H39.792V19.9974H38.4406ZM40.6708 19.9974V18.6775H42.0221V19.9974H40.6708ZM42.9009 19.9974V18.6775H44.2522V19.9974H42.9009Z" fill="#64748B"/>
</svg>
