<svg width="127" height="22" viewBox="0 0 127 22" fill="none" xmlns="http://www.w3.org/2000/svg">
<g clip-path="url(#clip0_6852_17184)">
<rect x="0.712891" y="0.472778" width="38.7131" height="20.9508" rx="5.2377" fill="#3B82F6"/>
<path d="M8.78932 12.9481V12.2567L11.7748 8.02992H8.89145V7.36997H12.5447V8.06135L9.55926 12.2882H12.6233V12.9481H8.78932ZM14.8445 13.0424C13.6896 13.0424 12.9354 12.1939 12.9354 10.8661C12.9354 9.53838 13.6896 8.68987 14.8445 8.68987C15.9916 8.68987 16.7458 9.53838 16.7458 10.8661C16.7458 12.1939 15.9916 13.0424 14.8445 13.0424ZM14.8445 12.4139C15.6066 12.4139 16.0544 11.8325 16.0544 10.8661C16.0544 9.89978 15.6066 9.3184 14.8445 9.3184C14.0746 9.3184 13.6267 9.89978 13.6267 10.8661C13.6267 11.8325 14.0746 12.4139 14.8445 12.4139ZM17.6452 12.9481V8.78415H18.2501L18.2658 9.53052C18.4858 8.957 18.9729 8.68987 19.5465 8.68987C20.4971 8.68987 20.9528 9.38911 20.9528 10.269V12.9481H20.2928V10.4576C20.2928 9.68765 20.0336 9.27126 19.405 9.27126C18.7608 9.27126 18.3051 9.68765 18.3051 10.4576V12.9481H17.6452ZM23.257 13.0424C22.3928 13.0424 21.8507 12.626 21.8507 11.9111C21.8507 11.204 22.2514 10.8111 23.1627 10.6383L24.6398 10.3633C24.6398 9.66409 24.3098 9.3184 23.6498 9.3184C23.0685 9.3184 22.7463 9.58552 22.6206 10.0648L21.9214 10.0098C22.0785 9.22412 22.7071 8.68987 23.6498 8.68987C24.7183 8.68987 25.2997 9.33411 25.2997 10.3869V12.1075C25.2997 12.296 25.3626 12.3667 25.5197 12.3667H25.6847V12.9481C25.6376 12.956 25.5354 12.9638 25.4333 12.9638C24.9305 12.9638 24.7026 12.7674 24.6476 12.3039C24.4434 12.736 23.8698 13.0424 23.257 13.0424ZM23.3199 12.461C24.1527 12.461 24.6398 11.9268 24.6398 11.2354V10.9368L23.2884 11.1883C22.7228 11.2904 22.5421 11.5025 22.5421 11.8482C22.5421 12.241 22.8328 12.461 23.3199 12.461ZM29.2734 12.9481V8.81558H28.1106V8.23419H28.582C29.1948 8.23419 29.4148 8.02992 29.4148 7.36997H29.9491V12.9481H29.2734Z" fill="white"/>
</g>
<rect x="1.04025" y="0.800134" width="38.0584" height="20.2961" rx="4.91034" stroke="#E2E8F0" stroke-width="0.654712"/>
<g clip-path="url(#clip1_6852_17184)">
<path d="M50.1214 12.9481V12.2567L53.1068 8.02992H50.2235V7.36997H53.8768V8.06135L50.8913 12.2882H53.9553V12.9481H50.1214ZM56.1765 13.0424C55.0216 13.0424 54.2674 12.1939 54.2674 10.8661C54.2674 9.53838 55.0216 8.68987 56.1765 8.68987C57.3236 8.68987 58.0778 9.53838 58.0778 10.8661C58.0778 12.1939 57.3236 13.0424 56.1765 13.0424ZM56.1765 12.4139C56.9386 12.4139 57.3864 11.8325 57.3864 10.8661C57.3864 9.89978 56.9386 9.3184 56.1765 9.3184C55.4066 9.3184 54.9588 9.89978 54.9588 10.8661C54.9588 11.8325 55.4066 12.4139 56.1765 12.4139ZM58.9772 12.9481V8.78415H59.5822L59.5979 9.53052C59.8179 8.957 60.305 8.68987 60.8785 8.68987C61.8291 8.68987 62.2848 9.38911 62.2848 10.269V12.9481H61.6249V10.4576C61.6249 9.68765 61.3656 9.27126 60.7371 9.27126C60.0928 9.27126 59.6372 9.68765 59.6372 10.4576V12.9481H58.9772ZM64.5891 13.0424C63.7248 13.0424 63.1827 12.626 63.1827 11.9111C63.1827 11.204 63.5834 10.8111 64.4948 10.6383L65.9718 10.3633C65.9718 9.66409 65.6418 9.3184 64.9819 9.3184C64.4005 9.3184 64.0784 9.58552 63.9527 10.0648L63.2534 10.0098C63.4106 9.22412 64.0391 8.68987 64.9819 8.68987C66.0504 8.68987 66.6318 9.33411 66.6318 10.3869V12.1075C66.6318 12.296 66.6946 12.3667 66.8517 12.3667H67.0167V12.9481C66.9696 12.956 66.8674 12.9638 66.7653 12.9638C66.2625 12.9638 66.0347 12.7674 65.9797 12.3039C65.7754 12.736 65.2019 13.0424 64.5891 13.0424ZM64.6519 12.461C65.4847 12.461 65.9718 11.9268 65.9718 11.2354V10.9368L64.6205 11.1883C64.0548 11.2904 63.8741 11.5025 63.8741 11.8482C63.8741 12.241 64.1648 12.461 64.6519 12.461ZM69.5998 12.9481C69.5998 11.7696 70.0633 10.9918 71.7368 10.1041C72.5067 9.69551 72.8131 9.4441 72.8131 8.87843C72.8131 8.3049 72.436 7.90422 71.6975 7.90422C70.9118 7.90422 70.4562 8.32847 70.3383 9.0827L69.6312 9.03556C69.7569 7.9435 70.4876 7.24427 71.6975 7.24427C72.8446 7.24427 73.5202 7.90422 73.5202 8.86272C73.5202 9.71122 73.1431 10.1355 71.9882 10.7483C70.9826 11.2825 70.464 11.8639 70.4326 12.2882H73.5202V12.9481H69.5998Z" fill="#64748B"/>
</g>
<rect x="42.3723" y="0.800134" width="40.0584" height="20.2961" rx="4.91034" stroke="#E2E8F0" stroke-width="0.654712"/>
<g clip-path="url(#clip2_6852_17184)">
<path d="M93.4534 12.9481V12.2567L96.4389 8.02992H93.5555V7.36997H97.2088V8.06135L94.2233 12.2882H97.2874V12.9481H93.4534ZM99.5086 13.0424C98.3537 13.0424 97.5994 12.1939 97.5994 10.8661C97.5994 9.53838 98.3537 8.68987 99.5086 8.68987C100.656 8.68987 101.41 9.53838 101.41 10.8661C101.41 12.1939 100.656 13.0424 99.5086 13.0424ZM99.5086 12.4139C100.271 12.4139 100.718 11.8325 100.718 10.8661C100.718 9.89978 100.271 9.3184 99.5086 9.3184C98.7386 9.3184 98.2908 9.89978 98.2908 10.8661C98.2908 11.8325 98.7386 12.4139 99.5086 12.4139ZM102.309 12.9481V8.78415H102.914L102.93 9.53052C103.15 8.957 103.637 8.68987 104.211 8.68987C105.161 8.68987 105.617 9.38911 105.617 10.269V12.9481H104.957V10.4576C104.957 9.68765 104.698 9.27126 104.069 9.27126C103.425 9.27126 102.969 9.68765 102.969 10.4576V12.9481H102.309ZM107.921 13.0424C107.057 13.0424 106.515 12.626 106.515 11.9111C106.515 11.204 106.915 10.8111 107.827 10.6383L109.304 10.3633C109.304 9.66409 108.974 9.3184 108.314 9.3184C107.733 9.3184 107.41 9.58552 107.285 10.0648L106.585 10.0098C106.743 9.22412 107.371 8.68987 108.314 8.68987C109.382 8.68987 109.964 9.33411 109.964 10.3869V12.1075C109.964 12.296 110.027 12.3667 110.184 12.3667H110.349V12.9481C110.302 12.956 110.199 12.9638 110.097 12.9638C109.595 12.9638 109.367 12.7674 109.312 12.3039C109.107 12.736 108.534 13.0424 107.921 13.0424ZM107.984 12.461C108.817 12.461 109.304 11.9268 109.304 11.2354V10.9368L107.953 11.1883C107.387 11.2904 107.206 11.5025 107.206 11.8482C107.206 12.241 107.497 12.461 107.984 12.461ZM114.825 13.0738C113.584 13.0738 112.9 12.4296 112.853 11.5104L113.553 11.4632C113.615 12.1468 114.126 12.4139 114.825 12.4139C115.548 12.4139 116.177 12.1468 116.177 11.3925C116.177 10.654 115.634 10.3162 114.833 10.3162H114.393V9.65623H114.833C115.493 9.65623 115.98 9.42053 115.98 8.78415C115.98 8.21062 115.603 7.90422 114.865 7.90422C114.126 7.90422 113.772 8.20277 113.702 8.69773L112.995 8.65059C113.097 7.8178 113.749 7.24427 114.865 7.24427C115.996 7.24427 116.687 7.82565 116.687 8.75273C116.687 9.34982 116.357 9.75051 115.721 9.94692C116.444 10.1433 116.884 10.6776 116.884 11.3925C116.884 12.461 116.035 13.0738 114.825 13.0738Z" fill="#64748B"/>
</g>
<rect x="85.7043" y="0.800134" width="40.0584" height="20.2961" rx="4.91034" stroke="#E2E8F0" stroke-width="0.654712"/>
<defs>
<clipPath id="clip0_6852_17184">
<rect x="0.712891" y="0.472778" width="38.7131" height="20.9508" rx="5.2377" fill="white"/>
</clipPath>
<clipPath id="clip1_6852_17184">
<rect x="42.0449" y="0.472778" width="40.7131" height="20.9508" rx="5.2377" fill="white"/>
</clipPath>
<clipPath id="clip2_6852_17184">
<rect x="85.377" y="0.472778" width="40.7131" height="20.9508" rx="5.2377" fill="white"/>
</clipPath>
</defs>
</svg>
