<svg width="312" height="144" viewBox="0 0 312 144" fill="none" xmlns="http://www.w3.org/2000/svg">
<g filter="url(#filter0_d_6852_17237)">
<rect x="8" y="8" width="280" height="112" rx="12" fill="white" shape-rendering="crispEdges"/>
<path d="M30 25H90C92.7614 25 95 27.2386 95 30V98C95 100.761 92.7614 103 90 103H30C27.2386 103 25 100.761 25 98V30C25 27.2386 27.2386 25 30 25Z" fill="white"/>
<path d="M30 25H90C92.7614 25 95 27.2386 95 30V98C95 100.761 92.7614 103 90 103H30C27.2386 103 25 100.761 25 98V30C25 27.2386 27.2386 25 30 25Z" stroke="#3B82F6" stroke-width="2"/>
<path d="M51 55.9999V47.9999C51.0004 47.6492 51.0929 47.3047 51.2685 47.0011C51.444 46.6974 51.6963 46.4453 52 46.2699L59 42.2699C59.304 42.0944 59.6489 42.002 60 42.002C60.3511 42.002 60.696 42.0944 61 42.2699L64.5595 44.3039M51.3 47L57.39 50.5M68.7001 47L62 50.8506M60 62L60 52.8361M50 59L69.5 42.002M67 46L68 46.2699C68.3037 46.4453 68.556 46.6974 68.7315 47.0011C68.9071 47.3047 68.9996 47.6492 69 47.9999V55.9999C68.9996 56.3506 68.9071 56.6951 68.7315 56.9987C68.556 57.3024 68.3037 57.5545 68 57.7299L61 61.7299C60.696 61.9054 60.3511 61.9979 60 61.9979C59.6489 61.9979 59.304 61.9054 59 61.7299L53.5 58.587" stroke="#020617" stroke-linecap="round" stroke-linejoin="round"/>
<path d="M59.892 86.256C57.06 86.256 55.284 83.984 55.284 80.336C55.284 76.688 57.06 74.384 59.892 74.384C62.74 74.384 64.516 76.672 64.516 80.336C64.516 83.968 62.74 86.256 59.892 86.256ZM59.892 84.672C61.716 84.672 62.724 83.136 62.724 80.336C62.724 77.52 61.716 75.968 59.892 75.968C58.084 75.968 57.076 77.52 57.076 80.336C57.076 83.136 58.084 84.672 59.892 84.672Z" fill="#020617"/>
<path d="M118 24.5H178C181.038 24.5 183.5 26.9624 183.5 30V98C183.5 101.038 181.038 103.5 178 103.5H118C114.962 103.5 112.5 101.038 112.5 98V30C112.5 26.9624 114.962 24.5 118 24.5Z" fill="white"/>
<path d="M118 24.5H178C181.038 24.5 183.5 26.9624 183.5 30V98C183.5 101.038 181.038 103.5 178 103.5H118C114.962 103.5 112.5 101.038 112.5 98V30C112.5 26.9624 114.962 24.5 118 24.5Z" stroke="#E2E8F0"/>
<path d="M139.3 47L148 52M148 52L156.7 47M148 52L148 62M157 47.9999C157 47.6492 156.907 47.3047 156.732 47.0011C156.556 46.6974 156.304 46.4453 156 46.2699L149 42.2699C148.696 42.0944 148.351 42.002 148 42.002C147.649 42.002 147.304 42.0944 147 42.2699L140 46.2699C139.696 46.4453 139.444 46.6974 139.268 47.0011C139.093 47.3047 139 47.6492 139 47.9999V55.9999C139 56.3506 139.093 56.6951 139.268 56.9987C139.444 57.3024 139.696 57.5545 140 57.7299L147 61.7299C147.304 61.9054 147.649 61.9979 148 61.9979C148.351 61.9979 148.696 61.9054 149 61.7299L156 57.7299C156.304 57.5545 156.556 57.3024 156.732 56.9987C156.907 56.6951 157 56.3506 157 55.9999V47.9999Z" stroke="#020617" stroke-linecap="round" stroke-linejoin="round"/>
<path d="M147.524 86V77.904H145.124V76.512H146.1C147.396 76.512 147.892 76.064 147.892 74.64H149.252V86H147.524Z" fill="#020617"/>
<path d="M206 24.5H266C269.038 24.5 271.5 26.9624 271.5 30V98C271.5 101.038 269.038 103.5 266 103.5H206C202.962 103.5 200.5 101.038 200.5 98V30C200.5 26.9624 202.962 24.5 206 24.5Z" fill="white"/>
<path d="M206 24.5H266C269.038 24.5 271.5 26.9624 271.5 30V98C271.5 101.038 269.038 103.5 266 103.5H206C202.962 103.5 200.5 101.038 200.5 98V30C200.5 26.9624 202.962 24.5 206 24.5Z" stroke="#E2E8F0"/>
<path d="M225.167 48.9991L230 51.9994M230 51.9994L234.833 48.9991M230 51.9994L230 58M235 49.5991C235 49.3887 234.948 49.182 234.851 48.9998C234.753 48.8176 234.613 48.6662 234.444 48.561L230.556 46.1608C230.387 46.0555 230.195 46 230 46C229.805 46 229.613 46.0555 229.444 46.1608L225.556 48.561C225.387 48.6662 225.247 48.8176 225.149 48.9998C225.052 49.182 225 49.3887 225 49.5991V54.3996C225 54.61 225.052 54.8167 225.149 54.999C225.247 55.1812 225.387 55.3325 225.556 55.4377L229.444 57.8379C229.613 57.9433 229.805 57.9987 230 57.9987C230.195 57.9987 230.387 57.9433 230.556 57.8379L234.444 55.4377C234.613 55.3325 234.753 55.1812 234.851 54.999C234.948 54.8167 235 54.61 235 54.3996V49.5991Z" stroke="#020617" stroke-linecap="round" stroke-linejoin="round"/>
<path d="M237.167 48.9991L242 51.9994M242 51.9994L246.833 48.9991M242 51.9994L242 58M247 49.5991C247 49.3887 246.948 49.182 246.851 48.9998C246.753 48.8176 246.613 48.6662 246.444 48.561L242.556 46.1608C242.387 46.0555 242.195 46 242 46C241.805 46 241.613 46.0555 241.444 46.1608L237.556 48.561C237.387 48.6662 237.247 48.8176 237.149 48.9998C237.052 49.182 237 49.3887 237 49.5991V54.3996C237 54.61 237.052 54.8167 237.149 54.999C237.247 55.1812 237.387 55.3325 237.556 55.4377L241.444 57.8379C241.613 57.9433 241.805 57.9987 242 57.9987C242.195 57.9987 242.387 57.9433 242.556 57.8379L246.444 55.4377C246.613 55.3325 246.753 55.1812 246.851 54.999C246.948 54.8167 247 54.61 247 54.3996V49.5991Z" stroke="#020617" stroke-linecap="round" stroke-linejoin="round"/>
<path d="M231.444 86C231.444 83.424 232.436 81.84 235.7 80.112C237.252 79.296 237.844 78.816 237.844 77.76C237.844 76.704 237.156 75.968 235.796 75.968C234.34 75.968 233.508 76.768 233.284 78.224L231.492 78.112C231.732 75.824 233.268 74.384 235.796 74.384C238.212 74.384 239.636 75.744 239.636 77.728C239.636 79.472 238.852 80.304 236.564 81.52C234.596 82.576 233.604 83.648 233.54 84.416H239.636V86H231.444Z" fill="#020617"/>
</g>
<defs>
<filter id="filter0_d_6852_17237" x="0" y="0" width="312" height="144" filterUnits="userSpaceOnUse" color-interpolation-filters="sRGB">
<feFlood flood-opacity="0" result="BackgroundImageFix"/>
<feColorMatrix in="SourceAlpha" type="matrix" values="0 0 0 0 0 0 0 0 0 0 0 0 0 0 0 0 0 0 127 0" result="hardAlpha"/>
<feOffset dx="8" dy="8"/>
<feGaussianBlur stdDeviation="8"/>
<feComposite in2="hardAlpha" operator="out"/>
<feColorMatrix type="matrix" values="0 0 0 0 0.0970139 0 0 0 0 0.127226 0 0 0 0 0.183333 0 0 0 0.25 0"/>
<feBlend mode="normal" in2="BackgroundImageFix" result="effect1_dropShadow_6852_17237"/>
<feBlend mode="normal" in="SourceGraphic" in2="effect1_dropShadow_6852_17237" result="shape"/>
</filter>
</defs>
</svg>
