<svg width="246" height="235" viewBox="0 0 246 235" fill="none" xmlns="http://www.w3.org/2000/svg">
<g filter="url(#filter0_d_6852_17241)">
<rect x="8" y="8.52344" width="214" height="202.439" rx="12" fill="white" shape-rendering="crispEdges"/>
<rect x="8.32622" y="8.84966" width="213.348" height="201.787" rx="11.6738" stroke="#E2E8F0" stroke-width="0.652439" shape-rendering="crispEdges"/>
<path d="M115 42.015V38.5354M115 35.0557H115.009M123.699 38.5354C123.699 43.3398 119.804 47.2346 115 47.2346C110.196 47.2346 106.301 43.3398 106.301 38.5354C106.301 33.7309 110.196 29.8362 115 29.8362C119.804 29.8362 123.699 33.7309 123.699 38.5354Z" stroke="#3B82F6" stroke-width="1.30488" stroke-linecap="round" stroke-linejoin="round"/>
<path d="M41.5797 77.3284V66.2108H43.6153V77.3284H41.5797ZM48.9904 79.8651C46.7826 79.8651 45.5612 78.9099 45.1854 77.485L47.2523 77.344C47.4559 77.986 47.91 78.3462 48.9904 78.3462C50.2275 78.3462 50.9164 77.8138 50.9164 76.6394V75.5746C50.525 76.3889 49.5698 76.9212 48.4894 76.9212C46.4068 76.9212 44.9349 75.2928 44.9349 72.8657C44.9349 70.4699 46.3911 68.7788 48.458 68.7788C49.6637 68.7788 50.5719 69.3582 50.9791 70.2664V68.9667H52.9364V76.5924C52.9364 78.7376 51.3705 79.8651 48.9904 79.8651ZM48.9591 75.3554C50.1492 75.3554 50.9164 74.4159 50.9321 72.85C50.9477 71.2998 50.1648 70.3447 48.9591 70.3447C47.7377 70.3447 47.0175 71.3155 47.0175 72.85C47.0175 74.3846 47.7691 75.3554 48.9591 75.3554ZM54.5394 67.855V66.0699H56.622V67.855H54.5394ZM54.5707 77.3284V68.9667H56.575V77.3284H54.5707ZM61.8487 77.5163C59.3433 77.5163 57.7461 75.7938 57.7461 73.1475C57.7461 70.5169 59.3433 68.7788 61.8017 68.7788C64.1974 68.7788 65.7633 70.4386 65.7633 73.2571V73.7112H59.8287C59.8913 75.1831 60.6586 75.9191 61.8643 75.9191C62.7569 75.9191 63.3519 75.4963 63.6024 74.7604L65.6537 74.8856C65.1996 76.5141 63.7747 77.5163 61.8487 77.5163ZM59.8287 72.3646H63.6964C63.6024 71.0023 62.8665 70.3603 61.8017 70.3603C60.7212 70.3603 59.9853 71.065 59.8287 72.3646ZM66.9385 77.3284V68.9667H68.7549L68.8019 70.3916C69.256 69.2486 70.1955 68.7788 71.3073 68.7788C73.155 68.7788 74.1571 70.0785 74.1571 71.9575V77.3284H72.1528V72.5995C72.1528 71.1902 71.777 70.4073 70.6966 70.4073C69.6162 70.4073 68.9428 71.1902 68.9428 72.5995V77.3284H66.9385ZM75.7824 67.855V66.0699H77.865V67.855H75.7824ZM75.8137 77.3284V68.9667H77.818V77.3284H75.8137ZM79.4082 77.3284V75.6686L84.2467 70.5169H79.5961V68.9667H86.6112V70.6265L81.7257 75.7782H86.7208V77.3284H79.4082ZM91.447 77.5163C88.9416 77.5163 87.3444 75.7938 87.3444 73.1475C87.3444 70.5169 88.9416 68.7788 91.4 68.7788C93.7957 68.7788 95.3616 70.4386 95.3616 73.2571V73.7112H89.427C89.4896 75.1831 90.2569 75.9191 91.4626 75.9191C92.3552 75.9191 92.9502 75.4963 93.2007 74.7604L95.252 74.8856C94.7979 76.5141 93.373 77.5163 91.447 77.5163ZM89.427 72.3646H93.2947C93.2007 71.0023 92.4648 70.3603 91.4 70.3603C90.3196 70.3603 89.5836 71.065 89.427 72.3646ZM99.0863 77.5163C97.3325 77.5163 96.1738 76.6864 96.1738 75.2301C96.1738 73.7895 97.0663 73.0223 98.8983 72.6621L101.67 72.1141C101.67 70.9397 101.122 70.329 100.057 70.329C99.0863 70.329 98.5382 70.7831 98.3503 71.6287L96.3147 71.5347C96.6435 69.781 97.9902 68.7788 100.057 68.7788C102.437 68.7788 103.674 70.0315 103.674 72.255V75.2928C103.674 75.7469 103.831 75.8721 104.144 75.8721H104.41V77.3284C104.269 77.3597 103.956 77.391 103.674 77.391C102.766 77.391 102.093 77.0622 101.936 76.0444C101.513 76.9369 100.449 77.5163 99.0863 77.5163ZM99.4934 76.06C100.824 76.06 101.67 75.2145 101.67 73.9461V73.4764L99.509 73.9148C98.6165 74.0871 98.2563 74.4629 98.2563 75.0422C98.2563 75.6999 98.6948 76.06 99.4934 76.06ZM104.979 77.3284V75.6686L109.817 70.5169H105.167V68.9667H112.182V70.6265L107.296 75.7782H112.291V77.3284H104.979ZM117.059 68.0115C115.666 68.0115 114.758 67.1816 114.695 65.8037H115.901C115.995 66.524 116.402 66.8215 117.059 66.8215C117.717 66.8215 118.14 66.524 118.218 65.8037H119.424C119.361 67.1816 118.469 68.0115 117.059 68.0115ZM116.042 77.5163C114.288 77.5163 113.129 76.6864 113.129 75.2301C113.129 73.7895 114.022 73.0223 115.854 72.6621L118.625 72.1141C118.625 70.9397 118.077 70.329 117.012 70.329C116.042 70.329 115.493 70.7831 115.306 71.6287L113.27 71.5347C113.599 69.781 114.945 68.7788 117.012 68.7788C119.392 68.7788 120.629 70.0315 120.629 72.255V75.2928C120.629 75.7469 120.786 75.8721 121.099 75.8721H121.365V77.3284C121.224 77.3597 120.911 77.391 120.629 77.391C119.721 77.391 119.048 77.0622 118.891 76.0444C118.469 76.9369 117.404 77.5163 116.042 77.5163ZM116.449 76.06C117.78 76.06 118.625 75.2145 118.625 73.9461V73.4764L116.464 73.9148C115.572 74.0871 115.212 74.4629 115.212 75.0422C115.212 75.6999 115.65 76.06 116.449 76.06ZM129.248 77.5163C126.758 77.5163 125.13 75.7938 125.13 73.1475C125.13 70.5169 126.758 68.7788 129.248 68.7788C131.362 68.7788 132.896 69.9375 133.147 71.9262L131.08 72.0358C130.908 70.971 130.219 70.4073 129.248 70.4073C127.948 70.4073 127.212 71.4251 127.212 73.1475C127.212 74.8856 127.948 75.8878 129.248 75.8878C130.219 75.8878 130.923 75.3241 131.08 74.1497L133.147 74.2436C132.912 76.2479 131.393 77.5163 129.248 77.5163ZM136.703 77.5163C134.95 77.5163 133.791 76.6864 133.791 75.2301C133.791 73.7895 134.683 73.0223 136.516 72.6621L139.287 72.1141C139.287 70.9397 138.739 70.329 137.674 70.329C136.703 70.329 136.155 70.7831 135.967 71.6287L133.932 71.5347C134.261 69.781 135.607 68.7788 137.674 68.7788C140.054 68.7788 141.291 70.0315 141.291 72.255V75.2928C141.291 75.7469 141.448 75.8721 141.761 75.8721H142.027V77.3284C141.886 77.3597 141.573 77.391 141.291 77.391C140.383 77.391 139.71 77.0622 139.553 76.0444C139.131 76.9369 138.066 77.5163 136.703 77.5163ZM137.111 76.06C138.442 76.06 139.287 75.2145 139.287 73.9461V73.4764L137.126 73.9148C136.234 74.0871 135.874 74.4629 135.874 75.0422C135.874 75.6999 136.312 76.06 137.111 76.06ZM142.937 79.6771V68.9667H144.863L144.895 70.2194C145.38 69.2799 146.288 68.7788 147.4 68.7788C149.78 68.7788 150.955 70.7361 150.955 73.1475C150.955 75.559 149.765 77.5163 147.385 77.5163C146.32 77.5163 145.396 77.0152 144.942 76.1853V79.6771H142.937ZM146.915 75.8878C148.136 75.8878 148.872 74.87 148.872 73.1475C148.872 71.4251 148.136 70.4073 146.915 70.4073C145.693 70.4073 144.942 71.3311 144.942 73.1475C144.942 74.9639 145.678 75.8878 146.915 75.8878ZM155.751 77.5163C153.262 77.5163 151.633 75.7938 151.633 73.1475C151.633 70.5169 153.262 68.7788 155.751 68.7788C157.865 68.7788 159.4 69.9375 159.65 71.9262L157.583 72.0358C157.411 70.971 156.722 70.4073 155.751 70.4073C154.452 70.4073 153.716 71.4251 153.716 73.1475C153.716 74.8856 154.452 75.8878 155.751 75.8878C156.722 75.8878 157.427 75.3241 157.583 74.1497L159.65 74.2436C159.415 76.2479 157.897 77.5163 155.751 77.5163ZM163.207 77.5163C161.453 77.5163 160.294 76.6864 160.294 75.2301C160.294 73.7895 161.187 73.0223 163.019 72.6621L165.79 72.1141C165.79 70.9397 165.242 70.329 164.178 70.329C163.207 70.329 162.659 70.7831 162.471 71.6287L160.435 71.5347C160.764 69.781 162.111 68.7788 164.178 68.7788C166.558 68.7788 167.795 70.0315 167.795 72.255V75.2928C167.795 75.7469 167.951 75.8721 168.264 75.8721H168.531V77.3284C168.39 77.3597 168.077 77.391 167.795 77.391C166.886 77.391 166.213 77.0622 166.057 76.0444C165.634 76.9369 164.569 77.5163 163.207 77.5163ZM163.614 76.06C164.945 76.06 165.79 75.2145 165.79 73.9461V73.4764L163.63 73.9148C162.737 74.0871 162.377 74.4629 162.377 75.0422C162.377 75.6999 162.815 76.06 163.614 76.06ZM169.441 77.3284V68.9667H171.257L171.304 70.3916C171.758 69.2486 172.698 68.7788 173.81 68.7788C175.657 68.7788 176.659 70.0785 176.659 71.9575V77.3284H174.655V72.5995C174.655 71.1902 174.279 70.4073 173.199 70.4073C172.118 70.4073 171.445 71.1902 171.445 72.5995V77.3284H169.441ZM180.697 77.5163C178.943 77.5163 177.785 76.6864 177.785 75.2301C177.785 73.7895 178.677 73.0223 180.509 72.6621L183.281 72.1141C183.281 70.9397 182.733 70.329 181.668 70.329C180.697 70.329 180.149 70.7831 179.961 71.6287L177.926 71.5347C178.254 69.781 179.601 68.7788 181.668 68.7788C184.048 68.7788 185.285 70.0315 185.285 72.255V75.2928C185.285 75.7469 185.442 75.8721 185.755 75.8721H186.021V77.3284C185.88 77.3597 185.567 77.391 185.285 77.391C184.377 77.391 183.704 77.0622 183.547 76.0444C183.124 76.9369 182.059 77.5163 180.697 77.5163ZM181.104 76.06C182.435 76.06 183.281 75.2145 183.281 73.9461V73.4764L181.12 73.9148C180.227 74.0871 179.867 74.4629 179.867 75.0422C179.867 75.6999 180.306 76.06 181.104 76.06ZM187.134 73.8835C187.009 72.8187 186.79 70.8927 186.79 69.64V66.2108H188.825V69.64C188.825 70.8927 188.622 72.8187 188.496 73.8835H187.134ZM186.617 77.3284V75.1362H188.903V77.3284H186.617Z" fill="#020617"/>
<path d="M32.6609 99.7673V93.2821H34.9901C36.4333 93.2821 37.2828 94.0128 37.2828 95.2459C37.2828 96.4973 36.4333 97.2463 34.9901 97.2463H33.4464V99.7673H32.6609ZM33.4464 96.479H34.9901C35.9675 96.479 36.4607 96.0589 36.4607 95.2459C36.4607 94.4513 35.9675 94.0494 34.9901 94.0494H33.4464V96.479ZM40.1241 99.8769C38.754 99.8769 37.9045 98.8813 37.9045 97.3468C37.9045 95.8122 38.754 94.8166 40.0876 94.8166C41.3481 94.8166 42.225 95.73 42.225 97.3559V97.5843H38.7083C38.7632 98.6256 39.2838 99.1462 40.1241 99.1462C40.7544 99.1462 41.1654 98.8265 41.3298 98.3333L42.1519 98.3972C41.8962 99.265 41.1472 99.8769 40.1241 99.8769ZM38.7083 96.9083H41.3846C41.3116 95.9767 40.8001 95.5474 40.0876 95.5474C39.3386 95.5474 38.8362 96.0132 38.7083 96.9083ZM43.2643 99.7673V94.9262H43.9676L43.9859 95.794C44.2416 95.1272 44.808 94.8166 45.4747 94.8166C46.58 94.8166 47.1098 95.6296 47.1098 96.6526V99.7673H46.3425V96.8718C46.3425 95.9767 46.0411 95.4926 45.3103 95.4926C44.5613 95.4926 44.0316 95.9767 44.0316 96.8718V99.7673H43.2643ZM49.978 99.7673C49.1011 99.7673 48.6901 99.3837 48.6901 98.5251V95.6022H47.9776V94.9262H48.6901V93.7936H49.4574V94.9262H50.7453V95.6022H49.4574V98.5068C49.4574 98.9453 49.6492 99.0914 50.0511 99.0914H50.7453V99.7673H49.978ZM51.8275 99.7673V94.9262H52.5035L52.5309 95.8214C52.7044 95.2094 53.0881 94.9262 53.6818 94.9262H54.1568V95.657H53.6909C52.9602 95.657 52.5948 96.0497 52.5948 96.8444V99.7673H51.8275ZM56.6995 99.8769C55.7313 99.8769 55.1101 99.1919 55.1101 98.041V94.9262H55.8774V97.8309C55.8774 98.7717 56.2062 99.201 56.9004 99.201C57.6677 99.201 58.1335 98.6804 58.1335 97.8126V94.9262H58.9008V99.7673H58.1701V98.9818C57.9052 99.5572 57.3937 99.8769 56.6995 99.8769ZM63.9538 99.8769C62.949 99.8769 62.3188 99.3928 62.3188 98.5616C62.3188 97.7396 62.7846 97.2828 63.8442 97.0819L65.5614 96.7622C65.5614 95.9493 65.1777 95.5474 64.4105 95.5474C63.7346 95.5474 63.36 95.8579 63.2139 96.4151L62.401 96.3512C62.5836 95.4377 63.3144 94.8166 64.4105 94.8166C65.6527 94.8166 66.3286 95.5656 66.3286 96.7896V98.79C66.3286 99.0092 66.4017 99.0914 66.5844 99.0914H66.7762V99.7673C66.7214 99.7765 66.6027 99.7856 66.4839 99.7856C65.8993 99.7856 65.6345 99.5572 65.5705 99.0183C65.333 99.5207 64.6662 99.8769 63.9538 99.8769ZM64.0268 99.201C64.9951 99.201 65.5614 98.5799 65.5614 97.7761V97.429L63.9903 97.7213C63.3326 97.84 63.1226 98.0867 63.1226 98.4886C63.1226 98.9453 63.4605 99.201 64.0268 99.201ZM69.962 99.7673V94.9262H70.6654L70.6836 95.7757C70.9211 95.182 71.4235 94.8166 72.0446 94.8166C72.7754 94.8166 73.2869 95.182 73.497 95.8305C73.707 95.182 74.2003 94.8166 74.9127 94.8166C75.9449 94.8166 76.5112 95.4834 76.5112 96.6526V99.7673H75.744V96.817C75.744 95.9401 75.3969 95.4926 74.7301 95.4926C74.0541 95.4926 73.6157 96.0041 73.6157 96.8718V99.7673H72.8484V96.8718C72.8484 96.0132 72.5653 95.4926 71.8528 95.4926C71.1769 95.4926 70.7293 96.0132 70.7293 96.8718V99.7673H69.962ZM79.756 99.8769C78.3859 99.8769 77.5364 98.8813 77.5364 97.3468C77.5364 95.8122 78.3859 94.8166 79.7194 94.8166C80.98 94.8166 81.8568 95.73 81.8568 97.3559V97.5843H78.3402C78.395 98.6256 78.9156 99.1462 79.756 99.1462C80.3862 99.1462 80.7973 98.8265 80.9617 98.3333L81.7838 98.3972C81.528 99.265 80.779 99.8769 79.756 99.8769ZM78.3402 96.9083H81.0165C80.9434 95.9767 80.4319 95.5474 79.7194 95.5474C78.9704 95.5474 78.4681 96.0132 78.3402 96.9083ZM82.8961 99.7673V94.9262H83.5995L83.6177 95.794C83.8735 95.1272 84.4398 94.8166 85.1066 94.8166C86.2118 94.8166 86.7416 95.6296 86.7416 96.6526V99.7673H85.9743V96.8718C85.9743 95.9767 85.6729 95.4926 84.9422 95.4926C84.1932 95.4926 83.6634 95.9767 83.6634 96.8718V99.7673H82.8961ZM89.6099 99.7673C88.733 99.7673 88.322 99.3837 88.322 98.5251V95.6022H87.6095V94.9262H88.322V93.7936H89.0892V94.9262H90.3771V95.6022H89.0892V98.5068C89.0892 98.9453 89.281 99.0914 89.6829 99.0914H90.3771V99.7673H89.6099ZM88.6142 101.96L89.1166 101.074H88.7878V100.251H89.7012V101L89.144 101.96H88.6142ZM91.343 94.1681V93.273H92.1468V94.1681H91.343ZM91.3613 99.7673V94.9262H92.1285V99.7673H91.3613ZM93.6805 99.7673V94.9262H94.3838L94.4021 95.794C94.6578 95.1272 95.2242 94.8166 95.8909 94.8166C96.9962 94.8166 97.526 95.6296 97.526 96.6526V99.7673H96.7587V96.8718C96.7587 95.9767 96.4573 95.4926 95.7265 95.4926C94.9775 95.4926 94.4478 95.9767 94.4478 96.8718V99.7673H93.6805ZM100.772 99.8769C99.4015 99.8769 98.5521 98.8813 98.5521 97.3468C98.5521 95.8122 99.4015 94.8166 100.735 94.8166C101.996 94.8166 102.873 95.73 102.873 97.3559V97.5843H99.3559C99.4107 98.6256 99.9313 99.1462 100.772 99.1462C101.402 99.1462 101.813 98.8265 101.977 98.3333L102.799 98.3972C102.544 99.265 101.795 99.8769 100.772 99.8769ZM99.3559 96.9083H102.032C101.959 95.9767 101.448 95.5474 100.735 95.5474C99.9861 95.5474 99.4837 96.0132 99.3559 96.9083ZM108.175 99.8769C106.805 99.8769 105.956 98.8813 105.956 97.3468C105.956 95.8122 106.805 94.8166 108.139 94.8166C109.399 94.8166 110.276 95.73 110.276 97.3559V97.5843H106.76C106.814 98.6256 107.335 99.1462 108.175 99.1462C108.806 99.1462 109.217 98.8265 109.381 98.3333L110.203 98.3972C109.947 99.265 109.198 99.8769 108.175 99.8769ZM106.76 96.9083H109.436C109.363 95.9767 108.851 95.5474 108.139 95.5474C107.39 95.5474 106.887 96.0132 106.76 96.9083ZM114.572 94.1681V93.273H115.376V94.1681H114.572ZM111.603 99.7673V95.6022H110.945V94.9262H111.603V94.4878C111.603 93.7753 112.005 93.2821 112.882 93.2821H113.649V93.958H112.937C112.553 93.958 112.37 94.1772 112.37 94.5426V94.9262H113.585V95.6022H112.37V99.7673H111.603ZM114.59 99.7673V94.9262H115.357V99.7673H114.59ZM118.621 99.8769C117.269 99.8769 116.401 98.8813 116.401 97.3468C116.401 95.8122 117.269 94.8166 118.621 94.8166C119.735 94.8166 120.511 95.4195 120.676 96.4973L119.872 96.5521C119.762 95.9127 119.278 95.5474 118.621 95.5474C117.726 95.5474 117.205 96.2233 117.205 97.3468C117.205 98.4703 117.726 99.1462 118.621 99.1462C119.278 99.1462 119.762 98.7808 119.872 98.0501L120.676 98.1049C120.511 99.1827 119.735 99.8769 118.621 99.8769ZM121.609 94.1681V93.273H122.413V94.1681H121.609ZM121.627 99.7673V94.9262H122.394V99.7673H121.627ZM125.659 99.8769C124.289 99.8769 123.439 98.8813 123.439 97.3468C123.439 95.8122 124.289 94.8166 125.622 94.8166C126.883 94.8166 127.759 95.73 127.759 97.3559V97.5843H124.243C124.298 98.6256 124.818 99.1462 125.659 99.1462C126.289 99.1462 126.7 98.8265 126.864 98.3333L127.686 98.3972C127.431 99.265 126.682 99.8769 125.659 99.8769ZM124.243 96.9083H126.919C126.846 95.9767 126.335 95.5474 125.622 95.5474C124.873 95.5474 124.371 96.0132 124.243 96.9083ZM128.799 99.7673V94.9262H129.502L129.52 95.794C129.776 95.1272 130.342 94.8166 131.009 94.8166C132.114 94.8166 132.644 95.6296 132.644 96.6526V99.7673H131.877V96.8718C131.877 95.9767 131.576 95.4926 130.845 95.4926C130.096 95.4926 129.566 95.9767 129.566 96.8718V99.7673H128.799ZM135.513 99.7673C134.636 99.7673 134.225 99.3837 134.225 98.5251V95.6022H133.512V94.9262H134.225V93.7936H134.992V94.9262H136.28V95.6022H134.992V98.5068C134.992 98.9453 135.184 99.0914 135.586 99.0914H136.28V99.7673H135.513ZM134.517 101.96L135.019 101.074H134.69V100.251H135.604V101L135.047 101.96H134.517ZM138.534 99.8769C137.53 99.8769 136.899 99.3928 136.899 98.5616C136.899 97.7396 137.365 97.2828 138.425 97.0819L140.142 96.7622C140.142 95.9493 139.758 95.5474 138.991 95.5474C138.315 95.5474 137.941 95.8579 137.795 96.4151L136.982 96.3512C137.164 95.4377 137.895 94.8166 138.991 94.8166C140.233 94.8166 140.909 95.5656 140.909 96.7896V98.79C140.909 99.0092 140.982 99.0914 141.165 99.0914H141.357V99.7673C141.302 99.7765 141.183 99.7856 141.065 99.7856C140.48 99.7856 140.215 99.5572 140.151 99.0183C139.914 99.5207 139.247 99.8769 138.534 99.8769ZM138.608 99.201C139.576 99.201 140.142 98.5799 140.142 97.7761V97.429L138.571 97.7213C137.913 97.84 137.703 98.0867 137.703 98.4886C137.703 98.9453 138.041 99.201 138.608 99.201ZM146.433 99.8769C145.082 99.8769 144.214 98.8813 144.214 97.3468C144.214 95.8122 145.082 94.8166 146.433 94.8166C147.548 94.8166 148.324 95.4195 148.489 96.4973L147.685 96.5521C147.575 95.9127 147.091 95.5474 146.433 95.5474C145.538 95.5474 145.018 96.2233 145.018 97.3468C145.018 98.4703 145.538 99.1462 146.433 99.1462C147.091 99.1462 147.575 98.7808 147.685 98.0501L148.489 98.1049C148.324 99.1827 147.548 99.8769 146.433 99.8769ZM150.871 99.8769C149.866 99.8769 149.236 99.3928 149.236 98.5616C149.236 97.7396 149.702 97.2828 150.761 97.0819L152.478 96.7622C152.478 95.9493 152.095 95.5474 151.328 95.5474C150.652 95.5474 150.277 95.8579 150.131 96.4151L149.318 96.3512C149.501 95.4377 150.231 94.8166 151.328 94.8166C152.57 94.8166 153.246 95.5656 153.246 96.7896V98.79C153.246 99.0092 153.319 99.0914 153.502 99.0914H153.693V99.7673C153.639 99.7765 153.52 99.7856 153.401 99.7856C152.816 99.7856 152.552 99.5572 152.488 99.0183C152.25 99.5207 151.583 99.8769 150.871 99.8769ZM150.944 99.201C151.912 99.201 152.478 98.5799 152.478 97.7761V97.429L150.907 97.7213C150.25 97.84 150.04 98.0867 150.04 98.4886C150.04 98.9453 150.378 99.201 150.944 99.201ZM154.56 101.137V94.9262H155.272L155.282 95.6661C155.574 95.1089 156.113 94.8166 156.77 94.8166C158.214 94.8166 158.862 96.0132 158.862 97.3468C158.862 98.6804 158.214 99.8769 156.77 99.8769C156.14 99.8769 155.583 99.5938 155.327 99.1279V101.137H154.56ZM156.697 99.1462C157.538 99.1462 158.058 98.4794 158.058 97.3468C158.058 96.2142 157.538 95.5474 156.697 95.5474C155.857 95.5474 155.327 96.1593 155.327 97.3468C155.327 98.5342 155.848 99.1462 156.697 99.1462ZM161.794 99.8769C160.442 99.8769 159.574 98.8813 159.574 97.3468C159.574 95.8122 160.442 94.8166 161.794 94.8166C162.908 94.8166 163.685 95.4195 163.849 96.4973L163.045 96.5521C162.936 95.9127 162.451 95.5474 161.794 95.5474C160.899 95.5474 160.378 96.2233 160.378 97.3468C160.378 98.4703 160.899 99.1462 161.794 99.1462C162.451 99.1462 162.936 98.7808 163.045 98.0501L163.849 98.1049C163.685 99.1827 162.908 99.8769 161.794 99.8769ZM166.231 99.8769C165.226 99.8769 164.596 99.3928 164.596 98.5616C164.596 97.7396 165.062 97.2828 166.122 97.0819L167.839 96.7622C167.839 95.9493 167.455 95.5474 166.688 95.5474C166.012 95.5474 165.638 95.8579 165.491 96.4151L164.678 96.3512C164.861 95.4377 165.592 94.8166 166.688 94.8166C167.93 94.8166 168.606 95.5656 168.606 96.7896V98.79C168.606 99.0092 168.679 99.0914 168.862 99.0914H169.054V99.7673C168.999 99.7765 168.88 99.7856 168.761 99.7856C168.177 99.7856 167.912 99.5572 167.848 99.0183C167.61 99.5207 166.944 99.8769 166.231 99.8769ZM166.304 99.201C167.273 99.201 167.839 98.5799 167.839 97.7761V97.429L166.268 97.7213C165.61 97.84 165.4 98.0867 165.4 98.4886C165.4 98.9453 165.738 99.201 166.304 99.201ZM169.92 99.7673V94.9262H170.624L170.642 95.794C170.898 95.1272 171.464 94.8166 172.131 94.8166C173.236 94.8166 173.766 95.6296 173.766 96.6526V99.7673H172.998V96.8718C172.998 95.9767 172.697 95.4926 171.966 95.4926C171.217 95.4926 170.688 95.9767 170.688 96.8718V99.7673H169.92ZM177.011 99.8769C175.641 99.8769 174.792 98.8813 174.792 97.3468C174.792 95.8122 175.641 94.8166 176.975 94.8166C178.235 94.8166 179.112 95.73 179.112 97.3559V97.5843H175.596C175.65 98.6256 176.171 99.1462 177.011 99.1462C177.642 99.1462 178.053 98.8265 178.217 98.3333L179.039 98.3972C178.783 99.265 178.034 99.8769 177.011 99.8769ZM175.596 96.9083H178.272C178.199 95.9767 177.687 95.5474 176.975 95.5474C176.226 95.5474 175.724 96.0132 175.596 96.9083ZM180.133 94.1681V93.273H180.937V94.1681H180.133ZM180.152 99.7673V94.9262H180.919V99.7673H180.152ZM186.428 99.8769C185.131 99.8769 184.409 99.1919 184.336 98.2419L185.14 98.1871C185.231 98.7717 185.606 99.1462 186.428 99.1462C187.086 99.1462 187.515 98.9453 187.515 98.4703C187.515 98.0867 187.323 97.9222 186.282 97.7396C184.894 97.4929 184.455 97.0636 184.455 96.2964C184.455 95.4377 185.113 94.8166 186.282 94.8166C187.46 94.8166 188.081 95.5291 188.227 96.3694L187.424 96.4242C187.314 95.9127 186.93 95.5474 186.273 95.5474C185.579 95.5474 185.259 95.8488 185.259 96.2598C185.259 96.7348 185.569 96.9175 186.428 97.0636C187.908 97.3194 188.319 97.703 188.319 98.4703C188.319 99.3654 187.497 99.8769 186.428 99.8769ZM185.725 101.96L186.227 101.074H185.898V100.251H186.812V101L186.254 101.96H185.725ZM189.348 94.1681V93.273H190.152V94.1681H189.348ZM189.366 99.7673V94.9262H190.133V99.7673H189.366ZM195.186 99.8769C194.181 99.8769 193.551 99.3928 193.551 98.5616C193.551 97.7396 194.017 97.2828 195.076 97.0819L196.793 96.7622C196.793 95.9493 196.41 95.5474 195.642 95.5474C194.967 95.5474 194.592 95.8579 194.446 96.4151L193.633 96.3512C193.816 95.4377 194.546 94.8166 195.642 94.8166C196.885 94.8166 197.561 95.5656 197.561 96.7896V98.79C197.561 99.0092 197.634 99.0914 197.816 99.0914H198.008V99.7673C197.953 99.7765 197.835 99.7856 197.716 99.7856C197.131 99.7856 196.866 99.5572 196.802 99.0183C196.565 99.5207 195.898 99.8769 195.186 99.8769ZM195.259 99.201C196.227 99.201 196.793 98.5799 196.793 97.7761V97.429L195.222 97.7213C194.565 97.84 194.355 98.0867 194.355 98.4886C194.355 98.9453 194.693 99.201 195.259 99.201ZM37.6128 112.877C36.6081 112.877 35.9778 112.393 35.9778 111.562C35.9778 110.74 36.4436 110.283 37.5032 110.082L39.2204 109.762C39.2204 108.949 38.8368 108.547 38.0695 108.547C37.3936 108.547 37.0191 108.858 36.8729 109.415L36.06 109.351C36.2427 108.438 36.9734 107.817 38.0695 107.817C39.3118 107.817 39.9877 108.566 39.9877 109.79V111.79C39.9877 112.009 40.0608 112.091 40.2434 112.091H40.4353V112.767C40.3805 112.776 40.2617 112.786 40.143 112.786C39.5584 112.786 39.2935 112.557 39.2296 112.018C38.9921 112.521 38.3253 112.877 37.6128 112.877ZM37.6859 112.201C38.6541 112.201 39.2204 111.58 39.2204 110.776V110.429L37.6493 110.721C36.9917 110.84 36.7816 111.087 36.7816 111.489C36.7816 111.945 37.1196 112.201 37.6859 112.201ZM43.0469 112.877C41.7499 112.877 41.0283 112.192 40.9552 111.242L41.759 111.187C41.8503 111.772 42.2248 112.146 43.0469 112.146C43.7046 112.146 44.1339 111.945 44.1339 111.47C44.1339 111.087 43.9421 110.922 42.9008 110.74C41.5124 110.493 41.0739 110.064 41.0739 109.296C41.0739 108.438 41.7316 107.817 42.9008 107.817C44.0791 107.817 44.7002 108.529 44.8463 109.369L44.0425 109.424C43.9329 108.913 43.5493 108.547 42.8916 108.547C42.1974 108.547 41.8777 108.849 41.8777 109.26C41.8777 109.735 42.1883 109.917 43.0469 110.064C44.5266 110.319 44.9377 110.703 44.9377 111.47C44.9377 112.365 44.1156 112.877 43.0469 112.877ZM45.9666 107.168V106.273H46.7704V107.168H45.9666ZM45.9849 112.767V107.926H46.7522V112.767H45.9849ZM49.9617 114.247C48.9204 114.247 48.1348 113.69 47.9339 112.84L48.7377 112.786C48.8838 113.242 49.2127 113.516 49.9617 113.516C50.8386 113.516 51.3227 113.169 51.3227 112.457V111.671C51.0852 112.183 50.5371 112.512 49.9069 112.512C48.6738 112.512 47.7969 111.543 47.7969 110.164C47.7969 108.785 48.6555 107.817 49.8703 107.817C50.5463 107.817 51.14 108.155 51.3592 108.694V107.926H52.0899V112.439C52.0899 113.571 51.2953 114.247 49.9617 114.247ZM49.9434 111.781C50.7746 111.781 51.3135 111.16 51.3227 110.164C51.3409 109.168 50.7837 108.547 49.9434 108.547C49.0939 108.547 48.6007 109.168 48.6007 110.164C48.6007 111.16 49.1122 111.781 49.9434 111.781ZM55.1385 112.877C54.1702 112.877 53.5491 112.192 53.5491 111.041V107.926H54.3164V110.831C54.3164 111.772 54.6452 112.201 55.3394 112.201C56.1067 112.201 56.5725 111.68 56.5725 110.813V107.926H57.3398V112.767H56.6091V111.982C56.3442 112.557 55.8327 112.877 55.1385 112.877ZM58.803 112.767V107.926H59.479L59.5064 108.821C59.6799 108.209 60.0635 107.926 60.6573 107.926H61.1322V108.657H60.6664C59.9357 108.657 59.5703 109.05 59.5703 109.844V112.767H58.803ZM63.2045 112.877C62.1997 112.877 61.5695 112.393 61.5695 111.562C61.5695 110.74 62.0353 110.283 63.0949 110.082L64.8121 109.762C64.8121 108.949 64.4285 108.547 63.6612 108.547C62.9853 108.547 62.6108 108.858 62.4646 109.415L61.6517 109.351C61.8344 108.438 62.5651 107.817 63.6612 107.817C64.9034 107.817 65.5794 108.566 65.5794 109.79V111.79C65.5794 112.009 65.6524 112.091 65.8351 112.091H66.0269V112.767C65.9721 112.776 65.8534 112.786 65.7346 112.786C65.15 112.786 64.8852 112.557 64.8212 112.018C64.5837 112.521 63.9169 112.877 63.2045 112.877ZM63.2775 112.201C64.2458 112.201 64.8121 111.58 64.8121 110.776V110.429L63.241 110.721C62.5834 110.84 62.3733 111.087 62.3733 111.489C62.3733 111.945 62.7112 112.201 63.2775 112.201ZM70.9756 112.877C69.6786 112.877 68.957 112.192 68.8839 111.242L69.6877 111.187C69.7791 111.772 70.1536 112.146 70.9756 112.146C71.6333 112.146 72.0626 111.945 72.0626 111.47C72.0626 111.087 71.8708 110.922 70.8295 110.74C69.4411 110.493 69.0027 110.064 69.0027 109.296C69.0027 108.438 69.6603 107.817 70.8295 107.817C72.0078 107.817 72.6289 108.529 72.7751 109.369L71.9713 109.424C71.8616 108.913 71.478 108.547 70.8204 108.547C70.1262 108.547 69.8065 108.849 69.8065 109.26C69.8065 109.735 70.117 109.917 70.9756 110.064C72.4554 110.319 72.8664 110.703 72.8664 111.47C72.8664 112.365 72.0443 112.877 70.9756 112.877ZM73.8954 107.168V106.273H74.6992V107.168H73.8954ZM73.9136 112.767V107.926H74.6809V112.767H73.9136ZM77.8904 114.247C76.8491 114.247 76.0636 113.69 75.8626 112.84L76.6664 112.786C76.8126 113.242 77.1414 113.516 77.8904 113.516C78.7673 113.516 79.2514 113.169 79.2514 112.457V111.671C79.0139 112.183 78.4659 112.512 77.8356 112.512C76.6025 112.512 75.7256 111.543 75.7256 110.164C75.7256 108.785 76.5842 107.817 77.7991 107.817C78.475 107.817 79.0687 108.155 79.2879 108.694V107.926H80.0187V112.439C80.0187 113.571 79.224 114.247 77.8904 114.247ZM77.8721 111.781C78.7033 111.781 79.2423 111.16 79.2514 110.164C79.2697 109.168 78.7125 108.547 77.8721 108.547C77.0227 108.547 76.5294 109.168 76.5294 110.164C76.5294 111.16 77.0409 111.781 77.8721 111.781ZM83.0672 112.877C82.099 112.877 81.4778 112.192 81.4778 111.041V107.926H82.2451V110.831C82.2451 111.772 82.5739 112.201 83.2681 112.201C84.0354 112.201 84.5012 111.68 84.5012 110.813V107.926H85.2685V112.767H84.5378V111.982C84.2729 112.557 83.7614 112.877 83.0672 112.877ZM86.7318 112.767V107.926H87.4077L87.4351 108.821C87.6086 108.209 87.9923 107.926 88.586 107.926H89.061V108.657H88.5951C87.8644 108.657 87.499 109.05 87.499 109.844V112.767H86.7318ZM91.1332 112.877C90.1284 112.877 89.4982 112.393 89.4982 111.562C89.4982 110.74 89.964 110.283 91.0236 110.082L92.7408 109.762C92.7408 108.949 92.3572 108.547 91.5899 108.547C90.914 108.547 90.5395 108.858 90.3933 109.415L89.5804 109.351C89.7631 108.438 90.4938 107.817 91.5899 107.817C92.8321 107.817 93.5081 108.566 93.5081 109.79V111.79C93.5081 112.009 93.5811 112.091 93.7638 112.091H93.9556V112.767C93.9008 112.776 93.7821 112.786 93.6634 112.786C93.0788 112.786 92.8139 112.557 92.7499 112.018C92.5125 112.521 91.8457 112.877 91.1332 112.877ZM91.2063 112.201C92.1745 112.201 92.7408 111.58 92.7408 110.776V110.429L91.1697 110.721C90.5121 110.84 90.302 111.087 90.302 111.489C90.302 111.945 90.64 112.201 91.2063 112.201ZM94.8223 112.767V107.926H95.5256L95.5439 108.794C95.7996 108.127 96.3659 107.817 97.0327 107.817C98.1379 107.817 98.6677 108.63 98.6677 109.653V112.767H97.9005V109.872C97.9005 108.977 97.599 108.493 96.8683 108.493C96.1193 108.493 95.5895 108.977 95.5895 109.872V112.767H94.8223ZM101.536 112.767C100.659 112.767 100.248 112.384 100.248 111.525V108.602H99.5356V107.926H100.248V106.794H101.015V107.926H102.303V108.602H101.015V111.507C101.015 111.945 101.207 112.091 101.609 112.091H102.303V112.767H101.536ZM100.54 114.96L101.043 114.074H100.714V113.251H101.627V114L101.07 114.96H100.54ZM104.558 112.877C103.553 112.877 102.923 112.393 102.923 111.562C102.923 110.74 103.389 110.283 104.448 110.082L106.166 109.762C106.166 108.949 105.782 108.547 105.015 108.547C104.339 108.547 103.964 108.858 103.818 109.415L103.005 109.351C103.188 108.438 103.919 107.817 105.015 107.817C106.257 107.817 106.933 108.566 106.933 109.79V111.79C106.933 112.009 107.006 112.091 107.189 112.091H107.38V112.767C107.326 112.776 107.207 112.786 107.088 112.786C106.503 112.786 106.239 112.557 106.175 112.018C105.937 112.521 105.27 112.877 104.558 112.877ZM104.631 112.201C105.599 112.201 106.166 111.58 106.166 110.776V110.429L104.594 110.721C103.937 110.84 103.727 111.087 103.727 111.489C103.727 111.945 104.065 112.201 104.631 112.201ZM112.156 112.877C111.187 112.877 110.566 112.192 110.566 111.041V107.926H111.333V110.831C111.333 111.772 111.662 112.201 112.356 112.201C113.124 112.201 113.59 111.68 113.59 110.813V107.926H114.357V112.767H113.626V111.982C113.361 112.557 112.85 112.877 112.156 112.877ZM117.333 112.767C116.457 112.767 116.046 112.384 116.046 111.525V108.602H115.333V107.926H116.046V106.794H116.813V107.926H118.101V108.602H116.813V111.507C116.813 111.945 117.005 112.091 117.406 112.091H118.101V112.767H117.333ZM119.067 107.168V106.273H119.87V107.168H119.067ZM119.085 112.767V107.926H119.852V112.767H119.085ZM122.176 112.767C121.609 112.767 121.226 112.493 121.226 111.854V106.282H121.993V111.79C121.993 111.991 122.093 112.091 122.294 112.091H122.715V112.767H122.176ZM123.571 107.168V106.273H124.375V107.168H123.571ZM123.589 112.767V107.926H124.357V112.767H123.589ZM125.609 112.767V112L128.669 108.602H125.701V107.926H129.51V108.694L126.45 112.091H129.583V112.767H125.609ZM132.507 107.259C131.758 107.259 131.265 106.803 131.229 106.09H131.758C131.813 106.51 132.087 106.693 132.507 106.693C132.927 106.693 133.192 106.51 133.247 106.09H133.777C133.74 106.803 133.256 107.259 132.507 107.259ZM132.005 112.877C131 112.877 130.37 112.393 130.37 111.562C130.37 110.74 130.836 110.283 131.895 110.082L133.613 109.762C133.613 108.949 133.229 108.547 132.462 108.547C131.786 108.547 131.411 108.858 131.265 109.415L130.452 109.351C130.635 108.438 131.366 107.817 132.462 107.817C133.704 107.817 134.38 108.566 134.38 109.79V111.79C134.38 112.009 134.453 112.091 134.636 112.091H134.827V112.767C134.773 112.776 134.654 112.786 134.535 112.786C133.951 112.786 133.686 112.557 133.622 112.018C133.384 112.521 132.717 112.877 132.005 112.877ZM132.078 112.201C133.046 112.201 133.613 111.58 133.613 110.776V110.429L132.041 110.721C131.384 110.84 131.174 111.087 131.174 111.489C131.174 111.945 131.512 112.201 132.078 112.201ZM135.694 112.767V107.926H136.37L136.397 108.821C136.571 108.209 136.954 107.926 137.548 107.926H138.023V108.657H137.557C136.827 108.657 136.461 109.05 136.461 109.844V112.767H135.694ZM138.86 107.168V106.273H139.664V107.168H138.86ZM138.878 112.767V107.926H139.646V112.767H138.878ZM140.912 107.168V106.273H141.716V107.168H140.912ZM140.93 112.767V107.926H141.697V112.767H140.93ZM142.859 114.192L143.297 112.767H142.831V111.735H143.863V112.639L143.315 114.192H142.859ZM147.281 112.767V107.926H147.984L148.003 108.794C148.259 108.127 148.825 107.817 149.492 107.817C150.597 107.817 151.127 108.63 151.127 109.653V112.767H150.359V109.872C150.359 108.977 150.058 108.493 149.327 108.493C148.578 108.493 148.048 108.977 148.048 109.872V112.767H147.281ZM154.044 112.877C153.076 112.877 152.455 112.192 152.455 111.041V107.926H153.222V110.831C153.222 111.772 153.551 112.201 154.245 112.201C155.012 112.201 155.478 111.68 155.478 110.813V107.926H156.245V112.767H155.515V111.982C155.25 112.557 154.738 112.877 154.044 112.877ZM161.582 112.877C160.613 112.877 159.992 112.192 159.992 111.041V107.926H160.76V110.831C160.76 111.772 161.088 112.201 161.783 112.201C162.55 112.201 163.016 111.68 163.016 110.813V107.926H163.783V112.767H163.052V111.982C162.787 112.557 162.276 112.877 161.582 112.877ZM165.094 107.168V106.273H165.898V107.168H165.094ZM165.112 112.767V107.926H165.88V112.767H165.112ZM168.749 112.767C167.872 112.767 167.461 112.384 167.461 111.525V108.602H166.748V107.926H167.461V106.794H168.228V107.926H169.516V108.602H168.228V111.507C168.228 111.945 168.42 112.091 168.822 112.091H169.516V112.767H168.749ZM171.771 112.877C170.766 112.877 170.136 112.393 170.136 111.562C170.136 110.74 170.601 110.283 171.661 110.082L173.378 109.762C173.378 108.949 172.995 108.547 172.227 108.547C171.551 108.547 171.177 108.858 171.031 109.415L170.218 109.351C170.4 108.438 171.131 107.817 172.227 107.817C173.47 107.817 174.145 108.566 174.145 109.79V111.79C174.145 112.009 174.219 112.091 174.401 112.091H174.593V112.767C174.538 112.776 174.419 112.786 174.301 112.786C173.716 112.786 173.451 112.557 173.387 112.018C173.15 112.521 172.483 112.877 171.771 112.877ZM171.844 112.201C172.812 112.201 173.378 111.58 173.378 110.776V110.429L171.807 110.721C171.149 110.84 170.939 111.087 170.939 111.489C170.939 111.945 171.277 112.201 171.844 112.201ZM179.542 112.877C178.245 112.877 177.523 112.192 177.45 111.242L178.254 111.187C178.345 111.772 178.72 112.146 179.542 112.146C180.199 112.146 180.629 111.945 180.629 111.47C180.629 111.087 180.437 110.922 179.396 110.74C178.007 110.493 177.569 110.064 177.569 109.296C177.569 108.438 178.226 107.817 179.396 107.817C180.574 107.817 181.195 108.529 181.341 109.369L180.537 109.424C180.428 108.913 180.044 108.547 179.386 108.547C178.692 108.547 178.373 108.849 178.373 109.26C178.373 109.735 178.683 109.917 179.542 110.064C181.021 110.319 181.433 110.703 181.433 111.47C181.433 112.365 180.61 112.877 179.542 112.877ZM184.413 107.259C183.664 107.259 183.171 106.803 183.134 106.09H183.664C183.719 106.51 183.993 106.693 184.413 106.693C184.833 106.693 185.098 106.51 185.153 106.09H185.683C185.646 106.803 185.162 107.259 184.413 107.259ZM183.911 112.877C182.906 112.877 182.276 112.393 182.276 111.562C182.276 110.74 182.742 110.283 183.801 110.082L185.518 109.762C185.518 108.949 185.135 108.547 184.367 108.547C183.692 108.547 183.317 108.858 183.171 109.415L182.358 109.351C182.541 108.438 183.271 107.817 184.367 107.817C185.61 107.817 186.286 108.566 186.286 109.79V111.79C186.286 112.009 186.359 112.091 186.541 112.091H186.733V112.767C186.678 112.776 186.56 112.786 186.441 112.786C185.856 112.786 185.591 112.557 185.528 112.018C185.29 112.521 184.623 112.877 183.911 112.877ZM183.984 112.201C184.952 112.201 185.518 111.58 185.518 110.776V110.429L183.947 110.721C183.29 110.84 183.08 111.087 183.08 111.489C183.08 111.945 183.418 112.201 183.984 112.201ZM191.81 112.877C190.467 112.877 189.59 111.89 189.59 110.347C189.59 108.803 190.467 107.817 191.81 107.817C193.143 107.817 194.02 108.803 194.02 110.347C194.02 111.89 193.143 112.877 191.81 112.877ZM191.81 112.146C192.696 112.146 193.216 111.47 193.216 110.347C193.216 109.223 192.696 108.547 191.81 108.547C190.915 108.547 190.394 109.223 190.394 110.347C190.394 111.47 190.915 112.146 191.81 112.146ZM27.5602 125.877C26.2084 125.877 25.3406 124.881 25.3406 123.347C25.3406 121.812 26.2084 120.817 27.5602 120.817C28.6746 120.817 29.451 121.419 29.6154 122.497L28.8116 122.552C28.702 121.913 28.2179 121.547 27.5602 121.547C26.6651 121.547 26.1444 122.223 26.1444 123.347C26.1444 124.47 26.6651 125.146 27.5602 125.146C28.2179 125.146 28.702 124.781 28.8116 124.05L29.6154 124.105C29.451 125.183 28.6746 125.877 27.5602 125.877ZM32.1559 125.877C31.1877 125.877 30.5666 125.192 30.5666 124.041V120.926H31.3338V123.831C31.3338 124.772 31.6627 125.201 32.3569 125.201C33.1241 125.201 33.59 124.68 33.59 123.813V120.926H34.3572V125.767H33.6265V124.982C33.3616 125.557 32.8501 125.877 32.1559 125.877ZM35.8205 125.767V120.926H36.4964L36.5238 121.821C36.6974 121.209 37.081 120.926 37.6747 120.926H38.1497V121.657H37.6839C36.9531 121.657 36.5878 122.05 36.5878 122.844V125.767H35.8205ZM40.8065 125.877C39.4364 125.877 38.5869 124.881 38.5869 123.347C38.5869 121.812 39.4364 120.817 40.77 120.817C42.0305 120.817 42.9074 121.73 42.9074 123.356V123.584H39.3907C39.4455 124.626 39.9662 125.146 40.8065 125.146C41.4368 125.146 41.8478 124.827 42.0122 124.333L42.8343 124.397C42.5785 125.265 41.8295 125.877 40.8065 125.877ZM39.3907 122.908H42.067C41.994 121.977 41.4825 121.547 40.77 121.547C40.021 121.547 39.5186 122.013 39.3907 122.908ZM45.5314 125.767C44.6545 125.767 44.2435 125.384 44.2435 124.525V121.602H43.531V120.926H44.2435V119.794H45.0107V120.926H46.2986V121.602H45.0107V124.507C45.0107 124.945 45.2025 125.091 45.6044 125.091H46.2986V125.767H45.5314ZM44.5358 127.96L45.0381 127.074H44.7093V126.251H45.6227V127L45.0655 127.96H44.5358ZM47.2645 120.168V119.273H48.0683V120.168H47.2645ZM47.2828 125.767V120.926H48.05V125.767H47.2828ZM53.6871 125.877C52.3352 125.877 51.4675 124.881 51.4675 123.347C51.4675 121.812 52.3352 120.817 53.6871 120.817C54.8015 120.817 55.5779 121.419 55.7423 122.497L54.9385 122.552C54.8289 121.913 54.3448 121.547 53.6871 121.547C52.7919 121.547 52.2713 122.223 52.2713 123.347C52.2713 124.47 52.7919 125.146 53.6871 125.146C54.3448 125.146 54.8289 124.781 54.9385 124.05L55.7423 124.105C55.5779 125.183 54.8015 125.877 53.6871 125.877ZM58.5842 125.877C57.2415 125.877 56.3646 124.89 56.3646 123.347C56.3646 121.803 57.2415 120.817 58.5842 120.817C59.9178 120.817 60.7947 121.803 60.7947 123.347C60.7947 124.89 59.9178 125.877 58.5842 125.877ZM58.5842 125.146C59.4702 125.146 59.9909 124.47 59.9909 123.347C59.9909 122.223 59.4702 121.547 58.5842 121.547C57.6891 121.547 57.1684 122.223 57.1684 123.347C57.1684 124.47 57.6891 125.146 58.5842 125.146ZM61.8403 125.767V120.926H62.5436L62.5619 121.794C62.8177 121.127 63.384 120.817 64.0508 120.817C65.156 120.817 65.6858 121.63 65.6858 122.653V125.767H64.9185V122.872C64.9185 121.977 64.6171 121.493 63.8864 121.493C63.1374 121.493 62.6076 121.977 62.6076 122.872V125.767H61.8403ZM67.3105 125.767V121.602H66.6529V120.926H67.3105V120.488C67.3105 119.775 67.7124 119.282 68.5893 119.282H69.3566V119.958H68.6441C68.2605 119.958 68.0778 120.177 68.0778 120.543V120.926H69.2926V121.602H68.0778V125.767H67.3105ZM71.9286 125.877C70.5859 125.877 69.709 124.89 69.709 123.347C69.709 121.803 70.5859 120.817 71.9286 120.817C73.2622 120.817 74.1391 121.803 74.1391 123.347C74.1391 124.89 73.2622 125.877 71.9286 125.877ZM71.9286 125.146C72.8146 125.146 73.3353 124.47 73.3353 123.347C73.3353 122.223 72.8146 121.547 71.9286 121.547C71.0335 121.547 70.5128 122.223 70.5128 123.347C70.5128 124.47 71.0335 125.146 71.9286 125.146ZM75.1847 125.767V120.926H75.8607L75.8881 121.821C76.0616 121.209 76.4452 120.926 77.039 120.926H77.5139V121.657H77.0481C76.3174 121.657 75.952 122.05 75.952 122.844V125.767H75.1847ZM78.28 125.767V120.926H78.9833L79.0016 121.776C79.2391 121.182 79.7415 120.817 80.3626 120.817C81.0933 120.817 81.6048 121.182 81.8149 121.831C82.025 121.182 82.5182 120.817 83.2307 120.817C84.2629 120.817 84.8292 121.483 84.8292 122.653V125.767H84.0619V122.817C84.0619 121.94 83.7148 121.493 83.048 121.493C82.3721 121.493 81.9337 122.004 81.9337 122.872V125.767H81.1664V122.872C81.1664 122.013 80.8832 121.493 80.1708 121.493C79.4948 121.493 79.0473 122.013 79.0473 122.872V125.767H78.28ZM88.5737 127.137V120.926H89.2862L89.2953 121.666C89.5876 121.109 90.1266 120.817 90.7842 120.817C92.2274 120.817 92.8759 122.013 92.8759 123.347C92.8759 124.68 92.2274 125.877 90.7842 125.877C90.154 125.877 89.5968 125.594 89.341 125.128V127.137H88.5737ZM90.7111 125.146C91.5515 125.146 92.0721 124.479 92.0721 123.347C92.0721 122.214 91.5515 121.547 90.7111 121.547C89.8708 121.547 89.341 122.159 89.341 123.347C89.341 124.534 89.8617 125.146 90.7111 125.146ZM93.9169 125.767V120.926H94.5928L94.6202 121.821C94.7938 121.209 95.1774 120.926 95.7711 120.926H96.2461V121.657H95.7802C95.0495 121.657 94.6841 122.05 94.6841 122.844V125.767H93.9169ZM98.9029 125.877C97.5602 125.877 96.6833 124.89 96.6833 123.347C96.6833 121.803 97.5602 120.817 98.9029 120.817C100.236 120.817 101.113 121.803 101.113 123.347C101.113 124.89 100.236 125.877 98.9029 125.877ZM98.9029 125.146C99.7889 125.146 100.31 124.47 100.31 123.347C100.31 122.223 99.7889 121.547 98.9029 121.547C98.0078 121.547 97.4871 122.223 97.4871 123.347C97.4871 124.47 98.0078 125.146 98.9029 125.146ZM104.05 125.877C102.698 125.877 101.83 124.881 101.83 123.347C101.83 121.812 102.698 120.817 104.05 120.817C105.164 120.817 105.941 121.419 106.105 122.497L105.301 122.552C105.192 121.913 104.707 121.547 104.05 121.547C103.155 121.547 102.634 122.223 102.634 123.347C102.634 124.47 103.155 125.146 104.05 125.146C104.707 125.146 105.192 124.781 105.301 124.05L106.105 124.105C105.941 125.183 105.164 125.877 104.05 125.877ZM108.947 125.877C107.577 125.877 106.727 124.881 106.727 123.347C106.727 121.812 107.577 120.817 108.91 120.817C110.171 120.817 111.048 121.73 111.048 123.356V123.584H107.531C107.586 124.626 108.107 125.146 108.947 125.146C109.577 125.146 109.988 124.827 110.153 124.333L110.975 124.397C110.719 125.265 109.97 125.877 108.947 125.877ZM107.531 122.908H110.207C110.134 121.977 109.623 121.547 108.91 121.547C108.161 121.547 107.659 122.013 107.531 122.908ZM113.804 125.877C112.544 125.877 111.758 124.9 111.758 123.347C111.758 121.794 112.544 120.817 113.804 120.817C114.453 120.817 115.028 121.109 115.293 121.602V119.282H116.06V125.767H115.366L115.339 125.037C115.065 125.566 114.48 125.877 113.804 125.877ZM113.96 125.146C114.818 125.146 115.293 124.452 115.293 123.347C115.293 122.223 114.818 121.547 113.96 121.547C113.11 121.547 112.562 122.223 112.562 123.347C112.562 124.452 113.11 125.146 113.96 125.146ZM118.93 125.877C117.962 125.877 117.341 125.192 117.341 124.041V120.926H118.108V123.831C118.108 124.772 118.437 125.201 119.131 125.201C119.899 125.201 120.364 124.68 120.364 123.813V120.926H121.132V125.767H120.401V124.982C120.136 125.557 119.624 125.877 118.93 125.877ZM122.595 125.767V120.926H123.271L123.298 121.821C123.472 121.209 123.855 120.926 124.449 120.926H124.924V121.657H124.458C123.728 121.657 123.362 122.05 123.362 122.844V125.767H122.595ZM125.761 120.168V119.273H126.565V120.168H125.761ZM125.779 125.767V120.926H126.547V125.767H125.779ZM128.87 125.767C128.304 125.767 127.92 125.493 127.92 124.854V119.282H128.687V124.79C128.687 124.991 128.788 125.091 128.989 125.091H129.409V125.767H128.87ZM132.193 125.877C130.85 125.877 129.973 124.89 129.973 123.347C129.973 121.803 130.85 120.817 132.193 120.817C133.526 120.817 134.403 121.803 134.403 123.347C134.403 124.89 133.526 125.877 132.193 125.877ZM132.193 125.146C133.079 125.146 133.599 124.47 133.599 123.347C133.599 122.223 133.079 121.547 132.193 121.547C131.297 121.547 130.777 122.223 130.777 123.347C130.777 124.47 131.297 125.146 132.193 125.146ZM135.449 125.767V120.926H136.125L136.152 121.821C136.326 121.209 136.709 120.926 137.303 120.926H137.778V121.657H137.312C136.581 121.657 136.216 122.05 136.216 122.844V125.767H135.449ZM142.91 125.877C141.65 125.877 140.864 124.9 140.864 123.347C140.864 121.794 141.65 120.817 142.91 120.817C143.559 120.817 144.134 121.109 144.399 121.602V119.282H145.167V125.767H144.472L144.445 125.037C144.171 125.566 143.586 125.877 142.91 125.877ZM143.066 125.146C143.924 125.146 144.399 124.452 144.399 123.347C144.399 122.223 143.924 121.547 143.066 121.547C142.216 121.547 141.668 122.223 141.668 123.347C141.668 124.452 142.216 125.146 143.066 125.146ZM148.036 125.877C147.068 125.877 146.447 125.192 146.447 124.041V120.926H147.214V123.831C147.214 124.772 147.543 125.201 148.237 125.201C149.005 125.201 149.471 124.68 149.471 123.813V120.926H150.238V125.767H149.507V124.982C149.242 125.557 148.731 125.877 148.036 125.877ZM151.701 127.137V120.926H152.414L152.423 121.666C152.715 121.109 153.254 120.817 153.912 120.817C155.355 120.817 156.003 122.013 156.003 123.347C156.003 124.68 155.355 125.877 153.912 125.877C153.281 125.877 152.724 125.594 152.468 125.128V127.137H151.701ZM153.838 125.146C154.679 125.146 155.199 124.479 155.199 123.347C155.199 122.214 154.679 121.547 153.838 121.547C152.998 121.547 152.468 122.159 152.468 123.347C152.468 124.534 152.989 125.146 153.838 125.146ZM158.978 120.259C158.229 120.259 157.735 119.803 157.699 119.09H158.229C158.283 119.51 158.557 119.693 158.978 119.693C159.398 119.693 159.663 119.51 159.717 119.09H160.247C160.211 119.803 159.727 120.259 158.978 120.259ZM158.475 125.877C157.47 125.877 156.84 125.393 156.84 124.562C156.84 123.74 157.306 123.283 158.366 123.082L160.083 122.762C160.083 121.949 159.699 121.547 158.932 121.547C158.256 121.547 157.882 121.858 157.735 122.415L156.922 122.351C157.105 121.438 157.836 120.817 158.932 120.817C160.174 120.817 160.85 121.566 160.85 122.79V124.79C160.85 125.009 160.923 125.091 161.106 125.091H161.298V125.767C161.243 125.776 161.124 125.786 161.005 125.786C160.421 125.786 160.156 125.557 160.092 125.018C159.854 125.521 159.188 125.877 158.475 125.877ZM158.548 125.201C159.517 125.201 160.083 124.58 160.083 123.776V123.429L158.512 123.721C157.854 123.84 157.644 124.087 157.644 124.489C157.644 124.945 157.982 125.201 158.548 125.201ZM166.374 125.877C165.022 125.877 164.155 124.881 164.155 123.347C164.155 121.812 165.022 120.817 166.374 120.817C167.489 120.817 168.265 121.419 168.429 122.497L167.626 122.552C167.516 121.913 167.032 121.547 166.374 121.547C165.479 121.547 164.958 122.223 164.958 123.347C164.958 124.47 165.479 125.146 166.374 125.146C167.032 125.146 167.516 124.781 167.626 124.05L168.429 124.105C168.265 125.183 167.489 125.877 166.374 125.877ZM171.271 125.877C169.901 125.877 169.052 124.881 169.052 123.347C169.052 121.812 169.901 120.817 171.235 120.817C172.495 120.817 173.372 121.73 173.372 123.356V123.584H169.856C169.91 124.626 170.431 125.146 171.271 125.146C171.902 125.146 172.313 124.827 172.477 124.333L173.299 124.397C173.043 125.265 172.294 125.877 171.271 125.877ZM169.856 122.908H172.532C172.459 121.977 171.947 121.547 171.235 121.547C170.486 121.547 169.983 122.013 169.856 122.908ZM178.09 125.877C177.086 125.877 176.455 125.393 176.455 124.562C176.455 123.74 176.921 123.283 177.981 123.082L179.698 122.762C179.698 121.949 179.314 121.547 178.547 121.547C177.871 121.547 177.497 121.858 177.351 122.415L176.538 122.351C176.72 121.438 177.451 120.817 178.547 120.817C179.789 120.817 180.465 121.566 180.465 122.79V124.79C180.465 125.009 180.538 125.091 180.721 125.091H180.913V125.767C180.858 125.776 180.739 125.786 180.621 125.786C180.036 125.786 179.771 125.557 179.707 125.018C179.47 125.521 178.803 125.877 178.09 125.877ZM178.164 125.201C179.132 125.201 179.698 124.58 179.698 123.776V123.429L178.127 123.721C177.469 123.84 177.259 124.087 177.259 124.489C177.259 124.945 177.597 125.201 178.164 125.201ZM181.726 120.168V119.273H182.529V120.168H181.726ZM181.744 125.767V120.926H182.511V125.767H181.744ZM188.02 125.877C186.723 125.877 186.002 125.192 185.929 124.242L186.732 124.187C186.824 124.772 187.198 125.146 188.02 125.146C188.678 125.146 189.107 124.945 189.107 124.47C189.107 124.087 188.915 123.922 187.874 123.74C186.486 123.493 186.047 123.064 186.047 122.296C186.047 121.438 186.705 120.817 187.874 120.817C189.052 120.817 189.674 121.529 189.82 122.369L189.016 122.424C188.906 121.913 188.523 121.547 187.865 121.547C187.171 121.547 186.851 121.849 186.851 122.26C186.851 122.735 187.162 122.917 188.02 123.064C189.5 123.319 189.911 123.703 189.911 124.47C189.911 125.365 189.089 125.877 188.02 125.877ZM192.849 125.877C191.497 125.877 190.629 124.881 190.629 123.347C190.629 121.812 191.497 120.817 192.849 120.817C193.963 120.817 194.74 121.419 194.904 122.497L194.1 122.552C193.991 121.913 193.507 121.547 192.849 121.547C191.954 121.547 191.433 122.223 191.433 123.347C191.433 124.47 191.954 125.146 192.849 125.146C193.507 125.146 193.991 124.781 194.1 124.05L194.904 124.105C194.74 125.183 193.963 125.877 192.849 125.877ZM197.746 125.877C196.403 125.877 195.527 124.89 195.527 123.347C195.527 121.803 196.403 120.817 197.746 120.817C199.08 120.817 199.957 121.803 199.957 123.347C199.957 124.89 199.08 125.877 197.746 125.877ZM197.746 125.146C198.632 125.146 199.153 124.47 199.153 123.347C199.153 122.223 198.632 121.547 197.746 121.547C196.851 121.547 196.33 122.223 196.33 123.347C196.33 124.47 196.851 125.146 197.746 125.146ZM202.765 125.877C201.468 125.877 200.746 125.192 200.673 124.242L201.477 124.187C201.569 124.772 201.943 125.146 202.765 125.146C203.423 125.146 203.852 124.945 203.852 124.47C203.852 124.087 203.66 123.922 202.619 123.74C201.231 123.493 200.792 123.064 200.792 122.296C200.792 121.438 201.45 120.817 202.619 120.817C203.797 120.817 204.418 121.529 204.565 122.369L203.761 122.424C203.651 121.913 203.268 121.547 202.61 121.547C201.916 121.547 201.596 121.849 201.596 122.26C201.596 122.735 201.907 122.917 202.765 123.064C204.245 123.319 204.656 123.703 204.656 124.47C204.656 125.365 203.834 125.877 202.765 125.877ZM92.3603 138.767V133.926H93.0362L93.0636 134.821C93.2372 134.209 93.6208 133.926 94.2145 133.926H94.6895V134.657H94.2237C93.493 134.657 93.1276 135.05 93.1276 135.844V138.767H92.3603ZM97.3463 138.877C96.0036 138.877 95.1267 137.89 95.1267 136.347C95.1267 134.803 96.0036 133.817 97.3463 133.817C98.6799 133.817 99.5568 134.803 99.5568 136.347C99.5568 137.89 98.6799 138.877 97.3463 138.877ZM97.3463 138.146C98.2324 138.146 98.753 137.47 98.753 136.347C98.753 135.223 98.2324 134.547 97.3463 134.547C96.4512 134.547 95.9306 135.223 95.9306 136.347C95.9306 137.47 96.4512 138.146 97.3463 138.146ZM100.259 138.767V138L103.319 134.602H100.35V133.926H104.159V134.694L101.099 138.091H104.232V138.767H100.259ZM107.156 133.259C106.407 133.259 105.914 132.803 105.878 132.09H106.407C106.462 132.51 106.736 132.693 107.156 132.693C107.577 132.693 107.842 132.51 107.896 132.09H108.426C108.39 132.803 107.905 133.259 107.156 133.259ZM106.654 138.877C105.649 138.877 105.019 138.393 105.019 137.562C105.019 136.74 105.485 136.283 106.545 136.082L108.262 135.762C108.262 134.949 107.878 134.547 107.111 134.547C106.435 134.547 106.06 134.858 105.914 135.415L105.101 135.351C105.284 134.438 106.015 133.817 107.111 133.817C108.353 133.817 109.029 134.566 109.029 135.79V137.79C109.029 138.009 109.102 138.091 109.285 138.091H109.477V138.767C109.422 138.776 109.303 138.786 109.184 138.786C108.6 138.786 108.335 138.557 108.271 138.018C108.033 138.521 107.367 138.877 106.654 138.877ZM106.727 138.201C107.695 138.201 108.262 137.58 108.262 136.776V136.429L106.691 136.721C106.033 136.84 105.823 137.087 105.823 137.489C105.823 137.945 106.161 138.201 106.727 138.201ZM111.874 138.767C110.997 138.767 110.586 138.384 110.586 137.525V134.602H109.874V133.926H110.586V132.794H111.354V133.926H112.642V134.602H111.354V137.507C111.354 137.945 111.546 138.091 111.947 138.091H112.642V138.767H111.874ZM115.427 138.877C114.085 138.877 113.208 137.89 113.208 136.347C113.208 134.803 114.085 133.817 115.427 133.817C116.761 133.817 117.638 134.803 117.638 136.347C117.638 137.89 116.761 138.877 115.427 138.877ZM115.427 138.146C116.313 138.146 116.834 137.47 116.834 136.347C116.834 135.223 116.313 134.547 115.427 134.547C114.532 134.547 114.012 135.223 114.012 136.347C114.012 137.47 114.532 138.146 115.427 138.146ZM120.114 138.877C119.11 138.877 118.479 138.393 118.479 137.562C118.479 136.74 118.945 136.283 120.005 136.082L121.722 135.762C121.722 134.949 121.338 134.547 120.571 134.547C119.895 134.547 119.521 134.858 119.375 135.415L118.562 135.351C118.744 134.438 119.475 133.817 120.571 133.817C121.813 133.817 122.489 134.566 122.489 135.79V137.79C122.489 138.009 122.562 138.091 122.745 138.091H122.937V138.767C122.882 138.776 122.763 138.786 122.645 138.786C122.06 138.786 121.795 138.557 121.731 138.018C121.494 138.521 120.827 138.877 120.114 138.877ZM120.188 138.201C121.156 138.201 121.722 137.58 121.722 136.776V136.429L120.151 136.721C119.493 136.84 119.283 137.087 119.283 137.489C119.283 137.945 119.621 138.201 120.188 138.201ZM123.804 138.767V133.926H124.479L124.507 134.821C124.68 134.209 125.064 133.926 125.658 133.926H126.133V134.657H125.667C124.936 134.657 124.571 135.05 124.571 135.844V138.767H123.804ZM128.79 138.877C127.419 138.877 126.57 137.881 126.57 136.347C126.57 134.812 127.419 133.817 128.753 133.817C130.014 133.817 130.89 134.73 130.89 136.356V136.584H127.374C127.429 137.626 127.949 138.146 128.79 138.146C129.42 138.146 129.831 137.827 129.995 137.333L130.817 137.397C130.562 138.265 129.813 138.877 128.79 138.877ZM127.374 135.908H130.05C129.977 134.977 129.466 134.547 128.753 134.547C128.004 134.547 127.502 135.013 127.374 135.908ZM133.361 138.877C132.356 138.877 131.726 138.393 131.726 137.562C131.726 136.74 132.192 136.283 133.251 136.082L134.968 135.762C134.968 134.949 134.585 134.547 133.817 134.547C133.142 134.547 132.767 134.858 132.621 135.415L131.808 135.351C131.991 134.438 132.721 133.817 133.817 133.817C135.06 133.817 135.736 134.566 135.736 135.79V137.79C135.736 138.009 135.809 138.091 135.991 138.091H136.183V138.767C136.128 138.776 136.01 138.786 135.891 138.786C135.306 138.786 135.041 138.557 134.978 138.018C134.74 138.521 134.073 138.877 133.361 138.877ZM133.434 138.201C134.402 138.201 134.968 137.58 134.968 136.776V136.429L133.397 136.721C132.74 136.84 132.53 137.087 132.53 137.489C132.53 137.945 132.868 138.201 133.434 138.201ZM136.935 138.767V137.735H137.967V138.767H136.935Z" fill="#64748B"/>
<path d="M23.6587 162.464C23.6587 160.234 25.4664 158.426 27.6964 158.426H202.304C204.534 158.426 206.342 160.234 206.342 162.464V191.266C206.342 193.496 204.534 195.304 202.304 195.304H27.6964C25.4664 195.304 23.6587 193.496 23.6587 191.266V162.464Z" fill="#3B82F6"/>
<path d="M89.2093 180.865L91.8817 173.453H93.3118L95.9842 180.865H94.7837L94.1052 178.934H91.0779L90.4098 180.865H89.2093ZM91.4328 177.911H93.7607L92.5915 174.528L91.4328 177.911ZM96.7767 180.865V175.311H97.7893L97.8102 176.261C98.0816 175.583 98.6558 175.186 99.3552 175.186C100.18 175.186 100.754 175.614 100.994 176.334C101.245 175.593 101.808 175.186 102.602 175.186C103.771 175.186 104.439 175.938 104.439 177.295V180.865H103.332V177.566C103.332 176.606 102.988 176.115 102.278 176.115C101.579 176.115 101.13 176.668 101.13 177.608V180.865H100.075V177.608C100.075 176.668 99.7832 176.115 99.042 176.115C98.3322 176.115 97.8833 176.679 97.8833 177.608V180.865H96.7767ZM107.57 174.643L108.53 173.192H109.689L110.649 174.643H109.793L109.104 173.714L108.416 174.643H107.57ZM108.551 180.865V175.311H109.658V180.865H108.551ZM111.314 180.865V175.311H112.326L112.347 176.282C112.64 175.52 113.276 175.186 114.038 175.186C115.281 175.186 115.918 176.084 115.918 177.295V180.865H114.811V177.629C114.811 176.647 114.508 176.115 113.736 176.115C112.953 176.115 112.42 176.647 112.42 177.629V180.865H111.314ZM119.213 180.865C118.159 180.865 117.668 180.405 117.668 179.362V176.219H116.823V175.311H117.668V174.006H118.775V175.311H120.247V176.219H118.775V179.278C118.775 179.8 118.994 179.957 119.454 179.957H120.247V180.865H119.213ZM118.076 183.412L118.639 182.431H118.264V181.408H119.412V182.337L118.785 183.412H118.076ZM123.499 180.99C121.881 180.99 120.868 179.842 120.868 178.088C120.868 176.334 121.881 175.186 123.467 175.186C124.981 175.186 126.004 176.261 126.004 178.13V178.412H122.016C122.069 179.497 122.622 180.04 123.509 180.04C124.156 180.04 124.595 179.716 124.772 179.195L125.921 179.268C125.628 180.301 124.72 180.99 123.499 180.99ZM122.016 177.576H124.835C124.762 176.595 124.219 176.125 123.467 176.125C122.674 176.125 122.142 176.637 122.016 177.576ZM128.387 180.865C127.657 180.865 127.176 180.51 127.176 179.685V173.453H128.283V179.581C128.283 179.842 128.419 179.957 128.669 179.957H129.108V180.865H128.387ZM132.337 180.99C130.719 180.99 129.707 179.842 129.707 178.088C129.707 176.334 130.719 175.186 132.306 175.186C133.82 175.186 134.843 176.261 134.843 178.13V178.412H130.855C130.907 179.497 131.46 180.04 132.348 180.04C132.995 180.04 133.433 179.716 133.611 179.195L134.759 179.268C134.467 180.301 133.559 180.99 132.337 180.99ZM130.855 177.576H133.673C133.6 176.595 133.058 176.125 132.306 176.125C131.513 176.125 130.98 176.637 130.855 177.576ZM138.104 180.99C136.538 180.99 135.703 180.207 135.619 179.111L136.757 179.059C136.862 179.675 137.258 180.061 138.104 180.061C138.793 180.061 139.231 179.852 139.231 179.362C139.231 178.954 139.022 178.777 137.916 178.589C136.267 178.297 135.755 177.817 135.755 176.908C135.755 175.896 136.528 175.186 137.968 175.186C139.398 175.186 140.139 176 140.296 177.013L139.158 177.075C139.054 176.501 138.647 176.115 137.958 176.115C137.248 176.115 136.903 176.428 136.903 176.867C136.903 177.357 137.227 177.556 138.135 177.702C139.868 177.984 140.38 178.443 140.38 179.351C140.38 180.395 139.43 180.99 138.104 180.99Z" fill="#F8FAFC"/>
</g>
<defs>
<filter id="filter0_d_6852_17241" x="0" y="0.523438" width="246" height="234.439" filterUnits="userSpaceOnUse" color-interpolation-filters="sRGB">
<feFlood flood-opacity="0" result="BackgroundImageFix"/>
<feColorMatrix in="SourceAlpha" type="matrix" values="0 0 0 0 0 0 0 0 0 0 0 0 0 0 0 0 0 0 127 0" result="hardAlpha"/>
<feOffset dx="8" dy="8"/>
<feGaussianBlur stdDeviation="8"/>
<feComposite in2="hardAlpha" operator="out"/>
<feColorMatrix type="matrix" values="0 0 0 0 0.0970139 0 0 0 0 0.127226 0 0 0 0 0.183333 0 0 0 0.25 0"/>
<feBlend mode="normal" in2="BackgroundImageFix" result="effect1_dropShadow_6852_17241"/>
<feBlend mode="normal" in="SourceGraphic" in2="effect1_dropShadow_6852_17241" result="shape"/>
</filter>
</defs>
</svg>
