<svg width="311" height="116" viewBox="0 0 311 116" fill="none" xmlns="http://www.w3.org/2000/svg">
<g filter="url(#filter0_d_6852_17249)">
<rect x="8" y="8" width="279" height="84" rx="12" fill="white" shape-rendering="crispEdges"/>
<rect x="8.5" y="8.5" width="278" height="83" rx="11.5" stroke="#E2E8F0" shape-rendering="crispEdges"/>
<path d="M39 59V51C39 50.7348 38.8946 50.4804 38.7071 50.2929C38.5196 50.1054 38.2652 50 38 50H34C33.7348 50 33.4804 50.1054 33.2929 50.2929C33.1054 50.4804 33 50.7348 33 51V59M27 48C26.9999 47.709 27.0633 47.4216 27.1858 47.1577C27.3082 46.8938 27.4868 46.6598 27.709 46.472L34.709 40.473C35.07 40.1679 35.5274 40.0005 36 40.0005C36.4726 40.0005 36.93 40.1679 37.291 40.473L44.291 46.472C44.5132 46.6598 44.6918 46.8938 44.8142 47.1577C44.9367 47.4216 45.0001 47.709 45 48V57C45 57.5304 44.7893 58.0391 44.4142 58.4142C44.0391 58.7893 43.5304 59 43 59H29C28.4696 59 27.9609 58.7893 27.5858 58.4142C27.2107 58.0391 27 57.5304 27 57V48Z" stroke="#3B82F6" stroke-linecap="round" stroke-linejoin="round"/>
<path d="M73.472 42V30.64H74.848V40.656H80.528V42H73.472ZM85.2483 42.192C82.8963 42.192 81.3603 40.464 81.3603 37.76C81.3603 35.056 82.8963 33.328 85.2483 33.328C87.5843 33.328 89.1203 35.056 89.1203 37.76C89.1203 40.464 87.5843 42.192 85.2483 42.192ZM85.2483 40.912C86.8003 40.912 87.7123 39.728 87.7123 37.76C87.7123 35.792 86.8003 34.608 85.2483 34.608C83.6803 34.608 82.7682 35.792 82.7682 37.76C82.7682 39.728 83.6803 40.912 85.2483 40.912ZM94.2639 42.192C91.8959 42.192 90.3759 40.448 90.3759 37.76C90.3759 35.072 91.8959 33.328 94.2639 33.328C96.2159 33.328 97.5759 34.384 97.8639 36.272L96.4559 36.368C96.2639 35.248 95.4159 34.608 94.2639 34.608C92.6959 34.608 91.7839 35.792 91.7839 37.76C91.7839 39.728 92.6959 40.912 94.2639 40.912C95.4159 40.912 96.2639 40.272 96.4559 38.992L97.8639 39.088C97.5759 40.976 96.2159 42.192 94.2639 42.192ZM102.037 42.192C100.277 42.192 99.1728 41.344 99.1728 39.888C99.1728 38.448 99.9888 37.648 101.845 37.296L104.853 36.736C104.853 35.312 104.181 34.608 102.837 34.608C101.653 34.608 100.997 35.152 100.741 36.128L99.3168 36.016C99.6368 34.416 100.917 33.328 102.837 33.328C105.013 33.328 106.197 34.64 106.197 36.784V40.288C106.197 40.672 106.325 40.816 106.645 40.816H106.981V42C106.885 42.016 106.677 42.032 106.469 42.032C105.445 42.032 104.981 41.632 104.869 40.688C104.453 41.568 103.285 42.192 102.037 42.192ZM102.165 41.008C103.861 41.008 104.853 39.92 104.853 38.512V37.904L102.101 38.416C100.949 38.624 100.581 39.056 100.581 39.76C100.581 40.56 101.173 41.008 102.165 41.008ZM110.069 42C109.077 42 108.405 41.52 108.405 40.4V30.64H109.749V40.288C109.749 40.64 109.925 40.816 110.277 40.816H111.013V42H110.069ZM112.514 32.192V30.624H113.922V32.192H112.514ZM112.546 42V33.52H113.89V42H112.546ZM116.084 42V40.656L121.444 34.704H116.244V33.52H122.916V34.864L117.556 40.816H123.044V42H116.084ZM127.287 42.192C125.527 42.192 124.423 41.344 124.423 39.888C124.423 38.448 125.239 37.648 127.095 37.296L130.103 36.736C130.103 35.312 129.431 34.608 128.087 34.608C126.903 34.608 126.247 35.152 125.991 36.128L124.567 36.016C124.887 34.416 126.167 33.328 128.087 33.328C130.263 33.328 131.447 34.64 131.447 36.784V40.288C131.447 40.672 131.575 40.816 131.895 40.816H132.231V42C132.135 42.016 131.927 42.032 131.719 42.032C130.695 42.032 130.231 41.632 130.119 40.688C129.703 41.568 128.535 42.192 127.287 42.192ZM127.415 41.008C129.111 41.008 130.103 39.92 130.103 38.512V37.904L127.351 38.416C126.199 38.624 125.831 39.056 125.831 39.76C125.831 40.56 126.423 41.008 127.415 41.008ZM133.749 42V33.52H134.933L134.981 35.088C135.285 34.016 135.957 33.52 136.997 33.52H137.829V34.8H137.013C135.733 34.8 135.093 35.488 135.093 36.88V42H133.749ZM142.483 42.192C140.083 42.192 138.595 40.448 138.595 37.76C138.595 35.072 140.083 33.328 142.419 33.328C144.627 33.328 146.163 34.928 146.163 37.776V38.176H140.003C140.099 40 141.011 40.912 142.483 40.912C143.587 40.912 144.307 40.352 144.595 39.488L146.035 39.6C145.587 41.12 144.275 42.192 142.483 42.192ZM140.003 36.992H144.691C144.563 35.36 143.667 34.608 142.419 34.608C141.107 34.608 140.227 35.424 140.003 36.992Z" fill="#64748B"/>
<path d="M73.288 71V61.06H74.492V65.414H79.49V61.06H80.694V71H79.49V66.59H74.492V71H73.288ZM84.9658 71.168C83.4258 71.168 82.4598 70.426 82.4598 69.152C82.4598 67.892 83.1738 67.192 84.7978 66.884L87.4298 66.394C87.4298 65.148 86.8418 64.532 85.6658 64.532C84.6298 64.532 84.0558 65.008 83.8318 65.862L82.5858 65.764C82.8658 64.364 83.9858 63.412 85.6658 63.412C87.5698 63.412 88.6058 64.56 88.6058 66.436V69.502C88.6058 69.838 88.7178 69.964 88.9978 69.964H89.2918V71C89.2078 71.014 89.0258 71.028 88.8438 71.028C87.9478 71.028 87.5418 70.678 87.4438 69.852C87.0798 70.622 86.0578 71.168 84.9658 71.168ZM85.0778 70.132C86.5618 70.132 87.4298 69.18 87.4298 67.948V67.416L85.0218 67.864C84.0138 68.046 83.6917 68.424 83.6917 69.04C83.6917 69.74 84.2098 70.132 85.0778 70.132ZM91.994 71C91.126 71 90.538 70.58 90.538 69.6V61.06H91.714V69.502C91.714 69.81 91.868 69.964 92.176 69.964H92.82V71H91.994ZM96.2724 71.168C94.7324 71.168 93.7664 70.426 93.7664 69.152C93.7664 67.892 94.4804 67.192 96.1044 66.884L98.7364 66.394C98.7364 65.148 98.1484 64.532 96.9724 64.532C95.9364 64.532 95.3624 65.008 95.1384 65.862L93.8924 65.764C94.1724 64.364 95.2924 63.412 96.9724 63.412C98.8764 63.412 99.9124 64.56 99.9124 66.436V69.502C99.9124 69.838 100.024 69.964 100.304 69.964H100.598V71C100.514 71.014 100.332 71.028 100.15 71.028C99.2544 71.028 98.8484 70.678 98.7504 69.852C98.3864 70.622 97.3644 71.168 96.2724 71.168ZM96.3844 70.132C97.8684 70.132 98.7364 69.18 98.7364 67.948V67.416L96.3284 67.864C95.3204 68.046 94.9984 68.424 94.9984 69.04C94.9984 69.74 95.5164 70.132 96.3844 70.132ZM106.993 71V63.636H104.921V62.6H105.761C106.853 62.6 107.245 62.236 107.245 61.06H108.197V71H106.993Z" fill="#64748B"/>
<path d="M124 70L128 66L124 62" stroke="#64748B" stroke-linecap="round" stroke-linejoin="round"/>
<path d="M142.392 71V69.768L147.712 62.236H142.574V61.06H149.084V62.292L143.764 69.824H149.224V71H142.392ZM153.182 71.168C151.124 71.168 149.78 69.656 149.78 67.29C149.78 64.924 151.124 63.412 153.182 63.412C155.226 63.412 156.57 64.924 156.57 67.29C156.57 69.656 155.226 71.168 153.182 71.168ZM153.182 70.048C154.54 70.048 155.338 69.012 155.338 67.29C155.338 65.568 154.54 64.532 153.182 64.532C151.81 64.532 151.012 65.568 151.012 67.29C151.012 69.012 151.81 70.048 153.182 70.048ZM158.173 71V63.58H159.251L159.279 64.91C159.671 63.888 160.539 63.412 161.561 63.412C163.255 63.412 164.067 64.658 164.067 66.226V71H162.891V66.562C162.891 65.19 162.429 64.448 161.309 64.448C160.161 64.448 159.349 65.19 159.349 66.562V71H158.173ZM168.173 71.168C166.633 71.168 165.667 70.426 165.667 69.152C165.667 67.892 166.381 67.192 168.005 66.884L170.637 66.394C170.637 65.148 170.049 64.532 168.873 64.532C167.837 64.532 167.263 65.008 167.039 65.862L165.793 65.764C166.073 64.364 167.193 63.412 168.873 63.412C170.777 63.412 171.813 64.56 171.813 66.436V69.502C171.813 69.838 171.925 69.964 172.205 69.964H172.499V71C172.415 71.014 172.233 71.028 172.051 71.028C171.155 71.028 170.749 70.678 170.651 69.852C170.287 70.622 169.265 71.168 168.173 71.168ZM168.285 70.132C169.769 70.132 170.637 69.18 170.637 67.948V67.416L168.229 67.864C167.221 68.046 166.899 68.424 166.899 69.04C166.899 69.74 167.417 70.132 168.285 70.132ZM177.102 71C177.102 68.9 177.928 67.514 180.91 65.932C182.282 65.204 182.828 64.756 182.828 63.748C182.828 62.726 182.156 62.012 180.84 62.012C179.44 62.012 178.628 62.768 178.418 64.112L177.158 64.028C177.382 62.082 178.684 60.836 180.84 60.836C182.884 60.836 184.088 62.012 184.088 63.72C184.088 65.232 183.416 65.988 181.358 67.08C179.566 68.032 178.642 69.068 178.586 69.824H184.088V71H177.102Z" fill="#020617"/>
</g>
<defs>
<filter id="filter0_d_6852_17249" x="0" y="0" width="311" height="116" filterUnits="userSpaceOnUse" color-interpolation-filters="sRGB">
<feFlood flood-opacity="0" result="BackgroundImageFix"/>
<feColorMatrix in="SourceAlpha" type="matrix" values="0 0 0 0 0 0 0 0 0 0 0 0 0 0 0 0 0 0 127 0" result="hardAlpha"/>
<feOffset dx="8" dy="8"/>
<feGaussianBlur stdDeviation="8"/>
<feComposite in2="hardAlpha" operator="out"/>
<feColorMatrix type="matrix" values="0 0 0 0 0.0970139 0 0 0 0 0.127226 0 0 0 0 0.183333 0 0 0 0.25 0"/>
<feBlend mode="normal" in2="BackgroundImageFix" result="effect1_dropShadow_6852_17249"/>
<feBlend mode="normal" in="SourceGraphic" in2="effect1_dropShadow_6852_17249" result="shape"/>
</filter>
</defs>
</svg>
