<svg width="348" height="141" viewBox="0 0 348 141" fill="none" xmlns="http://www.w3.org/2000/svg">
<g opacity="0.1">
<path fill-rule="evenodd" clip-rule="evenodd" d="M89.8195 10.5181C89.8195 9.72931 90.459 9.08984 91.2478 9.08984H340.059C343.907 9.08984 346.867 12.4898 346.338 16.3008L340.175 60.6735C339.74 63.8074 337.061 66.1405 333.897 66.1405H89.8195V17.5839L93.9983 13.8346L90.7731 12.698C90.2017 12.4967 89.8195 11.9568 89.8195 11.3509V10.5181Z" fill="#3B82F6"/>
<path d="M69.9009 71.3223H332.222C336.065 71.3223 339.024 74.7146 338.502 78.5221L332.311 123.69C331.881 126.828 329.199 129.168 326.031 129.168H69.9009V71.3223Z" fill="white"/>
<path d="M72.6561 127.759C105.225 127.759 131.627 101.357 131.627 68.788C131.627 36.2194 105.225 9.81738 72.6561 9.81738C40.0876 9.81738 13.6855 36.2194 13.6855 68.788C13.6855 101.357 40.0876 127.759 72.6561 127.759Z" fill="#3B82F6"/>
<path d="M141.306 57.8174L147.005 17.1117H162.619C164.828 17.1117 166.747 17.6641 168.375 18.769C170.004 19.8739 171.205 21.3567 171.981 23.2175C172.776 25.059 173.018 27.104 172.708 29.3525C172.456 31.1939 171.884 32.89 170.992 34.4407C170.101 35.972 168.976 37.2998 167.619 38.424C166.282 39.5483 164.789 40.4012 163.142 40.9827L170.556 57.8174H162.386L155.233 41.6223H150.668L148.401 57.8174H141.306ZM151.657 34.5279H159.362C160.37 34.5279 161.32 34.2759 162.211 33.7719C163.122 33.268 163.888 32.5895 164.508 31.7367C165.148 30.8838 165.536 29.934 165.671 28.8873C165.827 27.8212 165.71 26.8617 165.323 26.0088C164.954 25.1559 164.382 24.4775 163.607 23.9735C162.851 23.4695 161.969 23.2175 160.961 23.2175H153.256L151.657 34.5279ZM194.288 17.1117H202.458L211.558 57.8174H204.028L202.4 50.6067H184.983L181.349 57.8174H173.818L194.288 17.1117ZM188.589 43.5122H200.801L197.021 26.7357L188.589 43.5122ZM216.437 57.8174L222.136 17.1117H235.627C238.437 17.1117 240.996 17.6447 243.303 18.7108C245.609 19.7576 247.567 21.221 249.176 23.1012C250.785 24.9621 251.938 27.1233 252.636 29.5851C253.353 32.0274 253.518 34.6539 253.13 37.4645C252.742 40.2752 251.841 42.9113 250.426 45.3731C249.03 47.8154 247.267 49.9767 245.134 51.8569C243.021 53.7177 240.657 55.1812 238.04 56.2473C235.442 57.294 232.738 57.8174 229.928 57.8174H216.437ZM224.52 50.723H230.916C232.719 50.723 234.464 50.3837 236.15 49.7053C237.856 49.0075 239.406 48.0577 240.802 46.8559C242.198 45.6347 243.351 44.2294 244.262 42.64C245.173 41.0311 245.764 39.306 246.036 37.4645C246.288 35.6231 246.171 33.9076 245.687 32.3182C245.222 30.7287 244.466 29.3234 243.419 28.1022C242.372 26.8811 241.093 25.9313 239.581 25.2528C238.088 24.555 236.431 24.2061 234.609 24.2061H228.241L224.52 50.723ZM271.747 17.1117H279.917L289.017 57.8174H281.487L279.859 50.6067H262.442L258.808 57.8174H251.277L271.747 17.1117ZM266.048 43.5122H278.259L274.48 26.7357L266.048 43.5122ZM293.896 57.8174L299.595 17.1117H315.208C317.418 17.1117 319.337 17.6641 320.965 18.769C322.593 19.8739 323.795 21.3567 324.57 23.2175C325.365 25.059 325.607 27.104 325.297 29.3525C325.045 31.1939 324.473 32.89 323.582 34.4407C322.69 35.972 321.566 37.2998 320.209 38.424C318.872 39.5483 317.379 40.4012 315.731 40.9827L323.146 57.8174H314.975L307.823 41.6223H303.258L300.99 57.8174H293.896ZM304.247 34.5279H311.952C312.96 34.5279 313.909 34.2759 314.801 33.7719C315.712 33.268 316.478 32.5895 317.098 31.7367C317.738 30.8838 318.125 29.934 318.261 28.8873C318.416 27.8212 318.3 26.8617 317.912 26.0088C317.544 25.1559 316.972 24.4775 316.197 23.9735C315.441 23.4695 314.559 23.2175 313.551 23.2175H305.846L304.247 34.5279Z" fill="white"/>
<path d="M134.845 112.62L138.338 87.6694H146.607C148.33 87.6694 149.898 87.9961 151.312 88.6496C152.726 89.2912 153.926 90.1882 154.912 91.3407C155.898 92.4813 156.605 93.8061 157.033 95.315C157.473 96.8121 157.574 98.422 157.336 100.145C157.098 101.868 156.546 103.483 155.679 104.992C154.823 106.489 153.742 107.814 152.435 108.967C151.14 110.107 149.69 111.004 148.086 111.658C146.494 112.299 144.837 112.62 143.114 112.62H134.845ZM139.799 108.272H143.72C144.825 108.272 145.894 108.064 146.928 107.648C147.974 107.22 148.924 106.638 149.78 105.901C150.635 105.153 151.342 104.291 151.9 103.317C152.459 102.331 152.821 101.273 152.987 100.145C153.142 99.016 153.071 97.9645 152.774 96.9903C152.488 96.016 152.025 95.1546 151.383 94.4061C150.742 93.6576 149.958 93.0754 149.031 92.6595C148.116 92.2318 147.1 92.0179 145.983 92.0179H142.08L139.799 108.272ZM167.321 87.6694H172.329L177.908 112.62H173.292L172.294 108.2H161.618L159.391 112.62H154.775L167.321 87.6694ZM163.828 103.852H171.313L168.997 93.5685L163.828 103.852ZM170.066 86.1011C168.985 86.1011 168.034 85.8337 167.214 85.2991C166.395 84.7644 165.777 84.0515 165.361 83.1604C164.957 82.2575 164.826 81.2654 164.969 80.1842H167.678C167.606 80.7664 167.678 81.301 167.892 81.7881C168.117 82.2753 168.456 82.6674 168.907 82.9644C169.359 83.2496 169.87 83.3921 170.44 83.3921C171.022 83.3921 171.575 83.2496 172.098 82.9644C172.632 82.6792 173.078 82.2931 173.434 81.806C173.791 81.3188 174.01 80.7782 174.094 80.1842H176.803C176.648 81.2891 176.238 82.2931 175.573 83.1961C174.919 84.0872 174.106 84.7941 173.131 85.3169C172.169 85.8397 171.147 86.1011 170.066 86.1011ZM188.981 113.083C186.985 113.083 185.304 112.596 183.937 111.622C182.571 110.648 181.585 109.341 180.979 107.701C180.385 106.05 180.231 104.22 180.516 102.212L182.547 87.6694H186.896L184.864 102.212C184.698 103.4 184.763 104.493 185.06 105.491C185.369 106.477 185.898 107.268 186.646 107.862C187.407 108.444 188.387 108.735 189.587 108.735C190.799 108.735 191.862 108.444 192.777 107.862C193.704 107.268 194.452 106.477 195.023 105.491C195.593 104.493 195.961 103.4 196.128 102.212L198.159 87.6694H202.508L200.476 102.212C200.262 103.721 199.823 105.135 199.157 106.454C198.504 107.761 197.666 108.913 196.645 109.911C195.635 110.909 194.476 111.687 193.169 112.246C191.874 112.804 190.478 113.083 188.981 113.083ZM201.438 112.62L204.931 87.6694H209.636L217.78 104.761L220.168 87.6694H224.517L221.024 112.62H216.337L208.174 95.5289L205.786 112.62H201.438ZM235.724 87.6694H240.732L246.31 112.62H241.695L240.696 108.2H230.021L227.793 112.62H223.178L235.724 87.6694ZM232.231 103.852H239.716L237.399 93.5685L232.231 103.852ZM238.469 86.1011C237.388 86.1011 236.437 85.8337 235.617 85.2991C234.797 84.7644 234.18 84.0515 233.764 83.1604C233.36 82.2575 233.229 81.2654 233.372 80.1842H236.081C236.009 80.7664 236.081 81.301 236.294 81.7881C236.52 82.2753 236.859 82.6674 237.31 82.9644C237.762 83.2496 238.273 83.3921 238.843 83.3921C239.425 83.3921 239.978 83.2496 240.5 82.9644C241.035 82.6792 241.481 82.2931 241.837 81.806C242.194 81.3188 242.413 80.7782 242.497 80.1842H245.205C245.051 81.2891 244.641 82.2931 243.976 83.1961C243.322 84.0872 242.508 84.7941 241.534 85.3169C240.572 85.8397 239.55 86.1011 238.469 86.1011ZM267.405 87.6694L266.781 92.0179H259.153L256.284 112.62H251.935L254.805 92.0179H247.195L247.801 87.6694H267.405ZM276.132 113.083C274.445 113.083 272.9 112.751 271.498 112.085C270.108 111.408 268.932 110.476 267.97 109.287C267.019 108.099 266.33 106.727 265.902 105.171C265.486 103.602 265.403 101.927 265.653 100.145C265.902 98.3626 266.455 96.6932 267.31 95.1368C268.166 93.5685 269.241 92.1902 270.536 91.0021C271.843 89.814 273.287 88.8872 274.867 88.2219C276.447 87.5446 278.081 87.206 279.768 87.206C281.467 87.206 283.011 87.5446 284.401 88.2219C285.792 88.8872 286.962 89.814 287.912 91.0021C288.875 92.1902 289.564 93.5685 289.98 95.1368C290.407 96.6932 290.497 98.3626 290.247 100.145C289.998 101.927 289.445 103.602 288.59 105.171C287.734 106.727 286.653 108.099 285.346 109.287C284.051 110.476 282.613 111.408 281.033 112.085C279.465 112.751 277.831 113.083 276.132 113.083ZM276.738 108.735C277.831 108.735 278.889 108.509 279.91 108.058C280.944 107.606 281.877 106.988 282.708 106.204C283.552 105.408 284.253 104.493 284.811 103.46C285.37 102.426 285.732 101.321 285.899 100.145C286.065 98.9685 286.011 97.8635 285.738 96.8299C285.477 95.7843 285.037 94.8695 284.419 94.0853C283.801 93.3011 283.041 92.6833 282.138 92.2318C281.247 91.7803 280.255 91.5546 279.162 91.5546C278.069 91.5546 277.005 91.7803 275.972 92.2318C274.95 92.6833 274.017 93.3071 273.174 94.1031C272.342 94.8873 271.647 95.7962 271.088 96.8299C270.53 97.8635 270.168 98.9685 270.001 100.145C269.835 101.333 269.883 102.444 270.144 103.477C270.417 104.511 270.863 105.426 271.481 106.222C272.098 107.006 272.853 107.624 273.744 108.076C274.647 108.515 275.645 108.735 276.738 108.735ZM290.309 112.62L293.802 87.6694H303.373C304.727 87.6694 305.903 88.008 306.901 88.6852C307.899 89.3625 308.636 90.2714 309.111 91.412C309.598 92.5407 309.747 93.7942 309.557 95.1724C309.402 96.3012 309.052 97.3408 308.505 98.2913C307.959 99.2299 307.27 100.044 306.438 100.733C305.618 101.422 304.703 101.945 303.693 102.301L308.238 112.62H303.23L298.846 102.693H296.048L294.658 112.62H290.309ZM296.654 98.3447H301.377C301.994 98.3447 302.577 98.1903 303.123 97.8814C303.682 97.5725 304.151 97.1566 304.531 96.6338C304.923 96.1111 305.161 95.5289 305.244 94.8873C305.339 94.2338 305.268 93.6457 305.03 93.1229C304.804 92.6001 304.454 92.1843 303.979 91.8754C303.515 91.5665 302.975 91.412 302.357 91.412H297.634L296.654 98.3447ZM310.756 112.62L314.249 87.6694H318.597L315.104 112.62H310.756Z" fill="#3B82F6"/>
<path d="M72.6561 9.81738C40.0876 9.81738 13.6855 36.2194 13.6855 68.788C13.6855 101.357 40.0876 127.759 72.6561 127.759C103.355 127.759 128.574 104.302 131.369 74.3336" stroke="white" stroke-width="2.74282" stroke-linecap="round" stroke-linejoin="round"/>
<path d="M72.6532 112.997C97.072 112.997 116.867 93.2014 116.867 68.7826C116.867 44.3637 97.072 24.5684 72.6532 24.5684C48.2344 24.5684 28.439 44.3637 28.439 68.7826C28.439 93.2014 48.2344 112.997 72.6532 112.997Z" stroke="white" stroke-width="2.74282" stroke-linecap="round" stroke-linejoin="round"/>
<path d="M1.33887 72.6521H47.9377M131.816 72.6521H98.7971M73.2343 1.33887V32.9895M73.2343 138.966V104.122" stroke="white" stroke-width="2.67803" stroke-linecap="round" stroke-linejoin="round"/>
<path d="M40.6169 44.1841C43.7722 44.1841 46.3301 41.6262 46.3301 38.4709C46.3301 35.3157 43.7722 32.7578 40.6169 32.7578C37.4617 32.7578 34.9038 35.3157 34.9038 38.4709C34.9038 41.6262 37.4617 44.1841 40.6169 44.1841Z" fill="white" stroke="#3B82F6" stroke-width="1.42828" stroke-linecap="round" stroke-linejoin="round"/>
<path d="M28.115 113.102C31.2703 113.102 33.8281 110.544 33.8281 107.389C33.8281 104.234 31.2703 101.676 28.115 101.676C24.9597 101.676 22.4019 104.234 22.4019 107.389C22.4019 110.544 24.9597 113.102 28.115 113.102Z" fill="white" stroke="#3B82F6" stroke-width="1.42828" stroke-linecap="round" stroke-linejoin="round"/>
<path d="M114.525 59.893C117.68 59.893 120.238 57.3352 120.238 54.1799C120.238 51.0247 117.68 48.4668 114.525 48.4668C111.37 48.4668 108.812 51.0247 108.812 54.1799C108.812 57.3352 111.37 59.893 114.525 59.893Z" fill="white" stroke="#3B82F6" stroke-width="1.42828" stroke-linecap="round" stroke-linejoin="round"/>
<path d="M76.7881 39.376C80.0841 39.376 83.0856 40.1915 85.7646 41.835C88.4503 43.4657 90.5786 45.6781 92.1396 48.4551C93.7413 51.2262 94.5352 54.3177 94.5352 57.7031C94.5351 60.6676 93.9492 63.3965 92.7617 65.8721C91.583 68.3293 89.9557 70.3985 87.8818 72.0654L87.8799 72.0674C86.201 73.4118 84.331 74.4123 82.2783 75.0723L95.7686 98.5488C95.9589 98.8803 95.958 99.2883 95.7666 99.6191C95.5751 99.95 95.2212 100.154 94.8389 100.154H86.752C86.3696 100.154 86.0157 99.9501 85.8242 99.6191L72.21 76.0713H64.3525V99.083C64.3523 99.6744 63.8726 100.154 63.2812 100.154H56.2773C55.6859 100.154 55.2063 99.6744 55.2061 99.083V40.4473C55.2061 39.8557 55.6857 39.376 56.2773 39.376H76.7881ZM64.3525 66.8926H76.0801C77.7836 66.8925 79.331 66.4803 80.7441 65.6602C82.1707 64.8044 83.2895 63.6665 84.1143 62.2354L84.1172 62.2305C84.9595 60.7868 85.3886 59.1609 85.3887 57.3262C85.3887 55.4603 84.959 53.8373 84.1221 52.4277C84.1184 52.4215 84.1139 52.4155 84.1104 52.4092C83.2852 50.9523 82.1693 49.8205 80.752 48.9961L80.7402 48.9893C79.3266 48.1421 77.7806 47.7169 76.0801 47.7168H64.3525V66.8926Z" fill="#3B82F6" stroke="white" stroke-width="2.14242" stroke-linejoin="round"/>
</g>
</svg>
