<svg width="400" height="192" viewBox="0 0 400 192" fill="none" xmlns="http://www.w3.org/2000/svg">
<g filter="url(#filter0_d_6852_17308)">
<g clip-path="url(#clip0_6852_17308)">
<rect x="8" y="8.38281" width="367.534" height="158.997" rx="5.66163" fill="#FDFDFD"/>
<mask id="path-3-inside-1_6852_17308" fill="white">
<path d="M8 8.38281H191.767V49.5011H8V8.38281Z"/>
</mask>
<path d="M191.767 49.0293H8V49.9729H191.767V49.0293Z" fill="#E2E8F0" mask="url(#path-3-inside-1_6852_17308)"/>
<path d="M22.1314 26.8268C20.6669 26.8268 19.6478 25.7851 19.6478 24.0338C19.6478 22.3126 20.6367 21.2256 22.139 21.2256C23.5053 21.2256 24.2375 21.9427 24.4716 23.1581L23.4449 23.2109C23.309 22.5089 22.8787 22.0786 22.139 22.0786C21.2255 22.0786 20.6594 22.841 20.6594 24.0338C20.6594 25.2416 21.2406 25.9738 22.1314 25.9738C22.9316 25.9738 23.3543 25.5133 23.4751 24.7434L24.5017 24.7962C24.2904 26.0569 23.4827 26.8268 22.1314 26.8268ZM26.4327 26.7966C25.5872 26.7966 25.0286 26.3966 25.0286 25.6945C25.0286 25 25.4589 24.6301 26.3421 24.4565L27.6783 24.1923C27.6783 23.6261 27.4141 23.3317 26.9007 23.3317C26.4327 23.3317 26.1685 23.5506 26.0779 23.9583L25.0966 23.913C25.2551 23.0675 25.9043 22.5844 26.9007 22.5844C28.0482 22.5844 28.6445 23.1883 28.6445 24.2602V25.7247C28.6445 25.9436 28.72 26.004 28.871 26.004H28.9993V26.7061C28.9314 26.7212 28.7804 26.7363 28.6445 26.7363C28.2067 26.7363 27.8821 26.5777 27.8066 26.087C27.6028 26.5173 27.0895 26.7966 26.4327 26.7966ZM26.629 26.0946C27.2706 26.0946 27.6783 25.687 27.6783 25.0755V24.849L26.6365 25.0604C26.2062 25.1434 26.0326 25.3246 26.0326 25.6039C26.0326 25.921 26.244 26.0946 26.629 26.0946ZM29.6268 26.7061V22.675H30.5025L30.5251 23.3619C30.744 22.8109 31.197 22.5844 31.7329 22.5844C32.6237 22.5844 33.1068 23.2109 33.1068 24.1168V26.7061H32.1406V24.4263C32.1406 23.7469 31.9594 23.3695 31.4385 23.3695C30.9177 23.3695 30.5931 23.7469 30.5931 24.4263V26.7061H29.6268ZM35.4959 26.7061C34.6957 26.7061 34.3258 26.3513 34.3258 25.5511V23.4223H33.6917V22.675H34.3258V21.7314H35.292V22.675H36.3564V23.4223H35.292V25.4605C35.292 25.8379 35.4506 25.9587 35.7903 25.9587H36.3564V26.7061H35.4959ZM37.05 22.139V21.2784H38.054V22.139H37.05ZM37.0651 26.7061V22.675H38.0313V26.7061H37.0651ZM40.4572 26.7061C39.657 26.7061 39.2871 26.3513 39.2871 25.5511V23.4223H38.653V22.675H39.2871V21.7314H40.2533V22.675H41.3177V23.4223H40.2533V25.4605C40.2533 25.8379 40.4119 25.9587 40.7516 25.9587H41.3177V26.7061H40.4572ZM43.1743 26.7966C42.3289 26.7966 41.7702 26.3966 41.7702 25.6945C41.7702 25 42.2005 24.6301 43.0837 24.4565L44.4199 24.1923C44.4199 23.6261 44.1557 23.3317 43.6424 23.3317C43.1743 23.3317 42.9101 23.5506 42.8195 23.9583L41.8382 23.913C41.9967 23.0675 42.6459 22.5844 43.6424 22.5844C44.7898 22.5844 45.3861 23.1883 45.3861 24.2602V25.7247C45.3861 25.9436 45.4616 26.004 45.6126 26.004H45.7409V26.7061C45.673 26.7212 45.522 26.7363 45.3861 26.7363C44.9483 26.7363 44.6237 26.5777 44.5482 26.087C44.3444 26.5173 43.8311 26.7966 43.1743 26.7966ZM43.3706 26.0946C44.0123 26.0946 44.4199 25.687 44.4199 25.0755V24.849L43.3781 25.0604C42.9479 25.1434 42.7742 25.3246 42.7742 25.6039C42.7742 25.921 42.9856 26.0946 43.3706 26.0946ZM47.7775 26.7061C46.9773 26.7061 46.6074 26.3513 46.6074 25.5511V23.4223H45.9733V22.675H46.6074V21.7314H47.5737V22.675H48.638V23.4223H47.5737V25.4605C47.5737 25.8379 47.7322 25.9587 48.0719 25.9587H48.638V26.7061H47.7775ZM51.0241 26.7966C49.8163 26.7966 49.0463 25.9663 49.0463 24.6905C49.0463 23.4223 49.8163 22.5844 51.0015 22.5844C52.1564 22.5844 52.9113 23.3846 52.9113 24.7434V24.9623H50.0503C50.0805 25.6719 50.4504 26.0267 51.0317 26.0267C51.462 26.0267 51.7488 25.8228 51.8696 25.468L52.8585 25.5284C52.6396 26.3135 51.9526 26.7966 51.0241 26.7966ZM50.0503 24.3131H51.9149C51.8696 23.6563 51.5148 23.3468 51.0015 23.3468C50.4806 23.3468 50.1258 23.6865 50.0503 24.3131ZM55.5243 26.7061V22.675H56.4L56.4227 23.3468C56.6265 22.8637 57.0341 22.5844 57.5323 22.5844C58.1211 22.5844 58.5288 22.8939 58.7024 23.4148C58.8836 22.8788 59.2988 22.5844 59.8574 22.5844C60.6878 22.5844 61.2011 23.1204 61.2011 24.1168V26.7061H60.2348V24.3659C60.2348 23.7016 60.0159 23.3695 59.5479 23.3695C59.0874 23.3695 58.8081 23.7469 58.8081 24.3961V26.7061H57.9098V24.3961C57.9098 23.7394 57.7286 23.3695 57.2379 23.3695C56.7775 23.3695 56.4906 23.7545 56.4906 24.3961V26.7061H55.5243ZM63.9104 26.7966C62.7101 26.7966 61.9251 25.9663 61.9251 24.6905C61.9251 23.4148 62.7101 22.5844 63.9104 22.5844C65.1031 22.5844 65.8882 23.4148 65.8882 24.6905C65.8882 25.9663 65.1031 26.7966 63.9104 26.7966ZM63.9104 26.0116C64.5294 26.0116 64.8842 25.5284 64.8842 24.6905C64.8842 23.8601 64.5294 23.3695 63.9104 23.3695C63.2838 23.3695 62.9291 23.8601 62.9291 24.6905C62.9291 25.5284 63.2838 26.0116 63.9104 26.0116ZM66.6338 26.7061V22.675H67.5095L67.5321 23.3468C67.736 22.8637 68.1436 22.5844 68.6418 22.5844C69.2306 22.5844 69.6383 22.8939 69.8119 23.4148C69.9931 22.8788 70.4082 22.5844 70.9669 22.5844C71.7972 22.5844 72.3105 23.1204 72.3105 24.1168V26.7061H71.3443V24.3659C71.3443 23.7016 71.1254 23.3695 70.6574 23.3695C70.1969 23.3695 69.9176 23.7469 69.9176 24.3961V26.7061H69.0193V24.3961C69.0193 23.7394 68.8381 23.3695 68.3474 23.3695C67.8869 23.3695 67.6001 23.7545 67.6001 24.3961V26.7061H66.6338ZM75.0123 26.7966C73.8045 26.7966 73.0345 25.9663 73.0345 24.6905C73.0345 23.4223 73.8045 22.5844 74.9897 22.5844C76.1447 22.5844 76.8995 23.3846 76.8995 24.7434V24.9623H74.0385C74.0687 25.6719 74.4386 26.0267 75.0199 26.0267C75.4502 26.0267 75.737 25.8228 75.8578 25.468L76.8467 25.5284C76.6278 26.3135 75.9408 26.7966 75.0123 26.7966ZM74.0385 24.3131H75.9031C75.8578 23.6563 75.503 23.3468 74.9897 23.3468C74.4688 23.3468 74.114 23.6865 74.0385 24.3131ZM78.8839 26.7966C78.0384 26.7966 77.4798 26.3966 77.4798 25.6945C77.4798 25 77.9101 24.6301 78.7933 24.4565L80.1294 24.1923C80.1294 23.6261 79.8652 23.3317 79.3519 23.3317C78.8839 23.3317 78.6197 23.5506 78.5291 23.9583L77.5477 23.913C77.7063 23.0675 78.3555 22.5844 79.3519 22.5844C80.4993 22.5844 81.0957 23.1883 81.0957 24.2602V25.7247C81.0957 25.9436 81.1712 26.004 81.3222 26.004H81.4505V26.7061C81.3825 26.7212 81.2316 26.7363 81.0957 26.7363C80.6579 26.7363 80.3333 26.5777 80.2578 26.087C80.0539 26.5173 79.5406 26.7966 78.8839 26.7966ZM79.0801 26.0946C79.7218 26.0946 80.1294 25.687 80.1294 25.0755V24.849L79.0877 25.0604C78.6574 25.1434 78.4838 25.3246 78.4838 25.6039C78.4838 25.921 78.6952 26.0946 79.0801 26.0946ZM82.9853 26.7061C82.3964 26.7061 82.019 26.4267 82.019 25.7549V21.3464H82.9853V25.6568C82.9853 25.8681 83.0909 25.9587 83.2872 25.9587H83.5816V26.7061H82.9853ZM85.9061 22.2145C85.2342 22.2145 84.7964 21.8144 84.7662 21.1501H85.3475C85.3927 21.4974 85.589 21.6408 85.9061 21.6408C86.2231 21.6408 86.4269 21.4974 86.4647 21.1501H87.0459C87.0157 21.8144 86.5855 22.2145 85.9061 22.2145ZM85.4154 26.7966C84.5699 26.7966 84.0113 26.3966 84.0113 25.6945C84.0113 25 84.4416 24.6301 85.3248 24.4565L86.661 24.1923C86.661 23.6261 86.3967 23.3317 85.8834 23.3317C85.4154 23.3317 85.1512 23.5506 85.0606 23.9583L84.0792 23.913C84.2378 23.0675 84.887 22.5844 85.8834 22.5844C87.0308 22.5844 87.6272 23.1883 87.6272 24.2602V25.7247C87.6272 25.9436 87.7027 26.004 87.8537 26.004H87.982V26.7061C87.9141 26.7212 87.7631 26.7363 87.6272 26.7363C87.1894 26.7363 86.8648 26.5777 86.7893 26.087C86.5855 26.5173 86.0721 26.7966 85.4154 26.7966ZM85.6117 26.0946C86.2533 26.0946 86.661 25.687 86.661 25.0755V24.849L85.6192 25.0604C85.1889 25.1434 85.0153 25.3246 85.0153 25.6039C85.0153 25.921 85.2267 26.0946 85.6117 26.0946ZM92.1596 26.7966C90.9593 26.7966 90.1742 25.9663 90.1742 24.6905C90.1742 23.4223 90.9593 22.5844 92.1596 22.5844C93.1787 22.5844 93.9185 23.143 94.0392 24.1017L93.0428 24.1545C92.9597 23.6412 92.6276 23.3695 92.1596 23.3695C91.533 23.3695 91.1782 23.8601 91.1782 24.6905C91.1782 25.5284 91.533 26.0116 92.1596 26.0116C92.6276 26.0116 92.9673 25.7398 93.0428 25.1736L94.0392 25.2189C93.926 26.1852 93.1938 26.7966 92.1596 26.7966ZM96.4648 26.7966C95.2645 26.7966 94.4794 25.9663 94.4794 24.6905C94.4794 23.4148 95.2645 22.5844 96.4648 22.5844C97.6575 22.5844 98.4426 23.4148 98.4426 24.6905C98.4426 25.9663 97.6575 26.7966 96.4648 26.7966ZM96.4648 26.0116C97.0838 26.0116 97.4386 25.5284 97.4386 24.6905C97.4386 23.8601 97.0838 23.3695 96.4648 23.3695C95.8382 23.3695 95.4834 23.8601 95.4834 24.6905C95.4834 25.5284 95.8382 26.0116 96.4648 26.0116ZM99.1882 26.7061V22.675H100.064L100.087 23.3619C100.305 22.8109 100.758 22.5844 101.294 22.5844C102.185 22.5844 102.668 23.2109 102.668 24.1168V26.7061H101.702V24.4263C101.702 23.7469 101.521 23.3695 101 23.3695C100.479 23.3695 100.154 23.7469 100.154 24.4263V26.7061H99.1882ZM105.264 26.7966C104.071 26.7966 103.452 26.2305 103.392 25.4378L104.381 25.3926C104.449 25.8153 104.713 26.0569 105.272 26.0569C105.717 26.0569 105.996 25.921 105.996 25.6039C105.996 25.3322 105.853 25.2114 105.113 25.0831C103.875 24.8717 103.49 24.5395 103.49 23.8526C103.49 23.1053 104.071 22.5844 105.196 22.5844C106.283 22.5844 106.842 23.1656 106.948 23.9432L105.974 23.9885C105.906 23.5808 105.634 23.3242 105.181 23.3242C104.728 23.3242 104.494 23.528 104.494 23.8224C104.494 24.147 104.706 24.2753 105.317 24.3735C106.585 24.5697 106.993 24.917 106.993 25.5888C106.993 26.3664 106.298 26.7966 105.264 26.7966ZM109.076 26.7966C108.253 26.7966 107.747 26.2305 107.747 25.2718V22.675H108.713V25.0302C108.713 25.7096 108.932 26.0116 109.4 26.0116C109.921 26.0116 110.223 25.6568 110.223 24.9925V22.675H111.189V26.7061H110.306L110.291 26.0493C110.08 26.54 109.664 26.7966 109.076 26.7966ZM112.251 26.7061V22.675H113.127L113.15 23.3468C113.353 22.8637 113.761 22.5844 114.259 22.5844C114.848 22.5844 115.256 22.8939 115.429 23.4148C115.61 22.8788 116.026 22.5844 116.584 22.5844C117.415 22.5844 117.928 23.1204 117.928 24.1168V26.7061H116.962V24.3659C116.962 23.7016 116.743 23.3695 116.275 23.3695C115.814 23.3695 115.535 23.7469 115.535 24.3961V26.7061H114.637V24.3961C114.637 23.7394 114.455 23.3695 113.965 23.3695C113.504 23.3695 113.217 23.7545 113.217 24.3961V26.7061H112.251ZM120.063 26.7966C119.218 26.7966 118.659 26.3966 118.659 25.6945C118.659 25 119.09 24.6301 119.973 24.4565L121.309 24.1923C121.309 23.6261 121.045 23.3317 120.531 23.3317C120.063 23.3317 119.799 23.5506 119.709 23.9583L118.727 23.913C118.886 23.0675 119.535 22.5844 120.531 22.5844C121.679 22.5844 122.275 23.1883 122.275 24.2602V25.7247C122.275 25.9436 122.351 26.004 122.502 26.004H122.63V26.7061C122.562 26.7212 122.411 26.7363 122.275 26.7363C121.837 26.7363 121.513 26.5777 121.437 26.087C121.233 26.5173 120.72 26.7966 120.063 26.7966ZM120.26 26.0946C120.901 26.0946 121.309 25.687 121.309 25.0755V24.849L120.267 25.0604C119.837 25.1434 119.663 25.3246 119.663 25.6039C119.663 25.921 119.875 26.0946 120.26 26.0946ZM124.667 26.7061C123.866 26.7061 123.496 26.3513 123.496 25.5511V23.4223H122.862V22.675H123.496V21.7314H124.463V22.675H125.527V23.4223H124.463V25.4605C124.463 25.8379 124.621 25.9587 124.961 25.9587H125.527V26.7061H124.667ZM127.874 22.2145C127.203 22.2145 126.765 21.8144 126.734 21.1501H127.316C127.361 21.4974 127.557 21.6408 127.874 21.6408C128.191 21.6408 128.395 21.4974 128.433 21.1501H129.014C128.984 21.8144 128.554 22.2145 127.874 22.2145ZM127.384 26.7966C126.538 26.7966 125.98 26.3966 125.98 25.6945C125.98 25 126.41 24.6301 127.293 24.4565L128.629 24.1923C128.629 23.6261 128.365 23.3317 127.852 23.3317C127.384 23.3317 127.119 23.5506 127.029 23.9583L126.048 23.913C126.206 23.0675 126.855 22.5844 127.852 22.5844C128.999 22.5844 129.596 23.1883 129.596 24.2602V25.7247C129.596 25.9436 129.671 26.004 129.822 26.004H129.95V26.7061C129.882 26.7212 129.731 26.7363 129.596 26.7363C129.158 26.7363 128.833 26.5777 128.758 26.087C128.554 26.5173 128.04 26.7966 127.384 26.7966ZM127.58 26.0946C128.222 26.0946 128.629 25.687 128.629 25.0755V24.849L127.588 25.0604C127.157 25.1434 126.984 25.3246 126.984 25.6039C126.984 25.921 127.195 26.0946 127.58 26.0946Z" fill="#020617"/>
<path d="M21.3841 35.2686C20.3084 35.2686 19.578 34.4759 19.578 33.1738C19.578 31.8716 20.3084 31.0676 21.3841 31.0676C22.3579 31.0676 22.8731 31.5942 23.0429 32.4377L22.5277 32.4717C22.4145 31.8999 22.0521 31.5432 21.3841 31.5432C20.6141 31.5432 20.0876 32.1547 20.0876 33.1738C20.0876 34.1929 20.6141 34.793 21.3841 34.793C22.0861 34.793 22.4598 34.4023 22.5617 33.7739L23.0769 33.8079C22.9297 34.6798 22.3466 35.2686 21.3841 35.2686ZM24.8847 35.2459C24.0525 35.2459 23.509 34.6345 23.509 33.6776C23.509 32.7208 24.0525 32.1094 24.8847 32.1094C25.7113 32.1094 26.2548 32.7208 26.2548 33.6776C26.2548 34.6345 25.7113 35.2459 24.8847 35.2459ZM24.8847 34.793C25.4339 34.793 25.7566 34.374 25.7566 33.6776C25.7566 32.9813 25.4339 32.5623 24.8847 32.5623C24.3299 32.5623 24.0072 32.9813 24.0072 33.6776C24.0072 34.374 24.3299 34.793 24.8847 34.793ZM26.903 35.178V32.1773H27.3389L27.3502 32.7038C27.4974 32.3358 27.8088 32.1094 28.1938 32.1094C28.6468 32.1094 28.9638 32.3358 29.094 32.7378C29.2242 32.3358 29.53 32.1094 29.9716 32.1094C30.6113 32.1094 30.9624 32.5227 30.9624 33.2474V35.178H30.4868V33.3493C30.4868 32.8058 30.2716 32.5283 29.8583 32.5283C29.4394 32.5283 29.1676 32.8454 29.1676 33.3832V35.178H28.692V33.3832C28.692 32.851 28.5165 32.5283 28.0749 32.5283C27.656 32.5283 27.3785 32.851 27.3785 33.3832V35.178H26.903ZM31.7574 36.0272V32.1773H32.199L32.2046 32.6359C32.3858 32.2905 32.7199 32.1094 33.1275 32.1094C34.022 32.1094 34.424 32.851 34.424 33.6776C34.424 34.5042 34.022 35.2459 33.1275 35.2459C32.7368 35.2459 32.3915 35.0704 32.233 34.7817V36.0272H31.7574ZM33.0822 34.793C33.6031 34.793 33.9258 34.3797 33.9258 33.6776C33.9258 32.9756 33.6031 32.5623 33.0822 32.5623C32.5613 32.5623 32.233 32.9416 32.233 33.6776C32.233 34.4137 32.5557 34.793 33.0822 34.793ZM35.9562 35.2459C35.3334 35.2459 34.9428 34.9459 34.9428 34.4306C34.9428 33.9211 35.2315 33.638 35.8883 33.5135L36.9527 33.3153C36.9527 32.8114 36.7149 32.5623 36.2393 32.5623C35.8203 32.5623 35.5882 32.7548 35.4976 33.1002L34.9937 33.0605C35.107 32.4944 35.5599 32.1094 36.2393 32.1094C37.0093 32.1094 37.4282 32.5736 37.4282 33.3323V34.5722C37.4282 34.7081 37.4735 34.759 37.5868 34.759H37.7057V35.178C37.6717 35.1836 37.5981 35.1893 37.5245 35.1893C37.1622 35.1893 36.998 35.0478 36.9583 34.7137C36.8111 35.0251 36.3978 35.2459 35.9562 35.2459ZM36.0015 34.827C36.6016 34.827 36.9527 34.442 36.9527 33.9437V33.7286L35.9789 33.9098C35.5712 33.9834 35.441 34.1362 35.441 34.3854C35.441 34.6684 35.6505 34.827 36.0015 34.827ZM38.2428 35.178V32.1773H38.6618L38.6788 32.7322C38.7863 32.3528 39.0241 32.1773 39.3921 32.1773H39.6865V32.6302H39.3978C38.9449 32.6302 38.7184 32.8737 38.7184 33.3663V35.178H38.2428ZM40.971 35.2459C40.3482 35.2459 39.9575 34.9459 39.9575 34.4306C39.9575 33.9211 40.2463 33.638 40.903 33.5135L41.9674 33.3153C41.9674 32.8114 41.7296 32.5623 41.2541 32.5623C40.8351 32.5623 40.603 32.7548 40.5124 33.1002L40.0085 33.0605C40.1217 32.4944 40.5747 32.1094 41.2541 32.1094C42.024 32.1094 42.443 32.5736 42.443 33.3323V34.5722C42.443 34.7081 42.4883 34.759 42.6015 34.759H42.7204V35.178C42.6864 35.1836 42.6128 35.1893 42.5392 35.1893C42.1769 35.1893 42.0127 35.0478 41.9731 34.7137C41.8259 35.0251 41.4126 35.2459 40.971 35.2459ZM41.0163 34.827C41.6164 34.827 41.9674 34.442 41.9674 33.9437V33.7286L40.9936 33.9098C40.586 33.9834 40.4558 34.1362 40.4558 34.3854C40.4558 34.6684 40.6652 34.827 41.0163 34.827ZM44.2066 35.178C43.6631 35.178 43.4083 34.9402 43.4083 34.408V32.5963H42.9667V32.1773H43.4083V31.4753H43.8839V32.1773H44.6822V32.5963H43.8839V34.3967C43.8839 34.6684 44.0028 34.759 44.2519 34.759H44.6822V35.178H44.2066ZM43.5895 36.5368L43.9009 35.9876H43.6971V35.478H44.2633V35.9423L43.9179 36.5368H43.5895ZM45.2809 31.7074V31.1526H45.7791V31.7074H45.2809ZM45.2922 35.178V32.1773H45.7678V35.178H45.2922ZM47.7911 35.2459C46.9419 35.2459 46.4153 34.6288 46.4153 33.6776C46.4153 32.7265 46.9419 32.1094 47.7685 32.1094C48.5498 32.1094 49.0933 32.6755 49.0933 33.6833V33.8248H46.9136C46.9475 34.4703 47.2702 34.793 47.7911 34.793C48.1818 34.793 48.4365 34.5948 48.5384 34.2891L49.048 34.3287C48.8895 34.8666 48.4252 35.2459 47.7911 35.2459ZM46.9136 33.4059H48.5724C48.5271 32.8284 48.2101 32.5623 47.7685 32.5623C47.3042 32.5623 46.9928 32.851 46.9136 33.4059ZM50.6703 31.7923L51.1799 31.0393H51.7121L52.2216 31.7923H51.8253L51.446 31.2884L51.0666 31.7923H50.6703ZM51.2082 35.178V32.1773H51.6837V35.178H51.2082ZM52.6457 35.178V32.1773H53.0816L53.093 32.7152C53.2515 32.3019 53.6025 32.1094 54.0158 32.1094C54.7009 32.1094 55.0292 32.6133 55.0292 33.2474V35.178H54.5537V33.3832C54.5537 32.8284 54.3668 32.5283 53.9139 32.5283C53.4496 32.5283 53.1213 32.8284 53.1213 33.3832V35.178H52.6457ZM56.8071 35.178C56.2636 35.178 56.0088 34.9402 56.0088 34.408V32.5963H55.5672V32.1773H56.0088V31.4753H56.4844V32.1773H57.2827V32.5963H56.4844V34.3967C56.4844 34.6684 56.6033 34.759 56.8524 34.759H57.2827V35.178H56.8071ZM57.9535 35.178V32.1773H58.3724L58.3894 32.7322C58.497 32.3528 58.7348 32.1773 59.1028 32.1773H59.3972V32.6302H59.1084C58.6555 32.6302 58.429 32.8737 58.429 33.3663V35.178H57.9535ZM61.044 35.2459C60.1947 35.2459 59.6682 34.6288 59.6682 33.6776C59.6682 32.7265 60.1947 32.1094 61.0213 32.1094C61.8026 32.1094 62.3461 32.6755 62.3461 33.6833V33.8248H60.1664C60.2004 34.4703 60.5231 34.793 61.044 34.793C61.4346 34.793 61.6894 34.5948 61.7913 34.2891L62.3008 34.3287C62.1423 34.8666 61.6781 35.2459 61.044 35.2459ZM60.1664 33.4059H61.8253C61.78 32.8284 61.4629 32.5623 61.0213 32.5623C60.5571 32.5623 60.2457 32.851 60.1664 33.4059ZM65.633 35.2459C64.7951 35.2459 64.2572 34.6288 64.2572 33.6776C64.2572 32.7265 64.7951 32.1094 65.633 32.1094C66.3237 32.1094 66.8049 32.483 66.9068 33.1511L66.4086 33.1851C66.3407 32.7888 66.0406 32.5623 65.633 32.5623C65.0781 32.5623 64.7554 32.9813 64.7554 33.6776C64.7554 34.374 65.0781 34.793 65.633 34.793C66.0406 34.793 66.3407 34.5665 66.4086 34.1136L66.9068 34.1476C66.8049 34.8156 66.3237 35.2459 65.633 35.2459ZM68.6684 35.2459C67.8191 35.2459 67.2926 34.6288 67.2926 33.6776C67.2926 32.7265 67.8191 32.1094 68.6457 32.1094C69.427 32.1094 69.9705 32.6755 69.9705 33.6833V33.8248H67.7908C67.8248 34.4703 68.1475 34.793 68.6684 34.793C69.059 34.793 69.3138 34.5948 69.4157 34.2891L69.9252 34.3287C69.7667 34.8666 69.3025 35.2459 68.6684 35.2459ZM67.7908 33.4059H69.4497C69.4044 32.8284 69.0873 32.5623 68.6457 32.5623C68.1815 32.5623 67.8701 32.851 67.7908 33.4059ZM71.2312 35.178C70.8802 35.178 70.6424 35.0081 70.6424 34.6118V31.1582H71.1179V34.5722C71.1179 34.6967 71.1802 34.759 71.3048 34.759H71.5652V35.178H71.2312ZM73.2906 35.2459C72.4413 35.2459 71.9148 34.6288 71.9148 33.6776C71.9148 32.7265 72.4413 32.1094 73.2679 32.1094C74.0492 32.1094 74.5927 32.6755 74.5927 33.6833V33.8248H72.413C72.447 34.4703 72.7697 34.793 73.2906 34.793C73.6812 34.793 73.936 34.5948 74.0379 34.2891L74.5474 34.3287C74.3889 34.8666 73.9247 35.2459 73.2906 35.2459ZM72.413 33.4059H74.0719C74.0266 32.8284 73.7095 32.5623 73.2679 32.5623C72.8037 32.5623 72.4923 32.851 72.413 33.4059ZM77.772 35.2459C76.9907 35.2459 76.5038 34.6401 76.5038 33.6776C76.5038 32.7152 76.9907 32.1094 77.772 32.1094C78.174 32.1094 78.5307 32.2905 78.6948 32.5963V31.1582H79.1704V35.178H78.7401L78.7232 34.725C78.5533 35.0534 78.191 35.2459 77.772 35.2459ZM77.8682 34.793C78.4004 34.793 78.6948 34.3627 78.6948 33.6776C78.6948 32.9813 78.4004 32.5623 77.8682 32.5623C77.3417 32.5623 77.002 32.9813 77.002 33.6776C77.002 34.3627 77.3417 34.793 77.8682 34.793ZM81.1914 35.2459C80.3591 35.2459 79.8156 34.6345 79.8156 33.6776C79.8156 32.7208 80.3591 32.1094 81.1914 32.1094C82.018 32.1094 82.5615 32.7208 82.5615 33.6776C82.5615 34.6345 82.018 35.2459 81.1914 35.2459ZM81.1914 34.793C81.7406 34.793 82.0633 34.374 82.0633 33.6776C82.0633 32.9813 81.7406 32.5623 81.1914 32.5623C80.6366 32.5623 80.3139 32.9813 80.3139 33.6776C80.3139 34.374 80.6366 34.793 81.1914 34.793ZM84.1948 35.2459C83.5946 35.2459 83.2096 34.8213 83.2096 34.1079V32.1773H83.6852V33.9777C83.6852 34.5609 83.889 34.827 84.3193 34.827C84.7949 34.827 85.0836 34.5042 85.0836 33.9664V32.1773H85.5592V35.178H85.1063V34.6911C84.9421 35.0478 84.625 35.2459 84.1948 35.2459ZM87.5872 31.764C87.1229 31.764 86.8172 31.4809 86.7946 31.0393H87.1229C87.1569 31.2998 87.3268 31.413 87.5872 31.413C87.8476 31.413 88.0118 31.2998 88.0458 31.0393H88.3742C88.3515 31.4809 88.0514 31.764 87.5872 31.764ZM87.2758 35.2459C86.653 35.2459 86.2624 34.9459 86.2624 34.4306C86.2624 33.9211 86.5511 33.638 87.2079 33.5135L88.2722 33.3153C88.2722 32.8114 88.0345 32.5623 87.5589 32.5623C87.1399 32.5623 86.9078 32.7548 86.8172 33.1002L86.3133 33.0605C86.4266 32.4944 86.8795 32.1094 87.5589 32.1094C88.3289 32.1094 88.7478 32.5736 88.7478 33.3323V34.5722C88.7478 34.7081 88.7931 34.759 88.9063 34.759H89.0252V35.178C88.9913 35.1836 88.9177 35.1893 88.8441 35.1893C88.4817 35.1893 88.3175 35.0478 88.2779 34.7137C88.1307 35.0251 87.7174 35.2459 87.2758 35.2459ZM87.3211 34.827C87.9212 34.827 88.2722 34.442 88.2722 33.9437V33.7286L87.2984 33.9098C86.8908 33.9834 86.7606 34.1362 86.7606 34.3854C86.7606 34.6684 86.9701 34.827 87.3211 34.827ZM92.0983 35.178C91.5548 35.178 91.3 34.9402 91.3 34.408V32.5963H90.8584V32.1773H91.3V31.4753H91.7756V32.1773H92.5738V32.5963H91.7756V34.3967C91.7756 34.6684 91.8944 34.759 92.1436 34.759H92.5738V35.178H92.0983ZM93.1725 31.7074V31.1526H93.6707V31.7074H93.1725ZM93.1838 35.178V32.1773H93.6594V35.178H93.1838ZM94.6214 36.0272V32.1773H95.063L95.0686 32.6359C95.2498 32.2905 95.5838 32.1094 95.9915 32.1094C96.886 32.1094 97.288 32.851 97.288 33.6776C97.288 34.5042 96.886 35.2459 95.9915 35.2459C95.6008 35.2459 95.2555 35.0704 95.0969 34.7817V36.0272H94.6214ZM95.9462 34.793C96.4671 34.793 96.7898 34.3797 96.7898 33.6776C96.7898 32.9756 96.4671 32.5623 95.9462 32.5623C95.4253 32.5623 95.0969 32.9416 95.0969 33.6776C95.0969 34.4137 95.4197 34.793 95.9462 34.793ZM98.9183 35.2459C98.3182 35.2459 97.9332 34.8213 97.9332 34.1079V32.1773H98.4088V33.9777C98.4088 34.5609 98.6126 34.827 99.0429 34.827C99.5184 34.827 99.8072 34.5042 99.8072 33.9664V32.1773H100.283V35.178H99.8298V34.6911C99.6657 35.0478 99.3486 35.2459 98.9183 35.2459ZM101.19 35.178V32.1773H101.609L101.626 32.7322C101.733 32.3528 101.971 32.1773 102.339 32.1773H102.633V32.6302H102.345C101.892 32.6302 101.665 32.8737 101.665 33.3663V35.178H101.19ZM103.152 31.7074V31.1526H103.65V31.7074H103.152ZM103.164 35.178V32.1773H103.639V35.178H103.164ZM107.026 35.2459C106.244 35.2459 105.757 34.6401 105.757 33.6776C105.757 32.7152 106.244 32.1094 107.026 32.1094C107.428 32.1094 107.784 32.2905 107.948 32.5963V31.1582H108.424V35.178H107.994L107.977 34.725C107.807 35.0534 107.445 35.2459 107.026 35.2459ZM107.122 34.793C107.654 34.793 107.948 34.3627 107.948 33.6776C107.948 32.9813 107.654 32.5623 107.122 32.5623C106.595 32.5623 106.256 32.9813 106.256 33.6776C106.256 34.3627 106.595 34.793 107.122 34.793ZM110.445 35.2459C109.596 35.2459 109.069 34.6288 109.069 33.6776C109.069 32.7265 109.596 32.1094 110.422 32.1094C111.204 32.1094 111.747 32.6755 111.747 33.6833V33.8248H109.567C109.601 34.4703 109.924 34.793 110.445 34.793C110.836 34.793 111.09 34.5948 111.192 34.2891L111.702 34.3287C111.543 34.8666 111.079 35.2459 110.445 35.2459ZM109.567 33.4059H111.226C111.181 32.8284 110.864 32.5623 110.422 32.5623C109.958 32.5623 109.647 32.851 109.567 33.4059ZM115.034 35.2459C114.196 35.2459 113.658 34.6288 113.658 33.6776C113.658 32.7265 114.196 32.1094 115.034 32.1094C115.725 32.1094 116.206 32.483 116.308 33.1511L115.81 33.1851C115.742 32.7888 115.442 32.5623 115.034 32.5623C114.479 32.5623 114.156 32.9813 114.156 33.6776C114.156 34.374 114.479 34.793 115.034 34.793C115.442 34.793 115.742 34.5665 115.81 34.1136L116.308 34.1476C116.206 34.8156 115.725 35.2459 115.034 35.2459ZM117.784 35.2459C117.162 35.2459 116.771 34.9459 116.771 34.4306C116.771 33.9211 117.06 33.638 117.717 33.5135L118.781 33.3153C118.781 32.8114 118.543 32.5623 118.068 32.5623C117.649 32.5623 117.416 32.7548 117.326 33.1002L116.822 33.0605C116.935 32.4944 117.388 32.1094 118.068 32.1094C118.838 32.1094 119.256 32.5736 119.256 33.3323V34.5722C119.256 34.7081 119.302 34.759 119.415 34.759H119.534V35.178C119.5 35.1836 119.426 35.1893 119.353 35.1893C118.99 35.1893 118.826 35.0478 118.787 34.7137C118.639 35.0251 118.226 35.2459 117.784 35.2459ZM117.83 34.827C118.43 34.827 118.781 34.442 118.781 33.9437V33.7286L117.807 33.9098C117.399 33.9834 117.269 34.1362 117.269 34.3854C117.269 34.6684 117.479 34.827 117.83 34.827ZM120.071 36.0272V32.1773H120.513L120.518 32.6359C120.699 32.2905 121.034 32.1094 121.441 32.1094C122.336 32.1094 122.738 32.851 122.738 33.6776C122.738 34.5042 122.336 35.2459 121.441 35.2459C121.051 35.2459 120.705 35.0704 120.547 34.7817V36.0272H120.071ZM121.396 34.793C121.917 34.793 122.239 34.3797 122.239 33.6776C122.239 32.9756 121.917 32.5623 121.396 32.5623C120.875 32.5623 120.547 32.9416 120.547 33.6776C120.547 34.4137 120.869 34.793 121.396 34.793ZM124.555 35.2459C123.717 35.2459 123.179 34.6288 123.179 33.6776C123.179 32.7265 123.717 32.1094 124.555 32.1094C125.246 32.1094 125.727 32.483 125.829 33.1511L125.33 33.1851C125.263 32.7888 124.962 32.5623 124.555 32.5623C124 32.5623 123.677 32.9813 123.677 33.6776C123.677 34.374 124 34.793 124.555 34.793C124.962 34.793 125.263 34.5665 125.33 34.1136L125.829 34.1476C125.727 34.8156 125.246 35.2459 124.555 35.2459ZM127.305 35.2459C126.683 35.2459 126.292 34.9459 126.292 34.4306C126.292 33.9211 126.581 33.638 127.237 33.5135L128.302 33.3153C128.302 32.8114 128.064 32.5623 127.588 32.5623C127.169 32.5623 126.937 32.7548 126.847 33.1002L126.343 33.0605C126.456 32.4944 126.909 32.1094 127.588 32.1094C128.358 32.1094 128.777 32.5736 128.777 33.3323V34.5722C128.777 34.7081 128.823 34.759 128.936 34.759H129.055V35.178C129.021 35.1836 128.947 35.1893 128.874 35.1893C128.511 35.1893 128.347 35.0478 128.307 34.7137C128.16 35.0251 127.747 35.2459 127.305 35.2459ZM127.351 34.827C127.951 34.827 128.302 34.442 128.302 33.9437V33.7286L127.328 33.9098C126.92 33.9834 126.79 34.1362 126.79 34.3854C126.79 34.6684 127 34.827 127.351 34.827ZM129.592 35.178V32.1773H130.028L130.039 32.7152C130.198 32.3019 130.549 32.1094 130.962 32.1094C131.647 32.1094 131.975 32.6133 131.975 33.2474V35.178H131.5V33.3832C131.5 32.8284 131.313 32.5283 130.86 32.5283C130.396 32.5283 130.067 32.8284 130.067 33.3832V35.178H129.592ZM133.987 35.2459C133.138 35.2459 132.611 34.6288 132.611 33.6776C132.611 32.7265 133.138 32.1094 133.965 32.1094C134.746 32.1094 135.289 32.6755 135.289 33.6833V33.8248H133.11C133.144 34.4703 133.466 34.793 133.987 34.793C134.378 34.793 134.633 34.5948 134.735 34.2891L135.244 34.3287C135.086 34.8666 134.621 35.2459 133.987 35.2459ZM133.11 33.4059H134.769C134.723 32.8284 134.406 32.5623 133.965 32.5623C133.5 32.5623 133.189 32.851 133.11 33.4059ZM135.785 35.178V34.5382H136.425V35.178H135.785Z" fill="#64748B"/>
<mask id="path-7-inside-2_6852_17308" fill="white">
<path d="M191.767 8.38281H283.651V49.5011H191.767V8.38281Z"/>
</mask>
<path d="M191.767 49.5011H191.295V49.9729H191.767V49.5011ZM283.651 49.0293H191.767V49.9729H283.651V49.0293ZM192.239 49.5011V8.38281H191.295V49.5011H192.239Z" fill="#E2E8F0" mask="url(#path-7-inside-2_6852_17308)"/>
<path d="M205.349 26.8117C204.226 26.8117 203.526 26.1578 203.447 25.1935L204.18 25.1472C204.266 25.8011 204.662 26.1644 205.363 26.1644C205.964 26.1644 206.32 25.9332 206.32 25.4907C206.32 25.0944 206.116 24.85 205.079 24.599C203.956 24.3282 203.546 24.0045 203.546 23.2713C203.546 22.4655 204.16 21.9107 205.171 21.9107C206.241 21.9107 206.855 22.5514 206.961 23.4365L206.228 23.4761C206.162 22.9345 205.798 22.558 205.158 22.558C204.616 22.558 204.279 22.8354 204.279 23.2449C204.279 23.6544 204.51 23.8064 205.422 24.0243C206.637 24.3084 207.053 24.7641 207.053 25.4511C207.053 26.2899 206.36 26.8117 205.349 26.8117ZM209.1 26.7061C208.433 26.7061 208.123 26.4154 208.123 25.7549V23.7667H207.588V23.1921H208.123V22.3664H208.823V23.1921H209.754V23.7667H208.823V25.7021C208.823 26.0323 208.961 26.1314 209.252 26.1314H209.754V26.7061H209.1ZM211.388 26.7853C210.655 26.7853 210.186 26.4352 210.186 25.8276C210.186 25.2265 210.536 24.9028 211.309 24.7509L212.517 24.5197C212.517 23.9781 212.26 23.7073 211.758 23.7073C211.309 23.7073 211.058 23.912 210.965 24.2951L210.245 24.2489C210.377 23.5488 210.926 23.1128 211.758 23.1128C212.709 23.1128 213.218 23.6478 213.218 24.5594V25.9266C213.218 26.0984 213.27 26.1512 213.403 26.1512H213.528V26.7061C213.482 26.7193 213.376 26.7259 213.27 26.7259C212.868 26.7259 212.63 26.5739 212.577 26.1644C212.399 26.5343 211.936 26.7853 211.388 26.7853ZM211.5 26.2305C212.134 26.2305 212.517 25.8342 212.517 25.2727V25.0481L211.487 25.2463C211.064 25.3256 210.912 25.4907 210.912 25.7615C210.912 26.0653 211.124 26.2305 211.5 26.2305ZM215.286 26.7061C214.619 26.7061 214.309 26.4154 214.309 25.7549V23.7667H213.774V23.1921H214.309V22.3664H215.009V23.1921H215.94V23.7667H215.009V25.7021C215.009 26.0323 215.147 26.1314 215.438 26.1314H215.94V26.7061H215.286ZM214.566 28.3177L214.923 27.6968H214.685V27.0495H215.412V27.6374L215.015 28.3177H214.566ZM216.596 22.6835V21.9833H217.322V22.6835H216.596ZM216.609 26.7061V23.1921H217.309V26.7061H216.609ZM219.681 26.7853C218.657 26.7853 218.017 26.0587 218.017 24.9491C218.017 23.8394 218.657 23.1128 219.661 23.1128C220.619 23.1128 221.266 23.7931 221.266 24.9755V25.1538H218.743C218.776 25.8408 219.126 26.1842 219.688 26.1842C220.097 26.1842 220.375 25.9795 220.487 25.6492L221.214 25.6955C221.029 26.3494 220.454 26.7853 219.681 26.7853ZM218.743 24.6254H220.527C220.48 24.0045 220.137 23.7073 219.661 23.7073C219.159 23.7073 218.823 24.0309 218.743 24.6254ZM224.895 26.7853C223.99 26.7853 223.429 26.0786 223.429 24.9491C223.429 23.8262 223.997 23.1128 224.895 23.1128C225.377 23.1128 225.78 23.3242 225.972 23.6875V22.0163H226.672V26.7061H226.018L225.998 26.1776C225.8 26.5607 225.384 26.7853 224.895 26.7853ZM225.08 26.1776C225.655 26.1776 225.972 25.7219 225.972 24.9491C225.972 24.1696 225.655 23.7205 225.08 23.7205C224.518 23.7205 224.155 24.1829 224.155 24.9491C224.155 25.7021 224.518 26.1776 225.08 26.1776ZM229.047 26.7853C228.023 26.7853 227.383 26.0587 227.383 24.9491C227.383 23.8394 228.023 23.1128 229.027 23.1128C229.985 23.1128 230.632 23.7931 230.632 24.9755V25.1538H228.109C228.142 25.8408 228.492 26.1842 229.054 26.1842C229.463 26.1842 229.741 25.9795 229.853 25.6492L230.58 25.6955C230.395 26.3494 229.82 26.7853 229.047 26.7853ZM228.109 24.6254H229.893C229.846 24.0045 229.503 23.7073 229.027 23.7073C228.525 23.7073 228.189 24.0309 228.109 24.6254ZM232.999 22.6835V21.9833H233.726V22.6835H232.999ZM233.013 26.7061V23.1921H233.713V26.7061H233.013ZM234.761 26.7061V23.1921H235.401L235.415 23.8064C235.599 23.3242 236.002 23.1128 236.485 23.1128C237.271 23.1128 237.674 23.6809 237.674 24.4471V26.7061H236.973V24.6584C236.973 24.0375 236.782 23.7007 236.293 23.7007C235.798 23.7007 235.461 24.0375 235.461 24.6584V26.7061H234.761ZM239.759 26.7061C239.092 26.7061 238.781 26.4154 238.781 25.7549V23.7667H238.246V23.1921H238.781V22.3664H239.482V23.1921H240.413V23.7667H239.482V25.7021C239.482 26.0323 239.62 26.1314 239.911 26.1314H240.413V26.7061H239.759ZM242.471 26.7853C241.467 26.7853 240.806 26.0653 240.806 24.9491C240.806 23.8328 241.467 23.1128 242.471 23.1128C243.475 23.1128 244.135 23.8328 244.135 24.9491C244.135 26.0653 243.475 26.7853 242.471 26.7853ZM242.471 26.1776C243.065 26.1776 243.408 25.7219 243.408 24.9491C243.408 24.1762 243.065 23.7205 242.471 23.7205C241.876 23.7205 241.533 24.1762 241.533 24.9491C241.533 25.7219 241.876 26.1776 242.471 26.1776ZM244.367 26.7061L245.642 24.9094L244.42 23.1921H245.2L246.065 24.4537L246.904 23.1921H247.703L246.494 24.9226L247.756 26.7061H246.976L246.072 25.3652L245.16 26.7061H244.367ZM248.222 22.6835V21.9833H248.949V22.6835H248.222ZM248.236 26.7061V23.1921H248.936V26.7061H248.236ZM251.308 26.7853C250.297 26.7853 249.643 26.0587 249.643 24.9491C249.643 23.8394 250.297 23.1128 251.308 23.1128C252.16 23.1128 252.761 23.5752 252.88 24.3876L252.146 24.4272C252.074 23.9715 251.75 23.7205 251.308 23.7205C250.713 23.7205 250.37 24.1762 250.37 24.9491C250.37 25.7219 250.713 26.1776 251.308 26.1776C251.757 26.1776 252.08 25.9266 252.146 25.418L252.88 25.4577C252.767 26.2635 252.166 26.7853 251.308 26.7853ZM254.574 26.7853C253.84 26.7853 253.371 26.4352 253.371 25.8276C253.371 25.2265 253.722 24.9028 254.494 24.7509L255.703 24.5197C255.703 23.9781 255.445 23.7073 254.943 23.7073C254.494 23.7073 254.243 23.912 254.151 24.2951L253.431 24.2489C253.563 23.5488 254.111 23.1128 254.943 23.1128C255.895 23.1128 256.403 23.6478 256.403 24.5594V25.9266C256.403 26.0984 256.456 26.1512 256.588 26.1512H256.714V26.7061C256.667 26.7193 256.562 26.7259 256.456 26.7259C256.053 26.7259 255.815 26.5739 255.763 26.1644C255.584 26.5343 255.122 26.7853 254.574 26.7853ZM254.686 26.2305C255.32 26.2305 255.703 25.8342 255.703 25.2727V25.0481L254.673 25.2463C254.25 25.3256 254.098 25.4907 254.098 25.7615C254.098 26.0653 254.309 26.2305 254.686 26.2305ZM257.305 26.7061V23.1921H257.946L257.965 23.8592C258.097 23.3968 258.375 23.1921 258.804 23.1921H259.141V23.8196H258.804C258.269 23.8196 258.005 24.0772 258.005 24.632V26.7061H257.305ZM261.086 26.7853C260.063 26.7853 259.422 26.0587 259.422 24.9491C259.422 23.8394 260.063 23.1128 261.067 23.1128C262.024 23.1128 262.672 23.7931 262.672 24.9755V25.1538H260.149C260.182 25.8408 260.532 26.1842 261.093 26.1842C261.503 26.1842 261.78 25.9795 261.892 25.6492L262.619 25.6955C262.434 26.3494 261.859 26.7853 261.086 26.7853ZM260.149 24.6254H261.932C261.886 24.0045 261.542 23.7073 261.067 23.7073C260.565 23.7073 260.228 24.0309 260.149 24.6254Z" fill="#020617"/>
<path d="M205.242 43.4805V37.966H203.521V36.845H204.211C205.174 36.845 205.547 36.5053 205.547 35.441H206.714V43.4805H205.242ZM211.331 43.6616C209.451 43.6616 208.41 42.7218 208.285 41.3177L209.791 41.2385C209.916 41.9971 210.47 42.3708 211.331 42.3708C212.305 42.3708 212.894 41.8046 212.894 40.8308C212.894 39.891 212.305 39.2795 211.32 39.2795C210.64 39.2795 210.097 39.5966 209.882 40.0835H208.387L208.942 35.441H213.867V36.7205H210.221L209.961 38.77C210.368 38.351 210.98 38.1246 211.716 38.1246C213.358 38.1246 214.411 39.2795 214.411 40.8308C214.411 42.5406 213.177 43.6616 211.331 43.6616ZM218.252 43.6616C216.803 43.6616 215.908 42.9483 215.569 41.7593L217.007 41.6687C217.177 42.133 217.584 42.3934 218.252 42.3934C219.339 42.3934 219.928 41.6801 220.03 39.9703C219.611 40.5704 218.954 40.8874 218.116 40.8874C216.531 40.8874 215.433 39.7891 215.433 38.1472C215.433 36.3808 216.633 35.2598 218.377 35.2598C220.506 35.2598 221.502 36.6865 221.502 39.121C221.502 41.8839 220.562 43.6616 218.252 43.6616ZM218.388 39.7325C219.305 39.7325 219.939 39.1437 219.939 38.1472C219.939 37.1621 219.373 36.494 218.422 36.494C217.494 36.494 216.927 37.1508 216.927 38.1359C216.927 39.121 217.505 39.7325 218.388 39.7325Z" fill="#020617"/>
<path d="M226.748 41.5597C225.836 41.5597 225.268 40.853 225.268 39.7301C225.268 38.6072 225.836 37.9004 226.748 37.9004C227.217 37.9004 227.633 38.1118 227.824 38.4685V36.7908H228.379V41.4805H227.877L227.857 40.952C227.659 41.3352 227.237 41.5597 226.748 41.5597ZM226.86 41.0313C227.481 41.0313 227.824 40.5293 227.824 39.7301C227.824 38.9176 227.481 38.4289 226.86 38.4289C226.246 38.4289 225.849 38.9176 225.849 39.7301C225.849 40.5293 226.246 41.0313 226.86 41.0313ZM230.737 41.5597C229.766 41.5597 229.132 40.8464 229.132 39.7301C229.132 38.6138 229.766 37.9004 230.737 37.9004C231.701 37.9004 232.336 38.6138 232.336 39.7301C232.336 40.8464 231.701 41.5597 230.737 41.5597ZM230.737 41.0313C231.378 41.0313 231.754 40.5425 231.754 39.7301C231.754 38.9176 231.378 38.4289 230.737 38.4289C230.09 38.4289 229.713 38.9176 229.713 39.7301C229.713 40.5425 230.09 41.0313 230.737 41.0313ZM232.843 41.4805V40.9256L235.056 38.4685H232.909V37.9797H235.663V38.5345L233.451 40.9917H235.716V41.4805H232.843ZM237.787 41.5597C236.797 41.5597 236.182 40.8398 236.182 39.7301C236.182 38.6204 236.797 37.9004 237.761 37.9004C238.672 37.9004 239.307 38.561 239.307 39.7367V39.9018H236.764C236.803 40.6548 237.18 41.0313 237.787 41.0313C238.243 41.0313 238.54 40.8001 238.659 40.4434L239.254 40.4897C239.069 41.1172 238.527 41.5597 237.787 41.5597ZM236.764 39.413H238.699C238.646 38.7393 238.276 38.4289 237.761 38.4289C237.219 38.4289 236.856 38.7657 236.764 39.413Z" fill="#64748B"/>
<rect x="267.728" y="35.9414" width="4.71802" height="4.71802" rx="2.35901" fill="#FE9239"/>
<mask id="path-13-inside-3_6852_17308" fill="white">
<path d="M283.65 8.38281H375.534V49.5011H283.65V8.38281Z"/>
</mask>
<path d="M283.65 49.5011H283.179V49.9729H283.65V49.5011ZM375.534 49.0293H283.65V49.9729H375.534V49.0293ZM284.122 49.5011V8.38281H283.179V49.5011H284.122Z" fill="#E2E8F0" mask="url(#path-13-inside-3_6852_17308)"/>
<path d="M297.404 26.8117C296.136 26.8117 295.264 25.8936 295.264 24.3678C295.264 22.8552 296.123 21.9107 297.411 21.9107C298.573 21.9107 299.194 22.5315 299.393 23.5554L298.646 23.595C298.521 22.9543 298.124 22.5646 297.411 22.5646C296.559 22.5646 296.004 23.2515 296.004 24.3678C296.004 25.4907 296.565 26.1578 297.404 26.1578C298.164 26.1578 298.567 25.7285 298.679 25.0283L299.426 25.068C299.247 26.1314 298.56 26.8117 297.404 26.8117ZM301.256 26.7853C300.543 26.7853 300.1 26.2899 300.1 25.4511V23.1921H300.801V25.2727C300.801 25.9134 301.019 26.1975 301.468 26.1975C301.976 26.1975 302.28 25.854 302.28 25.2529V23.1921H302.98V26.7061H302.326L302.32 26.1314C302.135 26.5607 301.765 26.7853 301.256 26.7853ZM305.26 26.7853C304.269 26.7853 303.741 26.2899 303.688 25.5964L304.408 25.5633C304.474 25.9531 304.725 26.1975 305.26 26.1975C305.696 26.1975 305.974 26.0653 305.974 25.7549C305.974 25.4973 305.842 25.385 305.141 25.2661C304.098 25.0812 303.774 24.7773 303.774 24.2027C303.774 23.562 304.263 23.1128 305.174 23.1128C306.079 23.1128 306.548 23.628 306.647 24.2687L305.927 24.3084C305.861 23.9451 305.604 23.7007 305.168 23.7007C304.719 23.7007 304.501 23.8988 304.501 24.1762C304.501 24.4867 304.705 24.6122 305.28 24.7047C306.377 24.883 306.7 25.1736 306.7 25.7483C306.7 26.4088 306.099 26.7853 305.26 26.7853ZM304.738 28.3177L305.095 27.6968H304.857V27.0495H305.584V27.6374L305.188 28.3177H304.738ZM308.855 26.7853C307.845 26.7853 307.191 26.0587 307.191 24.9491C307.191 23.8394 307.845 23.1128 308.855 23.1128C309.707 23.1128 310.308 23.5752 310.427 24.3876L309.694 24.4272C309.622 23.9715 309.298 23.7205 308.855 23.7205C308.261 23.7205 307.917 24.1762 307.917 24.9491C307.917 25.7219 308.261 26.1776 308.855 26.1776C309.304 26.1776 309.628 25.9266 309.694 25.418L310.427 25.4577C310.315 26.2635 309.714 26.7853 308.855 26.7853ZM312.518 22.7495C311.956 22.7495 311.586 22.4127 311.56 21.8578H312.002C312.042 22.1617 312.227 22.2938 312.518 22.2938C312.808 22.2938 312.993 22.1617 313.026 21.8578H313.475C313.449 22.4127 313.086 22.7495 312.518 22.7495ZM312.121 26.7853C311.388 26.7853 310.919 26.4352 310.919 25.8276C310.919 25.2265 311.269 24.9028 312.042 24.7509L313.251 24.5197C313.251 23.9781 312.993 23.7073 312.491 23.7073C312.042 23.7073 311.791 23.912 311.699 24.2951L310.979 24.2489C311.111 23.5488 311.659 23.1128 312.491 23.1128C313.442 23.1128 313.951 23.6478 313.951 24.5594V25.9266C313.951 26.0984 314.004 26.1512 314.136 26.1512H314.261V26.7061C314.215 26.7193 314.109 26.7259 314.004 26.7259C313.601 26.7259 313.363 26.5739 313.31 26.1644C313.132 26.5343 312.67 26.7853 312.121 26.7853ZM312.234 26.2305C312.868 26.2305 313.251 25.8342 313.251 25.2727V25.0481L312.22 25.2463C311.798 25.3256 311.646 25.4907 311.646 25.7615C311.646 26.0653 311.857 26.2305 312.234 26.2305Z" fill="#020617"/>
<path d="M298.552 43.6616C296.627 43.6616 295.562 42.6992 295.495 41.2158L297 41.1479C297.08 42.0084 297.669 42.3821 298.552 42.3821C299.435 42.3821 300.148 42.0084 300.148 41.1479C300.148 40.2873 299.503 39.857 298.529 39.857H297.827V38.6907H298.529C299.299 38.6907 299.888 38.3963 299.888 37.6263C299.888 36.9469 299.458 36.5393 298.563 36.5393C297.657 36.5393 297.227 36.9356 297.148 37.5244L295.642 37.4452C295.8 36.1317 296.831 35.2598 298.563 35.2598C300.375 35.2598 301.405 36.1204 301.405 37.4905C301.405 38.3284 300.907 38.9172 300.001 39.2003C301.054 39.4834 301.666 40.208 301.666 41.2271C301.666 42.7558 300.431 43.6616 298.552 43.6616ZM302.568 43.4805C302.568 41.5329 303.293 40.4119 305.501 39.2569C306.599 38.6794 306.996 38.3624 306.996 37.683C306.996 37.0149 306.554 36.5393 305.694 36.5393C304.776 36.5393 304.233 37.0715 304.108 38.0453L302.591 37.9547C302.75 36.2789 303.859 35.2598 305.694 35.2598C307.471 35.2598 308.513 36.2336 308.513 37.6603C308.513 38.8945 307.936 39.472 306.362 40.31C305.026 41.0233 304.38 41.7027 304.335 42.2009H308.513V43.4805H302.568Z" fill="#020617"/>
<path d="M313.631 41.5597C312.72 41.5597 312.151 40.853 312.151 39.7301C312.151 38.6072 312.72 37.9004 313.631 37.9004C314.1 37.9004 314.516 38.1118 314.708 38.4685V36.7908H315.263V41.4805H314.761L314.741 40.952C314.543 41.3352 314.12 41.5597 313.631 41.5597ZM313.743 41.0313C314.364 41.0313 314.708 40.5293 314.708 39.7301C314.708 38.9176 314.364 38.4289 313.743 38.4289C313.129 38.4289 312.733 38.9176 312.733 39.7301C312.733 40.5293 313.129 41.0313 313.743 41.0313ZM317.62 41.5597C316.649 41.5597 316.015 40.8464 316.015 39.7301C316.015 38.6138 316.649 37.9004 317.62 37.9004C318.585 37.9004 319.219 38.6138 319.219 39.7301C319.219 40.8464 318.585 41.5597 317.62 41.5597ZM317.62 41.0313C318.261 41.0313 318.638 40.5425 318.638 39.7301C318.638 38.9176 318.261 38.4289 317.62 38.4289C316.973 38.4289 316.597 38.9176 316.597 39.7301C316.597 40.5425 316.973 41.0313 317.62 41.0313ZM319.726 41.4805V40.9256L321.939 38.4685H319.792V37.9797H322.547V38.5345L320.334 40.9917H322.6V41.4805H319.726ZM324.671 41.5597C323.68 41.5597 323.066 40.8398 323.066 39.7301C323.066 38.6204 323.68 37.9004 324.644 37.9004C325.556 37.9004 326.19 38.561 326.19 39.7367V39.9018H323.647C323.686 40.6548 324.063 41.0313 324.671 41.0313C325.126 41.0313 325.424 40.8001 325.543 40.4434L326.137 40.4897C325.952 41.1172 325.41 41.5597 324.671 41.5597ZM323.647 39.413H325.582C325.529 38.7393 325.159 38.4289 324.644 38.4289C324.103 38.4289 323.739 38.7657 323.647 39.413Z" fill="#64748B"/>
<rect x="359.964" y="36.1773" width="4.24622" height="4.24622" rx="2.12311" fill="#2662D9" stroke="#2662D9" stroke-width="0.471802"/>
<path d="M21.197 62.7069V66.8245H20.6984V63.2297H20.6743L19.6691 63.8971V63.3905L20.6984 62.7069H21.197ZM23.6921 62.6506C23.861 62.652 24.0299 62.6841 24.1988 62.7471C24.3676 62.8101 24.5218 62.9147 24.6612 63.0608C24.8006 63.2055 24.9125 63.4032 24.9969 63.6539C25.0814 63.9045 25.1236 64.2188 25.1236 64.5968C25.1236 64.9627 25.0887 65.2878 25.0191 65.5719C24.9507 65.8547 24.8515 66.0933 24.7215 66.2877C24.5928 66.482 24.436 66.6294 24.251 66.73C24.0674 66.8305 23.8596 66.8808 23.6278 66.8808C23.3972 66.8808 23.1915 66.8352 23.0105 66.744C22.8309 66.6516 22.6835 66.5236 22.5682 66.36C22.4543 66.1952 22.3812 66.0042 22.3491 65.787H22.8396C22.8839 65.976 22.9717 66.1322 23.103 66.2555C23.2357 66.3775 23.4106 66.4384 23.6278 66.4384C23.9454 66.4384 24.1961 66.2997 24.3797 66.0223C24.5647 65.7448 24.6572 65.3528 24.6572 64.8461H24.625C24.5499 64.9587 24.4608 65.0559 24.3576 65.1376C24.2544 65.2194 24.1398 65.2824 24.0138 65.3266C23.8878 65.3709 23.7538 65.393 23.6117 65.393C23.3758 65.393 23.1593 65.3347 22.9623 65.2181C22.7666 65.1001 22.6098 64.9386 22.4918 64.7335C22.3752 64.5271 22.3169 64.2912 22.3169 64.0258C22.3169 63.7738 22.3732 63.5433 22.4858 63.3342C22.5997 63.1238 22.7592 62.9562 22.9643 62.8316C23.1707 62.7069 23.4133 62.6466 23.6921 62.6506ZM23.6921 63.0929C23.5232 63.0929 23.3711 63.1352 23.2357 63.2196C23.1017 63.3027 22.9951 63.4153 22.916 63.5574C22.8383 63.6981 22.7994 63.8543 22.7994 64.0258C22.7994 64.1974 22.837 64.3535 22.912 64.4943C22.9884 64.6337 23.0923 64.7449 23.2237 64.828C23.3563 64.9098 23.5071 64.9507 23.676 64.9507C23.8034 64.9507 23.922 64.9259 24.0319 64.8763C24.1418 64.8253 24.2376 64.7563 24.3194 64.6692C24.4025 64.5807 24.4675 64.4809 24.5144 64.3696C24.5613 64.257 24.5848 64.1397 24.5848 64.0178C24.5848 63.8569 24.5459 63.7061 24.4682 63.5654C24.3918 63.4247 24.2859 63.3107 24.1505 63.2236C24.0165 63.1365 23.8637 63.0929 23.6921 63.0929ZM27.2573 66.8808C26.9543 66.8808 26.6963 66.7983 26.4832 66.6335C26.2701 66.4673 26.1072 66.2267 25.9947 65.9117C25.8821 65.5954 25.8258 65.2134 25.8258 64.7657C25.8258 64.3207 25.8821 63.9407 25.9947 63.6257C26.1086 63.3094 26.2721 63.0681 26.4852 62.9019C26.6997 62.7344 26.957 62.6506 27.2573 62.6506C27.5575 62.6506 27.8142 62.7344 28.0273 62.9019C28.2417 63.0681 28.4053 63.3094 28.5179 63.6257C28.6318 63.9407 28.6888 64.3207 28.6888 64.7657C28.6888 65.2134 28.6325 65.5954 28.5199 65.9117C28.4073 66.2267 28.2444 66.4673 28.0313 66.6335C27.8182 66.7983 27.5602 66.8808 27.2573 66.8808ZM27.2573 66.4384C27.5575 66.4384 27.7907 66.2937 27.9569 66.0042C28.1231 65.7147 28.2062 65.3018 28.2062 64.7657C28.2062 64.4092 28.168 64.1056 28.0916 63.8549C28.0166 63.6043 27.908 63.4133 27.7659 63.2819C27.6252 63.1506 27.4556 63.0849 27.2573 63.0849C26.9597 63.0849 26.7272 63.2317 26.5596 63.5252C26.3921 63.8174 26.3083 64.2309 26.3083 64.7657C26.3083 65.1222 26.3458 65.4251 26.4209 65.6744C26.4959 65.9237 26.6038 66.1134 26.7446 66.2434C26.8867 66.3734 27.0576 66.4384 27.2573 66.4384Z" fill="#0F172A"/>
<path d="M21.197 75.4813V79.5989H20.6984V76.0041H20.6743L19.6691 76.6716V76.1649L20.6984 75.4813H21.197ZM23.7484 79.6552C23.5795 79.6525 23.4106 79.6203 23.2417 79.5587C23.0729 79.497 22.9187 79.3931 22.7793 79.247C22.6399 79.0996 22.528 78.9006 22.4436 78.6499C22.3591 78.3979 22.3169 78.0816 22.3169 77.7009C22.3169 77.3364 22.3511 77.0133 22.4194 76.7319C22.4878 76.4491 22.587 76.2111 22.717 76.0181C22.847 75.8238 23.0038 75.6763 23.1875 75.5758C23.3724 75.4753 23.5809 75.425 23.8127 75.425C24.0433 75.425 24.2484 75.4713 24.428 75.5638C24.6089 75.6549 24.7563 75.7822 24.8703 75.9458C24.9842 76.1093 25.0579 76.2976 25.0914 76.5107H24.6009C24.5553 76.3257 24.4668 76.1723 24.3355 76.0503C24.2041 75.9283 24.0299 75.8673 23.8127 75.8673C23.4937 75.8673 23.2424 76.0061 23.0588 76.2835C22.8765 76.561 22.7847 76.9503 22.7834 77.4516H22.8155C22.8906 77.3377 22.9797 77.2405 23.0829 77.1601C23.1875 77.0784 23.3027 77.0154 23.4287 76.9711C23.5547 76.9269 23.6881 76.9048 23.8288 76.9048C24.0647 76.9048 24.2805 76.9638 24.4762 77.0817C24.6719 77.1983 24.8287 77.3598 24.9467 77.5662C25.0646 77.7713 25.1236 78.0065 25.1236 78.2719C25.1236 78.5266 25.0666 78.7598 24.9527 78.9716C24.8388 79.182 24.6786 79.3496 24.4722 79.4742C24.2671 79.5975 24.0259 79.6579 23.7484 79.6552ZM23.7484 79.2129C23.9173 79.2129 24.0687 79.1706 24.2028 79.0862C24.3382 79.0018 24.4447 78.8885 24.5225 78.7464C24.6015 78.6043 24.6411 78.4462 24.6411 78.2719C24.6411 78.1017 24.6029 77.9469 24.5265 77.8075C24.4514 77.6668 24.3475 77.5548 24.2148 77.4717C24.0835 77.3886 23.9334 77.3471 23.7645 77.3471C23.6372 77.3471 23.5185 77.3726 23.4086 77.4235C23.2987 77.4731 23.2022 77.5414 23.1191 77.6286C23.0373 77.7157 22.973 77.8155 22.9261 77.9281C22.8792 78.0394 22.8557 78.1567 22.8557 78.28C22.8557 78.4435 22.8939 78.5963 22.9703 78.7384C23.0481 78.8805 23.154 78.9951 23.288 79.0822C23.4234 79.1693 23.5768 79.2129 23.7484 79.2129ZM27.2573 79.6552C26.9543 79.6552 26.6963 79.5727 26.4832 79.4079C26.2701 79.2417 26.1072 79.0011 25.9947 78.6861C25.8821 78.3698 25.8258 77.9878 25.8258 77.5401C25.8258 77.0951 25.8821 76.7151 25.9947 76.4001C26.1086 76.0838 26.2721 75.8426 26.4852 75.6763C26.6997 75.5088 26.957 75.425 27.2573 75.425C27.5575 75.425 27.8142 75.5088 28.0273 75.6763C28.2417 75.8426 28.4053 76.0838 28.5179 76.4001C28.6318 76.7151 28.6888 77.0951 28.6888 77.5401C28.6888 77.9878 28.6325 78.3698 28.5199 78.6861C28.4073 79.0011 28.2444 79.2417 28.0313 79.4079C27.8182 79.5727 27.5602 79.6552 27.2573 79.6552ZM27.2573 79.2129C27.5575 79.2129 27.7907 79.0681 27.9569 78.7786C28.1231 78.4891 28.2062 78.0762 28.2062 77.5401C28.2062 77.1836 28.168 76.88 28.0916 76.6293C28.0166 76.3787 27.908 76.1877 27.7659 76.0563C27.6252 75.925 27.4556 75.8593 27.2573 75.8593C26.9597 75.8593 26.7272 76.0061 26.5596 76.2996C26.3921 76.5918 26.3083 77.0053 26.3083 77.5401C26.3083 77.8966 26.3458 78.1996 26.4209 78.4489C26.4959 78.6982 26.6038 78.8878 26.7446 79.0178C26.8867 79.1478 27.0576 79.2129 27.2573 79.2129Z" fill="#0F172A"/>
<path d="M21.197 88.2557V92.3733H20.6984V88.7785H20.6743L19.6691 89.446V88.9393L20.6984 88.2557H21.197ZM23.7725 92.4296C23.5071 92.4296 23.2706 92.384 23.0628 92.2929C22.8564 92.2017 22.6922 92.0751 22.5702 91.9129C22.4496 91.7494 22.3839 91.5597 22.3732 91.3439H22.8799C22.8906 91.4766 22.9361 91.5912 23.0166 91.6877C23.097 91.7829 23.2022 91.8566 23.3322 91.9089C23.4622 91.9611 23.6063 91.9873 23.7645 91.9873C23.9414 91.9873 24.0982 91.9564 24.2349 91.8948C24.3717 91.8331 24.4789 91.7473 24.5566 91.6374C24.6344 91.5275 24.6732 91.4002 24.6732 91.2554C24.6732 91.104 24.6357 90.9706 24.5607 90.8553C24.4856 90.7387 24.3757 90.6476 24.2309 90.5819C24.0862 90.5162 23.9092 90.4834 23.7001 90.4834H23.3704V90.0411H23.7001C23.8637 90.0411 24.0071 90.0116 24.1304 89.9526C24.2551 89.8936 24.3522 89.8105 24.4219 89.7033C24.493 89.5961 24.5285 89.4701 24.5285 89.3253C24.5285 89.1859 24.4977 89.0646 24.436 88.9614C24.3743 88.8582 24.2872 88.7778 24.1746 88.7202C24.0634 88.6625 23.932 88.6337 23.7806 88.6337C23.6385 88.6337 23.5045 88.6599 23.3785 88.7121C23.2538 88.7631 23.1519 88.8375 23.0729 88.9353C22.9938 89.0318 22.9509 89.1484 22.9442 89.2851H22.4617C22.4697 89.0693 22.5347 88.8803 22.6567 88.7182C22.7787 88.5546 22.9382 88.4273 23.1352 88.3362C23.3336 88.245 23.5514 88.1994 23.7886 88.1994C24.0433 88.1994 24.2618 88.2511 24.444 88.3543C24.6263 88.4561 24.7664 88.5908 24.8642 88.7584C24.9621 88.9259 25.011 89.1069 25.011 89.3012C25.011 89.5331 24.95 89.7308 24.8281 89.8943C24.7074 90.0578 24.5432 90.1711 24.3355 90.2341V90.2663C24.5955 90.3092 24.7986 90.4197 24.9447 90.598C25.0908 90.7749 25.1638 90.9941 25.1638 91.2554C25.1638 91.4793 25.1028 91.6803 24.9809 91.8586C24.8602 92.0355 24.6954 92.1749 24.4863 92.2768C24.2772 92.3787 24.0393 92.4296 23.7725 92.4296ZM27.3291 92.4296C27.0262 92.4296 26.7682 92.3472 26.5551 92.1823C26.342 92.0161 26.1791 91.7755 26.0665 91.4605C25.9539 91.1442 25.8976 90.7622 25.8976 90.3145C25.8976 89.8695 25.9539 89.4895 26.0665 89.1746C26.1805 88.8582 26.344 88.617 26.5571 88.4508C26.7716 88.2832 27.0289 88.1994 27.3291 88.1994C27.6294 88.1994 27.8861 88.2832 28.0992 88.4508C28.3136 88.617 28.4771 88.8582 28.5897 89.1746C28.7037 89.4895 28.7606 89.8695 28.7606 90.3145C28.7606 90.7622 28.7043 91.1442 28.5917 91.4605C28.4792 91.7755 28.3163 92.0161 28.1032 92.1823C27.8901 92.3472 27.6321 92.4296 27.3291 92.4296ZM27.3291 91.9873C27.6294 91.9873 27.8626 91.8425 28.0288 91.553C28.195 91.2635 28.2781 90.8507 28.2781 90.3145C28.2781 89.958 28.2399 89.6544 28.1635 89.4038C28.0884 89.1531 27.9799 88.9621 27.8378 88.8308C27.6971 88.6994 27.5275 88.6337 27.3291 88.6337C27.0316 88.6337 26.799 88.7805 26.6315 89.074C26.4639 89.3662 26.3802 89.7797 26.3802 90.3145C26.3802 90.671 26.4177 90.974 26.4928 91.2233C26.5678 91.4726 26.6757 91.6622 26.8165 91.7923C26.9585 91.9223 27.1294 91.9873 27.3291 91.9873Z" fill="#0F172A"/>
<path d="M21.197 101.03V105.148H20.6984V101.553H20.6743L19.6691 102.22V101.714L20.6984 101.03H21.197ZM23.7243 105.204C23.4214 105.204 23.1633 105.122 22.9502 104.957C22.7371 104.791 22.5743 104.55 22.4617 104.235C22.3491 103.919 22.2928 103.537 22.2928 103.089C22.2928 102.644 22.3491 102.264 22.4617 101.949C22.5756 101.633 22.7391 101.391 22.9522 101.225C23.1667 101.058 23.424 100.974 23.7243 100.974C24.0245 100.974 24.2812 101.058 24.4943 101.225C24.7088 101.391 24.8723 101.633 24.9849 101.949C25.0988 102.264 25.1558 102.644 25.1558 103.089C25.1558 103.537 25.0995 103.919 24.9869 104.235C24.8743 104.55 24.7114 104.791 24.4983 104.957C24.2852 105.122 24.0272 105.204 23.7243 105.204ZM23.7243 104.762C24.0245 104.762 24.2577 104.617 24.4239 104.327C24.5901 104.038 24.6732 103.625 24.6732 103.089C24.6732 102.732 24.635 102.429 24.5586 102.178C24.4836 101.928 24.375 101.737 24.2329 101.605C24.0922 101.474 23.9226 101.408 23.7243 101.408C23.4267 101.408 23.1942 101.555 23.0266 101.848C22.8591 102.141 22.7753 102.554 22.7753 103.089C22.7753 103.445 22.8128 103.748 22.8879 103.998C22.963 104.247 23.0709 104.437 23.2116 104.567C23.3537 104.697 23.5246 104.762 23.7243 104.762ZM27.2628 105.204C26.9599 105.204 26.7019 105.122 26.4887 104.957C26.2756 104.791 26.1128 104.55 26.0002 104.235C25.8876 103.919 25.8313 103.537 25.8313 103.089C25.8313 102.644 25.8876 102.264 26.0002 101.949C26.1141 101.633 26.2776 101.391 26.4908 101.225C26.7052 101.058 26.9626 100.974 27.2628 100.974C27.563 100.974 27.8197 101.058 28.0328 101.225C28.2473 101.391 28.4108 101.633 28.5234 101.949C28.6373 102.264 28.6943 102.644 28.6943 103.089C28.6943 103.537 28.638 103.919 28.5254 104.235C28.4128 104.55 28.25 104.791 28.0368 104.957C27.8237 105.122 27.5657 105.204 27.2628 105.204ZM27.2628 104.762C27.563 104.762 27.7963 104.617 27.9625 104.327C28.1287 104.038 28.2118 103.625 28.2118 103.089C28.2118 102.732 28.1736 102.429 28.0972 102.178C28.0221 101.928 27.9135 101.737 27.7715 101.605C27.6307 101.474 27.4612 101.408 27.2628 101.408C26.9652 101.408 26.7327 101.555 26.5651 101.848C26.3976 102.141 26.3138 102.554 26.3138 103.089C26.3138 103.445 26.3514 103.748 26.4264 103.998C26.5015 104.247 26.6094 104.437 26.7501 104.567C26.8922 104.697 27.0631 104.762 27.2628 104.762Z" fill="#0F172A"/>
<path d="M19.8781 117.922L21.7198 114.279V114.247H19.5967V113.805H22.2345V114.271L20.4009 117.922H19.8781ZM24.2385 117.978C23.9355 117.978 23.6775 117.896 23.4644 117.731C23.2513 117.565 23.0884 117.324 22.9759 117.009C22.8633 116.693 22.807 116.311 22.807 115.863C22.807 115.418 22.8633 115.038 22.9759 114.723C23.0898 114.407 23.2533 114.166 23.4664 114C23.6809 113.832 23.9382 113.748 24.2385 113.748C24.5387 113.748 24.7954 113.832 25.0085 114C25.223 114.166 25.3865 114.407 25.4991 114.723C25.613 115.038 25.67 115.418 25.67 115.863C25.67 116.311 25.6137 116.693 25.5011 117.009C25.3885 117.324 25.2256 117.565 25.0125 117.731C24.7994 117.896 24.5414 117.978 24.2385 117.978ZM24.2385 117.536C24.5387 117.536 24.7719 117.391 24.9381 117.102C25.1043 116.812 25.1874 116.399 25.1874 115.863C25.1874 115.507 25.1492 115.203 25.0728 114.953C24.9978 114.702 24.8892 114.511 24.7471 114.38C24.6064 114.248 24.4368 114.183 24.2385 114.183C23.9409 114.183 23.7084 114.329 23.5408 114.623C23.3733 114.915 23.2895 115.329 23.2895 115.863C23.2895 116.22 23.327 116.523 23.4021 116.772C23.4771 117.021 23.585 117.211 23.7258 117.341C23.8679 117.471 24.0388 117.536 24.2385 117.536Z" fill="#0F172A"/>
<path d="M19.653 129.852V129.442L21.4624 126.579H21.76V127.214H21.5589L20.1918 129.378V129.41H22.6285V129.852H19.653ZM21.5911 130.697V129.727V129.536V126.579H22.0656V130.697H21.5911ZM24.725 130.753C24.4221 130.753 24.1641 130.67 23.951 130.506C23.7378 130.339 23.575 130.099 23.4624 129.784C23.3498 129.467 23.2935 129.085 23.2935 128.638C23.2935 128.193 23.3498 127.813 23.4624 127.498C23.5763 127.181 23.7399 126.94 23.953 126.774C24.1674 126.606 24.4248 126.523 24.725 126.523C25.0252 126.523 25.2819 126.606 25.495 126.774C25.7095 126.94 25.873 127.181 25.9856 127.498C26.0995 127.813 26.1565 128.193 26.1565 128.638C26.1565 129.085 26.1002 129.467 25.9876 129.784C25.875 130.099 25.7122 130.339 25.4991 130.506C25.2859 130.67 25.0279 130.753 24.725 130.753ZM24.725 130.311C25.0252 130.311 25.2585 130.166 25.4247 129.876C25.5909 129.587 25.674 129.174 25.674 128.638C25.674 128.281 25.6358 127.978 25.5594 127.727C25.4843 127.476 25.3758 127.285 25.2337 127.154C25.0929 127.023 24.9234 126.957 24.725 126.957C24.4275 126.957 24.1949 127.104 24.0274 127.397C23.8598 127.689 23.776 128.103 23.776 128.638C23.776 128.994 23.8136 129.297 23.8886 129.547C23.9637 129.796 24.0716 129.985 24.2123 130.115C24.3544 130.246 24.5253 130.311 24.725 130.311Z" fill="#0F172A"/>
<path d="M21.197 139.353V143.471H20.6984V139.876H20.6743L19.6691 140.544V140.037L20.6984 139.353H21.197ZM23.7243 143.527C23.4214 143.527 23.1633 143.445 22.9502 143.28C22.7371 143.114 22.5743 142.873 22.4617 142.558C22.3491 142.242 22.2928 141.86 22.2928 141.412C22.2928 140.967 22.3491 140.587 22.4617 140.272C22.5756 139.956 22.7391 139.715 22.9522 139.548C23.1667 139.381 23.424 139.297 23.7243 139.297C24.0245 139.297 24.2812 139.381 24.4943 139.548C24.7088 139.715 24.8723 139.956 24.9849 140.272C25.0988 140.587 25.1558 140.967 25.1558 141.412C25.1558 141.86 25.0995 142.242 24.9869 142.558C24.8743 142.873 24.7114 143.114 24.4983 143.28C24.2852 143.445 24.0272 143.527 23.7243 143.527ZM23.7243 143.085C24.0245 143.085 24.2577 142.94 24.4239 142.651C24.5901 142.361 24.6732 141.948 24.6732 141.412C24.6732 141.056 24.635 140.752 24.5586 140.501C24.4836 140.251 24.375 140.06 24.2329 139.928C24.0922 139.797 23.9226 139.731 23.7243 139.731C23.4267 139.731 23.1942 139.878 23.0266 140.172C22.8591 140.464 22.7753 140.877 22.7753 141.412C22.7753 141.769 22.8128 142.072 22.8879 142.321C22.963 142.57 23.0709 142.76 23.2116 142.89C23.3537 143.02 23.5246 143.085 23.7243 143.085Z" fill="#0F172A"/>
<g clip-path="url(#clip1_6852_17308)">
<path d="M34.9849 86.7737H364.211" stroke="#F1F1F1" stroke-width="0.471802"/>
<path d="M34.9849 74.0354H364.211" stroke="#F1F1F1" stroke-width="0.471802"/>
<path d="M34.9849 99.512H364.211" stroke="#F1F1F1" stroke-width="0.471802"/>
<path d="M34.9849 112.25H364.211" stroke="#F1F1F1" stroke-width="0.471802"/>
<path d="M34.9849 124.989H364.211" stroke="#F1F1F1" stroke-width="0.471802"/>
<path d="M90.3525 60.8245L90.3525 139.615" stroke="#F1F1F1" stroke-width="0.471802"/>
<path d="M144.869 60.8245L144.869 139.615" stroke="#F1F1F1" stroke-width="0.471802"/>
<path d="M198.958 60.8245L198.958 139.615" stroke="#F1F1F1" stroke-width="0.471802"/>
<path d="M253.475 60.8245L253.475 139.615" stroke="#F1F1F1" stroke-width="0.471802"/>
<path d="M307.992 60.8245L307.992 139.615" stroke="#F1F1F1" stroke-width="0.471802"/>
<path d="M34.5591 125.461L88.9778 112.713C90.2755 112.409 91.6265 112.414 92.9216 112.729L140.835 124.381C143.607 125.055 146.532 124.292 148.622 122.351L195.966 78.3619C198.478 76.0272 202.149 75.4332 205.269 76.8562L254.956 99.5116L306.12 116.816C307.334 117.227 308.625 117.357 309.897 117.198L364.428 110.363" stroke="#FE9239" stroke-width="0.943605"/>
<path d="M34.5591 98.8043L88.6212 87.1638C89.8159 86.9065 91.052 86.9102 92.2451 87.1744L144.757 98.8043L199.081 112.251L251.165 124.68C253.268 125.182 255.483 124.863 257.358 123.788L306.842 95.4372C307.586 95.0109 308.39 94.6997 309.228 94.5143L364.428 82.2913" stroke="#2662D9" stroke-width="0.943605"/>
</g>
<path d="M38.7593 61.0608H360.436C362.39 61.0608 363.975 62.6446 363.975 64.5989V135.841C363.975 137.795 362.39 139.379 360.436 139.379H38.7593C36.805 139.379 35.2212 137.795 35.2212 135.841V64.5989C35.2212 62.6446 36.805 61.0608 38.7593 61.0608Z" stroke="#F1F1F1" stroke-width="0.471802"/>
<path d="M59.7072 145.273H60.2058V148.216C60.2058 148.479 60.1575 148.702 60.061 148.885C59.9645 149.069 59.8285 149.209 59.6529 149.304C59.4773 149.399 59.2702 149.446 59.0316 149.446C58.8064 149.446 58.6061 149.406 58.4305 149.324C58.2549 149.241 58.1168 149.123 58.0163 148.97C57.9158 148.817 57.8655 148.636 57.8655 148.425H58.3561C58.3561 148.542 58.3849 148.644 58.4425 148.731C58.5015 148.816 58.5819 148.883 58.6838 148.932C58.7857 148.98 58.9016 149.004 59.0316 149.004C59.175 149.004 59.297 148.974 59.3975 148.914C59.4981 148.853 59.5745 148.765 59.6267 148.648C59.6804 148.53 59.7072 148.386 59.7072 148.216V145.273ZM62.0494 149.463C61.8537 149.463 61.6761 149.426 61.5166 149.352C61.3571 149.277 61.2305 149.169 61.1366 149.028C61.0428 148.886 60.9959 148.715 60.9959 148.514C60.9959 148.337 61.0308 148.193 61.1005 148.083C61.1701 147.972 61.2633 147.885 61.3799 147.822C61.4965 147.759 61.6252 147.712 61.7659 147.681C61.908 147.649 62.0508 147.624 62.1942 147.605C62.3818 147.581 62.534 147.563 62.6506 147.551C62.7685 147.537 62.8543 147.515 62.9079 147.484C62.9629 147.453 62.9903 147.4 62.9903 147.323V147.307C62.9903 147.109 62.9361 146.955 62.8275 146.845C62.7203 146.735 62.5574 146.68 62.3389 146.68C62.1124 146.68 61.9348 146.73 61.8061 146.829C61.6775 146.928 61.587 147.034 61.5347 147.146L61.0844 146.986C61.1648 146.798 61.272 146.652 61.4061 146.547C61.5414 146.441 61.6889 146.368 61.8484 146.326C62.0092 146.283 62.1674 146.262 62.3228 146.262C62.422 146.262 62.536 146.274 62.6646 146.298C62.7947 146.321 62.92 146.368 63.0406 146.441C63.1626 146.513 63.2638 146.622 63.3442 146.768C63.4246 146.915 63.4648 147.11 63.4648 147.355V149.39H62.9903V148.972H62.9662C62.934 149.039 62.8804 149.111 62.8054 149.187C62.7303 149.263 62.6305 149.328 62.5058 149.382C62.3812 149.436 62.229 149.463 62.0494 149.463ZM62.1218 149.036C62.3094 149.036 62.4676 148.999 62.5963 148.926C62.7263 148.852 62.8241 148.757 62.8898 148.64C62.9568 148.524 62.9903 148.401 62.9903 148.272V147.838C62.9702 147.862 62.926 147.884 62.8576 147.904C62.7906 147.923 62.7129 147.94 62.6244 147.955C62.5373 147.968 62.4522 147.98 62.3691 147.991C62.2873 148 62.221 148.008 62.17 148.015C62.0467 148.031 61.9315 148.057 61.8242 148.093C61.7184 148.128 61.6326 148.181 61.5669 148.252C61.5026 148.322 61.4704 148.417 61.4704 148.538C61.4704 148.703 61.5314 148.827 61.6533 148.912C61.7767 148.995 61.9328 149.036 62.1218 149.036ZM64.8053 147.532V149.39H64.3309V146.302H64.7893V146.785H64.8295C64.9018 146.628 65.0118 146.502 65.1592 146.407C65.3066 146.31 65.497 146.262 65.7302 146.262C65.9393 146.262 66.1222 146.305 66.2791 146.39C66.4359 146.475 66.5578 146.604 66.645 146.776C66.7321 146.948 66.7757 147.165 66.7757 147.428V149.39H66.3012V147.46C66.3012 147.217 66.2382 147.028 66.1122 146.893C65.9862 146.756 65.8133 146.688 65.5935 146.688C65.442 146.688 65.3066 146.721 65.1873 146.787C65.0694 146.852 64.9762 146.948 64.9079 147.074C64.8395 147.2 64.8053 147.353 64.8053 147.532Z" fill="#0F172A"/>
<path d="M112.836 149.39V145.273H115.305V145.715H113.335V147.106H115.12V147.548H113.335V149.39H112.836ZM117.163 149.454C116.865 149.454 116.609 149.389 116.393 149.257C116.178 149.125 116.013 148.94 115.896 148.703C115.781 148.464 115.723 148.187 115.723 147.87C115.723 147.554 115.781 147.275 115.896 147.034C116.013 146.791 116.175 146.602 116.383 146.467C116.592 146.33 116.836 146.262 117.115 146.262C117.275 146.262 117.434 146.289 117.591 146.342C117.748 146.396 117.891 146.483 118.019 146.604C118.148 146.723 118.25 146.881 118.327 147.078C118.403 147.275 118.441 147.518 118.441 147.806V148.007H116.061V147.597H117.959C117.959 147.423 117.924 147.267 117.854 147.13C117.786 146.994 117.688 146.886 117.561 146.807C117.435 146.728 117.286 146.688 117.115 146.688C116.926 146.688 116.762 146.735 116.624 146.829C116.487 146.921 116.382 147.042 116.308 147.191C116.235 147.339 116.198 147.499 116.198 147.669V147.943C116.198 148.176 116.238 148.373 116.318 148.536C116.4 148.697 116.513 148.819 116.658 148.904C116.803 148.987 116.971 149.028 117.163 149.028C117.287 149.028 117.4 149.011 117.501 148.976C117.602 148.94 117.69 148.886 117.764 148.815C117.838 148.743 117.895 148.653 117.935 148.546L118.393 148.674C118.345 148.83 118.264 148.967 118.15 149.085C118.036 149.201 117.895 149.292 117.728 149.358C117.56 149.422 117.372 149.454 117.163 149.454ZM119.228 149.39V145.273H119.702V146.793H119.742C119.777 146.739 119.825 146.671 119.887 146.587C119.95 146.503 120.04 146.428 120.156 146.362C120.274 146.295 120.434 146.262 120.635 146.262C120.895 146.262 121.124 146.327 121.323 146.457C121.521 146.587 121.676 146.771 121.787 147.01C121.898 147.248 121.954 147.53 121.954 147.854C121.954 148.181 121.898 148.465 121.787 148.705C121.676 148.943 121.522 149.128 121.325 149.259C121.128 149.389 120.9 149.454 120.643 149.454C120.445 149.454 120.286 149.422 120.166 149.356C120.047 149.289 119.955 149.213 119.891 149.129C119.827 149.043 119.777 148.972 119.742 148.916H119.686V149.39H119.228ZM119.694 147.846C119.694 148.079 119.728 148.285 119.797 148.463C119.865 148.64 119.965 148.779 120.096 148.879C120.227 148.979 120.388 149.028 120.579 149.028C120.777 149.028 120.943 148.976 121.075 148.871C121.209 148.766 121.31 148.623 121.377 148.445C121.445 148.266 121.479 148.066 121.479 147.846C121.479 147.629 121.446 147.433 121.379 147.259C121.313 147.083 121.213 146.945 121.079 146.843C120.947 146.74 120.78 146.688 120.579 146.688C120.386 146.688 120.223 146.737 120.092 146.835C119.961 146.931 119.862 147.067 119.795 147.241C119.728 147.414 119.694 147.616 119.694 147.846Z" fill="#0F172A"/>
<path d="M167.494 145.273H168.089L169.489 148.69H169.537L170.936 145.273H171.531V149.39H171.065V146.262H171.025L169.738 149.39H169.288L168.001 146.262H167.961V149.39H167.494V145.273ZM173.376 149.463C173.18 149.463 173.002 149.426 172.843 149.352C172.683 149.277 172.557 149.169 172.463 149.028C172.369 148.886 172.322 148.715 172.322 148.514C172.322 148.337 172.357 148.193 172.427 148.083C172.496 147.972 172.59 147.885 172.706 147.822C172.823 147.759 172.951 147.712 173.092 147.681C173.234 147.649 173.377 147.624 173.52 147.605C173.708 147.581 173.86 147.563 173.977 147.551C174.095 147.537 174.181 147.515 174.234 147.484C174.289 147.453 174.317 147.4 174.317 147.323V147.307C174.317 147.109 174.262 146.955 174.154 146.845C174.046 146.735 173.884 146.68 173.665 146.68C173.439 146.68 173.261 146.73 173.132 146.829C173.004 146.928 172.913 147.034 172.861 147.146L172.411 146.986C172.491 146.798 172.598 146.652 172.732 146.547C172.868 146.441 173.015 146.368 173.175 146.326C173.335 146.283 173.494 146.262 173.649 146.262C173.748 146.262 173.862 146.274 173.991 146.298C174.121 146.321 174.246 146.368 174.367 146.441C174.489 146.513 174.59 146.622 174.67 146.768C174.751 146.915 174.791 147.11 174.791 147.355V149.39H174.317V148.972H174.292C174.26 149.039 174.207 149.111 174.132 149.187C174.057 149.263 173.957 149.328 173.832 149.382C173.707 149.436 173.555 149.463 173.376 149.463ZM173.448 149.036C173.636 149.036 173.794 148.999 173.923 148.926C174.053 148.852 174.15 148.757 174.216 148.64C174.283 148.524 174.317 148.401 174.317 148.272V147.838C174.296 147.862 174.252 147.884 174.184 147.904C174.117 147.923 174.039 147.94 173.951 147.955C173.864 147.968 173.778 147.98 173.695 147.991C173.614 148 173.547 148.008 173.496 148.015C173.373 148.031 173.258 148.057 173.15 148.093C173.045 148.128 172.959 148.181 172.893 148.252C172.829 148.322 172.797 148.417 172.797 148.538C172.797 148.703 172.858 148.827 172.98 148.912C173.103 148.995 173.259 149.036 173.448 149.036ZM175.657 149.39V146.302H176.115V146.768H176.148C176.204 146.616 176.306 146.492 176.453 146.396C176.601 146.301 176.767 146.254 176.952 146.254C176.987 146.254 177.03 146.254 177.083 146.256C177.135 146.257 177.174 146.259 177.201 146.262V146.744C177.185 146.74 177.148 146.734 177.091 146.726C177.034 146.717 176.975 146.712 176.912 146.712C176.762 146.712 176.627 146.744 176.51 146.807C176.393 146.868 176.3 146.954 176.232 147.064C176.165 147.173 176.132 147.297 176.132 147.436V149.39H175.657Z" fill="#0F172A"/>
<path d="M223.009 149.39H222.487L223.999 145.273H224.513L226.025 149.39H225.502L224.272 145.924H224.24L223.009 149.39ZM223.202 147.782H225.309V148.224H223.202V147.782ZM226.602 150.548V146.302H227.061V146.793H227.117C227.152 146.739 227.2 146.671 227.262 146.587C227.325 146.503 227.414 146.428 227.531 146.362C227.649 146.295 227.808 146.262 228.01 146.262C228.27 146.262 228.499 146.327 228.697 146.457C228.895 146.587 229.05 146.771 229.162 147.01C229.273 147.248 229.328 147.53 229.328 147.854C229.328 148.181 229.273 148.465 229.162 148.705C229.05 148.943 228.896 149.128 228.699 149.259C228.502 149.389 228.275 149.454 228.018 149.454C227.819 149.454 227.66 149.422 227.541 149.356C227.422 149.289 227.33 149.213 227.266 149.129C227.201 149.043 227.152 148.972 227.117 148.916H227.077V150.548H226.602ZM227.069 147.846C227.069 148.079 227.103 148.285 227.171 148.463C227.239 148.64 227.339 148.779 227.471 148.879C227.602 148.979 227.763 149.028 227.953 149.028C228.152 149.028 228.317 148.976 228.45 148.871C228.584 148.766 228.684 148.623 228.751 148.445C228.82 148.266 228.854 148.066 228.854 147.846C228.854 147.629 228.82 147.433 228.753 147.259C228.688 147.083 228.588 146.945 228.454 146.843C228.321 146.74 228.154 146.688 227.953 146.688C227.76 146.688 227.598 146.737 227.467 146.835C227.335 146.931 227.236 147.067 227.169 147.241C227.102 147.414 227.069 147.616 227.069 147.846ZM230.052 149.39V146.302H230.511V146.768H230.543C230.599 146.616 230.701 146.492 230.848 146.396C230.996 146.301 231.162 146.254 231.347 146.254C231.382 146.254 231.425 146.254 231.478 146.256C231.53 146.257 231.569 146.259 231.596 146.262V146.744C231.58 146.74 231.543 146.734 231.486 146.726C231.429 146.717 231.37 146.712 231.307 146.712C231.157 146.712 231.023 146.744 230.905 146.807C230.788 146.868 230.696 146.954 230.627 147.064C230.56 147.173 230.527 147.297 230.527 147.436V149.39H230.052Z" fill="#0F172A"/>
<path d="M276.769 145.273H277.364L278.763 148.69H278.812L280.211 145.273H280.806V149.39H280.34V146.262H280.299L279.013 149.39H278.562L277.276 146.262H277.235V149.39H276.769V145.273ZM282.65 149.463C282.454 149.463 282.277 149.426 282.117 149.352C281.958 149.277 281.831 149.169 281.737 149.028C281.644 148.886 281.597 148.715 281.597 148.514C281.597 148.337 281.631 148.193 281.701 148.083C281.771 147.972 281.864 147.885 281.981 147.822C282.097 147.759 282.226 147.712 282.367 147.681C282.509 147.649 282.651 147.624 282.795 147.605C282.983 147.581 283.135 147.563 283.251 147.551C283.369 147.537 283.455 147.515 283.509 147.484C283.564 147.453 283.591 147.4 283.591 147.323V147.307C283.591 147.109 283.537 146.955 283.428 146.845C283.321 146.735 283.158 146.68 282.94 146.68C282.713 146.68 282.536 146.73 282.407 146.829C282.278 146.928 282.188 147.034 282.135 147.146L281.685 146.986C281.766 146.798 281.873 146.652 282.007 146.547C282.142 146.441 282.29 146.368 282.449 146.326C282.61 146.283 282.768 146.262 282.924 146.262C283.023 146.262 283.137 146.274 283.265 146.298C283.395 146.321 283.521 146.368 283.641 146.441C283.763 146.513 283.865 146.622 283.945 146.768C284.025 146.915 284.066 147.11 284.066 147.355V149.39H283.591V148.972H283.567C283.535 149.039 283.481 149.111 283.406 149.187C283.331 149.263 283.231 149.328 283.107 149.382C282.982 149.436 282.83 149.463 282.65 149.463ZM282.723 149.036C282.91 149.036 283.068 148.999 283.197 148.926C283.327 148.852 283.425 148.757 283.491 148.64C283.558 148.524 283.591 148.401 283.591 148.272V147.838C283.571 147.862 283.527 147.884 283.458 147.904C283.391 147.923 283.314 147.94 283.225 147.955C283.138 147.968 283.053 147.98 282.97 147.991C282.888 148 282.822 148.008 282.771 148.015C282.647 148.031 282.532 148.057 282.425 148.093C282.319 148.128 282.233 148.181 282.168 148.252C282.103 148.322 282.071 148.417 282.071 148.538C282.071 148.703 282.132 148.827 282.254 148.912C282.377 148.995 282.534 149.036 282.723 149.036ZM285.127 150.548C285.046 150.548 284.974 150.541 284.911 150.528C284.848 150.516 284.805 150.504 284.781 150.492L284.901 150.074C285.017 150.103 285.119 150.114 285.207 150.106C285.295 150.098 285.374 150.058 285.442 149.987C285.512 149.918 285.576 149.804 285.633 149.647L285.722 149.406L284.58 146.302H285.094L285.947 148.763H285.979L286.832 146.302H287.346L286.035 149.84C285.976 150 285.903 150.132 285.816 150.237C285.729 150.342 285.628 150.421 285.513 150.472C285.399 150.523 285.27 150.548 285.127 150.548Z" fill="#0F172A"/>
<path d="M334.012 145.273H334.511V148.216C334.511 148.479 334.463 148.702 334.366 148.885C334.27 149.069 334.134 149.209 333.958 149.304C333.783 149.399 333.575 149.446 333.337 149.446C333.112 149.446 332.911 149.406 332.736 149.324C332.56 149.241 332.422 149.123 332.322 148.97C332.221 148.817 332.171 148.636 332.171 148.425H332.661C332.661 148.542 332.69 148.644 332.748 148.731C332.807 148.816 332.887 148.883 332.989 148.932C333.091 148.98 333.207 149.004 333.337 149.004C333.48 149.004 333.602 148.974 333.703 148.914C333.803 148.853 333.88 148.765 333.932 148.648C333.986 148.53 334.012 148.386 334.012 148.216V145.273ZM337.392 148.128V146.302H337.867V149.39H337.392V148.867H337.36C337.288 149.024 337.175 149.158 337.022 149.267C336.869 149.376 336.676 149.43 336.443 149.43C336.25 149.43 336.079 149.388 335.928 149.304C335.778 149.218 335.66 149.089 335.575 148.918C335.489 148.745 335.446 148.527 335.446 148.264V146.302H335.92V148.232C335.92 148.457 335.983 148.637 336.109 148.771C336.237 148.905 336.399 148.972 336.596 148.972C336.714 148.972 336.834 148.942 336.956 148.881C337.079 148.821 337.182 148.729 337.265 148.604C337.35 148.479 337.392 148.321 337.392 148.128ZM339.21 147.532V149.39H338.736V146.302H339.194V146.785H339.234C339.307 146.628 339.416 146.502 339.564 146.407C339.711 146.31 339.902 146.262 340.135 146.262C340.344 146.262 340.527 146.305 340.684 146.39C340.841 146.475 340.963 146.604 341.05 146.776C341.137 146.948 341.18 147.165 341.18 147.428V149.39H340.706V147.46C340.706 147.217 340.643 147.028 340.517 146.893C340.391 146.756 340.218 146.688 339.998 146.688C339.847 146.688 339.711 146.721 339.592 146.787C339.474 146.852 339.381 146.948 339.313 147.074C339.244 147.2 339.21 147.353 339.21 147.532Z" fill="#0F172A"/>
</g>
<rect x="8.2359" y="8.61871" width="367.062" height="158.526" rx="5.42573" stroke="#E2E8F0" stroke-width="0.471802"/>
</g>
<defs>
<filter id="filter0_d_6852_17308" x="0" y="0.382812" width="399.534" height="190.998" filterUnits="userSpaceOnUse" color-interpolation-filters="sRGB">
<feFlood flood-opacity="0" result="BackgroundImageFix"/>
<feColorMatrix in="SourceAlpha" type="matrix" values="0 0 0 0 0 0 0 0 0 0 0 0 0 0 0 0 0 0 127 0" result="hardAlpha"/>
<feOffset dx="8" dy="8"/>
<feGaussianBlur stdDeviation="8"/>
<feComposite in2="hardAlpha" operator="out"/>
<feColorMatrix type="matrix" values="0 0 0 0 0.0970139 0 0 0 0 0.127226 0 0 0 0 0.183333 0 0 0 0.25 0"/>
<feBlend mode="normal" in2="BackgroundImageFix" result="effect1_dropShadow_6852_17308"/>
<feBlend mode="normal" in="SourceGraphic" in2="effect1_dropShadow_6852_17308" result="shape"/>
</filter>
<clipPath id="clip0_6852_17308">
<rect x="8" y="8.38281" width="367.534" height="158.997" rx="5.66163" fill="white"/>
</clipPath>
<clipPath id="clip1_6852_17308">
<path d="M34.9849 64.5989C34.9849 62.5143 36.6747 60.8245 38.7593 60.8245H360.436C362.521 60.8245 364.211 62.5143 364.211 64.5989V135.841C364.211 137.926 362.521 139.615 360.436 139.615H38.7593C36.6747 139.615 34.9849 137.926 34.9849 135.841V64.5989Z" fill="white"/>
</clipPath>
</defs>
</svg>
