<svg width="312" height="138" viewBox="0 0 312 138" fill="none" xmlns="http://www.w3.org/2000/svg">
<g filter="url(#filter0_d_6852_17295)">
<rect x="8" y="8" width="280" height="112" rx="12" fill="white" shape-rendering="crispEdges"/>
<rect x="8.5" y="8.5" width="279" height="111" rx="11.5" stroke="#E2E8F0" shape-rendering="crispEdges"/>
<path d="M37.152 47.224C34.464 47.224 32.616 45.278 32.616 42.044C32.616 38.838 34.436 36.836 37.166 36.836C39.63 36.836 40.946 38.152 41.366 40.322L39.784 40.406C39.518 39.048 38.678 38.222 37.166 38.222C35.36 38.222 34.184 39.678 34.184 42.044C34.184 44.424 35.374 45.838 37.152 45.838C38.762 45.838 39.616 44.928 39.854 43.444L41.436 43.528C41.058 45.782 39.602 47.224 37.152 47.224ZM45.0344 47.168C43.4804 47.168 42.4864 46.426 42.4864 45.138C42.4864 43.864 43.2284 43.178 44.8664 42.856L47.4284 42.366C47.4284 41.218 46.8824 40.644 45.8184 40.644C44.8664 40.644 44.3344 41.078 44.1384 41.89L42.6124 41.792C42.8924 40.308 44.0544 39.384 45.8184 39.384C47.8344 39.384 48.9124 40.518 48.9124 42.45V45.348C48.9124 45.712 49.0244 45.824 49.3044 45.824H49.5704V47C49.4724 47.028 49.2484 47.042 49.0244 47.042C48.1704 47.042 47.6664 46.72 47.5544 45.852C47.1764 46.636 46.1964 47.168 45.0344 47.168ZM45.2724 45.992C46.6164 45.992 47.4284 45.152 47.4284 43.962V43.486L45.2444 43.906C44.3484 44.074 44.0264 44.424 44.0264 44.998C44.0264 45.642 44.4744 45.992 45.2724 45.992ZM50.8234 49.1V39.552H52.2234L52.2514 40.686C52.6854 39.832 53.5114 39.384 54.5054 39.384C56.6894 39.384 57.6974 41.176 57.6974 43.276C57.6974 45.376 56.6754 47.168 54.5054 47.168C53.5534 47.168 52.7134 46.72 52.3074 45.992V49.1H50.8234ZM54.2394 45.88C55.4294 45.88 56.1574 44.914 56.1574 43.276C56.1574 41.638 55.4294 40.672 54.2394 40.672C53.0494 40.672 52.3074 41.554 52.3074 43.276C52.3074 44.998 53.0354 45.88 54.2394 45.88ZM62.2703 47.168C60.1283 47.168 58.7423 45.628 58.7423 43.276C58.7423 40.924 60.1283 39.384 62.2703 39.384C64.0763 39.384 65.3503 40.364 65.6023 42.086L64.0483 42.17C63.8943 41.204 63.2083 40.672 62.2703 40.672C61.0103 40.672 60.2823 41.638 60.2823 43.276C60.2823 44.914 61.0103 45.88 62.2703 45.88C63.2223 45.88 63.9083 45.348 64.0483 44.27L65.6023 44.354C65.3643 46.062 64.0903 47.168 62.2703 47.168ZM69.1926 47.168C67.6386 47.168 66.6446 46.426 66.6446 45.138C66.6446 43.864 67.3866 43.178 69.0246 42.856L71.5866 42.366C71.5866 41.218 71.0406 40.644 69.9766 40.644C69.0246 40.644 68.4926 41.078 68.2966 41.89L66.7706 41.792C67.0506 40.308 68.2126 39.384 69.9766 39.384C71.9926 39.384 73.0706 40.518 73.0706 42.45V45.348C73.0706 45.712 73.1826 45.824 73.4626 45.824H73.7286V47C73.6306 47.028 73.4066 47.042 73.1826 47.042C72.3286 47.042 71.8246 46.72 71.7126 45.852C71.3346 46.636 70.3546 47.168 69.1926 47.168ZM69.4306 45.992C70.7746 45.992 71.5866 45.152 71.5866 43.962V43.486L69.4026 43.906C68.5066 44.074 68.1846 44.424 68.1846 44.998C68.1846 45.642 68.6326 45.992 69.4306 45.992ZM74.9816 47V39.552H76.3396L76.3676 40.854C76.7596 39.832 77.6136 39.384 78.6356 39.384C80.3016 39.384 81.1556 40.588 81.1556 42.212V47H79.6716V42.66C79.6716 41.344 79.2656 40.63 78.2296 40.63C77.1796 40.63 76.4656 41.344 76.4656 42.66V47H74.9816ZM86.1551 47.168C83.9851 47.168 82.6271 45.628 82.6271 43.276C82.6271 40.924 83.9851 39.384 86.1131 39.384C88.1431 39.384 89.5151 40.826 89.5151 43.332V43.71H84.1671C84.2371 45.166 84.9791 45.894 86.1691 45.894C87.0371 45.894 87.6251 45.46 87.8631 44.76L89.4031 44.858C89.0111 46.244 87.7931 47.168 86.1551 47.168ZM84.1671 42.59H87.9471C87.8491 41.274 87.1211 40.644 86.1131 40.644C85.0491 40.644 84.3351 41.33 84.1671 42.59ZM96.6458 47.168C95.0918 47.168 94.0978 46.426 94.0978 45.138C94.0978 43.864 94.8398 43.178 96.4778 42.856L99.0398 42.366C99.0398 41.218 98.4938 40.644 97.4298 40.644C96.4778 40.644 95.9458 41.078 95.7498 41.89L94.2238 41.792C94.5038 40.308 95.6658 39.384 97.4298 39.384C99.4458 39.384 100.524 40.518 100.524 42.45V45.348C100.524 45.712 100.636 45.824 100.916 45.824H101.182V47C101.084 47.028 100.86 47.042 100.636 47.042C99.7818 47.042 99.2778 46.72 99.1658 45.852C98.7878 46.636 97.8078 47.168 96.6458 47.168ZM96.8838 45.992C98.2278 45.992 99.0398 45.152 99.0398 43.962V43.486L96.8558 43.906C95.9598 44.074 95.6378 44.424 95.6378 44.998C95.6378 45.642 96.0858 45.992 96.8838 45.992ZM104.908 47C103.494 47 102.836 46.384 102.836 44.984V40.77H101.702V39.552H102.836V37.802H104.32V39.552H106.294V40.77H104.32V44.872C104.32 45.572 104.614 45.782 105.23 45.782H106.294V47H104.908ZM109.757 47.168C108.203 47.168 107.209 46.426 107.209 45.138C107.209 43.864 107.951 43.178 109.589 42.856L112.151 42.366C112.151 41.218 111.605 40.644 110.541 40.644C109.589 40.644 109.057 41.078 108.861 41.89L107.335 41.792C107.615 40.308 108.777 39.384 110.541 39.384C112.557 39.384 113.635 40.518 113.635 42.45V45.348C113.635 45.712 113.747 45.824 114.027 45.824H114.293V47C114.195 47.028 113.971 47.042 113.747 47.042C112.893 47.042 112.389 46.72 112.277 45.852C111.899 46.636 110.919 47.168 109.757 47.168ZM109.995 45.992C111.339 45.992 112.151 45.152 112.151 43.962V43.486L109.967 43.906C109.071 44.074 108.749 44.424 108.749 44.998C108.749 45.642 109.197 45.992 109.995 45.992ZM118.557 47.168C116.415 47.168 115.029 45.628 115.029 43.276C115.029 40.924 116.415 39.384 118.557 39.384C120.363 39.384 121.637 40.364 121.889 42.086L120.335 42.17C120.181 41.204 119.495 40.672 118.557 40.672C117.297 40.672 116.569 41.638 116.569 43.276C116.569 44.914 117.297 45.88 118.557 45.88C119.509 45.88 120.195 45.348 120.335 44.27L121.889 44.354C121.651 46.062 120.377 47.168 118.557 47.168ZM125.48 47.168C123.926 47.168 122.932 46.426 122.932 45.138C122.932 43.864 123.674 43.178 125.312 42.856L127.874 42.366C127.874 41.218 127.328 40.644 126.264 40.644C125.312 40.644 124.78 41.078 124.584 41.89L123.058 41.792C123.338 40.308 124.5 39.384 126.264 39.384C128.28 39.384 129.358 40.518 129.358 42.45V45.348C129.358 45.712 129.47 45.824 129.75 45.824H130.016V47C129.918 47.028 129.694 47.042 129.47 47.042C128.616 47.042 128.112 46.72 128 45.852C127.622 46.636 126.642 47.168 125.48 47.168ZM125.718 45.992C127.062 45.992 127.874 45.152 127.874 43.962V43.486L125.69 43.906C124.794 44.074 124.472 44.424 124.472 44.998C124.472 45.642 124.92 45.992 125.718 45.992ZM133.742 47C132.328 47 131.67 46.384 131.67 44.984V40.77H130.536V39.552H131.67V37.802H133.154V39.552H135.128V40.77H133.154V44.872C133.154 45.572 133.448 45.782 134.064 45.782H135.128V47H133.742ZM139.489 47.168C137.319 47.168 135.961 45.628 135.961 43.276C135.961 40.924 137.319 39.384 139.447 39.384C141.477 39.384 142.849 40.826 142.849 43.332V43.71H137.501C137.571 45.166 138.313 45.894 139.503 45.894C140.371 45.894 140.959 45.46 141.197 44.76L142.737 44.858C142.345 46.244 141.127 47.168 139.489 47.168ZM137.501 42.59H141.281C141.183 41.274 140.455 40.644 139.447 40.644C138.383 40.644 137.669 41.33 137.501 42.59Z" fill="#020617"/>
<path d="M264 23.5C268.694 23.5 272.5 27.3056 272.5 32V52C272.5 56.6944 268.694 60.5 264 60.5H244C239.306 60.5 235.5 56.6944 235.5 52V32C235.5 27.3056 239.306 23.5 244 23.5H264Z" fill="white"/>
<path d="M264 23.5C268.694 23.5 272.5 27.3056 272.5 32V52C272.5 56.6944 268.694 60.5 264 60.5H244C239.306 60.5 235.5 56.6944 235.5 52V32C235.5 27.3056 239.306 23.5 244 23.5H264Z" stroke="#E2E8F0"/>
<g clip-path="url(#clip0_6852_17295)">
<path d="M254 44.6666V41.9999M254 39.3333H254.007M260.667 41.9999C260.667 45.6818 257.682 48.6666 254 48.6666C250.318 48.6666 247.333 45.6818 247.333 41.9999C247.333 38.318 250.318 35.3333 254 35.3333C257.682 35.3333 260.667 38.318 260.667 41.9999Z" stroke="#64748B" stroke-linecap="round" stroke-linejoin="round"/>
</g>
<path d="M36.56 93V81.312H32.912V78.936H34.376C36.416 78.936 37.208 78.216 37.208 75.96H39.68V93H36.56ZM50.3414 93V89.592H41.7974V87.048L49.8374 75.96H53.4614V86.88H55.5014V89.592H53.4614V93H50.3414ZM45.2054 86.88H50.3414V80.016L45.2054 86.88Z" fill="#020617"/>
<path d="M64.216 90.144C62.56 90.144 61.528 88.86 61.528 86.82C61.528 84.78 62.56 83.496 64.216 83.496C65.068 83.496 65.824 83.88 66.172 84.528V81.48H67.18V90H66.268L66.232 89.04C65.872 89.736 65.104 90.144 64.216 90.144ZM64.42 89.184C65.548 89.184 66.172 88.272 66.172 86.82C66.172 85.344 65.548 84.456 64.42 84.456C63.304 84.456 62.584 85.344 62.584 86.82C62.584 88.272 63.304 89.184 64.42 89.184ZM68.8383 82.644V81.468H69.8943V82.644H68.8383ZM68.8623 90V83.64H69.8703V90H68.8623ZM71.9092 90V83.64H72.8332L72.8572 84.78C73.1932 83.904 73.9372 83.496 74.8132 83.496C76.2652 83.496 76.9612 84.564 76.9612 85.908V90H75.9532V86.196C75.9532 85.02 75.5572 84.384 74.5972 84.384C73.6132 84.384 72.9172 85.02 72.9172 86.196V90H71.9092ZM85.6139 90V88.152H81.2819V87.216L85.5419 81.48H86.6459V87.144H87.7019V88.152H86.6459V90H85.6139ZM82.5299 87.144H85.6139V83.064L82.5299 87.144ZM91.9167 90.192C90.0207 90.192 88.9767 89.208 88.9047 87.804L89.9727 87.732C90.0687 88.776 90.8487 89.184 91.9167 89.184C93.0207 89.184 93.9807 88.776 93.9807 87.624C93.9807 86.496 93.1527 85.98 91.9287 85.98H91.2567V84.972H91.9287C92.9367 84.972 93.6807 84.612 93.6807 83.64C93.6807 82.764 93.1047 82.296 91.9767 82.296C90.8487 82.296 90.3087 82.752 90.2007 83.508L89.1207 83.436C89.2767 82.164 90.2727 81.288 91.9767 81.288C93.7047 81.288 94.7607 82.176 94.7607 83.592C94.7607 84.504 94.2567 85.116 93.2847 85.416C94.3887 85.716 95.0607 86.532 95.0607 87.624C95.0607 89.256 93.7647 90.192 91.9167 90.192Z" fill="#64748B"/>
<path d="M139.88 89.328V86.928H137.48V85.992H139.88V83.592H140.816V85.992H143.216V86.928H140.816V89.328H139.88ZM148.383 90V88.152H144.051V87.216L148.311 81.48H149.415V87.144H150.471V88.152H149.415V90H148.383ZM145.299 87.144H148.383V83.064L145.299 87.144Z" fill="#B3261E"/>
<path d="M157.584 90V84.528H156.72V83.64H157.584V83.064C157.584 82.128 158.112 81.48 159.264 81.48H160.272V82.368H159.336C158.832 82.368 158.592 82.656 158.592 83.136V83.64H160.188V84.528H158.592V90H157.584ZM163.047 90.144C161.727 90.144 160.899 89.508 160.899 88.416C160.899 87.336 161.511 86.736 162.903 86.472L165.159 86.052C165.159 84.984 164.655 84.456 163.647 84.456C162.759 84.456 162.267 84.864 162.075 85.596L161.007 85.512C161.247 84.312 162.207 83.496 163.647 83.496C165.279 83.496 166.167 84.48 166.167 86.088V88.716C166.167 89.004 166.263 89.112 166.503 89.112H166.755V90C166.683 90.012 166.527 90.024 166.371 90.024C165.603 90.024 165.255 89.724 165.171 89.016C164.859 89.676 163.983 90.144 163.047 90.144ZM163.143 89.256C164.415 89.256 165.159 88.44 165.159 87.384V86.928L163.095 87.312C162.231 87.468 161.955 87.792 161.955 88.32C161.955 88.92 162.399 89.256 163.143 89.256ZM169.905 90C168.753 90 168.213 89.496 168.213 88.368V84.528H167.277V83.64H168.213V82.152H169.221V83.64H170.913V84.528H169.221V88.344C169.221 88.92 169.473 89.112 170.001 89.112H170.913V90H169.905ZM168.597 92.88L169.257 91.716H168.825V90.636H170.025V91.62L169.293 92.88H168.597ZM174.535 82.764C173.551 82.764 172.903 82.164 172.855 81.228H173.551C173.623 81.78 173.983 82.02 174.535 82.02C175.087 82.02 175.435 81.78 175.507 81.228H176.203C176.155 82.164 175.519 82.764 174.535 82.764ZM173.875 90.144C172.555 90.144 171.727 89.508 171.727 88.416C171.727 87.336 172.339 86.736 173.731 86.472L175.987 86.052C175.987 84.984 175.483 84.456 174.475 84.456C173.587 84.456 173.095 84.864 172.903 85.596L171.835 85.512C172.075 84.312 173.035 83.496 174.475 83.496C176.107 83.496 176.995 84.48 176.995 86.088V88.716C176.995 89.004 177.091 89.112 177.331 89.112H177.583V90C177.511 90.012 177.355 90.024 177.199 90.024C176.431 90.024 176.083 89.724 175.999 89.016C175.687 89.676 174.811 90.144 173.875 90.144ZM173.971 89.256C175.243 89.256 175.987 88.44 175.987 87.384V86.928L173.923 87.312C173.059 87.468 172.783 87.792 172.783 88.32C172.783 88.92 173.227 89.256 173.971 89.256ZM184.025 90.144C182.369 90.144 181.337 88.86 181.337 86.82C181.337 84.78 182.369 83.496 184.025 83.496C184.877 83.496 185.633 83.88 185.981 84.528V81.48H186.989V90H186.077L186.041 89.04C185.681 89.736 184.913 90.144 184.025 90.144ZM184.229 89.184C185.357 89.184 185.981 88.272 185.981 86.82C185.981 85.344 185.357 84.456 184.229 84.456C183.113 84.456 182.393 85.344 182.393 86.82C182.393 88.272 183.113 89.184 184.229 89.184ZM191.272 90.144C189.472 90.144 188.356 88.836 188.356 86.82C188.356 84.804 189.472 83.496 191.224 83.496C192.88 83.496 194.032 84.696 194.032 86.832V87.132H189.412C189.484 88.5 190.168 89.184 191.272 89.184C192.1 89.184 192.64 88.764 192.856 88.116L193.936 88.2C193.6 89.34 192.616 90.144 191.272 90.144ZM189.412 86.244H192.928C192.832 85.02 192.16 84.456 191.224 84.456C190.24 84.456 189.58 85.068 189.412 86.244ZM199.763 90C199.019 90 198.515 89.64 198.515 88.8V81.48H199.523V88.716C199.523 88.98 199.655 89.112 199.919 89.112H200.471V90H199.763ZM203.685 90.144C202.413 90.144 201.597 89.244 201.597 87.732V83.64H202.605V87.456C202.605 88.692 203.037 89.256 203.949 89.256C204.957 89.256 205.569 88.572 205.569 87.432V83.64H206.577V90H205.617V88.968C205.269 89.724 204.597 90.144 203.685 90.144ZM208.499 90V83.64H209.423L209.447 84.78C209.783 83.904 210.527 83.496 211.403 83.496C212.855 83.496 213.551 84.564 213.551 85.908V90H212.543V86.196C212.543 85.02 212.147 84.384 211.187 84.384C210.203 84.384 209.507 85.02 209.507 86.196V90H208.499ZM217.071 90.144C215.751 90.144 214.923 89.508 214.923 88.416C214.923 87.336 215.535 86.736 216.927 86.472L219.183 86.052C219.183 84.984 218.679 84.456 217.671 84.456C216.783 84.456 216.291 84.864 216.099 85.596L215.031 85.512C215.271 84.312 216.231 83.496 217.671 83.496C219.303 83.496 220.191 84.48 220.191 86.088V88.716C220.191 89.004 220.287 89.112 220.527 89.112H220.779V90C220.707 90.012 220.551 90.024 220.395 90.024C219.627 90.024 219.279 89.724 219.195 89.016C218.883 89.676 218.007 90.144 217.071 90.144ZM217.167 89.256C218.439 89.256 219.183 88.44 219.183 87.384V86.928L217.119 87.312C216.255 87.468 215.979 87.792 215.979 88.32C215.979 88.92 216.423 89.256 217.167 89.256ZM227.292 90C226.14 90 225.6 89.496 225.6 88.368V84.528H224.664V83.64H225.6V82.152H226.608V83.64H228.3V84.528H226.608V88.344C226.608 88.92 226.86 89.112 227.388 89.112H228.3V90H227.292ZM229.722 90V83.64H230.61L230.646 84.816C230.874 84.012 231.378 83.64 232.158 83.64H232.782V84.6H232.17C231.21 84.6 230.73 85.116 230.73 86.16V90H229.722ZM236.272 90.144C234.472 90.144 233.356 88.836 233.356 86.82C233.356 84.804 234.472 83.496 236.224 83.496C237.88 83.496 239.032 84.696 239.032 86.832V87.132H234.412C234.484 88.5 235.168 89.184 236.272 89.184C237.1 89.184 237.64 88.764 237.856 88.116L238.936 88.2C238.6 89.34 237.616 90.144 236.272 90.144ZM234.412 86.244H237.928C237.832 85.02 237.16 84.456 236.224 84.456C235.24 84.456 234.58 85.068 234.412 86.244ZM242.882 90.144C241.106 90.144 239.966 88.836 239.966 86.82C239.966 84.804 241.106 83.496 242.882 83.496C244.346 83.496 245.366 84.288 245.582 85.704L244.526 85.776C244.382 84.936 243.746 84.456 242.882 84.456C241.706 84.456 241.021 85.344 241.021 86.82C241.021 88.296 241.706 89.184 242.882 89.184C243.746 89.184 244.382 88.704 244.526 87.744L245.582 87.816C245.366 89.232 244.346 90.144 242.882 90.144ZM248.919 90.144C247.647 90.144 246.831 89.244 246.831 87.732V83.64H247.839V87.456C247.839 88.692 248.271 89.256 249.183 89.256C250.191 89.256 250.803 88.572 250.803 87.432V83.64H251.811V90H250.851V88.968C250.503 89.724 249.831 90.144 248.919 90.144ZM255.722 90C254.57 90 254.03 89.496 254.03 88.368V84.528H253.094V83.64H254.03V82.152H255.038V83.64H256.73V84.528H255.038V88.344C255.038 88.92 255.29 89.112 255.818 89.112H256.73V90H255.722ZM260.352 82.764C259.368 82.764 258.72 82.164 258.672 81.228H259.368C259.44 81.78 259.8 82.02 260.352 82.02C260.904 82.02 261.252 81.78 261.324 81.228H262.02C261.972 82.164 261.336 82.764 260.352 82.764ZM259.692 90.144C258.372 90.144 257.544 89.508 257.544 88.416C257.544 87.336 258.156 86.736 259.548 86.472L261.804 86.052C261.804 84.984 261.3 84.456 260.292 84.456C259.404 84.456 258.912 84.864 258.72 85.596L257.652 85.512C257.892 84.312 258.852 83.496 260.292 83.496C261.924 83.496 262.812 84.48 262.812 86.088V88.716C262.812 89.004 262.908 89.112 263.148 89.112H263.4V90C263.328 90.012 263.172 90.024 263.016 90.024C262.248 90.024 261.9 89.724 261.816 89.016C261.504 89.676 260.628 90.144 259.692 90.144ZM259.788 89.256C261.06 89.256 261.804 88.44 261.804 87.384V86.928L259.74 87.312C258.876 87.468 258.6 87.792 258.6 88.32C258.6 88.92 259.044 89.256 259.788 89.256Z" fill="#B3261E"/>
</g>
<defs>
<filter id="filter0_d_6852_17295" x="0" y="0" width="312" height="144" filterUnits="userSpaceOnUse" color-interpolation-filters="sRGB">
<feFlood flood-opacity="0" result="BackgroundImageFix"/>
<feColorMatrix in="SourceAlpha" type="matrix" values="0 0 0 0 0 0 0 0 0 0 0 0 0 0 0 0 0 0 127 0" result="hardAlpha"/>
<feOffset dx="8" dy="8"/>
<feGaussianBlur stdDeviation="8"/>
<feComposite in2="hardAlpha" operator="out"/>
<feColorMatrix type="matrix" values="0 0 0 0 0.0970139 0 0 0 0 0.127226 0 0 0 0 0.183333 0 0 0 0.25 0"/>
<feBlend mode="normal" in2="BackgroundImageFix" result="effect1_dropShadow_6852_17295"/>
<feBlend mode="normal" in="SourceGraphic" in2="effect1_dropShadow_6852_17295" result="shape"/>
</filter>
<clipPath id="clip0_6852_17295">
<rect width="16" height="16" fill="white" transform="translate(246 34)"/>
</clipPath>
</defs>
</svg>
