<svg width="243" height="232" viewBox="0 0 243 232" fill="none" xmlns="http://www.w3.org/2000/svg">
<g filter="url(#filter0_d_6852_17257)">
<rect x="8" y="8" width="221" height="199.67" rx="7.10992" fill="white"/>
<rect x="8.29625" y="8.29625" width="220.408" height="199.078" rx="6.81367" stroke="#E2E8F0" stroke-width="0.592493"/>
<path d="M22.9781 30.2197V23.489H25.2154C27.3578 23.489 28.5618 24.7024 28.5618 26.8638C28.5618 29.0158 27.3863 30.2197 25.2723 30.2197H22.9781ZM24.2105 29.1485H25.2154C26.6184 29.1485 27.2915 28.3996 27.2915 26.8638C27.2915 25.3091 26.6184 24.5602 25.2154 24.5602H24.2105V29.1485ZM29.4651 24.4844V23.4037H30.7259V24.4844H29.4651ZM29.4841 30.2197V25.1575H30.6975V30.2197H29.4841ZM33.9945 30.3335C32.4967 30.3335 31.7193 29.6225 31.6435 28.6271L32.8853 28.5702C32.9707 29.1011 33.3025 29.4045 34.004 29.4045C34.5633 29.4045 34.914 29.2338 34.914 28.8357C34.914 28.4944 34.7339 28.3427 33.8049 28.1815C32.2502 27.9161 31.7667 27.499 31.7667 26.6363C31.7667 25.6978 32.4967 25.0437 33.9092 25.0437C35.2743 25.0437 35.9758 25.7737 36.1085 26.7501L34.8856 26.807C34.8003 26.2951 34.459 25.9727 33.8902 25.9727C33.3214 25.9727 33.0275 26.2287 33.0275 26.5984C33.0275 27.006 33.293 27.1672 34.0609 27.2904C35.6535 27.5369 36.1654 27.973 36.1654 28.8167C36.1654 29.7931 35.2932 30.3335 33.9945 30.3335ZM38.9652 30.2197C37.9603 30.2197 37.4958 29.7742 37.4958 28.7693V26.096H36.6995V25.1575H37.4958V23.9725H38.7093V25.1575H40.0459V26.096H38.7093V28.6555C38.7093 29.1295 38.9083 29.2812 39.3349 29.2812H40.0459V30.2197H38.9652ZM41.0284 30.2197V25.1575H42.166L42.1945 26.1434C42.3935 25.4608 42.7822 25.1575 43.4079 25.1575H43.8724V26.2003H43.3984C42.621 26.2003 42.2419 26.5226 42.2419 27.2999V30.2197H41.0284ZM44.6385 24.4844V23.4037H45.8993V24.4844H44.6385ZM44.6574 30.2197V25.1575H45.8709V30.2197H44.6574ZM49.7759 30.3335C49.0649 30.3335 48.5246 30.0112 48.2402 29.4708L48.2117 30.2197H47.0552V23.489H48.2686V25.8779C48.5341 25.4229 49.0744 25.0437 49.7759 25.0437C51.0841 25.0437 51.9089 26.077 51.9089 27.6886C51.9089 29.3002 51.0841 30.3335 49.7759 30.3335ZM49.501 29.3476C50.193 29.3476 50.6481 28.7219 50.6481 27.6886C50.6481 26.6363 50.2025 26.0296 49.5105 26.0296C48.7237 26.0296 48.2686 26.6363 48.2686 27.6886C48.2686 28.7219 48.7237 29.3476 49.501 29.3476ZM54.519 30.3335C53.4857 30.3335 52.8505 29.6225 52.8505 28.4185V25.1575H54.0639V28.1152C54.0639 28.9684 54.3389 29.3476 54.9266 29.3476C55.5807 29.3476 55.9599 28.902 55.9599 28.0678V25.1575H57.1734V30.2197H56.0642L56.0452 29.395C55.7798 30.0112 55.2584 30.3335 54.519 30.3335ZM58.3862 24.4844V23.4037H59.647V24.4844H58.3862ZM58.4051 30.2197V25.1575H59.6186V30.2197H58.4051ZM61.0251 30.2197V25.1575H62.1627L62.1911 26.1434C62.3902 25.4608 62.7789 25.1575 63.4045 25.1575H63.869V26.2003H63.3951C62.6177 26.2003 62.2385 26.5226 62.2385 27.2999V30.2197H61.0251ZM66.7143 30.3335C65.1976 30.3335 64.2306 29.2907 64.2306 27.6886C64.2306 26.096 65.1976 25.0437 66.6859 25.0437C68.1363 25.0437 69.0843 26.0486 69.0843 27.755V28.0299H65.4914C65.5294 28.921 65.9939 29.3665 66.7238 29.3665C67.2642 29.3665 67.6244 29.1106 67.7761 28.665L69.018 28.7409C68.743 29.7268 67.8804 30.3335 66.7143 30.3335ZM65.4914 27.2146H67.833C67.7761 26.3898 67.3305 26.0012 66.6859 26.0012C66.0318 26.0012 65.5862 26.4278 65.4914 27.2146ZM72.3658 30.2197V25.1575H73.4654L73.4939 26.0012C73.7498 25.3945 74.2617 25.0437 74.8874 25.0437C75.6269 25.0437 76.1388 25.4324 76.3568 26.0865C76.5843 25.4134 77.1057 25.0437 77.8072 25.0437C78.85 25.0437 79.4946 25.7168 79.4946 26.9681V30.2197H78.2812V27.281C78.2812 26.4467 78.0063 26.0296 77.4186 26.0296C76.8403 26.0296 76.4895 26.5036 76.4895 27.3189V30.2197H75.3614V27.3189C75.3614 26.4941 75.1339 26.0296 74.5177 26.0296C73.9394 26.0296 73.5792 26.5131 73.5792 27.3189V30.2197H72.3658ZM82.897 30.3335C81.3897 30.3335 80.4038 29.2907 80.4038 27.6886C80.4038 26.0865 81.3897 25.0437 82.897 25.0437C84.3949 25.0437 85.3808 26.0865 85.3808 27.6886C85.3808 29.2907 84.3949 30.3335 82.897 30.3335ZM82.897 29.3476C83.6744 29.3476 84.1199 28.7409 84.1199 27.6886C84.1199 26.6458 83.6744 26.0296 82.897 26.0296C82.1102 26.0296 81.6647 26.6458 81.6647 27.6886C81.6647 28.7409 82.1102 29.3476 82.897 29.3476ZM86.3171 30.2197V25.1575H87.4168L87.4452 26.0012C87.7012 25.3945 88.2131 25.0437 88.8388 25.0437C89.5782 25.0437 90.0901 25.4324 90.3082 26.0865C90.5357 25.4134 91.0571 25.0437 91.7586 25.0437C92.8014 25.0437 93.446 25.7168 93.446 26.9681V30.2197H92.2326V27.281C92.2326 26.4467 91.9577 26.0296 91.3699 26.0296C90.7916 26.0296 90.4409 26.5036 90.4409 27.3189V30.2197H89.3128V27.3189C89.3128 26.4941 89.0853 26.0296 88.4691 26.0296C87.8908 26.0296 87.5306 26.5131 87.5306 27.3189V30.2197H86.3171ZM96.8389 30.3335C95.3221 30.3335 94.3552 29.2907 94.3552 27.6886C94.3552 26.096 95.3221 25.0437 96.8105 25.0437C98.2609 25.0437 99.2089 26.0486 99.2089 27.755V28.0299H95.616C95.6539 28.921 96.1184 29.3665 96.8484 29.3665C97.3888 29.3665 97.749 29.1106 97.9007 28.665L99.1425 28.7409C98.8676 29.7268 98.0049 30.3335 96.8389 30.3335ZM95.616 27.2146H97.9575C97.9007 26.3898 97.4551 26.0012 96.8105 26.0012C96.1564 26.0012 95.7108 26.4278 95.616 27.2146ZM101.701 30.3335C100.639 30.3335 99.9376 29.8311 99.9376 28.9494C99.9376 28.0773 100.478 27.6128 101.587 27.3947L103.265 27.0629C103.265 26.3519 102.933 25.9822 102.289 25.9822C101.701 25.9822 101.369 26.2571 101.255 26.769L100.023 26.7122C100.222 25.6504 101.037 25.0437 102.289 25.0437C103.73 25.0437 104.478 25.8021 104.478 27.1482V28.9873C104.478 29.2623 104.573 29.3381 104.763 29.3381H104.924V30.2197C104.839 30.2387 104.649 30.2576 104.478 30.2576C103.929 30.2576 103.521 30.0586 103.426 29.4424C103.17 29.9827 102.526 30.3335 101.701 30.3335ZM101.947 29.4519C102.753 29.4519 103.265 28.9399 103.265 28.1721V27.8877L101.957 28.1531C101.416 28.2574 101.198 28.4849 101.198 28.8357C101.198 29.2338 101.464 29.4519 101.947 29.4519ZM106.851 30.2197C106.112 30.2197 105.638 29.869 105.638 29.0253V23.489H106.851V28.902C106.851 29.1675 106.984 29.2812 107.231 29.2812H107.6V30.2197H106.851ZM110.519 24.5792C109.676 24.5792 109.126 24.0768 109.088 23.2425H109.818C109.875 23.6786 110.121 23.8587 110.519 23.8587C110.918 23.8587 111.173 23.6786 111.221 23.2425H111.951C111.913 24.0768 111.373 24.5792 110.519 24.5792ZM109.903 30.3335C108.841 30.3335 108.14 29.8311 108.14 28.9494C108.14 28.0773 108.68 27.6128 109.789 27.3947L111.467 27.0629C111.467 26.3519 111.136 25.9822 110.491 25.9822C109.903 25.9822 109.571 26.2571 109.458 26.769L108.225 26.7122C108.424 25.6504 109.24 25.0437 110.491 25.0437C111.932 25.0437 112.681 25.8021 112.681 27.1482V28.9873C112.681 29.2623 112.776 29.3381 112.965 29.3381H113.126V30.2197C113.041 30.2387 112.851 30.2576 112.681 30.2576C112.131 30.2576 111.723 30.0586 111.629 29.4424C111.373 29.9827 110.728 30.3335 109.903 30.3335ZM110.15 29.4519C110.955 29.4519 111.467 28.9399 111.467 28.1721V27.8877L110.159 28.1531C109.619 28.2574 109.401 28.4849 109.401 28.8357C109.401 29.2338 109.666 29.4519 110.15 29.4519ZM116.173 31.6417V25.1575H117.339L117.358 25.9159C117.652 25.3471 118.202 25.0437 118.875 25.0437C120.316 25.0437 121.027 26.2287 121.027 27.6886C121.027 29.1485 120.306 30.3335 118.866 30.3335C118.221 30.3335 117.662 30.0301 117.387 29.5277V31.6417H116.173ZM118.581 29.3476C119.321 29.3476 119.766 28.7314 119.766 27.6886C119.766 26.6458 119.321 26.0296 118.581 26.0296C117.842 26.0296 117.387 26.5889 117.387 27.6886C117.387 28.7883 117.832 29.3476 118.581 29.3476ZM124.158 30.3335C122.642 30.3335 121.675 29.2907 121.675 27.6886C121.675 26.096 122.642 25.0437 124.13 25.0437C125.58 25.0437 126.528 26.0486 126.528 27.755V28.0299H122.936C122.973 28.921 123.438 29.3665 124.168 29.3665C124.708 29.3665 125.068 29.1106 125.22 28.665L126.462 28.7409C126.187 29.7268 125.324 30.3335 124.158 30.3335ZM122.936 27.2146H125.277C125.22 26.3898 124.775 26.0012 124.13 26.0012C123.476 26.0012 123.03 26.4278 122.936 27.2146ZM132.009 30.3335C130.502 30.3335 129.516 29.2907 129.516 27.6886C129.516 26.096 130.502 25.0437 132.009 25.0437C133.289 25.0437 134.218 25.7452 134.37 26.9492L133.118 27.0155C133.014 26.3709 132.597 26.0296 132.009 26.0296C131.222 26.0296 130.777 26.6458 130.777 27.6886C130.777 28.7409 131.222 29.3476 132.009 29.3476C132.597 29.3476 133.024 29.0063 133.118 28.2953L134.37 28.3522C134.227 29.5656 133.308 30.3335 132.009 30.3335ZM136.476 30.2197C135.737 30.2197 135.263 29.869 135.263 29.0253V23.489H136.476V28.902C136.476 29.1675 136.609 29.2812 136.855 29.2812H137.225V30.2197H136.476ZM140.144 24.5792C139.3 24.5792 138.75 24.0768 138.713 23.2425H139.443C139.499 23.6786 139.746 23.8587 140.144 23.8587C140.542 23.8587 140.798 23.6786 140.846 23.2425H141.575C141.538 24.0768 140.997 24.5792 140.144 24.5792ZM139.528 30.3335C138.466 30.3335 137.765 29.8311 137.765 28.9494C137.765 28.0773 138.305 27.6128 139.414 27.3947L141.092 27.0629C141.092 26.3519 140.76 25.9822 140.116 25.9822C139.528 25.9822 139.196 26.2571 139.082 26.769L137.85 26.7122C138.049 25.6504 138.864 25.0437 140.116 25.0437C141.557 25.0437 142.305 25.8021 142.305 27.1482V28.9873C142.305 29.2623 142.4 29.3381 142.59 29.3381H142.751V30.2197C142.666 30.2387 142.476 30.2576 142.305 30.2576C141.756 30.2576 141.348 30.0586 141.253 29.4424C140.997 29.9827 140.353 30.3335 139.528 30.3335ZM139.774 29.4519C140.58 29.4519 141.092 28.9399 141.092 28.1721V27.8877L139.784 28.1531C139.243 28.2574 139.025 28.4849 139.025 28.8357C139.025 29.2338 139.291 29.4519 139.774 29.4519ZM145.285 30.3335C143.995 30.3335 143.19 29.3097 143.19 27.6886C143.19 26.0675 144.014 25.0437 145.285 25.0437C145.996 25.0437 146.555 25.3565 146.83 25.8779V23.489H148.043V30.2197H146.887L146.858 29.4708C146.574 30.0112 145.986 30.3335 145.285 30.3335ZM145.654 29.3476C146.403 29.3476 146.83 28.7598 146.83 27.6886C146.83 26.6079 146.413 26.0296 145.654 26.0296C144.915 26.0296 144.45 26.6553 144.45 27.6886C144.45 28.7029 144.924 29.3476 145.654 29.3476ZM149.204 24.4844V23.4037H150.465V24.4844H149.204ZM149.223 30.2197V25.1575H150.437V30.2197H149.223ZM151.843 30.2197V25.1575H152.981L153.009 26.1434C153.208 25.4608 153.597 25.1575 154.223 25.1575H154.687V26.2003H154.213C153.436 26.2003 153.057 26.5226 153.057 27.2999V30.2197H151.843ZM155.453 24.4844V23.4037H156.714V24.4844H155.453ZM155.472 30.2197V25.1575H156.686V30.2197H155.472Z" fill="#020617"/>
<path d="M22.3619 39.2197L24.1821 34.1717H25.0068L26.827 39.2197H26.1586L25.6538 37.7835H23.5351L23.0303 39.2197H22.3619ZM23.7412 37.1863H25.4476L24.5944 34.7049L23.7412 37.1863ZM27.3989 40.2862V35.4515H27.9534L27.9605 36.0274C28.1881 35.5937 28.6075 35.3661 29.1195 35.3661C30.2428 35.3661 30.7476 36.2975 30.7476 37.3356C30.7476 38.3736 30.2428 39.305 29.1195 39.305C28.6289 39.305 28.1952 39.0846 27.9961 38.722V40.2862H27.3989ZM29.0626 38.7363C29.7167 38.7363 30.122 38.2172 30.122 37.3356C30.122 36.454 29.7167 35.9349 29.0626 35.9349C28.4085 35.9349 27.9961 36.4113 27.9961 37.3356C27.9961 38.2599 28.4014 38.7363 29.0626 38.7363ZM32.6718 39.305C31.8897 39.305 31.3991 38.9282 31.3991 38.2812C31.3991 37.6413 31.7617 37.2858 32.5865 37.1294L33.9232 36.8806C33.9232 36.2478 33.6245 35.9349 33.0273 35.9349C32.5012 35.9349 32.2097 36.1767 32.0959 36.6104L31.4631 36.5606C31.6053 35.8496 32.1741 35.3661 33.0273 35.3661C33.9943 35.3661 34.5204 35.9492 34.5204 36.9019V38.459C34.5204 38.6296 34.5773 38.6936 34.7195 38.6936H34.8688V39.2197C34.8261 39.2268 34.7337 39.2339 34.6413 39.2339C34.1862 39.2339 33.98 39.0562 33.9303 38.6367C33.7454 39.0278 33.2264 39.305 32.6718 39.305ZM32.7287 38.7789C33.4823 38.7789 33.9232 38.2954 33.9232 37.6698V37.3996L32.7002 37.6271C32.1883 37.7195 32.0248 37.9115 32.0248 38.2243C32.0248 38.5798 32.2879 38.7789 32.7287 38.7789ZM36.9017 39.305C35.892 39.305 35.3304 38.7718 35.2735 38.0324L35.8992 37.9897C35.9703 38.4447 36.2618 38.7363 36.9017 38.7363C37.4136 38.7363 37.7477 38.5798 37.7477 38.2101C37.7477 37.9115 37.5984 37.7835 36.7879 37.6413C35.7072 37.4494 35.3659 37.1152 35.3659 36.518C35.3659 35.8496 35.8778 35.3661 36.7879 35.3661C37.7051 35.3661 38.1886 35.9207 38.3023 36.5748L37.6766 36.6175C37.5913 36.2193 37.2927 35.9349 36.7808 35.9349C36.2404 35.9349 35.9916 36.1696 35.9916 36.4895C35.9916 36.8592 36.2333 37.0014 36.9017 37.1152C38.0535 37.3143 38.3734 37.6129 38.3734 38.2101C38.3734 38.9069 37.7335 39.305 36.9017 39.305ZM40.6935 34.9324C40.1105 34.9324 39.7266 34.5769 39.6981 34.0224H40.1105C40.1532 34.3494 40.3665 34.4916 40.6935 34.4916C41.0206 34.4916 41.2268 34.3494 41.2694 34.0224H41.6818C41.6534 34.5769 41.2765 34.9324 40.6935 34.9324ZM40.3025 39.305C39.5204 39.305 39.0298 38.9282 39.0298 38.2812C39.0298 37.6413 39.3924 37.2858 40.2172 37.1294L41.5538 36.8806C41.5538 36.2478 41.2552 35.9349 40.658 35.9349C40.1318 35.9349 39.8403 36.1767 39.7266 36.6104L39.0938 36.5606C39.236 35.8496 39.8048 35.3661 40.658 35.3661C41.6249 35.3661 42.1511 35.9492 42.1511 36.9019V38.459C42.1511 38.6296 42.2079 38.6936 42.3501 38.6936H42.4994V39.2197C42.4568 39.2268 42.3644 39.2339 42.2719 39.2339C41.8169 39.2339 41.6107 39.0562 41.5609 38.6367C41.3761 39.0278 40.857 39.305 40.3025 39.305ZM40.3594 38.7789C41.113 38.7789 41.5538 38.2954 41.5538 37.6698V37.3996L40.3309 37.6271C39.819 37.7195 39.6555 37.9115 39.6555 38.2243C39.6555 38.5798 39.9185 38.7789 40.3594 38.7789ZM44.9792 40.2862V35.4515H45.5338L45.5409 36.0274C45.7684 35.5937 46.1879 35.3661 46.6998 35.3661C47.8232 35.3661 48.328 36.2975 48.328 37.3356C48.328 38.3736 47.8232 39.305 46.6998 39.305C46.2093 39.305 45.7756 39.0846 45.5765 38.722V40.2862H44.9792ZM46.643 38.7363C47.2971 38.7363 47.7023 38.2172 47.7023 37.3356C47.7023 36.454 47.2971 35.9349 46.643 35.9349C45.9889 35.9349 45.5765 36.4113 45.5765 37.3356C45.5765 38.2599 45.9817 38.7363 46.643 38.7363ZM50.61 39.305C49.5435 39.305 48.8823 38.5301 48.8823 37.3356C48.8823 36.1411 49.5435 35.3661 50.5816 35.3661C51.5628 35.3661 52.2453 36.0771 52.2453 37.3427V37.5205H49.508C49.5506 38.331 49.9559 38.7363 50.61 38.7363C51.1006 38.7363 51.4206 38.4874 51.5485 38.1035L52.1884 38.1532C51.9893 38.8287 51.4063 39.305 50.61 39.305ZM49.508 36.9943H51.5912C51.5343 36.2691 51.1362 35.9349 50.5816 35.9349C49.9986 35.9349 49.6075 36.2975 49.508 36.9943ZM53.0543 39.2197V35.4515H53.6017L53.616 36.1269C53.815 35.6079 54.2559 35.3661 54.7749 35.3661C55.6352 35.3661 56.0476 35.9989 56.0476 36.7952V39.2197H55.4503V36.9659C55.4503 36.2691 55.2157 35.8923 54.6469 35.8923C54.0639 35.8923 53.6515 36.2691 53.6515 36.9659V39.2197H53.0543ZM58.2802 39.2197C57.5976 39.2197 57.2777 38.9211 57.2777 38.2528V35.9776H56.7231V35.4515H57.2777V34.5698H57.8749V35.4515H58.8774V35.9776H57.8749V38.2386C57.8749 38.5798 58.0242 38.6936 58.3371 38.6936H58.8774V39.2197H58.2802ZM59.7198 39.2197V35.4515H60.246L60.2673 36.1482C60.4024 35.6719 60.701 35.4515 61.1631 35.4515H61.5329V36.0203H61.1703C60.6015 36.0203 60.3171 36.326 60.3171 36.9446V39.2197H59.7198ZM63.5121 39.305C62.7584 39.305 62.275 38.7718 62.275 37.876V35.4515H62.8722V37.7124C62.8722 38.4447 63.1281 38.7789 63.6685 38.7789C64.2657 38.7789 64.6283 38.3736 64.6283 37.6982V35.4515H65.2256V39.2197H64.6568V38.6083C64.4506 39.0562 64.0524 39.305 63.5121 39.305ZM68.142 39.2197V35.4515H68.6895L68.7037 36.1127C68.8886 35.6505 69.2796 35.3661 69.7631 35.3661C70.3319 35.3661 70.73 35.6505 70.8936 36.1554C71.0571 35.6505 71.441 35.3661 71.9956 35.3661C72.799 35.3661 73.2398 35.8852 73.2398 36.7952V39.2197H72.6426V36.9232C72.6426 36.2407 72.3724 35.8923 71.8534 35.8923C71.3273 35.8923 70.986 36.2904 70.986 36.9659V39.2197H70.3888V36.9659C70.3888 36.2975 70.1684 35.8923 69.6138 35.8923C69.0877 35.8923 68.7393 36.2975 68.7393 36.9659V39.2197H68.142ZM75.3244 39.305C74.5423 39.305 74.0517 38.9282 74.0517 38.2812C74.0517 37.6413 74.4143 37.2858 75.2391 37.1294L76.5757 36.8806C76.5757 36.2478 76.2771 35.9349 75.6799 35.9349C75.1537 35.9349 74.8622 36.1767 74.7485 36.6104L74.1157 36.5606C74.2579 35.8496 74.8267 35.3661 75.6799 35.3661C76.6468 35.3661 77.173 35.9492 77.173 36.9019V38.459C77.173 38.6296 77.2298 38.6936 77.372 38.6936H77.5213V39.2197C77.4787 39.2268 77.3863 39.2339 77.2938 39.2339C76.8388 39.2339 76.6326 39.0562 76.5828 38.6367C76.398 39.0278 75.879 39.305 75.3244 39.305ZM75.3813 38.7789C76.1349 38.7789 76.5757 38.2954 76.5757 37.6698V37.3996L75.3528 37.6271C74.8409 37.7195 74.6774 37.9115 74.6774 38.2243C74.6774 38.5798 74.9404 38.7789 75.3813 38.7789ZM78.1539 34.8613V34.1646H78.7796V34.8613H78.1539ZM78.1681 39.2197V35.4515H78.7654V39.2197H78.1681ZM81.6814 39.2197V35.4515H82.2289L82.2431 36.1127C82.428 35.6505 82.819 35.3661 83.3025 35.3661C83.8713 35.3661 84.2694 35.6505 84.433 36.1554C84.5965 35.6505 84.9804 35.3661 85.535 35.3661C86.3384 35.3661 86.7792 35.8852 86.7792 36.7952V39.2197H86.182V36.9232C86.182 36.2407 85.9118 35.8923 85.3928 35.8923C84.8667 35.8923 84.5254 36.2904 84.5254 36.9659V39.2197H83.9282V36.9659C83.9282 36.2975 83.7078 35.8923 83.1532 35.8923C82.627 35.8923 82.2787 36.2975 82.2787 36.9659V39.2197H81.6814ZM89.0495 39.305C88.2958 39.305 87.8123 38.7718 87.8123 37.876V35.4515H88.4096V37.7124C88.4096 38.4447 88.6655 38.7789 89.2059 38.7789C89.8031 38.7789 90.1657 38.3736 90.1657 37.6982V35.4515H90.763V39.2197H90.1942V38.6083C89.988 39.0562 89.5898 39.305 89.0495 39.305ZM92.6414 39.2197C92.2006 39.2197 91.9019 39.0064 91.9019 38.5087V34.1717H92.4992V38.459C92.4992 38.6154 92.5774 38.6936 92.7338 38.6936H93.0609V39.2197H92.6414ZM94.9615 39.2197C94.279 39.2197 93.959 38.9211 93.959 38.2528V35.9776H93.4045V35.4515H93.959V34.5698H94.5563V35.4515H95.5588V35.9776H94.5563V38.2386C94.5563 38.5798 94.7056 38.6936 95.0184 38.6936H95.5588V39.2197H94.9615ZM97.7271 39.305C96.6606 39.305 95.9994 38.5301 95.9994 37.3356C95.9994 36.1411 96.6606 35.3661 97.6987 35.3661C98.6799 35.3661 99.3624 36.0771 99.3624 37.3427V37.5205H96.6251C96.6678 38.331 97.073 38.7363 97.7271 38.7363C98.2177 38.7363 98.5377 38.4874 98.6656 38.1035L99.3055 38.1532C99.1065 38.8287 98.5234 39.305 97.7271 39.305ZM96.6251 36.9943H98.7083C98.6514 36.2691 98.2533 35.9349 97.6987 35.9349C97.1157 35.9349 96.7246 36.2975 96.6251 36.9943ZM103.355 39.305C102.374 39.305 101.762 38.5443 101.762 37.3356C101.762 36.1269 102.374 35.3661 103.355 35.3661C103.86 35.3661 104.308 35.5937 104.514 35.9776V34.1717H105.111V39.2197H104.571L104.549 38.6509C104.336 39.0633 103.881 39.305 103.355 39.305ZM103.476 38.7363C104.144 38.7363 104.514 38.1959 104.514 37.3356C104.514 36.4611 104.144 35.9349 103.476 35.9349C102.815 35.9349 102.388 36.4611 102.388 37.3356C102.388 38.1959 102.815 38.7363 103.476 38.7363ZM107.649 39.305C106.583 39.305 105.921 38.5301 105.921 37.3356C105.921 36.1411 106.583 35.3661 107.621 35.3661C108.602 35.3661 109.284 36.0771 109.284 37.3427V37.5205H106.547C106.59 38.331 106.995 38.7363 107.649 38.7363C108.14 38.7363 108.46 38.4874 108.588 38.1035L109.227 38.1532C109.028 38.8287 108.445 39.305 107.649 39.305ZM106.547 36.9943H108.63C108.573 36.2691 108.175 35.9349 107.621 35.9349C107.038 35.9349 106.647 36.2975 106.547 36.9943ZM111.327 39.2197C110.644 39.2197 110.324 38.9211 110.324 38.2528V35.9776H109.77V35.4515H110.324V34.5698H110.922V35.4515H111.924V35.9776H110.922V38.2386C110.922 38.5798 111.071 38.6936 111.384 38.6936H111.924V39.2197H111.327ZM113.679 39.305C112.897 39.305 112.406 38.9282 112.406 38.2812C112.406 37.6413 112.769 37.2858 113.594 37.1294L114.93 36.8806C114.93 36.2478 114.632 35.9349 114.035 35.9349C113.508 35.9349 113.217 36.1767 113.103 36.6104L112.47 36.5606C112.613 35.8496 113.181 35.3661 114.035 35.3661C115.002 35.3661 115.528 35.9492 115.528 36.9019V38.459C115.528 38.6296 115.585 38.6936 115.727 38.6936H115.876V39.2197C115.833 39.2268 115.741 39.2339 115.649 39.2339C115.193 39.2339 114.987 39.0562 114.938 38.6367C114.753 39.0278 114.234 39.305 113.679 39.305ZM113.736 38.7789C114.49 38.7789 114.93 38.2954 114.93 37.6698V37.3996L113.708 37.6271C113.196 37.7195 113.032 37.9115 113.032 38.2243C113.032 38.5798 113.295 38.7789 113.736 38.7789ZM117.248 39.2197C116.808 39.2197 116.509 39.0064 116.509 38.5087V34.1717H117.106V38.459C117.106 38.6154 117.184 38.6936 117.341 38.6936H117.668V39.2197H117.248ZM118.335 34.8613V34.1646H118.96V34.8613H118.335ZM118.349 39.2197V35.4515H118.946V39.2197H118.349ZM119.932 34.8613V34.1646H120.557V34.8613H119.932ZM119.946 39.2197V35.4515H120.543V39.2197H119.946ZM121.426 39.2197V38.4163H122.229V39.2197H121.426Z" fill="#64748B"/>
<path d="M73.5785 73.1695C83.3275 72.2793 93.1439 73.8559 102.124 77.754C111.104 81.6522 118.959 87.7466 124.966 95.4764C130.973 103.206 134.94 112.323 136.5 121.988C138.06 131.652 137.164 141.554 133.894 150.781C130.624 160.008 125.086 168.265 117.789 174.791C110.491 181.317 101.67 185.902 92.1358 188.125C82.6019 190.347 72.662 190.136 63.2311 187.51C53.8002 184.884 45.1814 179.928 38.1681 173.098L58.5266 152.193C62.0333 155.608 66.3427 158.086 71.0581 159.399C75.7736 160.712 80.7435 160.818 85.5105 159.707C90.2775 158.595 94.6883 156.303 98.3369 153.04C101.986 149.777 104.755 145.648 106.39 141.035C108.025 136.421 108.473 131.47 107.693 126.638C106.912 121.806 104.929 117.247 101.926 113.382C98.9221 109.517 94.9945 106.47 90.5045 104.521C86.0145 102.572 81.1063 101.784 76.2318 102.229L73.5785 73.1695Z" fill="#E23670"/>
<path d="M132.795 108.937C138.723 123.235 138.728 139.303 132.809 153.604C126.891 167.906 115.533 179.271 101.235 185.199C86.9366 191.127 70.8693 191.132 56.5675 185.213C42.2656 179.294 30.9007 167.937 24.9729 153.639L51.9285 142.463C54.8924 149.612 60.5748 155.291 67.7257 158.25C74.8767 161.21 82.9103 161.207 90.0594 158.243C97.2084 155.279 102.887 149.597 105.847 142.446C108.806 135.295 108.803 127.262 105.84 120.112L132.795 108.937Z" fill="#AF57DB"/>
<path d="M128.529 161.969C122.778 171.274 114.528 178.776 104.72 183.618C94.9117 188.461 83.9397 190.449 73.0557 189.357C62.1718 188.264 51.8139 184.135 43.1635 177.44C34.5131 170.745 27.9185 161.753 24.1318 151.491L51.5079 141.389C53.4013 146.52 56.6986 151.016 61.0238 154.364C65.3489 157.711 70.5279 159.776 75.9699 160.322C81.4119 160.868 86.8978 159.874 91.802 157.453C96.7062 155.032 100.831 151.281 103.707 146.628L128.529 161.969Z" fill="#E88C30"/>
<path d="M85.9778 189.216C72.0547 190.921 57.9832 187.554 46.3395 179.732C34.6959 171.91 26.2591 160.155 22.5737 146.621L50.7289 138.954C52.5716 145.722 56.79 151.599 62.6118 155.51C68.4336 159.421 75.4693 161.104 82.4309 160.252L85.9778 189.216Z" fill="#14B8A6"/>
<path d="M21.6775 151.093C17.8894 142.082 16.4253 132.264 17.4196 122.54C18.4138 112.816 21.8346 103.497 27.3679 95.4395C32.9012 87.3817 40.3698 80.8427 49.0882 76.4228C57.8066 72.0029 67.4956 69.8436 77.2657 70.1431L76.2876 102.051C71.8616 101.915 67.4724 102.893 63.5228 104.895C59.5733 106.898 56.1899 109.86 53.6833 113.51C51.1766 117.161 49.627 121.382 49.1766 125.787C48.7262 130.192 49.3894 134.64 51.1055 138.722L21.6775 151.093Z" fill="#2662D9"/>
<path d="M17.981 152.645C13.9327 143.016 12.368 132.523 13.4306 122.131C14.4931 111.739 18.1489 101.78 24.0623 93.1688C29.9757 84.5575 37.9573 77.5693 47.2746 72.8458C56.5919 68.1222 66.9464 65.8146 77.3878 66.1347L77.3122 68.5988C67.2836 68.2914 57.3384 70.5078 48.3894 75.0446C39.4403 79.5814 31.7742 86.2934 26.0945 94.5644C20.4148 102.835 16.9036 112.4 15.883 122.382C14.8625 132.363 16.3653 142.441 20.2536 151.69L17.981 152.645Z" fill="#2662D9"/>
<path d="M47.8304 109.189V111.529C47.8303 111.604 47.8216 111.679 47.8043 111.752L47.024 115.07C46.9737 115.284 46.8527 115.475 46.6807 115.611C46.5086 115.748 46.2956 115.822 46.076 115.822H41.0043C40.8504 115.822 40.6988 115.786 40.5618 115.716C40.4247 115.646 40.3061 115.545 40.2156 115.421L37.095 111.128C37.0172 111.025 36.9607 110.907 36.9289 110.781C36.897 110.656 36.8905 110.525 36.9096 110.397C36.9288 110.269 36.9732 110.146 37.0403 110.036C37.1074 109.925 37.1959 109.829 37.3006 109.753C37.4052 109.677 37.524 109.622 37.6499 109.592C37.7759 109.563 37.9065 109.558 38.0342 109.579C38.1618 109.601 38.284 109.647 38.3935 109.716C38.5031 109.785 38.5978 109.875 38.6722 109.981L39.4436 111.04V104.313C39.4436 104.054 39.5464 103.806 39.7293 103.624C39.9122 103.441 40.1602 103.338 40.4189 103.338C40.6775 103.338 40.9256 103.441 41.1085 103.624C41.2914 103.806 41.3941 104.054 41.3941 104.313V109.189H41.589V108.214C41.589 107.955 41.6918 107.707 41.8747 107.525C42.0576 107.342 42.3056 107.239 42.5643 107.239C42.8229 107.239 43.071 107.342 43.2539 107.525C43.4368 107.707 43.5395 107.955 43.5395 108.214V109.189H43.7345V108.604C43.7345 108.345 43.8372 108.097 44.0201 107.914C44.203 107.731 44.4511 107.629 44.7097 107.629C44.9684 107.629 45.2164 107.731 45.3993 107.914C45.5822 108.097 45.685 108.345 45.685 108.604V109.189H45.8799C45.8799 108.931 45.9826 108.683 46.1655 108.5C46.3484 108.317 46.5965 108.214 46.8551 108.214C47.1138 108.214 47.3618 108.317 47.5447 108.5C47.7276 108.683 47.8304 108.931 47.8304 109.189V109.189ZM41.589 111.139H41.3941V113.48H41.589V111.139ZM43.7345 111.139H43.5395V113.48H43.7345V111.139ZM45.8799 111.139H45.685V113.48H45.8799V111.139Z" fill="white" stroke="black" stroke-width="0.592493"/>
<rect x="185.67" y="92.0227" width="5.92493" height="5.92493" rx="2.96247" fill="#2662D9"/>
<path d="M195.777 97.4851V92.3143H196.403V94.6169H199.16V92.3143H199.786V97.4851H199.16V95.1724H196.403V97.4851H195.777ZM202.1 97.576C201.854 97.576 201.631 97.5297 201.431 97.4371C201.231 97.3429 201.072 97.2074 200.954 97.0306C200.836 96.8522 200.777 96.6368 200.777 96.3843C200.777 96.1621 200.821 95.982 200.908 95.844C200.996 95.7043 201.113 95.5949 201.259 95.5157C201.406 95.4366 201.567 95.3777 201.744 95.339C201.922 95.2986 202.102 95.2666 202.282 95.2431C202.517 95.2128 202.708 95.19 202.855 95.1749C203.003 95.1581 203.111 95.1303 203.178 95.0916C203.247 95.0529 203.282 94.9855 203.282 94.8896V94.8694C203.282 94.6203 203.213 94.4267 203.077 94.2887C202.942 94.1506 202.738 94.0816 202.464 94.0816C202.179 94.0816 201.956 94.1439 201.794 94.2685C201.633 94.393 201.519 94.526 201.454 94.6674L200.888 94.4654C200.989 94.2298 201.124 94.0463 201.292 93.915C201.462 93.782 201.647 93.6894 201.848 93.6373C202.049 93.5834 202.248 93.5565 202.443 93.5565C202.568 93.5565 202.711 93.5716 202.873 93.6019C203.036 93.6305 203.193 93.6903 203.345 93.7812C203.498 93.8721 203.625 94.0093 203.726 94.1927C203.827 94.3762 203.877 94.622 203.877 94.93V97.4851H203.282V96.9599H203.251C203.211 97.0441 203.144 97.1342 203.049 97.2301C202.955 97.326 202.83 97.4077 202.673 97.475C202.517 97.5423 202.326 97.576 202.1 97.576ZM202.191 97.0407C202.427 97.0407 202.625 96.9944 202.787 96.9019C202.95 96.8093 203.073 96.6898 203.155 96.5433C203.24 96.3969 203.282 96.2429 203.282 96.0813V95.5359C203.256 95.5662 203.201 95.594 203.115 95.6193C203.031 95.6428 202.933 95.6639 202.822 95.6824C202.713 95.6992 202.606 95.7144 202.501 95.7278C202.399 95.7396 202.315 95.7497 202.251 95.7581C202.097 95.7783 201.952 95.8111 201.817 95.8566C201.684 95.9004 201.577 95.9668 201.494 96.0561C201.413 96.1436 201.373 96.2631 201.373 96.4146C201.373 96.6216 201.449 96.7782 201.603 96.8842C201.757 96.9886 201.954 97.0407 202.191 97.0407ZM205.561 92.3143V97.4851H204.965V92.3143H205.561ZM207.793 97.576C207.548 97.576 207.325 97.5297 207.124 97.4371C206.924 97.3429 206.765 97.2074 206.647 97.0306C206.529 96.8522 206.47 96.6368 206.47 96.3843C206.47 96.1621 206.514 95.982 206.602 95.844C206.689 95.7043 206.806 95.5949 206.953 95.5157C207.099 95.4366 207.261 95.3777 207.437 95.339C207.616 95.2986 207.795 95.2666 207.975 95.2431C208.211 95.2128 208.402 95.19 208.548 95.1749C208.697 95.1581 208.804 95.1303 208.872 95.0916C208.941 95.0529 208.975 94.9855 208.975 94.8896V94.8694C208.975 94.6203 208.907 94.4267 208.771 94.2887C208.636 94.1506 208.431 94.0816 208.157 94.0816C207.873 94.0816 207.65 94.1439 207.488 94.2685C207.326 94.393 207.213 94.526 207.147 94.6674L206.582 94.4654C206.683 94.2298 206.817 94.0463 206.986 93.915C207.156 93.782 207.341 93.6894 207.541 93.6373C207.743 93.5834 207.942 93.5565 208.137 93.5565C208.261 93.5565 208.404 93.5716 208.566 93.6019C208.729 93.6305 208.887 93.6903 209.038 93.7812C209.191 93.8721 209.318 94.0093 209.419 94.1927C209.52 94.3762 209.571 94.622 209.571 94.93V97.4851H208.975V96.9599H208.945C208.904 97.0441 208.837 97.1342 208.743 97.2301C208.649 97.326 208.523 97.4077 208.367 97.475C208.21 97.5423 208.019 97.576 207.793 97.576ZM207.884 97.0407C208.12 97.0407 208.319 96.9944 208.48 96.9019C208.643 96.8093 208.766 96.6898 208.849 96.5433C208.933 96.3969 208.975 96.2429 208.975 96.0813V95.5359C208.95 95.5662 208.894 95.594 208.808 95.6193C208.724 95.6428 208.627 95.6639 208.516 95.6824C208.406 95.6992 208.299 95.7144 208.195 95.7278C208.092 95.7396 208.009 95.7497 207.945 95.7581C207.79 95.7783 207.645 95.8111 207.511 95.8566C207.378 95.9004 207.27 95.9668 207.188 96.0561C207.107 96.1436 207.066 96.2631 207.066 96.4146C207.066 96.6216 207.143 96.7782 207.296 96.8842C207.451 96.9886 207.647 97.0407 207.884 97.0407ZM214.466 92.3143V97.4851H213.84V92.9707H213.81L212.547 93.809V93.1727L213.84 92.3143H214.466Z" fill="#4B5563"/>
<rect x="185.67" y="112.503" width="5.92493" height="5.92493" rx="2.96247" fill="#E23670"/>
<path d="M195.777 117.965V112.794H196.403V115.097H199.16V112.794H199.786V117.965H199.16V115.652H196.403V117.965H195.777ZM202.1 118.056C201.854 118.056 201.631 118.01 201.431 117.917C201.231 117.823 201.072 117.687 200.954 117.511C200.836 117.332 200.777 117.117 200.777 116.864C200.777 116.642 200.821 116.462 200.908 116.324C200.996 116.184 201.113 116.075 201.259 115.996C201.406 115.917 201.567 115.858 201.744 115.819C201.922 115.779 202.102 115.747 202.282 115.723C202.517 115.693 202.708 115.67 202.855 115.655C203.003 115.638 203.111 115.61 203.178 115.572C203.247 115.533 203.282 115.466 203.282 115.37V115.349C203.282 115.1 203.213 114.907 203.077 114.769C202.942 114.631 202.738 114.562 202.464 114.562C202.179 114.562 201.956 114.624 201.794 114.748C201.633 114.873 201.519 115.006 201.454 115.147L200.888 114.945C200.989 114.71 201.124 114.526 201.292 114.395C201.462 114.262 201.647 114.169 201.848 114.117C202.049 114.063 202.248 114.036 202.443 114.036C202.568 114.036 202.711 114.052 202.873 114.082C203.036 114.111 203.193 114.17 203.345 114.261C203.498 114.352 203.625 114.489 203.726 114.673C203.827 114.856 203.877 115.102 203.877 115.41V117.965H203.282V117.44H203.251C203.211 117.524 203.144 117.614 203.049 117.71C202.955 117.806 202.83 117.888 202.673 117.955C202.517 118.022 202.326 118.056 202.1 118.056ZM202.191 117.521C202.427 117.521 202.625 117.474 202.787 117.382C202.95 117.289 203.073 117.17 203.155 117.023C203.24 116.877 203.282 116.723 203.282 116.561V116.016C203.256 116.046 203.201 116.074 203.115 116.099C203.031 116.123 202.933 116.144 202.822 116.162C202.713 116.179 202.606 116.194 202.501 116.208C202.399 116.22 202.315 116.23 202.251 116.238C202.097 116.258 201.952 116.291 201.817 116.337C201.684 116.38 201.577 116.447 201.494 116.536C201.413 116.624 201.373 116.743 201.373 116.895C201.373 117.102 201.449 117.258 201.603 117.364C201.757 117.469 201.954 117.521 202.191 117.521ZM205.561 112.794V117.965H204.965V112.794H205.561ZM207.793 118.056C207.548 118.056 207.325 118.01 207.124 117.917C206.924 117.823 206.765 117.687 206.647 117.511C206.529 117.332 206.47 117.117 206.47 116.864C206.47 116.642 206.514 116.462 206.602 116.324C206.689 116.184 206.806 116.075 206.953 115.996C207.099 115.917 207.261 115.858 207.437 115.819C207.616 115.779 207.795 115.747 207.975 115.723C208.211 115.693 208.402 115.67 208.548 115.655C208.697 115.638 208.804 115.61 208.872 115.572C208.941 115.533 208.975 115.466 208.975 115.37V115.349C208.975 115.1 208.907 114.907 208.771 114.769C208.636 114.631 208.431 114.562 208.157 114.562C207.873 114.562 207.65 114.624 207.488 114.748C207.326 114.873 207.213 115.006 207.147 115.147L206.582 114.945C206.683 114.71 206.817 114.526 206.986 114.395C207.156 114.262 207.341 114.169 207.541 114.117C207.743 114.063 207.942 114.036 208.137 114.036C208.261 114.036 208.404 114.052 208.566 114.082C208.729 114.111 208.887 114.17 209.038 114.261C209.191 114.352 209.318 114.489 209.419 114.673C209.52 114.856 209.571 115.102 209.571 115.41V117.965H208.975V117.44H208.945C208.904 117.524 208.837 117.614 208.743 117.71C208.649 117.806 208.523 117.888 208.367 117.955C208.21 118.022 208.019 118.056 207.793 118.056ZM207.884 117.521C208.12 117.521 208.319 117.474 208.48 117.382C208.643 117.289 208.766 117.17 208.849 117.023C208.933 116.877 208.975 116.723 208.975 116.561V116.016C208.95 116.046 208.894 116.074 208.808 116.099C208.724 116.123 208.627 116.144 208.516 116.162C208.406 116.179 208.299 116.194 208.195 116.208C208.092 116.22 208.009 116.23 207.945 116.238C207.79 116.258 207.645 116.291 207.511 116.337C207.378 116.38 207.27 116.447 207.188 116.536C207.107 116.624 207.066 116.743 207.066 116.895C207.066 117.102 207.143 117.258 207.296 117.364C207.451 117.469 207.647 117.521 207.884 117.521ZM212.648 117.965V117.511L214.355 115.642C214.555 115.423 214.72 115.233 214.85 115.072C214.979 114.908 215.075 114.755 215.138 114.612C215.202 114.467 215.234 114.316 215.234 114.158C215.234 113.976 215.19 113.818 215.102 113.686C215.016 113.553 214.899 113.45 214.749 113.377C214.599 113.305 214.431 113.269 214.244 113.269C214.045 113.269 213.872 113.31 213.724 113.393C213.577 113.473 213.464 113.587 213.383 113.733C213.304 113.88 213.264 114.052 213.264 114.249H212.668C212.668 113.946 212.738 113.68 212.878 113.451C213.018 113.222 213.208 113.043 213.448 112.915C213.691 112.788 213.963 112.724 214.264 112.724C214.567 112.724 214.835 112.788 215.069 112.915C215.303 113.043 215.487 113.216 215.62 113.433C215.753 113.65 215.819 113.892 215.819 114.158C215.819 114.348 215.785 114.534 215.716 114.716C215.648 114.896 215.531 115.097 215.362 115.319C215.196 115.54 214.964 115.809 214.668 116.127L213.507 117.369V117.41H215.91V117.965H212.648Z" fill="#4B5563"/>
<rect x="185.67" y="132.983" width="5.92493" height="5.92493" rx="2.96247" fill="#AF57DB"/>
<path d="M195.777 138.445V133.274H196.403V135.577H199.16V133.274H199.786V138.445H199.16V136.132H196.403V138.445H195.777ZM202.1 138.536C201.854 138.536 201.631 138.49 201.431 138.397C201.231 138.303 201.072 138.167 200.954 137.991C200.836 137.812 200.777 137.597 200.777 137.344C200.777 137.122 200.821 136.942 200.908 136.804C200.996 136.664 201.113 136.555 201.259 136.476C201.406 136.397 201.567 136.338 201.744 136.299C201.922 136.259 202.102 136.227 202.282 136.203C202.517 136.173 202.708 136.15 202.855 136.135C203.003 136.118 203.111 136.09 203.178 136.052C203.247 136.013 203.282 135.945 203.282 135.85V135.829C203.282 135.58 203.213 135.387 203.077 135.249C202.942 135.111 202.738 135.042 202.464 135.042C202.179 135.042 201.956 135.104 201.794 135.228C201.633 135.353 201.519 135.486 201.454 135.627L200.888 135.425C200.989 135.19 201.124 135.006 201.292 134.875C201.462 134.742 201.647 134.649 201.848 134.597C202.049 134.543 202.248 134.516 202.443 134.516C202.568 134.516 202.711 134.532 202.873 134.562C203.036 134.59 203.193 134.65 203.345 134.741C203.498 134.832 203.625 134.969 203.726 135.153C203.827 135.336 203.877 135.582 203.877 135.89V138.445H203.282V137.92H203.251C203.211 138.004 203.144 138.094 203.049 138.19C202.955 138.286 202.83 138.368 202.673 138.435C202.517 138.502 202.326 138.536 202.1 138.536ZM202.191 138.001C202.427 138.001 202.625 137.954 202.787 137.862C202.95 137.769 203.073 137.65 203.155 137.503C203.24 137.357 203.282 137.203 203.282 137.041V136.496C203.256 136.526 203.201 136.554 203.115 136.579C203.031 136.603 202.933 136.624 202.822 136.642C202.713 136.659 202.606 136.674 202.501 136.688C202.399 136.7 202.315 136.71 202.251 136.718C202.097 136.738 201.952 136.771 201.817 136.817C201.684 136.86 201.577 136.927 201.494 137.016C201.413 137.104 201.373 137.223 201.373 137.375C201.373 137.582 201.449 137.738 201.603 137.844C201.757 137.949 201.954 138.001 202.191 138.001ZM205.561 133.274V138.445H204.965V133.274H205.561ZM207.793 138.536C207.548 138.536 207.325 138.49 207.124 138.397C206.924 138.303 206.765 138.167 206.647 137.991C206.529 137.812 206.47 137.597 206.47 137.344C206.47 137.122 206.514 136.942 206.602 136.804C206.689 136.664 206.806 136.555 206.953 136.476C207.099 136.397 207.261 136.338 207.437 136.299C207.616 136.259 207.795 136.227 207.975 136.203C208.211 136.173 208.402 136.15 208.548 136.135C208.697 136.118 208.804 136.09 208.872 136.052C208.941 136.013 208.975 135.945 208.975 135.85V135.829C208.975 135.58 208.907 135.387 208.771 135.249C208.636 135.111 208.431 135.042 208.157 135.042C207.873 135.042 207.65 135.104 207.488 135.228C207.326 135.353 207.213 135.486 207.147 135.627L206.582 135.425C206.683 135.19 206.817 135.006 206.986 134.875C207.156 134.742 207.341 134.649 207.541 134.597C207.743 134.543 207.942 134.516 208.137 134.516C208.261 134.516 208.404 134.532 208.566 134.562C208.729 134.59 208.887 134.65 209.038 134.741C209.191 134.832 209.318 134.969 209.419 135.153C209.52 135.336 209.571 135.582 209.571 135.89V138.445H208.975V137.92H208.945C208.904 138.004 208.837 138.094 208.743 138.19C208.649 138.286 208.523 138.368 208.367 138.435C208.21 138.502 208.019 138.536 207.793 138.536ZM207.884 138.001C208.12 138.001 208.319 137.954 208.48 137.862C208.643 137.769 208.766 137.65 208.849 137.503C208.933 137.357 208.975 137.203 208.975 137.041V136.496C208.95 136.526 208.894 136.554 208.808 136.579C208.724 136.603 208.627 136.624 208.516 136.642C208.406 136.659 208.299 136.674 208.195 136.688C208.092 136.7 208.009 136.71 207.945 136.718C207.79 136.738 207.645 136.771 207.511 136.817C207.378 136.86 207.27 136.927 207.188 137.016C207.107 137.104 207.066 137.223 207.066 137.375C207.066 137.582 207.143 137.738 207.296 137.844C207.451 137.949 207.647 138.001 207.884 138.001ZM214.395 138.516C214.062 138.516 213.765 138.459 213.504 138.344C213.245 138.23 213.039 138.071 212.885 137.867C212.734 137.662 212.651 137.423 212.638 137.152H213.274C213.288 137.319 213.345 137.463 213.446 137.584C213.547 137.704 213.679 137.796 213.842 137.862C214.006 137.927 214.187 137.96 214.385 137.96C214.607 137.96 214.804 137.922 214.976 137.844C215.148 137.767 215.282 137.659 215.38 137.521C215.478 137.383 215.526 137.223 215.526 137.041C215.526 136.851 215.479 136.684 215.385 136.539C215.291 136.392 215.153 136.278 214.971 136.195C214.789 136.113 214.567 136.072 214.304 136.072H213.89V135.516H214.304C214.51 135.516 214.69 135.479 214.845 135.405C215.001 135.331 215.123 135.227 215.211 135.092C215.3 134.957 215.345 134.799 215.345 134.617C215.345 134.442 215.306 134.29 215.228 134.16C215.151 134.031 215.042 133.93 214.9 133.857C214.761 133.785 214.596 133.749 214.405 133.749C214.227 133.749 214.059 133.782 213.9 133.847C213.744 133.911 213.616 134.005 213.517 134.128C213.417 134.249 213.363 134.395 213.355 134.567H212.749C212.759 134.296 212.841 134.059 212.994 133.855C213.147 133.65 213.347 133.49 213.595 133.375C213.844 133.261 214.118 133.204 214.415 133.204C214.735 133.204 215.01 133.268 215.239 133.398C215.467 133.526 215.643 133.695 215.766 133.905C215.889 134.116 215.951 134.343 215.951 134.587C215.951 134.878 215.874 135.127 215.721 135.332C215.569 135.537 215.363 135.68 215.102 135.759V135.799C215.429 135.853 215.684 135.992 215.867 136.216C216.051 136.438 216.142 136.713 216.142 137.041C216.142 137.322 216.066 137.575 215.913 137.799C215.761 138.021 215.554 138.196 215.292 138.324C215.029 138.452 214.73 138.516 214.395 138.516Z" fill="#4B5563"/>
<rect x="185.67" y="153.463" width="5.92493" height="5.92493" rx="2.96247" fill="#E88C30"/>
<path d="M199.311 155.37C199.256 155.2 199.183 155.048 199.092 154.913C199.002 154.777 198.896 154.661 198.771 154.565C198.648 154.469 198.508 154.396 198.352 154.345C198.195 154.295 198.024 154.269 197.837 154.269C197.53 154.269 197.252 154.348 197.001 154.507C196.75 154.665 196.551 154.898 196.403 155.206C196.255 155.514 196.181 155.892 196.181 156.34C196.181 156.787 196.255 157.165 196.405 157.473C196.555 157.781 196.758 158.014 197.014 158.173C197.27 158.331 197.557 158.41 197.877 158.41C198.173 158.41 198.434 158.347 198.66 158.221C198.887 158.093 199.064 157.913 199.19 157.68C199.318 157.446 199.382 157.171 199.382 156.855L199.574 156.895H198.019V156.34H199.988V156.895C199.988 157.321 199.897 157.691 199.715 158.006C199.535 158.321 199.286 158.565 198.968 158.738C198.651 158.91 198.288 158.996 197.877 158.996C197.419 158.996 197.017 158.888 196.67 158.673C196.325 158.457 196.056 158.151 195.862 157.754C195.671 157.356 195.575 156.885 195.575 156.34C195.575 155.931 195.629 155.563 195.739 155.236C195.85 154.908 196.006 154.629 196.208 154.398C196.41 154.167 196.649 153.991 196.925 153.868C197.201 153.745 197.505 153.684 197.837 153.684C198.109 153.684 198.364 153.725 198.599 153.807C198.837 153.888 199.048 154.003 199.233 154.153C199.42 154.301 199.576 154.479 199.7 154.686C199.825 154.891 199.911 155.119 199.958 155.37H199.311ZM202.121 159.016C201.875 159.016 201.652 158.97 201.452 158.877C201.251 158.783 201.092 158.647 200.975 158.471C200.857 158.292 200.798 158.077 200.798 157.824C200.798 157.602 200.842 157.422 200.929 157.284C201.017 157.144 201.134 157.035 201.28 156.956C201.426 156.877 201.588 156.818 201.765 156.779C201.943 156.739 202.122 156.707 202.303 156.683C202.538 156.653 202.729 156.63 202.876 156.615C203.024 156.598 203.132 156.57 203.199 156.532C203.268 156.493 203.302 156.425 203.302 156.33V156.309C203.302 156.06 203.234 155.867 203.098 155.729C202.963 155.591 202.759 155.522 202.484 155.522C202.2 155.522 201.977 155.584 201.815 155.708C201.654 155.833 201.54 155.966 201.474 156.107L200.909 155.905C201.01 155.67 201.145 155.486 201.313 155.355C201.483 155.222 201.668 155.129 201.868 155.077C202.07 155.023 202.269 154.996 202.464 154.996C202.589 154.996 202.732 155.012 202.893 155.042C203.057 155.07 203.214 155.13 203.366 155.221C203.519 155.312 203.646 155.449 203.747 155.633C203.848 155.816 203.898 156.062 203.898 156.37V158.925H203.302V158.4H203.272C203.232 158.484 203.164 158.574 203.07 158.67C202.976 158.766 202.85 158.848 202.694 158.915C202.537 158.982 202.346 159.016 202.121 159.016ZM202.212 158.481C202.447 158.481 202.646 158.434 202.808 158.342C202.971 158.249 203.094 158.13 203.176 157.983C203.26 157.837 203.302 157.683 203.302 157.521V156.976C203.277 157.006 203.222 157.034 203.136 157.059C203.052 157.083 202.954 157.104 202.843 157.122C202.734 157.139 202.627 157.154 202.522 157.168C202.42 157.18 202.336 157.19 202.272 157.198C202.117 157.218 201.973 157.251 201.838 157.297C201.705 157.34 201.597 157.407 201.515 157.496C201.434 157.584 201.394 157.703 201.394 157.855C201.394 158.062 201.47 158.218 201.623 158.324C201.778 158.428 201.974 158.481 202.212 158.481ZM204.986 158.925V155.047H205.562V155.633H205.602C205.673 155.441 205.801 155.285 205.986 155.166C206.171 155.046 206.38 154.986 206.612 154.986C206.656 154.986 206.71 154.987 206.776 154.989C206.842 154.991 206.891 154.993 206.925 154.996V155.602C206.905 155.597 206.858 155.59 206.786 155.58C206.715 155.568 206.64 155.562 206.561 155.562C206.373 155.562 206.205 155.602 206.056 155.681C205.91 155.758 205.794 155.866 205.708 156.004C205.624 156.14 205.582 156.296 205.582 156.471V158.925H204.986ZM208.772 159.016C208.527 159.016 208.304 158.97 208.103 158.877C207.903 158.783 207.744 158.647 207.626 158.471C207.508 158.292 207.449 158.077 207.449 157.824C207.449 157.602 207.493 157.422 207.581 157.284C207.668 157.144 207.785 157.035 207.932 156.956C208.078 156.877 208.24 156.818 208.416 156.779C208.595 156.739 208.774 156.707 208.954 156.683C209.19 156.653 209.381 156.63 209.527 156.615C209.676 156.598 209.783 156.57 209.851 156.532C209.92 156.493 209.954 156.425 209.954 156.33V156.309C209.954 156.06 209.886 155.867 209.75 155.729C209.615 155.591 209.41 155.522 209.136 155.522C208.852 155.522 208.629 155.584 208.467 155.708C208.305 155.833 208.192 155.966 208.126 156.107L207.561 155.905C207.662 155.67 207.796 155.486 207.965 155.355C208.135 155.222 208.32 155.129 208.52 155.077C208.722 155.023 208.921 154.996 209.116 154.996C209.24 154.996 209.383 155.012 209.545 155.042C209.708 155.07 209.866 155.13 210.017 155.221C210.17 155.312 210.297 155.449 210.398 155.633C210.499 155.816 210.55 156.062 210.55 156.37V158.925H209.954V158.4H209.924C209.883 158.484 209.816 158.574 209.722 158.67C209.628 158.766 209.502 158.848 209.346 158.915C209.189 158.982 208.998 159.016 208.772 159.016ZM208.863 158.481C209.099 158.481 209.298 158.434 209.459 158.342C209.623 158.249 209.745 158.13 209.828 157.983C209.912 157.837 209.954 157.683 209.954 157.521V156.976C209.929 157.006 209.873 157.034 209.787 157.059C209.703 157.083 209.606 157.104 209.495 157.122C209.385 157.139 209.278 157.154 209.174 157.168C209.071 157.18 208.988 157.19 208.924 157.198C208.769 157.218 208.624 157.251 208.49 157.297C208.357 157.34 208.249 157.407 208.167 157.496C208.086 157.584 208.045 157.703 208.045 157.855C208.045 158.062 208.122 158.218 208.275 158.324C208.43 158.428 208.626 158.481 208.863 158.481ZM211.638 155.047H212.233V159.208C212.233 159.447 212.192 159.654 212.11 159.829C212.029 160.004 211.906 160.139 211.741 160.235C211.578 160.331 211.372 160.379 211.122 160.379C211.102 160.379 211.082 160.379 211.062 160.379C211.042 160.379 211.021 160.379 211.001 160.379V159.824C211.021 159.824 211.04 159.824 211.057 159.824C211.074 159.824 211.092 159.824 211.112 159.824C211.294 159.824 211.427 159.77 211.511 159.662C211.595 159.556 211.638 159.405 211.638 159.208V155.047ZM211.93 154.401C211.814 154.401 211.714 154.361 211.63 154.282C211.547 154.203 211.506 154.108 211.506 153.997C211.506 153.885 211.547 153.79 211.63 153.711C211.714 153.632 211.814 153.593 211.93 153.593C212.047 153.593 212.146 153.632 212.228 153.711C212.312 153.79 212.355 153.885 212.355 153.997C212.355 154.108 212.312 154.203 212.228 154.282C212.146 154.361 212.047 154.401 211.93 154.401Z" fill="#4B5563"/>
<rect x="185.67" y="173.942" width="5.92493" height="5.92493" rx="2.96247" fill="#14B8A6"/>
<path d="M195.989 179.405H195.332L197.231 174.234H197.877L199.776 179.405H199.119L197.574 175.052H197.534L195.989 179.405ZM196.231 177.385H198.877V177.94H196.231V177.385ZM201.096 177.072V179.405H200.501V175.527H201.076V176.133H201.127C201.218 175.936 201.356 175.777 201.541 175.658C201.726 175.537 201.965 175.476 202.258 175.476C202.52 175.476 202.75 175.53 202.947 175.638C203.144 175.744 203.297 175.905 203.407 176.123C203.516 176.338 203.571 176.611 203.571 176.941V179.405H202.975V176.981C202.975 176.676 202.896 176.439 202.738 176.269C202.579 176.097 202.362 176.011 202.086 176.011C201.896 176.011 201.726 176.053 201.576 176.135C201.428 176.218 201.311 176.338 201.225 176.496C201.139 176.654 201.096 176.846 201.096 177.072ZM206.286 179.486C205.912 179.486 205.59 179.403 205.319 179.238C205.049 179.072 204.841 178.839 204.695 178.541C204.55 178.242 204.478 177.893 204.478 177.496C204.478 177.099 204.55 176.749 204.695 176.446C204.841 176.141 205.045 175.904 205.306 175.734C205.568 175.562 205.875 175.476 206.225 175.476C206.427 175.476 206.626 175.51 206.823 175.577C207.02 175.644 207.2 175.754 207.361 175.905C207.523 176.055 207.651 176.254 207.747 176.501C207.843 176.749 207.891 177.053 207.891 177.415V177.668H204.902V177.153H207.285C207.285 176.934 207.242 176.739 207.154 176.567C207.068 176.395 206.945 176.26 206.785 176.16C206.627 176.061 206.44 176.011 206.225 176.011C205.988 176.011 205.782 176.07 205.609 176.188C205.437 176.304 205.305 176.456 205.212 176.643C205.12 176.829 205.074 177.03 205.074 177.244V177.587C205.074 177.88 205.124 178.128 205.225 178.332C205.328 178.534 205.47 178.688 205.652 178.794C205.834 178.898 206.045 178.95 206.286 178.95C206.442 178.95 206.583 178.928 206.71 178.885C206.838 178.839 206.948 178.772 207.04 178.683C207.133 178.592 207.205 178.479 207.255 178.344L207.831 178.506C207.77 178.701 207.668 178.873 207.525 179.021C207.382 179.167 207.205 179.282 206.995 179.364C206.785 179.445 206.548 179.486 206.286 179.486ZM209.138 175.527L210.067 177.112L210.996 175.527H211.683L210.431 177.466L211.683 179.405H210.996L210.067 177.9L209.138 179.405H208.451L209.683 177.466L208.451 175.527H209.138ZM213.674 179.496C213.429 179.496 213.206 179.449 213.005 179.357C212.805 179.263 212.646 179.127 212.528 178.95C212.41 178.772 212.351 178.556 212.351 178.304C212.351 178.082 212.395 177.902 212.483 177.764C212.57 177.624 212.687 177.515 212.834 177.435C212.98 177.356 213.142 177.297 213.318 177.259C213.497 177.218 213.676 177.186 213.856 177.163C214.092 177.132 214.283 177.11 214.429 177.095C214.577 177.078 214.685 177.05 214.753 177.011C214.822 176.973 214.856 176.905 214.856 176.809V176.789C214.856 176.54 214.788 176.346 214.652 176.208C214.517 176.07 214.312 176.001 214.038 176.001C213.754 176.001 213.531 176.064 213.369 176.188C213.207 176.313 213.094 176.446 213.028 176.587L212.463 176.385C212.564 176.149 212.698 175.966 212.866 175.835C213.036 175.702 213.222 175.609 213.422 175.557C213.624 175.503 213.823 175.476 214.018 175.476C214.142 175.476 214.285 175.491 214.447 175.522C214.61 175.55 214.768 175.61 214.919 175.701C215.072 175.792 215.199 175.929 215.3 176.112C215.401 176.296 215.452 176.542 215.452 176.85V179.405H214.856V178.88H214.826C214.785 178.964 214.718 179.054 214.624 179.15C214.53 179.246 214.404 179.327 214.248 179.395C214.091 179.462 213.9 179.496 213.674 179.496ZM213.765 178.96C214.001 178.96 214.2 178.914 214.361 178.822C214.524 178.729 214.647 178.609 214.73 178.463C214.814 178.317 214.856 178.163 214.856 178.001V177.456C214.831 177.486 214.775 177.514 214.689 177.539C214.605 177.563 214.508 177.584 214.397 177.602C214.287 177.619 214.18 177.634 214.076 177.648C213.973 177.659 213.89 177.669 213.826 177.678C213.671 177.698 213.526 177.731 213.392 177.776C213.259 177.82 213.151 177.887 213.068 177.976C212.988 178.063 212.947 178.183 212.947 178.334C212.947 178.541 213.024 178.698 213.177 178.804C213.332 178.908 213.528 178.96 213.765 178.96ZM214.553 174.234H215.109C215.109 174.507 215.014 174.73 214.826 174.903C214.637 175.076 214.381 175.163 214.058 175.163C213.74 175.163 213.487 175.076 213.298 174.903C213.111 174.73 213.018 174.507 213.018 174.234H213.573C213.573 174.365 213.61 174.481 213.682 174.58C213.756 174.679 213.881 174.729 214.058 174.729C214.235 174.729 214.361 174.679 214.437 174.58C214.514 174.481 214.553 174.365 214.553 174.234Z" fill="#4B5563"/>
<g filter="url(#filter1_dd_6852_17257)">
<path d="M19.2578 84.6885C19.2578 82.2555 21.2301 80.2832 23.6631 80.2832H60.0723C62.5053 80.2832 64.4777 82.2555 64.4777 84.6885V94.9878C64.4777 97.4208 62.5053 99.3931 60.0723 99.3931H23.6631C21.2301 99.3931 19.2578 97.4208 19.2578 94.9878V84.6885Z" fill="white"/>
<path d="M23.6631 80.5791H60.0723C62.3416 80.5791 64.1816 82.4191 64.1816 84.6885V94.9883C64.1814 97.2574 62.3415 99.0967 60.0723 99.0967H23.6631C21.3939 99.0967 19.554 97.2574 19.5537 94.9883V84.6885C19.5537 82.4191 21.3937 80.5791 23.6631 80.5791Z" stroke="#E2E8F0" stroke-width="0.592493"/>
<path d="M29.611 92.8381V91.5607H26.6165V90.9137L29.5612 86.9488H30.3243V90.8639H31.0543V91.5607H30.3243V92.8381H29.611ZM27.4792 90.8639H29.611V88.0437L27.4792 90.8639ZM34.7143 92.8381V91.5607H31.7198V90.9137L34.6645 86.9488H35.4277V90.8639H36.1576V91.5607H35.4277V92.8381H34.7143ZM32.5825 90.8639H34.7143V88.0437L32.5825 90.8639ZM40.8711 92.9377C39.7264 92.9377 39.013 92.0501 39.013 90.64C39.013 89.2299 39.7264 88.3423 40.8711 88.3423C41.46 88.3423 41.9826 88.6077 42.2231 89.0557V86.9488H42.9199V92.8381H42.2895L42.2646 92.1745C42.0158 92.6556 41.4849 92.9377 40.8711 92.9377ZM41.0121 92.2741C41.7918 92.2741 42.2231 91.6437 42.2231 90.64C42.2231 89.6197 41.7918 89.0059 41.0121 89.0059C40.2406 89.0059 39.743 89.6197 39.743 90.64C39.743 91.6437 40.2406 92.2741 41.0121 92.2741ZM45.8809 92.9377C44.6615 92.9377 43.8652 92.0418 43.8652 90.64C43.8652 89.2381 44.6615 88.3423 45.8809 88.3423C47.0919 88.3423 47.8882 89.2381 47.8882 90.64C47.8882 92.0418 47.0919 92.9377 45.8809 92.9377ZM45.8809 92.2741C46.6855 92.2741 47.1583 91.6603 47.1583 90.64C47.1583 89.6197 46.6855 89.0059 45.8809 89.0059C45.068 89.0059 44.5951 89.6197 44.5951 90.64C44.5951 91.6603 45.068 92.2741 45.8809 92.2741ZM48.5255 92.8381V92.1414L51.3043 89.0557H48.6085V88.4418H52.0674V89.1386L49.2886 92.2243H52.1338V92.8381H48.5255ZM54.7347 92.9377C53.4905 92.9377 52.719 92.0335 52.719 90.64C52.719 89.2464 53.4905 88.3423 54.7015 88.3423C55.8462 88.3423 56.6425 89.1718 56.6425 90.6483V90.8557H53.449C53.4988 91.8013 53.9716 92.2741 54.7347 92.2741C55.307 92.2741 55.6803 91.9838 55.8296 91.5358L56.5762 91.5939C56.3439 92.3819 55.6637 92.9377 54.7347 92.9377ZM53.449 90.2418H55.8794C55.813 89.3957 55.3485 89.0059 54.7015 89.0059C54.0213 89.0059 53.5651 89.4289 53.449 90.2418Z" fill="#020617"/>
</g>
</g>
<defs>
<filter id="filter0_d_6852_17257" x="0" y="0" width="253" height="231.67" filterUnits="userSpaceOnUse" color-interpolation-filters="sRGB">
<feFlood flood-opacity="0" result="BackgroundImageFix"/>
<feColorMatrix in="SourceAlpha" type="matrix" values="0 0 0 0 0 0 0 0 0 0 0 0 0 0 0 0 0 0 127 0" result="hardAlpha"/>
<feOffset dx="8" dy="8"/>
<feGaussianBlur stdDeviation="8"/>
<feComposite in2="hardAlpha" operator="out"/>
<feColorMatrix type="matrix" values="0 0 0 0 0.0970139 0 0 0 0 0.127226 0 0 0 0 0.183333 0 0 0 0.25 0"/>
<feBlend mode="normal" in2="BackgroundImageFix" result="effect1_dropShadow_6852_17257"/>
<feBlend mode="normal" in="SourceGraphic" in2="effect1_dropShadow_6852_17257" result="shape"/>
</filter>
<filter id="filter1_dd_6852_17257" x="14.2578" y="79.2832" width="55.2197" height="29.1099" filterUnits="userSpaceOnUse" color-interpolation-filters="sRGB">
<feFlood flood-opacity="0" result="BackgroundImageFix"/>
<feColorMatrix in="SourceAlpha" type="matrix" values="0 0 0 0 0 0 0 0 0 0 0 0 0 0 0 0 0 0 127 0" result="hardAlpha"/>
<feMorphology radius="2" operator="erode" in="SourceAlpha" result="effect1_dropShadow_6852_17257"/>
<feOffset dy="2"/>
<feGaussianBlur stdDeviation="2"/>
<feComposite in2="hardAlpha" operator="out"/>
<feColorMatrix type="matrix" values="0 0 0 0 0 0 0 0 0 0 0 0 0 0 0 0 0 0 0.1 0"/>
<feBlend mode="normal" in2="BackgroundImageFix" result="effect1_dropShadow_6852_17257"/>
<feColorMatrix in="SourceAlpha" type="matrix" values="0 0 0 0 0 0 0 0 0 0 0 0 0 0 0 0 0 0 127 0" result="hardAlpha"/>
<feMorphology radius="1" operator="erode" in="SourceAlpha" result="effect2_dropShadow_6852_17257"/>
<feOffset dy="4"/>
<feGaussianBlur stdDeviation="3"/>
<feComposite in2="hardAlpha" operator="out"/>
<feColorMatrix type="matrix" values="0 0 0 0 0 0 0 0 0 0 0 0 0 0 0 0 0 0 0.1 0"/>
<feBlend mode="normal" in2="effect1_dropShadow_6852_17257" result="effect2_dropShadow_6852_17257"/>
<feBlend mode="normal" in="SourceGraphic" in2="effect2_dropShadow_6852_17257" result="shape"/>
</filter>
</defs>
</svg>
