<svg width="101" height="42" viewBox="0 0 101 42" fill="none" xmlns="http://www.w3.org/2000/svg">
<path fill-rule="evenodd" clip-rule="evenodd" d="M26.572 3.76485C26.572 3.53686 26.7569 3.35205 26.9848 3.35205H98.8959C100.008 3.35205 100.864 4.33469 100.711 5.43616L98.9294 18.2607C98.8036 19.1664 98.0292 19.8407 97.1147 19.8407H26.572V5.80697L27.7798 4.72338L26.8476 4.39488C26.6825 4.33668 26.572 4.18064 26.572 4.00555V3.76485Z" fill="#3B82F6"/>
<path d="M20.8152 21.3384H96.6307C97.7414 21.3384 98.5967 22.3189 98.4458 23.4193L96.6564 36.4735C96.5321 37.3807 95.757 38.0568 94.8413 38.0568H20.8152V21.3384Z" fill="#37455B"/>
<path d="M21.6127 37.6486C31.0256 37.6486 38.6562 30.0179 38.6562 20.605C38.6562 11.1921 31.0256 3.56141 21.6127 3.56141C12.1998 3.56141 4.56909 11.1921 4.56909 20.605C4.56909 30.0179 12.1998 37.6486 21.6127 37.6486Z" fill="white"/>
<path d="M41.4532 17.5387L43.1002 5.77404H47.6128C48.2515 5.77404 48.8061 5.9337 49.2767 6.25303C49.7473 6.57236 50.0946 7.00093 50.3187 7.53874C50.5484 8.07095 50.6184 8.66199 50.5288 9.31185C50.456 9.84406 50.2907 10.3343 50.033 10.7824C49.7753 11.225 49.4504 11.6088 49.0582 11.9337C48.6717 12.2586 48.2403 12.5051 47.7641 12.6732L49.907 17.5387H47.5456L45.4784 12.8581H44.1591L43.5036 17.5387H41.4532ZM44.4448 10.8076H46.6717C46.963 10.8076 47.2375 10.7348 47.4952 10.5892C47.7585 10.4435 47.9798 10.2474 48.1591 10.0009C48.3439 9.75442 48.456 9.47991 48.4952 9.17739C48.54 8.86927 48.5064 8.59196 48.3944 8.34546C48.2879 8.09896 48.1226 7.90289 47.8986 7.75723C47.6801 7.61157 47.4252 7.53874 47.1338 7.53874H44.907L44.4448 10.8076ZM56.7658 5.77404H59.1271L61.7574 17.5387H59.5809L59.1103 15.4547H54.0767L53.0263 17.5387H50.8498L56.7658 5.77404ZM55.1187 13.4043H58.6481L57.5557 8.55555L55.1187 13.4043ZM63.1673 17.5387L64.8144 5.77404H68.7135C69.5258 5.77404 70.2653 5.9281 70.932 6.23622C71.5987 6.53874 72.1645 6.96171 72.6295 7.50513C73.0945 8.04294 73.4278 8.66759 73.6295 9.37907C73.8368 10.085 73.8844 10.8441 73.7723 11.6564C73.6603 12.4687 73.3998 13.2306 72.9908 13.9421C72.5875 14.648 72.0777 15.2726 71.4614 15.816C70.8508 16.3539 70.1673 16.7768 69.411 17.0849C68.6603 17.3875 67.8788 17.5387 67.0665 17.5387H63.1673ZM65.5034 15.4883H67.3522C67.8732 15.4883 68.3774 15.3903 68.8648 15.1942C69.3578 14.9925 69.806 14.718 70.2093 14.3707C70.6127 14.0177 70.946 13.6116 71.2093 13.1522C71.4726 12.6872 71.6435 12.1886 71.7219 11.6564C71.7947 11.1242 71.7611 10.6284 71.6211 10.169C71.4866 9.70961 71.2681 9.30344 70.9656 8.9505C70.6631 8.59756 70.2933 8.32305 69.8564 8.12698C69.425 7.9253 68.946 7.82446 68.4194 7.82446H66.5791L65.5034 15.4883ZM79.1528 5.77404H81.5142L84.1444 17.5387H81.968L81.4974 15.4547H76.4638L75.4133 17.5387H73.2369L79.1528 5.77404ZM77.5058 13.4043H81.0352L79.9428 8.55555L77.5058 13.4043ZM85.5544 17.5387L87.2014 5.77404H91.714C92.3527 5.77404 92.9073 5.9337 93.3779 6.25303C93.8485 6.57236 94.1958 7.00093 94.4199 7.53874C94.6496 8.07095 94.7196 8.66199 94.63 9.31185C94.5571 9.84406 94.3919 10.3343 94.1342 10.7824C93.8765 11.225 93.5515 11.6088 93.1594 11.9337C92.7728 12.2586 92.3415 12.5051 91.8653 12.6732L94.0081 17.5387H91.6468L89.5796 12.8581H88.2602L87.6048 17.5387H85.5544ZM88.5459 10.8076H90.7728C91.0641 10.8076 91.3387 10.7348 91.5964 10.5892C91.8597 10.4435 92.081 10.2474 92.2602 10.0009C92.4451 9.75442 92.5571 9.47991 92.5964 9.17739C92.6412 8.86927 92.6076 8.59196 92.4955 8.34546C92.3891 8.09896 92.2238 7.90289 91.9997 7.75723C91.7812 7.61157 91.5263 7.53874 91.235 7.53874H89.0081L88.5459 10.8076Z" fill="white"/>
<path d="M39.5857 33.4475L40.5953 26.2363H42.9853C43.4832 26.2363 43.9365 26.3307 44.3451 26.5196C44.7538 26.705 45.1006 26.9643 45.3856 27.2974C45.6706 27.627 45.8749 28.0099 45.9986 28.446C46.1256 28.8787 46.1548 29.344 46.0861 29.8419C46.0174 30.3398 45.8578 30.8068 45.6071 31.2429C45.3599 31.6756 45.0474 32.0585 44.6696 32.3916C44.2953 32.7212 43.8764 32.9805 43.4128 33.1694C42.9527 33.3548 42.4737 33.4475 41.9757 33.4475H39.5857ZM41.0177 32.1907H42.1509C42.4702 32.1907 42.7793 32.1306 43.078 32.0104C43.3802 31.8868 43.6549 31.7185 43.9022 31.5056C44.1494 31.2893 44.3537 31.0403 44.5151 30.7588C44.6765 30.4738 44.7812 30.1681 44.8293 29.8419C44.874 29.5157 44.8534 29.2118 44.7675 28.9302C44.6851 28.6486 44.5512 28.3997 44.3657 28.1833C44.1803 27.967 43.9537 27.7987 43.6858 27.6785C43.4214 27.5549 43.1278 27.4931 42.805 27.4931H41.677L41.0177 32.1907ZM48.9721 26.2363H50.4195L52.0317 33.4475H50.6976L50.4092 32.1701H47.3238L46.6799 33.4475H45.3458L48.9721 26.2363ZM47.9625 30.9133H50.1259L49.4562 27.9412L47.9625 30.9133ZM49.7653 25.783C49.4528 25.783 49.1781 25.7058 48.9412 25.5512C48.7042 25.3967 48.5257 25.1907 48.4055 24.9331C48.2887 24.6722 48.2509 24.3854 48.2921 24.0729H49.0751C49.0545 24.2412 49.0751 24.3957 49.1369 24.5365C49.2021 24.6773 49.3 24.7906 49.4305 24.8765C49.561 24.9589 49.7086 25.0001 49.8735 25.0001C50.0417 25.0001 50.2014 24.9589 50.3525 24.8765C50.507 24.7941 50.6358 24.6825 50.7388 24.5417C50.8418 24.4009 50.9054 24.2446 50.9294 24.0729H51.7123C51.6677 24.3923 51.5492 24.6825 51.3569 24.9434C51.168 25.201 50.9328 25.4053 50.6512 25.5564C50.3731 25.7075 50.0778 25.783 49.7653 25.783ZM55.2321 33.5814C54.6552 33.5814 54.1693 33.4406 53.7744 33.1591C53.3795 32.8775 53.0945 32.4998 52.9194 32.0259C52.7477 31.5486 52.7031 31.0197 52.7855 30.4394L53.3727 26.2363H54.6295L54.0423 30.4394C53.9942 30.7828 54.0131 31.0987 54.0989 31.3872C54.1882 31.6722 54.341 31.9005 54.5574 32.0722C54.7771 32.2405 55.0604 32.3246 55.4073 32.3246C55.7575 32.3246 56.0649 32.2405 56.3293 32.0722C56.5971 31.9005 56.8135 31.6722 56.9783 31.3872C57.1431 31.0987 57.2496 30.7828 57.2976 30.4394L57.8848 26.2363H59.1416L58.5544 30.4394C58.4926 30.8755 58.3656 31.2842 58.1733 31.6653C57.9844 32.043 57.7423 32.3761 57.447 32.6646C57.1551 32.953 56.8203 33.178 56.4426 33.3393C56.0683 33.5007 55.6648 33.5814 55.2321 33.5814ZM58.8323 33.4475L59.8418 26.2363H61.2017L63.5556 31.176L64.2458 26.2363H65.5026L64.4931 33.4475H63.1384L60.7793 28.5078L60.0891 33.4475H58.8323ZM68.7417 26.2363H70.1891L71.8013 33.4475H70.4673L70.1788 32.1701H67.0935L66.4496 33.4475H65.1155L68.7417 26.2363ZM67.7322 30.9133H69.8955L69.2259 27.9412L67.7322 30.9133ZM69.535 25.783C69.2225 25.783 68.9478 25.7058 68.7108 25.5512C68.4739 25.3967 68.2953 25.1907 68.1751 24.9331C68.0584 24.6722 68.0206 24.3854 68.0618 24.0729H68.8447C68.8241 24.2412 68.8447 24.3957 68.9066 24.5365C68.9718 24.6773 69.0697 24.7906 69.2002 24.8765C69.3306 24.9589 69.4783 25.0001 69.6431 25.0001C69.8114 25.0001 69.9711 24.9589 70.1222 24.8765C70.2767 24.7941 70.4055 24.6825 70.5085 24.5417C70.6115 24.4009 70.675 24.2446 70.6991 24.0729H71.482C71.4374 24.3923 71.3189 24.6825 71.1266 24.9434C70.9377 25.201 70.7025 25.4053 70.4209 25.5564C70.1428 25.7075 69.8475 25.783 69.535 25.783ZM77.898 26.2363L77.7178 27.4931H75.5132L74.6839 33.4475H73.4271L74.2564 27.4931H72.057L72.2321 26.2363H77.898ZM80.4204 33.5814C79.9327 33.5814 79.4863 33.4853 79.0811 33.293C78.6794 33.0973 78.3394 32.8277 78.0613 32.4843C77.7865 32.1409 77.5874 31.7443 77.4638 31.2945C77.3436 30.8412 77.3195 30.357 77.3916 29.8419C77.4638 29.3268 77.6234 28.8444 77.8707 28.3945C78.1179 27.9412 78.4287 27.5429 78.803 27.1995C79.1807 26.8561 79.5979 26.5883 80.0546 26.396C80.5114 26.2002 80.9835 26.1024 81.4711 26.1024C81.9622 26.1024 82.4086 26.2002 82.8104 26.396C83.2121 26.5883 83.5504 26.8561 83.8251 27.1995C84.1032 27.5429 84.3024 27.9412 84.4226 28.3945C84.5462 28.8444 84.572 29.3268 84.4998 29.8419C84.4277 30.357 84.2681 30.8412 84.0208 31.2945C83.7736 31.7443 83.4611 32.1409 83.0834 32.4843C82.7091 32.8277 82.2936 33.0973 81.8368 33.293C81.3836 33.4853 80.9114 33.5814 80.4204 33.5814ZM80.5955 32.3246C80.9114 32.3246 81.217 32.2594 81.5123 32.1289C81.8111 31.9984 82.0807 31.8198 82.321 31.5932C82.5648 31.3631 82.7674 31.0987 82.9288 30.8C83.0902 30.5012 83.195 30.1819 83.243 29.8419C83.2911 29.502 83.2757 29.1826 83.1967 28.8838C83.1211 28.5817 82.9941 28.3173 82.8155 28.0906C82.6369 27.864 82.4172 27.6854 82.1562 27.5549C81.8987 27.4244 81.6119 27.3592 81.296 27.3592C80.9801 27.3592 80.6727 27.4244 80.374 27.5549C80.0787 27.6854 79.8091 27.8657 79.5653 28.0958C79.3249 28.3224 79.1241 28.5851 78.9627 28.8838C78.8013 29.1826 78.6965 29.502 78.6485 29.8419C78.6004 30.1853 78.6141 30.5064 78.6897 30.8051C78.7686 31.1039 78.8974 31.3683 79.076 31.5984C79.2545 31.825 79.4726 32.0036 79.7301 32.134C79.9911 32.2611 80.2796 32.3246 80.5955 32.3246ZM84.5178 33.4475L85.5274 26.2363H88.2934C88.6848 26.2363 89.0248 26.3342 89.3132 26.5299C89.6017 26.7256 89.8146 26.9883 89.952 27.318C90.0927 27.6442 90.1357 28.0065 90.0807 28.4048C90.0361 28.731 89.9348 29.0315 89.7768 29.3062C89.6189 29.5775 89.4197 29.8127 89.1793 30.0119C88.9424 30.2111 88.678 30.3621 88.3861 30.4652L89.6996 33.4475H88.2522L86.9851 30.5785H86.1764L85.7746 33.4475H84.5178ZM86.3515 29.3217H87.7165C87.895 29.3217 88.0633 29.277 88.2213 29.1878C88.3827 29.0985 88.5183 28.9783 88.6282 28.8272C88.7415 28.6761 88.8102 28.5078 88.8342 28.3224C88.8617 28.1335 88.8411 27.9636 88.7724 27.8125C88.7072 27.6614 88.6059 27.5412 88.4685 27.4519C88.3346 27.3626 88.1783 27.318 87.9998 27.318H86.6348L86.3515 29.3217ZM90.4272 33.4475L91.4368 26.2363H92.6936L91.684 33.4475H90.4272Z" fill="white"/>
<path d="M21.6127 3.56141C12.1998 3.56141 4.56909 11.1921 4.56909 20.605C4.56909 30.0179 12.1998 37.6486 21.6127 37.6486C30.4851 37.6486 37.774 30.8691 38.5819 22.2078" stroke="#37455B" stroke-width="0.792724" stroke-linecap="round" stroke-linejoin="round"/>
<path d="M21.611 33.3827C28.6685 33.3827 34.3897 27.6615 34.3897 20.604C34.3897 13.5465 28.6685 7.82528 21.611 7.82528C14.5535 7.82528 8.83228 13.5465 8.83228 20.604C8.83228 27.6615 14.5535 33.3827 21.611 33.3827Z" stroke="#37455B" stroke-width="0.792724" stroke-linecap="round" stroke-linejoin="round"/>
<path d="M1 21.7224H14.4679M38.7102 21.7224H29.1672M21.7791 1.11157V10.2592M21.7791 40.8884V30.8179" stroke="#37455B" stroke-width="0.773999" stroke-linecap="round" stroke-linejoin="round"/>
<path d="M12.3521 13.4953C13.2641 13.4953 14.0033 12.7561 14.0033 11.8441C14.0033 10.9322 13.2641 10.1929 12.3521 10.1929C11.4402 10.1929 10.7009 10.9322 10.7009 11.8441C10.7009 12.7561 11.4402 13.4953 12.3521 13.4953Z" fill="#F83535" stroke="white" stroke-width="0.412799" stroke-linecap="round" stroke-linejoin="round"/>
<path d="M8.73811 33.4137C9.65004 33.4137 10.3893 32.6745 10.3893 31.7625C10.3893 30.8506 9.65004 30.1114 8.73811 30.1114C7.82618 30.1114 7.08691 30.8506 7.08691 31.7625C7.08691 32.6745 7.82618 33.4137 8.73811 33.4137Z" fill="#F83535" stroke="white" stroke-width="0.412799" stroke-linecap="round" stroke-linejoin="round"/>
<path d="M33.713 18.036C34.6249 18.036 35.3642 17.2967 35.3642 16.3848C35.3642 15.4729 34.6249 14.7336 33.713 14.7336C32.801 14.7336 32.0618 15.4729 32.0618 16.3848C32.0618 17.2967 32.801 18.036 33.713 18.036Z" fill="#F83535" stroke="white" stroke-width="0.412799" stroke-linecap="round" stroke-linejoin="round"/>
<path d="M22.8057 12.1042C23.7581 12.1042 24.6253 12.3403 25.3994 12.8151H25.4004C26.1766 13.2865 26.792 13.9255 27.2432 14.7282L27.4053 15.0329C27.7593 15.7538 27.9346 16.5449 27.9346 17.401C27.9346 18.2578 27.7661 19.0469 27.4229 19.7624C27.1247 20.3838 26.7268 20.919 26.2305 21.3659L26.0117 21.5524C25.5263 21.9411 24.9851 22.2288 24.3916 22.4196L28.291 29.2057C28.346 29.3015 28.3463 29.4197 28.291 29.5153C28.2357 29.6108 28.1338 29.6695 28.0234 29.6696H25.6855C25.5751 29.6696 25.4733 29.6109 25.418 29.5153L21.4824 22.7096H19.2119V29.36C19.2119 29.5309 19.0732 29.6695 18.9023 29.6696H16.8779C16.7069 29.6696 16.5684 29.531 16.5684 29.36V12.4137C16.5684 12.2427 16.7069 12.1042 16.8779 12.1042H22.8057ZM19.2119 20.0573H22.6016C23.0945 20.0572 23.5423 19.9376 23.9512 19.6999C24.3626 19.4526 24.6858 19.1236 24.9238 18.7106V18.7096C25.1673 18.2924 25.292 17.822 25.292 17.2917C25.2919 16.7527 25.1675 16.2839 24.9258 15.8766L24.9219 15.8708C24.6834 15.4498 24.3607 15.1226 23.9512 14.8844L23.9482 14.8825C23.5398 14.6377 23.0929 14.5154 22.6016 14.5153H19.2119V20.0573Z" fill="#3B82F6" stroke="#37455B" stroke-width="0.619199" stroke-linejoin="round"/>
</svg>
