<svg width="17" height="18" viewBox="0 0 17 18" fill="none" xmlns="http://www.w3.org/2000/svg">
<rect y="0.570312" width="16.8589" height="16.8589" rx="8.42945" fill="#3B82F6"/>
<path d="M11.7509 7.16491L7.52018 11.3956C7.48333 11.4326 7.43955 11.462 7.39133 11.482C7.34312 11.502 7.29143 11.5123 7.23923 11.5123C7.18703 11.5123 7.13534 11.502 7.08713 11.482C7.03892 11.462 6.99513 11.4326 6.95829 11.3956L5.10734 9.5447C5.07044 9.5078 5.04118 9.464 5.02121 9.4158C5.00124 9.36759 4.99097 9.31593 4.99097 9.26375C4.99097 9.21158 5.00124 9.15991 5.02121 9.1117C5.04118 9.0635 5.07044 9.0197 5.10734 8.9828C5.14423 8.94591 5.18803 8.91664 5.23624 8.89668C5.28444 8.87671 5.33611 8.86643 5.38829 8.86643C5.44046 8.86643 5.49213 8.87671 5.54033 8.89668C5.58854 8.91664 5.63234 8.94591 5.66923 8.9828L7.23956 10.5531L11.1897 6.60368C11.2642 6.52916 11.3653 6.4873 11.4706 6.4873C11.576 6.4873 11.6771 6.52916 11.7516 6.60368C11.8261 6.67819 11.8679 6.77925 11.8679 6.88462C11.8679 6.99 11.8261 7.09106 11.7516 7.16557L11.7509 7.16491Z" fill="white"/>
</svg>
