<svg width="426" height="121" viewBox="0 0 426 121" fill="none" xmlns="http://www.w3.org/2000/svg">
<g filter="url(#filter0_dd_6852_17588)">
<rect x="20" y="12" width="386" height="81.4634" rx="12" fill="white"/>
<rect x="20.3902" y="12.3902" width="385.22" height="80.6829" rx="11.6098" stroke="#E2E8F0" stroke-width="0.780488"/>
<path d="M43.8079 47.7319L39.2359 35.1319H40.8379L44.7439 45.8869L48.6589 35.1319H50.2519L45.6799 47.7319H43.8079ZM51.185 38.7319H52.697V47.7319H51.185V38.7319ZM51.959 37.2649C51.719 37.2649 51.518 37.1869 51.356 37.0309C51.194 36.8749 51.113 36.6799 51.113 36.4459C51.113 36.2119 51.194 36.0169 51.356 35.8609C51.518 35.7049 51.716 35.6269 51.95 35.6269C52.184 35.6269 52.382 35.7049 52.544 35.8609C52.706 36.0169 52.787 36.2119 52.787 36.4459C52.787 36.6799 52.706 36.8749 52.544 37.0309C52.388 37.1869 52.193 37.2649 51.959 37.2649ZM62.1848 40.2439L56.6498 46.2199H62.1848V47.7319H54.4988V46.2199L60.0338 40.2439H54.4988V38.7319H62.1848V40.2439ZM63.6219 44.3119V38.7319H65.1339V43.9789C65.1339 44.4349 65.2449 44.8489 65.4669 45.2209C65.6889 45.5929 65.9859 45.8899 66.3579 46.1119C66.7359 46.3279 67.1499 46.4359 67.5999 46.4359C68.0559 46.4359 68.4669 46.3279 68.8329 46.1119C69.2049 45.8899 69.5019 45.5929 69.7239 45.2209C69.9459 44.8489 70.0569 44.4349 70.0569 43.9789V38.7319H71.5689L71.5779 47.7319H70.0659L70.0569 46.5889C69.7389 47.0089 69.3369 47.3449 68.8509 47.5969C68.3649 47.8429 67.8399 47.9659 67.2759 47.9659C66.6039 47.9659 65.9889 47.8039 65.4309 47.4799C64.8789 47.1499 64.4379 46.7089 64.1079 46.1569C63.7839 45.6049 63.6219 44.9899 63.6219 44.3119ZM80.5343 38.7319H82.0463V47.7319H80.5343L80.4713 46.2109C80.1893 46.7329 79.7993 47.1559 79.3013 47.4799C78.8093 47.8039 78.2213 47.9659 77.5373 47.9659C76.8773 47.9659 76.2593 47.8429 75.6833 47.5969C75.1073 47.3449 74.5973 46.9999 74.1533 46.5619C73.7153 46.1179 73.3733 45.6079 73.1273 45.0319C72.8813 44.4559 72.7583 43.8349 72.7583 43.1689C72.7583 42.5269 72.8783 41.9209 73.1183 41.3509C73.3583 40.7809 73.6913 40.2829 74.1173 39.8569C74.5493 39.4249 75.0473 39.0889 75.6113 38.8489C76.1753 38.6029 76.7813 38.4799 77.4293 38.4799C78.1373 38.4799 78.7583 38.6479 79.2923 38.9839C79.8263 39.3139 80.2583 39.7429 80.5883 40.2709L80.5343 38.7319ZM77.5103 46.4989C78.1043 46.4989 78.6173 46.3549 79.0493 46.0669C79.4873 45.7729 79.8233 45.3769 80.0573 44.8789C80.2973 44.3809 80.4173 43.8319 80.4173 43.2319C80.4173 42.6199 80.2973 42.0679 80.0573 41.5759C79.8173 41.0779 79.4783 40.6849 79.0403 40.3969C78.6083 40.1029 78.0983 39.9559 77.5103 39.9559C76.9163 39.9559 76.3763 40.1029 75.8903 40.3969C75.4043 40.6909 75.0173 41.0869 74.7293 41.5849C74.4473 42.0769 74.3063 42.6259 74.3063 43.2319C74.3063 43.8379 74.4533 44.3899 74.7473 44.8879C75.0413 45.3799 75.4313 45.7729 75.9173 46.0669C76.4033 46.3549 76.9343 46.4989 77.5103 46.4989ZM83.9506 47.7319V34.2319H85.4626V47.7319H83.9506ZM87.6244 38.7319H89.1364V47.7319H87.6244V38.7319ZM88.3984 37.2649C88.1584 37.2649 87.9574 37.1869 87.7954 37.0309C87.6334 36.8749 87.5524 36.6799 87.5524 36.4459C87.5524 36.2119 87.6334 36.0169 87.7954 35.8609C87.9574 35.7049 88.1554 35.6269 88.3894 35.6269C88.6234 35.6269 88.8214 35.7049 88.9834 35.8609C89.1454 36.0169 89.2264 36.2119 89.2264 36.4459C89.2264 36.6799 89.1454 36.8749 88.9834 37.0309C88.8274 37.1869 88.6324 37.2649 88.3984 37.2649ZM98.6243 40.2439L93.0893 46.2199H98.6243V47.7319H90.9383V46.2199L96.4733 40.2439H90.9383V38.7319H98.6243V40.2439ZM104.258 47.9659C103.43 47.9659 102.674 47.7529 101.99 47.3269C101.312 46.9009 100.769 46.3309 100.361 45.6169C99.9593 44.8969 99.7583 44.1019 99.7583 43.2319C99.7583 42.5719 99.8753 41.9569 100.109 41.3869C100.343 40.8109 100.664 40.3069 101.072 39.8749C101.486 39.4369 101.966 39.0949 102.512 38.8489C103.058 38.6029 103.64 38.4799 104.258 38.4799C104.936 38.4799 105.557 38.6179 106.121 38.8939C106.691 39.1639 107.177 39.5419 107.579 40.0279C107.987 40.5139 108.29 41.0779 108.488 41.7199C108.692 42.3619 108.767 43.0489 108.713 43.7809H101.369C101.441 44.2909 101.609 44.7469 101.873 45.1489C102.137 45.5449 102.473 45.8599 102.881 46.0939C103.295 46.3279 103.754 46.4479 104.258 46.4539C104.798 46.4539 105.287 46.3159 105.725 46.0399C106.163 45.7579 106.517 45.3739 106.787 44.8879L108.326 45.2479C107.966 46.0459 107.423 46.6999 106.697 47.2099C105.971 47.7139 105.158 47.9659 104.258 47.9659ZM101.324 42.5929H107.192C107.144 42.0889 106.982 41.6299 106.706 41.2159C106.43 40.7959 106.079 40.4599 105.653 40.2079C105.227 39.9559 104.762 39.8299 104.258 39.8299C103.754 39.8299 103.292 39.9529 102.872 40.1989C102.452 40.4449 102.104 40.7779 101.828 41.1979C101.558 41.6119 101.39 42.0769 101.324 42.5929ZM117.413 38.7319H118.925V47.7319H117.413L117.35 46.2109C117.068 46.7329 116.678 47.1559 116.18 47.4799C115.688 47.8039 115.1 47.9659 114.416 47.9659C113.756 47.9659 113.138 47.8429 112.562 47.5969C111.986 47.3449 111.476 46.9999 111.032 46.5619C110.594 46.1179 110.252 45.6079 110.006 45.0319C109.76 44.4559 109.637 43.8349 109.637 43.1689C109.637 42.5269 109.757 41.9209 109.997 41.3509C110.237 40.7809 110.57 40.2829 110.996 39.8569C111.428 39.4249 111.926 39.0889 112.49 38.8489C113.054 38.6029 113.66 38.4799 114.308 38.4799C115.016 38.4799 115.637 38.6479 116.171 38.9839C116.705 39.3139 117.137 39.7429 117.467 40.2709L117.413 38.7319ZM114.389 46.4989C114.983 46.4989 115.496 46.3549 115.928 46.0669C116.366 45.7729 116.702 45.3769 116.936 44.8789C117.176 44.3809 117.296 43.8319 117.296 43.2319C117.296 42.6199 117.176 42.0679 116.936 41.5759C116.696 41.0779 116.357 40.6849 115.919 40.3969C115.487 40.1029 114.977 39.9559 114.389 39.9559C113.795 39.9559 113.255 40.1029 112.769 40.3969C112.283 40.6909 111.896 41.0869 111.608 41.5849C111.326 42.0769 111.185 42.6259 111.185 43.2319C111.185 43.8379 111.332 44.3899 111.626 44.8879C111.92 45.3799 112.31 45.7729 112.796 46.0669C113.282 46.3549 113.813 46.4989 114.389 46.4989ZM128.05 40.2439L122.515 46.2199H128.05V47.7319H120.364V46.2199L125.899 40.2439H120.364V38.7319H128.05V40.2439ZM136.96 38.7319H138.472V47.7319H136.96L136.897 46.2109C136.615 46.7329 136.225 47.1559 135.727 47.4799C135.235 47.8039 134.647 47.9659 133.963 47.9659C133.303 47.9659 132.685 47.8429 132.109 47.5969C131.533 47.3449 131.023 46.9999 130.579 46.5619C130.141 46.1179 129.799 45.6079 129.553 45.0319C129.307 44.4559 129.184 43.8349 129.184 43.1689C129.184 42.5269 129.304 41.9209 129.544 41.3509C129.784 40.7809 130.117 40.2829 130.543 39.8569C130.975 39.4249 131.473 39.0889 132.037 38.8489C132.601 38.6029 133.207 38.4799 133.855 38.4799C134.563 38.4799 135.184 38.6479 135.718 38.9839C136.252 39.3139 136.684 39.7429 137.014 40.2709L136.96 38.7319ZM133.936 46.4989C134.53 46.4989 135.043 46.3549 135.475 46.0669C135.913 45.7729 136.249 45.3769 136.483 44.8789C136.723 44.3809 136.843 43.8319 136.843 43.2319C136.843 42.6199 136.723 42.0679 136.483 41.5759C136.243 41.0779 135.904 40.6849 135.466 40.3969C135.034 40.1029 134.524 39.9559 133.936 39.9559C133.342 39.9559 132.802 40.1029 132.316 40.3969C131.83 40.6909 131.443 41.0869 131.155 41.5849C130.873 42.0769 130.732 42.6259 130.732 43.2319C130.732 43.8379 130.879 44.3899 131.173 44.8879C131.467 45.3799 131.857 45.7729 132.343 46.0669C132.829 46.3549 133.36 46.4989 133.936 46.4989ZM134.053 37.9399C133.507 37.9399 133.006 37.8049 132.55 37.5349C132.1 37.2649 131.74 36.9049 131.47 36.4549C131.2 35.9989 131.065 35.4979 131.065 34.9519H132.091C132.091 35.3179 132.181 35.6509 132.361 35.9509C132.547 36.2449 132.787 36.4789 133.081 36.6529C133.381 36.8269 133.705 36.9139 134.053 36.9139C134.413 36.9139 134.74 36.8269 135.034 36.6529C135.334 36.4789 135.571 36.2419 135.745 35.9419C135.925 35.6419 136.015 35.3119 136.015 34.9519H137.041C137.041 35.5099 136.903 36.0169 136.627 36.4729C136.357 36.9229 135.994 37.2799 135.538 37.5439C135.088 37.8079 134.593 37.9399 134.053 37.9399ZM144.595 38.7319H146.107V47.7319H144.595V38.7319ZM146.188 35.1499L147.925 37.7419H146.917L145.351 35.9419L143.803 37.7419H142.795L144.514 35.1499H146.188ZM156.225 42.1339V47.7319H154.713V42.4669C154.713 42.0109 154.602 41.5969 154.38 41.2249C154.158 40.8529 153.861 40.5589 153.489 40.3429C153.117 40.1209 152.703 40.0099 152.247 40.0099C151.797 40.0099 151.383 40.1209 151.005 40.3429C150.633 40.5589 150.336 40.8529 150.114 41.2249C149.892 41.5969 149.781 42.0109 149.781 42.4669V47.7319H148.269V38.7319H149.781V39.8569C150.099 39.4369 150.501 39.1039 150.987 38.8579C151.473 38.6059 152.001 38.4799 152.571 38.4799C153.243 38.4799 153.855 38.6449 154.407 38.9749C154.965 39.2989 155.406 39.7369 155.73 40.2889C156.06 40.8409 156.225 41.4559 156.225 42.1339ZM167.011 40.2439H164.968L164.959 47.7319H163.447L163.456 40.2439H161.908V38.7319H163.456L163.447 35.9059H164.959L164.968 38.7319H167.011V40.2439ZM168.537 38.7319H170.049V47.7319H168.537V38.7319ZM169.311 37.2649C169.071 37.2649 168.87 37.1869 168.708 37.0309C168.546 36.8749 168.465 36.6799 168.465 36.4459C168.465 36.2119 168.546 36.0169 168.708 35.8609C168.87 35.7049 169.068 35.6269 169.302 35.6269C169.536 35.6269 169.734 35.7049 169.896 35.8609C170.058 36.0169 170.139 36.2119 170.139 36.4459C170.139 36.6799 170.058 36.8749 169.896 37.0309C169.74 37.1869 169.545 37.2649 169.311 37.2649ZM172.158 47.7319V38.7319H173.67V39.8569C173.988 39.4369 174.387 39.1039 174.867 38.8579C175.353 38.6059 175.881 38.4799 176.451 38.4799C177.117 38.4799 177.726 38.6419 178.278 38.9659C178.83 39.2899 179.265 39.7189 179.583 40.2529C179.901 39.7189 180.333 39.2899 180.879 38.9659C181.431 38.6419 182.037 38.4799 182.697 38.4799C183.375 38.4799 183.99 38.6449 184.542 38.9749C185.094 39.2989 185.532 39.7369 185.856 40.2889C186.186 40.8409 186.351 41.4559 186.351 42.1339V47.7319H184.839V42.4939C184.839 42.0499 184.731 41.6389 184.515 41.2609C184.299 40.8829 184.008 40.5799 183.642 40.3519C183.276 40.1239 182.871 40.0099 182.427 40.0099C181.983 40.0099 181.578 40.1179 181.212 40.3339C180.846 40.5439 180.555 40.8379 180.339 41.2159C180.123 41.5879 180.015 42.0139 180.015 42.4939V47.7319H178.503V42.4939C178.503 42.0139 178.395 41.5879 178.179 41.2159C177.963 40.8379 177.669 40.5439 177.297 40.3339C176.931 40.1179 176.526 40.0099 176.082 40.0099C175.644 40.0099 175.239 40.1239 174.867 40.3519C174.501 40.5799 174.21 40.8829 173.994 41.2609C173.778 41.6389 173.67 42.0499 173.67 42.4939V47.7319H172.158ZM189.666 52.2319H188.154V38.7319H189.666V40.2709C189.972 39.7429 190.38 39.3169 190.89 38.9929C191.4 38.6629 192.006 38.4979 192.708 38.4979C193.362 38.4979 193.974 38.6209 194.544 38.8669C195.12 39.1129 195.624 39.4549 196.056 39.8929C196.488 40.3249 196.827 40.8259 197.073 41.3959C197.319 41.9659 197.442 42.5779 197.442 43.2319C197.442 43.8859 197.319 44.5009 197.073 45.0769C196.827 45.6529 196.488 46.1599 196.056 46.5979C195.624 47.0299 195.12 47.3689 194.544 47.6149C193.974 47.8609 193.362 47.9839 192.708 47.9839C192.006 47.9839 191.4 47.8219 190.89 47.4979C190.38 47.1679 189.972 46.7389 189.666 46.2109V52.2319ZM192.69 39.9649C192.108 39.9649 191.598 40.1119 191.16 40.4059C190.722 40.6999 190.383 41.0929 190.143 41.5849C189.909 42.0769 189.792 42.6259 189.792 43.2319C189.792 43.8319 189.909 44.3809 190.143 44.8789C190.383 45.3769 190.719 45.7729 191.151 46.0669C191.589 46.3609 192.102 46.5079 192.69 46.5079C193.272 46.5079 193.806 46.3639 194.292 46.0759C194.778 45.7819 195.168 45.3889 195.462 44.8969C195.756 44.3989 195.903 43.8439 195.903 43.2319C195.903 42.6319 195.759 42.0859 195.471 41.5939C195.183 41.0959 194.796 40.6999 194.31 40.4059C193.824 40.1119 193.284 39.9649 192.69 39.9649ZM203.394 47.7319V38.7319H204.906V39.8569C205.224 39.4369 205.626 39.1039 206.112 38.8579C206.598 38.6059 207.126 38.4799 207.696 38.4799C208.044 38.4799 208.38 38.5249 208.704 38.6149L208.092 40.1269C207.846 40.0489 207.606 40.0099 207.372 40.0099C206.922 40.0099 206.508 40.1209 206.13 40.3429C205.758 40.5589 205.461 40.8529 205.239 41.2249C205.017 41.5969 204.906 42.0109 204.906 42.4669V47.7319H203.394ZM213.313 47.9659C212.485 47.9659 211.729 47.7529 211.045 47.3269C210.367 46.9009 209.824 46.3309 209.416 45.6169C209.014 44.8969 208.813 44.1019 208.813 43.2319C208.813 42.5719 208.93 41.9569 209.164 41.3869C209.398 40.8109 209.719 40.3069 210.127 39.8749C210.541 39.4369 211.021 39.0949 211.567 38.8489C212.113 38.6029 212.695 38.4799 213.313 38.4799C213.991 38.4799 214.612 38.6179 215.176 38.8939C215.746 39.1639 216.232 39.5419 216.634 40.0279C217.042 40.5139 217.345 41.0779 217.543 41.7199C217.747 42.3619 217.822 43.0489 217.768 43.7809H210.424C210.496 44.2909 210.664 44.7469 210.928 45.1489C211.192 45.5449 211.528 45.8599 211.936 46.0939C212.35 46.3279 212.809 46.4479 213.313 46.4539C213.853 46.4539 214.342 46.3159 214.78 46.0399C215.218 45.7579 215.572 45.3739 215.842 44.8879L217.381 45.2479C217.021 46.0459 216.478 46.6999 215.752 47.2099C215.026 47.7139 214.213 47.9659 213.313 47.9659ZM210.379 42.5929H216.247C216.199 42.0889 216.037 41.6299 215.761 41.2159C215.485 40.7959 215.134 40.4599 214.708 40.2079C214.282 39.9559 213.817 39.8299 213.313 39.8299C212.809 39.8299 212.347 39.9529 211.927 40.1989C211.507 40.4449 211.159 40.7779 210.883 41.1979C210.613 41.6119 210.445 42.0769 210.379 42.5929ZM226.468 38.7319H227.98V47.7319H226.468L226.405 46.2109C226.123 46.7329 225.733 47.1559 225.235 47.4799C224.743 47.8039 224.155 47.9659 223.471 47.9659C222.811 47.9659 222.193 47.8429 221.617 47.5969C221.041 47.3449 220.531 46.9999 220.087 46.5619C219.649 46.1179 219.307 45.6079 219.061 45.0319C218.815 44.4559 218.692 43.8349 218.692 43.1689C218.692 42.5269 218.812 41.9209 219.052 41.3509C219.292 40.7809 219.625 40.2829 220.051 39.8569C220.483 39.4249 220.981 39.0889 221.545 38.8489C222.109 38.6029 222.715 38.4799 223.363 38.4799C224.071 38.4799 224.692 38.6479 225.226 38.9839C225.76 39.3139 226.192 39.7429 226.522 40.2709L226.468 38.7319ZM223.444 46.4989C224.038 46.4989 224.551 46.3549 224.983 46.0669C225.421 45.7729 225.757 45.3769 225.991 44.8789C226.231 44.3809 226.351 43.8319 226.351 43.2319C226.351 42.6199 226.231 42.0679 225.991 41.5759C225.751 41.0779 225.412 40.6849 224.974 40.3969C224.542 40.1029 224.032 39.9559 223.444 39.9559C222.85 39.9559 222.31 40.1029 221.824 40.3969C221.338 40.6909 220.951 41.0869 220.663 41.5849C220.381 42.0769 220.24 42.6259 220.24 43.2319C220.24 43.8379 220.387 44.3899 220.681 44.8879C220.975 45.3799 221.365 45.7729 221.851 46.0669C222.337 46.3549 222.868 46.4989 223.444 46.4989ZM229.884 47.7319V34.2319H231.396V47.7319H229.884ZM245.838 42.1339V47.7319H244.326V42.4669C244.326 42.0109 244.215 41.5969 243.993 41.2249C243.771 40.8529 243.474 40.5589 243.102 40.3429C242.73 40.1209 242.316 40.0099 241.86 40.0099C241.41 40.0099 240.996 40.1209 240.618 40.3429C240.246 40.5589 239.949 40.8529 239.727 41.2249C239.505 41.5969 239.394 42.0109 239.394 42.4669V47.7319H237.882V38.7319H239.394V39.8569C239.712 39.4369 240.114 39.1039 240.6 38.8579C241.086 38.6059 241.614 38.4799 242.184 38.4799C242.856 38.4799 243.468 38.6449 244.02 38.9749C244.578 39.2989 245.019 39.7369 245.343 40.2889C245.673 40.8409 245.838 41.4559 245.838 42.1339ZM247.278 44.3119V38.7319H248.79V43.9789C248.79 44.4349 248.901 44.8489 249.123 45.2209C249.345 45.5929 249.642 45.8899 250.014 46.1119C250.392 46.3279 250.806 46.4359 251.256 46.4359C251.712 46.4359 252.123 46.3279 252.489 46.1119C252.861 45.8899 253.158 45.5929 253.38 45.2209C253.602 44.8489 253.713 44.4349 253.713 43.9789V38.7319H255.225L255.234 47.7319H253.722L253.713 46.5889C253.395 47.0089 252.993 47.3449 252.507 47.5969C252.021 47.8429 251.496 47.9659 250.932 47.9659C250.26 47.9659 249.645 47.8039 249.087 47.4799C248.535 47.1499 248.094 46.7089 247.764 46.1569C247.44 45.6049 247.278 44.9899 247.278 44.3119ZM257.042 47.7319V38.7319H258.554V39.8569C258.872 39.4369 259.271 39.1039 259.751 38.8579C260.237 38.6059 260.765 38.4799 261.335 38.4799C262.001 38.4799 262.61 38.6419 263.162 38.9659C263.714 39.2899 264.149 39.7189 264.467 40.2529C264.785 39.7189 265.217 39.2899 265.763 38.9659C266.315 38.6419 266.921 38.4799 267.581 38.4799C268.259 38.4799 268.874 38.6449 269.426 38.9749C269.978 39.2989 270.416 39.7369 270.74 40.2889C271.07 40.8409 271.235 41.4559 271.235 42.1339V47.7319H269.723V42.4939C269.723 42.0499 269.615 41.6389 269.399 41.2609C269.183 40.8829 268.892 40.5799 268.526 40.3519C268.16 40.1239 267.755 40.0099 267.311 40.0099C266.867 40.0099 266.462 40.1179 266.096 40.3339C265.73 40.5439 265.439 40.8379 265.223 41.2159C265.007 41.5879 264.899 42.0139 264.899 42.4939V47.7319H263.387V42.4939C263.387 42.0139 263.279 41.5879 263.063 41.2159C262.847 40.8379 262.553 40.5439 262.181 40.3339C261.815 40.1179 261.41 40.0099 260.966 40.0099C260.528 40.0099 260.123 40.1239 259.751 40.3519C259.385 40.5799 259.094 40.8829 258.878 41.2609C258.662 41.6389 258.554 42.0499 258.554 42.4939V47.7319H257.042ZM280.099 38.7319H281.611V47.7319H280.099L280.036 46.2109C279.754 46.7329 279.364 47.1559 278.866 47.4799C278.374 47.8039 277.786 47.9659 277.102 47.9659C276.442 47.9659 275.824 47.8429 275.248 47.5969C274.672 47.3449 274.162 46.9999 273.718 46.5619C273.28 46.1179 272.938 45.6079 272.692 45.0319C272.446 44.4559 272.323 43.8349 272.323 43.1689C272.323 42.5269 272.443 41.9209 272.683 41.3509C272.923 40.7809 273.256 40.2829 273.682 39.8569C274.114 39.4249 274.612 39.0889 275.176 38.8489C275.74 38.6029 276.346 38.4799 276.994 38.4799C277.702 38.4799 278.323 38.6479 278.857 38.9839C279.391 39.3139 279.823 39.7429 280.153 40.2709L280.099 38.7319ZM277.075 46.4989C277.669 46.4989 278.182 46.3549 278.614 46.0669C279.052 45.7729 279.388 45.3769 279.622 44.8789C279.862 44.3809 279.982 43.8319 279.982 43.2319C279.982 42.6199 279.862 42.0679 279.622 41.5759C279.382 41.0779 279.043 40.6849 278.605 40.3969C278.173 40.1029 277.663 39.9559 277.075 39.9559C276.481 39.9559 275.941 40.1029 275.455 40.3969C274.969 40.6909 274.582 41.0869 274.294 41.5849C274.012 42.0769 273.871 42.6259 273.871 43.2319C273.871 43.8379 274.018 44.3899 274.312 44.8879C274.606 45.3799 274.996 45.7729 275.482 46.0669C275.968 46.3549 276.499 46.4989 277.075 46.4989ZM277.192 37.9399C276.646 37.9399 276.145 37.8049 275.689 37.5349C275.239 37.2649 274.879 36.9049 274.609 36.4549C274.339 35.9989 274.204 35.4979 274.204 34.9519H275.23C275.23 35.3179 275.32 35.6509 275.5 35.9509C275.686 36.2449 275.926 36.4789 276.22 36.6529C276.52 36.8269 276.844 36.9139 277.192 36.9139C277.552 36.9139 277.879 36.8269 278.173 36.6529C278.473 36.4789 278.71 36.2419 278.884 35.9419C279.064 35.6419 279.154 35.3119 279.154 34.9519H280.18C280.18 35.5099 280.042 36.0169 279.766 36.4729C279.496 36.9229 279.133 37.2799 278.677 37.5439C278.227 37.8079 277.732 37.9399 277.192 37.9399ZM283.41 47.7319V38.7319H284.922V39.8569C285.24 39.4369 285.642 39.1039 286.128 38.8579C286.614 38.6059 287.142 38.4799 287.712 38.4799C288.06 38.4799 288.396 38.5249 288.72 38.6149L288.108 40.1269C287.862 40.0489 287.622 40.0099 287.388 40.0099C286.938 40.0099 286.524 40.1209 286.146 40.3429C285.774 40.5589 285.477 40.8529 285.255 41.2249C285.033 41.5969 284.922 42.0109 284.922 42.4669V47.7319H283.41ZM289.448 44.3119V38.7319H290.96V43.9789C290.96 44.4349 291.071 44.8489 291.293 45.2209C291.515 45.5929 291.812 45.8899 292.184 46.1119C292.562 46.3279 292.976 46.4359 293.426 46.4359C293.882 46.4359 294.293 46.3279 294.659 46.1119C295.031 45.8899 295.328 45.5929 295.55 45.2209C295.772 44.8489 295.883 44.4349 295.883 43.9789V38.7319H297.395L297.404 47.7319H295.892L295.883 46.5889C295.565 47.0089 295.163 47.3449 294.677 47.5969C294.191 47.8429 293.666 47.9659 293.102 47.9659C292.43 47.9659 291.815 47.8039 291.257 47.4799C290.705 47.1499 290.264 46.7089 289.934 46.1569C289.61 45.6049 289.448 44.9899 289.448 44.3119ZM299.318 47.7319V34.2319H300.83V47.7319H299.318ZM314.561 34.2319H316.073V47.7319H314.561V46.2019C314.255 46.7299 313.844 47.1559 313.328 47.4799C312.812 47.8039 312.206 47.9659 311.51 47.9659C310.856 47.9659 310.244 47.8429 309.674 47.5969C309.104 47.3509 308.6 47.0119 308.162 46.5799C307.73 46.1419 307.391 45.6379 307.145 45.0679C306.899 44.4979 306.776 43.8859 306.776 43.2319C306.776 42.5779 306.899 41.9659 307.145 41.3959C307.391 40.8199 307.73 40.3159 308.162 39.8839C308.6 39.4459 309.104 39.1039 309.674 38.8579C310.244 38.6119 310.856 38.4889 311.51 38.4889C312.206 38.4889 312.812 38.6509 313.328 38.9749C313.844 39.2989 314.255 39.7249 314.561 40.2529V34.2319ZM311.528 46.4989C312.122 46.4989 312.635 46.3549 313.067 46.0669C313.505 45.7729 313.841 45.3769 314.075 44.8789C314.315 44.3809 314.435 43.8319 314.435 43.2319C314.435 42.6199 314.315 42.0679 314.075 41.5759C313.835 41.0779 313.496 40.6849 313.058 40.3969C312.626 40.1029 312.116 39.9559 311.528 39.9559C310.934 39.9559 310.394 40.1029 309.908 40.3969C309.428 40.6909 309.044 41.0869 308.756 41.5849C308.468 42.0769 308.324 42.6259 308.324 43.2319C308.324 43.8379 308.471 44.3899 308.765 44.8879C309.059 45.3799 309.449 45.7729 309.935 46.0669C310.421 46.3549 310.952 46.4989 311.528 46.4989ZM322.104 47.9659C321.276 47.9659 320.52 47.7529 319.836 47.3269C319.158 46.9009 318.615 46.3309 318.207 45.6169C317.805 44.8969 317.604 44.1019 317.604 43.2319C317.604 42.5719 317.721 41.9569 317.955 41.3869C318.189 40.8109 318.51 40.3069 318.918 39.8749C319.332 39.4369 319.812 39.0949 320.358 38.8489C320.904 38.6029 321.486 38.4799 322.104 38.4799C322.782 38.4799 323.403 38.6179 323.967 38.8939C324.537 39.1639 325.023 39.5419 325.425 40.0279C325.833 40.5139 326.136 41.0779 326.334 41.7199C326.538 42.3619 326.613 43.0489 326.559 43.7809H319.215C319.287 44.2909 319.455 44.7469 319.719 45.1489C319.983 45.5449 320.319 45.8599 320.727 46.0939C321.141 46.3279 321.6 46.4479 322.104 46.4539C322.644 46.4539 323.133 46.3159 323.571 46.0399C324.009 45.7579 324.363 45.3739 324.633 44.8879L326.172 45.2479C325.812 46.0459 325.269 46.6999 324.543 47.2099C323.817 47.7139 323.004 47.9659 322.104 47.9659ZM319.17 42.5929H325.038C324.99 42.0889 324.828 41.6299 324.552 41.2159C324.276 40.7959 323.925 40.4599 323.499 40.2079C323.073 39.9559 322.608 39.8299 322.104 39.8299C321.6 39.8299 321.138 39.9529 320.718 40.1989C320.298 40.4449 319.95 40.7779 319.674 41.1979C319.404 41.6119 319.236 42.0769 319.17 42.5929ZM46.0129 67.3559L47.3629 68.0849C46.9549 68.6549 46.4359 69.1109 45.8059 69.4529C45.1819 69.7949 44.5039 69.9659 43.7719 69.9659C42.9439 69.9659 42.1879 69.7529 41.5039 69.3269C40.8259 68.9009 40.2829 68.3309 39.8749 67.6169C39.4729 66.8969 39.2719 66.1019 39.2719 65.2319C39.2719 64.5719 39.3889 63.9569 39.6229 63.3869C39.8569 62.8109 40.1779 62.3069 40.5859 61.8749C40.9999 61.4369 41.4799 61.0949 42.0259 60.8489C42.5719 60.6029 43.1539 60.4799 43.7719 60.4799C44.5039 60.4799 45.1819 60.6509 45.8059 60.9929C46.4359 61.3349 46.9549 61.7939 47.3629 62.3699L46.0129 63.0989C45.7249 62.7449 45.3829 62.4719 44.9869 62.2799C44.5909 62.0879 44.1859 61.9919 43.7719 61.9919C43.2139 61.9919 42.7069 62.1419 42.2509 62.4419C41.8009 62.7359 41.4439 63.1289 41.1799 63.6209C40.9159 64.1129 40.7839 64.6499 40.7839 65.2319C40.7839 65.8139 40.9159 66.3509 41.1799 66.8429C41.4499 67.3289 41.8099 67.7189 42.2599 68.0129C42.7159 68.3069 43.2199 68.4539 43.7719 68.4539C44.2159 68.4539 44.6329 68.3519 45.0229 68.1479C45.4129 67.9439 45.7429 67.6799 46.0129 67.3559ZM56.0655 60.7319H57.5775V69.7319H56.0655L56.0025 68.2109C55.7205 68.7329 55.3305 69.1559 54.8325 69.4799C54.3405 69.8039 53.7525 69.9659 53.0685 69.9659C52.4085 69.9659 51.7905 69.8429 51.2145 69.5969C50.6385 69.3449 50.1285 68.9999 49.6845 68.5619C49.2465 68.1179 48.9045 67.6079 48.6585 67.0319C48.4125 66.4559 48.2895 65.8349 48.2895 65.1689C48.2895 64.5269 48.4095 63.9209 48.6495 63.3509C48.8895 62.7809 49.2225 62.2829 49.6485 61.8569C50.0805 61.4249 50.5785 61.0889 51.1425 60.8489C51.7065 60.6029 52.3125 60.4799 52.9605 60.4799C53.6685 60.4799 54.2895 60.6479 54.8235 60.9839C55.3575 61.3139 55.7895 61.7429 56.1195 62.2709L56.0655 60.7319ZM53.0415 68.4989C53.6355 68.4989 54.1485 68.3549 54.5805 68.0669C55.0185 67.7729 55.3545 67.3769 55.5885 66.8789C55.8285 66.3809 55.9485 65.8319 55.9485 65.2319C55.9485 64.6199 55.8285 64.0679 55.5885 63.5759C55.3485 63.0779 55.0095 62.6849 54.5715 62.3969C54.1395 62.1029 53.6295 61.9559 53.0415 61.9559C52.4475 61.9559 51.9075 62.1029 51.4215 62.3969C50.9355 62.6909 50.5485 63.0869 50.2605 63.5849C49.9785 64.0769 49.8375 64.6259 49.8375 65.2319C49.8375 65.8379 49.9845 66.3899 50.2785 66.8879C50.5725 67.3799 50.9625 67.7729 51.4485 68.0669C51.9345 68.3549 52.4655 68.4989 53.0415 68.4989ZM60.8884 74.2319H59.3764V60.7319H60.8884V62.2709C61.1944 61.7429 61.6024 61.3169 62.1124 60.9929C62.6224 60.6629 63.2284 60.4979 63.9304 60.4979C64.5844 60.4979 65.1964 60.6209 65.7664 60.8669C66.3424 61.1129 66.8464 61.4549 67.2784 61.8929C67.7104 62.3249 68.0494 62.8259 68.2954 63.3959C68.5414 63.9659 68.6644 64.5779 68.6644 65.2319C68.6644 65.8859 68.5414 66.5009 68.2954 67.0769C68.0494 67.6529 67.7104 68.1599 67.2784 68.5979C66.8464 69.0299 66.3424 69.3689 65.7664 69.6149C65.1964 69.8609 64.5844 69.9839 63.9304 69.9839C63.2284 69.9839 62.6224 69.8219 62.1124 69.4979C61.6024 69.1679 61.1944 68.7389 60.8884 68.2109V74.2319ZM63.9124 61.9649C63.3304 61.9649 62.8204 62.1119 62.3824 62.4059C61.9444 62.6999 61.6054 63.0929 61.3654 63.5849C61.1314 64.0769 61.0144 64.6259 61.0144 65.2319C61.0144 65.8319 61.1314 66.3809 61.3654 66.8789C61.6054 67.3769 61.9414 67.7729 62.3734 68.0669C62.8114 68.3609 63.3244 68.5079 63.9124 68.5079C64.4944 68.5079 65.0284 68.3639 65.5144 68.0759C66.0004 67.7819 66.3904 67.3889 66.6844 66.8969C66.9784 66.3989 67.1254 65.8439 67.1254 65.2319C67.1254 64.6319 66.9814 64.0859 66.6934 63.5939C66.4054 63.0959 66.0184 62.6999 65.5324 62.4059C65.0464 62.1119 64.5064 61.9649 63.9124 61.9649ZM76.3176 67.3559L77.6676 68.0849C77.2596 68.6549 76.7406 69.1109 76.1106 69.4529C75.4866 69.7949 74.8086 69.9659 74.0766 69.9659C73.2486 69.9659 72.4926 69.7529 71.8086 69.3269C71.1306 68.9009 70.5876 68.3309 70.1796 67.6169C69.7776 66.8969 69.5766 66.1019 69.5766 65.2319C69.5766 64.5719 69.6936 63.9569 69.9276 63.3869C70.1616 62.8109 70.4826 62.3069 70.8906 61.8749C71.3046 61.4369 71.7846 61.0949 72.3306 60.8489C72.8766 60.6029 73.4586 60.4799 74.0766 60.4799C74.8086 60.4799 75.4866 60.6509 76.1106 60.9929C76.7406 61.3349 77.2596 61.7939 77.6676 62.3699L76.3176 63.0989C76.0296 62.7449 75.6876 62.4719 75.2916 62.2799C74.8956 62.0879 74.4906 61.9919 74.0766 61.9919C73.5186 61.9919 73.0116 62.1419 72.5556 62.4419C72.1056 62.7359 71.7486 63.1289 71.4846 63.6209C71.2206 64.1129 71.0886 64.6499 71.0886 65.2319C71.0886 65.8139 71.2206 66.3509 71.4846 66.8429C71.7546 67.3289 72.1146 67.7189 72.5646 68.0129C73.0206 68.3069 73.5246 68.4539 74.0766 68.4539C74.5206 68.4539 74.9376 68.3519 75.3276 68.1479C75.7176 67.9439 76.0476 67.6799 76.3176 67.3559ZM86.3702 60.7319H87.8822V69.7319H86.3702L86.3072 68.2109C86.0252 68.7329 85.6352 69.1559 85.1372 69.4799C84.6452 69.8039 84.0572 69.9659 83.3732 69.9659C82.7132 69.9659 82.0952 69.8429 81.5192 69.5969C80.9432 69.3449 80.4332 68.9999 79.9892 68.5619C79.5512 68.1179 79.2092 67.6079 78.9632 67.0319C78.7172 66.4559 78.5942 65.8349 78.5942 65.1689C78.5942 64.5269 78.7142 63.9209 78.9542 63.3509C79.1942 62.7809 79.5272 62.2829 79.9532 61.8569C80.3852 61.4249 80.8832 61.0889 81.4472 60.8489C82.0112 60.6029 82.6172 60.4799 83.2652 60.4799C83.9732 60.4799 84.5942 60.6479 85.1282 60.9839C85.6622 61.3139 86.0942 61.7429 86.4242 62.2709L86.3702 60.7319ZM83.3462 68.4989C83.9402 68.4989 84.4532 68.3549 84.8852 68.0669C85.3232 67.7729 85.6592 67.3769 85.8932 66.8789C86.1332 66.3809 86.2532 65.8319 86.2532 65.2319C86.2532 64.6199 86.1332 64.0679 85.8932 63.5759C85.6532 63.0779 85.3142 62.6849 84.8762 62.3969C84.4442 62.1029 83.9342 61.9559 83.3462 61.9559C82.7522 61.9559 82.2122 62.1029 81.7262 62.3969C81.2402 62.6909 80.8532 63.0869 80.5652 63.5849C80.2832 64.0769 80.1422 64.6259 80.1422 65.2319C80.1422 65.8379 80.2892 66.3899 80.5832 66.8879C80.8772 67.3799 81.2672 67.7729 81.7532 68.0669C82.2392 68.3549 82.7702 68.4989 83.3462 68.4989ZM97.6371 64.1339V69.7319H96.1251V64.4669C96.1251 64.0109 96.0141 63.5969 95.7921 63.2249C95.5701 62.8529 95.2731 62.5589 94.9011 62.3429C94.5291 62.1209 94.1151 62.0099 93.6591 62.0099C93.2091 62.0099 92.7951 62.1209 92.4171 62.3429C92.0451 62.5589 91.7481 62.8529 91.5261 63.2249C91.3041 63.5969 91.1931 64.0109 91.1931 64.4669V69.7319H89.6811V60.7319H91.1931V61.8569C91.5111 61.4369 91.9131 61.1039 92.3991 60.8579C92.8851 60.6059 93.4131 60.4799 93.9831 60.4799C94.6551 60.4799 95.2671 60.6449 95.8191 60.9749C96.3771 61.2989 96.8181 61.7369 97.1421 62.2889C97.4721 62.8409 97.6371 63.4559 97.6371 64.1339ZM103.221 69.9659C102.393 69.9659 101.637 69.7529 100.953 69.3269C100.275 68.9009 99.7322 68.3309 99.3242 67.6169C98.9222 66.8969 98.7212 66.1019 98.7212 65.2319C98.7212 64.5719 98.8382 63.9569 99.0722 63.3869C99.3062 62.8109 99.6272 62.3069 100.035 61.8749C100.449 61.4369 100.929 61.0949 101.475 60.8489C102.021 60.6029 102.603 60.4799 103.221 60.4799C103.899 60.4799 104.52 60.6179 105.084 60.8939C105.654 61.1639 106.14 61.5419 106.542 62.0279C106.95 62.5139 107.253 63.0779 107.451 63.7199C107.655 64.3619 107.73 65.0489 107.676 65.7809H100.332C100.404 66.2909 100.572 66.7469 100.836 67.1489C101.1 67.5449 101.436 67.8599 101.844 68.0939C102.258 68.3279 102.717 68.4479 103.221 68.4539C103.761 68.4539 104.25 68.3159 104.688 68.0399C105.126 67.7579 105.48 67.3739 105.75 66.8879L107.289 67.2479C106.929 68.0459 106.386 68.6999 105.66 69.2099C104.934 69.7139 104.121 69.9659 103.221 69.9659ZM100.287 64.5929H106.155C106.107 64.0889 105.945 63.6299 105.669 63.2159C105.393 62.7959 105.042 62.4599 104.616 62.2079C104.19 61.9559 103.725 61.8299 103.221 61.8299C102.717 61.8299 102.255 61.9529 101.835 62.1989C101.415 62.4449 101.067 62.7779 100.791 63.1979C100.521 63.6119 100.353 64.0769 100.287 64.5929ZM113.64 60.7319H115.152V69.7319H113.64V60.7319ZM114.414 59.2649C114.174 59.2649 113.973 59.1869 113.811 59.0309C113.649 58.8749 113.568 58.6799 113.568 58.4459C113.568 58.2119 113.649 58.0169 113.811 57.8609C113.973 57.7049 114.171 57.6269 114.405 57.6269C114.639 57.6269 114.837 57.7049 114.999 57.8609C115.161 58.0169 115.242 58.2119 115.242 58.4459C115.242 58.6799 115.161 58.8749 114.999 59.0309C114.843 59.1869 114.648 59.2649 114.414 59.2649ZM125.217 64.1339V69.7319H123.705V64.4669C123.705 64.0109 123.594 63.5969 123.372 63.2249C123.15 62.8529 122.853 62.5589 122.481 62.3429C122.109 62.1209 121.695 62.0099 121.239 62.0099C120.789 62.0099 120.375 62.1209 119.997 62.3429C119.625 62.5589 119.328 62.8529 119.106 63.2249C118.884 63.5969 118.773 64.0109 118.773 64.4669V69.7319H117.261V60.7319H118.773V61.8569C119.091 61.4369 119.493 61.1039 119.979 60.8579C120.465 60.6059 120.993 60.4799 121.563 60.4799C122.235 60.4799 122.847 60.6449 123.399 60.9749C123.957 61.2989 124.398 61.7369 124.722 62.2889C125.052 62.8409 125.217 63.4559 125.217 64.1339ZM129.762 69.9029C129.276 69.8849 128.802 69.7949 128.34 69.6329C127.884 69.4649 127.482 69.2399 127.134 68.9579C126.792 68.6699 126.543 68.3399 126.387 67.9679L127.683 67.4099C127.773 67.6139 127.935 67.8059 128.169 67.9859C128.403 68.1659 128.673 68.3099 128.979 68.4179C129.285 68.5259 129.594 68.5799 129.906 68.5799C130.236 68.5799 130.545 68.5289 130.833 68.4269C131.121 68.3249 131.355 68.1749 131.535 67.9769C131.721 67.7729 131.814 67.5299 131.814 67.2479C131.814 66.9479 131.712 66.7139 131.508 66.5459C131.31 66.3719 131.058 66.2369 130.752 66.1409C130.452 66.0389 130.146 65.9429 129.834 65.8529C129.216 65.6969 128.664 65.5109 128.178 65.2949C127.692 65.0729 127.308 64.7939 127.026 64.4579C126.75 64.1159 126.612 63.6809 126.612 63.1529C126.612 62.5949 126.765 62.1119 127.071 61.7039C127.383 61.2959 127.791 60.9809 128.295 60.7589C128.799 60.5369 129.339 60.4259 129.915 60.4259C130.641 60.4259 131.304 60.5819 131.904 60.8939C132.504 61.2059 132.951 61.6289 133.245 62.1629L132.03 62.8739C131.928 62.6579 131.772 62.4689 131.562 62.3069C131.352 62.1389 131.112 62.0069 130.842 61.9109C130.572 61.8149 130.296 61.7639 130.014 61.7579C129.666 61.7459 129.339 61.7909 129.033 61.8929C128.733 61.9949 128.49 62.1509 128.304 62.3609C128.124 62.5649 128.034 62.8199 128.034 63.1259C128.034 63.4259 128.13 63.6539 128.322 63.8099C128.52 63.9659 128.775 64.0919 129.087 64.1879C129.405 64.2779 129.75 64.3829 130.122 64.5029C130.668 64.6769 131.178 64.8779 131.652 65.1059C132.126 65.3339 132.507 65.6189 132.795 65.9609C133.089 66.3029 133.233 66.7259 133.227 67.2299C133.227 67.7819 133.062 68.2649 132.732 68.6789C132.402 69.0869 131.973 69.3989 131.445 69.6149C130.923 69.8309 130.362 69.9269 129.762 69.9029ZM139.431 62.2439H137.388L137.379 69.7319H135.867L135.876 62.2439H134.328V60.7319H135.876L135.867 57.9059H137.379L137.388 60.7319H139.431V62.2439ZM148.052 60.7319H149.564V69.7319H148.052L147.989 68.2109C147.707 68.7329 147.317 69.1559 146.819 69.4799C146.327 69.8039 145.739 69.9659 145.055 69.9659C144.395 69.9659 143.777 69.8429 143.201 69.5969C142.625 69.3449 142.115 68.9999 141.671 68.5619C141.233 68.1179 140.891 67.6079 140.645 67.0319C140.399 66.4559 140.276 65.8349 140.276 65.1689C140.276 64.5269 140.396 63.9209 140.636 63.3509C140.876 62.7809 141.209 62.2829 141.635 61.8569C142.067 61.4249 142.565 61.0889 143.129 60.8489C143.693 60.6029 144.299 60.4799 144.947 60.4799C145.655 60.4799 146.276 60.6479 146.81 60.9839C147.344 61.3139 147.776 61.7429 148.106 62.2709L148.052 60.7319ZM145.028 68.4989C145.622 68.4989 146.135 68.3549 146.567 68.0669C147.005 67.7729 147.341 67.3769 147.575 66.8789C147.815 66.3809 147.935 65.8319 147.935 65.2319C147.935 64.6199 147.815 64.0679 147.575 63.5759C147.335 63.0779 146.996 62.6849 146.558 62.3969C146.126 62.1029 145.616 61.9559 145.028 61.9559C144.434 61.9559 143.894 62.1029 143.408 62.3969C142.922 62.6909 142.535 63.0869 142.247 63.5849C141.965 64.0769 141.824 64.6259 141.824 65.2319C141.824 65.8379 141.971 66.3899 142.265 66.8879C142.559 67.3799 142.949 67.7729 143.435 68.0669C143.921 68.3549 144.452 68.4989 145.028 68.4989ZM151.468 69.7319V56.2319H152.98V69.7319H151.468ZM162.29 60.7319H163.802V69.7319H162.29L162.227 68.2109C161.945 68.7329 161.555 69.1559 161.057 69.4799C160.565 69.8039 159.977 69.9659 159.293 69.9659C158.633 69.9659 158.015 69.8429 157.439 69.5969C156.863 69.3449 156.353 68.9999 155.909 68.5619C155.471 68.1179 155.129 67.6079 154.883 67.0319C154.637 66.4559 154.514 65.8349 154.514 65.1689C154.514 64.5269 154.634 63.9209 154.874 63.3509C155.114 62.7809 155.447 62.2829 155.873 61.8569C156.305 61.4249 156.803 61.0889 157.367 60.8489C157.931 60.6029 158.537 60.4799 159.185 60.4799C159.893 60.4799 160.514 60.6479 161.048 60.9839C161.582 61.3139 162.014 61.7429 162.344 62.2709L162.29 60.7319ZM159.266 68.4989C159.86 68.4989 160.373 68.3549 160.805 68.0669C161.243 67.7729 161.579 67.3769 161.813 66.8789C162.053 66.3809 162.173 65.8319 162.173 65.2319C162.173 64.6199 162.053 64.0679 161.813 63.5759C161.573 63.0779 161.234 62.6849 160.796 62.3969C160.364 62.1029 159.854 61.9559 159.266 61.9559C158.672 61.9559 158.132 62.1029 157.646 62.3969C157.16 62.6909 156.773 63.0869 156.485 63.5849C156.203 64.0769 156.062 64.6259 156.062 65.2319C156.062 65.8379 156.209 66.3899 156.503 66.8879C156.797 67.3799 157.187 67.7729 157.673 68.0669C158.159 68.3549 158.69 68.4989 159.266 68.4989ZM170.263 62.2439H168.22L168.211 69.7319H166.699L166.708 62.2439H165.16V60.7319H166.708L166.699 57.9059H168.211L168.22 60.7319H170.263V62.2439ZM175.608 69.9659C174.78 69.9659 174.024 69.7529 173.34 69.3269C172.662 68.9009 172.119 68.3309 171.711 67.6169C171.309 66.8969 171.108 66.1019 171.108 65.2319C171.108 64.5719 171.225 63.9569 171.459 63.3869C171.693 62.8109 172.014 62.3069 172.422 61.8749C172.836 61.4369 173.316 61.0949 173.862 60.8489C174.408 60.6029 174.99 60.4799 175.608 60.4799C176.286 60.4799 176.907 60.6179 177.471 60.8939C178.041 61.1639 178.527 61.5419 178.929 62.0279C179.337 62.5139 179.64 63.0779 179.838 63.7199C180.042 64.3619 180.117 65.0489 180.063 65.7809H172.719C172.791 66.2909 172.959 66.7469 173.223 67.1489C173.487 67.5449 173.823 67.8599 174.231 68.0939C174.645 68.3279 175.104 68.4479 175.608 68.4539C176.148 68.4539 176.637 68.3159 177.075 68.0399C177.513 67.7579 177.867 67.3739 178.137 66.8879L179.676 67.2479C179.316 68.0459 178.773 68.6999 178.047 69.2099C177.321 69.7139 176.508 69.9659 175.608 69.9659ZM172.674 64.5929H178.542C178.494 64.0889 178.332 63.6299 178.056 63.2159C177.78 62.7959 177.429 62.4599 177.003 62.2079C176.577 61.9559 176.112 61.8299 175.608 61.8299C175.104 61.8299 174.642 61.9529 174.222 62.1989C173.802 62.4449 173.454 62.7779 173.178 63.1979C172.908 63.6119 172.74 64.0769 172.674 64.5929ZM188.772 69.9029C188.286 69.8849 187.812 69.7949 187.35 69.6329C186.894 69.4649 186.492 69.2399 186.144 68.9579C185.802 68.6699 185.553 68.3399 185.397 67.9679L186.693 67.4099C186.783 67.6139 186.945 67.8059 187.179 67.9859C187.413 68.1659 187.683 68.3099 187.989 68.4179C188.295 68.5259 188.604 68.5799 188.916 68.5799C189.246 68.5799 189.555 68.5289 189.843 68.4269C190.131 68.3249 190.365 68.1749 190.545 67.9769C190.731 67.7729 190.824 67.5299 190.824 67.2479C190.824 66.9479 190.722 66.7139 190.518 66.5459C190.32 66.3719 190.068 66.2369 189.762 66.1409C189.462 66.0389 189.156 65.9429 188.844 65.8529C188.226 65.6969 187.674 65.5109 187.188 65.2949C186.702 65.0729 186.318 64.7939 186.036 64.4579C185.76 64.1159 185.622 63.6809 185.622 63.1529C185.622 62.5949 185.775 62.1119 186.081 61.7039C186.393 61.2959 186.801 60.9809 187.305 60.7589C187.809 60.5369 188.349 60.4259 188.925 60.4259C189.651 60.4259 190.314 60.5819 190.914 60.8939C191.514 61.2059 191.961 61.6289 192.255 62.1629L191.04 62.8739C190.938 62.6579 190.782 62.4689 190.572 62.3069C190.362 62.1389 190.122 62.0069 189.852 61.9109C189.582 61.8149 189.306 61.7639 189.024 61.7579C188.676 61.7459 188.349 61.7909 188.043 61.8929C187.743 61.9949 187.5 62.1509 187.314 62.3609C187.134 62.5649 187.044 62.8199 187.044 63.1259C187.044 63.4259 187.14 63.6539 187.332 63.8099C187.53 63.9659 187.785 64.0919 188.097 64.1879C188.415 64.2779 188.76 64.3829 189.132 64.5029C189.678 64.6769 190.188 64.8779 190.662 65.1059C191.136 65.3339 191.517 65.6189 191.805 65.9609C192.099 66.3029 192.243 66.7259 192.237 67.2299C192.237 67.7819 192.072 68.2649 191.742 68.6789C191.412 69.0869 190.983 69.3989 190.455 69.6149C189.933 69.8309 189.372 69.9269 188.772 69.9029ZM188.052 73.7009L188.61 70.6589H190.122L189.06 73.7009H188.052ZM193.656 60.7319H195.168V69.7319H193.656V60.7319ZM194.43 59.2649C194.19 59.2649 193.989 59.1869 193.827 59.0309C193.665 58.8749 193.584 58.6799 193.584 58.4459C193.584 58.2119 193.665 58.0169 193.827 57.8609C193.989 57.7049 194.187 57.6269 194.421 57.6269C194.655 57.6269 194.853 57.7049 195.015 57.8609C195.177 58.0169 195.258 58.2119 195.258 58.4459C195.258 58.6799 195.177 58.8749 195.015 59.0309C194.859 59.1869 194.664 59.2649 194.43 59.2649ZM204.399 69.9029C203.913 69.8849 203.439 69.7949 202.977 69.6329C202.521 69.4649 202.119 69.2399 201.771 68.9579C201.429 68.6699 201.18 68.3399 201.024 67.9679L202.32 67.4099C202.41 67.6139 202.572 67.8059 202.806 67.9859C203.04 68.1659 203.31 68.3099 203.616 68.4179C203.922 68.5259 204.231 68.5799 204.543 68.5799C204.873 68.5799 205.182 68.5289 205.47 68.4269C205.758 68.3249 205.992 68.1749 206.172 67.9769C206.358 67.7729 206.451 67.5299 206.451 67.2479C206.451 66.9479 206.349 66.7139 206.145 66.5459C205.947 66.3719 205.695 66.2369 205.389 66.1409C205.089 66.0389 204.783 65.9429 204.471 65.8529C203.853 65.6969 203.301 65.5109 202.815 65.2949C202.329 65.0729 201.945 64.7939 201.663 64.4579C201.387 64.1159 201.249 63.6809 201.249 63.1529C201.249 62.5949 201.402 62.1119 201.708 61.7039C202.02 61.2959 202.428 60.9809 202.932 60.7589C203.436 60.5369 203.976 60.4259 204.552 60.4259C205.278 60.4259 205.941 60.5819 206.541 60.8939C207.141 61.2059 207.588 61.6289 207.882 62.1629L206.667 62.8739C206.565 62.6579 206.409 62.4689 206.199 62.3069C205.989 62.1389 205.749 62.0069 205.479 61.9109C205.209 61.8149 204.933 61.7639 204.651 61.7579C204.303 61.7459 203.976 61.7909 203.67 61.8929C203.37 61.9949 203.127 62.1509 202.941 62.3609C202.761 62.5649 202.671 62.8199 202.671 63.1259C202.671 63.4259 202.767 63.6539 202.959 63.8099C203.157 63.9659 203.412 64.0919 203.724 64.1879C204.042 64.2779 204.387 64.3829 204.759 64.5029C205.305 64.6769 205.815 64.8779 206.289 65.1059C206.763 65.3339 207.144 65.6189 207.432 65.9609C207.726 66.3029 207.87 66.7259 207.864 67.2299C207.864 67.7819 207.699 68.2649 207.369 68.6789C207.039 69.0869 206.61 69.3989 206.082 69.6149C205.56 69.8309 204.999 69.9269 204.399 69.9029ZM214.068 62.2439H212.025L212.016 69.7319H210.504L210.513 62.2439H208.965V60.7319H210.513L210.504 57.9059H212.016L212.025 60.7319H214.068V62.2439ZM222.689 60.7319H224.201V69.7319H222.689L222.626 68.2109C222.344 68.7329 221.954 69.1559 221.456 69.4799C220.964 69.8039 220.376 69.9659 219.692 69.9659C219.032 69.9659 218.414 69.8429 217.838 69.5969C217.262 69.3449 216.752 68.9999 216.308 68.5619C215.87 68.1179 215.528 67.6079 215.282 67.0319C215.036 66.4559 214.913 65.8349 214.913 65.1689C214.913 64.5269 215.033 63.9209 215.273 63.3509C215.513 62.7809 215.846 62.2829 216.272 61.8569C216.704 61.4249 217.202 61.0889 217.766 60.8489C218.33 60.6029 218.936 60.4799 219.584 60.4799C220.292 60.4799 220.913 60.6479 221.447 60.9839C221.981 61.3139 222.413 61.7429 222.743 62.2709L222.689 60.7319ZM219.665 68.4989C220.259 68.4989 220.772 68.3549 221.204 68.0669C221.642 67.7729 221.978 67.3769 222.212 66.8789C222.452 66.3809 222.572 65.8319 222.572 65.2319C222.572 64.6199 222.452 64.0679 222.212 63.5759C221.972 63.0779 221.633 62.6849 221.195 62.3969C220.763 62.1029 220.253 61.9559 219.665 61.9559C219.071 61.9559 218.531 62.1029 218.045 62.3969C217.559 62.6909 217.172 63.0869 216.884 63.5849C216.602 64.0769 216.461 64.6259 216.461 65.2319C216.461 65.8379 216.608 66.3899 216.902 66.8879C217.196 67.3799 217.586 67.7729 218.072 68.0669C218.558 68.3549 219.089 68.4989 219.665 68.4989ZM225.999 69.7319V60.7319H227.511V61.8569C227.829 61.4369 228.231 61.1039 228.717 60.8579C229.203 60.6059 229.731 60.4799 230.301 60.4799C230.649 60.4799 230.985 60.5249 231.309 60.6149L230.697 62.1269C230.451 62.0489 230.211 62.0099 229.977 62.0099C229.527 62.0099 229.113 62.1209 228.735 62.3429C228.363 62.5589 228.066 62.8529 227.844 63.2249C227.622 63.5969 227.511 64.0109 227.511 64.4669V69.7319H225.999ZM235.918 69.9659C235.09 69.9659 234.334 69.7529 233.65 69.3269C232.972 68.9009 232.429 68.3309 232.021 67.6169C231.619 66.8969 231.418 66.1019 231.418 65.2319C231.418 64.5719 231.535 63.9569 231.769 63.3869C232.003 62.8109 232.324 62.3069 232.732 61.8749C233.146 61.4369 233.626 61.0949 234.172 60.8489C234.718 60.6029 235.3 60.4799 235.918 60.4799C236.596 60.4799 237.217 60.6179 237.781 60.8939C238.351 61.1639 238.837 61.5419 239.239 62.0279C239.647 62.5139 239.95 63.0779 240.148 63.7199C240.352 64.3619 240.427 65.0489 240.373 65.7809H233.029C233.101 66.2909 233.269 66.7469 233.533 67.1489C233.797 67.5449 234.133 67.8599 234.541 68.0939C234.955 68.3279 235.414 68.4479 235.918 68.4539C236.458 68.4539 236.947 68.3159 237.385 68.0399C237.823 67.7579 238.177 67.3739 238.447 66.8879L239.986 67.2479C239.626 68.0459 239.083 68.6999 238.357 69.2099C237.631 69.7139 236.818 69.9659 235.918 69.9659ZM232.984 64.5929H238.852C238.804 64.0889 238.642 63.6299 238.366 63.2159C238.09 62.7959 237.739 62.4599 237.313 62.2079C236.887 61.9559 236.422 61.8299 235.918 61.8299C235.414 61.8299 234.952 61.9529 234.532 62.1989C234.112 62.4449 233.764 62.7779 233.488 63.1979C233.218 63.6119 233.05 64.0769 232.984 64.5929ZM249.073 60.7319H250.585V69.7319H249.073L249.01 68.2109C248.728 68.7329 248.338 69.1559 247.84 69.4799C247.348 69.8039 246.76 69.9659 246.076 69.9659C245.416 69.9659 244.798 69.8429 244.222 69.5969C243.646 69.3449 243.136 68.9999 242.692 68.5619C242.254 68.1179 241.912 67.6079 241.666 67.0319C241.42 66.4559 241.297 65.8349 241.297 65.1689C241.297 64.5269 241.417 63.9209 241.657 63.3509C241.897 62.7809 242.23 62.2829 242.656 61.8569C243.088 61.4249 243.586 61.0889 244.15 60.8489C244.714 60.6029 245.32 60.4799 245.968 60.4799C246.676 60.4799 247.297 60.6479 247.831 60.9839C248.365 61.3139 248.797 61.7429 249.127 62.2709L249.073 60.7319ZM246.049 68.4989C246.643 68.4989 247.156 68.3549 247.588 68.0669C248.026 67.7729 248.362 67.3769 248.596 66.8789C248.836 66.3809 248.956 65.8319 248.956 65.2319C248.956 64.6199 248.836 64.0679 248.596 63.5759C248.356 63.0779 248.017 62.6849 247.579 62.3969C247.147 62.1029 246.637 61.9559 246.049 61.9559C245.455 61.9559 244.915 62.1029 244.429 62.3969C243.943 62.6909 243.556 63.0869 243.268 63.5849C242.986 64.0769 242.845 64.6259 242.845 65.2319C242.845 65.8379 242.992 66.3899 243.286 66.8879C243.58 67.3799 243.97 67.7729 244.456 68.0669C244.942 68.3549 245.473 68.4989 246.049 68.4989ZM258.751 58.5089V60.7319H261.388V62.2439H258.751V69.7319H257.239V62.2439H256.078V60.7319H257.239V58.5089C257.239 58.0469 257.35 57.6299 257.572 57.2579C257.8 56.8799 258.103 56.5799 258.481 56.3579C258.865 56.1299 259.285 56.0159 259.741 56.0159C260.077 56.0159 260.404 56.0849 260.722 56.2229C261.04 56.3549 261.322 56.5529 261.568 56.8169L260.488 57.8879C260.404 57.7739 260.293 57.6869 260.155 57.6269C260.023 57.5609 259.885 57.5279 259.741 57.5279C259.471 57.5279 259.237 57.6239 259.039 57.8159C258.847 58.0079 258.751 58.2389 258.751 58.5089ZM262.773 60.7319H264.285V69.7319H262.773V60.7319ZM263.547 59.2649C263.307 59.2649 263.106 59.1869 262.944 59.0309C262.782 58.8749 262.701 58.6799 262.701 58.4459C262.701 58.2119 262.782 58.0169 262.944 57.8609C263.106 57.7049 263.304 57.6269 263.538 57.6269C263.772 57.6269 263.97 57.7049 264.132 57.8609C264.294 58.0169 264.375 58.2119 264.375 58.4459C264.375 58.6799 264.294 58.8749 264.132 59.0309C263.976 59.1869 263.781 59.2649 263.547 59.2649ZM270.284 69.9659C269.456 69.9659 268.7 69.7529 268.016 69.3269C267.338 68.9009 266.795 68.3309 266.387 67.6169C265.985 66.8969 265.784 66.1019 265.784 65.2319C265.784 64.5719 265.901 63.9569 266.135 63.3869C266.369 62.8109 266.69 62.3069 267.098 61.8749C267.512 61.4369 267.992 61.0949 268.538 60.8489C269.084 60.6029 269.666 60.4799 270.284 60.4799C270.962 60.4799 271.583 60.6179 272.147 60.8939C272.717 61.1639 273.203 61.5419 273.605 62.0279C274.013 62.5139 274.316 63.0779 274.514 63.7199C274.718 64.3619 274.793 65.0489 274.739 65.7809H267.395C267.467 66.2909 267.635 66.7469 267.899 67.1489C268.163 67.5449 268.499 67.8599 268.907 68.0939C269.321 68.3279 269.78 68.4479 270.284 68.4539C270.824 68.4539 271.313 68.3159 271.751 68.0399C272.189 67.7579 272.543 67.3739 272.813 66.8879L274.352 67.2479C273.992 68.0459 273.449 68.6999 272.723 69.2099C271.997 69.7139 271.184 69.9659 270.284 69.9659ZM267.35 64.5929H273.218C273.17 64.0889 273.008 63.6299 272.732 63.2159C272.456 62.7959 272.105 62.4599 271.679 62.2079C271.253 61.9559 270.788 61.8299 270.284 61.8299C269.78 61.8299 269.318 61.9529 268.898 62.1989C268.478 62.4449 268.13 62.7779 267.854 63.1979C267.584 63.6119 267.416 64.0769 267.35 64.5929ZM282.404 67.3559L283.754 68.0849C283.346 68.6549 282.827 69.1109 282.197 69.4529C281.573 69.7949 280.895 69.9659 280.163 69.9659C279.335 69.9659 278.579 69.7529 277.895 69.3269C277.217 68.9009 276.674 68.3309 276.266 67.6169C275.864 66.8969 275.663 66.1019 275.663 65.2319C275.663 64.5719 275.78 63.9569 276.014 63.3869C276.248 62.8109 276.569 62.3069 276.977 61.8749C277.391 61.4369 277.871 61.0949 278.417 60.8489C278.963 60.6029 279.545 60.4799 280.163 60.4799C280.895 60.4799 281.573 60.6509 282.197 60.9929C282.827 61.3349 283.346 61.7939 283.754 62.3699L282.404 63.0989C282.116 62.7449 281.774 62.4719 281.378 62.2799C280.982 62.0879 280.577 61.9919 280.163 61.9919C279.605 61.9919 279.098 62.1419 278.642 62.4419C278.192 62.7359 277.835 63.1289 277.571 63.6209C277.307 64.1129 277.175 64.6499 277.175 65.2319C277.175 65.8139 277.307 66.3509 277.571 66.8429C277.841 67.3289 278.201 67.7189 278.651 68.0129C279.107 68.3069 279.611 68.4539 280.163 68.4539C280.607 68.4539 281.024 68.3519 281.414 68.1479C281.804 67.9439 282.134 67.6799 282.404 67.3559ZM292.456 60.7319H293.968V69.7319H292.456L292.393 68.2109C292.111 68.7329 291.721 69.1559 291.223 69.4799C290.731 69.8039 290.143 69.9659 289.459 69.9659C288.799 69.9659 288.181 69.8429 287.605 69.5969C287.029 69.3449 286.519 68.9999 286.075 68.5619C285.637 68.1179 285.295 67.6079 285.049 67.0319C284.803 66.4559 284.68 65.8349 284.68 65.1689C284.68 64.5269 284.8 63.9209 285.04 63.3509C285.28 62.7809 285.613 62.2829 286.039 61.8569C286.471 61.4249 286.969 61.0889 287.533 60.8489C288.097 60.6029 288.703 60.4799 289.351 60.4799C290.059 60.4799 290.68 60.6479 291.214 60.9839C291.748 61.3139 292.18 61.7429 292.51 62.2709L292.456 60.7319ZM289.432 68.4989C290.026 68.4989 290.539 68.3549 290.971 68.0669C291.409 67.7729 291.745 67.3769 291.979 66.8789C292.219 66.3809 292.339 65.8319 292.339 65.2319C292.339 64.6199 292.219 64.0679 291.979 63.5759C291.739 63.0779 291.4 62.6849 290.962 62.3969C290.53 62.1029 290.02 61.9559 289.432 61.9559C288.838 61.9559 288.298 62.1029 287.812 62.3969C287.326 62.6909 286.939 63.0869 286.651 63.5849C286.369 64.0769 286.228 64.6259 286.228 65.2319C286.228 65.8379 286.375 66.3899 286.669 66.8879C286.963 67.3799 287.353 67.7729 287.839 68.0669C288.325 68.3549 288.856 68.4989 289.432 68.4989ZM289.549 59.9399C289.003 59.9399 288.502 59.8049 288.046 59.5349C287.596 59.2649 287.236 58.9049 286.966 58.4549C286.696 57.9989 286.561 57.4979 286.561 56.9519H287.587C287.587 57.3179 287.677 57.6509 287.857 57.9509C288.043 58.2449 288.283 58.4789 288.577 58.6529C288.877 58.8269 289.201 58.9139 289.549 58.9139C289.909 58.9139 290.236 58.8269 290.53 58.6529C290.83 58.4789 291.067 58.2419 291.241 57.9419C291.421 57.6419 291.511 57.3119 291.511 56.9519H292.537C292.537 57.5099 292.399 58.0169 292.123 58.4729C291.853 58.9229 291.49 59.2799 291.034 59.5439C290.584 59.8079 290.089 59.9399 289.549 59.9399ZM295.767 69.7319V60.7319H297.279V61.8569C297.597 61.4369 297.999 61.1039 298.485 60.8579C298.971 60.6059 299.499 60.4799 300.069 60.4799C300.417 60.4799 300.753 60.5249 301.077 60.6149L300.465 62.1269C300.219 62.0489 299.979 62.0099 299.745 62.0099C299.295 62.0099 298.881 62.1209 298.503 62.3429C298.131 62.5589 297.834 62.8529 297.612 63.2249C297.39 63.5969 297.279 64.0109 297.279 64.4669V69.7319H295.767ZM305.686 69.9659C304.858 69.9659 304.102 69.7529 303.418 69.3269C302.74 68.9009 302.197 68.3309 301.789 67.6169C301.387 66.8969 301.186 66.1019 301.186 65.2319C301.186 64.5719 301.303 63.9569 301.537 63.3869C301.771 62.8109 302.092 62.3069 302.5 61.8749C302.914 61.4369 303.394 61.0949 303.94 60.8489C304.486 60.6029 305.068 60.4799 305.686 60.4799C306.364 60.4799 306.985 60.6179 307.549 60.8939C308.119 61.1639 308.605 61.5419 309.007 62.0279C309.415 62.5139 309.718 63.0779 309.916 63.7199C310.12 64.3619 310.195 65.0489 310.141 65.7809H302.797C302.869 66.2909 303.037 66.7469 303.301 67.1489C303.565 67.5449 303.901 67.8599 304.309 68.0939C304.723 68.3279 305.182 68.4479 305.686 68.4539C306.226 68.4539 306.715 68.3159 307.153 68.0399C307.591 67.7579 307.945 67.3739 308.215 66.8879L309.754 67.2479C309.394 68.0459 308.851 68.6999 308.125 69.2099C307.399 69.7139 306.586 69.9659 305.686 69.9659ZM302.752 64.5929H308.62C308.572 64.0889 308.41 63.6299 308.134 63.2159C307.858 62.7959 307.507 62.4599 307.081 62.2079C306.655 61.9559 306.19 61.8299 305.686 61.8299C305.182 61.8299 304.72 61.9529 304.3 62.1989C303.88 62.4449 303.532 62.7779 303.256 63.1979C302.986 63.6119 302.818 64.0769 302.752 64.5929ZM311.535 60.7319H313.047V69.7319H311.535V60.7319ZM312.309 59.2649C312.069 59.2649 311.868 59.1869 311.706 59.0309C311.544 58.8749 311.463 58.6799 311.463 58.4459C311.463 58.2119 311.544 58.0169 311.706 57.8609C311.868 57.7049 312.066 57.6269 312.3 57.6269C312.534 57.6269 312.732 57.7049 312.894 57.8609C313.056 58.0169 313.137 58.2119 313.137 58.4459C313.137 58.6799 313.056 58.8749 312.894 59.0309C312.738 59.1869 312.543 59.2649 312.309 59.2649ZM322.321 60.7319H323.833V69.7319H322.321L322.258 68.2109C321.976 68.7329 321.586 69.1559 321.088 69.4799C320.596 69.8039 320.008 69.9659 319.324 69.9659C318.664 69.9659 318.046 69.8429 317.47 69.5969C316.894 69.3449 316.384 68.9999 315.94 68.5619C315.502 68.1179 315.16 67.6079 314.914 67.0319C314.668 66.4559 314.545 65.8349 314.545 65.1689C314.545 64.5269 314.665 63.9209 314.905 63.3509C315.145 62.7809 315.478 62.2829 315.904 61.8569C316.336 61.4249 316.834 61.0889 317.398 60.8489C317.962 60.6029 318.568 60.4799 319.216 60.4799C319.924 60.4799 320.545 60.6479 321.079 60.9839C321.613 61.3139 322.045 61.7429 322.375 62.2709L322.321 60.7319ZM319.297 68.4989C319.891 68.4989 320.404 68.3549 320.836 68.0669C321.274 67.7729 321.61 67.3769 321.844 66.8789C322.084 66.3809 322.204 65.8319 322.204 65.2319C322.204 64.6199 322.084 64.0679 321.844 63.5759C321.604 63.0779 321.265 62.6849 320.827 62.3969C320.395 62.1029 319.885 61.9559 319.297 61.9559C318.703 61.9559 318.163 62.1029 317.677 62.3969C317.191 62.6909 316.804 63.0869 316.516 63.5849C316.234 64.0769 316.093 64.6259 316.093 65.2319C316.093 65.8379 316.24 66.3899 316.534 66.8879C316.828 67.3799 317.218 67.7729 317.704 68.0669C318.19 68.3549 318.721 68.4989 319.297 68.4989ZM326.091 69.9659C325.863 69.9659 325.668 69.8849 325.506 69.7229C325.35 69.5609 325.272 69.3629 325.272 69.1289C325.272 68.9069 325.35 68.7149 325.506 68.5529C325.668 68.3909 325.863 68.3099 326.091 68.3099C326.325 68.3099 326.523 68.3909 326.685 68.5529C326.847 68.7149 326.928 68.9069 326.928 69.1289C326.928 69.3629 326.847 69.5609 326.685 69.7229C326.523 69.8849 326.325 69.9659 326.091 69.9659Z" fill="#37455B"/>
</g>
<defs>
<filter id="filter0_dd_6852_17588" x="0.541464" y="0.346342" width="424.917" height="120.38" filterUnits="userSpaceOnUse" color-interpolation-filters="sRGB">
<feFlood flood-opacity="0" result="BackgroundImageFix"/>
<feColorMatrix in="SourceAlpha" type="matrix" values="0 0 0 0 0 0 0 0 0 0 0 0 0 0 0 0 0 0 127 0" result="hardAlpha"/>
<feMorphology radius="3.12195" operator="erode" in="SourceAlpha" result="effect1_dropShadow_6852_17588"/>
<feOffset dy="3.12195"/>
<feGaussianBlur stdDeviation="2.34146"/>
<feComposite in2="hardAlpha" operator="out"/>
<feColorMatrix type="matrix" values="0 0 0 0 0 0 0 0 0 0 0 0 0 0 0 0 0 0 0.1 0"/>
<feBlend mode="normal" in2="BackgroundImageFix" result="effect1_dropShadow_6852_17588"/>
<feColorMatrix in="SourceAlpha" type="matrix" values="0 0 0 0 0 0 0 0 0 0 0 0 0 0 0 0 0 0 127 0" result="hardAlpha"/>
<feMorphology radius="2.34146" operator="erode" in="SourceAlpha" result="effect2_dropShadow_6852_17588"/>
<feOffset dy="7.80488"/>
<feGaussianBlur stdDeviation="10.9"/>
<feComposite in2="hardAlpha" operator="out"/>
<feColorMatrix type="matrix" values="0 0 0 0 0 0 0 0 0 0 0 0 0 0 0 0 0 0 0.25 0"/>
<feBlend mode="normal" in2="effect1_dropShadow_6852_17588" result="effect2_dropShadow_6852_17588"/>
<feBlend mode="normal" in="SourceGraphic" in2="effect2_dropShadow_6852_17588" result="shape"/>
</filter>
</defs>
</svg>
