<svg width="426" height="121" viewBox="0 0 426 121" fill="none" xmlns="http://www.w3.org/2000/svg">
<g filter="url(#filter0_dd_6852_17592)">
<rect x="20" y="12" width="386" height="81.4634" rx="12" fill="white"/>
<rect x="20.3902" y="12.3902" width="385.22" height="80.6829" rx="11.6098" stroke="#E2E8F0" stroke-width="0.780488"/>
<path d="M40.0819 47.7319V35.1319H41.5939V47.7319H40.0819ZM51.1878 34.2319H52.6998V47.7319H51.1878V46.2019C50.8818 46.7299 50.4708 47.1559 49.9548 47.4799C49.4388 47.8039 48.8328 47.9659 48.1368 47.9659C47.4828 47.9659 46.8708 47.8429 46.3008 47.5969C45.7308 47.3509 45.2268 47.0119 44.7888 46.5799C44.3568 46.1419 44.0178 45.6379 43.7718 45.0679C43.5258 44.4979 43.4028 43.8859 43.4028 43.2319C43.4028 42.5779 43.5258 41.9659 43.7718 41.3959C44.0178 40.8199 44.3568 40.3159 44.7888 39.8839C45.2268 39.4459 45.7308 39.1039 46.3008 38.8579C46.8708 38.6119 47.4828 38.4889 48.1368 38.4889C48.8328 38.4889 49.4388 38.6509 49.9548 38.9749C50.4708 39.2989 50.8818 39.7249 51.1878 40.2529V34.2319ZM48.1548 46.4989C48.7488 46.4989 49.2618 46.3549 49.6938 46.0669C50.1318 45.7729 50.4678 45.3769 50.7018 44.8789C50.9418 44.3809 51.0618 43.8319 51.0618 43.2319C51.0618 42.6199 50.9418 42.0679 50.7018 41.5759C50.4618 41.0779 50.1228 40.6849 49.6848 40.3969C49.2528 40.1029 48.7428 39.9559 48.1548 39.9559C47.5608 39.9559 47.0208 40.1029 46.5348 40.3969C46.0548 40.6909 45.6708 41.0869 45.3828 41.5849C45.0948 42.0769 44.9508 42.6259 44.9508 43.2319C44.9508 43.8379 45.0978 44.3899 45.3918 44.8879C45.6858 45.3799 46.0758 45.7729 46.5618 46.0669C47.0478 46.3549 47.5788 46.4989 48.1548 46.4989ZM58.7309 47.9659C57.9029 47.9659 57.1469 47.7529 56.4629 47.3269C55.7849 46.9009 55.2419 46.3309 54.8339 45.6169C54.4319 44.8969 54.2309 44.1019 54.2309 43.2319C54.2309 42.5719 54.3479 41.9569 54.5819 41.3869C54.8159 40.8109 55.1369 40.3069 55.5449 39.8749C55.9589 39.4369 56.4389 39.0949 56.9849 38.8489C57.5309 38.6029 58.1129 38.4799 58.7309 38.4799C59.4089 38.4799 60.0299 38.6179 60.5939 38.8939C61.1639 39.1639 61.6499 39.5419 62.0519 40.0279C62.4599 40.5139 62.7629 41.0779 62.9609 41.7199C63.1649 42.3619 63.2399 43.0489 63.1859 43.7809H55.8419C55.9139 44.2909 56.0819 44.7469 56.3459 45.1489C56.6099 45.5449 56.9459 45.8599 57.3539 46.0939C57.7679 46.3279 58.2269 46.4479 58.7309 46.4539C59.2709 46.4539 59.7599 46.3159 60.1979 46.0399C60.6359 45.7579 60.9899 45.3739 61.2599 44.8879L62.7989 45.2479C62.4389 46.0459 61.8959 46.6999 61.1699 47.2099C60.4439 47.7139 59.6309 47.9659 58.7309 47.9659ZM55.7969 42.5929H61.6649C61.6169 42.0889 61.4549 41.6299 61.1789 41.2159C60.9029 40.7959 60.5519 40.4599 60.1259 40.2079C59.6999 39.9559 59.2349 39.8299 58.7309 39.8299C58.2269 39.8299 57.7649 39.9529 57.3449 40.1989C56.9249 40.4449 56.5769 40.7779 56.3009 41.1979C56.0309 41.6119 55.8629 42.0769 55.7969 42.5929ZM72.6586 42.1339V47.7319H71.1466V42.4669C71.1466 42.0109 71.0356 41.5969 70.8136 41.2249C70.5916 40.8529 70.2946 40.5589 69.9226 40.3429C69.5506 40.1209 69.1366 40.0099 68.6806 40.0099C68.2306 40.0099 67.8166 40.1209 67.4386 40.3429C67.0666 40.5589 66.7696 40.8529 66.5476 41.2249C66.3256 41.5969 66.2146 42.0109 66.2146 42.4669V47.7319H64.7026V38.7319H66.2146V39.8569C66.5326 39.4369 66.9346 39.1039 67.4206 38.8579C67.9066 38.6059 68.4346 38.4799 69.0046 38.4799C69.6766 38.4799 70.2886 38.6449 70.8406 38.9749C71.3986 39.2989 71.8396 39.7369 72.1636 40.2889C72.4936 40.8409 72.6586 41.4559 72.6586 42.1339ZM79.1204 40.2439H77.0774L77.0684 47.7319H75.5564L75.5654 40.2439H74.0174V38.7319H75.5654L75.5564 35.9059H77.0684L77.0774 38.7319H79.1204V40.2439ZM80.6459 38.7319H82.1579V47.7319H80.6459V38.7319ZM81.4199 37.2649C81.1799 37.2649 80.9789 37.1869 80.8169 37.0309C80.6549 36.8749 80.5739 36.6799 80.5739 36.4459C80.5739 36.2119 80.6549 36.0169 80.8169 35.8609C80.9789 35.7049 81.1769 35.6269 81.4109 35.6269C81.6449 35.6269 81.8429 35.7049 82.0049 35.8609C82.1669 36.0169 82.2479 36.2119 82.2479 36.4459C82.2479 36.6799 82.1669 36.8749 82.0049 37.0309C81.8489 37.1869 81.6539 37.2649 81.4199 37.2649ZM86.3627 36.5089V38.7319H88.9997V40.2439H86.3627V47.7319H84.8507V40.2439H83.6897V38.7319H84.8507V36.5089C84.8507 36.0469 84.9617 35.6299 85.1837 35.2579C85.4117 34.8799 85.7147 34.5799 86.0927 34.3579C86.4767 34.1299 86.8967 34.0159 87.3527 34.0159C87.6887 34.0159 88.0157 34.0849 88.3337 34.2229C88.6517 34.3549 88.9337 34.5529 89.1797 34.8169L88.0997 35.8879C88.0157 35.7739 87.9047 35.6869 87.7667 35.6269C87.6347 35.5609 87.4967 35.5279 87.3527 35.5279C87.0827 35.5279 86.8487 35.6239 86.6507 35.8159C86.4587 36.0079 86.3627 36.2389 86.3627 36.5089ZM90.3842 38.7319H91.8962V47.7319H90.3842V38.7319ZM91.1582 37.2649C90.9182 37.2649 90.7172 37.1869 90.5552 37.0309C90.3932 36.8749 90.3122 36.6799 90.3122 36.4459C90.3122 36.2119 90.3932 36.0169 90.5552 35.8609C90.7172 35.7049 90.9152 35.6269 91.1492 35.6269C91.3832 35.6269 91.5812 35.7049 91.7432 35.8609C91.9052 36.0169 91.9862 36.2119 91.9862 36.4459C91.9862 36.6799 91.9052 36.8749 91.7432 37.0309C91.5872 37.1869 91.3922 37.2649 91.1582 37.2649ZM100.136 45.3559L101.486 46.0849C101.078 46.6549 100.559 47.1109 99.929 47.4529C99.305 47.7949 98.627 47.9659 97.895 47.9659C97.067 47.9659 96.311 47.7529 95.627 47.3269C94.949 46.9009 94.406 46.3309 93.998 45.6169C93.596 44.8969 93.395 44.1019 93.395 43.2319C93.395 42.5719 93.512 41.9569 93.746 41.3869C93.98 40.8109 94.301 40.3069 94.709 39.8749C95.123 39.4369 95.603 39.0949 96.149 38.8489C96.695 38.6029 97.277 38.4799 97.895 38.4799C98.627 38.4799 99.305 38.6509 99.929 38.9929C100.559 39.3349 101.078 39.7939 101.486 40.3699L100.136 41.0989C99.848 40.7449 99.506 40.4719 99.11 40.2799C98.714 40.0879 98.309 39.9919 97.895 39.9919C97.337 39.9919 96.83 40.1419 96.374 40.4419C95.924 40.7359 95.567 41.1289 95.303 41.6209C95.039 42.1129 94.907 42.6499 94.907 43.2319C94.907 43.8139 95.039 44.3509 95.303 44.8429C95.573 45.3289 95.933 45.7189 96.383 46.0129C96.839 46.3069 97.343 46.4539 97.895 46.4539C98.339 46.4539 98.756 46.3519 99.146 46.1479C99.536 45.9439 99.866 45.6799 100.136 45.3559ZM110.189 38.7319H111.701V47.7319H110.189L110.126 46.2109C109.844 46.7329 109.454 47.1559 108.956 47.4799C108.464 47.8039 107.876 47.9659 107.192 47.9659C106.532 47.9659 105.914 47.8429 105.338 47.5969C104.762 47.3449 104.252 46.9999 103.808 46.5619C103.37 46.1179 103.028 45.6079 102.782 45.0319C102.536 44.4559 102.413 43.8349 102.413 43.1689C102.413 42.5269 102.533 41.9209 102.773 41.3509C103.013 40.7809 103.346 40.2829 103.772 39.8569C104.204 39.4249 104.702 39.0889 105.266 38.8489C105.83 38.6029 106.436 38.4799 107.084 38.4799C107.792 38.4799 108.413 38.6479 108.947 38.9839C109.481 39.3139 109.913 39.7429 110.243 40.2709L110.189 38.7319ZM107.165 46.4989C107.759 46.4989 108.272 46.3549 108.704 46.0669C109.142 45.7729 109.478 45.3769 109.712 44.8789C109.952 44.3809 110.072 43.8319 110.072 43.2319C110.072 42.6199 109.952 42.0679 109.712 41.5759C109.472 41.0779 109.133 40.6849 108.695 40.3969C108.263 40.1029 107.753 39.9559 107.165 39.9559C106.571 39.9559 106.031 40.1029 105.545 40.3969C105.059 40.6909 104.672 41.0869 104.384 41.5849C104.102 42.0769 103.961 42.6259 103.961 43.2319C103.961 43.8379 104.108 44.3899 104.402 44.8879C104.696 45.3799 105.086 45.7729 105.572 46.0669C106.058 46.3549 106.589 46.4989 107.165 46.4989ZM107.282 37.9399C106.736 37.9399 106.235 37.8049 105.779 37.5349C105.329 37.2649 104.969 36.9049 104.699 36.4549C104.429 35.9989 104.294 35.4979 104.294 34.9519H105.32C105.32 35.3179 105.41 35.6509 105.59 35.9509C105.776 36.2449 106.016 36.4789 106.31 36.6529C106.61 36.8269 106.934 36.9139 107.282 36.9139C107.642 36.9139 107.969 36.8269 108.263 36.6529C108.563 36.4789 108.8 36.2419 108.974 35.9419C109.154 35.6419 109.244 35.3119 109.244 34.9519H110.27C110.27 35.5099 110.132 36.0169 109.856 36.4729C109.586 36.9229 109.223 37.2799 108.767 37.5439C108.317 37.8079 107.822 37.9399 107.282 37.9399ZM117.824 47.7319V38.7319H119.336V39.8569C119.654 39.4369 120.056 39.1039 120.542 38.8579C121.028 38.6059 121.556 38.4799 122.126 38.4799C122.474 38.4799 122.81 38.5249 123.134 38.6149L122.522 40.1269C122.276 40.0489 122.036 40.0099 121.802 40.0099C121.352 40.0099 120.938 40.1209 120.56 40.3429C120.188 40.5589 119.891 40.8529 119.669 41.2249C119.447 41.5969 119.336 42.0109 119.336 42.4669V47.7319H117.824ZM131.019 38.7319H132.531V47.7319H131.019L130.956 46.2109C130.674 46.7329 130.284 47.1559 129.786 47.4799C129.294 47.8039 128.706 47.9659 128.022 47.9659C127.362 47.9659 126.744 47.8429 126.168 47.5969C125.592 47.3449 125.082 46.9999 124.638 46.5619C124.2 46.1179 123.858 45.6079 123.612 45.0319C123.366 44.4559 123.243 43.8349 123.243 43.1689C123.243 42.5269 123.363 41.9209 123.603 41.3509C123.843 40.7809 124.176 40.2829 124.602 39.8569C125.034 39.4249 125.532 39.0889 126.096 38.8489C126.66 38.6029 127.266 38.4799 127.914 38.4799C128.622 38.4799 129.243 38.6479 129.777 38.9839C130.311 39.3139 130.743 39.7429 131.073 40.2709L131.019 38.7319ZM127.995 46.4989C128.589 46.4989 129.102 46.3549 129.534 46.0669C129.972 45.7729 130.308 45.3769 130.542 44.8789C130.782 44.3809 130.902 43.8319 130.902 43.2319C130.902 42.6199 130.782 42.0679 130.542 41.5759C130.302 41.0779 129.963 40.6849 129.525 40.3969C129.093 40.1029 128.583 39.9559 127.995 39.9559C127.401 39.9559 126.861 40.1029 126.375 40.3969C125.889 40.6909 125.502 41.0869 125.214 41.5849C124.932 42.0769 124.791 42.6259 124.791 43.2319C124.791 43.8379 124.938 44.3899 125.232 44.8879C125.526 45.3799 125.916 45.7729 126.402 46.0669C126.888 46.3549 127.419 46.4989 127.995 46.4989ZM135.842 52.2319H134.33V38.7319H135.842V40.2709C136.148 39.7429 136.556 39.3169 137.066 38.9929C137.576 38.6629 138.182 38.4979 138.884 38.4979C139.538 38.4979 140.15 38.6209 140.72 38.8669C141.296 39.1129 141.8 39.4549 142.232 39.8929C142.664 40.3249 143.003 40.8259 143.249 41.3959C143.495 41.9659 143.618 42.5779 143.618 43.2319C143.618 43.8859 143.495 44.5009 143.249 45.0769C143.003 45.6529 142.664 46.1599 142.232 46.5979C141.8 47.0299 141.296 47.3689 140.72 47.6149C140.15 47.8609 139.538 47.9839 138.884 47.9839C138.182 47.9839 137.576 47.8219 137.066 47.4979C136.556 47.1679 136.148 46.7389 135.842 46.2109V52.2319ZM138.866 39.9649C138.284 39.9649 137.774 40.1119 137.336 40.4059C136.898 40.6999 136.559 41.0929 136.319 41.5849C136.085 42.0769 135.968 42.6259 135.968 43.2319C135.968 43.8319 136.085 44.3809 136.319 44.8789C136.559 45.3769 136.895 45.7729 137.327 46.0669C137.765 46.3609 138.278 46.5079 138.866 46.5079C139.448 46.5079 139.982 46.3639 140.468 46.0759C140.954 45.7819 141.344 45.3889 141.638 44.8969C141.932 44.3989 142.079 43.8439 142.079 43.2319C142.079 42.6319 141.935 42.0859 141.647 41.5939C141.359 41.0959 140.972 40.6999 140.486 40.4059C140 40.1119 139.46 39.9649 138.866 39.9649ZM144.999 38.7319H146.511V47.7319H144.999V38.7319ZM145.773 37.2649C145.533 37.2649 145.332 37.1869 145.17 37.0309C145.008 36.8749 144.927 36.6799 144.927 36.4459C144.927 36.2119 145.008 36.0169 145.17 35.8609C145.332 35.7049 145.53 35.6269 145.764 35.6269C145.998 35.6269 146.196 35.7049 146.358 35.8609C146.52 36.0169 146.601 36.2119 146.601 36.4459C146.601 36.6799 146.52 36.8749 146.358 37.0309C146.202 37.1869 146.007 37.2649 145.773 37.2649ZM155.795 34.2319H157.307V47.7319H155.795V46.2019C155.489 46.7299 155.078 47.1559 154.562 47.4799C154.046 47.8039 153.44 47.9659 152.744 47.9659C152.09 47.9659 151.478 47.8429 150.908 47.5969C150.338 47.3509 149.834 47.0119 149.396 46.5799C148.964 46.1419 148.625 45.6379 148.379 45.0679C148.133 44.4979 148.01 43.8859 148.01 43.2319C148.01 42.5779 148.133 41.9659 148.379 41.3959C148.625 40.8199 148.964 40.3159 149.396 39.8839C149.834 39.4459 150.338 39.1039 150.908 38.8579C151.478 38.6119 152.09 38.4889 152.744 38.4889C153.44 38.4889 154.046 38.6509 154.562 38.9749C155.078 39.2989 155.489 39.7249 155.795 40.2529V34.2319ZM152.762 46.4989C153.356 46.4989 153.869 46.3549 154.301 46.0669C154.739 45.7729 155.075 45.3769 155.309 44.8789C155.549 44.3809 155.669 43.8319 155.669 43.2319C155.669 42.6199 155.549 42.0679 155.309 41.5759C155.069 41.0779 154.73 40.6849 154.292 40.3969C153.86 40.1029 153.35 39.9559 152.762 39.9559C152.168 39.9559 151.628 40.1029 151.142 40.3969C150.662 40.6909 150.278 41.0869 149.99 41.5849C149.702 42.0769 149.558 42.6259 149.558 43.2319C149.558 43.8379 149.705 44.3899 149.999 44.8879C150.293 45.3799 150.683 45.7729 151.169 46.0669C151.655 46.3549 152.186 46.4989 152.762 46.4989ZM169.991 45.3559L171.341 46.0849C170.933 46.6549 170.414 47.1109 169.784 47.4529C169.16 47.7949 168.482 47.9659 167.75 47.9659C166.922 47.9659 166.166 47.7529 165.482 47.3269C164.804 46.9009 164.261 46.3309 163.853 45.6169C163.451 44.8969 163.25 44.1019 163.25 43.2319C163.25 42.5719 163.367 41.9569 163.601 41.3869C163.835 40.8109 164.156 40.3069 164.564 39.8749C164.978 39.4369 165.458 39.0949 166.004 38.8489C166.55 38.6029 167.132 38.4799 167.75 38.4799C168.482 38.4799 169.16 38.6509 169.784 38.9929C170.414 39.3349 170.933 39.7939 171.341 40.3699L169.991 41.0989C169.703 40.7449 169.361 40.4719 168.965 40.2799C168.569 40.0879 168.164 39.9919 167.75 39.9919C167.192 39.9919 166.685 40.1419 166.229 40.4419C165.779 40.7359 165.422 41.1289 165.158 41.6209C164.894 42.1129 164.762 42.6499 164.762 43.2319C164.762 43.8139 164.894 44.3509 165.158 44.8429C165.428 45.3289 165.788 45.7189 166.238 46.0129C166.694 46.3069 167.198 46.4539 167.75 46.4539C168.194 46.4539 168.611 46.3519 169.001 46.1479C169.391 45.9439 169.721 45.6799 169.991 45.3559ZM180.044 38.7319H181.556V47.7319H180.044L179.981 46.2109C179.699 46.7329 179.309 47.1559 178.811 47.4799C178.319 47.8039 177.731 47.9659 177.047 47.9659C176.387 47.9659 175.769 47.8429 175.193 47.5969C174.617 47.3449 174.107 46.9999 173.663 46.5619C173.225 46.1179 172.883 45.6079 172.637 45.0319C172.391 44.4559 172.268 43.8349 172.268 43.1689C172.268 42.5269 172.388 41.9209 172.628 41.3509C172.868 40.7809 173.201 40.2829 173.627 39.8569C174.059 39.4249 174.557 39.0889 175.121 38.8489C175.685 38.6029 176.291 38.4799 176.939 38.4799C177.647 38.4799 178.268 38.6479 178.802 38.9839C179.336 39.3139 179.768 39.7429 180.098 40.2709L180.044 38.7319ZM177.02 46.4989C177.614 46.4989 178.127 46.3549 178.559 46.0669C178.997 45.7729 179.333 45.3769 179.567 44.8789C179.807 44.3809 179.927 43.8319 179.927 43.2319C179.927 42.6199 179.807 42.0679 179.567 41.5759C179.327 41.0779 178.988 40.6849 178.55 40.3969C178.118 40.1029 177.608 39.9559 177.02 39.9559C176.426 39.9559 175.886 40.1029 175.4 40.3969C174.914 40.6909 174.527 41.0869 174.239 41.5849C173.957 42.0769 173.816 42.6259 173.816 43.2319C173.816 43.8379 173.963 44.3899 174.257 44.8879C174.551 45.3799 174.941 45.7729 175.427 46.0669C175.913 46.3549 176.444 46.4989 177.02 46.4989ZM184.867 52.2319H183.355V38.7319H184.867V40.2709C185.173 39.7429 185.581 39.3169 186.091 38.9929C186.601 38.6629 187.207 38.4979 187.909 38.4979C188.563 38.4979 189.175 38.6209 189.745 38.8669C190.321 39.1129 190.825 39.4549 191.257 39.8929C191.689 40.3249 192.028 40.8259 192.274 41.3959C192.52 41.9659 192.643 42.5779 192.643 43.2319C192.643 43.8859 192.52 44.5009 192.274 45.0769C192.028 45.6529 191.689 46.1599 191.257 46.5979C190.825 47.0299 190.321 47.3689 189.745 47.6149C189.175 47.8609 188.563 47.9839 187.909 47.9839C187.207 47.9839 186.601 47.8219 186.091 47.4979C185.581 47.1679 185.173 46.7389 184.867 46.2109V52.2319ZM187.891 39.9649C187.309 39.9649 186.799 40.1119 186.361 40.4059C185.923 40.6999 185.584 41.0929 185.344 41.5849C185.11 42.0769 184.993 42.6259 184.993 43.2319C184.993 43.8319 185.11 44.3809 185.344 44.8789C185.584 45.3769 185.92 45.7729 186.352 46.0669C186.79 46.3609 187.303 46.5079 187.891 46.5079C188.473 46.5079 189.007 46.3639 189.493 46.0759C189.979 45.7819 190.369 45.3889 190.663 44.8969C190.957 44.3989 191.104 43.8439 191.104 43.2319C191.104 42.6319 190.96 42.0859 190.672 41.5939C190.384 41.0959 189.997 40.6999 189.511 40.4059C189.025 40.1119 188.485 39.9649 187.891 39.9649ZM200.296 45.3559L201.646 46.0849C201.238 46.6549 200.719 47.1109 200.089 47.4529C199.465 47.7949 198.787 47.9659 198.055 47.9659C197.227 47.9659 196.471 47.7529 195.787 47.3269C195.109 46.9009 194.566 46.3309 194.158 45.6169C193.756 44.8969 193.555 44.1019 193.555 43.2319C193.555 42.5719 193.672 41.9569 193.906 41.3869C194.14 40.8109 194.461 40.3069 194.869 39.8749C195.283 39.4369 195.763 39.0949 196.309 38.8489C196.855 38.6029 197.437 38.4799 198.055 38.4799C198.787 38.4799 199.465 38.6509 200.089 38.9929C200.719 39.3349 201.238 39.7939 201.646 40.3699L200.296 41.0989C200.008 40.7449 199.666 40.4719 199.27 40.2799C198.874 40.0879 198.469 39.9919 198.055 39.9919C197.497 39.9919 196.99 40.1419 196.534 40.4419C196.084 40.7359 195.727 41.1289 195.463 41.6209C195.199 42.1129 195.067 42.6499 195.067 43.2319C195.067 43.8139 195.199 44.3509 195.463 44.8429C195.733 45.3289 196.093 45.7189 196.543 46.0129C196.999 46.3069 197.503 46.4539 198.055 46.4539C198.499 46.4539 198.916 46.3519 199.306 46.1479C199.696 45.9439 200.026 45.6799 200.296 45.3559ZM210.349 38.7319H211.861V47.7319H210.349L210.286 46.2109C210.004 46.7329 209.614 47.1559 209.116 47.4799C208.624 47.8039 208.036 47.9659 207.352 47.9659C206.692 47.9659 206.074 47.8429 205.498 47.5969C204.922 47.3449 204.412 46.9999 203.968 46.5619C203.53 46.1179 203.188 45.6079 202.942 45.0319C202.696 44.4559 202.573 43.8349 202.573 43.1689C202.573 42.5269 202.693 41.9209 202.933 41.3509C203.173 40.7809 203.506 40.2829 203.932 39.8569C204.364 39.4249 204.862 39.0889 205.426 38.8489C205.99 38.6029 206.596 38.4799 207.244 38.4799C207.952 38.4799 208.573 38.6479 209.107 38.9839C209.641 39.3139 210.073 39.7429 210.403 40.2709L210.349 38.7319ZM207.325 46.4989C207.919 46.4989 208.432 46.3549 208.864 46.0669C209.302 45.7729 209.638 45.3769 209.872 44.8789C210.112 44.3809 210.232 43.8319 210.232 43.2319C210.232 42.6199 210.112 42.0679 209.872 41.5759C209.632 41.0779 209.293 40.6849 208.855 40.3969C208.423 40.1029 207.913 39.9559 207.325 39.9559C206.731 39.9559 206.191 40.1029 205.705 40.3969C205.219 40.6909 204.832 41.0869 204.544 41.5849C204.262 42.0769 204.121 42.6259 204.121 43.2319C204.121 43.8379 204.268 44.3899 204.562 44.8879C204.856 45.3799 205.246 45.7729 205.732 46.0669C206.218 46.3549 206.749 46.4989 207.325 46.4989ZM221.616 42.1339V47.7319H220.104V42.4669C220.104 42.0109 219.993 41.5969 219.771 41.2249C219.549 40.8529 219.252 40.5589 218.88 40.3429C218.508 40.1209 218.094 40.0099 217.638 40.0099C217.188 40.0099 216.774 40.1209 216.396 40.3429C216.024 40.5589 215.727 40.8529 215.505 41.2249C215.283 41.5969 215.172 42.0109 215.172 42.4669V47.7319H213.66V38.7319H215.172V39.8569C215.49 39.4369 215.892 39.1039 216.378 38.8579C216.864 38.6059 217.392 38.4799 217.962 38.4799C218.634 38.4799 219.246 38.6449 219.798 38.9749C220.356 39.2989 220.797 39.7369 221.121 40.2889C221.451 40.8409 221.616 41.4559 221.616 42.1339ZM227.2 47.9659C226.372 47.9659 225.616 47.7529 224.932 47.3269C224.254 46.9009 223.711 46.3309 223.303 45.6169C222.901 44.8969 222.7 44.1019 222.7 43.2319C222.7 42.5719 222.817 41.9569 223.051 41.3869C223.285 40.8109 223.606 40.3069 224.014 39.8749C224.428 39.4369 224.908 39.0949 225.454 38.8489C226 38.6029 226.582 38.4799 227.2 38.4799C227.878 38.4799 228.499 38.6179 229.063 38.8939C229.633 39.1639 230.119 39.5419 230.521 40.0279C230.929 40.5139 231.232 41.0779 231.43 41.7199C231.634 42.3619 231.709 43.0489 231.655 43.7809H224.311C224.383 44.2909 224.551 44.7469 224.815 45.1489C225.079 45.5449 225.415 45.8599 225.823 46.0939C226.237 46.3279 226.696 46.4479 227.2 46.4539C227.74 46.4539 228.229 46.3159 228.667 46.0399C229.105 45.7579 229.459 45.3739 229.729 44.8879L231.268 45.2479C230.908 46.0459 230.365 46.6999 229.639 47.2099C228.913 47.7139 228.1 47.9659 227.2 47.9659ZM224.266 42.5929H230.134C230.086 42.0889 229.924 41.6299 229.648 41.2159C229.372 40.7959 229.021 40.4599 228.595 40.2079C228.169 39.9559 227.704 39.8299 227.2 39.8299C226.696 39.8299 226.234 39.9529 225.814 40.1989C225.394 40.4449 225.046 40.7779 224.77 41.1979C224.5 41.6119 224.332 42.0769 224.266 42.5929ZM233.083 47.7319V34.2319H234.595V47.7319H233.083ZM240.629 47.9659C239.801 47.9659 239.045 47.7529 238.361 47.3269C237.683 46.9009 237.14 46.3309 236.732 45.6169C236.33 44.8969 236.129 44.1019 236.129 43.2319C236.129 42.5719 236.246 41.9569 236.48 41.3869C236.714 40.8109 237.035 40.3069 237.443 39.8749C237.857 39.4369 238.337 39.0949 238.883 38.8489C239.429 38.6029 240.011 38.4799 240.629 38.4799C241.307 38.4799 241.928 38.6179 242.492 38.8939C243.062 39.1639 243.548 39.5419 243.95 40.0279C244.358 40.5139 244.661 41.0779 244.859 41.7199C245.063 42.3619 245.138 43.0489 245.084 43.7809H237.74C237.812 44.2909 237.98 44.7469 238.244 45.1489C238.508 45.5449 238.844 45.8599 239.252 46.0939C239.666 46.3279 240.125 46.4479 240.629 46.4539C241.169 46.4539 241.658 46.3159 242.096 46.0399C242.534 45.7579 242.888 45.3739 243.158 44.8879L244.697 45.2479C244.337 46.0459 243.794 46.6999 243.068 47.2099C242.342 47.7139 241.529 47.9659 240.629 47.9659ZM237.695 42.5929H243.563C243.515 42.0889 243.353 41.6299 243.077 41.2159C242.801 40.7959 242.45 40.4599 242.024 40.2079C241.598 39.9559 241.133 39.8299 240.629 39.8299C240.125 39.8299 239.663 39.9529 239.243 40.1989C238.823 40.4449 238.475 40.7779 238.199 41.1979C237.929 41.6119 237.761 42.0769 237.695 42.5929ZM255.728 47.7319H253.793L250.508 38.7139H252.119L254.756 45.9769L257.393 38.7139H259.004L255.728 47.7319ZM264.079 47.9659C263.251 47.9659 262.495 47.7529 261.811 47.3269C261.133 46.9009 260.59 46.3309 260.182 45.6169C259.78 44.8969 259.579 44.1019 259.579 43.2319C259.579 42.5719 259.696 41.9569 259.93 41.3869C260.164 40.8109 260.485 40.3069 260.893 39.8749C261.307 39.4369 261.787 39.0949 262.333 38.8489C262.879 38.6029 263.461 38.4799 264.079 38.4799C264.757 38.4799 265.378 38.6179 265.942 38.8939C266.512 39.1639 266.998 39.5419 267.4 40.0279C267.808 40.5139 268.111 41.0779 268.309 41.7199C268.513 42.3619 268.588 43.0489 268.534 43.7809H261.19C261.262 44.2909 261.43 44.7469 261.694 45.1489C261.958 45.5449 262.294 45.8599 262.702 46.0939C263.116 46.3279 263.575 46.4479 264.079 46.4539C264.619 46.4539 265.108 46.3159 265.546 46.0399C265.984 45.7579 266.338 45.3739 266.608 44.8879L268.147 45.2479C267.787 46.0459 267.244 46.6999 266.518 47.2099C265.792 47.7139 264.979 47.9659 264.079 47.9659ZM261.145 42.5929H267.013C266.965 42.0889 266.803 41.6299 266.527 41.2159C266.251 40.7959 265.9 40.4599 265.474 40.2079C265.048 39.9559 264.583 39.8299 264.079 39.8299C263.575 39.8299 263.113 39.9529 262.693 40.1989C262.273 40.4449 261.925 40.7779 261.649 41.1979C261.379 41.6119 261.211 42.0769 261.145 42.5929ZM270.05 47.7319V38.7319H271.562V39.8569C271.88 39.4369 272.282 39.1039 272.768 38.8579C273.254 38.6059 273.782 38.4799 274.352 38.4799C274.7 38.4799 275.036 38.5249 275.36 38.6149L274.748 40.1269C274.502 40.0489 274.262 40.0099 274.028 40.0099C273.578 40.0099 273.164 40.1209 272.786 40.3429C272.414 40.5589 272.117 40.8529 271.895 41.2249C271.673 41.5969 271.562 42.0109 271.562 42.4669V47.7319H270.05ZM276.466 38.7319H277.978V47.7319H276.466V38.7319ZM277.24 37.2649C277 37.2649 276.799 37.1869 276.637 37.0309C276.475 36.8749 276.394 36.6799 276.394 36.4459C276.394 36.2119 276.475 36.0169 276.637 35.8609C276.799 35.7049 276.997 35.6269 277.231 35.6269C277.465 35.6269 277.663 35.7049 277.825 35.8609C277.987 36.0169 278.068 36.2119 278.068 36.4459C278.068 36.6799 277.987 36.8749 277.825 37.0309C277.669 37.1869 277.474 37.2649 277.24 37.2649ZM282.183 36.5089V38.7319H284.82V40.2439H282.183V47.7319H280.671V40.2439H279.51V38.7319H280.671V36.5089C280.671 36.0469 280.782 35.6299 281.004 35.2579C281.232 34.8799 281.535 34.5799 281.913 34.3579C282.297 34.1299 282.717 34.0159 283.173 34.0159C283.509 34.0159 283.836 34.0849 284.154 34.2229C284.472 34.3549 284.754 34.5529 285 34.8169L283.92 35.8879C283.836 35.7739 283.725 35.6869 283.587 35.6269C283.455 35.5609 283.317 35.5279 283.173 35.5279C282.903 35.5279 282.669 35.6239 282.471 35.8159C282.279 36.0079 282.183 36.2389 282.183 36.5089ZM286.205 38.7319H287.717V47.7319H286.205V38.7319ZM286.979 37.2649C286.739 37.2649 286.538 37.1869 286.376 37.0309C286.214 36.8749 286.133 36.6799 286.133 36.4459C286.133 36.2119 286.214 36.0169 286.376 35.8609C286.538 35.7049 286.736 35.6269 286.97 35.6269C287.204 35.6269 287.402 35.7049 287.564 35.8609C287.726 36.0169 287.807 36.2119 287.807 36.4459C287.807 36.6799 287.726 36.8749 287.564 37.0309C287.408 37.1869 287.213 37.2649 286.979 37.2649ZM295.956 45.3559L297.306 46.0849C296.898 46.6549 296.379 47.1109 295.749 47.4529C295.125 47.7949 294.447 47.9659 293.715 47.9659C292.887 47.9659 292.131 47.7529 291.447 47.3269C290.769 46.9009 290.226 46.3309 289.818 45.6169C289.416 44.8969 289.215 44.1019 289.215 43.2319C289.215 42.5719 289.332 41.9569 289.566 41.3869C289.8 40.8109 290.121 40.3069 290.529 39.8749C290.943 39.4369 291.423 39.0949 291.969 38.8489C292.515 38.6029 293.097 38.4799 293.715 38.4799C294.447 38.4799 295.125 38.6509 295.749 38.9929C296.379 39.3349 296.898 39.7939 297.306 40.3699L295.956 41.0989C295.668 40.7449 295.326 40.4719 294.93 40.2799C294.534 40.0879 294.129 39.9919 293.715 39.9919C293.157 39.9919 292.65 40.1419 292.194 40.4419C291.744 40.7359 291.387 41.1289 291.123 41.6209C290.859 42.1129 290.727 42.6499 290.727 43.2319C290.727 43.8139 290.859 44.3509 291.123 44.8429C291.393 45.3289 291.753 45.7189 292.203 46.0129C292.659 46.3069 293.163 46.4539 293.715 46.4539C294.159 46.4539 294.576 46.3519 294.966 46.1479C295.356 45.9439 295.686 45.6799 295.956 45.3559ZM306.009 38.7319H307.521V47.7319H306.009L305.946 46.2109C305.664 46.7329 305.274 47.1559 304.776 47.4799C304.284 47.8039 303.696 47.9659 303.012 47.9659C302.352 47.9659 301.734 47.8429 301.158 47.5969C300.582 47.3449 300.072 46.9999 299.628 46.5619C299.19 46.1179 298.848 45.6079 298.602 45.0319C298.356 44.4559 298.233 43.8349 298.233 43.1689C298.233 42.5269 298.353 41.9209 298.593 41.3509C298.833 40.7809 299.166 40.2829 299.592 39.8569C300.024 39.4249 300.522 39.0889 301.086 38.8489C301.65 38.6029 302.256 38.4799 302.904 38.4799C303.612 38.4799 304.233 38.6479 304.767 38.9839C305.301 39.3139 305.733 39.7429 306.063 40.2709L306.009 38.7319ZM302.985 46.4989C303.579 46.4989 304.092 46.3549 304.524 46.0669C304.962 45.7729 305.298 45.3769 305.532 44.8789C305.772 44.3809 305.892 43.8319 305.892 43.2319C305.892 42.6199 305.772 42.0679 305.532 41.5759C305.292 41.0779 304.953 40.6849 304.515 40.3969C304.083 40.1029 303.573 39.9559 302.985 39.9559C302.391 39.9559 301.851 40.1029 301.365 40.3969C300.879 40.6909 300.492 41.0869 300.204 41.5849C299.922 42.0769 299.781 42.6259 299.781 43.2319C299.781 43.8379 299.928 44.3899 300.222 44.8879C300.516 45.3799 300.906 45.7729 301.392 46.0669C301.878 46.3549 302.409 46.4989 302.985 46.4989ZM313.982 40.2439H311.939L311.93 47.7319H310.418L310.427 40.2439H308.879V38.7319H310.427L310.418 35.9059H311.93L311.939 38.7319H313.982V40.2439ZM319.327 47.9659C318.499 47.9659 317.743 47.7529 317.059 47.3269C316.381 46.9009 315.838 46.3309 315.43 45.6169C315.028 44.8969 314.827 44.1019 314.827 43.2319C314.827 42.5719 314.944 41.9569 315.178 41.3869C315.412 40.8109 315.733 40.3069 316.141 39.8749C316.555 39.4369 317.035 39.0949 317.581 38.8489C318.127 38.6029 318.709 38.4799 319.327 38.4799C320.005 38.4799 320.626 38.6179 321.19 38.8939C321.76 39.1639 322.246 39.5419 322.648 40.0279C323.056 40.5139 323.359 41.0779 323.557 41.7199C323.761 42.3619 323.836 43.0489 323.782 43.7809H316.438C316.51 44.2909 316.678 44.7469 316.942 45.1489C317.206 45.5449 317.542 45.8599 317.95 46.0939C318.364 46.3279 318.823 46.4479 319.327 46.4539C319.867 46.4539 320.356 46.3159 320.794 46.0399C321.232 45.7579 321.586 45.3739 321.856 44.8879L323.395 45.2479C323.035 46.0459 322.492 46.6999 321.766 47.2099C321.04 47.7139 320.227 47.9659 319.327 47.9659ZM316.393 42.5929H322.261C322.213 42.0889 322.051 41.6299 321.775 41.2159C321.499 40.7959 321.148 40.4599 320.722 40.2079C320.296 39.9559 319.831 39.8299 319.327 39.8299C318.823 39.8299 318.361 39.9529 317.941 40.1989C317.521 40.4449 317.173 40.7779 316.897 41.1979C316.627 41.6119 316.459 42.0769 316.393 42.5929ZM332.491 47.9029C332.005 47.8849 331.531 47.7949 331.069 47.6329C330.613 47.4649 330.211 47.2399 329.863 46.9579C329.521 46.6699 329.272 46.3399 329.116 45.9679L330.412 45.4099C330.502 45.6139 330.664 45.8059 330.898 45.9859C331.132 46.1659 331.402 46.3099 331.708 46.4179C332.014 46.5259 332.323 46.5799 332.635 46.5799C332.965 46.5799 333.274 46.5289 333.562 46.4269C333.85 46.3249 334.084 46.1749 334.264 45.9769C334.45 45.7729 334.543 45.5299 334.543 45.2479C334.543 44.9479 334.441 44.7139 334.237 44.5459C334.039 44.3719 333.787 44.2369 333.481 44.1409C333.181 44.0389 332.875 43.9429 332.563 43.8529C331.945 43.6969 331.393 43.5109 330.907 43.2949C330.421 43.0729 330.037 42.7939 329.755 42.4579C329.479 42.1159 329.341 41.6809 329.341 41.1529C329.341 40.5949 329.494 40.1119 329.8 39.7039C330.112 39.2959 330.52 38.9809 331.024 38.7589C331.528 38.5369 332.068 38.4259 332.644 38.4259C333.37 38.4259 334.033 38.5819 334.633 38.8939C335.233 39.2059 335.68 39.6289 335.974 40.1629L334.759 40.8739C334.657 40.6579 334.501 40.4689 334.291 40.3069C334.081 40.1389 333.841 40.0069 333.571 39.9109C333.301 39.8149 333.025 39.7639 332.743 39.7579C332.395 39.7459 332.068 39.7909 331.762 39.8929C331.462 39.9949 331.219 40.1509 331.033 40.3609C330.853 40.5649 330.763 40.8199 330.763 41.1259C330.763 41.4259 330.859 41.6539 331.051 41.8099C331.249 41.9659 331.504 42.0919 331.816 42.1879C332.134 42.2779 332.479 42.3829 332.851 42.5029C333.397 42.6769 333.907 42.8779 334.381 43.1059C334.855 43.3339 335.236 43.6189 335.524 43.9609C335.818 44.3029 335.962 44.7259 335.956 45.2299C335.956 45.7819 335.791 46.2649 335.461 46.6789C335.131 47.0869 334.702 47.3989 334.174 47.6149C333.652 47.8309 333.091 47.9269 332.491 47.9029ZM331.771 51.7009L332.329 48.6589H333.841L332.779 51.7009H331.771ZM337.374 38.7319H338.886V47.7319H337.374V38.7319ZM338.148 37.2649C337.908 37.2649 337.707 37.1869 337.545 37.0309C337.383 36.8749 337.302 36.6799 337.302 36.4459C337.302 36.2119 337.383 36.0169 337.545 35.8609C337.707 35.7049 337.905 35.6269 338.139 35.6269C338.373 35.6269 338.571 35.7049 338.733 35.8609C338.895 36.0169 338.976 36.2119 338.976 36.4459C338.976 36.6799 338.895 36.8749 338.733 37.0309C338.577 37.1869 338.382 37.2649 338.148 37.2649ZM47.7679 64.1339V69.7319H46.2559V64.4669C46.2559 64.0109 46.1449 63.5969 45.9229 63.2249C45.7009 62.8529 45.4039 62.5589 45.0319 62.3429C44.6599 62.1209 44.2459 62.0099 43.7899 62.0099C43.3399 62.0099 42.9259 62.1209 42.5479 62.3429C42.1759 62.5589 41.8789 62.8529 41.6569 63.2249C41.4349 63.5969 41.3239 64.0109 41.3239 64.4669V69.7319H39.8119V60.7319H41.3239V61.8569C41.6419 61.4369 42.0439 61.1039 42.5299 60.8579C43.0159 60.6059 43.5439 60.4799 44.1139 60.4799C44.7859 60.4799 45.3979 60.6449 45.9499 60.9749C46.5079 61.2989 46.9489 61.7369 47.2729 62.2889C47.6029 62.8409 47.7679 63.4559 47.7679 64.1339ZM53.352 69.9659C52.524 69.9659 51.768 69.7529 51.084 69.3269C50.406 68.9009 49.863 68.3309 49.455 67.6169C49.053 66.8969 48.852 66.1019 48.852 65.2319C48.852 64.5719 48.969 63.9569 49.203 63.3869C49.437 62.8109 49.758 62.3069 50.166 61.8749C50.58 61.4369 51.06 61.0949 51.606 60.8489C52.152 60.6029 52.734 60.4799 53.352 60.4799C54.03 60.4799 54.651 60.6179 55.215 60.8939C55.785 61.1639 56.271 61.5419 56.673 62.0279C57.081 62.5139 57.384 63.0779 57.582 63.7199C57.786 64.3619 57.861 65.0489 57.807 65.7809H50.463C50.535 66.2909 50.703 66.7469 50.967 67.1489C51.231 67.5449 51.567 67.8599 51.975 68.0939C52.389 68.3279 52.848 68.4479 53.352 68.4539C53.892 68.4539 54.381 68.3159 54.819 68.0399C55.257 67.7579 55.611 67.3739 55.881 66.8879L57.42 67.2479C57.06 68.0459 56.517 68.6999 55.791 69.2099C55.065 69.7139 54.252 69.9659 53.352 69.9659ZM50.418 64.5929H56.286C56.238 64.0889 56.076 63.6299 55.8 63.2159C55.524 62.7959 55.173 62.4599 54.747 62.2079C54.321 61.9559 53.856 61.8299 53.352 61.8299C52.848 61.8299 52.386 61.9529 51.966 62.1989C51.546 62.4449 51.198 62.7779 50.922 63.1979C50.652 63.6119 50.484 64.0769 50.418 64.5929ZM63.6169 69.7319H61.6819L58.3969 60.7139H60.0079L62.6449 67.9769L65.2819 60.7139H66.8929L63.6169 69.7319ZM71.9672 69.9659C71.1392 69.9659 70.3832 69.7529 69.6992 69.3269C69.0212 68.9009 68.4782 68.3309 68.0702 67.6169C67.6682 66.8969 67.4672 66.1019 67.4672 65.2319C67.4672 64.5719 67.5842 63.9569 67.8182 63.3869C68.0522 62.8109 68.3732 62.3069 68.7812 61.8749C69.1952 61.4369 69.6752 61.0949 70.2212 60.8489C70.7672 60.6029 71.3492 60.4799 71.9672 60.4799C72.6452 60.4799 73.2662 60.6179 73.8302 60.8939C74.4002 61.1639 74.8862 61.5419 75.2882 62.0279C75.6962 62.5139 75.9992 63.0779 76.1972 63.7199C76.4012 64.3619 76.4762 65.0489 76.4222 65.7809H69.0782C69.1502 66.2909 69.3182 66.7469 69.5822 67.1489C69.8462 67.5449 70.1822 67.8599 70.5902 68.0939C71.0042 68.3279 71.4632 68.4479 71.9672 68.4539C72.5072 68.4539 72.9962 68.3159 73.4342 68.0399C73.8722 67.7579 74.2262 67.3739 74.4962 66.8879L76.0352 67.2479C75.6752 68.0459 75.1322 68.6999 74.4062 69.2099C73.6802 69.7139 72.8672 69.9659 71.9672 69.9659ZM69.0332 64.5929H74.9012C74.8532 64.0889 74.6912 63.6299 74.4152 63.2159C74.1392 62.7959 73.7882 62.4599 73.3622 62.2079C72.9362 61.9559 72.4712 61.8299 71.9672 61.8299C71.4632 61.8299 71.0012 61.9529 70.5812 62.1989C70.1612 62.4449 69.8132 62.7779 69.5372 63.1979C69.2672 63.6119 69.0992 64.0769 69.0332 64.5929ZM77.9389 69.7319V60.7319H79.4509V61.8569C79.7689 61.4369 80.1709 61.1039 80.6569 60.8579C81.1429 60.6059 81.6709 60.4799 82.2409 60.4799C82.5889 60.4799 82.9249 60.5249 83.2489 60.6149L82.6369 62.1269C82.3909 62.0489 82.1509 62.0099 81.9169 62.0099C81.4669 62.0099 81.0529 62.1209 80.6749 62.3429C80.3029 62.5589 80.0059 62.8529 79.7839 63.2249C79.5619 63.5969 79.4509 64.0109 79.4509 64.4669V69.7319H77.9389ZM84.3549 60.7319H85.8669V69.7319H84.3549V60.7319ZM85.1289 59.2649C84.8889 59.2649 84.6879 59.1869 84.5259 59.0309C84.3639 58.8749 84.2829 58.6799 84.2829 58.4459C84.2829 58.2119 84.3639 58.0169 84.5259 57.8609C84.6879 57.7049 84.8859 57.6269 85.1199 57.6269C85.3539 57.6269 85.5519 57.7049 85.7139 57.8609C85.8759 58.0169 85.9569 58.2119 85.9569 58.4459C85.9569 58.6799 85.8759 58.8749 85.7139 59.0309C85.5579 59.1869 85.3629 59.2649 85.1289 59.2649ZM90.0717 58.5089V60.7319H92.7087V62.2439H90.0717V69.7319H88.5597V62.2439H87.3987V60.7319H88.5597V58.5089C88.5597 58.0469 88.6707 57.6299 88.8927 57.2579C89.1207 56.8799 89.4237 56.5799 89.8017 56.3579C90.1857 56.1299 90.6057 56.0159 91.0617 56.0159C91.3977 56.0159 91.7247 56.0849 92.0427 56.2229C92.3607 56.3549 92.6427 56.5529 92.8887 56.8169L91.8087 57.8879C91.7247 57.7739 91.6137 57.6869 91.4757 57.6269C91.3437 57.5609 91.2057 57.5279 91.0617 57.5279C90.7917 57.5279 90.5577 57.6239 90.3597 57.8159C90.1677 58.0079 90.0717 58.2389 90.0717 58.5089ZM94.0932 60.7319H95.6052V69.7319H94.0932V60.7319ZM94.8672 59.2649C94.6272 59.2649 94.4262 59.1869 94.2642 59.0309C94.1022 58.8749 94.0212 58.6799 94.0212 58.4459C94.0212 58.2119 94.1022 58.0169 94.2642 57.8609C94.4262 57.7049 94.6242 57.6269 94.8582 57.6269C95.0922 57.6269 95.2902 57.7049 95.4522 57.8609C95.6142 58.0169 95.6952 58.2119 95.6952 58.4459C95.6952 58.6799 95.6142 58.8749 95.4522 59.0309C95.2962 59.1869 95.1012 59.2649 94.8672 59.2649ZM103.845 67.3559L105.195 68.0849C104.787 68.6549 104.268 69.1109 103.638 69.4529C103.014 69.7949 102.336 69.9659 101.604 69.9659C100.776 69.9659 100.02 69.7529 99.336 69.3269C98.658 68.9009 98.115 68.3309 97.707 67.6169C97.305 66.8969 97.104 66.1019 97.104 65.2319C97.104 64.5719 97.221 63.9569 97.455 63.3869C97.689 62.8109 98.01 62.3069 98.418 61.8749C98.832 61.4369 99.312 61.0949 99.858 60.8489C100.404 60.6029 100.986 60.4799 101.604 60.4799C102.336 60.4799 103.014 60.6509 103.638 60.9929C104.268 61.3349 104.787 61.7939 105.195 62.3699L103.845 63.0989C103.557 62.7449 103.215 62.4719 102.819 62.2799C102.423 62.0879 102.018 61.9919 101.604 61.9919C101.046 61.9919 100.539 62.1419 100.083 62.4419C99.633 62.7359 99.276 63.1289 99.012 63.6209C98.748 64.1129 98.616 64.6499 98.616 65.2319C98.616 65.8139 98.748 66.3509 99.012 66.8429C99.282 67.3289 99.642 67.7189 100.092 68.0129C100.548 68.3069 101.052 68.4539 101.604 68.4539C102.048 68.4539 102.465 68.3519 102.855 68.1479C103.245 67.9439 103.575 67.6799 103.845 67.3559ZM113.898 60.7319H115.41V69.7319H113.898L113.835 68.2109C113.553 68.7329 113.163 69.1559 112.665 69.4799C112.173 69.8039 111.585 69.9659 110.901 69.9659C110.241 69.9659 109.623 69.8429 109.047 69.5969C108.471 69.3449 107.961 68.9999 107.517 68.5619C107.079 68.1179 106.737 67.6079 106.491 67.0319C106.245 66.4559 106.122 65.8349 106.122 65.1689C106.122 64.5269 106.242 63.9209 106.482 63.3509C106.722 62.7809 107.055 62.2829 107.481 61.8569C107.913 61.4249 108.411 61.0889 108.975 60.8489C109.539 60.6029 110.145 60.4799 110.793 60.4799C111.501 60.4799 112.122 60.6479 112.656 60.9839C113.19 61.3139 113.622 61.7429 113.952 62.2709L113.898 60.7319ZM110.874 68.4989C111.468 68.4989 111.981 68.3549 112.413 68.0669C112.851 67.7729 113.187 67.3769 113.421 66.8789C113.661 66.3809 113.781 65.8319 113.781 65.2319C113.781 64.6199 113.661 64.0679 113.421 63.5759C113.181 63.0779 112.842 62.6849 112.404 62.3969C111.972 62.1029 111.462 61.9559 110.874 61.9559C110.28 61.9559 109.74 62.1029 109.254 62.3969C108.768 62.6909 108.381 63.0869 108.093 63.5849C107.811 64.0769 107.67 64.6259 107.67 65.2319C107.67 65.8379 107.817 66.3899 108.111 66.8879C108.405 67.3799 108.795 67.7729 109.281 68.0669C109.767 68.3549 110.298 68.4989 110.874 68.4989ZM121.87 62.2439H119.827L119.818 69.7319H118.306L118.315 62.2439H116.767V60.7319H118.315L118.306 57.9059H119.818L119.827 60.7319H121.87V62.2439ZM127.215 69.9659C126.387 69.9659 125.631 69.7529 124.947 69.3269C124.269 68.9009 123.726 68.3309 123.318 67.6169C122.916 66.8969 122.715 66.1019 122.715 65.2319C122.715 64.5719 122.832 63.9569 123.066 63.3869C123.3 62.8109 123.621 62.3069 124.029 61.8749C124.443 61.4369 124.923 61.0949 125.469 60.8489C126.015 60.6029 126.597 60.4799 127.215 60.4799C127.893 60.4799 128.514 60.6179 129.078 60.8939C129.648 61.1639 130.134 61.5419 130.536 62.0279C130.944 62.5139 131.247 63.0779 131.445 63.7199C131.649 64.3619 131.724 65.0489 131.67 65.7809H124.326C124.398 66.2909 124.566 66.7469 124.83 67.1489C125.094 67.5449 125.43 67.8599 125.838 68.0939C126.252 68.3279 126.711 68.4479 127.215 68.4539C127.755 68.4539 128.244 68.3159 128.682 68.0399C129.12 67.7579 129.474 67.3739 129.744 66.8879L131.283 67.2479C130.923 68.0459 130.38 68.6999 129.654 69.2099C128.928 69.7139 128.115 69.9659 127.215 69.9659ZM124.281 64.5929H130.149C130.101 64.0889 129.939 63.6299 129.663 63.2159C129.387 62.7959 129.036 62.4599 128.61 62.2079C128.184 61.9559 127.719 61.8299 127.215 61.8299C126.711 61.8299 126.249 61.9529 125.829 62.1989C125.409 62.4449 125.061 62.7779 124.785 63.1979C124.515 63.6119 124.347 64.0769 124.281 64.5929ZM139.146 74.2319H137.634V60.7319H139.146V62.2709C139.452 61.7429 139.86 61.3169 140.37 60.9929C140.88 60.6629 141.486 60.4979 142.188 60.4979C142.842 60.4979 143.454 60.6209 144.024 60.8669C144.6 61.1129 145.104 61.4549 145.536 61.8929C145.968 62.3249 146.307 62.8259 146.553 63.3959C146.799 63.9659 146.922 64.5779 146.922 65.2319C146.922 65.8859 146.799 66.5009 146.553 67.0769C146.307 67.6529 145.968 68.1599 145.536 68.5979C145.104 69.0299 144.6 69.3689 144.024 69.6149C143.454 69.8609 142.842 69.9839 142.188 69.9839C141.486 69.9839 140.88 69.8219 140.37 69.4979C139.86 69.1679 139.452 68.7389 139.146 68.2109V74.2319ZM142.17 61.9649C141.588 61.9649 141.078 62.1119 140.64 62.4059C140.202 62.6999 139.863 63.0929 139.623 63.5849C139.389 64.0769 139.272 64.6259 139.272 65.2319C139.272 65.8319 139.389 66.3809 139.623 66.8789C139.863 67.3769 140.199 67.7729 140.631 68.0669C141.069 68.3609 141.582 68.5079 142.17 68.5079C142.752 68.5079 143.286 68.3639 143.772 68.0759C144.258 67.7819 144.648 67.3889 144.942 66.8969C145.236 66.3989 145.383 65.8439 145.383 65.2319C145.383 64.6319 145.239 64.0859 144.951 63.5939C144.663 63.0959 144.276 62.6999 143.79 62.4059C143.304 62.1119 142.764 61.9649 142.17 61.9649ZM152.334 69.9659C151.506 69.9659 150.75 69.7529 150.066 69.3269C149.388 68.9009 148.845 68.3309 148.437 67.6169C148.035 66.8969 147.834 66.1019 147.834 65.2319C147.834 64.5719 147.951 63.9569 148.185 63.3869C148.419 62.8109 148.74 62.3069 149.148 61.8749C149.562 61.4369 150.042 61.0949 150.588 60.8489C151.134 60.6029 151.716 60.4799 152.334 60.4799C153.012 60.4799 153.633 60.6179 154.197 60.8939C154.767 61.1639 155.253 61.5419 155.655 62.0279C156.063 62.5139 156.366 63.0779 156.564 63.7199C156.768 64.3619 156.843 65.0489 156.789 65.7809H149.445C149.517 66.2909 149.685 66.7469 149.949 67.1489C150.213 67.5449 150.549 67.8599 150.957 68.0939C151.371 68.3279 151.83 68.4479 152.334 68.4539C152.874 68.4539 153.363 68.3159 153.801 68.0399C154.239 67.7579 154.593 67.3739 154.863 66.8879L156.402 67.2479C156.042 68.0459 155.499 68.6999 154.773 69.2099C154.047 69.7139 153.234 69.9659 152.334 69.9659ZM149.4 64.5929H155.268C155.22 64.0889 155.058 63.6299 154.782 63.2159C154.506 62.7959 154.155 62.4599 153.729 62.2079C153.303 61.9559 152.838 61.8299 152.334 61.8299C151.83 61.8299 151.368 61.9529 150.948 62.1989C150.528 62.4449 150.18 62.7779 149.904 63.1979C149.634 63.6119 149.466 64.0769 149.4 64.5929ZM166.262 64.1339V69.7319H164.75V64.4669C164.75 64.0109 164.639 63.5969 164.417 63.2249C164.195 62.8529 163.898 62.5589 163.526 62.3429C163.154 62.1209 162.74 62.0099 162.284 62.0099C161.834 62.0099 161.42 62.1209 161.042 62.3429C160.67 62.5589 160.373 62.8529 160.151 63.2249C159.929 63.5969 159.818 64.0109 159.818 64.4669V69.7319H158.306V60.7319H159.818V61.8569C160.136 61.4369 160.538 61.1039 161.024 60.8579C161.51 60.6059 162.038 60.4799 162.608 60.4799C163.28 60.4799 163.892 60.6449 164.444 60.9749C165.002 61.2989 165.443 61.7369 165.767 62.2889C166.097 62.8409 166.262 63.4559 166.262 64.1339ZM172.724 62.2439H170.681L170.672 69.7319H169.16L169.169 62.2439H167.621V60.7319H169.169L169.16 57.9059H170.672L170.681 60.7319H172.724V62.2439ZM174.337 69.7319V60.7319H175.849V61.8569C176.167 61.4369 176.569 61.1039 177.055 60.8579C177.541 60.6059 178.069 60.4799 178.639 60.4799C178.987 60.4799 179.323 60.5249 179.647 60.6149L179.035 62.1269C178.789 62.0489 178.549 62.0099 178.315 62.0099C177.865 62.0099 177.451 62.1209 177.073 62.3429C176.701 62.5589 176.404 62.8529 176.182 63.2249C175.96 63.5969 175.849 64.0109 175.849 64.4669V69.7319H174.337ZM180.376 66.3119V60.7319H181.888V65.9789C181.888 66.4349 181.999 66.8489 182.221 67.2209C182.443 67.5929 182.74 67.8899 183.112 68.1119C183.49 68.3279 183.904 68.4359 184.354 68.4359C184.81 68.4359 185.221 68.3279 185.587 68.1119C185.959 67.8899 186.256 67.5929 186.478 67.2209C186.7 66.8489 186.811 66.4349 186.811 65.9789V60.7319H188.323L188.332 69.7319H186.82L186.811 68.5889C186.493 69.0089 186.091 69.3449 185.605 69.5969C185.119 69.8429 184.594 69.9659 184.03 69.9659C183.358 69.9659 182.743 69.8039 182.185 69.4799C181.633 69.1499 181.192 68.7089 180.862 68.1569C180.538 67.6049 180.376 66.9899 180.376 66.3119ZM194.104 66.3119V60.7319H195.616V65.9789C195.616 66.4349 195.727 66.8489 195.949 67.2209C196.171 67.5929 196.468 67.8899 196.84 68.1119C197.218 68.3279 197.632 68.4359 198.082 68.4359C198.538 68.4359 198.949 68.3279 199.315 68.1119C199.687 67.8899 199.984 67.5929 200.206 67.2209C200.428 66.8489 200.539 66.4349 200.539 65.9789V60.7319H202.051L202.06 69.7319H200.548L200.539 68.5889C200.221 69.0089 199.819 69.3449 199.333 69.5969C198.847 69.8429 198.322 69.9659 197.758 69.9659C197.086 69.9659 196.471 69.8039 195.913 69.4799C195.361 69.1499 194.92 68.7089 194.59 68.1569C194.266 67.6049 194.104 66.9899 194.104 66.3119ZM211.825 64.1339V69.7319H210.313V64.4669C210.313 64.0109 210.202 63.5969 209.98 63.2249C209.758 62.8529 209.461 62.5589 209.089 62.3429C208.717 62.1209 208.303 62.0099 207.847 62.0099C207.397 62.0099 206.983 62.1209 206.605 62.3429C206.233 62.5589 205.936 62.8529 205.714 63.2249C205.492 63.5969 205.381 64.0109 205.381 64.4669V69.7319H203.869V60.7319H205.381V61.8569C205.699 61.4369 206.101 61.1039 206.587 60.8579C207.073 60.6059 207.601 60.4799 208.171 60.4799C208.843 60.4799 209.455 60.6449 210.007 60.9749C210.565 61.2989 211.006 61.7369 211.33 62.2889C211.66 62.8409 211.825 63.4559 211.825 64.1339ZM224.15 67.3559L225.5 68.0849C225.092 68.6549 224.573 69.1109 223.943 69.4529C223.319 69.7949 222.641 69.9659 221.909 69.9659C221.081 69.9659 220.325 69.7529 219.641 69.3269C218.963 68.9009 218.42 68.3309 218.012 67.6169C217.61 66.8969 217.409 66.1019 217.409 65.2319C217.409 64.5719 217.526 63.9569 217.76 63.3869C217.994 62.8109 218.315 62.3069 218.723 61.8749C219.137 61.4369 219.617 61.0949 220.163 60.8489C220.709 60.6029 221.291 60.4799 221.909 60.4799C222.641 60.4799 223.319 60.6509 223.943 60.9929C224.573 61.3349 225.092 61.7939 225.5 62.3699L224.15 63.0989C223.862 62.7449 223.52 62.4719 223.124 62.2799C222.728 62.0879 222.323 61.9919 221.909 61.9919C221.351 61.9919 220.844 62.1419 220.388 62.4419C219.938 62.7359 219.581 63.1289 219.317 63.6209C219.053 64.1129 218.921 64.6499 218.921 65.2319C218.921 65.8139 219.053 66.3509 219.317 66.8429C219.587 67.3289 219.947 67.7189 220.397 68.0129C220.853 68.3069 221.357 68.4539 221.909 68.4539C222.353 68.4539 222.77 68.3519 223.16 68.1479C223.55 67.9439 223.88 67.6799 224.15 67.3559ZM230.926 69.9659C230.098 69.9659 229.342 69.7529 228.658 69.3269C227.98 68.9009 227.437 68.3309 227.029 67.6169C226.627 66.8969 226.426 66.1019 226.426 65.2319C226.426 64.5719 226.543 63.9569 226.777 63.3869C227.011 62.8109 227.332 62.3069 227.74 61.8749C228.154 61.4369 228.634 61.0949 229.18 60.8489C229.726 60.6029 230.308 60.4799 230.926 60.4799C231.754 60.4799 232.507 60.6929 233.185 61.1189C233.869 61.5449 234.412 62.1179 234.814 62.8379C235.222 63.5579 235.426 64.3559 235.426 65.2319C235.426 65.8859 235.309 66.4979 235.075 67.0679C234.841 67.6379 234.517 68.1419 234.103 68.5799C233.695 69.0119 233.218 69.3509 232.672 69.5969C232.132 69.8429 231.55 69.9659 230.926 69.9659ZM230.926 68.4539C231.49 68.4539 231.997 68.3069 232.447 68.0129C232.903 67.7129 233.26 67.3199 233.518 66.8339C233.782 66.3419 233.914 65.8079 233.914 65.2319C233.914 64.6439 233.779 64.1039 233.509 63.6119C233.245 63.1199 232.888 62.7269 232.438 62.4329C231.988 62.1389 231.484 61.9919 230.926 61.9919C230.362 61.9919 229.855 62.1419 229.405 62.4419C228.955 62.7359 228.598 63.1289 228.334 63.6209C228.07 64.1129 227.938 64.6499 227.938 65.2319C227.938 65.8319 228.073 66.3779 228.343 66.8699C228.613 67.3559 228.976 67.7429 229.432 68.0309C229.888 68.3129 230.386 68.4539 230.926 68.4539ZM244.871 64.1339V69.7319H243.359V64.4669C243.359 64.0109 243.248 63.5969 243.026 63.2249C242.804 62.8529 242.507 62.5589 242.135 62.3429C241.763 62.1209 241.349 62.0099 240.893 62.0099C240.443 62.0099 240.029 62.1209 239.651 62.3429C239.279 62.5589 238.982 62.8529 238.76 63.2249C238.538 63.5969 238.427 64.0109 238.427 64.4669V69.7319H236.915V60.7319H238.427V61.8569C238.745 61.4369 239.147 61.1039 239.633 60.8579C240.119 60.6059 240.647 60.4799 241.217 60.4799C241.889 60.4799 242.501 60.6449 243.053 60.9749C243.611 61.2989 244.052 61.7369 244.376 62.2889C244.706 62.8409 244.871 63.4559 244.871 64.1339ZM251.333 62.2439H249.29L249.281 69.7319H247.769L247.778 62.2439H246.23V60.7319H247.778L247.769 57.9059H249.281L249.29 60.7319H251.333V62.2439ZM252.947 69.7319V60.7319H254.459V61.8569C254.777 61.4369 255.179 61.1039 255.665 60.8579C256.151 60.6059 256.679 60.4799 257.249 60.4799C257.597 60.4799 257.933 60.5249 258.257 60.6149L257.645 62.1269C257.399 62.0489 257.159 62.0099 256.925 62.0099C256.475 62.0099 256.061 62.1209 255.683 62.3429C255.311 62.5589 255.014 62.8529 254.792 63.2249C254.57 63.5969 254.459 64.0109 254.459 64.4669V69.7319H252.947ZM262.866 69.9659C262.038 69.9659 261.282 69.7529 260.598 69.3269C259.92 68.9009 259.377 68.3309 258.969 67.6169C258.567 66.8969 258.366 66.1019 258.366 65.2319C258.366 64.5719 258.483 63.9569 258.717 63.3869C258.951 62.8109 259.272 62.3069 259.68 61.8749C260.094 61.4369 260.574 61.0949 261.12 60.8489C261.666 60.6029 262.248 60.4799 262.866 60.4799C263.694 60.4799 264.447 60.6929 265.125 61.1189C265.809 61.5449 266.352 62.1179 266.754 62.8379C267.162 63.5579 267.366 64.3559 267.366 65.2319C267.366 65.8859 267.249 66.4979 267.015 67.0679C266.781 67.6379 266.457 68.1419 266.043 68.5799C265.635 69.0119 265.158 69.3509 264.612 69.5969C264.072 69.8429 263.49 69.9659 262.866 69.9659ZM262.866 68.4539C263.43 68.4539 263.937 68.3069 264.387 68.0129C264.843 67.7129 265.2 67.3199 265.458 66.8339C265.722 66.3419 265.854 65.8079 265.854 65.2319C265.854 64.6439 265.719 64.1039 265.449 63.6119C265.185 63.1199 264.828 62.7269 264.378 62.4329C263.928 62.1389 263.424 61.9919 262.866 61.9919C262.302 61.9919 261.795 62.1419 261.345 62.4419C260.895 62.7359 260.538 63.1289 260.274 63.6209C260.01 64.1129 259.878 64.6499 259.878 65.2319C259.878 65.8319 260.013 66.3779 260.283 66.8699C260.553 67.3559 260.916 67.7429 261.372 68.0309C261.828 68.3129 262.326 68.4539 262.866 68.4539ZM268.767 69.7319V56.2319H270.279V69.7319H268.767ZM276.765 69.7319V60.7319H278.277V61.8569C278.595 61.4369 278.994 61.1039 279.474 60.8579C279.96 60.6059 280.488 60.4799 281.058 60.4799C281.724 60.4799 282.333 60.6419 282.885 60.9659C283.437 61.2899 283.872 61.7189 284.19 62.2529C284.508 61.7189 284.94 61.2899 285.486 60.9659C286.038 60.6419 286.644 60.4799 287.304 60.4799C287.982 60.4799 288.597 60.6449 289.149 60.9749C289.701 61.2989 290.139 61.7369 290.463 62.2889C290.793 62.8409 290.958 63.4559 290.958 64.1339V69.7319H289.446V64.4939C289.446 64.0499 289.338 63.6389 289.122 63.2609C288.906 62.8829 288.615 62.5799 288.249 62.3519C287.883 62.1239 287.478 62.0099 287.034 62.0099C286.59 62.0099 286.185 62.1179 285.819 62.3339C285.453 62.5439 285.162 62.8379 284.946 63.2159C284.73 63.5879 284.622 64.0139 284.622 64.4939V69.7319H283.11V64.4939C283.11 64.0139 283.002 63.5879 282.786 63.2159C282.57 62.8379 282.276 62.5439 281.904 62.3339C281.538 62.1179 281.133 62.0099 280.689 62.0099C280.251 62.0099 279.846 62.1239 279.474 62.3519C279.108 62.5799 278.817 62.8829 278.601 63.2609C278.385 63.6389 278.277 64.0499 278.277 64.4939V69.7319H276.765ZM299.821 60.7319H301.333V69.7319H299.821L299.758 68.2109C299.476 68.7329 299.086 69.1559 298.588 69.4799C298.096 69.8039 297.508 69.9659 296.824 69.9659C296.164 69.9659 295.546 69.8429 294.97 69.5969C294.394 69.3449 293.884 68.9999 293.44 68.5619C293.002 68.1179 292.66 67.6079 292.414 67.0319C292.168 66.4559 292.045 65.8349 292.045 65.1689C292.045 64.5269 292.165 63.9209 292.405 63.3509C292.645 62.7809 292.978 62.2829 293.404 61.8569C293.836 61.4249 294.334 61.0889 294.898 60.8489C295.462 60.6029 296.068 60.4799 296.716 60.4799C297.424 60.4799 298.045 60.6479 298.579 60.9839C299.113 61.3139 299.545 61.7429 299.875 62.2709L299.821 60.7319ZM296.797 68.4989C297.391 68.4989 297.904 68.3549 298.336 68.0669C298.774 67.7729 299.11 67.3769 299.344 66.8789C299.584 66.3809 299.704 65.8319 299.704 65.2319C299.704 64.6199 299.584 64.0679 299.344 63.5759C299.104 63.0779 298.765 62.6849 298.327 62.3969C297.895 62.1029 297.385 61.9559 296.797 61.9559C296.203 61.9559 295.663 62.1029 295.177 62.3969C294.691 62.6909 294.304 63.0869 294.016 63.5849C293.734 64.0769 293.593 64.6259 293.593 65.2319C293.593 65.8379 293.74 66.3899 294.034 66.8879C294.328 67.3799 294.718 67.7729 295.204 68.0669C295.69 68.3549 296.221 68.4989 296.797 68.4989ZM303.132 60.7319H304.644V69.7319H303.132V60.7319ZM303.906 59.2649C303.666 59.2649 303.465 59.1869 303.303 59.0309C303.141 58.8749 303.06 58.6799 303.06 58.4459C303.06 58.2119 303.141 58.0169 303.303 57.8609C303.465 57.7049 303.663 57.6269 303.897 57.6269C304.131 57.6269 304.329 57.7049 304.491 57.8609C304.653 58.0169 304.734 58.2119 304.734 58.4459C304.734 58.6799 304.653 58.8749 304.491 59.0309C304.335 59.1869 304.14 59.2649 303.906 59.2649ZM315.684 60.4799C316.56 60.4799 317.355 60.6929 318.069 61.1189C318.789 61.5449 319.362 62.1179 319.788 62.8379C320.214 63.5519 320.427 64.3469 320.427 65.2229C320.427 65.8769 320.304 66.4919 320.058 67.0679C319.812 67.6379 319.47 68.1419 319.032 68.5799C318.6 69.0119 318.096 69.3509 317.52 69.5969C316.95 69.8429 316.338 69.9659 315.684 69.9659C314.988 69.9659 314.382 69.8039 313.866 69.4799C313.356 69.1499 312.948 68.7209 312.642 68.1929V69.7319H311.13V56.2319H312.642V62.2529C312.948 61.7249 313.356 61.2989 313.866 60.9749C314.382 60.6449 314.988 60.4799 315.684 60.4799ZM315.666 68.4899C316.26 68.4899 316.8 68.3429 317.286 68.0489C317.772 67.7549 318.159 67.3619 318.447 66.8699C318.735 66.3719 318.879 65.8229 318.879 65.2229C318.879 64.6109 318.732 64.0589 318.438 63.5669C318.144 63.0689 317.754 62.6759 317.268 62.3879C316.782 62.0939 316.248 61.9469 315.666 61.9469C315.078 61.9469 314.565 62.0939 314.127 62.3879C313.695 62.6819 313.359 63.0779 313.119 63.5759C312.885 64.0739 312.768 64.6229 312.768 65.2229C312.768 65.8289 312.885 66.3809 313.119 66.8789C313.359 67.3709 313.698 67.7639 314.136 68.0579C314.574 68.3459 315.084 68.4899 315.666 68.4899ZM321.44 66.3119V60.7319H322.952V65.9789C322.952 66.4349 323.063 66.8489 323.285 67.2209C323.507 67.5929 323.804 67.8899 324.176 68.1119C324.554 68.3279 324.968 68.4359 325.418 68.4359C325.874 68.4359 326.285 68.3279 326.651 68.1119C327.023 67.8899 327.32 67.5929 327.542 67.2209C327.764 66.8489 327.875 66.4349 327.875 65.9789V60.7319H329.387L329.396 69.7319H327.884L327.875 68.5889C327.557 69.0089 327.155 69.3449 326.669 69.5969C326.183 69.8429 325.658 69.9659 325.094 69.9659C324.422 69.9659 323.807 69.8039 323.249 69.4799C322.697 69.1499 322.256 68.7089 321.926 68.1569C321.602 67.6049 321.44 66.9899 321.44 66.3119ZM339.161 64.1339V69.7319H337.649V64.4669C337.649 64.0109 337.538 63.5969 337.316 63.2249C337.094 62.8529 336.797 62.5589 336.425 62.3429C336.053 62.1209 335.639 62.0099 335.183 62.0099C334.733 62.0099 334.319 62.1209 333.941 62.3429C333.569 62.5589 333.272 62.8529 333.05 63.2249C332.828 63.5969 332.717 64.0109 332.717 64.4669V69.7319H331.205V60.7319H332.717V61.8569C333.035 61.4369 333.437 61.1039 333.923 60.8579C334.409 60.6059 334.937 60.4799 335.507 60.4799C336.179 60.4799 336.791 60.6449 337.343 60.9749C337.901 61.2989 338.342 61.7369 338.666 62.2889C338.996 62.8409 339.161 63.4559 339.161 64.1339ZM341.419 69.9659C341.191 69.9659 340.996 69.8849 340.834 69.7229C340.678 69.5609 340.6 69.3629 340.6 69.1289C340.6 68.9069 340.678 68.7149 340.834 68.5529C340.996 68.3909 341.191 68.3099 341.419 68.3099C341.653 68.3099 341.851 68.3909 342.013 68.5529C342.175 68.7149 342.256 68.9069 342.256 69.1289C342.256 69.3629 342.175 69.5609 342.013 69.7229C341.851 69.8849 341.653 69.9659 341.419 69.9659Z" fill="#37455B"/>
</g>
<defs>
<filter id="filter0_dd_6852_17592" x="0.541464" y="0.346342" width="424.917" height="120.38" filterUnits="userSpaceOnUse" color-interpolation-filters="sRGB">
<feFlood flood-opacity="0" result="BackgroundImageFix"/>
<feColorMatrix in="SourceAlpha" type="matrix" values="0 0 0 0 0 0 0 0 0 0 0 0 0 0 0 0 0 0 127 0" result="hardAlpha"/>
<feMorphology radius="3.12195" operator="erode" in="SourceAlpha" result="effect1_dropShadow_6852_17592"/>
<feOffset dy="3.12195"/>
<feGaussianBlur stdDeviation="2.34146"/>
<feComposite in2="hardAlpha" operator="out"/>
<feColorMatrix type="matrix" values="0 0 0 0 0 0 0 0 0 0 0 0 0 0 0 0 0 0 0.1 0"/>
<feBlend mode="normal" in2="BackgroundImageFix" result="effect1_dropShadow_6852_17592"/>
<feColorMatrix in="SourceAlpha" type="matrix" values="0 0 0 0 0 0 0 0 0 0 0 0 0 0 0 0 0 0 127 0" result="hardAlpha"/>
<feMorphology radius="2.34146" operator="erode" in="SourceAlpha" result="effect2_dropShadow_6852_17592"/>
<feOffset dy="7.80488"/>
<feGaussianBlur stdDeviation="10.9"/>
<feComposite in2="hardAlpha" operator="out"/>
<feColorMatrix type="matrix" values="0 0 0 0 0 0 0 0 0 0 0 0 0 0 0 0 0 0 0.25 0"/>
<feBlend mode="normal" in2="effect1_dropShadow_6852_17592" result="effect2_dropShadow_6852_17592"/>
<feBlend mode="normal" in="SourceGraphic" in2="effect2_dropShadow_6852_17592" result="shape"/>
</filter>
</defs>
</svg>
