<svg width="426" height="121" viewBox="0 0 426 121" fill="none" xmlns="http://www.w3.org/2000/svg">
<g filter="url(#filter0_dd_6852_17600)">
<rect x="20" y="12" width="386" height="81.4634" rx="12" fill="white"/>
<rect x="20.3902" y="12.3902" width="385.22" height="80.6829" rx="11.6098" stroke="#E2E8F0" stroke-width="0.780488"/>
<path d="M39.8119 47.7319L42.2509 35.1319H43.4119L46.8139 44.0779L50.2069 35.1319H51.3679L53.8159 47.7319H52.2769L50.5039 38.5879L47.3089 47.0479H46.3099L43.1149 38.5879L41.3509 47.7319H39.8119ZM59.1528 47.9659C58.3248 47.9659 57.5688 47.7529 56.8848 47.3269C56.2068 46.9009 55.6638 46.3309 55.2558 45.6169C54.8538 44.8969 54.6528 44.1019 54.6528 43.2319C54.6528 42.5719 54.7698 41.9569 55.0038 41.3869C55.2378 40.8109 55.5588 40.3069 55.9668 39.8749C56.3808 39.4369 56.8608 39.0949 57.4068 38.8489C57.9528 38.6029 58.5348 38.4799 59.1528 38.4799C59.9808 38.4799 60.7338 38.6929 61.4118 39.1189C62.0958 39.5449 62.6388 40.1179 63.0408 40.8379C63.4488 41.5579 63.6528 42.3559 63.6528 43.2319C63.6528 43.8859 63.5358 44.4979 63.3018 45.0679C63.0678 45.6379 62.7438 46.1419 62.3298 46.5799C61.9218 47.0119 61.4448 47.3509 60.8988 47.5969C60.3588 47.8429 59.7768 47.9659 59.1528 47.9659ZM59.1528 46.4539C59.7168 46.4539 60.2238 46.3069 60.6738 46.0129C61.1298 45.7129 61.4868 45.3199 61.7448 44.8339C62.0088 44.3419 62.1408 43.8079 62.1408 43.2319C62.1408 42.6439 62.0058 42.1039 61.7358 41.6119C61.4718 41.1199 61.1148 40.7269 60.6648 40.4329C60.2148 40.1389 59.7108 39.9919 59.1528 39.9919C58.5888 39.9919 58.0818 40.1419 57.6318 40.4419C57.1818 40.7359 56.8248 41.1289 56.5608 41.6209C56.2968 42.1129 56.1648 42.6499 56.1648 43.2319C56.1648 43.8319 56.2998 44.3779 56.5698 44.8699C56.8398 45.3559 57.2028 45.7429 57.6588 46.0309C58.1148 46.3129 58.6128 46.4539 59.1528 46.4539ZM73.098 42.1339V47.7319H71.586V42.4669C71.586 42.0109 71.475 41.5969 71.253 41.2249C71.031 40.8529 70.734 40.5589 70.362 40.3429C69.99 40.1209 69.576 40.0099 69.12 40.0099C68.67 40.0099 68.256 40.1209 67.878 40.3429C67.506 40.5589 67.209 40.8529 66.987 41.2249C66.765 41.5969 66.654 42.0109 66.654 42.4669V47.7319H65.142V38.7319H66.654V39.8569C66.972 39.4369 67.374 39.1039 67.86 38.8579C68.346 38.6059 68.874 38.4799 69.444 38.4799C70.116 38.4799 70.728 38.6449 71.28 38.9749C71.838 39.2989 72.279 39.7369 72.603 40.2889C72.933 40.8409 73.098 41.4559 73.098 42.1339ZM74.8979 38.7319H76.4099V47.7319H74.8979V38.7319ZM75.6719 37.2649C75.4319 37.2649 75.2309 37.1869 75.0689 37.0309C74.9069 36.8749 74.8259 36.6799 74.8259 36.4459C74.8259 36.2119 74.9069 36.0169 75.0689 35.8609C75.2309 35.7049 75.4289 35.6269 75.6629 35.6269C75.8969 35.6269 76.0949 35.7049 76.2569 35.8609C76.4189 36.0169 76.4999 36.2119 76.4999 36.4459C76.4999 36.6799 76.4189 36.8749 76.2569 37.0309C76.1009 37.1869 75.9059 37.2649 75.6719 37.2649ZM83.2337 40.2439H81.1907L81.1817 47.7319H79.6697L79.6787 40.2439H78.1307V38.7319H79.6787L79.6697 35.9059H81.1817L81.1907 38.7319H83.2337V40.2439ZM88.5786 47.9659C87.7506 47.9659 86.9946 47.7529 86.3106 47.3269C85.6326 46.9009 85.0896 46.3309 84.6816 45.6169C84.2796 44.8969 84.0786 44.1019 84.0786 43.2319C84.0786 42.5719 84.1956 41.9569 84.4296 41.3869C84.6636 40.8109 84.9846 40.3069 85.3926 39.8749C85.8066 39.4369 86.2866 39.0949 86.8326 38.8489C87.3786 38.6029 87.9606 38.4799 88.5786 38.4799C89.4066 38.4799 90.1596 38.6929 90.8376 39.1189C91.5216 39.5449 92.0646 40.1179 92.4666 40.8379C92.8746 41.5579 93.0786 42.3559 93.0786 43.2319C93.0786 43.8859 92.9616 44.4979 92.7276 45.0679C92.4936 45.6379 92.1696 46.1419 91.7556 46.5799C91.3476 47.0119 90.8706 47.3509 90.3246 47.5969C89.7846 47.8429 89.2026 47.9659 88.5786 47.9659ZM88.5786 46.4539C89.1426 46.4539 89.6496 46.3069 90.0996 46.0129C90.5556 45.7129 90.9126 45.3199 91.1706 44.8339C91.4346 44.3419 91.5666 43.8079 91.5666 43.2319C91.5666 42.6439 91.4316 42.1039 91.1616 41.6119C90.8976 41.1199 90.5406 40.7269 90.0906 40.4329C89.6406 40.1389 89.1366 39.9919 88.5786 39.9919C88.0146 39.9919 87.5076 40.1419 87.0576 40.4419C86.6076 40.7359 86.2506 41.1289 85.9866 41.6209C85.7226 42.1129 85.5906 42.6499 85.5906 43.2319C85.5906 43.8319 85.7256 44.3779 85.9956 44.8699C86.2656 45.3559 86.6286 45.7429 87.0846 46.0309C87.5406 46.3129 88.0386 46.4539 88.5786 46.4539ZM94.5678 47.7319V38.7319H96.0798V39.8569C96.3978 39.4369 96.7998 39.1039 97.2858 38.8579C97.7718 38.6059 98.2998 38.4799 98.8698 38.4799C99.2178 38.4799 99.5538 38.5249 99.8778 38.6149L99.2658 40.1269C99.0198 40.0489 98.7798 40.0099 98.5458 40.0099C98.0958 40.0099 97.6818 40.1209 97.3038 40.3429C96.9318 40.5589 96.6348 40.8529 96.4128 41.2249C96.1908 41.5969 96.0798 42.0109 96.0798 42.4669V47.7319H94.5678ZM100.984 38.7319H102.496V47.7319H100.984V38.7319ZM101.758 37.2649C101.518 37.2649 101.317 37.1869 101.155 37.0309C100.993 36.8749 100.912 36.6799 100.912 36.4459C100.912 36.2119 100.993 36.0169 101.155 35.8609C101.317 35.7049 101.515 35.6269 101.749 35.6269C101.983 35.6269 102.181 35.7049 102.343 35.8609C102.505 36.0169 102.586 36.2119 102.586 36.4459C102.586 36.6799 102.505 36.8749 102.343 37.0309C102.187 37.1869 101.992 37.2649 101.758 37.2649ZM111.984 40.2439L106.449 46.2199H111.984V47.7319H104.298V46.2199L109.833 40.2439H104.298V38.7319H111.984V40.2439ZM117.618 47.9659C116.79 47.9659 116.034 47.7529 115.35 47.3269C114.672 46.9009 114.129 46.3309 113.721 45.6169C113.319 44.8969 113.118 44.1019 113.118 43.2319C113.118 42.5719 113.235 41.9569 113.469 41.3869C113.703 40.8109 114.024 40.3069 114.432 39.8749C114.846 39.4369 115.326 39.0949 115.872 38.8489C116.418 38.6029 117 38.4799 117.618 38.4799C118.296 38.4799 118.917 38.6179 119.481 38.8939C120.051 39.1639 120.537 39.5419 120.939 40.0279C121.347 40.5139 121.65 41.0779 121.848 41.7199C122.052 42.3619 122.127 43.0489 122.073 43.7809H114.729C114.801 44.2909 114.969 44.7469 115.233 45.1489C115.497 45.5449 115.833 45.8599 116.241 46.0939C116.655 46.3279 117.114 46.4479 117.618 46.4539C118.158 46.4539 118.647 46.3159 119.085 46.0399C119.523 45.7579 119.877 45.3739 120.147 44.8879L121.686 45.2479C121.326 46.0459 120.783 46.6999 120.057 47.2099C119.331 47.7139 118.518 47.9659 117.618 47.9659ZM114.684 42.5929H120.552C120.504 42.0889 120.342 41.6299 120.066 41.2159C119.79 40.7959 119.439 40.4599 119.013 40.2079C118.587 39.9559 118.122 39.8299 117.618 39.8299C117.114 39.8299 116.652 39.9529 116.232 40.1989C115.812 40.4449 115.464 40.7779 115.188 41.1979C114.918 41.6119 114.75 42.0769 114.684 42.5929ZM130.773 38.7319H132.285V47.7319H130.773L130.71 46.2109C130.428 46.7329 130.038 47.1559 129.54 47.4799C129.048 47.8039 128.46 47.9659 127.776 47.9659C127.116 47.9659 126.498 47.8429 125.922 47.5969C125.346 47.3449 124.836 46.9999 124.392 46.5619C123.954 46.1179 123.612 45.6079 123.366 45.0319C123.12 44.4559 122.997 43.8349 122.997 43.1689C122.997 42.5269 123.117 41.9209 123.357 41.3509C123.597 40.7809 123.93 40.2829 124.356 39.8569C124.788 39.4249 125.286 39.0889 125.85 38.8489C126.414 38.6029 127.02 38.4799 127.668 38.4799C128.376 38.4799 128.997 38.6479 129.531 38.9839C130.065 39.3139 130.497 39.7429 130.827 40.2709L130.773 38.7319ZM127.749 46.4989C128.343 46.4989 128.856 46.3549 129.288 46.0669C129.726 45.7729 130.062 45.3769 130.296 44.8789C130.536 44.3809 130.656 43.8319 130.656 43.2319C130.656 42.6199 130.536 42.0679 130.296 41.5759C130.056 41.0779 129.717 40.6849 129.279 40.3969C128.847 40.1029 128.337 39.9559 127.749 39.9559C127.155 39.9559 126.615 40.1029 126.129 40.3969C125.643 40.6909 125.256 41.0869 124.968 41.5849C124.686 42.0769 124.545 42.6259 124.545 43.2319C124.545 43.8379 124.692 44.3899 124.986 44.8879C125.28 45.3799 125.67 45.7729 126.156 46.0669C126.642 46.3549 127.173 46.4989 127.749 46.4989ZM141.409 40.2439L135.874 46.2199H141.409V47.7319H133.723V46.2199L139.258 40.2439H133.723V38.7319H141.409V40.2439ZM150.319 38.7319H151.831V47.7319H150.319L150.256 46.2109C149.974 46.7329 149.584 47.1559 149.086 47.4799C148.594 47.8039 148.006 47.9659 147.322 47.9659C146.662 47.9659 146.044 47.8429 145.468 47.5969C144.892 47.3449 144.382 46.9999 143.938 46.5619C143.5 46.1179 143.158 45.6079 142.912 45.0319C142.666 44.4559 142.543 43.8349 142.543 43.1689C142.543 42.5269 142.663 41.9209 142.903 41.3509C143.143 40.7809 143.476 40.2829 143.902 39.8569C144.334 39.4249 144.832 39.0889 145.396 38.8489C145.96 38.6029 146.566 38.4799 147.214 38.4799C147.922 38.4799 148.543 38.6479 149.077 38.9839C149.611 39.3139 150.043 39.7429 150.373 40.2709L150.319 38.7319ZM147.295 46.4989C147.889 46.4989 148.402 46.3549 148.834 46.0669C149.272 45.7729 149.608 45.3769 149.842 44.8789C150.082 44.3809 150.202 43.8319 150.202 43.2319C150.202 42.6199 150.082 42.0679 149.842 41.5759C149.602 41.0779 149.263 40.6849 148.825 40.3969C148.393 40.1029 147.883 39.9559 147.295 39.9559C146.701 39.9559 146.161 40.1029 145.675 40.3969C145.189 40.6909 144.802 41.0869 144.514 41.5849C144.232 42.0769 144.091 42.6259 144.091 43.2319C144.091 43.8379 144.238 44.3899 144.532 44.8879C144.826 45.3799 145.216 45.7729 145.702 46.0669C146.188 46.3549 146.719 46.4989 147.295 46.4989ZM147.412 37.9399C146.866 37.9399 146.365 37.8049 145.909 37.5349C145.459 37.2649 145.099 36.9049 144.829 36.4549C144.559 35.9989 144.424 35.4979 144.424 34.9519H145.45C145.45 35.3179 145.54 35.6509 145.72 35.9509C145.906 36.2449 146.146 36.4789 146.44 36.6529C146.74 36.8269 147.064 36.9139 147.412 36.9139C147.772 36.9139 148.099 36.8269 148.393 36.6529C148.693 36.4789 148.93 36.2419 149.104 35.9419C149.284 35.6419 149.374 35.3119 149.374 34.9519H150.4C150.4 35.5099 150.262 36.0169 149.986 36.4729C149.716 36.9229 149.353 37.2799 148.897 37.5439C148.447 37.8079 147.952 37.9399 147.412 37.9399ZM157.595 44.3119V38.7319H159.107V43.9789C159.107 44.4349 159.218 44.8489 159.44 45.2209C159.662 45.5929 159.959 45.8899 160.331 46.1119C160.709 46.3279 161.123 46.4359 161.573 46.4359C162.029 46.4359 162.44 46.3279 162.806 46.1119C163.178 45.8899 163.475 45.5929 163.697 45.2209C163.919 44.8489 164.03 44.4349 164.03 43.9789V38.7319H165.542L165.551 47.7319H164.039L164.03 46.5889C163.712 47.0089 163.31 47.3449 162.824 47.5969C162.338 47.8429 161.813 47.9659 161.249 47.9659C160.577 47.9659 159.962 47.8039 159.404 47.4799C158.852 47.1499 158.411 46.7089 158.081 46.1569C157.757 45.6049 157.595 44.9899 157.595 44.3119ZM172.021 40.2439H169.978L169.969 47.7319H168.457L168.466 40.2439H166.918V38.7319H168.466L168.457 35.9059H169.969L169.978 38.7319H172.021V40.2439ZM173.546 38.7319H175.058V47.7319H173.546V38.7319ZM174.32 37.2649C174.08 37.2649 173.879 37.1869 173.717 37.0309C173.555 36.8749 173.474 36.6799 173.474 36.4459C173.474 36.2119 173.555 36.0169 173.717 35.8609C173.879 35.7049 174.077 35.6269 174.311 35.6269C174.545 35.6269 174.743 35.7049 174.905 35.8609C175.067 36.0169 175.148 36.2119 175.148 36.4459C175.148 36.6799 175.067 36.8749 174.905 37.0309C174.749 37.1869 174.554 37.2649 174.32 37.2649ZM177.273 47.7319V34.2319H178.785V47.7319H177.273ZM180.947 38.7319H182.459V47.7319H180.947V38.7319ZM181.721 37.2649C181.481 37.2649 181.28 37.1869 181.118 37.0309C180.956 36.8749 180.875 36.6799 180.875 36.4459C180.875 36.2119 180.956 36.0169 181.118 35.8609C181.28 35.7049 181.478 35.6269 181.712 35.6269C181.946 35.6269 182.144 35.7049 182.306 35.8609C182.468 36.0169 182.549 36.2119 182.549 36.4459C182.549 36.6799 182.468 36.8749 182.306 37.0309C182.15 37.1869 181.955 37.2649 181.721 37.2649ZM191.947 40.2439L186.412 46.2199H191.947V47.7319H184.261V46.2199L189.796 40.2439H184.261V38.7319H191.947V40.2439ZM200.857 38.7319H202.369V47.7319H200.857L200.794 46.2109C200.512 46.7329 200.122 47.1559 199.624 47.4799C199.132 47.8039 198.544 47.9659 197.86 47.9659C197.2 47.9659 196.582 47.8429 196.006 47.5969C195.43 47.3449 194.92 46.9999 194.476 46.5619C194.038 46.1179 193.696 45.6079 193.45 45.0319C193.204 44.4559 193.081 43.8349 193.081 43.1689C193.081 42.5269 193.201 41.9209 193.441 41.3509C193.681 40.7809 194.014 40.2829 194.44 39.8569C194.872 39.4249 195.37 39.0889 195.934 38.8489C196.498 38.6029 197.104 38.4799 197.752 38.4799C198.46 38.4799 199.081 38.6479 199.615 38.9839C200.149 39.3139 200.581 39.7429 200.911 40.2709L200.857 38.7319ZM197.833 46.4989C198.427 46.4989 198.94 46.3549 199.372 46.0669C199.81 45.7729 200.146 45.3769 200.38 44.8789C200.62 44.3809 200.74 43.8319 200.74 43.2319C200.74 42.6199 200.62 42.0679 200.38 41.5759C200.14 41.0779 199.801 40.6849 199.363 40.3969C198.931 40.1029 198.421 39.9559 197.833 39.9559C197.239 39.9559 196.699 40.1029 196.213 40.3969C195.727 40.6909 195.34 41.0869 195.052 41.5849C194.77 42.0769 194.629 42.6259 194.629 43.2319C194.629 43.8379 194.776 44.3899 195.07 44.8879C195.364 45.3799 195.754 45.7729 196.24 46.0669C196.726 46.3549 197.257 46.4989 197.833 46.4989ZM204.167 47.7319V38.7319H205.679V39.8569C205.997 39.4369 206.399 39.1039 206.885 38.8579C207.371 38.6059 207.899 38.4799 208.469 38.4799C208.817 38.4799 209.153 38.5249 209.477 38.6149L208.865 40.1269C208.619 40.0489 208.379 40.0099 208.145 40.0099C207.695 40.0099 207.281 40.1209 206.903 40.3429C206.531 40.5589 206.234 40.8529 206.012 41.2249C205.79 41.5969 205.679 42.0109 205.679 42.4669V47.7319H204.167ZM214.086 47.9659C213.258 47.9659 212.502 47.7529 211.818 47.3269C211.14 46.9009 210.597 46.3309 210.189 45.6169C209.787 44.8969 209.586 44.1019 209.586 43.2319C209.586 42.5719 209.703 41.9569 209.937 41.3869C210.171 40.8109 210.492 40.3069 210.9 39.8749C211.314 39.4369 211.794 39.0949 212.34 38.8489C212.886 38.6029 213.468 38.4799 214.086 38.4799C214.764 38.4799 215.385 38.6179 215.949 38.8939C216.519 39.1639 217.005 39.5419 217.407 40.0279C217.815 40.5139 218.118 41.0779 218.316 41.7199C218.52 42.3619 218.595 43.0489 218.541 43.7809H211.197C211.269 44.2909 211.437 44.7469 211.701 45.1489C211.965 45.5449 212.301 45.8599 212.709 46.0939C213.123 46.3279 213.582 46.4479 214.086 46.4539C214.626 46.4539 215.115 46.3159 215.553 46.0399C215.991 45.7579 216.345 45.3739 216.615 44.8879L218.154 45.2479C217.794 46.0459 217.251 46.6999 216.525 47.2099C215.799 47.7139 214.986 47.9659 214.086 47.9659ZM211.152 42.5929H217.02C216.972 42.0889 216.81 41.6299 216.534 41.2159C216.258 40.7959 215.907 40.4599 215.481 40.2079C215.055 39.9559 214.59 39.8299 214.086 39.8299C213.582 39.8299 213.12 39.9529 212.7 40.1989C212.28 40.4449 211.932 40.7779 211.656 41.1979C211.386 41.6119 211.218 42.0769 211.152 42.5929ZM227.241 38.7319H228.753V47.7319H227.241L227.178 46.2109C226.896 46.7329 226.506 47.1559 226.008 47.4799C225.516 47.8039 224.928 47.9659 224.244 47.9659C223.584 47.9659 222.966 47.8429 222.39 47.5969C221.814 47.3449 221.304 46.9999 220.86 46.5619C220.422 46.1179 220.08 45.6079 219.834 45.0319C219.588 44.4559 219.465 43.8349 219.465 43.1689C219.465 42.5269 219.585 41.9209 219.825 41.3509C220.065 40.7809 220.398 40.2829 220.824 39.8569C221.256 39.4249 221.754 39.0889 222.318 38.8489C222.882 38.6029 223.488 38.4799 224.136 38.4799C224.844 38.4799 225.465 38.6479 225.999 38.9839C226.533 39.3139 226.965 39.7429 227.295 40.2709L227.241 38.7319ZM224.217 46.4989C224.811 46.4989 225.324 46.3549 225.756 46.0669C226.194 45.7729 226.53 45.3769 226.764 44.8789C227.004 44.3809 227.124 43.8319 227.124 43.2319C227.124 42.6199 227.004 42.0679 226.764 41.5759C226.524 41.0779 226.185 40.6849 225.747 40.3969C225.315 40.1029 224.805 39.9559 224.217 39.9559C223.623 39.9559 223.083 40.1029 222.597 40.3969C222.111 40.6909 221.724 41.0869 221.436 41.5849C221.154 42.0769 221.013 42.6259 221.013 43.2319C221.013 43.8379 221.16 44.3899 221.454 44.8879C221.748 45.3799 222.138 45.7729 222.624 46.0669C223.11 46.3549 223.641 46.4989 224.217 46.4989ZM237.621 47.9029C237.135 47.8849 236.661 47.7949 236.199 47.6329C235.743 47.4649 235.341 47.2399 234.993 46.9579C234.651 46.6699 234.402 46.3399 234.246 45.9679L235.542 45.4099C235.632 45.6139 235.794 45.8059 236.028 45.9859C236.262 46.1659 236.532 46.3099 236.838 46.4179C237.144 46.5259 237.453 46.5799 237.765 46.5799C238.095 46.5799 238.404 46.5289 238.692 46.4269C238.98 46.3249 239.214 46.1749 239.394 45.9769C239.58 45.7729 239.673 45.5299 239.673 45.2479C239.673 44.9479 239.571 44.7139 239.367 44.5459C239.169 44.3719 238.917 44.2369 238.611 44.1409C238.311 44.0389 238.005 43.9429 237.693 43.8529C237.075 43.6969 236.523 43.5109 236.037 43.2949C235.551 43.0729 235.167 42.7939 234.885 42.4579C234.609 42.1159 234.471 41.6809 234.471 41.1529C234.471 40.5949 234.624 40.1119 234.93 39.7039C235.242 39.2959 235.65 38.9809 236.154 38.7589C236.658 38.5369 237.198 38.4259 237.774 38.4259C238.5 38.4259 239.163 38.5819 239.763 38.8939C240.363 39.2059 240.81 39.6289 241.104 40.1629L239.889 40.8739C239.787 40.6579 239.631 40.4689 239.421 40.3069C239.211 40.1389 238.971 40.0069 238.701 39.9109C238.431 39.8149 238.155 39.7639 237.873 39.7579C237.525 39.7459 237.198 39.7909 236.892 39.8929C236.592 39.9949 236.349 40.1509 236.163 40.3609C235.983 40.5649 235.893 40.8199 235.893 41.1259C235.893 41.4259 235.989 41.6539 236.181 41.8099C236.379 41.9659 236.634 42.0919 236.946 42.1879C237.264 42.2779 237.609 42.3829 237.981 42.5029C238.527 42.6769 239.037 42.8779 239.511 43.1059C239.985 43.3339 240.366 43.6189 240.654 43.9609C240.948 44.3029 241.092 44.7259 241.086 45.2299C241.086 45.7819 240.921 46.2649 240.591 46.6789C240.261 47.0869 239.832 47.3989 239.304 47.6149C238.782 47.8309 238.221 47.9269 237.621 47.9029ZM236.901 51.7009L237.459 48.6589H238.971L237.909 51.7009H236.901ZM242.505 38.7319H244.017V47.7319H242.505V38.7319ZM243.279 37.2649C243.039 37.2649 242.838 37.1869 242.676 37.0309C242.514 36.8749 242.433 36.6799 242.433 36.4459C242.433 36.2119 242.514 36.0169 242.676 35.8609C242.838 35.7049 243.036 35.6269 243.27 35.6269C243.504 35.6269 243.702 35.7049 243.864 35.8609C244.026 36.0169 244.107 36.2119 244.107 36.4459C244.107 36.6799 244.026 36.8749 243.864 37.0309C243.708 37.1869 243.513 37.2649 243.279 37.2649ZM256.704 45.3559L258.054 46.0849C257.646 46.6549 257.127 47.1109 256.497 47.4529C255.873 47.7949 255.195 47.9659 254.463 47.9659C253.635 47.9659 252.879 47.7529 252.195 47.3269C251.517 46.9009 250.974 46.3309 250.566 45.6169C250.164 44.8969 249.963 44.1019 249.963 43.2319C249.963 42.5719 250.08 41.9569 250.314 41.3869C250.548 40.8109 250.869 40.3069 251.277 39.8749C251.691 39.4369 252.171 39.0949 252.717 38.8489C253.263 38.6029 253.845 38.4799 254.463 38.4799C255.195 38.4799 255.873 38.6509 256.497 38.9929C257.127 39.3349 257.646 39.7939 258.054 40.3699L256.704 41.0989C256.416 40.7449 256.074 40.4719 255.678 40.2799C255.282 40.0879 254.877 39.9919 254.463 39.9919C253.905 39.9919 253.398 40.1419 252.942 40.4419C252.492 40.7359 252.135 41.1289 251.871 41.6209C251.607 42.1129 251.475 42.6499 251.475 43.2319C251.475 43.8139 251.607 44.3509 251.871 44.8429C252.141 45.3289 252.501 45.7189 252.951 46.0129C253.407 46.3069 253.911 46.4539 254.463 46.4539C254.907 46.4539 255.324 46.3519 255.714 46.1479C256.104 45.9439 256.434 45.6799 256.704 45.3559ZM263.481 47.9659C262.653 47.9659 261.897 47.7529 261.213 47.3269C260.535 46.9009 259.992 46.3309 259.584 45.6169C259.182 44.8969 258.981 44.1019 258.981 43.2319C258.981 42.5719 259.098 41.9569 259.332 41.3869C259.566 40.8109 259.887 40.3069 260.295 39.8749C260.709 39.4369 261.189 39.0949 261.735 38.8489C262.281 38.6029 262.863 38.4799 263.481 38.4799C264.309 38.4799 265.062 38.6929 265.74 39.1189C266.424 39.5449 266.967 40.1179 267.369 40.8379C267.777 41.5579 267.981 42.3559 267.981 43.2319C267.981 43.8859 267.864 44.4979 267.63 45.0679C267.396 45.6379 267.072 46.1419 266.658 46.5799C266.25 47.0119 265.773 47.3509 265.227 47.5969C264.687 47.8429 264.105 47.9659 263.481 47.9659ZM263.481 46.4539C264.045 46.4539 264.552 46.3069 265.002 46.0129C265.458 45.7129 265.815 45.3199 266.073 44.8339C266.337 44.3419 266.469 43.8079 266.469 43.2319C266.469 42.6439 266.334 42.1039 266.064 41.6119C265.8 41.1199 265.443 40.7269 264.993 40.4329C264.543 40.1389 264.039 39.9919 263.481 39.9919C262.917 39.9919 262.41 40.1419 261.96 40.4419C261.51 40.7359 261.153 41.1289 260.889 41.6209C260.625 42.1129 260.493 42.6499 260.493 43.2319C260.493 43.8319 260.628 44.3779 260.898 44.8699C261.168 45.3559 261.531 45.7429 261.987 46.0309C262.443 46.3129 262.941 46.4539 263.481 46.4539ZM277.426 42.1339V47.7319H275.914V42.4669C275.914 42.0109 275.803 41.5969 275.581 41.2249C275.359 40.8529 275.062 40.5589 274.69 40.3429C274.318 40.1209 273.904 40.0099 273.448 40.0099C272.998 40.0099 272.584 40.1209 272.206 40.3429C271.834 40.5589 271.537 40.8529 271.315 41.2249C271.093 41.5969 270.982 42.0109 270.982 42.4669V47.7319H269.47V38.7319H270.982V39.8569C271.3 39.4369 271.702 39.1039 272.188 38.8579C272.674 38.6059 273.202 38.4799 273.772 38.4799C274.444 38.4799 275.056 38.6449 275.608 38.9749C276.166 39.2989 276.607 39.7369 276.931 40.2889C277.261 40.8409 277.426 41.4559 277.426 42.1339ZM281.971 47.9029C281.485 47.8849 281.011 47.7949 280.549 47.6329C280.093 47.4649 279.691 47.2399 279.343 46.9579C279.001 46.6699 278.752 46.3399 278.596 45.9679L279.892 45.4099C279.982 45.6139 280.144 45.8059 280.378 45.9859C280.612 46.1659 280.882 46.3099 281.188 46.4179C281.494 46.5259 281.803 46.5799 282.115 46.5799C282.445 46.5799 282.754 46.5289 283.042 46.4269C283.33 46.3249 283.564 46.1749 283.744 45.9769C283.93 45.7729 284.023 45.5299 284.023 45.2479C284.023 44.9479 283.921 44.7139 283.717 44.5459C283.519 44.3719 283.267 44.2369 282.961 44.1409C282.661 44.0389 282.355 43.9429 282.043 43.8529C281.425 43.6969 280.873 43.5109 280.387 43.2949C279.901 43.0729 279.517 42.7939 279.235 42.4579C278.959 42.1159 278.821 41.6809 278.821 41.1529C278.821 40.5949 278.974 40.1119 279.28 39.7039C279.592 39.2959 280 38.9809 280.504 38.7589C281.008 38.5369 281.548 38.4259 282.124 38.4259C282.85 38.4259 283.513 38.5819 284.113 38.8939C284.713 39.2059 285.16 39.6289 285.454 40.1629L284.239 40.8739C284.137 40.6579 283.981 40.4689 283.771 40.3069C283.561 40.1389 283.321 40.0069 283.051 39.9109C282.781 39.8149 282.505 39.7639 282.223 39.7579C281.875 39.7459 281.548 39.7909 281.242 39.8929C280.942 39.9949 280.699 40.1509 280.513 40.3609C280.333 40.5649 280.243 40.8199 280.243 41.1259C280.243 41.4259 280.339 41.6539 280.531 41.8099C280.729 41.9659 280.984 42.0919 281.296 42.1879C281.614 42.2779 281.959 42.3829 282.331 42.5029C282.877 42.6769 283.387 42.8779 283.861 43.1059C284.335 43.3339 284.716 43.6189 285.004 43.9609C285.298 44.3029 285.442 44.7259 285.436 45.2299C285.436 45.7819 285.271 46.2649 284.941 46.6789C284.611 47.0869 284.182 47.3989 283.654 47.6149C283.132 47.8309 282.571 47.9269 281.971 47.9029ZM286.618 44.3119V38.7319H288.13V43.9789C288.13 44.4349 288.241 44.8489 288.463 45.2209C288.685 45.5929 288.982 45.8899 289.354 46.1119C289.732 46.3279 290.146 46.4359 290.596 46.4359C291.052 46.4359 291.463 46.3279 291.829 46.1119C292.201 45.8899 292.498 45.5929 292.72 45.2209C292.942 44.8489 293.053 44.4349 293.053 43.9789V38.7319H294.565L294.574 47.7319H293.062L293.053 46.5889C292.735 47.0089 292.333 47.3449 291.847 47.5969C291.361 47.8429 290.836 47.9659 290.272 47.9659C289.6 47.9659 288.985 47.8039 288.427 47.4799C287.875 47.1499 287.434 46.7089 287.104 46.1569C286.78 45.6049 286.618 44.9899 286.618 44.3119ZM296.382 47.7319V38.7319H297.894V39.8569C298.212 39.4369 298.611 39.1039 299.091 38.8579C299.577 38.6059 300.105 38.4799 300.675 38.4799C301.341 38.4799 301.95 38.6419 302.502 38.9659C303.054 39.2899 303.489 39.7189 303.807 40.2529C304.125 39.7189 304.557 39.2899 305.103 38.9659C305.655 38.6419 306.261 38.4799 306.921 38.4799C307.599 38.4799 308.214 38.6449 308.766 38.9749C309.318 39.2989 309.756 39.7369 310.08 40.2889C310.41 40.8409 310.575 41.4559 310.575 42.1339V47.7319H309.063V42.4939C309.063 42.0499 308.955 41.6389 308.739 41.2609C308.523 40.8829 308.232 40.5799 307.866 40.3519C307.5 40.1239 307.095 40.0099 306.651 40.0099C306.207 40.0099 305.802 40.1179 305.436 40.3339C305.07 40.5439 304.779 40.8379 304.563 41.2159C304.347 41.5879 304.239 42.0139 304.239 42.4939V47.7319H302.727V42.4939C302.727 42.0139 302.619 41.5879 302.403 41.2159C302.187 40.8379 301.893 40.5439 301.521 40.3339C301.155 40.1179 300.75 40.0099 300.306 40.0099C299.868 40.0099 299.463 40.1239 299.091 40.3519C298.725 40.5799 298.434 40.8829 298.218 41.2609C298.002 41.6389 297.894 42.0499 297.894 42.4939V47.7319H296.382ZM312.018 44.3119V38.7319H313.53V43.9789C313.53 44.4349 313.641 44.8489 313.863 45.2209C314.085 45.5929 314.382 45.8899 314.754 46.1119C315.132 46.3279 315.546 46.4359 315.996 46.4359C316.452 46.4359 316.863 46.3279 317.229 46.1119C317.601 45.8899 317.898 45.5929 318.12 45.2209C318.342 44.8489 318.453 44.4349 318.453 43.9789V38.7319H319.965L319.974 47.7319H318.462L318.453 46.5889C318.135 47.0089 317.733 47.3449 317.247 47.5969C316.761 47.8429 316.236 47.9659 315.672 47.9659C315 47.9659 314.385 47.8039 313.827 47.4799C313.275 47.1499 312.834 46.7089 312.504 46.1569C312.18 45.6049 312.018 44.9899 312.018 44.3119ZM321.888 47.7319V34.2319H323.4V47.7319H321.888ZM337.131 34.2319H338.643V47.7319H337.131V46.2019C336.825 46.7299 336.414 47.1559 335.898 47.4799C335.382 47.8039 334.776 47.9659 334.08 47.9659C333.426 47.9659 332.814 47.8429 332.244 47.5969C331.674 47.3509 331.17 47.0119 330.732 46.5799C330.3 46.1419 329.961 45.6379 329.715 45.0679C329.469 44.4979 329.346 43.8859 329.346 43.2319C329.346 42.5779 329.469 41.9659 329.715 41.3959C329.961 40.8199 330.3 40.3159 330.732 39.8839C331.17 39.4459 331.674 39.1039 332.244 38.8579C332.814 38.6119 333.426 38.4889 334.08 38.4889C334.776 38.4889 335.382 38.6509 335.898 38.9749C336.414 39.2989 336.825 39.7249 337.131 40.2529V34.2319ZM334.098 46.4989C334.692 46.4989 335.205 46.3549 335.637 46.0669C336.075 45.7729 336.411 45.3769 336.645 44.8789C336.885 44.3809 337.005 43.8319 337.005 43.2319C337.005 42.6199 336.885 42.0679 336.645 41.5759C336.405 41.0779 336.066 40.6849 335.628 40.3969C335.196 40.1029 334.686 39.9559 334.098 39.9559C333.504 39.9559 332.964 40.1029 332.478 40.3969C331.998 40.6909 331.614 41.0869 331.326 41.5849C331.038 42.0769 330.894 42.6259 330.894 43.2319C330.894 43.8379 331.041 44.3899 331.335 44.8879C331.629 45.3799 332.019 45.7729 332.505 46.0669C332.991 46.3549 333.522 46.4989 334.098 46.4989ZM344.674 47.9659C343.846 47.9659 343.09 47.7529 342.406 47.3269C341.728 46.9009 341.185 46.3309 340.777 45.6169C340.375 44.8969 340.174 44.1019 340.174 43.2319C340.174 42.5719 340.291 41.9569 340.525 41.3869C340.759 40.8109 341.08 40.3069 341.488 39.8749C341.902 39.4369 342.382 39.0949 342.928 38.8489C343.474 38.6029 344.056 38.4799 344.674 38.4799C345.352 38.4799 345.973 38.6179 346.537 38.8939C347.107 39.1639 347.593 39.5419 347.995 40.0279C348.403 40.5139 348.706 41.0779 348.904 41.7199C349.108 42.3619 349.183 43.0489 349.129 43.7809H341.785C341.857 44.2909 342.025 44.7469 342.289 45.1489C342.553 45.5449 342.889 45.8599 343.297 46.0939C343.711 46.3279 344.17 46.4479 344.674 46.4539C345.214 46.4539 345.703 46.3159 346.141 46.0399C346.579 45.7579 346.933 45.3739 347.203 44.8879L348.742 45.2479C348.382 46.0459 347.839 46.6999 347.113 47.2099C346.387 47.7139 345.574 47.9659 344.674 47.9659ZM341.74 42.5929H347.608C347.56 42.0889 347.398 41.6299 347.122 41.2159C346.846 40.7959 346.495 40.4599 346.069 40.2079C345.643 39.9559 345.178 39.8299 344.674 39.8299C344.17 39.8299 343.708 39.9529 343.288 40.1989C342.868 40.4449 342.52 40.7779 342.244 41.1979C341.974 41.6119 341.806 42.0769 341.74 42.5929ZM39.8119 69.7319V60.7319H41.3239V61.8569C41.6419 61.4369 42.0409 61.1039 42.5209 60.8579C43.0069 60.6059 43.5349 60.4799 44.1049 60.4799C44.7709 60.4799 45.3799 60.6419 45.9319 60.9659C46.4839 61.2899 46.9189 61.7189 47.2369 62.2529C47.5549 61.7189 47.9869 61.2899 48.5329 60.9659C49.0849 60.6419 49.6909 60.4799 50.3509 60.4799C51.0289 60.4799 51.6439 60.6449 52.1959 60.9749C52.7479 61.2989 53.1859 61.7369 53.5099 62.2889C53.8399 62.8409 54.0049 63.4559 54.0049 64.1339V69.7319H52.4929V64.4939C52.4929 64.0499 52.3849 63.6389 52.1689 63.2609C51.9529 62.8829 51.6619 62.5799 51.2959 62.3519C50.9299 62.1239 50.5249 62.0099 50.0809 62.0099C49.6369 62.0099 49.2319 62.1179 48.8659 62.3339C48.4999 62.5439 48.2089 62.8379 47.9929 63.2159C47.7769 63.5879 47.6689 64.0139 47.6689 64.4939V69.7319H46.1569V64.4939C46.1569 64.0139 46.0489 63.5879 45.8329 63.2159C45.6169 62.8379 45.3229 62.5439 44.9509 62.3339C44.5849 62.1179 44.1799 62.0099 43.7359 62.0099C43.2979 62.0099 42.8929 62.1239 42.5209 62.3519C42.1549 62.5799 41.8639 62.8829 41.6479 63.2609C41.4319 63.6389 41.3239 64.0499 41.3239 64.4939V69.7319H39.8119ZM62.8682 60.7319H64.3802V69.7319H62.8682L62.8052 68.2109C62.5232 68.7329 62.1332 69.1559 61.6352 69.4799C61.1432 69.8039 60.5552 69.9659 59.8712 69.9659C59.2112 69.9659 58.5932 69.8429 58.0172 69.5969C57.4412 69.3449 56.9312 68.9999 56.4872 68.5619C56.0492 68.1179 55.7072 67.6079 55.4612 67.0319C55.2152 66.4559 55.0922 65.8349 55.0922 65.1689C55.0922 64.5269 55.2122 63.9209 55.4522 63.3509C55.6922 62.7809 56.0252 62.2829 56.4512 61.8569C56.8832 61.4249 57.3812 61.0889 57.9452 60.8489C58.5092 60.6029 59.1152 60.4799 59.7632 60.4799C60.4712 60.4799 61.0922 60.6479 61.6262 60.9839C62.1602 61.3139 62.5922 61.7429 62.9222 62.2709L62.8682 60.7319ZM59.8442 68.4989C60.4382 68.4989 60.9512 68.3549 61.3832 68.0669C61.8212 67.7729 62.1572 67.3769 62.3912 66.8789C62.6312 66.3809 62.7512 65.8319 62.7512 65.2319C62.7512 64.6199 62.6312 64.0679 62.3912 63.5759C62.1512 63.0779 61.8122 62.6849 61.3742 62.3969C60.9422 62.1029 60.4322 61.9559 59.8442 61.9559C59.2502 61.9559 58.7102 62.1029 58.2242 62.3969C57.7382 62.6909 57.3512 63.0869 57.0632 63.5849C56.7812 64.0769 56.6402 64.6259 56.6402 65.2319C56.6402 65.8379 56.7872 66.3899 57.0812 66.8879C57.3752 67.3799 57.7652 67.7729 58.2512 68.0669C58.7372 68.3549 59.2682 68.4989 59.8442 68.4989ZM70.8411 62.2439H68.7981L68.7891 69.7319H67.2771L67.2861 62.2439H65.7381V60.7319H67.2861L67.2771 57.9059H68.7891L68.7981 60.7319H70.8411V62.2439ZM76.186 69.9659C75.358 69.9659 74.602 69.7529 73.918 69.3269C73.24 68.9009 72.697 68.3309 72.289 67.6169C71.887 66.8969 71.686 66.1019 71.686 65.2319C71.686 64.5719 71.803 63.9569 72.037 63.3869C72.271 62.8109 72.592 62.3069 73 61.8749C73.414 61.4369 73.894 61.0949 74.44 60.8489C74.986 60.6029 75.568 60.4799 76.186 60.4799C76.864 60.4799 77.485 60.6179 78.049 60.8939C78.619 61.1639 79.105 61.5419 79.507 62.0279C79.915 62.5139 80.218 63.0779 80.416 63.7199C80.62 64.3619 80.695 65.0489 80.641 65.7809H73.297C73.369 66.2909 73.537 66.7469 73.801 67.1489C74.065 67.5449 74.401 67.8599 74.809 68.0939C75.223 68.3279 75.682 68.4479 76.186 68.4539C76.726 68.4539 77.215 68.3159 77.653 68.0399C78.091 67.7579 78.445 67.3739 78.715 66.8879L80.254 67.2479C79.894 68.0459 79.351 68.6999 78.625 69.2099C77.899 69.7139 77.086 69.9659 76.186 69.9659ZM73.252 64.5929H79.12C79.072 64.0889 78.91 63.6299 78.634 63.2159C78.358 62.7959 78.007 62.4599 77.581 62.2079C77.155 61.9559 76.69 61.8299 76.186 61.8299C75.682 61.8299 75.22 61.9529 74.8 62.1989C74.38 62.4449 74.032 62.7779 73.756 63.1979C73.486 63.6119 73.318 64.0769 73.252 64.5929ZM82.1576 69.7319V60.7319H83.6696V61.8569C83.9876 61.4369 84.3896 61.1039 84.8756 60.8579C85.3616 60.6059 85.8896 60.4799 86.4596 60.4799C86.8076 60.4799 87.1436 60.5249 87.4676 60.6149L86.8556 62.1269C86.6096 62.0489 86.3696 62.0099 86.1356 62.0099C85.6856 62.0099 85.2716 62.1209 84.8936 62.3429C84.5216 62.5589 84.2246 62.8529 84.0026 63.2249C83.7806 63.5969 83.6696 64.0109 83.6696 64.4669V69.7319H82.1576ZM88.5737 60.7319H90.0857V69.7319H88.5737V60.7319ZM89.3477 59.2649C89.1077 59.2649 88.9067 59.1869 88.7447 59.0309C88.5827 58.8749 88.5017 58.6799 88.5017 58.4459C88.5017 58.2119 88.5827 58.0169 88.7447 57.8609C88.9067 57.7049 89.1047 57.6269 89.3387 57.6269C89.5727 57.6269 89.7707 57.7049 89.9327 57.8609C90.0947 58.0169 90.1757 58.2119 90.1757 58.4459C90.1757 58.6799 90.0947 58.8749 89.9327 59.0309C89.7767 59.1869 89.5817 59.2649 89.3477 59.2649ZM99.3604 60.7319H100.872V69.7319H99.3604L99.2974 68.2109C99.0154 68.7329 98.6254 69.1559 98.1274 69.4799C97.6354 69.8039 97.0474 69.9659 96.3634 69.9659C95.7034 69.9659 95.0854 69.8429 94.5094 69.5969C93.9334 69.3449 93.4234 68.9999 92.9794 68.5619C92.5414 68.1179 92.1994 67.6079 91.9534 67.0319C91.7074 66.4559 91.5844 65.8349 91.5844 65.1689C91.5844 64.5269 91.7044 63.9209 91.9444 63.3509C92.1844 62.7809 92.5174 62.2829 92.9434 61.8569C93.3754 61.4249 93.8734 61.0889 94.4374 60.8489C95.0014 60.6029 95.6074 60.4799 96.2554 60.4799C96.9634 60.4799 97.5844 60.6479 98.1184 60.9839C98.6524 61.3139 99.0844 61.7429 99.4144 62.2709L99.3604 60.7319ZM96.3364 68.4989C96.9304 68.4989 97.4434 68.3549 97.8754 68.0669C98.3134 67.7729 98.6494 67.3769 98.8834 66.8789C99.1234 66.3809 99.2434 65.8319 99.2434 65.2319C99.2434 64.6199 99.1234 64.0679 98.8834 63.5759C98.6434 63.0779 98.3044 62.6849 97.8664 62.3969C97.4344 62.1029 96.9244 61.9559 96.3364 61.9559C95.7424 61.9559 95.2024 62.1029 94.7164 62.3969C94.2304 62.6909 93.8434 63.0869 93.5554 63.5849C93.2734 64.0769 93.1324 64.6259 93.1324 65.2319C93.1324 65.8379 93.2794 66.3899 93.5734 66.8879C93.8674 67.3799 94.2574 67.7729 94.7434 68.0669C95.2294 68.3549 95.7604 68.4989 96.3364 68.4989ZM102.777 69.7319V56.2319H104.289V69.7319H102.777ZM110.323 69.9659C109.495 69.9659 108.739 69.7529 108.055 69.3269C107.377 68.9009 106.834 68.3309 106.426 67.6169C106.024 66.8969 105.823 66.1019 105.823 65.2319C105.823 64.5719 105.94 63.9569 106.174 63.3869C106.408 62.8109 106.729 62.3069 107.137 61.8749C107.551 61.4369 108.031 61.0949 108.577 60.8489C109.123 60.6029 109.705 60.4799 110.323 60.4799C111.001 60.4799 111.622 60.6179 112.186 60.8939C112.756 61.1639 113.242 61.5419 113.644 62.0279C114.052 62.5139 114.355 63.0779 114.553 63.7199C114.757 64.3619 114.832 65.0489 114.778 65.7809H107.434C107.506 66.2909 107.674 66.7469 107.938 67.1489C108.202 67.5449 108.538 67.8599 108.946 68.0939C109.36 68.3279 109.819 68.4479 110.323 68.4539C110.863 68.4539 111.352 68.3159 111.79 68.0399C112.228 67.7579 112.582 67.3739 112.852 66.8879L114.391 67.2479C114.031 68.0459 113.488 68.6999 112.762 69.2099C112.036 69.7139 111.223 69.9659 110.323 69.9659ZM107.389 64.5929H113.257C113.209 64.0889 113.047 63.6299 112.771 63.2159C112.495 62.7959 112.144 62.4599 111.718 62.2079C111.292 61.9559 110.827 61.8299 110.323 61.8299C109.819 61.8299 109.357 61.9529 108.937 62.1989C108.517 62.4449 108.169 62.7779 107.893 63.1979C107.623 63.6119 107.455 64.0769 107.389 64.5929ZM116.701 69.9659C116.473 69.9659 116.278 69.8849 116.116 69.7229C115.96 69.5609 115.882 69.3629 115.882 69.1289C115.882 68.9069 115.96 68.7149 116.116 68.5529C116.278 68.3909 116.473 68.3099 116.701 68.3099C116.935 68.3099 117.133 68.3909 117.295 68.5529C117.457 68.7149 117.538 68.9069 117.538 69.1289C117.538 69.3629 117.457 69.5609 117.295 69.7229C117.133 69.8849 116.935 69.9659 116.701 69.9659Z" fill="#37455B"/>
</g>
<defs>
<filter id="filter0_dd_6852_17600" x="0.541464" y="0.346342" width="424.917" height="120.38" filterUnits="userSpaceOnUse" color-interpolation-filters="sRGB">
<feFlood flood-opacity="0" result="BackgroundImageFix"/>
<feColorMatrix in="SourceAlpha" type="matrix" values="0 0 0 0 0 0 0 0 0 0 0 0 0 0 0 0 0 0 127 0" result="hardAlpha"/>
<feMorphology radius="3.12195" operator="erode" in="SourceAlpha" result="effect1_dropShadow_6852_17600"/>
<feOffset dy="3.12195"/>
<feGaussianBlur stdDeviation="2.34146"/>
<feComposite in2="hardAlpha" operator="out"/>
<feColorMatrix type="matrix" values="0 0 0 0 0 0 0 0 0 0 0 0 0 0 0 0 0 0 0.1 0"/>
<feBlend mode="normal" in2="BackgroundImageFix" result="effect1_dropShadow_6852_17600"/>
<feColorMatrix in="SourceAlpha" type="matrix" values="0 0 0 0 0 0 0 0 0 0 0 0 0 0 0 0 0 0 127 0" result="hardAlpha"/>
<feMorphology radius="2.34146" operator="erode" in="SourceAlpha" result="effect2_dropShadow_6852_17600"/>
<feOffset dy="7.80488"/>
<feGaussianBlur stdDeviation="10.9"/>
<feComposite in2="hardAlpha" operator="out"/>
<feColorMatrix type="matrix" values="0 0 0 0 0 0 0 0 0 0 0 0 0 0 0 0 0 0 0.25 0"/>
<feBlend mode="normal" in2="effect1_dropShadow_6852_17600" result="effect2_dropShadow_6852_17600"/>
<feBlend mode="normal" in="SourceGraphic" in2="effect2_dropShadow_6852_17600" result="shape"/>
</filter>
</defs>
</svg>
