<svg width="426" height="121" viewBox="0 0 426 121" fill="none" xmlns="http://www.w3.org/2000/svg">
<g filter="url(#filter0_dd_6852_17596)">
<rect x="20" y="12" width="386" height="81.4634" rx="12" fill="white"/>
<rect x="20.3902" y="12.3902" width="385.22" height="80.6829" rx="11.6098" stroke="#E2E8F0" stroke-width="0.780488"/>
<path d="M39.8119 47.7319V35.1319H43.9789C44.8489 35.1319 45.6649 35.2969 46.4269 35.6269C47.1889 35.9509 47.8579 36.4039 48.4339 36.9859C49.0099 37.5619 49.4599 38.2309 49.7839 38.9929C50.1139 39.7489 50.2789 40.5619 50.2789 41.4319C50.2789 42.3019 50.1139 43.1179 49.7839 43.8799C49.4599 44.6359 49.0099 45.3049 48.4339 45.8869C47.8579 46.4629 47.1889 46.9159 46.4269 47.2459C45.6649 47.5699 44.8489 47.7319 43.9789 47.7319H39.8119ZM41.3239 46.2199H43.9789C44.6389 46.2199 45.2569 46.0969 45.8329 45.8509C46.4149 45.5989 46.9249 45.2539 47.3629 44.8159C47.8009 44.3779 48.1429 43.8709 48.3889 43.2949C48.6409 42.7129 48.7669 42.0919 48.7669 41.4319C48.7669 40.7719 48.6409 40.1539 48.3889 39.5779C48.1429 38.9959 47.7979 38.4859 47.3539 38.0479C46.9159 37.6099 46.4089 37.2679 45.8329 37.0219C45.2569 36.7699 44.6389 36.6439 43.9789 36.6439H41.3239V46.2199ZM55.7075 47.9659C54.8795 47.9659 54.1235 47.7529 53.4395 47.3269C52.7615 46.9009 52.2185 46.3309 51.8105 45.6169C51.4085 44.8969 51.2075 44.1019 51.2075 43.2319C51.2075 42.5719 51.3245 41.9569 51.5585 41.3869C51.7925 40.8109 52.1135 40.3069 52.5215 39.8749C52.9355 39.4369 53.4155 39.0949 53.9615 38.8489C54.5075 38.6029 55.0895 38.4799 55.7075 38.4799C56.3855 38.4799 57.0065 38.6179 57.5705 38.8939C58.1405 39.1639 58.6265 39.5419 59.0285 40.0279C59.4365 40.5139 59.7395 41.0779 59.9375 41.7199C60.1415 42.3619 60.2165 43.0489 60.1625 43.7809H52.8185C52.8905 44.2909 53.0585 44.7469 53.3225 45.1489C53.5865 45.5449 53.9225 45.8599 54.3305 46.0939C54.7445 46.3279 55.2035 46.4479 55.7075 46.4539C56.2475 46.4539 56.7365 46.3159 57.1745 46.0399C57.6125 45.7579 57.9665 45.3739 58.2365 44.8879L59.7755 45.2479C59.4155 46.0459 58.8725 46.6999 58.1465 47.2099C57.4205 47.7139 56.6075 47.9659 55.7075 47.9659ZM52.7735 42.5929H58.6415C58.5935 42.0889 58.4315 41.6299 58.1555 41.2159C57.8795 40.7959 57.5285 40.4599 57.1025 40.2079C56.6765 39.9559 56.2115 39.8299 55.7075 39.8299C55.2035 39.8299 54.7415 39.9529 54.3215 40.1989C53.9015 40.4449 53.5535 40.7779 53.2775 41.1979C53.0075 41.6119 52.8395 42.0769 52.7735 42.5929ZM66.2357 40.2439H64.1927L64.1837 47.7319H62.6717L62.6807 40.2439H61.1327V38.7319H62.6807L62.6717 35.9059H64.1837L64.1927 38.7319H66.2357V40.2439ZM71.5805 47.9659C70.7525 47.9659 69.9965 47.7529 69.3125 47.3269C68.6345 46.9009 68.0915 46.3309 67.6835 45.6169C67.2815 44.8969 67.0805 44.1019 67.0805 43.2319C67.0805 42.5719 67.1975 41.9569 67.4315 41.3869C67.6655 40.8109 67.9865 40.3069 68.3945 39.8749C68.8085 39.4369 69.2885 39.0949 69.8345 38.8489C70.3805 38.6029 70.9625 38.4799 71.5805 38.4799C72.2585 38.4799 72.8795 38.6179 73.4435 38.8939C74.0135 39.1639 74.4995 39.5419 74.9015 40.0279C75.3095 40.5139 75.6125 41.0779 75.8105 41.7199C76.0145 42.3619 76.0895 43.0489 76.0355 43.7809H68.6915C68.7635 44.2909 68.9315 44.7469 69.1955 45.1489C69.4595 45.5449 69.7955 45.8599 70.2035 46.0939C70.6175 46.3279 71.0765 46.4479 71.5805 46.4539C72.1205 46.4539 72.6095 46.3159 73.0475 46.0399C73.4855 45.7579 73.8395 45.3739 74.1095 44.8879L75.6485 45.2479C75.2885 46.0459 74.7455 46.6999 74.0195 47.2099C73.2935 47.7139 72.4805 47.9659 71.5805 47.9659ZM68.6465 42.5929H74.5145C74.4665 42.0889 74.3045 41.6299 74.0285 41.2159C73.7525 40.7959 73.4015 40.4599 72.9755 40.2079C72.5495 39.9559 72.0845 39.8299 71.5805 39.8299C71.0765 39.8299 70.6145 39.9529 70.1945 40.1989C69.7745 40.4449 69.4265 40.7779 69.1505 41.1979C68.8805 41.6119 68.7125 42.0769 68.6465 42.5929ZM83.7004 45.3559L85.0504 46.0849C84.6424 46.6549 84.1234 47.1109 83.4934 47.4529C82.8694 47.7949 82.1914 47.9659 81.4594 47.9659C80.6314 47.9659 79.8754 47.7529 79.1914 47.3269C78.5134 46.9009 77.9704 46.3309 77.5624 45.6169C77.1604 44.8969 76.9594 44.1019 76.9594 43.2319C76.9594 42.5719 77.0764 41.9569 77.3104 41.3869C77.5444 40.8109 77.8654 40.3069 78.2734 39.8749C78.6874 39.4369 79.1674 39.0949 79.7134 38.8489C80.2594 38.6029 80.8414 38.4799 81.4594 38.4799C82.1914 38.4799 82.8694 38.6509 83.4934 38.9929C84.1234 39.3349 84.6424 39.7939 85.0504 40.3699L83.7004 41.0989C83.4124 40.7449 83.0704 40.4719 82.6744 40.2799C82.2784 40.0879 81.8734 39.9919 81.4594 39.9919C80.9014 39.9919 80.3944 40.1419 79.9384 40.4419C79.4884 40.7359 79.1314 41.1289 78.8674 41.6209C78.6034 42.1129 78.4714 42.6499 78.4714 43.2319C78.4714 43.8139 78.6034 44.3509 78.8674 44.8429C79.1374 45.3289 79.4974 45.7189 79.9474 46.0129C80.4034 46.3069 80.9074 46.4539 81.4594 46.4539C81.9034 46.4539 82.3204 46.3519 82.7104 46.1479C83.1004 45.9439 83.4304 45.6799 83.7004 45.3559ZM91.3372 40.2439H89.2942L89.2852 47.7319H87.7732L87.7822 40.2439H86.2342V38.7319H87.7822L87.7732 35.9059H89.2852L89.2942 38.7319H91.3372V40.2439ZM96.6821 47.9659C95.8541 47.9659 95.0981 47.7529 94.4141 47.3269C93.7361 46.9009 93.1931 46.3309 92.7851 45.6169C92.3831 44.8969 92.1821 44.1019 92.1821 43.2319C92.1821 42.5719 92.2991 41.9569 92.5331 41.3869C92.7671 40.8109 93.0881 40.3069 93.4961 39.8749C93.9101 39.4369 94.3901 39.0949 94.9361 38.8489C95.4821 38.6029 96.0641 38.4799 96.6821 38.4799C97.3601 38.4799 97.9811 38.6179 98.5451 38.8939C99.1151 39.1639 99.6011 39.5419 100.003 40.0279C100.411 40.5139 100.714 41.0779 100.912 41.7199C101.116 42.3619 101.191 43.0489 101.137 43.7809H93.7931C93.8651 44.2909 94.0331 44.7469 94.2971 45.1489C94.5611 45.5449 94.8971 45.8599 95.3051 46.0939C95.7191 46.3279 96.1781 46.4479 96.6821 46.4539C97.2221 46.4539 97.7111 46.3159 98.1491 46.0399C98.5871 45.7579 98.9411 45.3739 99.2111 44.8879L100.75 45.2479C100.39 46.0459 99.8471 46.6999 99.1211 47.2099C98.3951 47.7139 97.5821 47.9659 96.6821 47.9659ZM93.7481 42.5929H99.6161C99.5681 42.0889 99.4061 41.6299 99.1301 41.2159C98.8541 40.7959 98.5031 40.4599 98.0771 40.2079C97.6511 39.9559 97.1861 39.8299 96.6821 39.8299C96.1781 39.8299 95.7161 39.9529 95.2961 40.1989C94.8761 40.4449 94.5281 40.7779 94.2521 41.1979C93.9821 41.6119 93.8141 42.0769 93.7481 42.5929ZM109.837 38.7319H111.349V47.7319H109.837L109.774 46.2109C109.492 46.7329 109.102 47.1559 108.604 47.4799C108.112 47.8039 107.524 47.9659 106.84 47.9659C106.18 47.9659 105.562 47.8429 104.986 47.5969C104.41 47.3449 103.9 46.9999 103.456 46.5619C103.018 46.1179 102.676 45.6079 102.43 45.0319C102.184 44.4559 102.061 43.8349 102.061 43.1689C102.061 42.5269 102.181 41.9209 102.421 41.3509C102.661 40.7809 102.994 40.2829 103.42 39.8569C103.852 39.4249 104.35 39.0889 104.914 38.8489C105.478 38.6029 106.084 38.4799 106.732 38.4799C107.44 38.4799 108.061 38.6479 108.595 38.9839C109.129 39.3139 109.561 39.7429 109.891 40.2709L109.837 38.7319ZM106.813 46.4989C107.407 46.4989 107.92 46.3549 108.352 46.0669C108.79 45.7729 109.126 45.3769 109.36 44.8789C109.6 44.3809 109.72 43.8319 109.72 43.2319C109.72 42.6199 109.6 42.0679 109.36 41.5759C109.12 41.0779 108.781 40.6849 108.343 40.3969C107.911 40.1029 107.401 39.9559 106.813 39.9559C106.219 39.9559 105.679 40.1029 105.193 40.3969C104.707 40.6909 104.32 41.0869 104.032 41.5849C103.75 42.0769 103.609 42.6259 103.609 43.2319C103.609 43.8379 103.756 44.3899 104.05 44.8879C104.344 45.3799 104.734 45.7729 105.22 46.0669C105.706 46.3549 106.237 46.4989 106.813 46.4989ZM120.474 40.2439L114.939 46.2199H120.474V47.7319H112.788V46.2199L118.323 40.2439H112.788V38.7319H120.474V40.2439ZM129.384 38.7319H130.896V47.7319H129.384L129.321 46.2109C129.039 46.7329 128.649 47.1559 128.151 47.4799C127.659 47.8039 127.071 47.9659 126.387 47.9659C125.727 47.9659 125.109 47.8429 124.533 47.5969C123.957 47.3449 123.447 46.9999 123.003 46.5619C122.565 46.1179 122.223 45.6079 121.977 45.0319C121.731 44.4559 121.608 43.8349 121.608 43.1689C121.608 42.5269 121.728 41.9209 121.968 41.3509C122.208 40.7809 122.541 40.2829 122.967 39.8569C123.399 39.4249 123.897 39.0889 124.461 38.8489C125.025 38.6029 125.631 38.4799 126.279 38.4799C126.987 38.4799 127.608 38.6479 128.142 38.9839C128.676 39.3139 129.108 39.7429 129.438 40.2709L129.384 38.7319ZM126.36 46.4989C126.954 46.4989 127.467 46.3549 127.899 46.0669C128.337 45.7729 128.673 45.3769 128.907 44.8789C129.147 44.3809 129.267 43.8319 129.267 43.2319C129.267 42.6199 129.147 42.0679 128.907 41.5759C128.667 41.0779 128.328 40.6849 127.89 40.3969C127.458 40.1029 126.948 39.9559 126.36 39.9559C125.766 39.9559 125.226 40.1029 124.74 40.3969C124.254 40.6909 123.867 41.0869 123.579 41.5849C123.297 42.0769 123.156 42.6259 123.156 43.2319C123.156 43.8379 123.303 44.3899 123.597 44.8879C123.891 45.3799 124.281 45.7729 124.767 46.0669C125.253 46.3549 125.784 46.4989 126.36 46.4989ZM126.477 37.9399C125.931 37.9399 125.43 37.8049 124.974 37.5349C124.524 37.2649 124.164 36.9049 123.894 36.4549C123.624 35.9989 123.489 35.4979 123.489 34.9519H124.515C124.515 35.3179 124.605 35.6509 124.785 35.9509C124.971 36.2449 125.211 36.4789 125.505 36.6529C125.805 36.8269 126.129 36.9139 126.477 36.9139C126.837 36.9139 127.164 36.8269 127.458 36.6529C127.758 36.4789 127.995 36.2419 128.169 35.9419C128.349 35.6419 128.439 35.3119 128.439 34.9519H129.465C129.465 35.5099 129.327 36.0169 129.051 36.4729C128.781 36.9229 128.418 37.2799 127.962 37.5439C127.512 37.8079 127.017 37.9399 126.477 37.9399ZM144.345 40.2439L138.81 46.2199H144.345V47.7319H136.659V46.2199L142.194 40.2439H136.659V38.7319H144.345V40.2439ZM149.979 47.9659C149.151 47.9659 148.395 47.7529 147.711 47.3269C147.033 46.9009 146.49 46.3309 146.082 45.6169C145.68 44.8969 145.479 44.1019 145.479 43.2319C145.479 42.5719 145.596 41.9569 145.83 41.3869C146.064 40.8109 146.385 40.3069 146.793 39.8749C147.207 39.4369 147.687 39.0949 148.233 38.8489C148.779 38.6029 149.361 38.4799 149.979 38.4799C150.807 38.4799 151.56 38.6929 152.238 39.1189C152.922 39.5449 153.465 40.1179 153.867 40.8379C154.275 41.5579 154.479 42.3559 154.479 43.2319C154.479 43.8859 154.362 44.4979 154.128 45.0679C153.894 45.6379 153.57 46.1419 153.156 46.5799C152.748 47.0119 152.271 47.3509 151.725 47.5969C151.185 47.8429 150.603 47.9659 149.979 47.9659ZM149.979 46.4539C150.543 46.4539 151.05 46.3069 151.5 46.0129C151.956 45.7129 152.313 45.3199 152.571 44.8339C152.835 44.3419 152.967 43.8079 152.967 43.2319C152.967 42.6439 152.832 42.1039 152.562 41.6119C152.298 41.1199 151.941 40.7269 151.491 40.4329C151.041 40.1389 150.537 39.9919 149.979 39.9919C149.415 39.9919 148.908 40.1419 148.458 40.4419C148.008 40.7359 147.651 41.1289 147.387 41.6209C147.123 42.1129 146.991 42.6499 146.991 43.2319C146.991 43.8319 147.126 44.3779 147.396 44.8699C147.666 45.3559 148.029 45.7429 148.485 46.0309C148.941 46.3129 149.439 46.4539 149.979 46.4539ZM163.924 42.1339V47.7319H162.412V42.4669C162.412 42.0109 162.301 41.5969 162.079 41.2249C161.857 40.8529 161.56 40.5589 161.188 40.3429C160.816 40.1209 160.402 40.0099 159.946 40.0099C159.496 40.0099 159.082 40.1209 158.704 40.3429C158.332 40.5589 158.035 40.8529 157.813 41.2249C157.591 41.5969 157.48 42.0109 157.48 42.4669V47.7319H155.968V38.7319H157.48V39.8569C157.798 39.4369 158.2 39.1039 158.686 38.8579C159.172 38.6059 159.7 38.4799 160.27 38.4799C160.942 38.4799 161.554 38.6449 162.106 38.9749C162.664 39.2989 163.105 39.7369 163.429 40.2889C163.759 40.8409 163.924 41.4559 163.924 42.1339ZM169.508 47.9659C168.68 47.9659 167.924 47.7529 167.24 47.3269C166.562 46.9009 166.019 46.3309 165.611 45.6169C165.209 44.8969 165.008 44.1019 165.008 43.2319C165.008 42.5719 165.125 41.9569 165.359 41.3869C165.593 40.8109 165.914 40.3069 166.322 39.8749C166.736 39.4369 167.216 39.0949 167.762 38.8489C168.308 38.6029 168.89 38.4799 169.508 38.4799C170.186 38.4799 170.807 38.6179 171.371 38.8939C171.941 39.1639 172.427 39.5419 172.829 40.0279C173.237 40.5139 173.54 41.0779 173.738 41.7199C173.942 42.3619 174.017 43.0489 173.963 43.7809H166.619C166.691 44.2909 166.859 44.7469 167.123 45.1489C167.387 45.5449 167.723 45.8599 168.131 46.0939C168.545 46.3279 169.004 46.4479 169.508 46.4539C170.048 46.4539 170.537 46.3159 170.975 46.0399C171.413 45.7579 171.767 45.3739 172.037 44.8879L173.576 45.2479C173.216 46.0459 172.673 46.6999 171.947 47.2099C171.221 47.7139 170.408 47.9659 169.508 47.9659ZM166.574 42.5929H172.442C172.394 42.0889 172.232 41.6299 171.956 41.2159C171.68 40.7959 171.329 40.4599 170.903 40.2079C170.477 39.9559 170.012 39.8299 169.508 39.8299C169.004 39.8299 168.542 39.9529 168.122 40.1989C167.702 40.4449 167.354 40.7779 167.078 41.1979C166.808 41.6119 166.64 42.0769 166.574 42.5929ZM175.392 47.7319V34.2319H176.904V47.7319H175.392ZM182.938 47.9659C182.11 47.9659 181.354 47.7529 180.67 47.3269C179.992 46.9009 179.449 46.3309 179.041 45.6169C178.639 44.8969 178.438 44.1019 178.438 43.2319C178.438 42.5719 178.555 41.9569 178.789 41.3869C179.023 40.8109 179.344 40.3069 179.752 39.8749C180.166 39.4369 180.646 39.0949 181.192 38.8489C181.738 38.6029 182.32 38.4799 182.938 38.4799C183.616 38.4799 184.237 38.6179 184.801 38.8939C185.371 39.1639 185.857 39.5419 186.259 40.0279C186.667 40.5139 186.97 41.0779 187.168 41.7199C187.372 42.3619 187.447 43.0489 187.393 43.7809H180.049C180.121 44.2909 180.289 44.7469 180.553 45.1489C180.817 45.5449 181.153 45.8599 181.561 46.0939C181.975 46.3279 182.434 46.4479 182.938 46.4539C183.478 46.4539 183.967 46.3159 184.405 46.0399C184.843 45.7579 185.197 45.3739 185.467 44.8879L187.006 45.2479C186.646 46.0459 186.103 46.6999 185.377 47.2099C184.651 47.7139 183.838 47.9659 182.938 47.9659ZM180.004 42.5929H185.872C185.824 42.0889 185.662 41.6299 185.386 41.2159C185.11 40.7959 184.759 40.4599 184.333 40.2079C183.907 39.9559 183.442 39.8299 182.938 39.8299C182.434 39.8299 181.972 39.9529 181.552 40.1989C181.132 40.4449 180.784 40.7779 180.508 41.1979C180.238 41.6119 180.07 42.0769 180.004 42.5929ZM199.558 45.3559L200.908 46.0849C200.5 46.6549 199.981 47.1109 199.351 47.4529C198.727 47.7949 198.049 47.9659 197.317 47.9659C196.489 47.9659 195.733 47.7529 195.049 47.3269C194.371 46.9009 193.828 46.3309 193.42 45.6169C193.018 44.8969 192.817 44.1019 192.817 43.2319C192.817 42.5719 192.934 41.9569 193.168 41.3869C193.402 40.8109 193.723 40.3069 194.131 39.8749C194.545 39.4369 195.025 39.0949 195.571 38.8489C196.117 38.6029 196.699 38.4799 197.317 38.4799C198.049 38.4799 198.727 38.6509 199.351 38.9929C199.981 39.3349 200.5 39.7939 200.908 40.3699L199.558 41.0989C199.27 40.7449 198.928 40.4719 198.532 40.2799C198.136 40.0879 197.731 39.9919 197.317 39.9919C196.759 39.9919 196.252 40.1419 195.796 40.4419C195.346 40.7359 194.989 41.1289 194.725 41.6209C194.461 42.1129 194.329 42.6499 194.329 43.2319C194.329 43.8139 194.461 44.3509 194.725 44.8429C194.995 45.3289 195.355 45.7189 195.805 46.0129C196.261 46.3069 196.765 46.4539 197.317 46.4539C197.761 46.4539 198.178 46.3519 198.568 46.1479C198.958 45.9439 199.288 45.6799 199.558 45.3559ZM202.05 44.3119V38.7319H203.562V43.9789C203.562 44.4349 203.673 44.8489 203.895 45.2209C204.117 45.5929 204.414 45.8899 204.786 46.1119C205.164 46.3279 205.578 46.4359 206.028 46.4359C206.484 46.4359 206.895 46.3279 207.261 46.1119C207.633 45.8899 207.93 45.5929 208.152 45.2209C208.374 44.8489 208.485 44.4349 208.485 43.9789V38.7319H209.997L210.006 47.7319H208.494L208.485 46.5889C208.167 47.0089 207.765 47.3449 207.279 47.5969C206.793 47.8429 206.268 47.9659 205.704 47.9659C205.032 47.9659 204.417 47.8039 203.859 47.4799C203.307 47.1499 202.866 46.7089 202.536 46.1569C202.212 45.6049 202.05 44.9899 202.05 44.3119ZM216.138 47.7319V38.7319H217.65V39.8569C217.968 39.4369 218.37 39.1039 218.856 38.8579C219.342 38.6059 219.87 38.4799 220.44 38.4799C220.788 38.4799 221.124 38.5249 221.448 38.6149L220.836 40.1269C220.59 40.0489 220.35 40.0099 220.116 40.0099C219.666 40.0099 219.252 40.1209 218.874 40.3429C218.502 40.5589 218.205 40.8529 217.983 41.2249C217.761 41.5969 217.65 42.0109 217.65 42.4669V47.7319H216.138ZM222.554 38.7319H224.066V47.7319H222.554V38.7319ZM223.328 37.2649C223.088 37.2649 222.887 37.1869 222.725 37.0309C222.563 36.8749 222.482 36.6799 222.482 36.4459C222.482 36.2119 222.563 36.0169 222.725 35.8609C222.887 35.7049 223.085 35.6269 223.319 35.6269C223.553 35.6269 223.751 35.7049 223.913 35.8609C224.075 36.0169 224.156 36.2119 224.156 36.4459C224.156 36.6799 224.075 36.8749 223.913 37.0309C223.757 37.1869 223.562 37.2649 223.328 37.2649ZM228.885 47.9029C228.399 47.8849 227.925 47.7949 227.463 47.6329C227.007 47.4649 226.605 47.2399 226.257 46.9579C225.915 46.6699 225.666 46.3399 225.51 45.9679L226.806 45.4099C226.896 45.6139 227.058 45.8059 227.292 45.9859C227.526 46.1659 227.796 46.3099 228.102 46.4179C228.408 46.5259 228.717 46.5799 229.029 46.5799C229.359 46.5799 229.668 46.5289 229.956 46.4269C230.244 46.3249 230.478 46.1749 230.658 45.9769C230.844 45.7729 230.937 45.5299 230.937 45.2479C230.937 44.9479 230.835 44.7139 230.631 44.5459C230.433 44.3719 230.181 44.2369 229.875 44.1409C229.575 44.0389 229.269 43.9429 228.957 43.8529C228.339 43.6969 227.787 43.5109 227.301 43.2949C226.815 43.0729 226.431 42.7939 226.149 42.4579C225.873 42.1159 225.735 41.6809 225.735 41.1529C225.735 40.5949 225.888 40.1119 226.194 39.7039C226.506 39.2959 226.914 38.9809 227.418 38.7589C227.922 38.5369 228.462 38.4259 229.038 38.4259C229.764 38.4259 230.427 38.5819 231.027 38.8939C231.627 39.2059 232.074 39.6289 232.368 40.1629L231.153 40.8739C231.051 40.6579 230.895 40.4689 230.685 40.3069C230.475 40.1389 230.235 40.0069 229.965 39.9109C229.695 39.8149 229.419 39.7639 229.137 39.7579C228.789 39.7459 228.462 39.7909 228.156 39.8929C227.856 39.9949 227.613 40.1509 227.427 40.3609C227.247 40.5649 227.157 40.8199 227.157 41.1259C227.157 41.4259 227.253 41.6539 227.445 41.8099C227.643 41.9659 227.898 42.0919 228.21 42.1879C228.528 42.2779 228.873 42.3829 229.245 42.5029C229.791 42.6769 230.301 42.8779 230.775 43.1059C231.249 43.3339 231.63 43.6189 231.918 43.9609C232.212 44.3029 232.356 44.7259 232.35 45.2299C232.35 45.7819 232.185 46.2649 231.855 46.6789C231.525 47.0869 231.096 47.3989 230.568 47.6149C230.046 47.8309 229.485 47.9269 228.885 47.9029ZM240.005 45.3559L241.355 46.0849C240.947 46.6549 240.428 47.1109 239.798 47.4529C239.174 47.7949 238.496 47.9659 237.764 47.9659C236.936 47.9659 236.18 47.7529 235.496 47.3269C234.818 46.9009 234.275 46.3309 233.867 45.6169C233.465 44.8969 233.264 44.1019 233.264 43.2319C233.264 42.5719 233.381 41.9569 233.615 41.3869C233.849 40.8109 234.17 40.3069 234.578 39.8749C234.992 39.4369 235.472 39.0949 236.018 38.8489C236.564 38.6029 237.146 38.4799 237.764 38.4799C238.496 38.4799 239.174 38.6509 239.798 38.9929C240.428 39.3349 240.947 39.7939 241.355 40.3699L240.005 41.0989C239.717 40.7449 239.375 40.4719 238.979 40.2799C238.583 40.0879 238.178 39.9919 237.764 39.9919C237.206 39.9919 236.699 40.1419 236.243 40.4419C235.793 40.7359 235.436 41.1289 235.172 41.6209C234.908 42.1129 234.776 42.6499 234.776 43.2319C234.776 43.8139 234.908 44.3509 235.172 44.8429C235.442 45.3289 235.802 45.7189 236.252 46.0129C236.708 46.3069 237.212 46.4539 237.764 46.4539C238.208 46.4539 238.625 46.3519 239.015 46.1479C239.405 45.9439 239.735 45.6799 240.005 45.3559ZM253.505 45.3559L254.855 46.0849C254.447 46.6549 253.928 47.1109 253.298 47.4529C252.674 47.7949 251.996 47.9659 251.264 47.9659C250.436 47.9659 249.68 47.7529 248.996 47.3269C248.318 46.9009 247.775 46.3309 247.367 45.6169C246.965 44.8969 246.764 44.1019 246.764 43.2319C246.764 42.5719 246.881 41.9569 247.115 41.3869C247.349 40.8109 247.67 40.3069 248.078 39.8749C248.492 39.4369 248.972 39.0949 249.518 38.8489C250.064 38.6029 250.646 38.4799 251.264 38.4799C251.996 38.4799 252.674 38.6509 253.298 38.9929C253.928 39.3349 254.447 39.7939 254.855 40.3699L253.505 41.0989C253.217 40.7449 252.875 40.4719 252.479 40.2799C252.083 40.0879 251.678 39.9919 251.264 39.9919C250.706 39.9919 250.199 40.1419 249.743 40.4419C249.293 40.7359 248.936 41.1289 248.672 41.6209C248.408 42.1129 248.276 42.6499 248.276 43.2319C248.276 43.8139 248.408 44.3509 248.672 44.8429C248.942 45.3289 249.302 45.7189 249.752 46.0129C250.208 46.3069 250.712 46.4539 251.264 46.4539C251.708 46.4539 252.125 46.3519 252.515 46.1479C252.905 45.9439 253.235 45.6799 253.505 45.3559ZM256.48 47.7319V38.7319H257.992V39.8569C258.31 39.4369 258.712 39.1039 259.198 38.8579C259.684 38.6059 260.212 38.4799 260.782 38.4799C261.13 38.4799 261.466 38.5249 261.79 38.6149L261.178 40.1269C260.932 40.0489 260.692 40.0099 260.458 40.0099C260.008 40.0099 259.594 40.1209 259.216 40.3429C258.844 40.5589 258.547 40.8529 258.325 41.2249C258.103 41.5969 257.992 42.0109 257.992 42.4669V47.7319H256.48ZM266.399 47.9659C265.571 47.9659 264.815 47.7529 264.131 47.3269C263.453 46.9009 262.91 46.3309 262.502 45.6169C262.1 44.8969 261.899 44.1019 261.899 43.2319C261.899 42.5719 262.016 41.9569 262.25 41.3869C262.484 40.8109 262.805 40.3069 263.213 39.8749C263.627 39.4369 264.107 39.0949 264.653 38.8489C265.199 38.6029 265.781 38.4799 266.399 38.4799C267.077 38.4799 267.698 38.6179 268.262 38.8939C268.832 39.1639 269.318 39.5419 269.72 40.0279C270.128 40.5139 270.431 41.0779 270.629 41.7199C270.833 42.3619 270.908 43.0489 270.854 43.7809H263.51C263.582 44.2909 263.75 44.7469 264.014 45.1489C264.278 45.5449 264.614 45.8599 265.022 46.0939C265.436 46.3279 265.895 46.4479 266.399 46.4539C266.939 46.4539 267.428 46.3159 267.866 46.0399C268.304 45.7579 268.658 45.3739 268.928 44.8879L270.467 45.2479C270.107 46.0459 269.564 46.6999 268.838 47.2099C268.112 47.7139 267.299 47.9659 266.399 47.9659ZM263.465 42.5929H269.333C269.285 42.0889 269.123 41.6299 268.847 41.2159C268.571 40.7959 268.22 40.4599 267.794 40.2079C267.368 39.9559 266.903 39.8299 266.399 39.8299C265.895 39.8299 265.433 39.9529 265.013 40.1989C264.593 40.4449 264.245 40.7779 263.969 41.1979C263.699 41.6119 263.531 42.0769 263.465 42.5929ZM275.151 47.9029C274.665 47.8849 274.191 47.7949 273.729 47.6329C273.273 47.4649 272.871 47.2399 272.523 46.9579C272.181 46.6699 271.932 46.3399 271.776 45.9679L273.072 45.4099C273.162 45.6139 273.324 45.8059 273.558 45.9859C273.792 46.1659 274.062 46.3099 274.368 46.4179C274.674 46.5259 274.983 46.5799 275.295 46.5799C275.625 46.5799 275.934 46.5289 276.222 46.4269C276.51 46.3249 276.744 46.1749 276.924 45.9769C277.11 45.7729 277.203 45.5299 277.203 45.2479C277.203 44.9479 277.101 44.7139 276.897 44.5459C276.699 44.3719 276.447 44.2369 276.141 44.1409C275.841 44.0389 275.535 43.9429 275.223 43.8529C274.605 43.6969 274.053 43.5109 273.567 43.2949C273.081 43.0729 272.697 42.7939 272.415 42.4579C272.139 42.1159 272.001 41.6809 272.001 41.1529C272.001 40.5949 272.154 40.1119 272.46 39.7039C272.772 39.2959 273.18 38.9809 273.684 38.7589C274.188 38.5369 274.728 38.4259 275.304 38.4259C276.03 38.4259 276.693 38.5819 277.293 38.8939C277.893 39.2059 278.34 39.6289 278.634 40.1629L277.419 40.8739C277.317 40.6579 277.161 40.4689 276.951 40.3069C276.741 40.1389 276.501 40.0069 276.231 39.9109C275.961 39.8149 275.685 39.7639 275.403 39.7579C275.055 39.7459 274.728 39.7909 274.422 39.8929C274.122 39.9949 273.879 40.1509 273.693 40.3609C273.513 40.5649 273.423 40.8199 273.423 41.1259C273.423 41.4259 273.519 41.6539 273.711 41.8099C273.909 41.9659 274.164 42.0919 274.476 42.1879C274.794 42.2779 275.139 42.3829 275.511 42.5029C276.057 42.6769 276.567 42.8779 277.041 43.1059C277.515 43.3339 277.896 43.6189 278.184 43.9609C278.478 44.3029 278.622 44.7259 278.616 45.2299C278.616 45.7819 278.451 46.2649 278.121 46.6789C277.791 47.0869 277.362 47.3989 276.834 47.6149C276.312 47.8309 275.751 47.9269 275.151 47.9029ZM286.271 45.3559L287.621 46.0849C287.213 46.6549 286.694 47.1109 286.064 47.4529C285.44 47.7949 284.762 47.9659 284.03 47.9659C283.202 47.9659 282.446 47.7529 281.762 47.3269C281.084 46.9009 280.541 46.3309 280.133 45.6169C279.731 44.8969 279.53 44.1019 279.53 43.2319C279.53 42.5719 279.647 41.9569 279.881 41.3869C280.115 40.8109 280.436 40.3069 280.844 39.8749C281.258 39.4369 281.738 39.0949 282.284 38.8489C282.83 38.6029 283.412 38.4799 284.03 38.4799C284.762 38.4799 285.44 38.6509 286.064 38.9929C286.694 39.3349 287.213 39.7939 287.621 40.3699L286.271 41.0989C285.983 40.7449 285.641 40.4719 285.245 40.2799C284.849 40.0879 284.444 39.9919 284.03 39.9919C283.472 39.9919 282.965 40.1419 282.509 40.4419C282.059 40.7359 281.702 41.1289 281.438 41.6209C281.174 42.1129 281.042 42.6499 281.042 43.2319C281.042 43.8139 281.174 44.3509 281.438 44.8429C281.708 45.3289 282.068 45.7189 282.518 46.0129C282.974 46.3069 283.478 46.4539 284.03 46.4539C284.474 46.4539 284.891 46.3519 285.281 46.1479C285.671 45.9439 286.001 45.6799 286.271 45.3559ZM288.762 44.3119V38.7319H290.274V43.9789C290.274 44.4349 290.385 44.8489 290.607 45.2209C290.829 45.5929 291.126 45.8899 291.498 46.1119C291.876 46.3279 292.29 46.4359 292.74 46.4359C293.196 46.4359 293.607 46.3279 293.973 46.1119C294.345 45.8899 294.642 45.5929 294.864 45.2209C295.086 44.8489 295.197 44.4349 295.197 43.9789V38.7319H296.709L296.718 47.7319H295.206L295.197 46.5889C294.879 47.0089 294.477 47.3449 293.991 47.5969C293.505 47.8429 292.98 47.9659 292.416 47.9659C291.744 47.9659 291.129 47.8039 290.571 47.4799C290.019 47.1499 289.578 46.7089 289.248 46.1569C288.924 45.6049 288.762 44.9899 288.762 44.3119ZM303.189 40.2439H301.146L301.137 47.7319H299.625L299.634 40.2439H298.086V38.7319H299.634L299.625 35.9059H301.137L301.146 38.7319H303.189V40.2439ZM316.371 34.2319H317.883V47.7319H316.371V46.2019C316.065 46.7299 315.654 47.1559 315.138 47.4799C314.622 47.8039 314.016 47.9659 313.32 47.9659C312.666 47.9659 312.054 47.8429 311.484 47.5969C310.914 47.3509 310.41 47.0119 309.972 46.5799C309.54 46.1419 309.201 45.6379 308.955 45.0679C308.709 44.4979 308.586 43.8859 308.586 43.2319C308.586 42.5779 308.709 41.9659 308.955 41.3959C309.201 40.8199 309.54 40.3159 309.972 39.8839C310.41 39.4459 310.914 39.1039 311.484 38.8579C312.054 38.6119 312.666 38.4889 313.32 38.4889C314.016 38.4889 314.622 38.6509 315.138 38.9749C315.654 39.2989 316.065 39.7249 316.371 40.2529V34.2319ZM313.338 46.4989C313.932 46.4989 314.445 46.3549 314.877 46.0669C315.315 45.7729 315.651 45.3769 315.885 44.8789C316.125 44.3809 316.245 43.8319 316.245 43.2319C316.245 42.6199 316.125 42.0679 315.885 41.5759C315.645 41.0779 315.306 40.6849 314.868 40.3969C314.436 40.1029 313.926 39.9559 313.338 39.9559C312.744 39.9559 312.204 40.1029 311.718 40.3969C311.238 40.6909 310.854 41.0869 310.566 41.5849C310.278 42.0769 310.134 42.6259 310.134 43.2319C310.134 43.8379 310.281 44.3899 310.575 44.8879C310.869 45.3799 311.259 45.7729 311.745 46.0669C312.231 46.3549 312.762 46.4989 313.338 46.4989ZM323.915 47.9659C323.087 47.9659 322.331 47.7529 321.647 47.3269C320.969 46.9009 320.426 46.3309 320.018 45.6169C319.616 44.8969 319.415 44.1019 319.415 43.2319C319.415 42.5719 319.532 41.9569 319.766 41.3869C320 40.8109 320.321 40.3069 320.729 39.8749C321.143 39.4369 321.623 39.0949 322.169 38.8489C322.715 38.6029 323.297 38.4799 323.915 38.4799C324.593 38.4799 325.214 38.6179 325.778 38.8939C326.348 39.1639 326.834 39.5419 327.236 40.0279C327.644 40.5139 327.947 41.0779 328.145 41.7199C328.349 42.3619 328.424 43.0489 328.37 43.7809H321.026C321.098 44.2909 321.266 44.7469 321.53 45.1489C321.794 45.5449 322.13 45.8599 322.538 46.0939C322.952 46.3279 323.411 46.4479 323.915 46.4539C324.455 46.4539 324.944 46.3159 325.382 46.0399C325.82 45.7579 326.174 45.3739 326.444 44.8879L327.983 45.2479C327.623 46.0459 327.08 46.6999 326.354 47.2099C325.628 47.7139 324.815 47.9659 323.915 47.9659ZM320.981 42.5929H326.849C326.801 42.0889 326.639 41.6299 326.363 41.2159C326.087 40.7959 325.736 40.4599 325.31 40.2079C324.884 39.9559 324.419 39.8299 323.915 39.8299C323.411 39.8299 322.949 39.9529 322.529 40.1989C322.109 40.4449 321.761 40.7779 321.485 41.1979C321.215 41.6119 321.047 42.0769 320.981 42.5929ZM39.8119 60.7319H41.3239V69.7319H39.8119V60.7319ZM40.5859 59.2649C40.3459 59.2649 40.1449 59.1869 39.9829 59.0309C39.8209 58.8749 39.7399 58.6799 39.7399 58.4459C39.7399 58.2119 39.8209 58.0169 39.9829 57.8609C40.1449 57.7049 40.3429 57.6269 40.5769 57.6269C40.8109 57.6269 41.0089 57.7049 41.1709 57.8609C41.3329 58.0169 41.4139 58.2119 41.4139 58.4459C41.4139 58.6799 41.3329 58.8749 41.1709 59.0309C41.0149 59.1869 40.8199 59.2649 40.5859 59.2649ZM51.389 64.1339V69.7319H49.877V64.4669C49.877 64.0109 49.766 63.5969 49.544 63.2249C49.322 62.8529 49.025 62.5589 48.653 62.3429C48.281 62.1209 47.867 62.0099 47.411 62.0099C46.961 62.0099 46.547 62.1209 46.169 62.3429C45.797 62.5589 45.5 62.8529 45.278 63.2249C45.056 63.5969 44.945 64.0109 44.945 64.4669V69.7319H43.433V60.7319H44.945V61.8569C45.263 61.4369 45.665 61.1039 46.151 60.8579C46.637 60.6059 47.165 60.4799 47.735 60.4799C48.407 60.4799 49.019 60.6449 49.571 60.9749C50.129 61.2989 50.57 61.7369 50.894 62.2889C51.224 62.8409 51.389 63.4559 51.389 64.1339ZM55.2319 58.5089V60.7319H57.8689V62.2439H55.2319V69.7319H53.7199V62.2439H52.5589V60.7319H53.7199V58.5089C53.7199 58.0469 53.8309 57.6299 54.0529 57.2579C54.2809 56.8799 54.5839 56.5799 54.9619 56.3579C55.3459 56.1299 55.7659 56.0159 56.2219 56.0159C56.5579 56.0159 56.8849 56.0849 57.2029 56.2229C57.5209 56.3549 57.8029 56.5529 58.0489 56.8169L56.9689 57.8879C56.8849 57.7739 56.7739 57.6869 56.6359 57.6269C56.5039 57.5609 56.3659 57.5279 56.2219 57.5279C55.9519 57.5279 55.7179 57.6239 55.5199 57.8159C55.3279 58.0079 55.2319 58.2389 55.2319 58.5089ZM63.0727 69.9659C62.2447 69.9659 61.4887 69.7529 60.8047 69.3269C60.1267 68.9009 59.5837 68.3309 59.1757 67.6169C58.7737 66.8969 58.5727 66.1019 58.5727 65.2319C58.5727 64.5719 58.6897 63.9569 58.9237 63.3869C59.1577 62.8109 59.4787 62.3069 59.8867 61.8749C60.3007 61.4369 60.7807 61.0949 61.3267 60.8489C61.8727 60.6029 62.4547 60.4799 63.0727 60.4799C63.7507 60.4799 64.3717 60.6179 64.9357 60.8939C65.5057 61.1639 65.9917 61.5419 66.3937 62.0279C66.8017 62.5139 67.1047 63.0779 67.3027 63.7199C67.5067 64.3619 67.5817 65.0489 67.5277 65.7809H60.1837C60.2557 66.2909 60.4237 66.7469 60.6877 67.1489C60.9517 67.5449 61.2877 67.8599 61.6957 68.0939C62.1097 68.3279 62.5687 68.4479 63.0727 68.4539C63.6127 68.4539 64.1017 68.3159 64.5397 68.0399C64.9777 67.7579 65.3317 67.3739 65.6017 66.8879L67.1407 67.2479C66.7807 68.0459 66.2377 68.6999 65.5117 69.2099C64.7857 69.7139 63.9727 69.9659 63.0727 69.9659ZM60.1387 64.5929H66.0067C65.9587 64.0889 65.7967 63.6299 65.5207 63.2159C65.2447 62.7959 64.8937 62.4599 64.4677 62.2079C64.0417 61.9559 63.5767 61.8299 63.0727 61.8299C62.5687 61.8299 62.1067 61.9529 61.6867 62.1989C61.2667 62.4449 60.9187 62.7779 60.6427 63.1979C60.3727 63.6119 60.2047 64.0769 60.1387 64.5929ZM71.8245 69.9029C71.3385 69.8849 70.8645 69.7949 70.4025 69.6329C69.9465 69.4649 69.5445 69.2399 69.1965 68.9579C68.8545 68.6699 68.6055 68.3399 68.4495 67.9679L69.7455 67.4099C69.8355 67.6139 69.9975 67.8059 70.2315 67.9859C70.4655 68.1659 70.7355 68.3099 71.0415 68.4179C71.3475 68.5259 71.6565 68.5799 71.9685 68.5799C72.2985 68.5799 72.6075 68.5289 72.8955 68.4269C73.1835 68.3249 73.4175 68.1749 73.5975 67.9769C73.7835 67.7729 73.8765 67.5299 73.8765 67.2479C73.8765 66.9479 73.7745 66.7139 73.5705 66.5459C73.3725 66.3719 73.1205 66.2369 72.8145 66.1409C72.5145 66.0389 72.2085 65.9429 71.8965 65.8529C71.2785 65.6969 70.7265 65.5109 70.2405 65.2949C69.7545 65.0729 69.3705 64.7939 69.0885 64.4579C68.8125 64.1159 68.6745 63.6809 68.6745 63.1529C68.6745 62.5949 68.8275 62.1119 69.1335 61.7039C69.4455 61.2959 69.8535 60.9809 70.3575 60.7589C70.8615 60.5369 71.4015 60.4259 71.9775 60.4259C72.7035 60.4259 73.3665 60.5819 73.9665 60.8939C74.5665 61.2059 75.0135 61.6289 75.3075 62.1629L74.0925 62.8739C73.9905 62.6579 73.8345 62.4689 73.6245 62.3069C73.4145 62.1389 73.1745 62.0069 72.9045 61.9109C72.6345 61.8149 72.3585 61.7639 72.0765 61.7579C71.7285 61.7459 71.4015 61.7909 71.0955 61.8929C70.7955 61.9949 70.5525 62.1509 70.3665 62.3609C70.1865 62.5649 70.0965 62.8199 70.0965 63.1259C70.0965 63.4259 70.1925 63.6539 70.3845 63.8099C70.5825 63.9659 70.8375 64.0919 71.1495 64.1879C71.4675 64.2779 71.8125 64.3829 72.1845 64.5029C72.7305 64.6769 73.2405 64.8779 73.7145 65.1059C74.1885 65.3339 74.5695 65.6189 74.8575 65.9609C75.1515 66.3029 75.2955 66.7259 75.2895 67.2299C75.2895 67.7819 75.1245 68.2649 74.7945 68.6789C74.4645 69.0869 74.0355 69.3989 73.5075 69.6149C72.9855 69.8309 72.4245 69.9269 71.8245 69.9029ZM81.4935 62.2439H79.4505L79.4415 69.7319H77.9295L77.9385 62.2439H76.3905V60.7319H77.9385L77.9295 57.9059H79.4415L79.4505 60.7319H81.4935V62.2439ZM90.1143 60.7319H91.6263V69.7319H90.1143L90.0513 68.2109C89.7693 68.7329 89.3793 69.1559 88.8813 69.4799C88.3893 69.8039 87.8013 69.9659 87.1173 69.9659C86.4573 69.9659 85.8393 69.8429 85.2633 69.5969C84.6873 69.3449 84.1773 68.9999 83.7333 68.5619C83.2953 68.1179 82.9533 67.6079 82.7073 67.0319C82.4613 66.4559 82.3383 65.8349 82.3383 65.1689C82.3383 64.5269 82.4583 63.9209 82.6983 63.3509C82.9383 62.7809 83.2713 62.2829 83.6973 61.8569C84.1293 61.4249 84.6273 61.0889 85.1913 60.8489C85.7553 60.6029 86.3613 60.4799 87.0093 60.4799C87.7173 60.4799 88.3383 60.6479 88.8723 60.9839C89.4063 61.3139 89.8383 61.7429 90.1683 62.2709L90.1143 60.7319ZM87.0903 68.4989C87.6843 68.4989 88.1973 68.3549 88.6293 68.0669C89.0673 67.7729 89.4033 67.3769 89.6373 66.8789C89.8773 66.3809 89.9973 65.8319 89.9973 65.2319C89.9973 64.6199 89.8773 64.0679 89.6373 63.5759C89.3973 63.0779 89.0583 62.6849 88.6203 62.3969C88.1883 62.1029 87.6783 61.9559 87.0903 61.9559C86.4963 61.9559 85.9563 62.1029 85.4703 62.3969C84.9843 62.6909 84.5973 63.0869 84.3093 63.5849C84.0273 64.0769 83.8863 64.6259 83.8863 65.2319C83.8863 65.8379 84.0333 66.3899 84.3273 66.8879C84.6213 67.3799 85.0113 67.7729 85.4973 68.0669C85.9833 68.3549 86.5143 68.4989 87.0903 68.4989ZM93.4252 69.7319V60.7319H94.9372V61.8569C95.2552 61.4369 95.6572 61.1039 96.1432 60.8579C96.6292 60.6059 97.1572 60.4799 97.7272 60.4799C98.0752 60.4799 98.4112 60.5249 98.7352 60.6149L98.1232 62.1269C97.8772 62.0489 97.6372 62.0099 97.4032 62.0099C96.9532 62.0099 96.5392 62.1209 96.1612 62.3429C95.7892 62.5589 95.4922 62.8529 95.2702 63.2249C95.0482 63.5969 94.9372 64.0109 94.9372 64.4669V69.7319H93.4252ZM103.344 69.9659C102.516 69.9659 101.76 69.7529 101.076 69.3269C100.398 68.9009 99.8552 68.3309 99.4472 67.6169C99.0452 66.8969 98.8442 66.1019 98.8442 65.2319C98.8442 64.5719 98.9612 63.9569 99.1952 63.3869C99.4292 62.8109 99.7502 62.3069 100.158 61.8749C100.572 61.4369 101.052 61.0949 101.598 60.8489C102.144 60.6029 102.726 60.4799 103.344 60.4799C104.022 60.4799 104.643 60.6179 105.207 60.8939C105.777 61.1639 106.263 61.5419 106.665 62.0279C107.073 62.5139 107.376 63.0779 107.574 63.7199C107.778 64.3619 107.853 65.0489 107.799 65.7809H100.455C100.527 66.2909 100.695 66.7469 100.959 67.1489C101.223 67.5449 101.559 67.8599 101.967 68.0939C102.381 68.3279 102.84 68.4479 103.344 68.4539C103.884 68.4539 104.373 68.3159 104.811 68.0399C105.249 67.7579 105.603 67.3739 105.873 66.8879L107.412 67.2479C107.052 68.0459 106.509 68.6999 105.783 69.2099C105.057 69.7139 104.244 69.9659 103.344 69.9659ZM100.41 64.5929H106.278C106.23 64.0889 106.068 63.6299 105.792 63.2159C105.516 62.7959 105.165 62.4599 104.739 62.2079C104.313 61.9559 103.848 61.8299 103.344 61.8299C102.84 61.8299 102.378 61.9529 101.958 62.1989C101.538 62.4449 101.19 62.7779 100.914 63.1979C100.644 63.6119 100.476 64.0769 100.41 64.5929ZM116.508 69.9029C116.022 69.8849 115.548 69.7949 115.086 69.6329C114.63 69.4649 114.228 69.2399 113.88 68.9579C113.538 68.6699 113.289 68.3399 113.133 67.9679L114.429 67.4099C114.519 67.6139 114.681 67.8059 114.915 67.9859C115.149 68.1659 115.419 68.3099 115.725 68.4179C116.031 68.5259 116.34 68.5799 116.652 68.5799C116.982 68.5799 117.291 68.5289 117.579 68.4269C117.867 68.3249 118.101 68.1749 118.281 67.9769C118.467 67.7729 118.56 67.5299 118.56 67.2479C118.56 66.9479 118.458 66.7139 118.254 66.5459C118.056 66.3719 117.804 66.2369 117.498 66.1409C117.198 66.0389 116.892 65.9429 116.58 65.8529C115.962 65.6969 115.41 65.5109 114.924 65.2949C114.438 65.0729 114.054 64.7939 113.772 64.4579C113.496 64.1159 113.358 63.6809 113.358 63.1529C113.358 62.5949 113.511 62.1119 113.817 61.7039C114.129 61.2959 114.537 60.9809 115.041 60.7589C115.545 60.5369 116.085 60.4259 116.661 60.4259C117.387 60.4259 118.05 60.5819 118.65 60.8939C119.25 61.2059 119.697 61.6289 119.991 62.1629L118.776 62.8739C118.674 62.6579 118.518 62.4689 118.308 62.3069C118.098 62.1389 117.858 62.0069 117.588 61.9109C117.318 61.8149 117.042 61.7639 116.76 61.7579C116.412 61.7459 116.085 61.7909 115.779 61.8929C115.479 61.9949 115.236 62.1509 115.05 62.3609C114.87 62.5649 114.78 62.8199 114.78 63.1259C114.78 63.4259 114.876 63.6539 115.068 63.8099C115.266 63.9659 115.521 64.0919 115.833 64.1879C116.151 64.2779 116.496 64.3829 116.868 64.5029C117.414 64.6769 117.924 64.8779 118.398 65.1059C118.872 65.3339 119.253 65.6189 119.541 65.9609C119.835 66.3029 119.979 66.7259 119.973 67.2299C119.973 67.7819 119.808 68.2649 119.478 68.6789C119.148 69.0869 118.719 69.3989 118.191 69.6149C117.669 69.8309 117.108 69.9269 116.508 69.9029ZM115.788 73.7009L116.346 70.6589H117.858L116.796 73.7009H115.788ZM121.392 60.7319H122.904V69.7319H121.392V60.7319ZM122.166 59.2649C121.926 59.2649 121.725 59.1869 121.563 59.0309C121.401 58.8749 121.32 58.6799 121.32 58.4459C121.32 58.2119 121.401 58.0169 121.563 57.8609C121.725 57.7049 121.923 57.6269 122.157 57.6269C122.391 57.6269 122.589 57.7049 122.751 57.8609C122.913 58.0169 122.994 58.2119 122.994 58.4459C122.994 58.6799 122.913 58.8749 122.751 59.0309C122.595 59.1869 122.4 59.2649 122.166 59.2649ZM129.39 60.7319H130.902V69.7319H129.39V60.7319ZM130.164 59.2649C129.924 59.2649 129.723 59.1869 129.561 59.0309C129.399 58.8749 129.318 58.6799 129.318 58.4459C129.318 58.2119 129.399 58.0169 129.561 57.8609C129.723 57.7049 129.921 57.6269 130.155 57.6269C130.389 57.6269 130.587 57.7049 130.749 57.8609C130.911 58.0169 130.992 58.2119 130.992 58.4459C130.992 58.6799 130.911 58.8749 130.749 59.0309C130.593 59.1869 130.398 59.2649 130.164 59.2649ZM140.177 60.7319H141.689V69.7319H140.177L140.114 68.2109C139.832 68.7329 139.442 69.1559 138.944 69.4799C138.452 69.8039 137.864 69.9659 137.18 69.9659C136.52 69.9659 135.902 69.8429 135.326 69.5969C134.75 69.3449 134.24 68.9999 133.796 68.5619C133.358 68.1179 133.016 67.6079 132.77 67.0319C132.524 66.4559 132.401 65.8349 132.401 65.1689C132.401 64.5269 132.521 63.9209 132.761 63.3509C133.001 62.7809 133.334 62.2829 133.76 61.8569C134.192 61.4249 134.69 61.0889 135.254 60.8489C135.818 60.6029 136.424 60.4799 137.072 60.4799C137.78 60.4799 138.401 60.6479 138.935 60.9839C139.469 61.3139 139.901 61.7429 140.231 62.2709L140.177 60.7319ZM137.153 68.4989C137.747 68.4989 138.26 68.3549 138.692 68.0669C139.13 67.7729 139.466 67.3769 139.7 66.8789C139.94 66.3809 140.06 65.8319 140.06 65.2319C140.06 64.6199 139.94 64.0679 139.7 63.5759C139.46 63.0779 139.121 62.6849 138.683 62.3969C138.251 62.1029 137.741 61.9559 137.153 61.9559C136.559 61.9559 136.019 62.1029 135.533 62.3969C135.047 62.6909 134.66 63.0869 134.372 63.5849C134.09 64.0769 133.949 64.6259 133.949 65.2319C133.949 65.8379 134.096 66.3899 134.39 66.8879C134.684 67.3799 135.074 67.7729 135.56 68.0669C136.046 68.3549 136.577 68.4989 137.153 68.4989ZM147.812 69.7319V60.7319H149.324V61.8569C149.642 61.4369 150.041 61.1039 150.521 60.8579C151.007 60.6059 151.535 60.4799 152.105 60.4799C152.771 60.4799 153.38 60.6419 153.932 60.9659C154.484 61.2899 154.919 61.7189 155.237 62.2529C155.555 61.7189 155.987 61.2899 156.533 60.9659C157.085 60.6419 157.691 60.4799 158.351 60.4799C159.029 60.4799 159.644 60.6449 160.196 60.9749C160.748 61.2989 161.186 61.7369 161.51 62.2889C161.84 62.8409 162.005 63.4559 162.005 64.1339V69.7319H160.493V64.4939C160.493 64.0499 160.385 63.6389 160.169 63.2609C159.953 62.8829 159.662 62.5799 159.296 62.3519C158.93 62.1239 158.525 62.0099 158.081 62.0099C157.637 62.0099 157.232 62.1179 156.866 62.3339C156.5 62.5439 156.209 62.8379 155.993 63.2159C155.777 63.5879 155.669 64.0139 155.669 64.4939V69.7319H154.157V64.4939C154.157 64.0139 154.049 63.5879 153.833 63.2159C153.617 62.8379 153.323 62.5439 152.951 62.3339C152.585 62.1179 152.18 62.0099 151.736 62.0099C151.298 62.0099 150.893 62.1239 150.521 62.3519C150.155 62.5799 149.864 62.8829 149.648 63.2609C149.432 63.6389 149.324 64.0499 149.324 64.4939V69.7319H147.812ZM170.868 60.7319H172.38V69.7319H170.868L170.805 68.2109C170.523 68.7329 170.133 69.1559 169.635 69.4799C169.143 69.8039 168.555 69.9659 167.871 69.9659C167.211 69.9659 166.593 69.8429 166.017 69.5969C165.441 69.3449 164.931 68.9999 164.487 68.5619C164.049 68.1179 163.707 67.6079 163.461 67.0319C163.215 66.4559 163.092 65.8349 163.092 65.1689C163.092 64.5269 163.212 63.9209 163.452 63.3509C163.692 62.7809 164.025 62.2829 164.451 61.8569C164.883 61.4249 165.381 61.0889 165.945 60.8489C166.509 60.6029 167.115 60.4799 167.763 60.4799C168.471 60.4799 169.092 60.6479 169.626 60.9839C170.16 61.3139 170.592 61.7429 170.922 62.2709L170.868 60.7319ZM167.844 68.4989C168.438 68.4989 168.951 68.3549 169.383 68.0669C169.821 67.7729 170.157 67.3769 170.391 66.8789C170.631 66.3809 170.751 65.8319 170.751 65.2319C170.751 64.6199 170.631 64.0679 170.391 63.5759C170.151 63.0779 169.812 62.6849 169.374 62.3969C168.942 62.1029 168.432 61.9559 167.844 61.9559C167.25 61.9559 166.71 62.1029 166.224 62.3969C165.738 62.6909 165.351 63.0869 165.063 63.5849C164.781 64.0769 164.64 64.6259 164.64 65.2319C164.64 65.8379 164.787 66.3899 165.081 66.8879C165.375 67.3799 165.765 67.7729 166.251 68.0669C166.737 68.3549 167.268 68.4989 167.844 68.4989ZM167.961 59.9399C167.415 59.9399 166.914 59.8049 166.458 59.5349C166.008 59.2649 165.648 58.9049 165.378 58.4549C165.108 57.9989 164.973 57.4979 164.973 56.9519H165.999C165.999 57.3179 166.089 57.6509 166.269 57.9509C166.455 58.2449 166.695 58.4789 166.989 58.6529C167.289 58.8269 167.613 58.9139 167.961 58.9139C168.321 58.9139 168.648 58.8269 168.942 58.6529C169.242 58.4789 169.479 58.2419 169.653 57.9419C169.833 57.6419 169.923 57.3119 169.923 56.9519H170.949C170.949 57.5099 170.811 58.0169 170.535 58.4729C170.265 58.9229 169.902 59.2799 169.446 59.5439C168.996 59.8079 168.501 59.9399 167.961 59.9399ZM176.924 69.9029C176.438 69.8849 175.964 69.7949 175.502 69.6329C175.046 69.4649 174.644 69.2399 174.296 68.9579C173.954 68.6699 173.705 68.3399 173.549 67.9679L174.845 67.4099C174.935 67.6139 175.097 67.8059 175.331 67.9859C175.565 68.1659 175.835 68.3099 176.141 68.4179C176.447 68.5259 176.756 68.5799 177.068 68.5799C177.398 68.5799 177.707 68.5289 177.995 68.4269C178.283 68.3249 178.517 68.1749 178.697 67.9769C178.883 67.7729 178.976 67.5299 178.976 67.2479C178.976 66.9479 178.874 66.7139 178.67 66.5459C178.472 66.3719 178.22 66.2369 177.914 66.1409C177.614 66.0389 177.308 65.9429 176.996 65.8529C176.378 65.6969 175.826 65.5109 175.34 65.2949C174.854 65.0729 174.47 64.7939 174.188 64.4579C173.912 64.1159 173.774 63.6809 173.774 63.1529C173.774 62.5949 173.927 62.1119 174.233 61.7039C174.545 61.2959 174.953 60.9809 175.457 60.7589C175.961 60.5369 176.501 60.4259 177.077 60.4259C177.803 60.4259 178.466 60.5819 179.066 60.8939C179.666 61.2059 180.113 61.6289 180.407 62.1629L179.192 62.8739C179.09 62.6579 178.934 62.4689 178.724 62.3069C178.514 62.1389 178.274 62.0069 178.004 61.9109C177.734 61.8149 177.458 61.7639 177.176 61.7579C176.828 61.7459 176.501 61.7909 176.195 61.8929C175.895 61.9949 175.652 62.1509 175.466 62.3609C175.286 62.5649 175.196 62.8199 175.196 63.1259C175.196 63.4259 175.292 63.6539 175.484 63.8099C175.682 63.9659 175.937 64.0919 176.249 64.1879C176.567 64.2779 176.912 64.3829 177.284 64.5029C177.83 64.6769 178.34 64.8779 178.814 65.1059C179.288 65.3339 179.669 65.6189 179.957 65.9609C180.251 66.3029 180.395 66.7259 180.389 67.2299C180.389 67.7819 180.224 68.2649 179.894 68.6789C179.564 69.0869 179.135 69.3989 178.607 69.6149C178.085 69.8309 177.524 69.9269 176.924 69.9029ZM181.571 66.3119V60.7319H183.083V65.9789C183.083 66.4349 183.194 66.8489 183.416 67.2209C183.638 67.5929 183.935 67.8899 184.307 68.1119C184.685 68.3279 185.099 68.4359 185.549 68.4359C186.005 68.4359 186.416 68.3279 186.782 68.1119C187.154 67.8899 187.451 67.5929 187.673 67.2209C187.895 66.8489 188.006 66.4349 188.006 65.9789V60.7319H189.518L189.527 69.7319H188.015L188.006 68.5889C187.688 69.0089 187.286 69.3449 186.8 69.5969C186.314 69.8429 185.789 69.9659 185.225 69.9659C184.553 69.9659 183.938 69.8039 183.38 69.4799C182.828 69.1499 182.387 68.7089 182.057 68.1569C181.733 67.6049 181.571 66.9899 181.571 66.3119ZM191.335 69.7319V60.7319H192.847V61.8569C193.165 61.4369 193.567 61.1039 194.053 60.8579C194.539 60.6059 195.067 60.4799 195.637 60.4799C195.985 60.4799 196.321 60.5249 196.645 60.6149L196.033 62.1269C195.787 62.0489 195.547 62.0099 195.313 62.0099C194.863 62.0099 194.449 62.1209 194.071 62.3429C193.699 62.5589 193.402 62.8529 193.18 63.2249C192.958 63.5969 192.847 64.0109 192.847 64.4669V69.7319H191.335ZM197.751 60.7319H199.263V69.7319H197.751V60.7319ZM198.525 59.2649C198.285 59.2649 198.084 59.1869 197.922 59.0309C197.76 58.8749 197.679 58.6799 197.679 58.4459C197.679 58.2119 197.76 58.0169 197.922 57.8609C198.084 57.7049 198.282 57.6269 198.516 57.6269C198.75 57.6269 198.948 57.7049 199.11 57.8609C199.272 58.0169 199.353 58.2119 199.353 58.4459C199.353 58.6799 199.272 58.8749 199.11 59.0309C198.954 59.1869 198.759 59.2649 198.525 59.2649ZM207.261 74.2319H205.749V60.7319H207.261V62.2709C207.567 61.7429 207.975 61.3169 208.485 60.9929C208.995 60.6629 209.601 60.4979 210.303 60.4979C210.957 60.4979 211.569 60.6209 212.139 60.8669C212.715 61.1129 213.219 61.4549 213.651 61.8929C214.083 62.3249 214.422 62.8259 214.668 63.3959C214.914 63.9659 215.037 64.5779 215.037 65.2319C215.037 65.8859 214.914 66.5009 214.668 67.0769C214.422 67.6529 214.083 68.1599 213.651 68.5979C213.219 69.0299 212.715 69.3689 212.139 69.6149C211.569 69.8609 210.957 69.9839 210.303 69.9839C209.601 69.9839 208.995 69.8219 208.485 69.4979C207.975 69.1679 207.567 68.7389 207.261 68.2109V74.2319ZM210.285 61.9649C209.703 61.9649 209.193 62.1119 208.755 62.4059C208.317 62.6999 207.978 63.0929 207.738 63.5849C207.504 64.0769 207.387 64.6259 207.387 65.2319C207.387 65.8319 207.504 66.3809 207.738 66.8789C207.978 67.3769 208.314 67.7729 208.746 68.0669C209.184 68.3609 209.697 68.5079 210.285 68.5079C210.867 68.5079 211.401 68.3639 211.887 68.0759C212.373 67.7819 212.763 67.3889 213.057 66.8969C213.351 66.3989 213.498 65.8439 213.498 65.2319C213.498 64.6319 213.354 64.0859 213.066 63.5939C212.778 63.0959 212.391 62.6999 211.905 62.4059C211.419 62.1119 210.879 61.9649 210.285 61.9649ZM216.542 69.7319V60.7319H218.054V61.8569C218.372 61.4369 218.774 61.1039 219.26 60.8579C219.746 60.6059 220.274 60.4799 220.844 60.4799C221.192 60.4799 221.528 60.5249 221.852 60.6149L221.24 62.1269C220.994 62.0489 220.754 62.0099 220.52 62.0099C220.07 62.0099 219.656 62.1209 219.278 62.3429C218.906 62.5589 218.609 62.8529 218.387 63.2249C218.165 63.5969 218.054 64.0109 218.054 64.4669V69.7319H216.542ZM226.461 69.9659C225.633 69.9659 224.877 69.7529 224.193 69.3269C223.515 68.9009 222.972 68.3309 222.564 67.6169C222.162 66.8969 221.961 66.1019 221.961 65.2319C221.961 64.5719 222.078 63.9569 222.312 63.3869C222.546 62.8109 222.867 62.3069 223.275 61.8749C223.689 61.4369 224.169 61.0949 224.715 60.8489C225.261 60.6029 225.843 60.4799 226.461 60.4799C227.289 60.4799 228.042 60.6929 228.72 61.1189C229.404 61.5449 229.947 62.1179 230.349 62.8379C230.757 63.5579 230.961 64.3559 230.961 65.2319C230.961 65.8859 230.844 66.4979 230.61 67.0679C230.376 67.6379 230.052 68.1419 229.638 68.5799C229.23 69.0119 228.753 69.3509 228.207 69.5969C227.667 69.8429 227.085 69.9659 226.461 69.9659ZM226.461 68.4539C227.025 68.4539 227.532 68.3069 227.982 68.0129C228.438 67.7129 228.795 67.3199 229.053 66.8339C229.317 66.3419 229.449 65.8079 229.449 65.2319C229.449 64.6439 229.314 64.1039 229.044 63.6119C228.78 63.1199 228.423 62.7269 227.973 62.4329C227.523 62.1389 227.019 61.9919 226.461 61.9919C225.897 61.9919 225.39 62.1419 224.94 62.4419C224.49 62.7359 224.133 63.1289 223.869 63.6209C223.605 64.1129 223.473 64.6499 223.473 65.2319C223.473 65.8319 223.608 66.3779 223.878 66.8699C224.148 67.3559 224.511 67.7429 224.967 68.0309C225.423 68.3129 225.921 68.4539 226.461 68.4539ZM232.451 69.7319V60.7319H233.963V61.8569C234.281 61.4369 234.68 61.1039 235.16 60.8579C235.646 60.6059 236.174 60.4799 236.744 60.4799C237.41 60.4799 238.019 60.6419 238.571 60.9659C239.123 61.2899 239.558 61.7189 239.876 62.2529C240.194 61.7189 240.626 61.2899 241.172 60.9659C241.724 60.6419 242.33 60.4799 242.99 60.4799C243.668 60.4799 244.283 60.6449 244.835 60.9749C245.387 61.2989 245.825 61.7369 246.149 62.2889C246.479 62.8409 246.644 63.4559 246.644 64.1339V69.7319H245.132V64.4939C245.132 64.0499 245.024 63.6389 244.808 63.2609C244.592 62.8829 244.301 62.5799 243.935 62.3519C243.569 62.1239 243.164 62.0099 242.72 62.0099C242.276 62.0099 241.871 62.1179 241.505 62.3339C241.139 62.5439 240.848 62.8379 240.632 63.2159C240.416 63.5879 240.308 64.0139 240.308 64.4939V69.7319H238.796V64.4939C238.796 64.0139 238.688 63.5879 238.472 63.2159C238.256 62.8379 237.962 62.5439 237.59 62.3339C237.224 62.1179 236.819 62.0099 236.375 62.0099C235.937 62.0099 235.532 62.1239 235.16 62.3519C234.794 62.5799 234.503 62.8829 234.287 63.2609C234.071 63.6389 233.963 64.0499 233.963 64.4939V69.7319H232.451ZM249.959 74.2319H248.447V60.7319H249.959V62.2709C250.265 61.7429 250.673 61.3169 251.183 60.9929C251.693 60.6629 252.299 60.4979 253.001 60.4979C253.655 60.4979 254.267 60.6209 254.837 60.8669C255.413 61.1129 255.917 61.4549 256.349 61.8929C256.781 62.3249 257.12 62.8259 257.366 63.3959C257.612 63.9659 257.735 64.5779 257.735 65.2319C257.735 65.8859 257.612 66.5009 257.366 67.0769C257.12 67.6529 256.781 68.1599 256.349 68.5979C255.917 69.0299 255.413 69.3689 254.837 69.6149C254.267 69.8609 253.655 69.9839 253.001 69.9839C252.299 69.9839 251.693 69.8219 251.183 69.4979C250.673 69.1679 250.265 68.7389 249.959 68.2109V74.2319ZM252.983 61.9649C252.401 61.9649 251.891 62.1119 251.453 62.4059C251.015 62.6999 250.676 63.0929 250.436 63.5849C250.202 64.0769 250.085 64.6259 250.085 65.2319C250.085 65.8319 250.202 66.3809 250.436 66.8789C250.676 67.3769 251.012 67.7729 251.444 68.0669C251.882 68.3609 252.395 68.5079 252.983 68.5079C253.565 68.5079 254.099 68.3639 254.585 68.0759C255.071 67.7819 255.461 67.3889 255.755 66.8969C256.049 66.3989 256.196 65.8439 256.196 65.2319C256.196 64.6319 256.052 64.0859 255.764 63.5939C255.476 63.0959 255.089 62.6999 254.603 62.4059C254.117 62.1119 253.577 61.9649 252.983 61.9649ZM263.796 62.2439H261.753L261.744 69.7319H260.232L260.241 62.2439H258.693V60.7319H260.241L260.232 57.9059H261.744L261.753 60.7319H263.796V62.2439ZM269.141 69.9659C268.313 69.9659 267.557 69.7529 266.873 69.3269C266.195 68.9009 265.652 68.3309 265.244 67.6169C264.842 66.8969 264.641 66.1019 264.641 65.2319C264.641 64.5719 264.758 63.9569 264.992 63.3869C265.226 62.8109 265.547 62.3069 265.955 61.8749C266.369 61.4369 266.849 61.0949 267.395 60.8489C267.941 60.6029 268.523 60.4799 269.141 60.4799C269.819 60.4799 270.44 60.6179 271.004 60.8939C271.574 61.1639 272.06 61.5419 272.462 62.0279C272.87 62.5139 273.173 63.0779 273.371 63.7199C273.575 64.3619 273.65 65.0489 273.596 65.7809H266.252C266.324 66.2909 266.492 66.7469 266.756 67.1489C267.02 67.5449 267.356 67.8599 267.764 68.0939C268.178 68.3279 268.637 68.4479 269.141 68.4539C269.681 68.4539 270.17 68.3159 270.608 68.0399C271.046 67.7579 271.4 67.3739 271.67 66.8879L273.209 67.2479C272.849 68.0459 272.306 68.6999 271.58 69.2099C270.854 69.7139 270.041 69.9659 269.141 69.9659ZM266.207 64.5929H272.075C272.027 64.0889 271.865 63.6299 271.589 63.2159C271.313 62.7959 270.962 62.4599 270.536 62.2079C270.11 61.9559 269.645 61.8299 269.141 61.8299C268.637 61.8299 268.175 61.9529 267.755 62.1989C267.335 62.4449 266.987 62.7779 266.711 63.1979C266.441 63.6119 266.273 64.0769 266.207 64.5929ZM275.519 69.9659C275.291 69.9659 275.096 69.8849 274.934 69.7229C274.778 69.5609 274.7 69.3629 274.7 69.1289C274.7 68.9069 274.778 68.7149 274.934 68.5529C275.096 68.3909 275.291 68.3099 275.519 68.3099C275.753 68.3099 275.951 68.3909 276.113 68.5529C276.275 68.7149 276.356 68.9069 276.356 69.1289C276.356 69.3629 276.275 69.5609 276.113 69.7229C275.951 69.8849 275.753 69.9659 275.519 69.9659Z" fill="#37455B"/>
</g>
<defs>
<filter id="filter0_dd_6852_17596" x="0.541464" y="0.346342" width="424.917" height="120.38" filterUnits="userSpaceOnUse" color-interpolation-filters="sRGB">
<feFlood flood-opacity="0" result="BackgroundImageFix"/>
<feColorMatrix in="SourceAlpha" type="matrix" values="0 0 0 0 0 0 0 0 0 0 0 0 0 0 0 0 0 0 127 0" result="hardAlpha"/>
<feMorphology radius="3.12195" operator="erode" in="SourceAlpha" result="effect1_dropShadow_6852_17596"/>
<feOffset dy="3.12195"/>
<feGaussianBlur stdDeviation="2.34146"/>
<feComposite in2="hardAlpha" operator="out"/>
<feColorMatrix type="matrix" values="0 0 0 0 0 0 0 0 0 0 0 0 0 0 0 0 0 0 0.1 0"/>
<feBlend mode="normal" in2="BackgroundImageFix" result="effect1_dropShadow_6852_17596"/>
<feColorMatrix in="SourceAlpha" type="matrix" values="0 0 0 0 0 0 0 0 0 0 0 0 0 0 0 0 0 0 127 0" result="hardAlpha"/>
<feMorphology radius="2.34146" operator="erode" in="SourceAlpha" result="effect2_dropShadow_6852_17596"/>
<feOffset dy="7.80488"/>
<feGaussianBlur stdDeviation="10.9"/>
<feComposite in2="hardAlpha" operator="out"/>
<feColorMatrix type="matrix" values="0 0 0 0 0 0 0 0 0 0 0 0 0 0 0 0 0 0 0.25 0"/>
<feBlend mode="normal" in2="effect1_dropShadow_6852_17596" result="effect2_dropShadow_6852_17596"/>
<feBlend mode="normal" in="SourceGraphic" in2="effect2_dropShadow_6852_17596" result="shape"/>
</filter>
</defs>
</svg>
