<svg width="431" height="286" viewBox="0 0 431 286" fill="none" xmlns="http://www.w3.org/2000/svg">
<g filter="url(#filter0_d_6852_17423)">
<path d="M-153 14C-153 10.6863 -150.314 8 -147 8H401C404.314 8 407 10.6863 407 14V312C407 315.314 404.314 318 401 318H-147C-150.314 318 -153 315.314 -153 312V14Z" fill="white" shape-rendering="crispEdges"/>
<path d="M-147 8.5H401C404.038 8.5 406.5 10.9624 406.5 14V312C406.5 315.038 404.038 317.5 401 317.5H-147C-150.038 317.5 -152.5 315.038 -152.5 312V14C-152.5 10.9624 -150.038 8.5 -147 8.5Z" stroke="#E2E8F0" shape-rendering="crispEdges"/>
<path d="M-52.25 43.224C-55.134 43.224 -56.884 41.264 -56.884 38.044C-56.884 34.824 -55.134 32.836 -52.25 32.836C-49.338 32.836 -47.602 34.824 -47.602 38.044C-47.602 41.264 -49.338 43.224 -52.25 43.224ZM-52.25 41.838C-50.318 41.838 -49.17 40.438 -49.17 38.044C-49.17 35.65 -50.318 34.222 -52.25 34.222C-54.168 34.222 -55.316 35.65 -55.316 38.044C-55.316 40.438 -54.168 41.838 -52.25 41.838ZM-42.7063 43.168C-44.8483 43.168 -46.2343 41.628 -46.2343 39.276C-46.2343 36.924 -44.8483 35.384 -42.7063 35.384C-40.9003 35.384 -39.6263 36.364 -39.3743 38.086L-40.9283 38.17C-41.0823 37.204 -41.7683 36.672 -42.7063 36.672C-43.9663 36.672 -44.6943 37.638 -44.6943 39.276C-44.6943 40.914 -43.9663 41.88 -42.7063 41.88C-41.7543 41.88 -41.0683 41.348 -40.9283 40.27L-39.3743 40.354C-39.6123 42.062 -40.8863 43.168 -42.7063 43.168ZM-35.4377 43C-36.8517 43 -37.5097 42.384 -37.5097 40.984V36.77H-38.6437V35.552H-37.5097V33.802H-36.0257V35.552H-34.0517V36.77H-36.0257V40.872C-36.0257 41.572 -35.7317 41.782 -35.1157 41.782H-34.0517V43H-35.4377ZM-29.6906 43.168C-31.8186 43.168 -33.2186 41.642 -33.2186 39.276C-33.2186 36.91 -31.8186 35.384 -29.6906 35.384C-27.5626 35.384 -26.1626 36.91 -26.1626 39.276C-26.1626 41.642 -27.5626 43.168 -29.6906 43.168ZM-29.6906 41.88C-28.4306 41.88 -27.7026 40.914 -27.7026 39.276C-27.7026 37.638 -28.4306 36.672 -29.6906 36.672C-30.9506 36.672 -31.6786 37.638 -31.6786 39.276C-31.6786 40.914 -30.9506 41.88 -29.6906 41.88ZM-20.9529 43.168C-21.9889 43.168 -22.8149 42.692 -23.2349 41.88L-23.2769 43H-24.6629V33.06H-23.1789V36.602C-22.8009 35.958 -21.9889 35.384 -20.9529 35.384C-19.0069 35.384 -17.7889 36.896 -17.7889 39.276C-17.7889 41.656 -19.0069 43.168 -20.9529 43.168ZM-21.1909 41.88C-20.0569 41.88 -19.3289 40.886 -19.3289 39.276C-19.3289 37.638 -20.0429 36.672 -21.1769 36.672C-22.4369 36.672 -23.1789 37.638 -23.1789 39.276C-23.1789 40.886 -22.4369 41.88 -21.1909 41.88ZM-13.216 43.168C-15.386 43.168 -16.744 41.628 -16.744 39.276C-16.744 36.924 -15.386 35.384 -13.258 35.384C-11.228 35.384 -9.85603 36.826 -9.85603 39.332V39.71H-15.204C-15.134 41.166 -14.392 41.894 -13.202 41.894C-12.334 41.894 -11.746 41.46 -11.508 40.76L-9.96803 40.858C-10.36 42.244 -11.578 43.168 -13.216 43.168ZM-15.204 38.59H-11.424C-11.522 37.274 -12.25 36.644 -13.258 36.644C-14.322 36.644 -15.036 37.33 -15.204 38.59ZM-8.35234 43V35.552H-6.99434L-6.95234 36.966C-6.67234 35.986 -6.08434 35.552 -5.17434 35.552H-4.46034V36.882H-5.17434C-6.30834 36.882 -6.86834 37.428 -6.86834 38.604V43H-8.35234ZM0.337719 43C0.337719 40.746 1.20572 39.36 4.06172 37.848C5.41972 37.134 5.93772 36.714 5.93772 35.79C5.93772 34.866 5.33572 34.222 4.14572 34.222C2.87172 34.222 2.14372 34.922 1.94772 36.196L0.379719 36.098C0.589719 34.096 1.93372 32.836 4.14572 32.836C6.25972 32.836 7.50572 34.026 7.50572 35.762C7.50572 37.288 6.81972 38.016 4.81772 39.08C3.09572 40.004 2.22772 40.942 2.17172 41.614H7.50572V43H0.337719ZM12.8977 43.224C10.4197 43.224 8.86569 41.236 8.86569 38.044C8.86569 34.852 10.4197 32.836 12.8977 32.836C15.3897 32.836 16.9437 34.838 16.9437 38.044C16.9437 41.222 15.3897 43.224 12.8977 43.224ZM12.8977 41.838C14.4937 41.838 15.3757 40.494 15.3757 38.044C15.3757 35.58 14.4937 34.222 12.8977 34.222C11.3157 34.222 10.4337 35.58 10.4337 38.044C10.4337 40.494 11.3157 41.838 12.8977 41.838ZM18.3026 43C18.3026 40.746 19.1706 39.36 22.0266 37.848C23.3846 37.134 23.9026 36.714 23.9026 35.79C23.9026 34.866 23.3006 34.222 22.1106 34.222C20.8366 34.222 20.1086 34.922 19.9126 36.196L18.3446 36.098C18.5546 34.096 19.8986 32.836 22.1106 32.836C24.2246 32.836 25.4706 34.026 25.4706 35.762C25.4706 37.288 24.7846 38.016 22.7826 39.08C21.0606 40.004 20.1926 40.942 20.1366 41.614H25.4706V43H18.3026ZM31.3571 43V40.928H26.3451V39.64L31.1751 33.06H32.8691V39.556H34.0871V40.928H32.8691V43H31.3571ZM28.0671 39.556H31.3571V35.16L28.0671 39.556Z" fill="#020617"/>
<path d="M20.796 74V66.488H18.144V65.48H24.48V66.488H21.828V74H20.796ZM25.2178 74V65.48H26.2258V68.636C26.5498 67.856 27.2698 67.496 28.1458 67.496C29.5138 67.496 30.2698 68.492 30.2698 69.908V74H29.2618V70.196C29.2618 68.972 28.8178 68.384 27.9298 68.384C26.8978 68.384 26.2258 69.032 26.2258 70.208V74H25.2178Z" fill="#64748B"/>
<path d="M56.104 74V65.48H61.456V66.488H57.136V69.344H61.24V70.328H57.136V74H56.104ZM62.6748 74V67.64H63.5628L63.5988 68.816C63.8268 68.012 64.3308 67.64 65.1108 67.64H65.7348V68.6H65.1228C64.1628 68.6 63.6828 69.116 63.6828 70.16V74H62.6748Z" fill="#64748B"/>
<path d="M93.532 74.192C91.564 74.192 90.304 73.004 90.16 71.276L91.24 71.204C91.408 72.476 92.188 73.184 93.556 73.184C94.744 73.184 95.44 72.716 95.44 71.84C95.44 71.048 95.044 70.568 93.004 70.064C91.036 69.572 90.34 68.984 90.34 67.712C90.34 66.284 91.42 65.288 93.172 65.288C95.044 65.288 96.148 66.44 96.34 68L95.26 68.072C95.116 67.04 94.42 66.296 93.148 66.296C92.092 66.296 91.42 66.848 91.42 67.664C91.42 68.468 91.852 68.756 93.652 69.2C95.788 69.728 96.52 70.544 96.52 71.768C96.52 73.256 95.272 74.192 93.532 74.192ZM99.969 74.144C98.649 74.144 97.821 73.508 97.821 72.416C97.821 71.336 98.433 70.736 99.825 70.472L102.081 70.052C102.081 68.984 101.577 68.456 100.569 68.456C99.681 68.456 99.189 68.864 98.997 69.596L97.929 69.512C98.169 68.312 99.129 67.496 100.569 67.496C102.201 67.496 103.089 68.48 103.089 70.088V72.716C103.089 73.004 103.185 73.112 103.425 73.112H103.677V74C103.605 74.012 103.449 74.024 103.293 74.024C102.525 74.024 102.177 73.724 102.093 73.016C101.781 73.676 100.905 74.144 99.969 74.144ZM100.065 73.256C101.337 73.256 102.081 72.44 102.081 71.384V70.928L100.017 71.312C99.153 71.468 98.877 71.792 98.877 72.32C98.877 72.92 99.321 73.256 100.065 73.256Z" fill="#64748B"/>
<path d="M24.714 111.224C22.502 111.224 21.284 110.076 21.2 108.438L22.446 108.354C22.558 109.572 23.468 110.048 24.714 110.048C26.002 110.048 27.122 109.572 27.122 108.228C27.122 106.912 26.156 106.31 24.728 106.31H23.944V105.134H24.728C25.904 105.134 26.772 104.714 26.772 103.58C26.772 102.558 26.1 102.012 24.784 102.012C23.468 102.012 22.838 102.544 22.712 103.426L21.452 103.342C21.634 101.858 22.796 100.836 24.784 100.836C26.8 100.836 28.032 101.872 28.032 103.524C28.032 104.588 27.444 105.302 26.31 105.652C27.598 106.002 28.382 106.954 28.382 108.228C28.382 110.132 26.87 111.224 24.714 111.224Z" fill="#020617"/>
<path d="M43 94C43 90.6863 45.6863 88 49 88H73C76.3137 88 79 90.6863 79 94V118C79 121.314 76.3137 124 73 124H49C45.6863 124 43 121.314 43 118V94Z" fill="#F1F5F9"/>
<path d="M61.974 111V108.844H56.92V107.752L61.89 101.06H63.178V107.668H64.41V108.844H63.178V111H61.974ZM58.376 107.668H61.974V102.908L58.376 107.668Z" fill="#020617"/>
<path d="M96.868 111.224C94.768 111.224 93.48 110.09 93.34 108.438L94.6 108.354C94.74 109.474 95.608 110.048 96.868 110.048C98.268 110.048 99.15 109.208 99.15 107.808C99.15 106.408 98.296 105.526 96.84 105.526C95.916 105.526 95.118 105.946 94.796 106.646H93.508L94.166 101.06H99.738V102.236H95.272L94.908 105.232C95.412 104.672 96.21 104.378 97.064 104.378C99.052 104.378 100.41 105.82 100.41 107.808C100.41 109.81 98.954 111.224 96.868 111.224Z" fill="#020617"/>
<path d="M20.132 155V147.636H18.06V146.6H18.9C19.992 146.6 20.384 146.236 20.384 145.06H21.336V155H20.132ZM27.3703 155.224C24.9623 155.224 23.4363 153.222 23.4363 150.044C23.4363 146.852 24.9623 144.836 27.3703 144.836C29.7923 144.836 31.3183 146.838 31.3183 150.044C31.3183 153.222 29.7923 155.224 27.3703 155.224ZM27.3703 154.048C29.0923 154.048 30.0583 152.606 30.0583 150.044C30.0583 147.468 29.0923 146.012 27.3703 146.012C25.6623 146.012 24.6963 147.468 24.6963 150.044C24.6963 152.606 25.6623 154.048 27.3703 154.048Z" fill="#020617"/>
<path d="M58.132 155V147.636H56.06V146.6H56.9C57.992 146.6 58.384 146.236 58.384 145.06H59.336V155H58.132ZM62.9445 155V147.636H60.8725V146.6H61.7125C62.8045 146.6 63.1965 146.236 63.1965 145.06H64.1485V155H62.9445Z" fill="#020617"/>
<path d="M92.632 155V147.636H90.56V146.6H91.4C92.492 146.6 92.884 146.236 92.884 145.06H93.836V155H92.632ZM96.0763 155C96.0763 152.9 96.9023 151.514 99.8843 149.932C101.256 149.204 101.802 148.756 101.802 147.748C101.802 146.726 101.13 146.012 99.8143 146.012C98.4143 146.012 97.6023 146.768 97.3923 148.112L96.1323 148.028C96.3563 146.082 97.6583 144.836 99.8143 144.836C101.858 144.836 103.062 146.012 103.062 147.72C103.062 149.232 102.39 149.988 100.332 151.08C98.5403 152.032 97.6163 153.068 97.5603 153.824H103.062V155H96.0763Z" fill="#020617"/>
<path d="M7 182C7 178.686 9.68629 176 13 176H37C40.3137 176 43 178.686 43 182V206C43 209.314 40.3137 212 37 212H13C9.68629 212 7 209.314 7 206V182Z" fill="#3B82F6"/>
<path d="M21.132 199V191.636H19.06V190.6H19.9C20.992 190.6 21.384 190.236 21.384 189.06H22.336V199H21.132ZM26.365 199C26.365 195.92 27.681 192.784 29.893 190.236H24.153V189.06H31.209V190.152C28.703 193.008 27.597 195.64 27.597 199H26.365Z" fill="#F8FAFC"/>
<rect width="36" height="36" transform="translate(43 176)" fill="#F1F5F9"/>
<path d="M56.632 199V191.636H54.56V190.6H55.4C56.492 190.6 56.884 190.236 56.884 189.06H57.836V199H56.632ZM63.3276 199.224C61.1856 199.224 59.6596 198.202 59.6596 196.27C59.6596 194.982 60.4016 194.072 61.5776 193.652C60.6956 193.288 60.1356 192.63 60.1356 191.566C60.1356 189.998 61.3956 188.836 63.3276 188.836C65.2596 188.836 66.5196 189.998 66.5196 191.566C66.5196 192.63 65.9596 193.288 65.0776 193.652C66.2536 194.072 66.9956 194.982 66.9956 196.27C66.9956 198.202 65.4696 199.224 63.3276 199.224ZM63.3276 193.162C64.5596 193.162 65.2596 192.63 65.2596 191.566C65.2596 190.614 64.5876 190.012 63.3276 190.012C62.0676 190.012 61.3956 190.614 61.3956 191.566C61.3956 192.63 62.0956 193.162 63.3276 193.162ZM63.3276 198.048C64.7976 198.048 65.7356 197.46 65.7356 196.2C65.7356 195.038 64.9796 194.282 63.3276 194.282C61.6756 194.282 60.9196 195.038 60.9196 196.2C60.9196 197.46 61.8576 198.048 63.3276 198.048Z" fill="#020617"/>
<path d="M79 176H109C112.314 176 115 178.686 115 182V206C115 209.314 112.314 212 109 212H79V176Z" fill="#F1F5F9"/>
<path d="M92.132 199V191.636H90.06V190.6H90.9C91.992 190.6 92.384 190.236 92.384 189.06H93.336V199H92.132ZM98.905 199.224C97.253 199.224 96.203 198.314 95.839 197.082L97.113 196.984C97.337 197.656 97.925 198.048 98.905 198.048C100.417 198.048 101.313 196.984 101.467 194.52C100.935 195.36 100.067 195.836 99.017 195.836C97.085 195.836 95.713 194.436 95.713 192.364C95.713 190.194 97.169 188.836 99.171 188.836C101.663 188.836 102.755 190.656 102.755 193.442C102.755 196.774 101.803 199.224 98.905 199.224ZM99.101 194.646C100.459 194.646 101.425 193.82 101.425 192.392C101.425 191.02 100.571 190.012 99.171 190.012C97.799 190.012 96.973 190.992 96.973 192.364C96.973 193.764 97.841 194.646 99.101 194.646Z" fill="#020617"/>
<rect width="36" height="36" transform="translate(-29 220)" fill="#F1F5F9"/>
<rect width="36" height="36" transform="translate(7 220)" fill="#F1F5F9"/>
<path d="M17.34 243C17.34 240.9 18.166 239.514 21.148 237.932C22.52 237.204 23.066 236.756 23.066 235.748C23.066 234.726 22.394 234.012 21.078 234.012C19.678 234.012 18.866 234.768 18.656 236.112L17.396 236.028C17.62 234.082 18.922 232.836 21.078 232.836C23.122 232.836 24.326 234.012 24.326 235.72C24.326 237.232 23.654 237.988 21.596 239.08C19.804 240.032 18.88 241.068 18.824 241.824H24.326V243H17.34ZM30.2865 243V240.844H25.2325V239.752L30.2025 233.06H31.4905V239.668H32.7225V240.844H31.4905V243H30.2865ZM26.6885 239.668H30.2865V234.908L26.6885 239.668Z" fill="#020617"/>
<rect width="36" height="36" transform="translate(43 220)" fill="#F1F5F9"/>
<path d="M52.84 243C52.84 240.9 53.666 239.514 56.648 237.932C58.02 237.204 58.566 236.756 58.566 235.748C58.566 234.726 57.894 234.012 56.578 234.012C55.178 234.012 54.366 234.768 54.156 236.112L52.896 236.028C53.12 234.082 54.422 232.836 56.578 232.836C58.622 232.836 59.826 234.012 59.826 235.72C59.826 237.232 59.154 237.988 57.096 239.08C55.304 240.032 54.38 241.068 54.324 241.824H59.826V243H52.84ZM65.036 243.224C62.936 243.224 61.648 242.09 61.508 240.438L62.768 240.354C62.908 241.474 63.776 242.048 65.036 242.048C66.436 242.048 67.318 241.208 67.318 239.808C67.318 238.408 66.464 237.526 65.008 237.526C64.084 237.526 63.286 237.946 62.964 238.646H61.676L62.334 233.06H67.906V234.236H63.44L63.076 237.232C63.58 236.672 64.378 236.378 65.232 236.378C67.22 236.378 68.578 237.82 68.578 239.808C68.578 241.81 67.122 243.224 65.036 243.224Z" fill="#020617"/>
<path d="M79 220H109C112.314 220 115 222.686 115 226V250C115 253.314 112.314 256 109 256H79V220Z" fill="#F1F5F9"/>
<path d="M88.84 243C88.84 240.9 89.666 239.514 92.648 237.932C94.02 237.204 94.566 236.756 94.566 235.748C94.566 234.726 93.894 234.012 92.578 234.012C91.178 234.012 90.366 234.768 90.156 236.112L88.896 236.028C89.12 234.082 90.422 232.836 92.578 232.836C94.622 232.836 95.826 234.012 95.826 235.72C95.826 237.232 95.154 237.988 93.096 239.08C91.304 240.032 90.38 241.068 90.324 241.824H95.826V243H88.84ZM100.899 243.224C98.6593 243.224 97.3713 241.642 97.3713 238.8C97.3713 235.524 98.3513 232.836 101.291 232.836C103.055 232.836 103.979 233.788 104.371 235.188L103.111 235.3C102.887 234.516 102.383 234.012 101.291 234.012C99.7793 234.012 98.8273 235.188 98.6313 237.582C99.1073 236.854 99.9893 236.308 101.123 236.308C103.083 236.308 104.413 237.652 104.413 239.696C104.413 241.88 102.957 243.224 100.899 243.224ZM100.927 242.048C102.229 242.048 103.153 241.18 103.153 239.696C103.153 238.324 102.285 237.456 101.039 237.456C99.6953 237.456 98.6873 238.324 98.6873 239.696C98.6873 241.068 99.5553 242.048 100.927 242.048Z" fill="#020617"/>
<rect width="36" height="36" transform="translate(-29 264)" fill="#F1F5F9"/>
<rect width="36" height="36" transform="translate(7 264)" fill="#F1F5F9"/>
<path d="M22.214 287.224C20.002 287.224 18.784 286.076 18.7 284.438L19.946 284.354C20.058 285.572 20.968 286.048 22.214 286.048C23.502 286.048 24.622 285.572 24.622 284.228C24.622 282.912 23.656 282.31 22.228 282.31H21.444V281.134H22.228C23.404 281.134 24.272 280.714 24.272 279.58C24.272 278.558 23.6 278.012 22.284 278.012C20.968 278.012 20.338 278.544 20.212 279.426L18.952 279.342C19.134 277.858 20.296 276.836 22.284 276.836C24.3 276.836 25.532 277.872 25.532 279.524C25.532 280.588 24.944 281.302 23.81 281.652C25.098 282.002 25.882 282.954 25.882 284.228C25.882 286.132 24.37 287.224 22.214 287.224ZM29.2179 287V279.636H27.1459V278.6H27.9859C29.0779 278.6 29.4699 278.236 29.4699 277.06H30.4219V287H29.2179Z" fill="#020617"/>
<g opacity="0.5">
<rect width="36" height="36" transform="translate(43 264)" fill="#F1F5F9"/>
<path d="M60.632 287V279.636H58.56V278.6H59.4C60.492 278.6 60.884 278.236 60.884 277.06H61.836V287H60.632Z" fill="#020617"/>
</g>
<g opacity="0.5">
<rect width="36" height="36" transform="translate(79 264)" fill="#F1F5F9"/>
<path d="M93.34 287C93.34 284.9 94.166 283.514 97.148 281.932C98.52 281.204 99.066 280.756 99.066 279.748C99.066 278.726 98.394 278.012 97.078 278.012C95.678 278.012 94.866 278.768 94.656 280.112L93.396 280.028C93.62 278.082 94.922 276.836 97.078 276.836C99.122 276.836 100.326 278.012 100.326 279.72C100.326 281.232 99.654 281.988 97.596 283.08C95.804 284.032 94.88 285.068 94.824 285.824H100.326V287H93.34Z" fill="#020617"/>
</g>
<path d="M212.704 43V33.06H214.622L219.214 41.166V33.06H220.726V43H218.738L214.216 35.076V43H212.704ZM225.911 43.168C223.783 43.168 222.383 41.642 222.383 39.276C222.383 36.91 223.783 35.384 225.911 35.384C228.039 35.384 229.439 36.91 229.439 39.276C229.439 41.642 228.039 43.168 225.911 43.168ZM225.911 41.88C227.171 41.88 227.899 40.914 227.899 39.276C227.899 37.638 227.171 36.672 225.911 36.672C224.651 36.672 223.923 37.638 223.923 39.276C223.923 40.914 224.651 41.88 225.911 41.88ZM232.68 43L229.964 35.552H231.546L233.576 41.488L235.606 35.552H237.202L234.472 43H232.68ZM241.223 43.168C239.053 43.168 237.695 41.628 237.695 39.276C237.695 36.924 239.053 35.384 241.181 35.384C243.211 35.384 244.583 36.826 244.583 39.332V39.71H239.235C239.305 41.166 240.047 41.894 241.237 41.894C242.105 41.894 242.693 41.46 242.931 40.76L244.471 40.858C244.079 42.244 242.861 43.168 241.223 43.168ZM239.235 38.59H243.015C242.917 37.274 242.189 36.644 241.181 36.644C240.117 36.644 239.403 37.33 239.235 38.59ZM246.087 43V35.552H247.445L247.473 36.826C247.837 35.916 248.607 35.384 249.545 35.384C250.651 35.384 251.421 35.958 251.743 36.924C252.079 35.93 252.835 35.384 253.899 35.384C255.467 35.384 256.363 36.392 256.363 38.212V43H254.879V38.576C254.879 37.288 254.417 36.63 253.465 36.63C252.527 36.63 251.925 37.372 251.925 38.632V43H250.511V38.632C250.511 37.372 250.119 36.63 249.125 36.63C248.173 36.63 247.571 37.386 247.571 38.632V43H246.087ZM262.047 43.168C261.011 43.168 260.185 42.692 259.765 41.88L259.723 43H258.337V33.06H259.821V36.602C260.199 35.958 261.011 35.384 262.047 35.384C263.993 35.384 265.211 36.896 265.211 39.276C265.211 41.656 263.993 43.168 262.047 43.168ZM261.809 41.88C262.943 41.88 263.671 40.886 263.671 39.276C263.671 37.638 262.957 36.672 261.823 36.672C260.563 36.672 259.821 37.638 259.821 39.276C259.821 40.886 260.563 41.88 261.809 41.88ZM269.784 43.168C267.614 43.168 266.256 41.628 266.256 39.276C266.256 36.924 267.614 35.384 269.742 35.384C271.772 35.384 273.144 36.826 273.144 39.332V39.71H267.796C267.866 41.166 268.608 41.894 269.798 41.894C270.666 41.894 271.254 41.46 271.492 40.76L273.032 40.858C272.64 42.244 271.422 43.168 269.784 43.168ZM267.796 38.59H271.576C271.478 37.274 270.75 36.644 269.742 36.644C268.678 36.644 267.964 37.33 267.796 38.59ZM274.648 43V35.552H276.006L276.048 36.966C276.328 35.986 276.916 35.552 277.826 35.552H278.54V36.882H277.826C276.692 36.882 276.132 37.428 276.132 38.604V43H274.648ZM283.338 43C283.338 40.746 284.206 39.36 287.062 37.848C288.42 37.134 288.938 36.714 288.938 35.79C288.938 34.866 288.336 34.222 287.146 34.222C285.872 34.222 285.144 34.922 284.948 36.196L283.38 36.098C283.59 34.096 284.934 32.836 287.146 32.836C289.26 32.836 290.506 34.026 290.506 35.762C290.506 37.288 289.82 38.016 287.818 39.08C286.096 40.004 285.228 40.942 285.172 41.614H290.506V43H283.338ZM295.898 43.224C293.42 43.224 291.866 41.236 291.866 38.044C291.866 34.852 293.42 32.836 295.898 32.836C298.39 32.836 299.944 34.838 299.944 38.044C299.944 41.222 298.39 43.224 295.898 43.224ZM295.898 41.838C297.494 41.838 298.376 40.494 298.376 38.044C298.376 35.58 297.494 34.222 295.898 34.222C294.316 34.222 293.434 35.58 293.434 38.044C293.434 40.494 294.316 41.838 295.898 41.838ZM301.303 43C301.303 40.746 302.171 39.36 305.027 37.848C306.385 37.134 306.903 36.714 306.903 35.79C306.903 34.866 306.301 34.222 305.111 34.222C303.837 34.222 303.109 34.922 302.913 36.196L301.345 36.098C301.555 34.096 302.899 32.836 305.111 32.836C307.225 32.836 308.471 34.026 308.471 35.762C308.471 37.288 307.785 38.016 305.783 39.08C304.061 40.004 303.193 40.942 303.137 41.614H308.471V43H301.303ZM314.357 43V40.928H309.345V39.64L314.175 33.06H315.869V39.556H317.087V40.928H315.869V43H314.357ZM311.067 39.556H314.357V35.16L311.067 39.556Z" fill="#020617"/>
<path d="M363 24.5H379C382.038 24.5 384.5 26.9624 384.5 30V46C384.5 49.0376 382.038 51.5 379 51.5H363C359.962 51.5 357.5 49.0376 357.5 46V30C357.5 26.9624 359.962 24.5 363 24.5Z" fill="white"/>
<path d="M363 24.5H379C382.038 24.5 384.5 26.9624 384.5 30V46C384.5 49.0376 382.038 51.5 379 51.5H363C359.962 51.5 357.5 49.0376 357.5 46V30C357.5 26.9624 359.962 24.5 363 24.5Z" stroke="#E2E8F0"/>
<path d="M369 42L373 38L369 34" stroke="#3B82F6" stroke-linecap="round" stroke-linejoin="round"/>
<path d="M153.532 74.192C151.564 74.192 150.304 73.004 150.16 71.276L151.24 71.204C151.408 72.476 152.188 73.184 153.556 73.184C154.744 73.184 155.44 72.716 155.44 71.84C155.44 71.048 155.044 70.568 153.004 70.064C151.036 69.572 150.34 68.984 150.34 67.712C150.34 66.284 151.42 65.288 153.172 65.288C155.044 65.288 156.148 66.44 156.34 68L155.26 68.072C155.116 67.04 154.42 66.296 153.148 66.296C152.092 66.296 151.42 66.848 151.42 67.664C151.42 68.468 151.852 68.756 153.652 69.2C155.788 69.728 156.52 70.544 156.52 71.768C156.52 73.256 155.272 74.192 153.532 74.192ZM160.224 74.144C158.952 74.144 158.136 73.244 158.136 71.732V67.64H159.144V71.456C159.144 72.692 159.576 73.256 160.488 73.256C161.496 73.256 162.108 72.572 162.108 71.432V67.64H163.116V74H162.156V72.968C161.808 73.724 161.136 74.144 160.224 74.144Z" fill="#64748B"/>
<path d="M185.104 74V65.48H186.544L189.268 72.872L191.98 65.48H193.42V74H192.388V67.4L189.952 74H188.572L186.136 67.4V74H185.104ZM197.85 74.144C196.086 74.144 194.934 72.848 194.934 70.82C194.934 68.792 196.086 67.496 197.85 67.496C199.602 67.496 200.754 68.792 200.754 70.82C200.754 72.848 199.602 74.144 197.85 74.144ZM197.85 73.184C199.014 73.184 199.698 72.296 199.698 70.82C199.698 69.344 199.014 68.456 197.85 68.456C196.674 68.456 195.99 69.344 195.99 70.82C195.99 72.296 196.674 73.184 197.85 73.184Z" fill="#64748B"/>
<path d="M225.296 74V66.488H222.644V65.48H228.98V66.488H226.328V74H225.296ZM231.325 74.144C230.053 74.144 229.237 73.244 229.237 71.732V67.64H230.245V71.456C230.245 72.692 230.677 73.256 231.589 73.256C232.597 73.256 233.209 72.572 233.209 71.432V67.64H234.217V74H233.257V72.968C232.909 73.724 232.237 74.144 231.325 74.144Z" fill="#64748B"/>
<path d="M258.7 74L256.456 65.48H257.584L259.336 72.584L261.076 65.48H262.252L264.004 72.584L265.744 65.48H266.884L264.64 74H263.344L261.664 67.4L259.984 74H258.7ZM270.307 74.144C268.507 74.144 267.391 72.836 267.391 70.82C267.391 68.804 268.507 67.496 270.259 67.496C271.915 67.496 273.067 68.696 273.067 70.832V71.132H268.447C268.519 72.5 269.203 73.184 270.307 73.184C271.135 73.184 271.675 72.764 271.891 72.116L272.971 72.2C272.635 73.34 271.651 74.144 270.307 74.144ZM268.447 70.244H271.963C271.867 69.02 271.195 68.456 270.259 68.456C269.275 68.456 268.615 69.068 268.447 70.244Z" fill="#64748B"/>
<path d="M296.796 74V66.488H294.144V65.48H300.48V66.488H297.828V74H296.796ZM301.218 74V65.48H302.226V68.636C302.55 67.856 303.27 67.496 304.146 67.496C305.514 67.496 306.27 68.492 306.27 69.908V74H305.262V70.196C305.262 68.972 304.818 68.384 303.93 68.384C302.898 68.384 302.226 69.032 302.226 70.208V74H301.218Z" fill="#64748B"/>
<path d="M332.104 74V65.48H337.456V66.488H333.136V69.344H337.24V70.328H333.136V74H332.104ZM338.675 74V67.64H339.563L339.599 68.816C339.827 68.012 340.331 67.64 341.111 67.64H341.735V68.6H341.123C340.163 68.6 339.683 69.116 339.683 70.16V74H338.675Z" fill="#64748B"/>
<path d="M369.532 74.192C367.564 74.192 366.304 73.004 366.16 71.276L367.24 71.204C367.408 72.476 368.188 73.184 369.556 73.184C370.744 73.184 371.44 72.716 371.44 71.84C371.44 71.048 371.044 70.568 369.004 70.064C367.036 69.572 366.34 68.984 366.34 67.712C366.34 66.284 367.42 65.288 369.172 65.288C371.044 65.288 372.148 66.44 372.34 68L371.26 68.072C371.116 67.04 370.42 66.296 369.148 66.296C368.092 66.296 367.42 66.848 367.42 67.664C367.42 68.468 367.852 68.756 369.652 69.2C371.788 69.728 372.52 70.544 372.52 71.768C372.52 73.256 371.272 74.192 369.532 74.192ZM375.969 74.144C374.649 74.144 373.821 73.508 373.821 72.416C373.821 71.336 374.433 70.736 375.825 70.472L378.081 70.052C378.081 68.984 377.577 68.456 376.569 68.456C375.681 68.456 375.189 68.864 374.997 69.596L373.929 69.512C374.169 68.312 375.129 67.496 376.569 67.496C378.201 67.496 379.089 68.48 379.089 70.088V72.716C379.089 73.004 379.185 73.112 379.425 73.112H379.677V74C379.605 74.012 379.449 74.024 379.293 74.024C378.525 74.024 378.177 73.724 378.093 73.016C377.781 73.676 376.905 74.144 375.969 74.144ZM376.065 73.256C377.337 73.256 378.081 72.44 378.081 71.384V70.928L376.017 71.312C375.153 71.468 374.877 71.792 374.877 72.32C374.877 72.92 375.321 73.256 376.065 73.256Z" fill="#64748B"/>
<g opacity="0.5">
<path d="M139 94C139 90.6863 141.686 88 145 88H175V124H145C141.686 124 139 121.314 139 118V94Z" fill="#F1F5F9"/>
<path d="M149.84 111C149.84 108.9 150.666 107.514 153.648 105.932C155.02 105.204 155.566 104.756 155.566 103.748C155.566 102.726 154.894 102.012 153.578 102.012C152.178 102.012 151.366 102.768 151.156 104.112L149.896 104.028C150.12 102.082 151.422 100.836 153.578 100.836C155.622 100.836 156.826 102.012 156.826 103.72C156.826 105.232 156.154 105.988 154.096 107.08C152.304 108.032 151.38 109.068 151.324 109.824H156.826V111H149.84ZM159.955 111C159.955 107.92 161.271 104.784 163.483 102.236H157.743V101.06H164.799V102.152C162.293 105.008 161.187 107.64 161.187 111H159.955Z" fill="#020617"/>
</g>
<g opacity="0.5">
<rect width="36" height="36" transform="translate(175 88)" fill="#F1F5F9"/>
<path d="M184.84 111C184.84 108.9 185.666 107.514 188.648 105.932C190.02 105.204 190.566 104.756 190.566 103.748C190.566 102.726 189.894 102.012 188.578 102.012C187.178 102.012 186.366 102.768 186.156 104.112L184.896 104.028C185.12 102.082 186.422 100.836 188.578 100.836C190.622 100.836 191.826 102.012 191.826 103.72C191.826 105.232 191.154 105.988 189.096 107.08C187.304 108.032 186.38 109.068 186.324 109.824H191.826V111H184.84ZM196.896 111.224C194.754 111.224 193.228 110.202 193.228 108.27C193.228 106.982 193.97 106.072 195.146 105.652C194.264 105.288 193.704 104.63 193.704 103.566C193.704 101.998 194.964 100.836 196.896 100.836C198.828 100.836 200.088 101.998 200.088 103.566C200.088 104.63 199.528 105.288 198.646 105.652C199.822 106.072 200.564 106.982 200.564 108.27C200.564 110.202 199.038 111.224 196.896 111.224ZM196.896 105.162C198.128 105.162 198.828 104.63 198.828 103.566C198.828 102.614 198.156 102.012 196.896 102.012C195.636 102.012 194.964 102.614 194.964 103.566C194.964 104.63 195.664 105.162 196.896 105.162ZM196.896 110.048C198.366 110.048 199.304 109.46 199.304 108.2C199.304 107.038 198.548 106.282 196.896 106.282C195.244 106.282 194.488 107.038 194.488 108.2C194.488 109.46 195.426 110.048 196.896 110.048Z" fill="#020617"/>
</g>
<g opacity="0.5">
<rect width="36" height="36" transform="translate(211 88)" fill="#F1F5F9"/>
<path d="M220.84 111C220.84 108.9 221.666 107.514 224.648 105.932C226.02 105.204 226.566 104.756 226.566 103.748C226.566 102.726 225.894 102.012 224.578 102.012C223.178 102.012 222.366 102.768 222.156 104.112L220.896 104.028C221.12 102.082 222.422 100.836 224.578 100.836C226.622 100.836 227.826 102.012 227.826 103.72C227.826 105.232 227.154 105.988 225.096 107.08C223.304 108.032 222.38 109.068 222.324 109.824H227.826V111H220.84ZM232.7 111.224C231.048 111.224 229.998 110.314 229.634 109.082L230.908 108.984C231.132 109.656 231.72 110.048 232.7 110.048C234.212 110.048 235.108 108.984 235.262 106.52C234.73 107.36 233.862 107.836 232.812 107.836C230.88 107.836 229.508 106.436 229.508 104.364C229.508 102.194 230.964 100.836 232.966 100.836C235.458 100.836 236.55 102.656 236.55 105.442C236.55 108.774 235.598 111.224 232.7 111.224ZM232.896 106.646C234.254 106.646 235.22 105.82 235.22 104.392C235.22 103.02 234.366 102.012 232.966 102.012C231.594 102.012 230.768 102.992 230.768 104.364C230.768 105.764 231.636 106.646 232.896 106.646Z" fill="#020617"/>
</g>
<g opacity="0.5">
<rect width="36" height="36" transform="translate(247 88)" fill="#F1F5F9"/>
<path d="M260.214 111.224C258.002 111.224 256.784 110.076 256.7 108.438L257.946 108.354C258.058 109.572 258.968 110.048 260.214 110.048C261.502 110.048 262.622 109.572 262.622 108.228C262.622 106.912 261.656 106.31 260.228 106.31H259.444V105.134H260.228C261.404 105.134 262.272 104.714 262.272 103.58C262.272 102.558 261.6 102.012 260.284 102.012C258.968 102.012 258.338 102.544 258.212 103.426L256.952 103.342C257.134 101.858 258.296 100.836 260.284 100.836C262.3 100.836 263.532 101.872 263.532 103.524C263.532 104.588 262.944 105.302 261.81 105.652C263.098 106.002 263.882 106.954 263.882 108.228C263.882 110.132 262.37 111.224 260.214 111.224ZM269.22 111.224C266.812 111.224 265.286 109.222 265.286 106.044C265.286 102.852 266.812 100.836 269.22 100.836C271.642 100.836 273.168 102.838 273.168 106.044C273.168 109.222 271.642 111.224 269.22 111.224ZM269.22 110.048C270.942 110.048 271.908 108.606 271.908 106.044C271.908 103.468 270.942 102.012 269.22 102.012C267.512 102.012 266.546 103.468 266.546 106.044C266.546 108.606 267.512 110.048 269.22 110.048Z" fill="#020617"/>
</g>
<g opacity="0.5">
<rect width="36" height="36" transform="translate(283 88)" fill="#F1F5F9"/>
<path d="M298.214 111.224C296.002 111.224 294.784 110.076 294.7 108.438L295.946 108.354C296.058 109.572 296.968 110.048 298.214 110.048C299.502 110.048 300.622 109.572 300.622 108.228C300.622 106.912 299.656 106.31 298.228 106.31H297.444V105.134H298.228C299.404 105.134 300.272 104.714 300.272 103.58C300.272 102.558 299.6 102.012 298.284 102.012C296.968 102.012 296.338 102.544 296.212 103.426L294.952 103.342C295.134 101.858 296.296 100.836 298.284 100.836C300.3 100.836 301.532 101.872 301.532 103.524C301.532 104.588 300.944 105.302 299.81 105.652C301.098 106.002 301.882 106.954 301.882 108.228C301.882 110.132 300.37 111.224 298.214 111.224ZM305.218 111V103.636H303.146V102.6H303.986C305.078 102.6 305.47 102.236 305.47 101.06H306.422V111H305.218Z" fill="#020617"/>
</g>
<rect width="36" height="36" transform="translate(319 88)" fill="#F1F5F9"/>
<path d="M336.632 111V103.636H334.56V102.6H335.4C336.492 102.6 336.884 102.236 336.884 101.06H337.836V111H336.632Z" fill="#020617"/>
<path d="M355 88H385C388.314 88 391 90.6863 391 94V118C391 121.314 388.314 124 385 124H355V88Z" fill="#F1F5F9"/>
<path d="M369.34 111C369.34 108.9 370.166 107.514 373.148 105.932C374.52 105.204 375.066 104.756 375.066 103.748C375.066 102.726 374.394 102.012 373.078 102.012C371.678 102.012 370.866 102.768 370.656 104.112L369.396 104.028C369.62 102.082 370.922 100.836 373.078 100.836C375.122 100.836 376.326 102.012 376.326 103.72C376.326 105.232 375.654 105.988 373.596 107.08C371.804 108.032 370.88 109.068 370.824 109.824H376.326V111H369.34Z" fill="#020617"/>
<path d="M139 138C139 134.686 141.686 132 145 132H175V168H145C141.686 168 139 165.314 139 162V138Z" fill="#F1F5F9"/>
<path d="M156.714 155.224C154.502 155.224 153.284 154.076 153.2 152.438L154.446 152.354C154.558 153.572 155.468 154.048 156.714 154.048C158.002 154.048 159.122 153.572 159.122 152.228C159.122 150.912 158.156 150.31 156.728 150.31H155.944V149.134H156.728C157.904 149.134 158.772 148.714 158.772 147.58C158.772 146.558 158.1 146.012 156.784 146.012C155.468 146.012 154.838 146.544 154.712 147.426L153.452 147.342C153.634 145.858 154.796 144.836 156.784 144.836C158.8 144.836 160.032 145.872 160.032 147.524C160.032 148.588 159.444 149.302 158.31 149.652C159.598 150.002 160.382 150.954 160.382 152.228C160.382 154.132 158.87 155.224 156.714 155.224Z" fill="#020617"/>
<rect width="36" height="36" transform="translate(175 132)" fill="#F1F5F9"/>
<path d="M193.974 155V152.844H188.92V151.752L193.89 145.06H195.178V151.668H196.41V152.844H195.178V155H193.974ZM190.376 151.668H193.974V146.908L190.376 151.668Z" fill="#020617"/>
<rect width="36" height="36" transform="translate(211 132)" fill="#F1F5F9"/>
<path d="M228.868 155.224C226.768 155.224 225.48 154.09 225.34 152.438L226.6 152.354C226.74 153.474 227.608 154.048 228.868 154.048C230.268 154.048 231.15 153.208 231.15 151.808C231.15 150.408 230.296 149.526 228.84 149.526C227.916 149.526 227.118 149.946 226.796 150.646H225.508L226.166 145.06H231.738V146.236H227.272L226.908 149.232C227.412 148.672 228.21 148.378 229.064 148.378C231.052 148.378 232.41 149.82 232.41 151.808C232.41 153.81 230.954 155.224 228.868 155.224Z" fill="#020617"/>
<path d="M247 138C247 134.686 249.686 132 253 132H277C280.314 132 283 134.686 283 138V162C283 165.314 280.314 168 277 168H253C249.686 168 247 165.314 247 162V138Z" fill="#3B82F6"/>
<path d="M264.868 155.224C262.628 155.224 261.34 153.642 261.34 150.8C261.34 147.524 262.32 144.836 265.26 144.836C267.024 144.836 267.948 145.788 268.34 147.188L267.08 147.3C266.856 146.516 266.352 146.012 265.26 146.012C263.748 146.012 262.796 147.188 262.6 149.582C263.076 148.854 263.958 148.308 265.092 148.308C267.052 148.308 268.382 149.652 268.382 151.696C268.382 153.88 266.926 155.224 264.868 155.224ZM264.896 154.048C266.198 154.048 267.122 153.18 267.122 151.696C267.122 150.324 266.254 149.456 265.008 149.456C263.664 149.456 262.656 150.324 262.656 151.696C262.656 153.068 263.524 154.048 264.896 154.048Z" fill="#F8FAFC"/>
<path d="M299.492 155C299.492 151.92 300.808 148.784 303.02 146.236H297.28V145.06H304.336V146.152C301.83 149.008 300.724 151.64 300.724 155H299.492Z" fill="#020617"/>
<path d="M336.728 155.224C334.586 155.224 333.06 154.202 333.06 152.27C333.06 150.982 333.802 150.072 334.978 149.652C334.096 149.288 333.536 148.63 333.536 147.566C333.536 145.998 334.796 144.836 336.728 144.836C338.66 144.836 339.92 145.998 339.92 147.566C339.92 148.63 339.36 149.288 338.478 149.652C339.654 150.072 340.396 150.982 340.396 152.27C340.396 154.202 338.87 155.224 336.728 155.224ZM336.728 149.162C337.96 149.162 338.66 148.63 338.66 147.566C338.66 146.614 337.988 146.012 336.728 146.012C335.468 146.012 334.796 146.614 334.796 147.566C334.796 148.63 335.496 149.162 336.728 149.162ZM336.728 154.048C338.198 154.048 339.136 153.46 339.136 152.2C339.136 151.038 338.38 150.282 336.728 150.282C335.076 150.282 334.32 151.038 334.32 152.2C334.32 153.46 335.258 154.048 336.728 154.048Z" fill="#020617"/>
<path d="M372.532 155.224C370.88 155.224 369.83 154.314 369.466 153.082L370.74 152.984C370.964 153.656 371.552 154.048 372.532 154.048C374.044 154.048 374.94 152.984 375.094 150.52C374.562 151.36 373.694 151.836 372.644 151.836C370.712 151.836 369.34 150.436 369.34 148.364C369.34 146.194 370.796 144.836 372.798 144.836C375.29 144.836 376.382 146.656 376.382 149.442C376.382 152.774 375.43 155.224 372.532 155.224ZM372.728 150.646C374.086 150.646 375.052 149.82 375.052 148.392C375.052 147.02 374.198 146.012 372.798 146.012C371.426 146.012 370.6 146.992 370.6 148.364C370.6 149.764 371.468 150.646 372.728 150.646Z" fill="#020617"/>
<path d="M152.132 199V191.636H150.06V190.6H150.9C151.992 190.6 152.384 190.236 152.384 189.06H153.336V199H152.132ZM159.37 199.224C156.962 199.224 155.436 197.222 155.436 194.044C155.436 190.852 156.962 188.836 159.37 188.836C161.792 188.836 163.318 190.838 163.318 194.044C163.318 197.222 161.792 199.224 159.37 199.224ZM159.37 198.048C161.092 198.048 162.058 196.606 162.058 194.044C162.058 191.468 161.092 190.012 159.37 190.012C157.662 190.012 156.696 191.468 156.696 194.044C156.696 196.606 157.662 198.048 159.37 198.048Z" fill="#020617"/>
<path d="M190.132 199V191.636H188.06V190.6H188.9C189.992 190.6 190.384 190.236 190.384 189.06H191.336V199H190.132ZM194.945 199V191.636H192.873V190.6H193.713C194.805 190.6 195.197 190.236 195.197 189.06H196.149V199H194.945Z" fill="#020617"/>
<path d="M224.632 199V191.636H222.56V190.6H223.4C224.492 190.6 224.884 190.236 224.884 189.06H225.836V199H224.632ZM228.076 199C228.076 196.9 228.902 195.514 231.884 193.932C233.256 193.204 233.802 192.756 233.802 191.748C233.802 190.726 233.13 190.012 231.814 190.012C230.414 190.012 229.602 190.768 229.392 192.112L228.132 192.028C228.356 190.082 229.658 188.836 231.814 188.836C233.858 188.836 235.062 190.012 235.062 191.72C235.062 193.232 234.39 193.988 232.332 195.08C230.54 196.032 229.616 197.068 229.56 197.824H235.062V199H228.076Z" fill="#020617"/>
<path d="M260.632 199V191.636H258.56V190.6H259.4C260.492 190.6 260.884 190.236 260.884 189.06H261.836V199H260.632ZM267.587 199.224C265.375 199.224 264.157 198.076 264.073 196.438L265.319 196.354C265.431 197.572 266.341 198.048 267.587 198.048C268.875 198.048 269.995 197.572 269.995 196.228C269.995 194.912 269.029 194.31 267.601 194.31H266.817V193.134H267.601C268.777 193.134 269.645 192.714 269.645 191.58C269.645 190.558 268.973 190.012 267.657 190.012C266.341 190.012 265.711 190.544 265.585 191.426L264.325 191.342C264.507 189.858 265.669 188.836 267.657 188.836C269.673 188.836 270.905 189.872 270.905 191.524C270.905 192.588 270.317 193.302 269.183 193.652C270.471 194.002 271.255 194.954 271.255 196.228C271.255 198.132 269.743 199.224 267.587 199.224Z" fill="#020617"/>
<path d="M296.632 199V191.636H294.56V190.6H295.4C296.492 190.6 296.884 190.236 296.884 189.06H297.836V199H296.632ZM304.574 199V196.844H299.52V195.752L304.49 189.06H305.778V195.668H307.01V196.844H305.778V199H304.574ZM300.976 195.668H304.574V190.908L300.976 195.668Z" fill="#020617"/>
<path d="M332.132 199V191.636H330.06V190.6H330.9C331.992 190.6 332.384 190.236 332.384 189.06H333.336V199H332.132ZM339.241 199.224C337.141 199.224 335.853 198.09 335.713 196.438L336.973 196.354C337.113 197.474 337.981 198.048 339.241 198.048C340.641 198.048 341.523 197.208 341.523 195.808C341.523 194.408 340.669 193.526 339.213 193.526C338.289 193.526 337.491 193.946 337.169 194.646H335.881L336.539 189.06H342.111V190.236H337.645L337.281 193.232C337.785 192.672 338.583 192.378 339.437 192.378C341.425 192.378 342.783 193.82 342.783 195.808C342.783 197.81 341.327 199.224 339.241 199.224Z" fill="#020617"/>
<path d="M368.632 199V191.636H366.56V190.6H367.4C368.492 190.6 368.884 190.236 368.884 189.06H369.836V199H368.632ZM375.604 199.224C373.364 199.224 372.076 197.642 372.076 194.8C372.076 191.524 373.056 188.836 375.996 188.836C377.76 188.836 378.684 189.788 379.076 191.188L377.816 191.3C377.592 190.516 377.088 190.012 375.996 190.012C374.484 190.012 373.532 191.188 373.336 193.582C373.812 192.854 374.694 192.308 375.828 192.308C377.788 192.308 379.118 193.652 379.118 195.696C379.118 197.88 377.662 199.224 375.604 199.224ZM375.632 198.048C376.934 198.048 377.858 197.18 377.858 195.696C377.858 194.324 376.99 193.456 375.744 193.456C374.4 193.456 373.392 194.324 373.392 195.696C373.392 197.068 374.26 198.048 375.632 198.048Z" fill="#020617"/>
<path d="M153.132 243V235.636H151.06V234.6H151.9C152.992 234.6 153.384 234.236 153.384 233.06H154.336V243H153.132ZM158.365 243C158.365 239.92 159.681 236.784 161.893 234.236H156.153V233.06H163.209V234.152C160.703 237.008 159.597 239.64 159.597 243H158.365Z" fill="#020617"/>
<path d="M188.632 243V235.636H186.56V234.6H187.4C188.492 234.6 188.884 234.236 188.884 233.06H189.836V243H188.632ZM195.328 243.224C193.186 243.224 191.66 242.202 191.66 240.27C191.66 238.982 192.402 238.072 193.578 237.652C192.696 237.288 192.136 236.63 192.136 235.566C192.136 233.998 193.396 232.836 195.328 232.836C197.26 232.836 198.52 233.998 198.52 235.566C198.52 236.63 197.96 237.288 197.078 237.652C198.254 238.072 198.996 238.982 198.996 240.27C198.996 242.202 197.47 243.224 195.328 243.224ZM195.328 237.162C196.56 237.162 197.26 236.63 197.26 235.566C197.26 234.614 196.588 234.012 195.328 234.012C194.068 234.012 193.396 234.614 193.396 235.566C193.396 236.63 194.096 237.162 195.328 237.162ZM195.328 242.048C196.798 242.048 197.736 241.46 197.736 240.2C197.736 239.038 196.98 238.282 195.328 238.282C193.676 238.282 192.92 239.038 192.92 240.2C192.92 241.46 193.858 242.048 195.328 242.048Z" fill="#020617"/>
<path d="M224.132 243V235.636H222.06V234.6H222.9C223.992 234.6 224.384 234.236 224.384 233.06H225.336V243H224.132ZM230.905 243.224C229.253 243.224 228.203 242.314 227.839 241.082L229.113 240.984C229.337 241.656 229.925 242.048 230.905 242.048C232.417 242.048 233.313 240.984 233.467 238.52C232.935 239.36 232.067 239.836 231.017 239.836C229.085 239.836 227.713 238.436 227.713 236.364C227.713 234.194 229.169 232.836 231.171 232.836C233.663 232.836 234.755 234.656 234.755 237.442C234.755 240.774 233.803 243.224 230.905 243.224ZM231.101 238.646C232.459 238.646 233.425 237.82 233.425 236.392C233.425 235.02 232.571 234.012 231.171 234.012C229.799 234.012 228.973 234.992 228.973 236.364C228.973 237.764 229.841 238.646 231.101 238.646Z" fill="#020617"/>
<path d="M256.84 243C256.84 240.9 257.666 239.514 260.648 237.932C262.02 237.204 262.566 236.756 262.566 235.748C262.566 234.726 261.894 234.012 260.578 234.012C259.178 234.012 258.366 234.768 258.156 236.112L256.896 236.028C257.12 234.082 258.422 232.836 260.578 232.836C262.622 232.836 263.826 234.012 263.826 235.72C263.826 237.232 263.154 237.988 261.096 239.08C259.304 240.032 258.38 241.068 258.324 241.824H263.826V243H256.84ZM269.165 243.224C266.757 243.224 265.231 241.222 265.231 238.044C265.231 234.852 266.757 232.836 269.165 232.836C271.587 232.836 273.113 234.838 273.113 238.044C273.113 241.222 271.587 243.224 269.165 243.224ZM269.165 242.048C270.887 242.048 271.853 240.606 271.853 238.044C271.853 235.468 270.887 234.012 269.165 234.012C267.457 234.012 266.491 235.468 266.491 238.044C266.491 240.606 267.457 242.048 269.165 242.048Z" fill="#020617"/>
<path d="M294.34 243C294.34 240.9 295.166 239.514 298.148 237.932C299.52 237.204 300.066 236.756 300.066 235.748C300.066 234.726 299.394 234.012 298.078 234.012C296.678 234.012 295.866 234.768 295.656 236.112L294.396 236.028C294.62 234.082 295.922 232.836 298.078 232.836C300.122 232.836 301.326 234.012 301.326 235.72C301.326 237.232 300.654 237.988 298.596 239.08C296.804 240.032 295.88 241.068 295.824 241.824H301.326V243H294.34ZM304.8 243V235.636H302.728V234.6H303.568C304.66 234.6 305.052 234.236 305.052 233.06H306.004V243H304.8Z" fill="#020617"/>
<path d="M328.84 243C328.84 240.9 329.666 239.514 332.648 237.932C334.02 237.204 334.566 236.756 334.566 235.748C334.566 234.726 333.894 234.012 332.578 234.012C331.178 234.012 330.366 234.768 330.156 236.112L328.896 236.028C329.12 234.082 330.422 232.836 332.578 232.836C334.622 232.836 335.826 234.012 335.826 235.72C335.826 237.232 335.154 237.988 333.096 239.08C331.304 240.032 330.38 241.068 330.324 241.824H335.826V243H328.84ZM337.508 243C337.508 240.9 338.334 239.514 341.316 237.932C342.688 237.204 343.234 236.756 343.234 235.748C343.234 234.726 342.562 234.012 341.246 234.012C339.846 234.012 339.034 234.768 338.824 236.112L337.564 236.028C337.788 234.082 339.09 232.836 341.246 232.836C343.29 232.836 344.494 234.012 344.494 235.72C344.494 237.232 343.822 237.988 341.764 239.08C339.972 240.032 339.048 241.068 338.992 241.824H344.494V243H337.508Z" fill="#020617"/>
<path d="M365.34 243C365.34 240.9 366.166 239.514 369.148 237.932C370.52 237.204 371.066 236.756 371.066 235.748C371.066 234.726 370.394 234.012 369.078 234.012C367.678 234.012 366.866 234.768 366.656 236.112L365.396 236.028C365.62 234.082 366.922 232.836 369.078 232.836C371.122 232.836 372.326 234.012 372.326 235.72C372.326 237.232 371.654 237.988 369.596 239.08C367.804 240.032 366.88 241.068 366.824 241.824H372.326V243H365.34ZM377.109 243.224C374.897 243.224 373.679 242.076 373.595 240.438L374.841 240.354C374.953 241.572 375.863 242.048 377.109 242.048C378.397 242.048 379.517 241.572 379.517 240.228C379.517 238.912 378.551 238.31 377.123 238.31H376.339V237.134H377.123C378.299 237.134 379.167 236.714 379.167 235.58C379.167 234.558 378.495 234.012 377.179 234.012C375.863 234.012 375.233 234.544 375.107 235.426L373.847 235.342C374.029 233.858 375.191 232.836 377.179 232.836C379.195 232.836 380.427 233.872 380.427 235.524C380.427 236.588 379.839 237.302 378.705 237.652C379.993 238.002 380.777 238.954 380.777 240.228C380.777 242.132 379.265 243.224 377.109 243.224Z" fill="#020617"/>
<path d="M149.34 287C149.34 284.9 150.166 283.514 153.148 281.932C154.52 281.204 155.066 280.756 155.066 279.748C155.066 278.726 154.394 278.012 153.078 278.012C151.678 278.012 150.866 278.768 150.656 280.112L149.396 280.028C149.62 278.082 150.922 276.836 153.078 276.836C155.122 276.836 156.326 278.012 156.326 279.72C156.326 281.232 155.654 281.988 153.596 283.08C151.804 284.032 150.88 285.068 150.824 285.824H156.326V287H149.34ZM162.287 287V284.844H157.233V283.752L162.203 277.06H163.491V283.668H164.722V284.844H163.491V287H162.287ZM158.689 283.668H162.287V278.908L158.689 283.668Z" fill="#020617"/>
<path d="M184.84 287C184.84 284.9 185.666 283.514 188.648 281.932C190.02 281.204 190.566 280.756 190.566 279.748C190.566 278.726 189.894 278.012 188.578 278.012C187.178 278.012 186.366 278.768 186.156 280.112L184.896 280.028C185.12 278.082 186.422 276.836 188.578 276.836C190.622 276.836 191.826 278.012 191.826 279.72C191.826 281.232 191.154 281.988 189.096 283.08C187.304 284.032 186.38 285.068 186.324 285.824H191.826V287H184.84ZM197.036 287.224C194.936 287.224 193.648 286.09 193.508 284.438L194.768 284.354C194.908 285.474 195.776 286.048 197.036 286.048C198.436 286.048 199.318 285.208 199.318 283.808C199.318 282.408 198.464 281.526 197.008 281.526C196.084 281.526 195.286 281.946 194.964 282.646H193.676L194.334 277.06H199.906V278.236H195.44L195.076 281.232C195.58 280.672 196.378 280.378 197.232 280.378C199.22 280.378 200.578 281.82 200.578 283.808C200.578 285.81 199.122 287.224 197.036 287.224Z" fill="#020617"/>
<path d="M220.84 287C220.84 284.9 221.666 283.514 224.648 281.932C226.02 281.204 226.566 280.756 226.566 279.748C226.566 278.726 225.894 278.012 224.578 278.012C223.178 278.012 222.366 278.768 222.156 280.112L220.896 280.028C221.12 278.082 222.422 276.836 224.578 276.836C226.622 276.836 227.826 278.012 227.826 279.72C227.826 281.232 227.154 281.988 225.096 283.08C223.304 284.032 222.38 285.068 222.324 285.824H227.826V287H220.84ZM232.899 287.224C230.659 287.224 229.371 285.642 229.371 282.8C229.371 279.524 230.351 276.836 233.291 276.836C235.055 276.836 235.979 277.788 236.371 279.188L235.111 279.3C234.887 278.516 234.383 278.012 233.291 278.012C231.779 278.012 230.827 279.188 230.631 281.582C231.107 280.854 231.989 280.308 233.123 280.308C235.083 280.308 236.413 281.652 236.413 283.696C236.413 285.88 234.957 287.224 232.899 287.224ZM232.927 286.048C234.229 286.048 235.153 285.18 235.153 283.696C235.153 282.324 234.285 281.456 233.039 281.456C231.695 281.456 230.687 282.324 230.687 283.696C230.687 285.068 231.555 286.048 232.927 286.048Z" fill="#020617"/>
<path d="M257.84 287C257.84 284.9 258.666 283.514 261.648 281.932C263.02 281.204 263.566 280.756 263.566 279.748C263.566 278.726 262.894 278.012 261.578 278.012C260.178 278.012 259.366 278.768 259.156 280.112L257.896 280.028C258.12 278.082 259.422 276.836 261.578 276.836C263.622 276.836 264.826 278.012 264.826 279.72C264.826 281.232 264.154 281.988 262.096 283.08C260.304 284.032 259.38 285.068 259.324 285.824H264.826V287H257.84ZM267.955 287C267.955 283.92 269.271 280.784 271.483 278.236H265.743V277.06H272.799V278.152C270.293 281.008 269.187 283.64 269.187 287H267.955Z" fill="#020617"/>
<path d="M292.84 287C292.84 284.9 293.666 283.514 296.648 281.932C298.02 281.204 298.566 280.756 298.566 279.748C298.566 278.726 297.894 278.012 296.578 278.012C295.178 278.012 294.366 278.768 294.156 280.112L292.896 280.028C293.12 278.082 294.422 276.836 296.578 276.836C298.622 276.836 299.826 278.012 299.826 279.72C299.826 281.232 299.154 281.988 297.096 283.08C295.304 284.032 294.38 285.068 294.324 285.824H299.826V287H292.84ZM304.896 287.224C302.754 287.224 301.228 286.202 301.228 284.27C301.228 282.982 301.97 282.072 303.146 281.652C302.264 281.288 301.704 280.63 301.704 279.566C301.704 277.998 302.964 276.836 304.896 276.836C306.828 276.836 308.088 277.998 308.088 279.566C308.088 280.63 307.528 281.288 306.646 281.652C307.822 282.072 308.564 282.982 308.564 284.27C308.564 286.202 307.038 287.224 304.896 287.224ZM304.896 281.162C306.128 281.162 306.828 280.63 306.828 279.566C306.828 278.614 306.156 278.012 304.896 278.012C303.636 278.012 302.964 278.614 302.964 279.566C302.964 280.63 303.664 281.162 304.896 281.162ZM304.896 286.048C306.366 286.048 307.304 285.46 307.304 284.2C307.304 283.038 306.548 282.282 304.896 282.282C303.244 282.282 302.488 283.038 302.488 284.2C302.488 285.46 303.426 286.048 304.896 286.048Z" fill="#020617"/>
<path d="M328.84 287C328.84 284.9 329.666 283.514 332.648 281.932C334.02 281.204 334.566 280.756 334.566 279.748C334.566 278.726 333.894 278.012 332.578 278.012C331.178 278.012 330.366 278.768 330.156 280.112L328.896 280.028C329.12 278.082 330.422 276.836 332.578 276.836C334.622 276.836 335.826 278.012 335.826 279.72C335.826 281.232 335.154 281.988 333.096 283.08C331.304 284.032 330.38 285.068 330.324 285.824H335.826V287H328.84ZM340.7 287.224C339.048 287.224 337.998 286.314 337.634 285.082L338.908 284.984C339.132 285.656 339.72 286.048 340.7 286.048C342.212 286.048 343.108 284.984 343.262 282.52C342.73 283.36 341.862 283.836 340.812 283.836C338.88 283.836 337.508 282.436 337.508 280.364C337.508 278.194 338.964 276.836 340.966 276.836C343.458 276.836 344.55 278.656 344.55 281.442C344.55 284.774 343.598 287.224 340.7 287.224ZM340.896 282.646C342.254 282.646 343.22 281.82 343.22 280.392C343.22 279.02 342.366 278.012 340.966 278.012C339.594 278.012 338.768 278.992 338.768 280.364C338.768 281.764 339.636 282.646 340.896 282.646Z" fill="#020617"/>
<path d="M368.214 287.224C366.002 287.224 364.784 286.076 364.7 284.438L365.946 284.354C366.058 285.572 366.968 286.048 368.214 286.048C369.502 286.048 370.622 285.572 370.622 284.228C370.622 282.912 369.656 282.31 368.228 282.31H367.444V281.134H368.228C369.404 281.134 370.272 280.714 370.272 279.58C370.272 278.558 369.6 278.012 368.284 278.012C366.968 278.012 366.338 278.544 366.212 279.426L364.952 279.342C365.134 277.858 366.296 276.836 368.284 276.836C370.3 276.836 371.532 277.872 371.532 279.524C371.532 280.588 370.944 281.302 369.81 281.652C371.098 282.002 371.882 282.954 371.882 284.228C371.882 286.132 370.37 287.224 368.214 287.224ZM377.22 287.224C374.812 287.224 373.286 285.222 373.286 282.044C373.286 278.852 374.812 276.836 377.22 276.836C379.642 276.836 381.168 278.838 381.168 282.044C381.168 285.222 379.642 287.224 377.22 287.224ZM377.22 286.048C378.942 286.048 379.908 284.606 379.908 282.044C379.908 279.468 378.942 278.012 377.22 278.012C375.512 278.012 374.546 279.468 374.546 282.044C374.546 284.606 375.512 286.048 377.22 286.048Z" fill="#020617"/>
</g>
<defs>
<filter id="filter0_d_6852_17423" x="-161" y="0" width="592" height="342" filterUnits="userSpaceOnUse" color-interpolation-filters="sRGB">
<feFlood flood-opacity="0" result="BackgroundImageFix"/>
<feColorMatrix in="SourceAlpha" type="matrix" values="0 0 0 0 0 0 0 0 0 0 0 0 0 0 0 0 0 0 127 0" result="hardAlpha"/>
<feOffset dx="8" dy="8"/>
<feGaussianBlur stdDeviation="8"/>
<feComposite in2="hardAlpha" operator="out"/>
<feColorMatrix type="matrix" values="0 0 0 0 0.0970139 0 0 0 0 0.127226 0 0 0 0 0.183333 0 0 0 0.25 0"/>
<feBlend mode="normal" in2="BackgroundImageFix" result="effect1_dropShadow_6852_17423"/>
<feBlend mode="normal" in="SourceGraphic" in2="effect1_dropShadow_6852_17423" result="shape"/>
</filter>
</defs>
</svg>
