<svg width="288" height="105" viewBox="0 0 288 105" fill="none" xmlns="http://www.w3.org/2000/svg">
<g filter="url(#filter0_d_6852_17418)">
<rect x="8" y="8" width="256" height="72.5854" rx="12" fill="white"/>
<rect x="8.39024" y="8.39024" width="255.22" height="71.8049" rx="11.6098" stroke="#E2E8F0" stroke-width="0.780488"/>
<path d="M30.7967 38.9065C28.6769 38.9065 27.2018 37.3986 27.2018 34.8636C27.2018 32.3723 28.6332 30.7988 30.8076 30.7988C32.7854 30.7988 33.8453 31.8369 34.184 33.5961L32.698 33.6726C32.5013 32.6564 31.8785 32.0335 30.8076 32.0335C29.4855 32.0335 28.666 33.1372 28.666 34.8636C28.666 36.6119 29.5073 37.6718 30.7967 37.6718C31.955 37.6718 32.5669 37.0053 32.7417 35.8907L34.2277 35.9672C33.9218 37.792 32.7526 38.9065 30.7967 38.9065ZM37.0228 38.8628C35.799 38.8628 34.9904 38.2837 34.9904 37.2675C34.9904 36.2622 35.6132 35.7268 36.8917 35.4755L38.8257 35.0931C38.8257 34.2735 38.4433 33.8474 37.7002 33.8474C37.0228 33.8474 36.6403 34.1643 36.5092 34.7543L35.0887 34.6888C35.3182 33.465 36.2579 32.7656 37.7002 32.7656C39.3611 32.7656 40.2243 33.6398 40.2243 35.1914V37.3112C40.2243 37.6281 40.3336 37.7155 40.5522 37.7155H40.7379V38.7317C40.6396 38.7535 40.421 38.7754 40.2243 38.7754C39.5906 38.7754 39.1207 38.5459 39.0115 37.8357C38.7164 38.4585 37.9734 38.8628 37.0228 38.8628ZM37.3069 37.8466C38.2357 37.8466 38.8257 37.2566 38.8257 36.3715V36.0437L37.3178 36.3496C36.695 36.4698 36.4437 36.7321 36.4437 37.1364C36.4437 37.5953 36.7496 37.8466 37.3069 37.8466ZM41.6462 40.3707V32.8968H42.9902L43.0121 33.7709C43.3508 33.1153 43.9845 32.7656 44.7603 32.7656C46.4212 32.7656 47.2407 34.1315 47.2407 35.8142C47.2407 37.497 46.4103 38.8628 44.7494 38.8628C44.0064 38.8628 43.3617 38.5132 43.0448 37.934V40.3707H41.6462ZM44.4216 37.7264C45.2739 37.7264 45.7875 37.0162 45.7875 35.8142C45.7875 34.6123 45.2739 33.902 44.4216 33.902C43.5693 33.902 43.0448 34.5467 43.0448 35.8142C43.0448 37.0817 43.5584 37.7264 44.4216 37.7264ZM50.8611 38.8628C49.1237 38.8628 47.9873 37.6609 47.9873 35.8142C47.9873 33.9785 49.1237 32.7656 50.8611 32.7656C52.3362 32.7656 53.4071 33.5742 53.5819 34.9619L52.1395 35.0384C52.0193 34.2954 51.5386 33.902 50.8611 33.902C49.9542 33.902 49.4406 34.6123 49.4406 35.8142C49.4406 37.0271 49.9542 37.7264 50.8611 37.7264C51.5386 37.7264 52.0303 37.3331 52.1395 36.5135L53.5819 36.5791C53.418 37.9777 52.3581 38.8628 50.8611 38.8628ZM56.3368 38.8628C55.113 38.8628 54.3044 38.2837 54.3044 37.2675C54.3044 36.2622 54.9272 35.7268 56.2057 35.4755L58.1397 35.0931C58.1397 34.2735 57.7573 33.8474 57.0143 33.8474C56.3368 33.8474 55.9544 34.1643 55.8232 34.7543L54.4028 34.6888C54.6322 33.465 55.5719 32.7656 57.0143 32.7656C58.6752 32.7656 59.5384 33.6398 59.5384 35.1914V37.3112C59.5384 37.6281 59.6476 37.7155 59.8662 37.7155H60.0519V38.7317C59.9536 38.7535 59.7351 38.7754 59.5384 38.7754C58.9046 38.7754 58.4348 38.5459 58.3255 37.8357C58.0305 38.4585 57.2874 38.8628 56.3368 38.8628ZM56.6209 37.8466C57.5497 37.8466 58.1397 37.2566 58.1397 36.3715V36.0437L56.6318 36.3496C56.009 36.4698 55.7577 36.7321 55.7577 37.1364C55.7577 37.5953 56.0636 37.8466 56.6209 37.8466ZM60.9602 38.7317V32.8968H62.2277L62.2605 33.8911C62.5774 33.0934 63.233 32.7656 64.0088 32.7656C65.2982 32.7656 65.9975 33.6726 65.9975 34.9838V38.7317H64.5989V35.4318C64.5989 34.4484 64.3366 33.902 63.5827 33.902C62.8287 33.902 62.3589 34.4484 62.3589 35.4318V38.7317H60.9602ZM69.0883 38.8628C67.8645 38.8628 67.0559 38.2837 67.0559 37.2675C67.0559 36.2622 67.6788 35.7268 68.9572 35.4755L70.8913 35.0931C70.8913 34.2735 70.5088 33.8474 69.7658 33.8474C69.0883 33.8474 68.7059 34.1643 68.5748 34.7543L67.1543 34.6888C67.3837 33.465 68.3235 32.7656 69.7658 32.7656C71.4267 32.7656 72.2899 33.6398 72.2899 35.1914V37.3112C72.2899 37.6281 72.3992 37.7155 72.6177 37.7155H72.8035V38.7317C72.7051 38.7535 72.4866 38.7754 72.2899 38.7754C71.6561 38.7754 71.1863 38.5459 71.077 37.8357C70.782 38.4585 70.039 38.8628 69.0883 38.8628ZM69.3724 37.8466C70.3012 37.8466 70.8913 37.2566 70.8913 36.3715V36.0437L69.3834 36.3496C68.7605 36.4698 68.5092 36.7321 68.5092 37.1364C68.5092 37.5953 68.8152 37.8466 69.3724 37.8466ZM76.3154 38.7317V32.8968H77.5829L77.6157 33.8911C77.9326 33.0934 78.5882 32.7656 79.364 32.7656C80.6534 32.7656 81.3527 33.6726 81.3527 34.9838V38.7317H79.954V35.4318C79.954 34.4484 79.6918 33.902 78.9378 33.902C78.1839 33.902 77.714 34.4484 77.714 35.4318V38.7317H76.3154ZM82.6965 38.7317V32.8968H84.0077L84.0405 34.0332C84.27 33.2464 84.718 32.8968 85.4391 32.8968H85.9746V34.0987H85.4282C84.5322 34.0987 84.0951 34.4702 84.0951 35.3662V38.7317H82.6965ZM86.2206 38.7317V37.2019H87.8159V38.7317H86.2206ZM91.4757 38.7317C91.4757 36.8523 92.175 35.7705 94.3057 34.656C95.3657 34.0987 95.7481 33.7928 95.7481 33.1372C95.7481 32.4925 95.3219 32.0335 94.4915 32.0335C93.6064 32.0335 93.0819 32.5471 92.9617 33.4868L91.4976 33.3994C91.6505 31.7822 92.7214 30.7988 94.4915 30.7988C96.207 30.7988 97.2123 31.7385 97.2123 33.1153C97.2123 34.3063 96.655 34.8636 95.1362 35.6722C93.8468 36.3606 93.224 37.0162 93.1803 37.497H97.2123V38.7317H91.4757ZM101.049 38.9065C99.1916 38.9065 98.1645 37.9777 98.0989 36.5463L99.5522 36.4808C99.6287 37.3112 100.197 37.6718 101.049 37.6718C101.901 37.6718 102.59 37.3112 102.59 36.4808C102.59 35.6503 101.967 35.2351 101.027 35.2351H100.35V34.1096H101.027C101.77 34.1096 102.339 33.8255 102.339 33.0825C102.339 32.4269 101.923 32.0335 101.06 32.0335C100.186 32.0335 99.7707 32.416 99.6942 32.9842L98.2409 32.9077C98.3939 31.6402 99.3883 30.7988 101.06 30.7988C102.808 30.7988 103.803 31.6293 103.803 32.9514C103.803 33.76 103.322 34.3282 102.448 34.6013C103.464 34.8745 104.054 35.5738 104.054 36.5573C104.054 38.0324 102.863 38.9065 101.049 38.9065Z" fill="#3B82F6"/>
<path opacity="0.9" d="M30.7093 58.0286C28.6332 58.0286 27.2236 56.4988 27.2236 53.9857C27.2236 51.4725 28.6332 49.9209 30.7093 49.9209C32.5887 49.9209 33.5831 50.9371 33.9109 52.5652L32.9165 52.6307C32.698 51.5271 31.9987 50.8387 30.7093 50.8387C29.2233 50.8387 28.2071 52.0188 28.2071 53.9857C28.2071 55.9525 29.2233 57.1107 30.7093 57.1107C32.0642 57.1107 32.7854 56.3568 32.9821 55.1439L33.9764 55.2095C33.6923 56.8922 32.5669 58.0286 30.7093 58.0286ZM36.8089 57.9849C35.6069 57.9849 34.853 57.4058 34.853 56.4114C34.853 55.428 35.4102 54.8817 36.6777 54.6413L38.732 54.2588C38.732 53.2863 38.2731 52.8056 37.3552 52.8056C36.5466 52.8056 36.0986 53.1771 35.9238 53.8436L34.9513 53.7671C35.1698 52.6744 36.044 51.9314 37.3552 51.9314C38.8412 51.9314 39.6498 52.8274 39.6498 54.2916V56.6846C39.6498 56.9468 39.7372 57.0452 39.9558 57.0452H40.1852V57.8538C40.1197 57.8647 39.9776 57.8756 39.8356 57.8756C39.1363 57.8756 38.8194 57.6024 38.7429 56.9578C38.4588 57.5587 37.6612 57.9849 36.8089 57.9849ZM36.8963 57.1763C38.0545 57.1763 38.732 56.4333 38.732 55.4717V55.0565L36.8526 55.4062C36.0658 55.5482 35.8145 55.8432 35.8145 56.324C35.8145 56.8703 36.2188 57.1763 36.8963 57.1763ZM41.2219 59.4928V52.0625H42.0742L42.0852 52.9476C42.4348 52.2811 43.0795 51.9314 43.8662 51.9314C45.5927 51.9314 46.3685 53.3628 46.3685 54.9582C46.3685 56.5535 45.5927 57.9849 43.8662 57.9849C43.1123 57.9849 42.4457 57.6462 42.1398 57.0889V59.4928H41.2219ZM43.7788 57.1107C44.7841 57.1107 45.4069 56.3131 45.4069 54.9582C45.4069 53.6032 44.7841 52.8056 43.7788 52.8056C42.7735 52.8056 42.1398 53.5377 42.1398 54.9582C42.1398 56.3786 42.7626 57.1107 43.7788 57.1107ZM49.5094 57.8538C48.4604 57.8538 47.9687 57.3948 47.9687 56.3677V52.8711H47.1164V52.0625H47.9687V50.7076H48.8866V52.0625H50.4273V52.8711H48.8866V56.3459C48.8866 56.8703 49.1161 57.0452 49.5968 57.0452H50.4273V57.8538H49.5094ZM53.5058 57.9849C52.3476 57.9849 51.6046 57.1654 51.6046 55.7886V52.0625H52.5224V55.5373C52.5224 56.6627 52.9158 57.1763 53.7462 57.1763C54.6641 57.1763 55.2213 56.5535 55.2213 55.5154V52.0625H56.1392V57.8538H55.265V56.9141C54.9482 57.6024 54.3363 57.9849 53.5058 57.9849ZM57.8896 57.8538V52.0625H58.6982L58.731 53.1334C58.9386 52.4013 59.3975 52.0625 60.1078 52.0625H60.676V52.9367H60.1187C59.2445 52.9367 58.8075 53.4065 58.8075 54.3572V57.8538H57.8896ZM63.7559 51.2649C62.8599 51.2649 62.2698 50.7185 62.2261 49.8662H62.8599C62.9254 50.3689 63.2532 50.5874 63.7559 50.5874C64.2585 50.5874 64.5754 50.3689 64.6409 49.8662H65.2747C65.231 50.7185 64.6519 51.2649 63.7559 51.2649ZM63.1549 57.9849C61.9529 57.9849 61.199 57.4058 61.199 56.4114C61.199 55.428 61.7563 54.8817 63.0238 54.6413L65.078 54.2588C65.078 53.2863 64.6191 52.8056 63.7012 52.8056C62.8927 52.8056 62.4447 53.1771 62.2698 53.8436L61.2973 53.7671C61.5159 52.6744 62.39 51.9314 63.7012 51.9314C65.1873 51.9314 65.9959 52.8274 65.9959 54.2916V56.6846C65.9959 56.9468 66.0833 57.0452 66.3018 57.0452H66.5313V57.8538C66.4657 57.8647 66.3237 57.8756 66.1816 57.8756C65.4823 57.8756 65.1654 57.6024 65.0889 56.9578C64.8048 57.5587 64.0072 57.9849 63.1549 57.9849ZM63.2423 57.1763C64.4006 57.1763 65.078 56.4333 65.078 55.4717V55.0565L63.1986 55.4062C62.4119 55.5482 62.1606 55.8432 62.1606 56.324C62.1606 56.8703 62.5648 57.1763 63.2423 57.1763ZM72.5387 59.6239C71.293 59.6239 70.3533 58.9574 70.1129 57.9412L71.0745 57.8756C71.2493 58.422 71.6427 58.7498 72.5387 58.7498C73.5876 58.7498 74.1667 58.3345 74.1667 57.4822V56.5425C73.8827 57.1544 73.227 57.5478 72.4731 57.5478C70.998 57.5478 69.949 56.3896 69.949 54.7396C69.949 53.0897 70.9761 51.9314 72.4294 51.9314C73.238 51.9314 73.9482 52.3357 74.2105 52.9804V52.0625H75.0846V57.4604C75.0846 58.8153 74.134 59.6239 72.5387 59.6239ZM72.5168 56.6737C73.5111 56.6737 74.1558 55.9306 74.1667 54.7396C74.1886 53.5486 73.5221 52.8056 72.5168 52.8056C71.5006 52.8056 70.9106 53.5486 70.9106 54.7396C70.9106 55.9306 71.5225 56.6737 72.5168 56.6737ZM78.9937 51.2649C78.0977 51.2649 77.5076 50.7185 77.4639 49.8662H78.0977C78.1632 50.3689 78.491 50.5874 78.9937 50.5874C79.4963 50.5874 79.8132 50.3689 79.8787 49.8662H80.5125C80.4688 50.7185 79.8897 51.2649 78.9937 51.2649ZM78.3927 57.9849C77.1907 57.9849 76.4368 57.4058 76.4368 56.4114C76.4368 55.428 76.9941 54.8817 78.2616 54.6413L80.3158 54.2588C80.3158 53.2863 79.8569 52.8056 78.939 52.8056C78.1305 52.8056 77.6825 53.1771 77.5076 53.8436L76.5351 53.7671C76.7537 52.6744 77.6278 51.9314 78.939 51.9314C80.4251 51.9314 81.2337 52.8274 81.2337 54.2916V56.6846C81.2337 56.9468 81.3211 57.0452 81.5396 57.0452H81.7691V57.8538C81.7035 57.8647 81.5615 57.8756 81.4194 57.8756C80.7201 57.8756 80.4032 57.6024 80.3267 56.9578C80.0427 57.5587 79.245 57.9849 78.3927 57.9849ZM78.4801 57.1763C79.6384 57.1763 80.3158 56.4333 80.3158 55.4717V55.0565L78.4364 55.4062C77.6497 55.5482 77.3984 55.8432 77.3984 56.324C77.3984 56.8703 77.8027 57.1763 78.4801 57.1763ZM84.8933 57.9849C83.3417 57.9849 82.4785 57.1654 82.3911 56.029L83.3526 55.9634C83.4619 56.6627 83.9099 57.1107 84.8933 57.1107C85.68 57.1107 86.1936 56.8703 86.1936 56.3022C86.1936 55.8432 85.9641 55.6465 84.7185 55.428C83.0576 55.133 82.5331 54.6194 82.5331 53.7016C82.5331 52.6744 83.3198 51.9314 84.7185 51.9314C86.128 51.9314 86.8711 52.7837 87.0459 53.789L86.0843 53.8545C85.9532 53.2426 85.4943 52.8056 84.7076 52.8056C83.8771 52.8056 83.4947 53.1662 83.4947 53.6579C83.4947 54.2261 83.8662 54.4446 84.8933 54.6194C86.6635 54.9254 87.1552 55.3843 87.1552 56.3022C87.1552 57.373 86.1717 57.9849 84.8933 57.9849ZM88.3861 51.1556V50.0848H89.3476V51.1556H88.3861ZM88.4079 57.8538V52.0625H89.3258V57.8538H88.4079ZM92.7579 57.8538C91.7089 57.8538 91.2172 57.3948 91.2172 56.3677V52.8711H90.3649V52.0625H91.2172V50.7076H92.1351V52.0625H93.6757V52.8711H92.1351V56.3459C92.1351 56.8703 92.3645 57.0452 92.8453 57.0452H93.6757V57.8538H92.7579ZM96.9739 51.2649C96.0779 51.2649 95.4878 50.7185 95.4441 49.8662H96.0779C96.1434 50.3689 96.4712 50.5874 96.9739 50.5874C97.4765 50.5874 97.7934 50.3689 97.8589 49.8662H98.4927C98.449 50.7185 97.8699 51.2649 96.9739 51.2649ZM96.3729 57.9849C95.1709 57.9849 94.417 57.4058 94.417 56.4114C94.417 55.428 94.9742 54.8817 96.2418 54.6413L98.296 54.2588C98.296 53.2863 97.8371 52.8056 96.9192 52.8056C96.1106 52.8056 95.6626 53.1771 95.4878 53.8436L94.5153 53.7671C94.7339 52.6744 95.608 51.9314 96.9192 51.9314C98.4053 51.9314 99.2139 52.8274 99.2139 54.2916V56.6846C99.2139 56.9468 99.3013 57.0452 99.5198 57.0452H99.7493V57.8538C99.6837 57.8647 99.5417 57.8756 99.3996 57.8756C98.7003 57.8756 98.3834 57.6024 98.3069 56.9578C98.0228 57.5587 97.2252 57.9849 96.3729 57.9849ZM96.4603 57.1763C97.6185 57.1763 98.296 56.4333 98.296 55.4717V55.0565L96.4166 55.4062C95.6299 55.5482 95.3785 55.8432 95.3785 56.324C95.3785 56.8703 95.7828 57.1763 96.4603 57.1763ZM104.697 57.8538C104.019 57.8538 103.56 57.526 103.56 56.7611V50.0957H104.478V56.6846C104.478 56.925 104.598 57.0452 104.839 57.0452H105.341V57.8538H104.697ZM108.036 57.9849C106.834 57.9849 106.08 57.4058 106.08 56.4114C106.08 55.428 106.637 54.8817 107.905 54.6413L109.959 54.2588C109.959 53.2863 109.5 52.8056 108.582 52.8056C107.774 52.8056 107.326 53.1771 107.151 53.8436L106.178 53.7671C106.397 52.6744 107.271 51.9314 108.582 51.9314C110.068 51.9314 110.877 52.8274 110.877 54.2916V56.6846C110.877 56.9468 110.964 57.0452 111.183 57.0452H111.412V57.8538C111.347 57.8647 111.205 57.8756 111.063 57.8756C110.363 57.8756 110.047 57.6024 109.97 56.9578C109.686 57.5587 108.888 57.9849 108.036 57.9849ZM108.123 57.1763C109.282 57.1763 109.959 56.4333 109.959 55.4717V55.0565L108.08 55.4062C107.293 55.5482 107.042 55.8432 107.042 56.324C107.042 56.8703 107.446 57.1763 108.123 57.1763ZM117.125 57.9849C115.966 57.9849 115.223 57.1654 115.223 55.7886V52.0625H116.141V55.5373C116.141 56.6627 116.535 57.1763 117.365 57.1763C118.283 57.1763 118.84 56.5535 118.84 55.5154V52.0625H119.758V57.8538H118.884V56.9141C118.567 57.6024 117.955 57.9849 117.125 57.9849ZM122.645 57.8538C121.967 57.8538 121.509 57.526 121.509 56.7611V50.0957H122.426V56.6846C122.426 56.925 122.547 57.0452 122.787 57.0452H123.29V57.8538H122.645ZM126.211 57.8538C125.162 57.8538 124.67 57.3948 124.67 56.3677V52.8711H123.818V52.0625H124.67V50.7076H125.588V52.0625H127.128V52.8711H125.588V56.3459C125.588 56.8703 125.817 57.0452 126.298 57.0452H127.128V57.8538H126.211ZM128.284 51.1556V50.0848H129.245V51.1556H128.284ZM128.306 57.8538V52.0625H129.224V57.8538H128.306ZM131.08 57.8538V52.0625H131.922L131.943 53.0787C132.227 52.3685 132.828 51.9314 133.571 51.9314C134.446 51.9314 135.058 52.3685 135.309 53.1443C135.56 52.3685 136.15 51.9314 137.002 51.9314C138.237 51.9314 138.915 52.7291 138.915 54.1277V57.8538H137.997V54.3244C137.997 53.2754 137.582 52.74 136.784 52.74C135.975 52.74 135.451 53.3519 135.451 54.39V57.8538H134.533V54.39C134.533 53.3628 134.194 52.74 133.342 52.74C132.533 52.74 131.998 53.3628 131.998 54.39V57.8538H131.08ZM142.796 57.9849C141.157 57.9849 140.141 56.7939 140.141 54.9582C140.141 53.1224 141.157 51.9314 142.753 51.9314C144.26 51.9314 145.309 53.0241 145.309 54.9691V55.2422H141.103C141.168 56.4879 141.791 57.1107 142.796 57.1107C143.55 57.1107 144.042 56.7283 144.239 56.1382L145.222 56.2147C144.916 57.2528 144.02 57.9849 142.796 57.9849ZM141.103 54.4337H144.304C144.217 53.3191 143.605 52.8056 142.753 52.8056C141.857 52.8056 141.256 53.3628 141.103 54.4337ZM147.742 57.8538C147.065 57.8538 146.606 57.526 146.606 56.7611V50.0957H147.524V56.6846C147.524 56.925 147.644 57.0452 147.885 57.0452H148.387V57.8538H147.742ZM151.717 57.9849C150.078 57.9849 149.062 56.7939 149.062 54.9582C149.062 53.1224 150.078 51.9314 151.673 51.9314C153.181 51.9314 154.23 53.0241 154.23 54.9691V55.2422H150.023C150.089 56.4879 150.712 57.1107 151.717 57.1107C152.471 57.1107 152.963 56.7283 153.159 56.1382L154.143 56.2147C153.837 57.2528 152.941 57.9849 151.717 57.9849ZM150.023 54.4337H153.225C153.137 53.3191 152.526 52.8056 151.673 52.8056C150.777 52.8056 150.176 53.3628 150.023 54.4337ZM160.727 58.0286C159 58.0286 158.05 57.1326 157.984 55.8542L158.957 55.7886C159.044 56.7392 159.754 57.1107 160.727 57.1107C161.732 57.1107 162.606 56.7392 162.606 55.6902C162.606 54.6631 161.852 54.1933 160.738 54.1933H160.126V53.2754H160.738C161.655 53.2754 162.333 52.9476 162.333 52.0625C162.333 51.2649 161.808 50.8387 160.781 50.8387C159.754 50.8387 159.262 51.254 159.164 51.9423L158.181 51.8768C158.323 50.7185 159.23 49.9209 160.781 49.9209C162.355 49.9209 163.316 50.7295 163.316 52.0188C163.316 52.8493 162.857 53.4065 161.972 53.6797C162.978 53.9529 163.59 54.6959 163.59 55.6902C163.59 57.1763 162.409 58.0286 160.727 58.0286ZM169.22 57.8538L167.111 52.0625H168.116L169.799 56.9141L171.482 52.0625H172.487L170.378 57.8538H169.22ZM175.577 57.9849C173.938 57.9849 172.922 56.7939 172.922 54.9582C172.922 53.1224 173.938 51.9314 175.533 51.9314C177.041 51.9314 178.09 53.0241 178.09 54.9691V55.2422H173.883C173.949 56.4879 174.571 57.1107 175.577 57.1107C176.331 57.1107 176.822 56.7283 177.019 56.1382L178.003 56.2147C177.697 57.2528 176.801 57.9849 175.577 57.9849ZM173.883 54.4337H177.085C176.997 53.3191 176.385 52.8056 175.533 52.8056C174.637 52.8056 174.036 53.3628 173.883 54.4337ZM179.333 57.8538V52.0625H180.142L180.175 53.1334C180.382 52.4013 180.841 52.0625 181.551 52.0625H182.12V52.9367H181.562C180.688 52.9367 180.251 53.4065 180.251 54.3572V57.8538H179.333ZM183.121 51.1556V50.0848H184.082V51.1556H183.121ZM183.143 57.8538V52.0625H184.061V57.8538H183.143ZM189.556 51.1556V50.0848H190.518V51.1556H189.556ZM186.005 57.8538V52.8711H185.218V52.0625H186.005V51.5381C186.005 50.6858 186.486 50.0957 187.535 50.0957H188.453V50.9043H187.6C187.141 50.9043 186.923 51.1665 186.923 51.6036V52.0625H188.376V52.8711H186.923V57.8538H186.005ZM189.578 57.8538V52.0625H190.496V57.8538H189.578ZM194.4 57.9849C192.783 57.9849 191.745 56.7939 191.745 54.9582C191.745 53.1224 192.783 51.9314 194.4 51.9314C195.733 51.9314 196.662 52.6526 196.858 53.942L195.897 54.0075C195.766 53.2426 195.187 52.8056 194.4 52.8056C193.329 52.8056 192.706 53.6142 192.706 54.9582C192.706 56.3022 193.329 57.1107 194.4 57.1107C195.187 57.1107 195.766 56.6737 195.897 55.7995L196.858 55.8651C196.662 57.1544 195.733 57.9849 194.4 57.9849ZM200.309 51.2649C199.413 51.2649 198.823 50.7185 198.779 49.8662H199.413C199.479 50.3689 199.807 50.5874 200.309 50.5874C200.812 50.5874 201.129 50.3689 201.194 49.8662H201.828C201.784 50.7185 201.205 51.2649 200.309 51.2649ZM199.708 57.9849C198.506 57.9849 197.752 57.4058 197.752 56.4114C197.752 55.428 198.31 54.8817 199.577 54.6413L201.631 54.2588C201.631 53.2863 201.172 52.8056 200.255 52.8056C199.446 52.8056 198.998 53.1771 198.823 53.8436L197.851 53.7671C198.069 52.6744 198.943 51.9314 200.255 51.9314C201.741 51.9314 202.549 52.8274 202.549 54.2916V56.6846C202.549 56.9468 202.637 57.0452 202.855 57.0452H203.085V57.8538C203.019 57.8647 202.877 57.8756 202.735 57.8756C202.036 57.8756 201.719 57.6024 201.642 56.9578C201.358 57.5587 200.561 57.9849 199.708 57.9849ZM199.796 57.1763C200.954 57.1763 201.631 56.4333 201.631 55.4717V55.0565L199.752 55.4062C198.965 55.5482 198.714 55.8432 198.714 56.324C198.714 56.8703 199.118 57.1763 199.796 57.1763ZM204.121 57.8538V52.0625H204.93L204.963 53.1334C205.17 52.4013 205.629 52.0625 206.339 52.0625H206.908V52.9367H206.35C205.476 52.9367 205.039 53.4065 205.039 54.3572V57.8538H204.121ZM207.909 51.1556V50.0848H208.87V51.1556H207.909ZM207.931 57.8538V52.0625H208.849V57.8538H207.931ZM210.205 57.8538V56.619H211.44V57.8538H210.205Z" fill="#020617"/>
</g>
<defs>
<filter id="filter0_d_6852_17418" x="0" y="0" width="288" height="104.585" filterUnits="userSpaceOnUse" color-interpolation-filters="sRGB">
<feFlood flood-opacity="0" result="BackgroundImageFix"/>
<feColorMatrix in="SourceAlpha" type="matrix" values="0 0 0 0 0 0 0 0 0 0 0 0 0 0 0 0 0 0 127 0" result="hardAlpha"/>
<feOffset dx="8" dy="8"/>
<feGaussianBlur stdDeviation="8"/>
<feComposite in2="hardAlpha" operator="out"/>
<feColorMatrix type="matrix" values="0 0 0 0 0.0970139 0 0 0 0 0.127226 0 0 0 0 0.183333 0 0 0 0.25 0"/>
<feBlend mode="normal" in2="BackgroundImageFix" result="effect1_dropShadow_6852_17418"/>
<feBlend mode="normal" in="SourceGraphic" in2="effect1_dropShadow_6852_17418" result="shape"/>
</filter>
</defs>
</svg>
