<svg width="237" height="95" viewBox="0 0 237 95" fill="none" xmlns="http://www.w3.org/2000/svg">
<g filter="url(#filter0_d_6852_17424)">
<rect x="8" y="8.90234" width="211.958" height="61.173" rx="10.6835" fill="white" shape-rendering="crispEdges"/>
<path d="M27.9731 23.5923H98.1284C101.046 23.5925 103.412 25.9577 103.412 28.8755V50.1021C103.412 53.0198 101.046 55.385 98.1284 55.3853H27.9731C25.0552 55.3853 22.69 53.02 22.6899 50.1021V28.8755C22.6899 25.9576 25.0552 23.5923 27.9731 23.5923Z" fill="white"/>
<path d="M27.9731 23.5923H98.1284C101.046 23.5925 103.412 25.9577 103.412 28.8755V50.1021C103.412 53.0198 101.046 55.385 98.1284 55.3853H27.9731C25.0552 55.3853 22.69 53.02 22.6899 50.1021V28.8755C22.6899 25.9576 25.0552 23.5923 27.9731 23.5923Z" stroke="#E2E8F0" stroke-width="0.890295"/>
<path d="M41.831 41.2696V43.6437C41.831 43.9585 41.7059 44.2605 41.4833 44.4831C41.2607 44.7057 40.9588 44.8308 40.6439 44.8308H32.3345C32.0197 44.8308 31.7178 44.7057 31.4951 44.4831C31.2725 44.2605 31.1475 43.9585 31.1475 43.6437V41.2696M33.5216 38.3019L36.4892 41.2696M36.4892 41.2696L39.4569 38.3019M36.4892 41.2696V34.1472" stroke="#3B82F6" stroke-width="0.890295" stroke-linecap="round" stroke-linejoin="round"/>
<path d="M48.2448 43.4888V34.6392H54.0032V35.8732H49.5909V38.4533H53.8536V39.6498H49.5909V42.2548H54.1029V43.4888H48.2448ZM54.9767 43.4888L57.3822 40.0985L55.0764 36.8578H56.5471L58.1799 39.2385L59.7629 36.8578H61.2711L58.9901 40.1235L61.3708 43.4888H59.9L58.1924 40.9585L56.4724 43.4888H54.9767ZM62.3733 45.3584V36.8578H63.6197L63.6446 37.8674C64.031 37.1071 64.7664 36.7083 65.6513 36.7083C67.5957 36.7083 68.4931 38.3037 68.4931 40.1733C68.4931 42.0429 67.5833 43.6383 65.6513 43.6383C64.8038 43.6383 64.0559 43.2395 63.6945 42.5914V45.3584H62.3733ZM65.4145 42.4916C66.474 42.4916 67.1221 41.6316 67.1221 40.1733C67.1221 38.715 66.474 37.855 65.4145 37.855C64.3551 37.855 63.6945 38.6402 63.6945 40.1733C63.6945 41.7064 64.3426 42.4916 65.4145 42.4916ZM72.5643 43.6383C70.6698 43.6383 69.4234 42.2797 69.4234 40.1733C69.4234 38.0669 70.6698 36.7083 72.5643 36.7083C74.4589 36.7083 75.7053 38.0669 75.7053 40.1733C75.7053 42.2797 74.4589 43.6383 72.5643 43.6383ZM72.5643 42.4916C73.6861 42.4916 74.3342 41.6316 74.3342 40.1733C74.3342 38.715 73.6861 37.855 72.5643 37.855C71.4426 37.855 70.7944 38.715 70.7944 40.1733C70.7944 41.6316 71.4426 42.4916 72.5643 42.4916ZM77.0405 43.4888V36.8578H78.2495L78.2869 38.1167C78.5362 37.2442 79.0597 36.8578 79.8699 36.8578H80.5056V38.0419H79.8699C78.8603 38.0419 78.3617 38.528 78.3617 39.575V43.4888H77.0405ZM83.9408 43.4888C82.6819 43.4888 82.0961 42.9403 82.0961 41.6939V37.9422H81.0865V36.8578H82.0961V35.2998H83.4173V36.8578H85.1747V37.9422H83.4173V41.5942C83.4173 42.2174 83.679 42.4044 84.2275 42.4044H85.1747V43.4888H83.9408ZM89.0058 36.0228C87.9463 36.0228 87.2484 35.3871 87.1985 34.3401H88.0336C88.1084 34.9134 88.4574 35.1627 89.0058 35.1627C89.5542 35.1627 89.9032 34.9134 89.9655 34.3401H90.8131C90.7632 35.3871 90.0777 36.0228 89.0058 36.0228ZM88.258 43.6383C86.8744 43.6383 85.9895 42.9777 85.9895 41.831C85.9895 40.6968 86.6501 40.0861 88.1084 39.7994L90.3893 39.3631C90.3893 38.3411 89.9032 37.8301 88.9559 37.8301C88.1084 37.8301 87.6347 38.2164 87.4602 38.9394L86.1017 38.8521C86.3509 37.5309 87.3855 36.7083 88.9559 36.7083C90.7508 36.7083 91.7105 37.7179 91.7105 39.4379V42.018C91.7105 42.3421 91.8102 42.4418 92.0595 42.4418H92.2963V43.4888C92.2091 43.5137 92.0097 43.5262 91.8102 43.5262C91.0499 43.5262 90.6012 43.2395 90.5015 42.4667C90.165 43.1647 89.2925 43.6383 88.258 43.6383ZM88.4698 42.5914C89.6664 42.5914 90.3893 41.8435 90.3893 40.7841V40.3603L88.4449 40.7342C87.6472 40.8838 87.3605 41.1954 87.3605 41.7064C87.3605 42.2797 87.7594 42.5914 88.4698 42.5914Z" fill="#3B82F6"/>
<path d="M123.83 23.5923H199.985C202.903 23.5925 205.268 25.9577 205.268 28.8755V50.1021C205.268 53.0198 202.903 55.385 199.985 55.3853H123.83C120.912 55.3853 118.546 53.02 118.546 50.1021V28.8755C118.546 25.9576 120.912 23.5923 123.83 23.5923Z" fill="white"/>
<path d="M123.83 23.5923H199.985C202.903 23.5925 205.268 25.9577 205.268 28.8755V50.1021C205.268 53.0198 202.903 55.385 199.985 55.3853H123.83C120.912 55.3853 118.546 53.02 118.546 50.1021V28.8755C118.546 25.9576 120.912 23.5923 123.83 23.5923Z" stroke="#E2E8F0" stroke-width="0.890295"/>
<path d="M137.094 36.5213H131.752M133.533 42.4566H128.191M133.533 42.4566C133.533 43.44 134.33 44.2372 135.314 44.2372C136.297 44.2372 137.094 43.44 137.094 42.4566C137.094 41.4732 136.297 40.676 135.314 40.676C134.33 40.676 133.533 41.4732 133.533 42.4566ZM131.159 36.5213C131.159 37.5047 130.362 38.3019 129.378 38.3019C128.395 38.3019 127.598 37.5047 127.598 36.5213C127.598 35.5379 128.395 34.7407 129.378 34.7407C130.362 34.7407 131.159 35.5379 131.159 36.5213Z" stroke="#3B82F6" stroke-width="0.890295" stroke-linecap="round" stroke-linejoin="round"/>
<path d="M144.101 43.4888V34.6392H149.847V35.8732H145.447V38.5654H149.623V39.762H145.447V43.4888H144.101ZM151.133 35.8981V34.5769H152.504V35.8981H151.133ZM151.158 43.4888V36.8578H152.479V43.4888H151.158ZM155.695 43.4888C154.823 43.4888 154.249 43.065 154.249 42.0803V34.6392H155.571V41.9557C155.571 42.2673 155.733 42.4044 156.032 42.4044H156.555V43.4888H155.695ZM159.933 43.4888C158.674 43.4888 158.088 42.9403 158.088 41.6939V37.9422H157.078V36.8578H158.088V35.2998H159.409V36.8578H161.166V37.9422H159.409V41.5942C159.409 42.2174 159.671 42.4044 160.219 42.4044H161.166V43.4888H159.933ZM162.563 43.4888V36.8578H163.772L163.809 38.1167C164.059 37.2442 164.582 36.8578 165.392 36.8578H166.028V38.0419H165.392C164.383 38.0419 163.884 38.528 163.884 39.575V43.4888H162.563ZM169.699 43.6383C167.767 43.6383 166.558 42.2673 166.558 40.1733C166.558 38.0793 167.767 36.7083 169.661 36.7083C171.469 36.7083 172.69 37.9921 172.69 40.2232V40.5597H167.929C167.991 41.856 168.652 42.5041 169.711 42.5041C170.484 42.5041 171.008 42.1177 171.219 41.4945L172.591 41.5818C172.242 42.8157 171.157 43.6383 169.699 43.6383ZM167.929 39.5626H171.294C171.207 38.3909 170.559 37.8301 169.661 37.8301C168.714 37.8301 168.079 38.4408 167.929 39.5626ZM176.02 43.6383C174.636 43.6383 173.752 42.9777 173.752 41.831C173.752 40.6968 174.412 40.0861 175.87 39.7994L178.151 39.3631C178.151 38.3411 177.665 37.8301 176.718 37.8301C175.87 37.8301 175.397 38.2164 175.222 38.9394L173.864 38.8521C174.113 37.5309 175.148 36.7083 176.718 36.7083C178.513 36.7083 179.473 37.7179 179.473 39.4379V42.018C179.473 42.3421 179.572 42.4418 179.822 42.4418H180.058V43.4888C179.971 43.5137 179.772 43.5262 179.572 43.5262C178.812 43.5262 178.363 43.2395 178.264 42.4667C177.927 43.1647 177.055 43.6383 176.02 43.6383ZM176.232 42.5914C177.428 42.5914 178.151 41.8435 178.151 40.7841V40.3603L176.207 40.7342C175.409 40.8838 175.123 41.1954 175.123 41.7064C175.123 42.2797 175.521 42.5914 176.232 42.5914ZM180.864 43.4888V42.3047L184.865 37.9422H180.989V36.8578H186.386V38.0419L182.348 42.4044H186.486V43.4888H180.864ZM190.534 36.0228C189.475 36.0228 188.777 35.3871 188.727 34.3401H189.562C189.637 34.9134 189.986 35.1627 190.534 35.1627C191.083 35.1627 191.432 34.9134 191.494 34.3401H192.342C192.292 35.3871 191.606 36.0228 190.534 36.0228ZM189.787 43.6383C188.403 43.6383 187.518 42.9777 187.518 41.831C187.518 40.6968 188.179 40.0861 189.637 39.7994L191.918 39.3631C191.918 38.3411 191.432 37.8301 190.485 37.8301C189.637 37.8301 189.163 38.2164 188.989 38.9394L187.63 38.8521C187.88 37.5309 188.914 36.7083 190.485 36.7083C192.279 36.7083 193.239 37.7179 193.239 39.4379V42.018C193.239 42.3421 193.339 42.4418 193.588 42.4418H193.825V43.4888C193.738 43.5137 193.538 43.5262 193.339 43.5262C192.579 43.5262 192.13 43.2395 192.03 42.4667C191.694 43.1647 190.821 43.6383 189.787 43.6383ZM189.998 42.5914C191.195 42.5914 191.918 41.8435 191.918 40.7841V40.3603L189.974 40.7342C189.176 40.8838 188.889 41.1954 188.889 41.7064C188.889 42.2797 189.288 42.5914 189.998 42.5914Z" fill="#3B82F6"/>
</g>
<defs>
<filter id="filter0_d_6852_17424" x="0" y="0.902344" width="243.958" height="93.1731" filterUnits="userSpaceOnUse" color-interpolation-filters="sRGB">
<feFlood flood-opacity="0" result="BackgroundImageFix"/>
<feColorMatrix in="SourceAlpha" type="matrix" values="0 0 0 0 0 0 0 0 0 0 0 0 0 0 0 0 0 0 127 0" result="hardAlpha"/>
<feOffset dx="8" dy="8"/>
<feGaussianBlur stdDeviation="8"/>
<feComposite in2="hardAlpha" operator="out"/>
<feColorMatrix type="matrix" values="0 0 0 0 0.0970139 0 0 0 0 0.127226 0 0 0 0 0.183333 0 0 0 0.25 0"/>
<feBlend mode="normal" in2="BackgroundImageFix" result="effect1_dropShadow_6852_17424"/>
<feBlend mode="normal" in="SourceGraphic" in2="effect1_dropShadow_6852_17424" result="shape"/>
</filter>
</defs>
</svg>
