<svg width="135" height="394" viewBox="0 0 135 394" fill="none" xmlns="http://www.w3.org/2000/svg">
<g filter="url(#filter0_d_6852_17407)">
<rect x="8" y="8" width="102.019" height="424.341" rx="6.80123" fill="white" shape-rendering="crispEdges"/>
<path d="M20.3783 29.4805C18.5465 29.4805 17.4674 28.084 17.4674 26.1253C17.4674 24.1937 18.5646 22.7519 20.4146 22.7519C22.0015 22.7519 22.8177 23.6678 23.0716 24.9192L22.0469 24.9736C21.8927 24.1846 21.4302 23.6496 20.4146 23.6496C19.0725 23.6496 18.483 24.7741 18.483 26.1253C18.483 27.5309 19.0815 28.5828 20.4236 28.5828C21.4756 28.5828 22.1194 27.821 22.1557 26.8779H20.4327V26.0527H23.0897V29.3354H22.4187L22.3733 28.3107C22.0559 29.009 21.267 29.4805 20.3783 29.4805ZM24.2132 29.3354V24.5111H25.0928L25.12 25.427C25.3014 24.7922 25.6823 24.5111 26.2717 24.5111H26.7342V25.3726H26.2717C25.5372 25.3726 25.1744 25.7263 25.1744 26.488V29.3354H24.2132ZM28.7879 29.4443C27.7813 29.4443 27.1374 28.9636 27.1374 28.1294C27.1374 27.3041 27.6181 26.8598 28.6791 26.6512L30.3386 26.3338C30.3386 25.5902 29.9849 25.2184 29.2957 25.2184C28.6791 25.2184 28.3345 25.4996 28.2075 26.0255L27.2191 25.962C27.4004 25.0008 28.1531 24.4023 29.2957 24.4023C30.6015 24.4023 31.2998 25.1368 31.2998 26.3882V28.2654C31.2998 28.5012 31.3723 28.5737 31.5537 28.5737H31.726V29.3354C31.6625 29.3536 31.5174 29.3627 31.3723 29.3627C30.8192 29.3627 30.4927 29.1541 30.4202 28.5918C30.1753 29.0997 29.5405 29.4443 28.7879 29.4443ZM28.942 28.6825C29.8126 28.6825 30.3386 28.1384 30.3386 27.3676V27.0593L28.9239 27.3314C28.3435 27.4402 28.135 27.6669 28.135 28.0387C28.135 28.4558 28.4251 28.6825 28.942 28.6825ZM34.2161 29.4443C32.9738 29.4443 32.2029 28.474 32.2029 26.9233C32.2029 25.3817 32.9828 24.4023 34.2161 24.4023C34.8781 24.4023 35.4313 24.6925 35.6942 25.1912V22.8969H36.6555V29.3354H35.7577L35.7305 28.61C35.4585 29.1359 34.8872 29.4443 34.2161 29.4443ZM34.47 28.61C35.259 28.61 35.6942 27.9843 35.6942 26.9233C35.6942 25.8532 35.259 25.2366 34.47 25.2366C33.6992 25.2366 33.2005 25.8714 33.2005 26.9233C33.2005 27.9571 33.6992 28.61 34.47 28.61ZM40.2063 23.8128V22.8516H41.2038V23.8128H40.2063ZM40.2244 29.3354V24.5111H41.1857V29.3354H40.2244ZM42.6244 29.3354V24.5111H43.504L43.5221 25.3545C43.776 24.6925 44.3292 24.4023 44.9912 24.4023C46.0703 24.4023 46.6235 25.1822 46.6235 26.2341V29.3354H45.6622V26.5243C45.6622 25.6719 45.3993 25.2094 44.7282 25.2094C44.0481 25.2094 43.5856 25.6719 43.5856 26.5243V29.3354H42.6244ZM48.1884 29.3354V25.3545H47.5173V24.5746H48.1884V24.2028C48.1884 23.4048 48.6237 22.8969 49.5759 22.8969H50.4283V23.6859H49.7028C49.3219 23.6859 49.1496 23.8945 49.1496 24.2572V24.5746H50.3557V25.3545H49.1496V29.3354H48.1884ZM53.041 29.4443C51.6354 29.4443 50.7558 28.4468 50.7558 26.9233C50.7558 25.3998 51.6354 24.4023 53.0138 24.4023C54.3287 24.4023 55.2174 25.3363 55.2174 26.9596V27.2044H51.7533C51.7986 28.1475 52.2793 28.6191 53.0501 28.6191C53.6123 28.6191 53.9932 28.3379 54.1473 27.8845L55.1449 27.948C54.8909 28.8458 54.102 29.4443 53.041 29.4443ZM51.7533 26.4789H54.2018C54.1383 25.6265 53.6667 25.2184 53.0138 25.2184C52.3246 25.2184 51.8621 25.6628 51.7533 26.4789ZM58.0504 29.4443C56.6902 29.4443 55.9647 28.7641 55.8921 27.812L56.8806 27.7666C56.9713 28.3017 57.3159 28.6372 58.0504 28.6372C58.6489 28.6372 59.0298 28.4558 59.0298 28.0296C59.0298 27.6759 58.8484 27.5218 57.8872 27.3586C56.4544 27.1046 56.01 26.6875 56.01 25.8986C56.01 25.0189 56.6811 24.4023 57.9325 24.4023C59.1749 24.4023 59.8187 25.1096 59.9547 25.9892L58.9663 26.0437C58.8756 25.5449 58.522 25.2094 57.9234 25.2094C57.3068 25.2094 57.0075 25.4814 57.0075 25.8623C57.0075 26.2885 57.2887 26.4608 58.0776 26.5878C59.5829 26.8326 60.0273 27.2316 60.0273 28.0205C60.0273 28.9274 59.2021 29.4443 58.0504 29.4443ZM62.6729 29.3354C61.757 29.3354 61.3308 28.9364 61.3308 28.0296V25.3H60.5963V24.5111H61.3308V23.3776H62.292V24.5111H63.5707V25.3H62.292V27.9571C62.292 28.4105 62.4825 28.5465 62.8815 28.5465H63.5707V29.3354H62.6729ZM65.8139 29.4443C64.8073 29.4443 64.1634 28.9636 64.1634 28.1294C64.1634 27.3041 64.6441 26.8598 65.705 26.6512L67.3645 26.3338C67.3645 25.5902 67.0109 25.2184 66.3217 25.2184C65.705 25.2184 65.3605 25.4996 65.2335 26.0255L64.2451 25.962C64.4264 25.0008 65.1791 24.4023 66.3217 24.4023C67.6275 24.4023 68.3258 25.1368 68.3258 26.3882V28.2654C68.3258 28.5012 68.3983 28.5737 68.5797 28.5737H68.752V29.3354C68.6885 29.3536 68.5434 29.3627 68.3983 29.3627C67.8452 29.3627 67.5187 29.1541 67.4462 28.5918C67.2013 29.0997 66.5665 29.4443 65.8139 29.4443ZM65.968 28.6825C66.8386 28.6825 67.3645 28.1384 67.3645 27.3676V27.0593L65.9499 27.3314C65.3695 27.4402 65.1609 27.6669 65.1609 28.0387C65.1609 28.4558 65.4511 28.6825 65.968 28.6825ZM69.5636 29.3354V24.5111H70.4432L70.4704 25.427C70.6518 24.7922 71.0327 24.5111 71.6221 24.5111H72.0846V25.3726H71.6221C70.8876 25.3726 70.5249 25.7263 70.5249 26.488V29.3354H69.5636ZM74.7554 29.4443C73.3498 29.4443 72.4702 28.4468 72.4702 26.9233C72.4702 25.3998 73.3498 24.4023 74.7282 24.4023C76.0431 24.4023 76.9318 25.3363 76.9318 26.9596V27.2044H73.4677C73.513 28.1475 73.9936 28.6191 74.7644 28.6191C75.3267 28.6191 75.7075 28.3379 75.8617 27.8845L76.8592 27.948C76.6053 28.8458 75.8164 29.4443 74.7554 29.4443ZM73.4677 26.4789H75.9161C75.8526 25.6265 75.3811 25.2184 74.7282 25.2184C74.039 25.2184 73.5765 25.6628 73.4677 26.4789Z" fill="#64748B"/>
<path d="M83.7363 27.8469L85.2477 29.3583M85.2477 29.3583L86.7591 27.8469M85.2477 29.3583V23.3127M90.5376 24.8241L89.0262 23.3127M89.0262 23.3127L87.5148 24.8241M89.0262 23.3127V29.3583" stroke="#64748B" stroke-width="0.56677" stroke-linecap="round" stroke-linejoin="round"/>
<line x1="8" y1="44.7166" x2="66" y2="44.7166" stroke="#E2E8F0" stroke-width="0.56677"/>
<g clip-path="url(#clip0_6852_17407)">
<path d="M41.9409 66.2082C41.9409 60.4641 46.5974 55.8076 52.3415 55.8076H65.6769C71.421 55.8076 76.0775 60.4641 76.0775 66.2082C76.0775 71.9523 71.421 76.6089 65.6769 76.6089H52.3415C46.5974 76.6089 41.9409 71.9523 41.9409 66.2082Z" fill="#16A34A"/>
<path d="M51.7892 69.2083V62.7697H53.1313L55.0447 68.0566L56.9581 62.7697H58.3002V69.2083H57.3208V64.4927L55.5888 69.1992H54.5006L52.7685 64.4927V69.2083H51.7892ZM59.5795 63.6856V62.7244H60.577V63.6856H59.5795ZM59.5976 69.2083V64.3839H60.5588V69.2083H59.5976ZM63.8152 69.3171C62.4278 69.3171 61.53 68.3196 61.53 66.7961C61.53 65.2726 62.4278 64.2751 63.8152 64.2751C64.985 64.2751 65.8103 64.9099 65.9735 66.0253L64.9669 66.0797C64.8671 65.454 64.4228 65.1094 63.8152 65.1094C62.9991 65.1094 62.5275 65.7351 62.5275 66.7961C62.5275 67.8571 62.9991 68.4828 63.8152 68.4828C64.4319 68.4828 64.8762 68.1382 64.9669 67.4399L65.9735 67.4943C65.8193 68.6007 64.9941 69.3171 63.8152 69.3171Z" fill="#F8FAFC"/>
<line x1="8" y1="87.3875" x2="110" y2="87.3875" stroke="#E2E8F0" stroke-width="0.56677"/>
</g>
<g clip-path="url(#clip1_6852_17407)">
<path d="M41.9409 109.283C41.9409 103.539 46.5974 98.8821 52.3415 98.8821H65.6769C71.421 98.8821 76.0775 103.539 76.0775 109.283C76.0775 115.027 71.421 119.683 65.6769 119.683H52.3415C46.5974 119.683 41.9409 115.027 41.9409 109.283Z" fill="#16A34A"/>
<path d="M51.7892 112.283V105.844H53.1313L55.0447 111.131L56.9581 105.844H58.3002V112.283H57.3208V107.567L55.5888 112.274H54.5006L52.7685 107.567V112.283H51.7892ZM59.5795 106.76V105.799H60.577V106.76H59.5795ZM59.5976 112.283V107.458H60.5588V112.283H59.5976ZM63.8152 112.392C62.4278 112.392 61.53 111.394 61.53 109.871C61.53 108.347 62.4278 107.35 63.8152 107.35C64.985 107.35 65.8103 107.984 65.9735 109.1L64.9669 109.154C64.8671 108.528 64.4228 108.184 63.8152 108.184C62.9991 108.184 62.5275 108.81 62.5275 109.871C62.5275 110.932 62.9991 111.557 63.8152 111.557C64.4319 111.557 64.8762 111.213 64.9669 110.514L65.9735 110.569C65.8193 111.675 64.9941 112.392 63.8152 112.392Z" fill="#F8FAFC"/>
<line x1="8" y1="130.462" x2="110" y2="130.462" stroke="#E2E8F0" stroke-width="0.56677"/>
</g>
<g clip-path="url(#clip2_6852_17407)">
<path d="M36.9409 152.357C36.9409 146.613 41.5974 141.957 47.3415 141.957H70.6769C76.421 141.957 81.0775 146.613 81.0775 152.357C81.0775 158.101 76.421 162.758 70.6769 162.758H47.3415C41.5974 162.758 36.9409 158.101 36.9409 152.357Z" fill="#E6A000"/>
<path d="M46.7892 155.357V148.919H48.1313L50.0447 154.206L51.9581 148.919H53.3002V155.357H52.3208V150.642L50.5888 155.348H49.5006L47.7685 150.642V155.357H46.7892ZM56.6544 155.466C55.2488 155.466 54.3692 154.468 54.3692 152.945C54.3692 151.422 55.2488 150.424 56.6272 150.424C57.9421 150.424 58.8308 151.358 58.8308 152.981V153.226H55.3667C55.4121 154.169 55.8927 154.641 56.6635 154.641C57.2257 154.641 57.6066 154.36 57.7607 153.906L58.7583 153.97C58.5043 154.867 57.7154 155.466 56.6544 155.466ZM55.3667 152.501H57.8152C57.7517 151.648 57.2801 151.24 56.6272 151.24C55.938 151.24 55.4755 151.685 55.3667 152.501ZM61.5187 155.466C60.2764 155.466 59.5055 154.496 59.5055 152.945C59.5055 151.403 60.2854 150.424 61.5187 150.424C62.1807 150.424 62.7339 150.714 62.9968 151.213V148.919H63.9581V155.357H63.0603L63.0331 154.632C62.7611 155.158 62.1898 155.466 61.5187 155.466ZM61.7726 154.632C62.5616 154.632 62.9968 154.006 62.9968 152.945C62.9968 151.875 62.5616 151.258 61.7726 151.258C61.0018 151.258 60.5031 151.893 60.5031 152.945C60.5031 153.979 61.0018 154.632 61.7726 154.632ZM65.1444 149.835V148.873H66.1419V149.835H65.1444ZM65.1625 155.357V150.533H66.1238V155.357H65.1625ZM68.9015 155.466C67.9221 155.466 67.3145 154.786 67.3145 153.634V150.533H68.2757V153.389C68.2757 154.269 68.575 154.659 69.1916 154.659C69.8899 154.659 70.307 154.187 70.307 153.362V150.533H71.2683V155.357H70.3705L70.3615 154.568C70.1075 155.158 69.5997 155.466 68.9015 155.466Z" fill="#F8FAFC"/>
<line x1="8" y1="173.536" x2="110" y2="173.536" stroke="#E2E8F0" stroke-width="0.56677"/>
</g>
<g clip-path="url(#clip3_6852_17407)">
<path d="M41.9409 195.432C41.9409 189.688 46.5974 185.031 52.3415 185.031H65.6769C71.421 185.031 76.0775 189.688 76.0775 195.432C76.0775 201.176 71.421 205.832 65.6769 205.832H52.3415C46.5974 205.832 41.9409 201.176 41.9409 195.432Z" fill="#16A34A"/>
<path d="M51.7892 198.432V191.993H53.1313L55.0447 197.28L56.9581 191.993H58.3002V198.432H57.3208V193.716L55.5888 198.423H54.5006L52.7685 193.716V198.432H51.7892ZM59.5795 192.909V191.948H60.577V192.909H59.5795ZM59.5976 198.432V193.607H60.5588V198.432H59.5976ZM63.8152 198.54C62.4278 198.54 61.53 197.543 61.53 196.019C61.53 194.496 62.4278 193.498 63.8152 193.498C64.985 193.498 65.8103 194.133 65.9735 195.249L64.9669 195.303C64.8671 194.677 64.4228 194.333 63.8152 194.333C62.9991 194.333 62.5275 194.958 62.5275 196.019C62.5275 197.08 62.9991 197.706 63.8152 197.706C64.4319 197.706 64.8762 197.362 64.9669 196.663L65.9735 196.718C65.8193 197.824 64.9941 198.54 63.8152 198.54Z" fill="#F8FAFC"/>
<line x1="8" y1="216.611" x2="110" y2="216.611" stroke="#E2E8F0" stroke-width="0.56677"/>
</g>
<path d="M36.9409 238.506C36.9409 232.762 41.5974 228.105 47.3415 228.105H70.6769C76.421 228.105 81.0775 232.762 81.0775 238.506C81.0775 244.25 76.421 248.907 70.6769 248.907H47.3415C41.5974 248.907 36.9409 244.25 36.9409 238.506Z" fill="#E6A000"/>
<path d="M46.7892 241.506V235.068H48.1313L50.0447 240.354L51.9581 235.068H53.3002V241.506H52.3208V236.791L50.5888 241.497H49.5006L47.7685 236.791V241.506H46.7892ZM56.6544 241.615C55.2488 241.615 54.3692 240.617 54.3692 239.094C54.3692 237.57 55.2488 236.573 56.6272 236.573C57.9421 236.573 58.8308 237.507 58.8308 239.13V239.375H55.3667C55.4121 240.318 55.8927 240.79 56.6635 240.79C57.2257 240.79 57.6066 240.509 57.7607 240.055L58.7583 240.119C58.5043 241.016 57.7154 241.615 56.6544 241.615ZM55.3667 238.65H57.8152C57.7517 237.797 57.2801 237.389 56.6272 237.389C55.938 237.389 55.4755 237.833 55.3667 238.65ZM61.5187 241.615C60.2764 241.615 59.5055 240.645 59.5055 239.094C59.5055 237.552 60.2854 236.573 61.5187 236.573C62.1807 236.573 62.7339 236.863 62.9968 237.362V235.068H63.9581V241.506H63.0603L63.0331 240.781C62.7611 241.307 62.1898 241.615 61.5187 241.615ZM61.7726 240.781C62.5616 240.781 62.9968 240.155 62.9968 239.094C62.9968 238.024 62.5616 237.407 61.7726 237.407C61.0018 237.407 60.5031 238.042 60.5031 239.094C60.5031 240.128 61.0018 240.781 61.7726 240.781ZM65.1444 235.984V235.022H66.1419V235.984H65.1444ZM65.1625 241.506V236.682H66.1238V241.506H65.1625ZM68.9015 241.615C67.9221 241.615 67.3145 240.935 67.3145 239.783V236.682H68.2757V239.538C68.2757 240.418 68.575 240.808 69.1916 240.808C69.8899 240.808 70.307 240.336 70.307 239.511V236.682H71.2683V241.506H70.3705L70.3615 240.717C70.1075 241.307 69.5997 241.615 68.9015 241.615Z" fill="#F8FAFC"/>
<line x1="8" y1="259.685" x2="110" y2="259.685" stroke="#E2E8F0" stroke-width="0.56677"/>
<g clip-path="url(#clip4_6852_17407)">
<path d="M36.9409 281.581C36.9409 275.836 41.5974 271.18 47.3415 271.18H70.6769C76.421 271.18 81.0775 275.836 81.0775 281.581C81.0775 287.325 76.421 291.981 70.6769 291.981H47.3415C41.5974 291.981 36.9409 287.325 36.9409 281.581Z" fill="#E6A000"/>
<path d="M46.7892 284.581V278.142H48.1313L50.0447 283.429L51.9581 278.142H53.3002V284.581H52.3208V279.865L50.5888 284.571H49.5006L47.7685 279.865V284.581H46.7892ZM56.6544 284.689C55.2488 284.689 54.3692 283.692 54.3692 282.168C54.3692 280.645 55.2488 279.647 56.6272 279.647C57.9421 279.647 58.8308 280.581 58.8308 282.205V282.45H55.3667C55.4121 283.393 55.8927 283.864 56.6635 283.864C57.2257 283.864 57.6066 283.583 57.7607 283.13L58.7583 283.193C58.5043 284.091 57.7154 284.689 56.6544 284.689ZM55.3667 281.724H57.8152C57.7517 280.872 57.2801 280.464 56.6272 280.464C55.938 280.464 55.4755 280.908 55.3667 281.724ZM61.5187 284.689C60.2764 284.689 59.5055 283.719 59.5055 282.168C59.5055 280.627 60.2854 279.647 61.5187 279.647C62.1807 279.647 62.7339 279.938 62.9968 280.436V278.142H63.9581V284.581H63.0603L63.0331 283.855C62.7611 284.381 62.1898 284.689 61.5187 284.689ZM61.7726 283.855C62.5616 283.855 62.9968 283.229 62.9968 282.168C62.9968 281.098 62.5616 280.482 61.7726 280.482C61.0018 280.482 60.5031 281.116 60.5031 282.168C60.5031 283.202 61.0018 283.855 61.7726 283.855ZM65.1444 279.058V278.097H66.1419V279.058H65.1444ZM65.1625 284.581V279.756H66.1238V284.581H65.1625ZM68.9015 284.689C67.9221 284.689 67.3145 284.009 67.3145 282.858V279.756H68.2757V282.613C68.2757 283.492 68.575 283.882 69.1916 283.882C69.8899 283.882 70.307 283.411 70.307 282.586V279.756H71.2683V284.581H70.3705L70.3615 283.792C70.1075 284.381 69.5997 284.689 68.9015 284.689Z" fill="#F8FAFC"/>
<line x1="8" y1="302.76" x2="110" y2="302.76" stroke="#E2E8F0" stroke-width="0.56677"/>
</g>
<g clip-path="url(#clip5_6852_17407)">
<mask id="path-24-inside-1_6852_17407" fill="white">
<path d="M8 303.118H110.019V346.192H8V303.118Z"/>
</mask>
<path d="M38.9409 324.655C38.9409 318.911 43.5974 314.254 49.3415 314.254H68.6769C74.421 314.254 79.0775 318.911 79.0775 324.655C79.0775 330.399 74.421 335.056 68.6769 335.056H49.3415C43.5974 335.056 38.9409 330.399 38.9409 324.655Z" fill="#DC2626"/>
<path d="M48.7892 327.655V321.217H50.1313L52.0447 326.503L53.9581 321.217H55.3002V327.655H54.3208V322.94L52.5888 327.646H51.5006L49.7685 322.94V327.655H48.7892ZM58.0196 327.764C57.013 327.764 56.3692 327.283 56.3692 326.449C56.3692 325.624 56.8498 325.179 57.9108 324.971L59.5703 324.653C59.5703 323.91 59.2166 323.538 58.5275 323.538C57.9108 323.538 57.5662 323.819 57.4393 324.345L56.4508 324.282C56.6322 323.32 57.3849 322.722 58.5275 322.722C59.8333 322.722 60.5316 323.456 60.5316 324.708V326.585C60.5316 326.821 60.6041 326.893 60.7855 326.893H60.9578V327.655C60.8943 327.673 60.7492 327.682 60.6041 327.682C60.0509 327.682 59.7245 327.474 59.6519 326.911C59.4071 327.419 58.7723 327.764 58.0196 327.764ZM58.1738 327.002C59.0444 327.002 59.5703 326.458 59.5703 325.687V325.379L58.1557 325.651C57.5753 325.76 57.3667 325.986 57.3667 326.358C57.3667 326.775 57.6569 327.002 58.1738 327.002ZM61.7694 327.655V322.831H62.649L62.6762 323.747C62.8576 323.112 63.2384 322.831 63.8279 322.831H64.2904V323.692H63.8279C63.0934 323.692 62.7306 324.046 62.7306 324.808V327.655H61.7694ZM66.9611 327.764C65.5555 327.764 64.6759 326.766 64.6759 325.243C64.6759 323.719 65.5555 322.722 66.9339 322.722C68.2488 322.722 69.1375 323.656 69.1375 325.279V325.524H65.6734C65.7188 326.467 66.1994 326.939 66.9702 326.939C67.5324 326.939 67.9133 326.658 68.0675 326.204L69.065 326.268C68.8111 327.165 68.0221 327.764 66.9611 327.764ZM65.6734 324.799H68.1219C68.0584 323.946 67.5868 323.538 66.9339 323.538C66.2447 323.538 65.7822 323.982 65.6734 324.799Z" fill="#F8FAFC"/>
</g>
<path d="M110.019 345.625H8V346.759H110.019V345.625Z" fill="#E2E8F0" mask="url(#path-24-inside-1_6852_17407)"/>
<g clip-path="url(#clip6_6852_17407)">
<path d="M41.9409 367.729C41.9409 361.985 46.5974 357.329 52.3415 357.329H65.6769C71.421 357.329 76.0775 361.985 76.0775 367.729C76.0775 373.474 71.421 378.13 65.6769 378.13H52.3415C46.5974 378.13 41.9409 373.474 41.9409 367.729Z" fill="#16A34A"/>
<path d="M51.7892 370.729V364.291H53.1313L55.0447 369.578L56.9581 364.291H58.3002V370.729H57.3208V366.014L55.5888 370.72H54.5006L52.7685 366.014V370.729H51.7892ZM59.5795 365.207V364.246H60.577V365.207H59.5795ZM59.5976 370.729V365.905H60.5588V370.729H59.5976ZM63.8152 370.838C62.4278 370.838 61.53 369.841 61.53 368.317C61.53 366.794 62.4278 365.796 63.8152 365.796C64.985 365.796 65.8103 366.431 65.9735 367.547L64.9669 367.601C64.8671 366.975 64.4228 366.631 63.8152 366.631C62.9991 366.631 62.5275 367.256 62.5275 368.317C62.5275 369.378 62.9991 370.004 63.8152 370.004C64.4319 370.004 64.8762 369.659 64.9669 368.961L65.9735 369.016C65.8193 370.122 64.9941 370.838 63.8152 370.838Z" fill="#F8FAFC"/>
<line x1="8" y1="388.909" x2="110" y2="388.909" stroke="#E2E8F0" stroke-width="0.56677"/>
</g>
<g clip-path="url(#clip7_6852_17407)">
<mask id="path-31-inside-2_6852_17407" fill="white">
<path d="M8 389.267H110.019V432.341H8V389.267Z"/>
</mask>
</g>
<path d="M110.019 431.774H8V432.908H110.019V431.774Z" fill="#E2E8F0" mask="url(#path-31-inside-2_6852_17407)"/>
</g>
<defs>
<filter id="filter0_d_6852_17407" x="0" y="0" width="134.019" height="456.341" filterUnits="userSpaceOnUse" color-interpolation-filters="sRGB">
<feFlood flood-opacity="0" result="BackgroundImageFix"/>
<feColorMatrix in="SourceAlpha" type="matrix" values="0 0 0 0 0 0 0 0 0 0 0 0 0 0 0 0 0 0 127 0" result="hardAlpha"/>
<feOffset dx="8" dy="8"/>
<feGaussianBlur stdDeviation="8"/>
<feComposite in2="hardAlpha" operator="out"/>
<feColorMatrix type="matrix" values="0 0 0 0 0.0970139 0 0 0 0 0.127226 0 0 0 0 0.183333 0 0 0 0.25 0"/>
<feBlend mode="normal" in2="BackgroundImageFix" result="effect1_dropShadow_6852_17407"/>
<feBlend mode="normal" in="SourceGraphic" in2="effect1_dropShadow_6852_17407" result="shape"/>
</filter>
<clipPath id="clip0_6852_17407">
<rect width="102.019" height="43.0745" fill="white" transform="translate(8 44.6709)"/>
</clipPath>
<clipPath id="clip1_6852_17407">
<rect width="102.019" height="43.0745" fill="white" transform="translate(8 87.7454)"/>
</clipPath>
<clipPath id="clip2_6852_17407">
<rect width="102.019" height="43.0745" fill="white" transform="translate(8 130.82)"/>
</clipPath>
<clipPath id="clip3_6852_17407">
<rect width="102.019" height="43.0745" fill="white" transform="translate(8 173.894)"/>
</clipPath>
<clipPath id="clip4_6852_17407">
<rect width="102.019" height="43.0745" fill="white" transform="translate(8 260.043)"/>
</clipPath>
<clipPath id="clip5_6852_17407">
<path d="M8 303.118H110.019V346.192H8V303.118Z" fill="white"/>
</clipPath>
<clipPath id="clip6_6852_17407">
<rect width="102.019" height="43.0745" fill="white" transform="translate(8 346.192)"/>
</clipPath>
<clipPath id="clip7_6852_17407">
<path d="M8 389.267H110.019V432.341H8V389.267Z" fill="white"/>
</clipPath>
</defs>
</svg>
